<svg width="600" height="150" viewBox="0 0 600 150" xmlns="http://www.w3.org/2000/svg">
  <defs>
    <filter id="shadow2" x="-2%" y="-2%" width="104%" height="108%">
      <feDropShadow dx="0" dy="2" stdDeviation="3" flood-opacity="0.1" />
    </filter>
    <linearGradient id="fillGrad" x1="0" y1="0" x2="0" y2="1">
      <stop offset="0%" stop-color="#0366d6" stop-opacity="0.3"/>
      <stop offset="100%" stop-color="#0366d6" stop-opacity="0.02"/>
    </linearGradient>
  </defs>
  <rect width="600" height="150" rx="12" fill="#ffffff" filter="url(#shadow2)" stroke="#e1e4e8" stroke-width="1"/>
  <text x="20" y="24" fill="#2b3137" font-family="-apple-system,BlinkMacSystemFont,'Segoe UI',Helvetica,Arial,sans-serif" font-size="14" font-weight="600">📈 Download Growth (Actual: 82.6k)</text>
  
  <!-- Area sotto la linea -->
  <polygon fill="url(#fillGrad)" points="30.0,120.0,120 30.0,120.0 31.8,119.4 33.6,118.7 35.5,118.1 37.3,117.9 39.1,117.6 40.9,116.8 42.7,116.3 44.5,116.0 46.4,115.2 48.2,114.9 50.0,114.5 51.8,114.3 53.6,113.9 55.5,113.4 57.3,112.8 59.1,112.4 60.9,112.1 62.7,111.9 64.5,111.6 66.4,111.2 68.2,110.8 70.0,110.7 71.8,110.3 73.6,109.1 75.5,108.8 77.3,108.3 79.1,107.8 80.9,107.4 82.7,107.0 84.5,106.7 86.4,106.5 88.2,106.2 90.0,105.6 91.8,105.1 93.6,104.8 95.5,104.4 97.3,104.2 99.1,104.1 100.9,103.9 102.7,103.6 104.5,103.3 106.4,103.2 108.2,102.7 110.0,102.1 111.8,101.9 113.6,101.8 115.5,101.5 117.3,101.0 119.1,100.7 120.9,100.1 122.7,99.8 124.5,99.3 126.4,99.2 128.2,98.9 130.0,98.4 131.8,97.9 133.6,97.6 135.5,97.4 137.3,97.2 139.1,96.9 140.9,96.4 142.7,95.9 144.5,95.5 146.4,95.0 148.2,94.8 150.0,94.6 151.8,94.4 153.6,94.1 155.5,93.8 157.3,93.6 159.1,93.4 160.9,93.3 162.7,93.0 164.5,92.8 166.4,92.7 168.2,92.6 170.0,92.1 171.8,91.8 173.6,91.8 175.5,91.6 177.3,91.5 179.1,91.5 180.9,99.6 182.7,98.8 184.5,98.1 186.4,97.4 188.2,95.1 190.0,93.6 191.8,91.9 193.6,91.3 195.5,90.6 197.3,89.5 199.1,88.2 200.9,87.3 202.7,87.0 204.5,86.6 206.4,85.7 208.2,85.1 210.0,84.7 211.8,84.1 213.6,83.9 215.5,83.8 217.3,83.4 219.1,82.6 220.9,82.1 222.7,81.5 224.5,80.9 226.4,80.6 228.2,80.4 230.0,79.9 231.8,79.4 233.6,78.9 235.5,78.6 237.3,78.4 239.1,78.3 240.9,78.0 242.7,77.6 244.5,77.3 246.4,77.0 248.2,76.8 250.0,76.6 251.8,76.3 253.6,76.1 255.5,75.9 257.3,75.7 259.1,75.3 260.9,75.0 262.7,74.6 264.5,74.4 266.4,74.2 268.2,74.0 270.0,73.8 271.8,73.6 273.6,73.0 275.5,72.6 277.3,72.1 279.1,72.0 280.9,71.9 282.7,71.7 284.5,71.4 286.4,71.1 288.2,70.8 290.0,70.5 291.8,70.2 293.6,70.1 295.5,69.9 297.3,69.8 299.1,69.6 300.9,69.4 302.7,69.2 304.5,68.8 306.4,68.6 308.2,68.5 310.0,68.4 311.8,68.2 313.6,67.9 315.5,67.7 317.3,67.4 319.1,67.2 320.9,66.9 322.7,66.7 324.5,66.6 326.4,66.4 328.2,66.1 330.0,65.7 331.8,65.5 333.6,65.2 335.5,64.8 337.3,64.7 339.1,64.5 340.9,64.4 342.7,64.2 344.5,64.0 346.4,63.7 348.2,63.6 350.0,63.3 351.8,63.2 353.6,63.0 355.5,62.8 357.3,62.7 359.1,62.5 360.9,62.2 362.7,62.0 364.5,61.8 366.4,61.6 368.2,61.5 370.0,61.3 371.8,61.2 373.6,61.0 375.5,60.8 377.3,60.5 379.1,60.1 380.9,59.8 382.7,59.6 384.5,59.5 386.4,59.5 388.2,59.2 390.0,58.9 391.8,58.7 393.6,58.6 395.5,58.4 397.3,58.2 399.1,58.0 400.9,57.8 402.7,57.7 404.5,57.4 406.4,57.2 408.2,56.9 410.0,56.7 411.8,56.6 413.6,56.5 415.5,56.4 417.3,56.2 419.1,56.0 420.9,55.8 422.7,55.6 424.5,55.4 426.4,55.3 428.2,55.1 430.0,54.9 431.8,54.8 433.6,54.5 435.5,54.3 437.3,54.1 439.1,53.8 440.9,53.7 442.7,53.6 444.5,53.5 446.4,53.4 448.2,53.2 450.0,53.1 451.8,52.8 453.6,52.6 455.5,52.4 457.3,52.3 459.1,52.1 460.9,51.9 462.7,51.7 464.5,51.6 466.4,51.4 468.2,51.3 470.0,51.1 471.8,50.9 473.6,50.7 475.5,50.6 477.3,50.5 479.1,50.3 480.9,50.2 482.7,50.0 484.5,49.9 486.4,49.8 488.2,49.6 490.0,49.3 491.8,49.0 493.6,54.3 495.5,53.3 497.3,51.3 499.1,50.5 500.9,49.6 502.7,48.4 504.5,47.8 506.4,47.4 508.2,46.6 510.0,45.5 511.8,44.6 513.6,44.3 515.5,43.9 517.3,43.5 519.1,42.9 520.9,42.4 522.7,41.7 524.5,41.4 526.4,40.8 528.2,40.5 530.0,40.1 531.8,39.9 533.6,39.6 535.5,39.3 537.3,38.7 539.1,38.3 540.9,37.8 542.7,37.0 544.5,36.6 546.4,36.4 548.2,36.1 550.0,35.9 551.8,35.4 553.6,35.0 555.5,34.6 557.3,33.5 559.1,32.7 560.9,32.3 562.7,32.1 564.5,31.7 566.4,31.1 568.2,30.7 570.0,30.0 570.0,30.0,120" />
  
  <!-- Linea principale -->
  <polyline fill="none" stroke="#0366d6" stroke-width="2.5" stroke-linecap="round" stroke-linejoin="round" points="30.0,120.0 31.8,119.4 33.6,118.7 35.5,118.1 37.3,117.9 39.1,117.6 40.9,116.8 42.7,116.3 44.5,116.0 46.4,115.2 48.2,114.9 50.0,114.5 51.8,114.3 53.6,113.9 55.5,113.4 57.3,112.8 59.1,112.4 60.9,112.1 62.7,111.9 64.5,111.6 66.4,111.2 68.2,110.8 70.0,110.7 71.8,110.3 73.6,109.1 75.5,108.8 77.3,108.3 79.1,107.8 80.9,107.4 82.7,107.0 84.5,106.7 86.4,106.5 88.2,106.2 90.0,105.6 91.8,105.1 93.6,104.8 95.5,104.4 97.3,104.2 99.1,104.1 100.9,103.9 102.7,103.6 104.5,103.3 106.4,103.2 108.2,102.7 110.0,102.1 111.8,101.9 113.6,101.8 115.5,101.5 117.3,101.0 119.1,100.7 120.9,100.1 122.7,99.8 124.5,99.3 126.4,99.2 128.2,98.9 130.0,98.4 131.8,97.9 133.6,97.6 135.5,97.4 137.3,97.2 139.1,96.9 140.9,96.4 142.7,95.9 144.5,95.5 146.4,95.0 148.2,94.8 150.0,94.6 151.8,94.4 153.6,94.1 155.5,93.8 157.3,93.6 159.1,93.4 160.9,93.3 162.7,93.0 164.5,92.8 166.4,92.7 168.2,92.6 170.0,92.1 171.8,91.8 173.6,91.8 175.5,91.6 177.3,91.5 179.1,91.5 180.9,99.6 182.7,98.8 184.5,98.1 186.4,97.4 188.2,95.1 190.0,93.6 191.8,91.9 193.6,91.3 195.5,90.6 197.3,89.5 199.1,88.2 200.9,87.3 202.7,87.0 204.5,86.6 206.4,85.7 208.2,85.1 210.0,84.7 211.8,84.1 213.6,83.9 215.5,83.8 217.3,83.4 219.1,82.6 220.9,82.1 222.7,81.5 224.5,80.9 226.4,80.6 228.2,80.4 230.0,79.9 231.8,79.4 233.6,78.9 235.5,78.6 237.3,78.4 239.1,78.3 240.9,78.0 242.7,77.6 244.5,77.3 246.4,77.0 248.2,76.8 250.0,76.6 251.8,76.3 253.6,76.1 255.5,75.9 257.3,75.7 259.1,75.3 260.9,75.0 262.7,74.6 264.5,74.4 266.4,74.2 268.2,74.0 270.0,73.8 271.8,73.6 273.6,73.0 275.5,72.6 277.3,72.1 279.1,72.0 280.9,71.9 282.7,71.7 284.5,71.4 286.4,71.1 288.2,70.8 290.0,70.5 291.8,70.2 293.6,70.1 295.5,69.9 297.3,69.8 299.1,69.6 300.9,69.4 302.7,69.2 304.5,68.8 306.4,68.6 308.2,68.5 310.0,68.4 311.8,68.2 313.6,67.9 315.5,67.7 317.3,67.4 319.1,67.2 320.9,66.9 322.7,66.7 324.5,66.6 326.4,66.4 328.2,66.1 330.0,65.7 331.8,65.5 333.6,65.2 335.5,64.8 337.3,64.7 339.1,64.5 340.9,64.4 342.7,64.2 344.5,64.0 346.4,63.7 348.2,63.6 350.0,63.3 351.8,63.2 353.6,63.0 355.5,62.8 357.3,62.7 359.1,62.5 360.9,62.2 362.7,62.0 364.5,61.8 366.4,61.6 368.2,61.5 370.0,61.3 371.8,61.2 373.6,61.0 375.5,60.8 377.3,60.5 379.1,60.1 380.9,59.8 382.7,59.6 384.5,59.5 386.4,59.5 388.2,59.2 390.0,58.9 391.8,58.7 393.6,58.6 395.5,58.4 397.3,58.2 399.1,58.0 400.9,57.8 402.7,57.7 404.5,57.4 406.4,57.2 408.2,56.9 410.0,56.7 411.8,56.6 413.6,56.5 415.5,56.4 417.3,56.2 419.1,56.0 420.9,55.8 422.7,55.6 424.5,55.4 426.4,55.3 428.2,55.1 430.0,54.9 431.8,54.8 433.6,54.5 435.5,54.3 437.3,54.1 439.1,53.8 440.9,53.7 442.7,53.6 444.5,53.5 446.4,53.4 448.2,53.2 450.0,53.1 451.8,52.8 453.6,52.6 455.5,52.4 457.3,52.3 459.1,52.1 460.9,51.9 462.7,51.7 464.5,51.6 466.4,51.4 468.2,51.3 470.0,51.1 471.8,50.9 473.6,50.7 475.5,50.6 477.3,50.5 479.1,50.3 480.9,50.2 482.7,50.0 484.5,49.9 486.4,49.8 488.2,49.6 490.0,49.3 491.8,49.0 493.6,54.3 495.5,53.3 497.3,51.3 499.1,50.5 500.9,49.6 502.7,48.4 504.5,47.8 506.4,47.4 508.2,46.6 510.0,45.5 511.8,44.6 513.6,44.3 515.5,43.9 517.3,43.5 519.1,42.9 520.9,42.4 522.7,41.7 524.5,41.4 526.4,40.8 528.2,40.5 530.0,40.1 531.8,39.9 533.6,39.6 535.5,39.3 537.3,38.7 539.1,38.3 540.9,37.8 542.7,37.0 544.5,36.6 546.4,36.4 548.2,36.1 550.0,35.9 551.8,35.4 553.6,35.0 555.5,34.6 557.3,33.5 559.1,32.7 560.9,32.3 562.7,32.1 564.5,31.7 566.4,31.1 568.2,30.7 570.0,30.0" />
  
  <!-- Punto finale luminoso -->
  <circle cx="570.0" cy="30.0" r="4" fill="#ffffff" stroke="#0366d6" stroke-width="2.5" />
</svg>