<svg width="600" height="150" viewBox="0 0 600 150" xmlns="http://www.w3.org/2000/svg">
  <defs>
    <filter id="shadow2" x="-2%" y="-2%" width="104%" height="108%">
      <feDropShadow dx="0" dy="2" stdDeviation="3" flood-opacity="0.1" />
    </filter>
    <linearGradient id="fillGrad" x1="0" y1="0" x2="0" y2="1">
      <stop offset="0%" stop-color="#0366d6" stop-opacity="0.3"/>
      <stop offset="100%" stop-color="#0366d6" stop-opacity="0.02"/>
    </linearGradient>
  </defs>
  <rect width="600" height="150" rx="12" fill="#ffffff" filter="url(#shadow2)" stroke="#e1e4e8" stroke-width="1"/>
  <text x="20" y="24" fill="#2b3137" font-family="-apple-system,BlinkMacSystemFont,'Segoe UI',Helvetica,Arial,sans-serif" font-size="14" font-weight="600">📈 Download Growth (Actual: 84.2k)</text>
  
  <!-- Area sotto la linea -->
  <polygon fill="url(#fillGrad)" points="30.0,120.0,120 30.0,120.0 31.6,119.4 33.2,118.8 34.8,118.2 36.4,118.1 38.0,117.8 39.6,117.1 41.2,116.7 42.9,116.4 44.5,115.7 46.1,115.3 47.7,115.0 49.3,114.8 50.9,114.5 52.5,114.0 54.1,113.5 55.7,113.1 57.3,112.9 58.9,112.7 60.5,112.4 62.1,112.0 63.8,111.7 65.4,111.5 67.0,111.2 68.6,110.1 70.2,109.8 71.8,109.4 73.4,108.9 75.0,108.5 76.6,108.2 78.2,107.9 79.8,107.8 81.4,107.5 83.0,106.9 84.6,106.5 86.2,106.2 87.9,105.8 89.5,105.7 91.1,105.6 92.7,105.4 94.3,105.0 95.9,104.8 97.5,104.7 99.1,104.3 100.7,103.7 102.3,103.6 103.9,103.5 105.5,103.2 107.1,102.8 108.8,102.4 110.4,102.0 112.0,101.6 113.6,101.2 115.2,101.1 116.8,100.8 118.4,100.4 120.0,99.9 121.6,99.6 123.2,99.5 124.8,99.2 126.4,99.0 128.0,98.6 129.6,98.1 131.2,97.7 132.9,97.3 134.5,97.1 136.1,97.0 137.7,96.8 139.3,96.4 140.9,96.2 142.5,96.0 144.1,95.9 145.7,95.7 147.3,95.5 148.9,95.3 150.5,95.2 152.1,95.1 153.8,94.7 155.4,94.4 157.0,94.3 158.6,94.2 160.2,94.1 161.8,94.1 163.4,101.5 165.0,100.8 166.6,100.1 168.2,99.4 169.8,97.4 171.4,96.0 173.0,94.5 174.6,93.9 176.2,93.3 177.9,92.2 179.5,91.1 181.1,90.3 182.7,90.0 184.3,89.7 185.9,88.9 187.5,88.3 189.1,87.9 190.7,87.4 192.3,87.2 193.9,87.1 195.5,86.7 197.1,86.0 198.8,85.5 200.4,85.0 202.0,84.5 203.6,84.2 205.2,84.0 206.8,83.5 208.4,83.1 210.0,82.7 211.6,82.4 213.2,82.2 214.8,82.1 216.4,81.8 218.0,81.5 219.6,81.2 221.2,80.9 222.9,80.7 224.5,80.5 226.1,80.3 227.7,80.1 229.3,79.9 230.9,79.8 232.5,79.4 234.1,79.1 235.7,78.8 237.3,78.6 238.9,78.3 240.5,78.2 242.1,78.0 243.8,77.8 245.4,77.3 247.0,77.0 248.6,76.5 250.2,76.3 251.8,76.3 253.4,76.1 255.0,75.8 256.6,75.6 258.2,75.3 259.8,75.0 261.4,74.8 263.0,74.7 264.6,74.5 266.2,74.3 267.9,74.2 269.5,74.0 271.1,73.8 272.7,73.5 274.3,73.3 275.9,73.2 277.5,73.1 279.1,73.0 280.7,72.7 282.3,72.5 283.9,72.2 285.5,72.0 287.1,71.7 288.8,71.6 290.4,71.5 292.0,71.3 293.6,71.0 295.2,70.7 296.8,70.4 298.4,70.2 300.0,69.8 301.6,69.7 303.2,69.6 304.8,69.5 306.4,69.3 308.0,69.1 309.6,68.9 311.2,68.7 312.9,68.5 314.5,68.3 316.1,68.2 317.7,68.0 319.3,67.9 320.9,67.7 322.5,67.4 324.1,67.3 325.7,67.1 327.3,67.0 328.9,66.8 330.5,66.6 332.1,66.5 333.8,66.4 335.4,66.2 337.0,65.9 338.6,65.5 340.2,65.3 341.8,65.1 343.4,65.1 345.0,65.0 346.6,64.8 348.2,64.5 349.8,64.3 351.4,64.2 353.0,64.0 354.6,63.8 356.2,63.6 357.9,63.5 359.5,63.4 361.1,63.1 362.7,62.9 364.3,62.7 365.9,62.4 367.5,62.3 369.1,62.3 370.7,62.2 372.3,62.0 373.9,61.9 375.5,61.7 377.1,61.5 378.8,61.3 380.4,61.2 382.0,61.0 383.6,60.9 385.2,60.7 386.8,60.5 388.4,60.2 390.0,60.1 391.6,59.9 393.2,59.7 394.8,59.6 396.4,59.5 398.0,59.4 399.6,59.3 401.2,59.2 402.9,58.9 404.5,58.7 406.1,58.6 407.7,58.5 409.3,58.3 410.9,58.1 412.5,57.9 414.1,57.8 415.7,57.7 417.3,57.5 418.9,57.3 420.5,57.2 422.1,57.0 423.8,56.9 425.4,56.8 427.0,56.7 428.6,56.5 430.2,56.4 431.8,56.3 433.4,56.2 435.0,56.1 436.6,55.7 438.2,55.5 439.8,60.3 441.4,59.4 443.0,57.5 444.6,56.8 446.2,56.0 447.9,54.9 449.5,54.4 451.1,54.0 452.7,53.3 454.3,52.2 455.9,51.5 457.5,51.2 459.1,50.8 460.7,50.5 462.3,50.0 463.9,49.4 465.5,48.9 467.1,48.6 468.8,48.0 470.4,47.8 472.0,47.4 473.6,47.2 475.2,46.9 476.8,46.6 478.4,46.1 480.0,45.7 481.6,45.3 483.2,44.6 484.8,44.2 486.4,44.0 488.0,43.8 489.6,43.5 491.2,43.1 492.9,42.7 494.5,42.4 496.1,41.4 497.7,40.6 499.3,40.3 500.9,40.1 502.5,39.7 504.1,39.2 505.7,38.8 507.3,38.2 508.9,37.8 510.5,37.5 512.1,37.1 513.8,36.7 515.4,36.4 517.0,36.3 518.6,36.1 520.2,35.9 521.8,35.6 523.4,35.4 525.0,35.1 526.6,34.9 528.2,34.7 529.8,34.4 531.4,34.2 533.0,34.0 534.6,33.8 536.2,33.6 537.9,33.4 539.5,33.3 541.1,33.1 542.7,32.9 544.3,32.8 545.9,32.6 547.5,32.4 549.1,32.2 550.7,32.0 552.3,31.8 553.9,31.6 555.5,31.4 557.1,31.3 558.8,31.2 560.4,31.0 562.0,30.8 563.6,30.7 565.2,30.6 566.8,30.4 568.4,30.2 570.0,30.0 570.0,30.0,120" />
  
  <!-- Linea principale -->
  <polyline fill="none" stroke="#0366d6" stroke-width="2.5" stroke-linecap="round" stroke-linejoin="round" points="30.0,120.0 31.6,119.4 33.2,118.8 34.8,118.2 36.4,118.1 38.0,117.8 39.6,117.1 41.2,116.7 42.9,116.4 44.5,115.7 46.1,115.3 47.7,115.0 49.3,114.8 50.9,114.5 52.5,114.0 54.1,113.5 55.7,113.1 57.3,112.9 58.9,112.7 60.5,112.4 62.1,112.0 63.8,111.7 65.4,111.5 67.0,111.2 68.6,110.1 70.2,109.8 71.8,109.4 73.4,108.9 75.0,108.5 76.6,108.2 78.2,107.9 79.8,107.8 81.4,107.5 83.0,106.9 84.6,106.5 86.2,106.2 87.9,105.8 89.5,105.7 91.1,105.6 92.7,105.4 94.3,105.0 95.9,104.8 97.5,104.7 99.1,104.3 100.7,103.7 102.3,103.6 103.9,103.5 105.5,103.2 107.1,102.8 108.8,102.4 110.4,102.0 112.0,101.6 113.6,101.2 115.2,101.1 116.8,100.8 118.4,100.4 120.0,99.9 121.6,99.6 123.2,99.5 124.8,99.2 126.4,99.0 128.0,98.6 129.6,98.1 131.2,97.7 132.9,97.3 134.5,97.1 136.1,97.0 137.7,96.8 139.3,96.4 140.9,96.2 142.5,96.0 144.1,95.9 145.7,95.7 147.3,95.5 148.9,95.3 150.5,95.2 152.1,95.1 153.8,94.7 155.4,94.4 157.0,94.3 158.6,94.2 160.2,94.1 161.8,94.1 163.4,101.5 165.0,100.8 166.6,100.1 168.2,99.4 169.8,97.4 171.4,96.0 173.0,94.5 174.6,93.9 176.2,93.3 177.9,92.2 179.5,91.1 181.1,90.3 182.7,90.0 184.3,89.7 185.9,88.9 187.5,88.3 189.1,87.9 190.7,87.4 192.3,87.2 193.9,87.1 195.5,86.7 197.1,86.0 198.8,85.5 200.4,85.0 202.0,84.5 203.6,84.2 205.2,84.0 206.8,83.5 208.4,83.1 210.0,82.7 211.6,82.4 213.2,82.2 214.8,82.1 216.4,81.8 218.0,81.5 219.6,81.2 221.2,80.9 222.9,80.7 224.5,80.5 226.1,80.3 227.7,80.1 229.3,79.9 230.9,79.8 232.5,79.4 234.1,79.1 235.7,78.8 237.3,78.6 238.9,78.3 240.5,78.2 242.1,78.0 243.8,77.8 245.4,77.3 247.0,77.0 248.6,76.5 250.2,76.3 251.8,76.3 253.4,76.1 255.0,75.8 256.6,75.6 258.2,75.3 259.8,75.0 261.4,74.8 263.0,74.7 264.6,74.5 266.2,74.3 267.9,74.2 269.5,74.0 271.1,73.8 272.7,73.5 274.3,73.3 275.9,73.2 277.5,73.1 279.1,73.0 280.7,72.7 282.3,72.5 283.9,72.2 285.5,72.0 287.1,71.7 288.8,71.6 290.4,71.5 292.0,71.3 293.6,71.0 295.2,70.7 296.8,70.4 298.4,70.2 300.0,69.8 301.6,69.7 303.2,69.6 304.8,69.5 306.4,69.3 308.0,69.1 309.6,68.9 311.2,68.7 312.9,68.5 314.5,68.3 316.1,68.2 317.7,68.0 319.3,67.9 320.9,67.7 322.5,67.4 324.1,67.3 325.7,67.1 327.3,67.0 328.9,66.8 330.5,66.6 332.1,66.5 333.8,66.4 335.4,66.2 337.0,65.9 338.6,65.5 340.2,65.3 341.8,65.1 343.4,65.1 345.0,65.0 346.6,64.8 348.2,64.5 349.8,64.3 351.4,64.2 353.0,64.0 354.6,63.8 356.2,63.6 357.9,63.5 359.5,63.4 361.1,63.1 362.7,62.9 364.3,62.7 365.9,62.4 367.5,62.3 369.1,62.3 370.7,62.2 372.3,62.0 373.9,61.9 375.5,61.7 377.1,61.5 378.8,61.3 380.4,61.2 382.0,61.0 383.6,60.9 385.2,60.7 386.8,60.5 388.4,60.2 390.0,60.1 391.6,59.9 393.2,59.7 394.8,59.6 396.4,59.5 398.0,59.4 399.6,59.3 401.2,59.2 402.9,58.9 404.5,58.7 406.1,58.6 407.7,58.5 409.3,58.3 410.9,58.1 412.5,57.9 414.1,57.8 415.7,57.7 417.3,57.5 418.9,57.3 420.5,57.2 422.1,57.0 423.8,56.9 425.4,56.8 427.0,56.7 428.6,56.5 430.2,56.4 431.8,56.3 433.4,56.2 435.0,56.1 436.6,55.7 438.2,55.5 439.8,60.3 441.4,59.4 443.0,57.5 444.6,56.8 446.2,56.0 447.9,54.9 449.5,54.4 451.1,54.0 452.7,53.3 454.3,52.2 455.9,51.5 457.5,51.2 459.1,50.8 460.7,50.5 462.3,50.0 463.9,49.4 465.5,48.9 467.1,48.6 468.8,48.0 470.4,47.8 472.0,47.4 473.6,47.2 475.2,46.9 476.8,46.6 478.4,46.1 480.0,45.7 481.6,45.3 483.2,44.6 484.8,44.2 486.4,44.0 488.0,43.8 489.6,43.5 491.2,43.1 492.9,42.7 494.5,42.4 496.1,41.4 497.7,40.6 499.3,40.3 500.9,40.1 502.5,39.7 504.1,39.2 505.7,38.8 507.3,38.2 508.9,37.8 510.5,37.5 512.1,37.1 513.8,36.7 515.4,36.4 517.0,36.3 518.6,36.1 520.2,35.9 521.8,35.6 523.4,35.4 525.0,35.1 526.6,34.9 528.2,34.7 529.8,34.4 531.4,34.2 533.0,34.0 534.6,33.8 536.2,33.6 537.9,33.4 539.5,33.3 541.1,33.1 542.7,32.9 544.3,32.8 545.9,32.6 547.5,32.4 549.1,32.2 550.7,32.0 552.3,31.8 553.9,31.6 555.5,31.4 557.1,31.3 558.8,31.2 560.4,31.0 562.0,30.8 563.6,30.7 565.2,30.6 566.8,30.4 568.4,30.2 570.0,30.0" />
  
  <!-- Punto finale luminoso -->
  <circle cx="570.0" cy="30.0" r="4" fill="#ffffff" stroke="#0366d6" stroke-width="2.5" />
</svg>