<svg width="600" height="150" viewBox="0 0 600 150" xmlns="http://www.w3.org/2000/svg">
  <defs>
    <filter id="shadow2" x="-2%" y="-2%" width="104%" height="108%">
      <feDropShadow dx="0" dy="2" stdDeviation="3" flood-opacity="0.1" />
    </filter>
    <linearGradient id="fillGrad" x1="0" y1="0" x2="0" y2="1">
      <stop offset="0%" stop-color="#0366d6" stop-opacity="0.3"/>
      <stop offset="100%" stop-color="#0366d6" stop-opacity="0.02"/>
    </linearGradient>
  </defs>
  <rect width="600" height="150" rx="12" fill="#ffffff" filter="url(#shadow2)" stroke="#e1e4e8" stroke-width="1"/>
  <text x="20" y="24" fill="#2b3137" font-family="-apple-system,BlinkMacSystemFont,'Segoe UI',Helvetica,Arial,sans-serif" font-size="14" font-weight="600">📈 Download Growth (Actual: 84.2k)</text>
  
  <!-- Area sotto la linea -->
  <polygon fill="url(#fillGrad)" points="30.0,120.0,120 30.0,120.0 31.6,119.4 33.2,118.8 34.8,118.2 36.4,118.1 38.1,117.8 39.7,117.1 41.3,116.7 42.9,116.4 44.5,115.7 46.1,115.3 47.7,115.0 49.3,114.8 51.0,114.5 52.6,114.0 54.2,113.5 55.8,113.1 57.4,112.8 59.0,112.7 60.6,112.4 62.2,112.0 63.9,111.7 65.5,111.5 67.1,111.2 68.7,110.1 70.3,109.8 71.9,109.3 73.5,108.9 75.1,108.5 76.7,108.2 78.4,107.9 80.0,107.7 81.6,107.4 83.2,106.9 84.8,106.4 86.4,106.1 88.0,105.8 89.6,105.7 91.3,105.6 92.9,105.4 94.5,105.0 96.1,104.8 97.7,104.7 99.3,104.3 100.9,103.7 102.5,103.5 104.1,103.4 105.8,103.2 107.4,102.7 109.0,102.4 110.6,101.9 112.2,101.6 113.8,101.1 115.4,101.1 117.0,100.8 118.7,100.4 120.3,99.9 121.9,99.6 123.5,99.4 125.1,99.2 126.7,99.0 128.3,98.5 129.9,98.1 131.6,97.6 133.2,97.2 134.8,97.0 136.4,96.9 138.0,96.7 139.6,96.4 141.2,96.2 142.8,96.0 144.4,95.8 146.1,95.7 147.7,95.4 149.3,95.3 150.9,95.2 152.5,95.1 154.1,94.6 155.7,94.4 157.3,94.3 159.0,94.1 160.6,94.0 162.2,94.0 163.8,101.5 165.4,100.7 167.0,100.1 168.6,99.4 170.2,97.4 171.9,95.9 173.5,94.4 175.1,93.9 176.7,93.2 178.3,92.2 179.9,91.1 181.5,90.2 183.1,89.9 184.7,89.6 186.4,88.8 188.0,88.2 189.6,87.8 191.2,87.4 192.8,87.2 194.4,87.1 196.0,86.6 197.6,85.9 199.3,85.5 200.9,85.0 202.5,84.4 204.1,84.1 205.7,83.9 207.3,83.5 208.9,83.0 210.5,82.6 212.1,82.3 213.8,82.1 215.4,82.0 217.0,81.8 218.6,81.4 220.2,81.1 221.8,80.9 223.4,80.7 225.0,80.4 226.7,80.2 228.3,80.0 229.9,79.9 231.5,79.7 233.1,79.3 234.7,79.0 236.3,78.7 237.9,78.5 239.6,78.3 241.2,78.1 242.8,78.0 244.4,77.8 246.0,77.2 247.6,76.9 249.2,76.4 250.8,76.3 252.4,76.2 254.1,76.0 255.7,75.8 257.3,75.5 258.9,75.2 260.5,74.9 262.1,74.7 263.7,74.6 265.3,74.4 267.0,74.3 268.6,74.1 270.2,73.9 271.8,73.7 273.4,73.4 275.0,73.2 276.6,73.1 278.2,73.0 279.9,72.9 281.5,72.6 283.1,72.4 284.7,72.1 286.3,71.9 287.9,71.6 289.5,71.5 291.1,71.4 292.7,71.2 294.4,70.9 296.0,70.6 297.6,70.3 299.2,70.1 300.8,69.7 302.4,69.6 304.0,69.5 305.6,69.4 307.3,69.2 308.9,69.0 310.5,68.8 312.1,68.6 313.7,68.4 315.3,68.3 316.9,68.1 318.5,67.9 320.1,67.8 321.8,67.6 323.4,67.3 325.0,67.2 326.6,67.0 328.2,66.9 329.8,66.7 331.4,66.5 333.0,66.4 334.7,66.3 336.3,66.1 337.9,65.8 339.5,65.4 341.1,65.2 342.7,65.0 344.3,65.0 345.9,64.9 347.6,64.7 349.2,64.4 350.8,64.2 352.4,64.1 354.0,63.9 355.6,63.7 357.2,63.5 358.8,63.4 360.4,63.3 362.1,63.0 363.7,62.8 365.3,62.6 366.9,62.3 368.5,62.2 370.1,62.2 371.7,62.1 373.3,61.9 375.0,61.7 376.6,61.6 378.2,61.4 379.8,61.2 381.4,61.1 383.0,60.9 384.6,60.8 386.2,60.6 387.9,60.4 389.5,60.1 391.1,60.0 392.7,59.8 394.3,59.6 395.9,59.5 397.5,59.4 399.1,59.3 400.7,59.2 402.4,59.1 404.0,58.8 405.6,58.6 407.2,58.5 408.8,58.3 410.4,58.2 412.0,58.0 413.6,57.8 415.3,57.7 416.9,57.6 418.5,57.4 420.1,57.2 421.7,57.1 423.3,56.9 424.9,56.8 426.5,56.7 428.1,56.6 429.8,56.4 431.4,56.3 433.0,56.1 434.6,56.1 436.2,55.9 437.8,55.6 439.4,55.4 441.0,60.2 442.7,59.3 444.3,57.4 445.9,56.7 447.5,55.9 449.1,54.8 450.7,54.3 452.3,53.9 453.9,53.2 455.6,52.1 457.2,51.3 458.8,51.1 460.4,50.7 462.0,50.4 463.6,49.8 465.2,49.3 466.8,48.7 468.4,48.4 470.1,47.9 471.7,47.6 473.3,47.3 474.9,47.0 476.5,46.8 478.1,46.5 479.7,46.0 481.3,45.6 483.0,45.1 484.6,44.5 486.2,44.1 487.8,43.8 489.4,43.7 491.0,43.4 492.6,43.0 494.2,42.6 495.9,42.2 497.5,41.3 499.1,40.5 500.7,40.1 502.3,39.9 503.9,39.6 505.5,39.1 507.1,38.7 508.7,38.1 510.4,37.7 512.0,37.3 513.6,37.0 515.2,36.5 516.8,36.3 518.4,36.1 520.0,35.9 521.6,35.7 523.3,35.4 524.9,35.2 526.5,35.0 528.1,34.7 529.7,34.6 531.3,34.2 532.9,34.1 534.5,33.8 536.1,33.6 537.8,33.4 539.4,33.3 541.0,33.1 542.6,32.9 544.2,32.8 545.8,32.7 547.4,32.4 549.0,32.3 550.7,32.1 552.3,31.8 553.9,31.6 555.5,31.5 557.1,31.2 558.7,31.1 560.3,31.0 561.9,30.8 563.6,30.7 565.2,30.5 566.8,30.4 568.4,30.2 570.0,30.0 570.0,30.0,120" />
  
  <!-- Linea principale -->
  <polyline fill="none" stroke="#0366d6" stroke-width="2.5" stroke-linecap="round" stroke-linejoin="round" points="30.0,120.0 31.6,119.4 33.2,118.8 34.8,118.2 36.4,118.1 38.1,117.8 39.7,117.1 41.3,116.7 42.9,116.4 44.5,115.7 46.1,115.3 47.7,115.0 49.3,114.8 51.0,114.5 52.6,114.0 54.2,113.5 55.8,113.1 57.4,112.8 59.0,112.7 60.6,112.4 62.2,112.0 63.9,111.7 65.5,111.5 67.1,111.2 68.7,110.1 70.3,109.8 71.9,109.3 73.5,108.9 75.1,108.5 76.7,108.2 78.4,107.9 80.0,107.7 81.6,107.4 83.2,106.9 84.8,106.4 86.4,106.1 88.0,105.8 89.6,105.7 91.3,105.6 92.9,105.4 94.5,105.0 96.1,104.8 97.7,104.7 99.3,104.3 100.9,103.7 102.5,103.5 104.1,103.4 105.8,103.2 107.4,102.7 109.0,102.4 110.6,101.9 112.2,101.6 113.8,101.1 115.4,101.1 117.0,100.8 118.7,100.4 120.3,99.9 121.9,99.6 123.5,99.4 125.1,99.2 126.7,99.0 128.3,98.5 129.9,98.1 131.6,97.6 133.2,97.2 134.8,97.0 136.4,96.9 138.0,96.7 139.6,96.4 141.2,96.2 142.8,96.0 144.4,95.8 146.1,95.7 147.7,95.4 149.3,95.3 150.9,95.2 152.5,95.1 154.1,94.6 155.7,94.4 157.3,94.3 159.0,94.1 160.6,94.0 162.2,94.0 163.8,101.5 165.4,100.7 167.0,100.1 168.6,99.4 170.2,97.4 171.9,95.9 173.5,94.4 175.1,93.9 176.7,93.2 178.3,92.2 179.9,91.1 181.5,90.2 183.1,89.9 184.7,89.6 186.4,88.8 188.0,88.2 189.6,87.8 191.2,87.4 192.8,87.2 194.4,87.1 196.0,86.6 197.6,85.9 199.3,85.5 200.9,85.0 202.5,84.4 204.1,84.1 205.7,83.9 207.3,83.5 208.9,83.0 210.5,82.6 212.1,82.3 213.8,82.1 215.4,82.0 217.0,81.8 218.6,81.4 220.2,81.1 221.8,80.9 223.4,80.7 225.0,80.4 226.7,80.2 228.3,80.0 229.9,79.9 231.5,79.7 233.1,79.3 234.7,79.0 236.3,78.7 237.9,78.5 239.6,78.3 241.2,78.1 242.8,78.0 244.4,77.8 246.0,77.2 247.6,76.9 249.2,76.4 250.8,76.3 252.4,76.2 254.1,76.0 255.7,75.8 257.3,75.5 258.9,75.2 260.5,74.9 262.1,74.7 263.7,74.6 265.3,74.4 267.0,74.3 268.6,74.1 270.2,73.9 271.8,73.7 273.4,73.4 275.0,73.2 276.6,73.1 278.2,73.0 279.9,72.9 281.5,72.6 283.1,72.4 284.7,72.1 286.3,71.9 287.9,71.6 289.5,71.5 291.1,71.4 292.7,71.2 294.4,70.9 296.0,70.6 297.6,70.3 299.2,70.1 300.8,69.7 302.4,69.6 304.0,69.5 305.6,69.4 307.3,69.2 308.9,69.0 310.5,68.8 312.1,68.6 313.7,68.4 315.3,68.3 316.9,68.1 318.5,67.9 320.1,67.8 321.8,67.6 323.4,67.3 325.0,67.2 326.6,67.0 328.2,66.9 329.8,66.7 331.4,66.5 333.0,66.4 334.7,66.3 336.3,66.1 337.9,65.8 339.5,65.4 341.1,65.2 342.7,65.0 344.3,65.0 345.9,64.9 347.6,64.7 349.2,64.4 350.8,64.2 352.4,64.1 354.0,63.9 355.6,63.7 357.2,63.5 358.8,63.4 360.4,63.3 362.1,63.0 363.7,62.8 365.3,62.6 366.9,62.3 368.5,62.2 370.1,62.2 371.7,62.1 373.3,61.9 375.0,61.7 376.6,61.6 378.2,61.4 379.8,61.2 381.4,61.1 383.0,60.9 384.6,60.8 386.2,60.6 387.9,60.4 389.5,60.1 391.1,60.0 392.7,59.8 394.3,59.6 395.9,59.5 397.5,59.4 399.1,59.3 400.7,59.2 402.4,59.1 404.0,58.8 405.6,58.6 407.2,58.5 408.8,58.3 410.4,58.2 412.0,58.0 413.6,57.8 415.3,57.7 416.9,57.6 418.5,57.4 420.1,57.2 421.7,57.1 423.3,56.9 424.9,56.8 426.5,56.7 428.1,56.6 429.8,56.4 431.4,56.3 433.0,56.1 434.6,56.1 436.2,55.9 437.8,55.6 439.4,55.4 441.0,60.2 442.7,59.3 444.3,57.4 445.9,56.7 447.5,55.9 449.1,54.8 450.7,54.3 452.3,53.9 453.9,53.2 455.6,52.1 457.2,51.3 458.8,51.1 460.4,50.7 462.0,50.4 463.6,49.8 465.2,49.3 466.8,48.7 468.4,48.4 470.1,47.9 471.7,47.6 473.3,47.3 474.9,47.0 476.5,46.8 478.1,46.5 479.7,46.0 481.3,45.6 483.0,45.1 484.6,44.5 486.2,44.1 487.8,43.8 489.4,43.7 491.0,43.4 492.6,43.0 494.2,42.6 495.9,42.2 497.5,41.3 499.1,40.5 500.7,40.1 502.3,39.9 503.9,39.6 505.5,39.1 507.1,38.7 508.7,38.1 510.4,37.7 512.0,37.3 513.6,37.0 515.2,36.5 516.8,36.3 518.4,36.1 520.0,35.9 521.6,35.7 523.3,35.4 524.9,35.2 526.5,35.0 528.1,34.7 529.7,34.6 531.3,34.2 532.9,34.1 534.5,33.8 536.1,33.6 537.8,33.4 539.4,33.3 541.0,33.1 542.6,32.9 544.2,32.8 545.8,32.7 547.4,32.4 549.0,32.3 550.7,32.1 552.3,31.8 553.9,31.6 555.5,31.5 557.1,31.2 558.7,31.1 560.3,31.0 561.9,30.8 563.6,30.7 565.2,30.5 566.8,30.4 568.4,30.2 570.0,30.0" />
  
  <!-- Punto finale luminoso -->
  <circle cx="570.0" cy="30.0" r="4" fill="#ffffff" stroke="#0366d6" stroke-width="2.5" />
</svg>