<svg width="600" height="150" viewBox="0 0 600 150" xmlns="http://www.w3.org/2000/svg">
  <defs>
    <filter id="shadow2" x="-2%" y="-2%" width="104%" height="108%">
      <feDropShadow dx="0" dy="2" stdDeviation="3" flood-opacity="0.1" />
    </filter>
    <linearGradient id="fillGrad" x1="0" y1="0" x2="0" y2="1">
      <stop offset="0%" stop-color="#0366d6" stop-opacity="0.3"/>
      <stop offset="100%" stop-color="#0366d6" stop-opacity="0.02"/>
    </linearGradient>
  </defs>
  <rect width="600" height="150" rx="12" fill="#ffffff" filter="url(#shadow2)" stroke="#e1e4e8" stroke-width="1"/>
  <text x="20" y="24" fill="#2b3137" font-family="-apple-system,BlinkMacSystemFont,'Segoe UI',Helvetica,Arial,sans-serif" font-size="14" font-weight="600">📈 Download Growth (Actual: 83.4k)</text>
  
  <!-- Area sotto la linea -->
  <polygon fill="url(#fillGrad)" points="30.0,120.0,120 30.0,120.0 31.7,119.4 33.5,118.7 35.2,118.2 36.9,118.0 38.6,117.7 40.4,117.0 42.1,116.5 43.8,116.2 45.5,115.5 47.3,115.1 49.0,114.8 50.7,114.5 52.4,114.2 54.2,113.7 55.9,113.2 57.6,112.8 59.3,112.5 61.1,112.3 62.8,112.0 64.5,111.6 66.2,111.3 68.0,111.1 69.7,110.8 71.4,109.7 73.1,109.3 74.9,108.9 76.6,108.4 78.3,108.0 80.0,107.6 81.8,107.4 83.5,107.2 85.2,106.9 86.9,106.3 88.7,105.8 90.4,105.5 92.1,105.1 93.8,105.0 95.6,104.9 97.3,104.7 99.0,104.4 100.7,104.1 102.5,104.0 104.2,103.6 105.9,102.9 107.6,102.8 109.4,102.7 111.1,102.4 112.8,101.9 114.5,101.6 116.3,101.1 118.0,100.8 119.7,100.3 121.4,100.2 123.2,99.9 124.9,99.5 126.6,99.0 128.3,98.7 130.1,98.5 131.8,98.3 133.5,98.1 135.2,97.6 137.0,97.1 138.7,96.7 140.4,96.2 142.1,96.0 143.9,95.9 145.6,95.7 147.3,95.3 149.0,95.1 150.8,94.9 152.5,94.7 154.2,94.6 155.9,94.3 157.7,94.2 159.4,94.1 161.1,93.9 162.8,93.5 164.6,93.2 166.3,93.1 168.0,93.0 169.7,92.9 171.5,92.9 173.2,100.6 174.9,99.9 176.6,99.2 178.4,98.5 180.1,96.4 181.8,94.9 183.5,93.3 185.3,92.7 187.0,92.0 188.7,91.0 190.4,89.8 192.2,88.9 193.9,88.6 195.6,88.3 197.3,87.4 199.1,86.8 200.8,86.4 202.5,85.9 204.2,85.7 206.0,85.6 207.7,85.2 209.4,84.4 211.2,83.9 212.9,83.4 214.6,82.8 216.3,82.5 218.1,82.3 219.8,81.8 221.5,81.4 223.2,80.9 225.0,80.6 226.7,80.4 228.4,80.3 230.1,80.1 231.9,79.7 233.6,79.4 235.3,79.1 237.0,78.9 238.8,78.7 240.5,78.5 242.2,78.3 243.9,78.1 245.7,77.9 247.4,77.5 249.1,77.2 250.8,76.8 252.6,76.6 254.3,76.4 256.0,76.3 257.7,76.1 259.5,75.9 261.2,75.3 262.9,75.0 264.6,74.5 266.4,74.3 268.1,74.3 269.8,74.0 271.5,73.8 273.3,73.5 275.0,73.2 276.7,72.9 278.4,72.7 280.2,72.5 281.9,72.4 283.6,72.2 285.3,72.1 287.1,71.8 288.8,71.6 290.5,71.3 292.2,71.1 294.0,71.0 295.7,70.9 297.4,70.8 299.1,70.5 300.9,70.2 302.6,70.0 304.3,69.7 306.0,69.5 307.8,69.3 309.5,69.2 311.2,69.0 312.9,68.7 314.7,68.4 316.4,68.1 318.1,67.9 319.8,67.5 321.6,67.4 323.3,67.2 325.0,67.1 326.7,66.9 328.5,66.7 330.2,66.5 331.9,66.3 333.6,66.1 335.4,65.9 337.1,65.8 338.8,65.6 340.5,65.5 342.3,65.3 344.0,65.0 345.7,64.9 347.4,64.6 349.2,64.5 350.9,64.3 352.6,64.2 354.3,64.0 356.1,63.9 357.8,63.7 359.5,63.4 361.2,63.0 363.0,62.8 364.7,62.6 366.4,62.5 368.1,62.4 369.9,62.2 371.6,61.9 373.3,61.7 375.0,61.6 376.8,61.4 378.5,61.2 380.2,61.0 381.9,60.9 383.7,60.7 385.4,60.5 387.1,60.3 388.8,60.0 390.6,59.8 392.3,59.7 394.0,59.6 395.8,59.5 397.5,59.3 399.2,59.1 400.9,59.0 402.7,58.8 404.4,58.6 406.1,58.4 407.8,58.3 409.6,58.1 411.3,58.0 413.0,57.7 414.7,57.5 416.5,57.3 418.2,57.1 419.9,56.9 421.6,56.8 423.4,56.7 425.1,56.6 426.8,56.5 428.5,56.3 430.3,56.1 432.0,55.9 433.7,55.7 435.4,55.6 437.2,55.4 438.9,55.3 440.6,55.1 442.3,54.9 444.1,54.8 445.8,54.6 447.5,54.4 449.2,54.2 451.0,54.1 452.7,54.0 454.4,53.9 456.1,53.7 457.9,53.6 459.6,53.4 461.3,53.3 463.0,53.2 464.8,53.1 466.5,52.7 468.2,52.5 469.9,57.5 471.7,56.5 473.4,54.6 475.1,53.9 476.8,53.0 478.6,51.9 480.3,51.3 482.0,50.9 483.7,50.2 485.5,49.1 487.2,48.3 488.9,48.0 490.6,47.6 492.4,47.3 494.1,46.7 495.8,46.2 497.5,45.5 499.3,45.3 501.0,44.7 502.7,44.4 504.4,44.0 506.2,43.8 507.9,43.5 509.6,43.2 511.3,42.7 513.1,42.3 514.8,41.8 516.5,41.1 518.2,40.7 520.0,40.4 521.7,40.2 523.4,40.0 525.1,39.5 526.9,39.1 528.6,38.8 530.3,37.7 532.0,36.9 533.8,36.6 535.5,36.4 537.2,36.0 538.9,35.5 540.7,35.0 542.4,34.4 544.1,34.0 545.8,33.6 547.6,33.3 549.3,32.8 551.0,32.6 552.7,32.4 554.5,32.2 556.2,31.9 557.9,31.6 559.6,31.5 561.4,31.2 563.1,30.9 564.8,30.8 566.5,30.4 568.3,30.2 570.0,30.0 570.0,30.0,120" />
  
  <!-- Linea principale -->
  <polyline fill="none" stroke="#0366d6" stroke-width="2.5" stroke-linecap="round" stroke-linejoin="round" points="30.0,120.0 31.7,119.4 33.5,118.7 35.2,118.2 36.9,118.0 38.6,117.7 40.4,117.0 42.1,116.5 43.8,116.2 45.5,115.5 47.3,115.1 49.0,114.8 50.7,114.5 52.4,114.2 54.2,113.7 55.9,113.2 57.6,112.8 59.3,112.5 61.1,112.3 62.8,112.0 64.5,111.6 66.2,111.3 68.0,111.1 69.7,110.8 71.4,109.7 73.1,109.3 74.9,108.9 76.6,108.4 78.3,108.0 80.0,107.6 81.8,107.4 83.5,107.2 85.2,106.9 86.9,106.3 88.7,105.8 90.4,105.5 92.1,105.1 93.8,105.0 95.6,104.9 97.3,104.7 99.0,104.4 100.7,104.1 102.5,104.0 104.2,103.6 105.9,102.9 107.6,102.8 109.4,102.7 111.1,102.4 112.8,101.9 114.5,101.6 116.3,101.1 118.0,100.8 119.7,100.3 121.4,100.2 123.2,99.9 124.9,99.5 126.6,99.0 128.3,98.7 130.1,98.5 131.8,98.3 133.5,98.1 135.2,97.6 137.0,97.1 138.7,96.7 140.4,96.2 142.1,96.0 143.9,95.9 145.6,95.7 147.3,95.3 149.0,95.1 150.8,94.9 152.5,94.7 154.2,94.6 155.9,94.3 157.7,94.2 159.4,94.1 161.1,93.9 162.8,93.5 164.6,93.2 166.3,93.1 168.0,93.0 169.7,92.9 171.5,92.9 173.2,100.6 174.9,99.9 176.6,99.2 178.4,98.5 180.1,96.4 181.8,94.9 183.5,93.3 185.3,92.7 187.0,92.0 188.7,91.0 190.4,89.8 192.2,88.9 193.9,88.6 195.6,88.3 197.3,87.4 199.1,86.8 200.8,86.4 202.5,85.9 204.2,85.7 206.0,85.6 207.7,85.2 209.4,84.4 211.2,83.9 212.9,83.4 214.6,82.8 216.3,82.5 218.1,82.3 219.8,81.8 221.5,81.4 223.2,80.9 225.0,80.6 226.7,80.4 228.4,80.3 230.1,80.1 231.9,79.7 233.6,79.4 235.3,79.1 237.0,78.9 238.8,78.7 240.5,78.5 242.2,78.3 243.9,78.1 245.7,77.9 247.4,77.5 249.1,77.2 250.8,76.8 252.6,76.6 254.3,76.4 256.0,76.3 257.7,76.1 259.5,75.9 261.2,75.3 262.9,75.0 264.6,74.5 266.4,74.3 268.1,74.3 269.8,74.0 271.5,73.8 273.3,73.5 275.0,73.2 276.7,72.9 278.4,72.7 280.2,72.5 281.9,72.4 283.6,72.2 285.3,72.1 287.1,71.8 288.8,71.6 290.5,71.3 292.2,71.1 294.0,71.0 295.7,70.9 297.4,70.8 299.1,70.5 300.9,70.2 302.6,70.0 304.3,69.7 306.0,69.5 307.8,69.3 309.5,69.2 311.2,69.0 312.9,68.7 314.7,68.4 316.4,68.1 318.1,67.9 319.8,67.5 321.6,67.4 323.3,67.2 325.0,67.1 326.7,66.9 328.5,66.7 330.2,66.5 331.9,66.3 333.6,66.1 335.4,65.9 337.1,65.8 338.8,65.6 340.5,65.5 342.3,65.3 344.0,65.0 345.7,64.9 347.4,64.6 349.2,64.5 350.9,64.3 352.6,64.2 354.3,64.0 356.1,63.9 357.8,63.7 359.5,63.4 361.2,63.0 363.0,62.8 364.7,62.6 366.4,62.5 368.1,62.4 369.9,62.2 371.6,61.9 373.3,61.7 375.0,61.6 376.8,61.4 378.5,61.2 380.2,61.0 381.9,60.9 383.7,60.7 385.4,60.5 387.1,60.3 388.8,60.0 390.6,59.8 392.3,59.7 394.0,59.6 395.8,59.5 397.5,59.3 399.2,59.1 400.9,59.0 402.7,58.8 404.4,58.6 406.1,58.4 407.8,58.3 409.6,58.1 411.3,58.0 413.0,57.7 414.7,57.5 416.5,57.3 418.2,57.1 419.9,56.9 421.6,56.8 423.4,56.7 425.1,56.6 426.8,56.5 428.5,56.3 430.3,56.1 432.0,55.9 433.7,55.7 435.4,55.6 437.2,55.4 438.9,55.3 440.6,55.1 442.3,54.9 444.1,54.8 445.8,54.6 447.5,54.4 449.2,54.2 451.0,54.1 452.7,54.0 454.4,53.9 456.1,53.7 457.9,53.6 459.6,53.4 461.3,53.3 463.0,53.2 464.8,53.1 466.5,52.7 468.2,52.5 469.9,57.5 471.7,56.5 473.4,54.6 475.1,53.9 476.8,53.0 478.6,51.9 480.3,51.3 482.0,50.9 483.7,50.2 485.5,49.1 487.2,48.3 488.9,48.0 490.6,47.6 492.4,47.3 494.1,46.7 495.8,46.2 497.5,45.5 499.3,45.3 501.0,44.7 502.7,44.4 504.4,44.0 506.2,43.8 507.9,43.5 509.6,43.2 511.3,42.7 513.1,42.3 514.8,41.8 516.5,41.1 518.2,40.7 520.0,40.4 521.7,40.2 523.4,40.0 525.1,39.5 526.9,39.1 528.6,38.8 530.3,37.7 532.0,36.9 533.8,36.6 535.5,36.4 537.2,36.0 538.9,35.5 540.7,35.0 542.4,34.4 544.1,34.0 545.8,33.6 547.6,33.3 549.3,32.8 551.0,32.6 552.7,32.4 554.5,32.2 556.2,31.9 557.9,31.6 559.6,31.5 561.4,31.2 563.1,30.9 564.8,30.8 566.5,30.4 568.3,30.2 570.0,30.0" />
  
  <!-- Punto finale luminoso -->
  <circle cx="570.0" cy="30.0" r="4" fill="#ffffff" stroke="#0366d6" stroke-width="2.5" />
</svg>