<svg width="600" height="150" viewBox="0 0 600 150" xmlns="http://www.w3.org/2000/svg">
  <defs>
    <filter id="shadow2" x="-2%" y="-2%" width="104%" height="108%">
      <feDropShadow dx="0" dy="2" stdDeviation="3" flood-opacity="0.1" />
    </filter>
    <linearGradient id="fillGrad" x1="0" y1="0" x2="0" y2="1">
      <stop offset="0%" stop-color="#0366d6" stop-opacity="0.3"/>
      <stop offset="100%" stop-color="#0366d6" stop-opacity="0.02"/>
    </linearGradient>
  </defs>
  <rect width="600" height="150" rx="12" fill="#ffffff" filter="url(#shadow2)" stroke="#e1e4e8" stroke-width="1"/>
  <text x="20" y="24" fill="#2b3137" font-family="-apple-system,BlinkMacSystemFont,'Segoe UI',Helvetica,Arial,sans-serif" font-size="14" font-weight="600">📈 Download Growth (Actual: 87.9k)</text>
  
  <!-- Area sotto la linea -->
  <polygon fill="url(#fillGrad)" points="30.0,120.0,120 30.0,120.0 31.2,119.5 32.5,119.0 33.7,118.5 34.9,118.4 36.2,118.2 37.4,117.6 38.6,117.3 39.8,117.0 41.1,116.4 42.3,116.1 43.5,115.9 44.8,115.7 46.0,115.4 47.2,115.0 48.5,114.6 49.7,114.3 50.9,114.1 52.1,113.9 53.4,113.7 54.6,113.4 55.8,113.1 57.1,113.0 58.3,112.7 59.5,111.8 60.8,111.6 62.0,111.2 63.2,110.8 64.4,110.5 65.7,110.2 66.9,110.0 68.1,109.9 69.4,109.6 70.6,109.2 71.8,108.8 73.1,108.6 74.3,108.3 75.5,108.2 76.7,108.1 78.0,107.9 79.2,107.6 80.4,107.5 81.7,107.4 82.9,107.0 84.1,106.5 85.4,106.4 86.6,106.3 87.8,106.1 89.0,105.8 90.3,105.5 91.5,105.1 92.7,104.8 94.0,104.5 95.2,104.4 96.4,104.2 97.7,103.8 98.9,103.4 100.1,103.2 101.3,103.0 102.6,102.9 103.8,102.7 105.0,102.3 106.3,101.9 107.5,101.6 108.7,101.2 110.0,101.1 111.2,101.0 112.4,100.8 113.6,100.5 114.9,100.4 116.1,100.2 117.3,100.1 118.6,99.9 119.8,99.7 121.0,99.6 122.3,99.5 123.5,99.4 124.7,99.1 125.9,98.9 127.2,98.8 128.4,98.7 129.6,98.6 130.9,98.6 132.1,104.7 133.3,104.1 134.6,103.6 135.8,103.0 137.0,101.3 138.2,100.2 139.5,98.9 140.7,98.5 141.9,97.9 143.2,97.1 144.4,96.1 145.6,95.4 146.9,95.2 148.1,94.9 149.3,94.3 150.5,93.8 151.8,93.5 153.0,93.1 154.2,92.9 155.5,92.8 156.7,92.5 157.9,91.9 159.2,91.5 160.4,91.1 161.6,90.6 162.8,90.4 164.1,90.3 165.3,89.9 166.5,89.5 167.8,89.2 169.0,88.9 170.2,88.8 171.5,88.7 172.7,88.5 173.9,88.2 175.1,88.0 176.4,87.7 177.6,87.6 178.8,87.4 180.1,87.2 181.3,87.0 182.5,86.9 183.8,86.8 185.0,86.4 186.2,86.2 187.4,85.9 188.7,85.8 189.9,85.6 191.1,85.5 192.4,85.3 193.6,85.2 194.8,84.7 196.1,84.4 197.3,84.1 198.5,83.9 199.7,83.9 201.0,83.7 202.2,83.5 203.4,83.3 204.7,83.1 205.9,82.8 207.1,82.6 208.4,82.5 209.6,82.4 210.8,82.3 212.1,82.2 213.3,82.0 214.5,81.8 215.7,81.6 217.0,81.4 218.2,81.3 219.4,81.2 220.7,81.1 221.9,80.9 223.1,80.7 224.4,80.5 225.6,80.3 226.8,80.1 228.0,80.0 229.3,79.9 230.5,79.8 231.7,79.5 233.0,79.2 234.2,79.1 235.4,78.9 236.7,78.5 237.9,78.4 239.1,78.3 240.3,78.2 241.6,78.1 242.8,77.9 244.0,77.7 245.3,77.6 246.5,77.5 247.7,77.3 249.0,77.2 250.2,77.1 251.4,77.0 252.6,76.8 253.9,76.6 255.1,76.5 256.3,76.3 257.6,76.2 258.8,76.1 260.0,75.9 261.3,75.8 262.5,75.7 263.7,75.5 264.9,75.3 266.2,75.0 267.4,74.8 268.6,74.7 269.9,74.6 271.1,74.5 272.3,74.4 273.6,74.1 274.8,74.0 276.0,73.9 277.2,73.7 278.5,73.6 279.7,73.4 280.9,73.3 282.2,73.2 283.4,73.0 284.6,72.8 285.9,72.6 287.1,72.4 288.3,72.4 289.5,72.3 290.8,72.2 292.0,72.1 293.2,72.0 294.5,71.8 295.7,71.7 296.9,71.5 298.2,71.4 299.4,71.3 300.6,71.2 301.8,71.0 303.1,70.8 304.3,70.6 305.5,70.5 306.8,70.3 308.0,70.2 309.2,70.1 310.5,70.0 311.7,70.0 312.9,69.9 314.1,69.7 315.4,69.5 316.6,69.4 317.8,69.2 319.1,69.2 320.3,69.0 321.5,68.9 322.8,68.7 324.0,68.6 325.2,68.5 326.4,68.4 327.7,68.2 328.9,68.1 330.1,67.9 331.4,67.9 332.6,67.8 333.8,67.7 335.1,67.6 336.3,67.4 337.5,67.3 338.7,67.3 340.0,67.2 341.2,66.9 342.4,66.7 343.7,70.7 344.9,69.9 346.1,68.4 347.4,67.8 348.6,67.1 349.8,66.3 351.0,65.8 352.3,65.5 353.5,64.9 354.7,64.0 356.0,63.4 357.2,63.2 358.4,62.9 359.7,62.6 360.9,62.1 362.1,61.7 363.3,61.2 364.6,61.0 365.8,60.5 367.0,60.3 368.3,60.0 369.5,59.8 370.7,59.6 372.0,59.4 373.2,58.9 374.4,58.7 375.6,58.2 376.9,57.7 378.1,57.4 379.3,57.2 380.6,57.0 381.8,56.8 383.0,56.5 384.3,56.1 385.5,55.9 386.7,55.1 387.9,54.4 389.2,54.1 390.4,54.0 391.6,53.7 392.9,53.3 394.1,52.9 395.3,52.4 396.6,52.1 397.8,51.8 399.0,51.5 400.3,51.2 401.5,51.0 402.7,50.8 403.9,50.7 405.2,50.5 406.4,50.2 407.6,50.1 408.9,49.9 410.1,49.7 411.3,49.5 412.6,49.3 413.8,49.1 415.0,49.0 416.2,48.8 417.5,48.6 418.7,48.5 419.9,48.4 421.2,48.2 422.4,48.1 423.6,48.0 424.9,47.8 426.1,47.7 427.3,47.5 428.5,47.3 429.8,47.1 431.0,47.0 432.2,46.8 433.5,46.7 434.7,46.6 435.9,46.5 437.2,46.3 438.4,46.2 439.6,46.1 440.8,46.0 442.1,45.8 443.3,45.6 444.5,45.4 445.8,45.2 447.0,45.1 448.2,44.9 449.5,44.7 450.7,44.5 451.9,44.3 453.1,44.1 454.4,43.9 455.6,43.7 456.8,43.5 458.1,43.2 459.3,43.0 460.5,42.8 461.8,42.7 463.0,42.6 464.2,42.5 465.4,42.4 466.7,42.2 467.9,42.0 469.1,41.9 470.4,41.7 471.6,41.5 472.8,41.3 474.1,41.1 475.3,40.9 476.5,40.6 477.7,40.5 479.0,40.3 480.2,40.2 481.4,40.1 482.7,40.0 483.9,39.8 485.1,39.6 486.4,39.5 487.6,39.2 488.8,39.1 490.0,38.9 491.3,38.8 492.5,38.7 493.7,38.6 495.0,38.5 496.2,38.4 497.4,38.2 498.7,38.2 499.9,38.0 501.1,37.8 502.3,37.7 503.6,37.5 504.8,37.4 506.0,37.2 507.3,37.2 508.5,37.0 509.7,36.9 511.0,36.8 512.2,36.6 513.4,36.5 514.6,36.2 515.9,36.1 517.1,35.8 518.3,35.7 519.6,35.6 520.8,35.5 522.0,35.4 523.3,35.3 524.5,35.3 525.7,35.2 526.9,35.1 528.2,35.0 529.4,34.8 530.6,34.7 531.9,34.5 533.1,34.3 534.3,34.2 535.6,34.1 536.8,33.9 538.0,33.8 539.2,33.7 540.5,33.6 541.7,33.5 542.9,33.4 544.2,33.2 545.4,32.9 546.6,32.7 547.9,32.5 549.1,32.4 550.3,32.2 551.5,32.1 552.8,31.9 554.0,31.8 555.2,31.7 556.5,31.6 557.7,31.5 558.9,31.3 560.2,31.1 561.4,31.0 562.6,30.8 563.8,30.7 565.1,30.5 566.3,30.3 567.5,30.2 568.8,30.1 570.0,30.0 570.0,30.0,120" />
  
  <!-- Linea principale -->
  <polyline fill="none" stroke="#0366d6" stroke-width="2.5" stroke-linecap="round" stroke-linejoin="round" points="30.0,120.0 31.2,119.5 32.5,119.0 33.7,118.5 34.9,118.4 36.2,118.2 37.4,117.6 38.6,117.3 39.8,117.0 41.1,116.4 42.3,116.1 43.5,115.9 44.8,115.7 46.0,115.4 47.2,115.0 48.5,114.6 49.7,114.3 50.9,114.1 52.1,113.9 53.4,113.7 54.6,113.4 55.8,113.1 57.1,113.0 58.3,112.7 59.5,111.8 60.8,111.6 62.0,111.2 63.2,110.8 64.4,110.5 65.7,110.2 66.9,110.0 68.1,109.9 69.4,109.6 70.6,109.2 71.8,108.8 73.1,108.6 74.3,108.3 75.5,108.2 76.7,108.1 78.0,107.9 79.2,107.6 80.4,107.5 81.7,107.4 82.9,107.0 84.1,106.5 85.4,106.4 86.6,106.3 87.8,106.1 89.0,105.8 90.3,105.5 91.5,105.1 92.7,104.8 94.0,104.5 95.2,104.4 96.4,104.2 97.7,103.8 98.9,103.4 100.1,103.2 101.3,103.0 102.6,102.9 103.8,102.7 105.0,102.3 106.3,101.9 107.5,101.6 108.7,101.2 110.0,101.1 111.2,101.0 112.4,100.8 113.6,100.5 114.9,100.4 116.1,100.2 117.3,100.1 118.6,99.9 119.8,99.7 121.0,99.6 122.3,99.5 123.5,99.4 124.7,99.1 125.9,98.9 127.2,98.8 128.4,98.7 129.6,98.6 130.9,98.6 132.1,104.7 133.3,104.1 134.6,103.6 135.8,103.0 137.0,101.3 138.2,100.2 139.5,98.9 140.7,98.5 141.9,97.9 143.2,97.1 144.4,96.1 145.6,95.4 146.9,95.2 148.1,94.9 149.3,94.3 150.5,93.8 151.8,93.5 153.0,93.1 154.2,92.9 155.5,92.8 156.7,92.5 157.9,91.9 159.2,91.5 160.4,91.1 161.6,90.6 162.8,90.4 164.1,90.3 165.3,89.9 166.5,89.5 167.8,89.2 169.0,88.9 170.2,88.8 171.5,88.7 172.7,88.5 173.9,88.2 175.1,88.0 176.4,87.7 177.6,87.6 178.8,87.4 180.1,87.2 181.3,87.0 182.5,86.9 183.8,86.8 185.0,86.4 186.2,86.2 187.4,85.9 188.7,85.8 189.9,85.6 191.1,85.5 192.4,85.3 193.6,85.2 194.8,84.7 196.1,84.4 197.3,84.1 198.5,83.9 199.7,83.9 201.0,83.7 202.2,83.5 203.4,83.3 204.7,83.1 205.9,82.8 207.1,82.6 208.4,82.5 209.6,82.4 210.8,82.3 212.1,82.2 213.3,82.0 214.5,81.8 215.7,81.6 217.0,81.4 218.2,81.3 219.4,81.2 220.7,81.1 221.9,80.9 223.1,80.7 224.4,80.5 225.6,80.3 226.8,80.1 228.0,80.0 229.3,79.9 230.5,79.8 231.7,79.5 233.0,79.2 234.2,79.1 235.4,78.9 236.7,78.5 237.9,78.4 239.1,78.3 240.3,78.2 241.6,78.1 242.8,77.9 244.0,77.7 245.3,77.6 246.5,77.5 247.7,77.3 249.0,77.2 250.2,77.1 251.4,77.0 252.6,76.8 253.9,76.6 255.1,76.5 256.3,76.3 257.6,76.2 258.8,76.1 260.0,75.9 261.3,75.8 262.5,75.7 263.7,75.5 264.9,75.3 266.2,75.0 267.4,74.8 268.6,74.7 269.9,74.6 271.1,74.5 272.3,74.4 273.6,74.1 274.8,74.0 276.0,73.9 277.2,73.7 278.5,73.6 279.7,73.4 280.9,73.3 282.2,73.2 283.4,73.0 284.6,72.8 285.9,72.6 287.1,72.4 288.3,72.4 289.5,72.3 290.8,72.2 292.0,72.1 293.2,72.0 294.5,71.8 295.7,71.7 296.9,71.5 298.2,71.4 299.4,71.3 300.6,71.2 301.8,71.0 303.1,70.8 304.3,70.6 305.5,70.5 306.8,70.3 308.0,70.2 309.2,70.1 310.5,70.0 311.7,70.0 312.9,69.9 314.1,69.7 315.4,69.5 316.6,69.4 317.8,69.2 319.1,69.2 320.3,69.0 321.5,68.9 322.8,68.7 324.0,68.6 325.2,68.5 326.4,68.4 327.7,68.2 328.9,68.1 330.1,67.9 331.4,67.9 332.6,67.8 333.8,67.7 335.1,67.6 336.3,67.4 337.5,67.3 338.7,67.3 340.0,67.2 341.2,66.9 342.4,66.7 343.7,70.7 344.9,69.9 346.1,68.4 347.4,67.8 348.6,67.1 349.8,66.3 351.0,65.8 352.3,65.5 353.5,64.9 354.7,64.0 356.0,63.4 357.2,63.2 358.4,62.9 359.7,62.6 360.9,62.1 362.1,61.7 363.3,61.2 364.6,61.0 365.8,60.5 367.0,60.3 368.3,60.0 369.5,59.8 370.7,59.6 372.0,59.4 373.2,58.9 374.4,58.7 375.6,58.2 376.9,57.7 378.1,57.4 379.3,57.2 380.6,57.0 381.8,56.8 383.0,56.5 384.3,56.1 385.5,55.9 386.7,55.1 387.9,54.4 389.2,54.1 390.4,54.0 391.6,53.7 392.9,53.3 394.1,52.9 395.3,52.4 396.6,52.1 397.8,51.8 399.0,51.5 400.3,51.2 401.5,51.0 402.7,50.8 403.9,50.7 405.2,50.5 406.4,50.2 407.6,50.1 408.9,49.9 410.1,49.7 411.3,49.5 412.6,49.3 413.8,49.1 415.0,49.0 416.2,48.8 417.5,48.6 418.7,48.5 419.9,48.4 421.2,48.2 422.4,48.1 423.6,48.0 424.9,47.8 426.1,47.7 427.3,47.5 428.5,47.3 429.8,47.1 431.0,47.0 432.2,46.8 433.5,46.7 434.7,46.6 435.9,46.5 437.2,46.3 438.4,46.2 439.6,46.1 440.8,46.0 442.1,45.8 443.3,45.6 444.5,45.4 445.8,45.2 447.0,45.1 448.2,44.9 449.5,44.7 450.7,44.5 451.9,44.3 453.1,44.1 454.4,43.9 455.6,43.7 456.8,43.5 458.1,43.2 459.3,43.0 460.5,42.8 461.8,42.7 463.0,42.6 464.2,42.5 465.4,42.4 466.7,42.2 467.9,42.0 469.1,41.9 470.4,41.7 471.6,41.5 472.8,41.3 474.1,41.1 475.3,40.9 476.5,40.6 477.7,40.5 479.0,40.3 480.2,40.2 481.4,40.1 482.7,40.0 483.9,39.8 485.1,39.6 486.4,39.5 487.6,39.2 488.8,39.1 490.0,38.9 491.3,38.8 492.5,38.7 493.7,38.6 495.0,38.5 496.2,38.4 497.4,38.2 498.7,38.2 499.9,38.0 501.1,37.8 502.3,37.7 503.6,37.5 504.8,37.4 506.0,37.2 507.3,37.2 508.5,37.0 509.7,36.9 511.0,36.8 512.2,36.6 513.4,36.5 514.6,36.2 515.9,36.1 517.1,35.8 518.3,35.7 519.6,35.6 520.8,35.5 522.0,35.4 523.3,35.3 524.5,35.3 525.7,35.2 526.9,35.1 528.2,35.0 529.4,34.8 530.6,34.7 531.9,34.5 533.1,34.3 534.3,34.2 535.6,34.1 536.8,33.9 538.0,33.8 539.2,33.7 540.5,33.6 541.7,33.5 542.9,33.4 544.2,33.2 545.4,32.9 546.6,32.7 547.9,32.5 549.1,32.4 550.3,32.2 551.5,32.1 552.8,31.9 554.0,31.8 555.2,31.7 556.5,31.6 557.7,31.5 558.9,31.3 560.2,31.1 561.4,31.0 562.6,30.8 563.8,30.7 565.1,30.5 566.3,30.3 567.5,30.2 568.8,30.1 570.0,30.0" />
  
  <!-- Punto finale luminoso -->
  <circle cx="570.0" cy="30.0" r="4" fill="#ffffff" stroke="#0366d6" stroke-width="2.5" />
</svg>