<svg width="600" height="150" viewBox="0 0 600 150" xmlns="http://www.w3.org/2000/svg">
  <defs>
    <filter id="shadow2" x="-2%" y="-2%" width="104%" height="108%">
      <feDropShadow dx="0" dy="2" stdDeviation="3" flood-opacity="0.1" />
    </filter>
    <linearGradient id="fillGrad" x1="0" y1="0" x2="0" y2="1">
      <stop offset="0%" stop-color="#0366d6" stop-opacity="0.3"/>
      <stop offset="100%" stop-color="#0366d6" stop-opacity="0.02"/>
    </linearGradient>
  </defs>
  <rect width="600" height="150" rx="12" fill="#ffffff" filter="url(#shadow2)" stroke="#e1e4e8" stroke-width="1"/>
  <text x="20" y="24" fill="#2b3137" font-family="-apple-system,BlinkMacSystemFont,'Segoe UI',Helvetica,Arial,sans-serif" font-size="14" font-weight="600">📈 Download Growth (Actual: 87.2k)</text>
  
  <!-- Area sotto la linea -->
  <polygon fill="url(#fillGrad)" points="30.0,120.0,120 30.0,120.0 31.3,119.5 32.6,119.0 33.9,118.5 35.2,118.4 36.4,118.1 37.7,117.5 39.0,117.2 40.3,116.9 41.6,116.3 42.9,116.0 44.2,115.7 45.5,115.5 46.8,115.3 48.0,114.9 49.3,114.4 50.6,114.1 51.9,113.9 53.2,113.7 54.5,113.5 55.8,113.2 57.1,112.9 58.4,112.8 59.6,112.5 60.9,111.6 62.2,111.3 63.5,110.9 64.8,110.5 66.1,110.2 67.4,109.9 68.7,109.7 70.0,109.5 71.2,109.3 72.5,108.8 73.8,108.4 75.1,108.2 76.4,107.9 77.7,107.8 79.0,107.7 80.3,107.5 81.6,107.2 82.8,107.1 84.1,106.9 85.4,106.6 86.7,106.1 88.0,106.0 89.3,105.9 90.6,105.7 91.9,105.3 93.2,105.0 94.4,104.6 95.7,104.3 97.0,103.9 98.3,103.9 99.6,103.6 100.9,103.3 102.2,102.9 103.5,102.6 104.7,102.5 106.0,102.3 107.3,102.1 108.6,101.7 109.9,101.3 111.2,100.9 112.5,100.6 113.8,100.4 115.1,100.3 116.3,100.2 117.6,99.9 118.9,99.7 120.2,99.5 121.5,99.4 122.8,99.3 124.1,99.1 125.4,98.9 126.7,98.8 127.9,98.7 129.2,98.4 130.5,98.1 131.8,98.1 133.1,97.9 134.4,97.9 135.7,97.9 137.0,104.2 138.3,103.6 139.5,103.0 140.8,102.4 142.1,100.7 143.4,99.5 144.7,98.2 146.0,97.7 147.3,97.2 148.6,96.3 149.9,95.3 151.1,94.6 152.4,94.4 153.7,94.1 155.0,93.4 156.3,92.9 157.6,92.6 158.9,92.2 160.2,92.0 161.5,91.9 162.7,91.6 164.0,91.0 165.3,90.5 166.6,90.1 167.9,89.6 169.2,89.4 170.5,89.3 171.8,88.8 173.1,88.5 174.3,88.1 175.6,87.8 176.9,87.7 178.2,87.6 179.5,87.4 180.8,87.1 182.1,86.9 183.4,86.6 184.7,86.5 185.9,86.3 187.2,86.1 188.5,85.9 189.8,85.8 191.1,85.6 192.4,85.3 193.7,85.1 195.0,84.8 196.3,84.6 197.5,84.4 198.8,84.3 200.1,84.2 201.4,84.0 202.7,83.5 204.0,83.2 205.3,82.9 206.6,82.7 207.9,82.7 209.1,82.5 210.4,82.3 211.7,82.0 213.0,81.8 214.3,81.5 215.6,81.4 216.9,81.3 218.2,81.1 219.5,81.0 220.7,80.9 222.0,80.7 223.3,80.5 224.6,80.3 225.9,80.1 227.2,80.0 228.5,79.9 229.8,79.8 231.1,79.6 232.3,79.4 233.6,79.2 234.9,79.0 236.2,78.8 237.5,78.6 238.8,78.5 240.1,78.4 241.4,78.1 242.6,77.9 243.9,77.7 245.2,77.5 246.5,77.1 247.8,77.0 249.1,76.9 250.4,76.8 251.7,76.7 253.0,76.5 254.2,76.3 255.5,76.2 256.8,76.0 258.1,75.9 259.4,75.7 260.7,75.6 262.0,75.5 263.3,75.4 264.6,75.1 265.8,75.0 267.1,74.8 268.4,74.7 269.7,74.6 271.0,74.4 272.3,74.3 273.6,74.2 274.9,74.0 276.2,73.8 277.4,73.5 278.7,73.3 280.0,73.1 281.3,73.1 282.6,73.0 283.9,72.8 285.2,72.6 286.5,72.5 287.8,72.4 289.0,72.2 290.3,72.0 291.6,71.8 292.9,71.7 294.2,71.6 295.5,71.4 296.8,71.2 298.1,71.0 299.4,70.8 300.6,70.7 301.9,70.7 303.2,70.6 304.5,70.5 305.8,70.3 307.1,70.2 308.4,70.0 309.7,69.8 311.0,69.7 312.2,69.6 313.5,69.5 314.8,69.4 316.1,69.2 317.4,69.0 318.7,68.8 320.0,68.6 321.3,68.5 322.6,68.4 323.8,68.4 325.1,68.3 326.4,68.2 327.7,68.0 329.0,67.8 330.3,67.7 331.6,67.5 332.9,67.4 334.2,67.3 335.4,67.2 336.7,67.0 338.0,66.9 339.3,66.8 340.6,66.6 341.9,66.5 343.2,66.3 344.5,66.2 345.8,66.1 347.0,66.0 348.3,65.9 349.6,65.8 350.9,65.7 352.2,65.6 353.5,65.5 354.8,65.4 356.1,65.1 357.4,64.9 358.6,69.0 359.9,68.2 361.2,66.7 362.5,66.1 363.8,65.3 365.1,64.4 366.4,64.0 367.7,63.6 368.9,63.0 370.2,62.1 371.5,61.5 372.8,61.3 374.1,60.9 375.4,60.6 376.7,60.2 378.0,59.7 379.3,59.2 380.5,59.0 381.8,58.5 383.1,58.3 384.4,58.0 385.7,57.8 387.0,57.6 388.3,57.3 389.6,56.9 390.9,56.6 392.1,56.2 393.4,55.6 394.7,55.3 396.0,55.1 397.3,54.9 398.6,54.7 399.9,54.3 401.2,54.0 402.5,53.7 403.7,52.9 405.0,52.2 406.3,51.9 407.6,51.7 408.9,51.5 410.2,51.0 411.5,50.6 412.8,50.1 414.1,49.8 415.3,49.5 416.6,49.2 417.9,48.8 419.2,48.6 420.5,48.5 421.8,48.3 423.1,48.1 424.4,47.9 425.7,47.7 426.9,47.5 428.2,47.3 429.5,47.2 430.8,46.9 432.1,46.7 433.4,46.5 434.7,46.4 436.0,46.2 437.3,46.1 438.5,45.9 439.8,45.8 441.1,45.6 442.4,45.6 443.7,45.4 445.0,45.2 446.3,45.0 447.6,44.8 448.9,44.7 450.1,44.5 451.4,44.3 452.7,44.2 454.0,44.1 455.3,44.0 456.6,43.8 457.9,43.7 459.2,43.6 460.5,43.5 461.7,43.3 463.0,43.1 464.3,42.9 465.6,42.7 466.9,42.6 468.2,42.3 469.5,42.1 470.8,42.0 472.1,41.7 473.3,41.5 474.6,41.3 475.9,41.1 477.2,40.9 478.5,40.6 479.8,40.4 481.1,40.2 482.4,40.1 483.7,40.0 484.9,39.9 486.2,39.7 487.5,39.6 488.8,39.4 490.1,39.3 491.4,39.1 492.7,38.9 494.0,38.6 495.3,38.4 496.5,38.2 497.8,37.9 499.1,37.8 500.4,37.6 501.7,37.5 503.0,37.4 504.3,37.3 505.6,37.1 506.8,36.9 508.1,36.8 509.4,36.5 510.7,36.4 512.0,36.2 513.3,36.1 514.6,35.9 515.9,35.8 517.2,35.8 518.4,35.7 519.7,35.5 521.0,35.4 522.3,35.2 523.6,35.1 524.9,34.9 526.2,34.7 527.5,34.6 528.8,34.4 530.0,34.4 531.3,34.2 532.6,34.1 533.9,34.0 535.2,33.8 536.5,33.7 537.8,33.4 539.1,33.2 540.4,32.9 541.6,32.9 542.9,32.8 544.2,32.7 545.5,32.5 546.8,32.5 548.1,32.4 549.4,32.3 550.7,32.2 552.0,32.1 553.2,31.9 554.5,31.8 555.8,31.6 557.1,31.4 558.4,31.3 559.7,31.2 561.0,31.0 562.3,30.9 563.6,30.8 564.8,30.7 566.1,30.5 567.4,30.4 568.7,30.3 570.0,30.0 570.0,30.0,120" />
  
  <!-- Linea principale -->
  <polyline fill="none" stroke="#0366d6" stroke-width="2.5" stroke-linecap="round" stroke-linejoin="round" points="30.0,120.0 31.3,119.5 32.6,119.0 33.9,118.5 35.2,118.4 36.4,118.1 37.7,117.5 39.0,117.2 40.3,116.9 41.6,116.3 42.9,116.0 44.2,115.7 45.5,115.5 46.8,115.3 48.0,114.9 49.3,114.4 50.6,114.1 51.9,113.9 53.2,113.7 54.5,113.5 55.8,113.2 57.1,112.9 58.4,112.8 59.6,112.5 60.9,111.6 62.2,111.3 63.5,110.9 64.8,110.5 66.1,110.2 67.4,109.9 68.7,109.7 70.0,109.5 71.2,109.3 72.5,108.8 73.8,108.4 75.1,108.2 76.4,107.9 77.7,107.8 79.0,107.7 80.3,107.5 81.6,107.2 82.8,107.1 84.1,106.9 85.4,106.6 86.7,106.1 88.0,106.0 89.3,105.9 90.6,105.7 91.9,105.3 93.2,105.0 94.4,104.6 95.7,104.3 97.0,103.9 98.3,103.9 99.6,103.6 100.9,103.3 102.2,102.9 103.5,102.6 104.7,102.5 106.0,102.3 107.3,102.1 108.6,101.7 109.9,101.3 111.2,100.9 112.5,100.6 113.8,100.4 115.1,100.3 116.3,100.2 117.6,99.9 118.9,99.7 120.2,99.5 121.5,99.4 122.8,99.3 124.1,99.1 125.4,98.9 126.7,98.8 127.9,98.7 129.2,98.4 130.5,98.1 131.8,98.1 133.1,97.9 134.4,97.9 135.7,97.9 137.0,104.2 138.3,103.6 139.5,103.0 140.8,102.4 142.1,100.7 143.4,99.5 144.7,98.2 146.0,97.7 147.3,97.2 148.6,96.3 149.9,95.3 151.1,94.6 152.4,94.4 153.7,94.1 155.0,93.4 156.3,92.9 157.6,92.6 158.9,92.2 160.2,92.0 161.5,91.9 162.7,91.6 164.0,91.0 165.3,90.5 166.6,90.1 167.9,89.6 169.2,89.4 170.5,89.3 171.8,88.8 173.1,88.5 174.3,88.1 175.6,87.8 176.9,87.7 178.2,87.6 179.5,87.4 180.8,87.1 182.1,86.9 183.4,86.6 184.7,86.5 185.9,86.3 187.2,86.1 188.5,85.9 189.8,85.8 191.1,85.6 192.4,85.3 193.7,85.1 195.0,84.8 196.3,84.6 197.5,84.4 198.8,84.3 200.1,84.2 201.4,84.0 202.7,83.5 204.0,83.2 205.3,82.9 206.6,82.7 207.9,82.7 209.1,82.5 210.4,82.3 211.7,82.0 213.0,81.8 214.3,81.5 215.6,81.4 216.9,81.3 218.2,81.1 219.5,81.0 220.7,80.9 222.0,80.7 223.3,80.5 224.6,80.3 225.9,80.1 227.2,80.0 228.5,79.9 229.8,79.8 231.1,79.6 232.3,79.4 233.6,79.2 234.9,79.0 236.2,78.8 237.5,78.6 238.8,78.5 240.1,78.4 241.4,78.1 242.6,77.9 243.9,77.7 245.2,77.5 246.5,77.1 247.8,77.0 249.1,76.9 250.4,76.8 251.7,76.7 253.0,76.5 254.2,76.3 255.5,76.2 256.8,76.0 258.1,75.9 259.4,75.7 260.7,75.6 262.0,75.5 263.3,75.4 264.6,75.1 265.8,75.0 267.1,74.8 268.4,74.7 269.7,74.6 271.0,74.4 272.3,74.3 273.6,74.2 274.9,74.0 276.2,73.8 277.4,73.5 278.7,73.3 280.0,73.1 281.3,73.1 282.6,73.0 283.9,72.8 285.2,72.6 286.5,72.5 287.8,72.4 289.0,72.2 290.3,72.0 291.6,71.8 292.9,71.7 294.2,71.6 295.5,71.4 296.8,71.2 298.1,71.0 299.4,70.8 300.6,70.7 301.9,70.7 303.2,70.6 304.5,70.5 305.8,70.3 307.1,70.2 308.4,70.0 309.7,69.8 311.0,69.7 312.2,69.6 313.5,69.5 314.8,69.4 316.1,69.2 317.4,69.0 318.7,68.8 320.0,68.6 321.3,68.5 322.6,68.4 323.8,68.4 325.1,68.3 326.4,68.2 327.7,68.0 329.0,67.8 330.3,67.7 331.6,67.5 332.9,67.4 334.2,67.3 335.4,67.2 336.7,67.0 338.0,66.9 339.3,66.8 340.6,66.6 341.9,66.5 343.2,66.3 344.5,66.2 345.8,66.1 347.0,66.0 348.3,65.9 349.6,65.8 350.9,65.7 352.2,65.6 353.5,65.5 354.8,65.4 356.1,65.1 357.4,64.9 358.6,69.0 359.9,68.2 361.2,66.7 362.5,66.1 363.8,65.3 365.1,64.4 366.4,64.0 367.7,63.6 368.9,63.0 370.2,62.1 371.5,61.5 372.8,61.3 374.1,60.9 375.4,60.6 376.7,60.2 378.0,59.7 379.3,59.2 380.5,59.0 381.8,58.5 383.1,58.3 384.4,58.0 385.7,57.8 387.0,57.6 388.3,57.3 389.6,56.9 390.9,56.6 392.1,56.2 393.4,55.6 394.7,55.3 396.0,55.1 397.3,54.9 398.6,54.7 399.9,54.3 401.2,54.0 402.5,53.7 403.7,52.9 405.0,52.2 406.3,51.9 407.6,51.7 408.9,51.5 410.2,51.0 411.5,50.6 412.8,50.1 414.1,49.8 415.3,49.5 416.6,49.2 417.9,48.8 419.2,48.6 420.5,48.5 421.8,48.3 423.1,48.1 424.4,47.9 425.7,47.7 426.9,47.5 428.2,47.3 429.5,47.2 430.8,46.9 432.1,46.7 433.4,46.5 434.7,46.4 436.0,46.2 437.3,46.1 438.5,45.9 439.8,45.8 441.1,45.6 442.4,45.6 443.7,45.4 445.0,45.2 446.3,45.0 447.6,44.8 448.9,44.7 450.1,44.5 451.4,44.3 452.7,44.2 454.0,44.1 455.3,44.0 456.6,43.8 457.9,43.7 459.2,43.6 460.5,43.5 461.7,43.3 463.0,43.1 464.3,42.9 465.6,42.7 466.9,42.6 468.2,42.3 469.5,42.1 470.8,42.0 472.1,41.7 473.3,41.5 474.6,41.3 475.9,41.1 477.2,40.9 478.5,40.6 479.8,40.4 481.1,40.2 482.4,40.1 483.7,40.0 484.9,39.9 486.2,39.7 487.5,39.6 488.8,39.4 490.1,39.3 491.4,39.1 492.7,38.9 494.0,38.6 495.3,38.4 496.5,38.2 497.8,37.9 499.1,37.8 500.4,37.6 501.7,37.5 503.0,37.4 504.3,37.3 505.6,37.1 506.8,36.9 508.1,36.8 509.4,36.5 510.7,36.4 512.0,36.2 513.3,36.1 514.6,35.9 515.9,35.8 517.2,35.8 518.4,35.7 519.7,35.5 521.0,35.4 522.3,35.2 523.6,35.1 524.9,34.9 526.2,34.7 527.5,34.6 528.8,34.4 530.0,34.4 531.3,34.2 532.6,34.1 533.9,34.0 535.2,33.8 536.5,33.7 537.8,33.4 539.1,33.2 540.4,32.9 541.6,32.9 542.9,32.8 544.2,32.7 545.5,32.5 546.8,32.5 548.1,32.4 549.4,32.3 550.7,32.2 552.0,32.1 553.2,31.9 554.5,31.8 555.8,31.6 557.1,31.4 558.4,31.3 559.7,31.2 561.0,31.0 562.3,30.9 563.6,30.8 564.8,30.7 566.1,30.5 567.4,30.4 568.7,30.3 570.0,30.0" />
  
  <!-- Punto finale luminoso -->
  <circle cx="570.0" cy="30.0" r="4" fill="#ffffff" stroke="#0366d6" stroke-width="2.5" />
</svg>