<svg width="600" height="150" viewBox="0 0 600 150" xmlns="http://www.w3.org/2000/svg">
  <defs>
    <filter id="shadow2" x="-2%" y="-2%" width="104%" height="108%">
      <feDropShadow dx="0" dy="2" stdDeviation="3" flood-opacity="0.1" />
    </filter>
    <linearGradient id="fillGrad" x1="0" y1="0" x2="0" y2="1">
      <stop offset="0%" stop-color="#0366d6" stop-opacity="0.3"/>
      <stop offset="100%" stop-color="#0366d6" stop-opacity="0.02"/>
    </linearGradient>
  </defs>
  <rect width="600" height="150" rx="12" fill="#ffffff" filter="url(#shadow2)" stroke="#e1e4e8" stroke-width="1"/>
  <text x="20" y="24" fill="#2b3137" font-family="-apple-system,BlinkMacSystemFont,'Segoe UI',Helvetica,Arial,sans-serif" font-size="14" font-weight="600">📈 Download Growth (Actual: 88.3k)</text>
  
  <!-- Area sotto la linea -->
  <polygon fill="url(#fillGrad)" points="30.0,120.0,120 30.0,120.0 31.2,119.5 32.4,119.0 33.6,118.6 34.7,118.5 35.9,118.2 37.1,117.7 38.3,117.3 39.5,117.1 40.7,116.5 41.8,116.2 43.0,115.9 44.2,115.8 45.4,115.5 46.6,115.1 47.8,114.7 48.9,114.4 50.1,114.2 51.3,114.1 52.5,113.8 53.7,113.5 54.9,113.3 56.1,113.1 57.2,112.9 58.4,112.0 59.6,111.7 60.8,111.4 62.0,111.0 63.2,110.7 64.3,110.4 65.5,110.3 66.7,110.1 67.9,109.9 69.1,109.4 70.3,109.1 71.4,108.8 72.6,108.5 73.8,108.4 75.0,108.4 76.2,108.2 77.4,107.9 78.6,107.7 79.7,107.6 80.9,107.3 82.1,106.8 83.3,106.7 84.5,106.6 85.7,106.4 86.8,106.1 88.0,105.8 89.2,105.4 90.4,105.1 91.6,104.8 92.8,104.7 93.9,104.5 95.1,104.2 96.3,103.8 97.5,103.5 98.7,103.4 99.9,103.2 101.1,103.1 102.2,102.7 103.4,102.3 104.6,102.0 105.8,101.6 107.0,101.5 108.2,101.4 109.3,101.2 110.5,101.0 111.7,100.8 112.9,100.6 114.1,100.5 115.3,100.4 116.4,100.2 117.6,100.1 118.8,100.0 120.0,99.9 121.2,99.5 122.4,99.3 123.6,99.2 124.7,99.1 125.9,99.1 127.1,99.1 128.3,105.0 129.5,104.5 130.7,103.9 131.8,103.4 133.0,101.7 134.2,100.6 135.4,99.4 136.6,98.9 137.8,98.4 138.9,97.6 140.1,96.6 141.3,96.0 142.5,95.7 143.7,95.5 144.9,94.8 146.1,94.4 147.2,94.0 148.4,93.7 149.6,93.5 150.8,93.4 152.0,93.1 153.2,92.5 154.3,92.1 155.5,91.7 156.7,91.3 157.9,91.1 159.1,90.9 160.3,90.5 161.4,90.2 162.6,89.8 163.8,89.6 165.0,89.5 166.2,89.4 167.4,89.2 168.6,88.9 169.7,88.6 170.9,88.4 172.1,88.3 173.3,88.1 174.5,87.9 175.7,87.8 176.8,87.6 178.0,87.5 179.2,87.2 180.4,86.9 181.6,86.7 182.8,86.5 183.9,86.3 185.1,86.2 186.3,86.1 187.5,85.9 188.7,85.5 189.9,85.2 191.1,84.8 192.2,84.7 193.4,84.7 194.6,84.5 195.8,84.3 197.0,84.1 198.2,83.9 199.3,83.6 200.5,83.4 201.7,83.4 202.9,83.2 204.1,83.1 205.3,83.0 206.4,82.8 207.6,82.6 208.8,82.4 210.0,82.3 211.2,82.2 212.4,82.1 213.6,82.0 214.7,81.8 215.9,81.6 217.1,81.4 218.3,81.2 219.5,81.0 220.7,80.9 221.8,80.8 223.0,80.6 224.2,80.4 225.4,80.1 226.6,79.9 227.8,79.7 228.9,79.4 230.1,79.3 231.3,79.2 232.5,79.2 233.7,79.0 234.9,78.8 236.1,78.7 237.2,78.5 238.4,78.4 239.6,78.3 240.8,78.1 242.0,78.0 243.2,77.9 244.3,77.8 245.5,77.5 246.7,77.4 247.9,77.2 249.1,77.1 250.3,77.0 251.4,76.9 252.6,76.8 253.8,76.7 255.0,76.5 256.2,76.3 257.4,76.0 258.6,75.8 259.7,75.7 260.9,75.6 262.1,75.5 263.3,75.4 264.5,75.1 265.7,75.0 266.8,74.9 268.0,74.7 269.2,74.6 270.4,74.4 271.6,74.3 272.8,74.2 273.9,74.0 275.1,73.9 276.3,73.7 277.5,73.5 278.7,73.4 279.9,73.3 281.1,73.3 282.2,73.1 283.4,73.0 284.6,72.9 285.8,72.7 287.0,72.5 288.2,72.4 289.3,72.3 290.5,72.2 291.7,72.1 292.9,71.9 294.1,71.7 295.3,71.6 296.4,71.4 297.6,71.3 298.8,71.2 300.0,71.1 301.2,71.0 302.4,71.0 303.6,70.8 304.7,70.6 305.9,70.5 307.1,70.3 308.3,70.3 309.5,70.1 310.7,70.0 311.8,69.8 313.0,69.7 314.2,69.6 315.4,69.5 316.6,69.4 317.8,69.2 318.9,69.1 320.1,69.0 321.3,68.9 322.5,68.8 323.7,68.7 324.9,68.6 326.1,68.5 327.2,68.4 328.4,68.3 329.6,68.0 330.8,67.8 332.0,71.8 333.2,71.0 334.3,69.5 335.5,68.9 336.7,68.3 337.9,67.4 339.1,67.0 340.3,66.6 341.4,66.1 342.6,65.2 343.8,64.6 345.0,64.4 346.2,64.1 347.4,63.8 348.6,63.4 349.7,63.0 350.9,62.5 352.1,62.3 353.3,61.8 354.5,61.6 355.7,61.3 356.8,61.1 358.0,60.9 359.2,60.7 360.4,60.3 361.6,60.0 362.8,59.6 363.9,59.1 365.1,58.7 366.3,58.6 367.5,58.4 368.7,58.2 369.9,57.8 371.1,57.5 372.2,57.3 373.4,56.5 374.6,55.8 375.8,55.6 377.0,55.4 378.2,55.1 379.3,54.7 380.5,54.4 381.7,53.9 382.9,53.6 384.1,53.3 385.3,53.0 386.4,52.7 387.6,52.5 388.8,52.3 390.0,52.2 391.2,52.0 392.4,51.8 393.6,51.6 394.7,51.4 395.9,51.2 397.1,51.1 398.3,50.8 399.5,50.7 400.7,50.5 401.8,50.3 403.0,50.2 404.2,50.0 405.4,49.9 406.6,49.8 407.8,49.6 408.9,49.5 410.1,49.4 411.3,49.2 412.5,49.1 413.7,48.9 414.9,48.7 416.1,48.6 417.2,48.4 418.4,48.3 419.6,48.2 420.8,48.1 422.0,47.9 423.2,47.8 424.3,47.7 425.5,47.6 426.7,47.4 427.9,47.3 429.1,47.0 430.3,46.8 431.4,46.7 432.6,46.5 433.8,46.3 435.0,46.2 436.2,45.9 437.4,45.8 438.6,45.6 439.7,45.3 440.9,45.1 442.1,44.9 443.3,44.7 444.5,44.5 445.7,44.4 446.8,44.3 448.0,44.2 449.2,44.0 450.4,43.9 451.6,43.7 452.8,43.6 453.9,43.4 455.1,43.2 456.3,43.0 457.5,42.8 458.7,42.6 459.9,42.3 461.1,42.2 462.2,42.1 463.4,41.9 464.6,41.8 465.8,41.7 467.0,41.6 468.2,41.4 469.3,41.2 470.5,41.0 471.7,40.9 472.9,40.7 474.1,40.6 475.3,40.4 476.4,40.4 477.6,40.3 478.8,40.2 480.0,40.0 481.2,39.9 482.4,39.8 483.6,39.6 484.7,39.5 485.9,39.3 487.1,39.2 488.3,39.0 489.5,39.0 490.7,38.8 491.8,38.7 493.0,38.6 494.2,38.4 495.4,38.3 496.6,38.0 497.8,37.9 498.9,37.6 500.1,37.5 501.3,37.5 502.5,37.4 503.7,37.2 504.9,37.2 506.1,37.1 507.2,37.0 508.4,36.9 509.6,36.8 510.8,36.6 512.0,36.5 513.2,36.3 514.3,36.2 515.5,36.1 516.7,36.0 517.9,35.8 519.1,35.7 520.3,35.5 521.4,35.5 522.6,35.4 523.8,35.2 525.0,35.1 526.2,34.8 527.4,34.6 528.6,34.4 529.7,34.3 530.9,34.1 532.1,34.0 533.3,33.8 534.5,33.7 535.7,33.6 536.8,33.5 538.0,33.4 539.2,33.2 540.4,33.0 541.6,32.9 542.8,32.8 543.9,32.6 545.1,32.5 546.3,32.3 547.5,32.2 548.7,32.1 549.9,31.9 551.1,31.9 552.2,31.8 553.4,31.6 554.6,31.5 555.8,31.3 557.0,31.1 558.2,31.0 559.3,30.9 560.5,30.8 561.7,30.8 562.9,30.7 564.1,30.6 565.3,30.5 566.4,30.5 567.6,30.3 568.8,30.2 570.0,30.0 570.0,30.0,120" />
  
  <!-- Linea principale -->
  <polyline fill="none" stroke="#0366d6" stroke-width="2.5" stroke-linecap="round" stroke-linejoin="round" points="30.0,120.0 31.2,119.5 32.4,119.0 33.6,118.6 34.7,118.5 35.9,118.2 37.1,117.7 38.3,117.3 39.5,117.1 40.7,116.5 41.8,116.2 43.0,115.9 44.2,115.8 45.4,115.5 46.6,115.1 47.8,114.7 48.9,114.4 50.1,114.2 51.3,114.1 52.5,113.8 53.7,113.5 54.9,113.3 56.1,113.1 57.2,112.9 58.4,112.0 59.6,111.7 60.8,111.4 62.0,111.0 63.2,110.7 64.3,110.4 65.5,110.3 66.7,110.1 67.9,109.9 69.1,109.4 70.3,109.1 71.4,108.8 72.6,108.5 73.8,108.4 75.0,108.4 76.2,108.2 77.4,107.9 78.6,107.7 79.7,107.6 80.9,107.3 82.1,106.8 83.3,106.7 84.5,106.6 85.7,106.4 86.8,106.1 88.0,105.8 89.2,105.4 90.4,105.1 91.6,104.8 92.8,104.7 93.9,104.5 95.1,104.2 96.3,103.8 97.5,103.5 98.7,103.4 99.9,103.2 101.1,103.1 102.2,102.7 103.4,102.3 104.6,102.0 105.8,101.6 107.0,101.5 108.2,101.4 109.3,101.2 110.5,101.0 111.7,100.8 112.9,100.6 114.1,100.5 115.3,100.4 116.4,100.2 117.6,100.1 118.8,100.0 120.0,99.9 121.2,99.5 122.4,99.3 123.6,99.2 124.7,99.1 125.9,99.1 127.1,99.1 128.3,105.0 129.5,104.5 130.7,103.9 131.8,103.4 133.0,101.7 134.2,100.6 135.4,99.4 136.6,98.9 137.8,98.4 138.9,97.6 140.1,96.6 141.3,96.0 142.5,95.7 143.7,95.5 144.9,94.8 146.1,94.4 147.2,94.0 148.4,93.7 149.6,93.5 150.8,93.4 152.0,93.1 153.2,92.5 154.3,92.1 155.5,91.7 156.7,91.3 157.9,91.1 159.1,90.9 160.3,90.5 161.4,90.2 162.6,89.8 163.8,89.6 165.0,89.5 166.2,89.4 167.4,89.2 168.6,88.9 169.7,88.6 170.9,88.4 172.1,88.3 173.3,88.1 174.5,87.9 175.7,87.8 176.8,87.6 178.0,87.5 179.2,87.2 180.4,86.9 181.6,86.7 182.8,86.5 183.9,86.3 185.1,86.2 186.3,86.1 187.5,85.9 188.7,85.5 189.9,85.2 191.1,84.8 192.2,84.7 193.4,84.7 194.6,84.5 195.8,84.3 197.0,84.1 198.2,83.9 199.3,83.6 200.5,83.4 201.7,83.4 202.9,83.2 204.1,83.1 205.3,83.0 206.4,82.8 207.6,82.6 208.8,82.4 210.0,82.3 211.2,82.2 212.4,82.1 213.6,82.0 214.7,81.8 215.9,81.6 217.1,81.4 218.3,81.2 219.5,81.0 220.7,80.9 221.8,80.8 223.0,80.6 224.2,80.4 225.4,80.1 226.6,79.9 227.8,79.7 228.9,79.4 230.1,79.3 231.3,79.2 232.5,79.2 233.7,79.0 234.9,78.8 236.1,78.7 237.2,78.5 238.4,78.4 239.6,78.3 240.8,78.1 242.0,78.0 243.2,77.9 244.3,77.8 245.5,77.5 246.7,77.4 247.9,77.2 249.1,77.1 250.3,77.0 251.4,76.9 252.6,76.8 253.8,76.7 255.0,76.5 256.2,76.3 257.4,76.0 258.6,75.8 259.7,75.7 260.9,75.6 262.1,75.5 263.3,75.4 264.5,75.1 265.7,75.0 266.8,74.9 268.0,74.7 269.2,74.6 270.4,74.4 271.6,74.3 272.8,74.2 273.9,74.0 275.1,73.9 276.3,73.7 277.5,73.5 278.7,73.4 279.9,73.3 281.1,73.3 282.2,73.1 283.4,73.0 284.6,72.9 285.8,72.7 287.0,72.5 288.2,72.4 289.3,72.3 290.5,72.2 291.7,72.1 292.9,71.9 294.1,71.7 295.3,71.6 296.4,71.4 297.6,71.3 298.8,71.2 300.0,71.1 301.2,71.0 302.4,71.0 303.6,70.8 304.7,70.6 305.9,70.5 307.1,70.3 308.3,70.3 309.5,70.1 310.7,70.0 311.8,69.8 313.0,69.7 314.2,69.6 315.4,69.5 316.6,69.4 317.8,69.2 318.9,69.1 320.1,69.0 321.3,68.9 322.5,68.8 323.7,68.7 324.9,68.6 326.1,68.5 327.2,68.4 328.4,68.3 329.6,68.0 330.8,67.8 332.0,71.8 333.2,71.0 334.3,69.5 335.5,68.9 336.7,68.3 337.9,67.4 339.1,67.0 340.3,66.6 341.4,66.1 342.6,65.2 343.8,64.6 345.0,64.4 346.2,64.1 347.4,63.8 348.6,63.4 349.7,63.0 350.9,62.5 352.1,62.3 353.3,61.8 354.5,61.6 355.7,61.3 356.8,61.1 358.0,60.9 359.2,60.7 360.4,60.3 361.6,60.0 362.8,59.6 363.9,59.1 365.1,58.7 366.3,58.6 367.5,58.4 368.7,58.2 369.9,57.8 371.1,57.5 372.2,57.3 373.4,56.5 374.6,55.8 375.8,55.6 377.0,55.4 378.2,55.1 379.3,54.7 380.5,54.4 381.7,53.9 382.9,53.6 384.1,53.3 385.3,53.0 386.4,52.7 387.6,52.5 388.8,52.3 390.0,52.2 391.2,52.0 392.4,51.8 393.6,51.6 394.7,51.4 395.9,51.2 397.1,51.1 398.3,50.8 399.5,50.7 400.7,50.5 401.8,50.3 403.0,50.2 404.2,50.0 405.4,49.9 406.6,49.8 407.8,49.6 408.9,49.5 410.1,49.4 411.3,49.2 412.5,49.1 413.7,48.9 414.9,48.7 416.1,48.6 417.2,48.4 418.4,48.3 419.6,48.2 420.8,48.1 422.0,47.9 423.2,47.8 424.3,47.7 425.5,47.6 426.7,47.4 427.9,47.3 429.1,47.0 430.3,46.8 431.4,46.7 432.6,46.5 433.8,46.3 435.0,46.2 436.2,45.9 437.4,45.8 438.6,45.6 439.7,45.3 440.9,45.1 442.1,44.9 443.3,44.7 444.5,44.5 445.7,44.4 446.8,44.3 448.0,44.2 449.2,44.0 450.4,43.9 451.6,43.7 452.8,43.6 453.9,43.4 455.1,43.2 456.3,43.0 457.5,42.8 458.7,42.6 459.9,42.3 461.1,42.2 462.2,42.1 463.4,41.9 464.6,41.8 465.8,41.7 467.0,41.6 468.2,41.4 469.3,41.2 470.5,41.0 471.7,40.9 472.9,40.7 474.1,40.6 475.3,40.4 476.4,40.4 477.6,40.3 478.8,40.2 480.0,40.0 481.2,39.9 482.4,39.8 483.6,39.6 484.7,39.5 485.9,39.3 487.1,39.2 488.3,39.0 489.5,39.0 490.7,38.8 491.8,38.7 493.0,38.6 494.2,38.4 495.4,38.3 496.6,38.0 497.8,37.9 498.9,37.6 500.1,37.5 501.3,37.5 502.5,37.4 503.7,37.2 504.9,37.2 506.1,37.1 507.2,37.0 508.4,36.9 509.6,36.8 510.8,36.6 512.0,36.5 513.2,36.3 514.3,36.2 515.5,36.1 516.7,36.0 517.9,35.8 519.1,35.7 520.3,35.5 521.4,35.5 522.6,35.4 523.8,35.2 525.0,35.1 526.2,34.8 527.4,34.6 528.6,34.4 529.7,34.3 530.9,34.1 532.1,34.0 533.3,33.8 534.5,33.7 535.7,33.6 536.8,33.5 538.0,33.4 539.2,33.2 540.4,33.0 541.6,32.9 542.8,32.8 543.9,32.6 545.1,32.5 546.3,32.3 547.5,32.2 548.7,32.1 549.9,31.9 551.1,31.9 552.2,31.8 553.4,31.6 554.6,31.5 555.8,31.3 557.0,31.1 558.2,31.0 559.3,30.9 560.5,30.8 561.7,30.8 562.9,30.7 564.1,30.6 565.3,30.5 566.4,30.5 567.6,30.3 568.8,30.2 570.0,30.0" />
  
  <!-- Punto finale luminoso -->
  <circle cx="570.0" cy="30.0" r="4" fill="#ffffff" stroke="#0366d6" stroke-width="2.5" />
</svg>