<svg width="600" height="150" viewBox="0 0 600 150" xmlns="http://www.w3.org/2000/svg">
  <defs>
    <filter id="shadow2" x="-2%" y="-2%" width="104%" height="108%">
      <feDropShadow dx="0" dy="2" stdDeviation="3" flood-opacity="0.1" />
    </filter>
    <linearGradient id="fillGrad" x1="0" y1="0" x2="0" y2="1">
      <stop offset="0%" stop-color="#0366d6" stop-opacity="0.3"/>
      <stop offset="100%" stop-color="#0366d6" stop-opacity="0.02"/>
    </linearGradient>
  </defs>
  <rect width="600" height="150" rx="12" fill="#ffffff" filter="url(#shadow2)" stroke="#e1e4e8" stroke-width="1"/>
  <text x="20" y="24" fill="#2b3137" font-family="-apple-system,BlinkMacSystemFont,'Segoe UI',Helvetica,Arial,sans-serif" font-size="14" font-weight="600">📈 Download Growth (Actual: 87.3k)</text>
  
  <!-- Area sotto la linea -->
  <polygon fill="url(#fillGrad)" points="30.0,120.0,120 30.0,120.0 31.3,119.5 32.6,119.0 33.8,118.5 35.1,118.4 36.4,118.1 37.7,117.6 39.0,117.2 40.2,116.9 41.5,116.3 42.8,116.0 44.1,115.7 45.4,115.6 46.6,115.3 47.9,114.9 49.2,114.5 50.5,114.2 51.8,113.9 53.0,113.8 54.3,113.5 55.6,113.2 56.9,112.9 58.2,112.8 59.4,112.5 60.7,111.6 62.0,111.3 63.3,111.0 64.5,110.6 65.8,110.3 67.1,110.0 68.4,109.8 69.7,109.6 70.9,109.4 72.2,108.9 73.5,108.5 74.8,108.3 76.1,107.9 77.3,107.9 78.6,107.8 79.9,107.6 81.2,107.3 82.5,107.1 83.7,107.0 85.0,106.7 86.3,106.2 87.6,106.1 88.9,106.0 90.1,105.8 91.4,105.4 92.7,105.1 94.0,104.7 95.3,104.4 96.5,104.0 97.8,104.0 99.1,103.7 100.4,103.4 101.7,103.0 102.9,102.7 104.2,102.6 105.5,102.4 106.8,102.2 108.1,101.8 109.3,101.4 110.6,101.1 111.9,100.7 113.2,100.6 114.5,100.4 115.7,100.3 117.0,100.0 118.3,99.8 119.6,99.7 120.9,99.5 122.1,99.4 123.4,99.2 124.7,99.1 126.0,99.0 127.3,98.9 128.5,98.5 129.8,98.3 131.1,98.2 132.4,98.1 133.6,98.0 134.9,98.0 136.2,104.3 137.5,103.7 138.8,103.1 140.0,102.5 141.3,100.8 142.6,99.6 143.9,98.3 145.2,97.9 146.4,97.3 147.7,96.4 149.0,95.5 150.3,94.8 151.6,94.5 152.8,94.3 154.1,93.6 155.4,93.1 156.7,92.8 158.0,92.4 159.2,92.2 160.5,92.1 161.8,91.7 163.1,91.2 164.4,90.7 165.6,90.3 166.9,89.8 168.2,89.6 169.5,89.5 170.8,89.1 172.0,88.7 173.3,88.3 174.6,88.1 175.9,87.9 177.2,87.8 178.4,87.6 179.7,87.3 181.0,87.1 182.3,86.9 183.6,86.7 184.8,86.5 186.1,86.3 187.4,86.2 188.7,86.0 190.0,85.9 191.2,85.5 192.5,85.3 193.8,85.0 195.1,84.8 196.4,84.7 197.6,84.5 198.9,84.4 200.2,84.2 201.5,83.8 202.7,83.5 204.0,83.1 205.3,83.0 206.6,82.9 207.9,82.7 209.1,82.5 210.4,82.3 211.7,82.1 213.0,81.8 214.3,81.6 215.5,81.5 216.8,81.4 218.1,81.3 219.4,81.1 220.7,80.9 221.9,80.8 223.2,80.5 224.5,80.4 225.8,80.3 227.1,80.2 228.3,80.1 229.6,79.9 230.9,79.7 232.2,79.4 233.5,79.3 234.7,79.1 236.0,78.9 237.3,78.8 238.6,78.7 239.9,78.4 241.1,78.1 242.4,78.0 243.7,77.7 245.0,77.4 246.3,77.3 247.5,77.2 248.8,77.1 250.1,76.9 251.4,76.8 252.7,76.6 253.9,76.5 255.2,76.3 256.5,76.2 257.8,76.0 259.1,75.9 260.3,75.8 261.6,75.7 262.9,75.4 264.2,75.3 265.5,75.1 266.7,75.0 268.0,74.9 269.3,74.7 270.6,74.6 271.8,74.5 273.1,74.4 274.4,74.1 275.7,73.8 277.0,73.6 278.2,73.4 279.5,73.4 280.8,73.3 282.1,73.1 283.4,72.9 284.6,72.8 285.9,72.7 287.2,72.5 288.5,72.3 289.8,72.2 291.0,72.1 292.3,72.0 293.6,71.7 294.9,71.6 296.2,71.4 297.4,71.2 298.7,71.1 300.0,71.0 301.3,71.0 302.6,70.8 303.8,70.7 305.1,70.5 306.4,70.4 307.7,70.2 309.0,70.1 310.2,70.0 311.5,69.8 312.8,69.7 314.1,69.5 315.4,69.3 316.6,69.1 317.9,69.0 319.2,68.9 320.5,68.8 321.8,68.7 323.0,68.6 324.3,68.5 325.6,68.4 326.9,68.2 328.2,68.0 329.4,67.9 330.7,67.8 332.0,67.7 333.3,67.5 334.5,67.4 335.8,67.2 337.1,67.1 338.4,67.0 339.7,66.8 340.9,66.7 342.2,66.5 343.5,66.5 344.8,66.4 346.1,66.3 347.3,66.2 348.6,66.0 349.9,65.9 351.2,65.9 352.5,65.8 353.7,65.5 355.0,65.3 356.3,69.4 357.6,68.6 358.9,67.0 360.1,66.4 361.4,65.7 362.7,64.8 364.0,64.3 365.3,64.0 366.5,63.4 367.8,62.5 369.1,61.8 370.4,61.6 371.7,61.3 372.9,61.0 374.2,60.6 375.5,60.1 376.8,59.6 378.1,59.4 379.3,58.9 380.6,58.7 381.9,58.4 383.2,58.2 384.5,58.0 385.7,57.8 387.0,57.3 388.3,57.0 389.6,56.6 390.9,56.0 392.1,55.7 393.4,55.5 394.7,55.3 396.0,55.1 397.3,54.8 398.5,54.4 399.8,54.2 401.1,53.3 402.4,52.7 403.6,52.4 404.9,52.2 406.2,51.9 407.5,51.5 408.8,51.1 410.0,50.6 411.3,50.3 412.6,50.0 413.9,49.7 415.2,49.3 416.4,49.1 417.7,49.0 419.0,48.8 420.3,48.6 421.6,48.4 422.8,48.2 424.1,48.0 425.4,47.8 426.7,47.6 428.0,47.4 429.2,47.2 430.5,47.0 431.8,46.9 433.1,46.7 434.4,46.5 435.6,46.4 436.9,46.3 438.2,46.1 439.5,46.0 440.8,45.8 442.0,45.7 443.3,45.5 444.6,45.3 445.9,45.2 447.2,45.0 448.4,44.8 449.7,44.7 451.0,44.6 452.3,44.5 453.6,44.3 454.8,44.2 456.1,44.1 457.4,44.0 458.7,43.8 460.0,43.6 461.2,43.4 462.5,43.2 463.8,43.1 465.1,42.9 466.4,42.6 467.6,42.5 468.9,42.3 470.2,42.1 471.5,41.9 472.7,41.6 474.0,41.4 475.3,41.2 476.6,41.0 477.9,40.7 479.1,40.6 480.4,40.5 481.7,40.4 483.0,40.3 484.3,40.1 485.5,39.9 486.8,39.8 488.1,39.6 489.4,39.4 490.7,39.2 491.9,38.9 493.2,38.8 494.5,38.5 495.8,38.3 497.1,38.2 498.3,38.1 499.6,38.0 500.9,37.8 502.2,37.7 503.5,37.4 504.7,37.3 506.0,37.1 507.3,36.9 508.6,36.8 509.9,36.6 511.1,36.5 512.4,36.4 513.7,36.3 515.0,36.2 516.3,36.0 517.5,36.0 518.8,35.8 520.1,35.6 521.4,35.4 522.7,35.3 523.9,35.2 525.2,35.0 526.5,34.9 527.8,34.8 529.1,34.7 530.3,34.6 531.6,34.4 532.9,34.2 534.2,34.0 535.5,33.8 536.7,33.5 538.0,33.4 539.3,33.4 540.6,33.3 541.8,33.1 543.1,33.1 544.4,33.0 545.7,32.9 547.0,32.8 548.2,32.7 549.5,32.5 550.8,32.4 552.1,32.2 553.4,32.0 554.6,31.9 555.9,31.8 557.2,31.6 558.5,31.5 559.8,31.4 561.0,31.3 562.3,31.1 563.6,31.0 564.9,30.9 566.2,30.6 567.4,30.4 568.7,30.1 570.0,30.0 570.0,30.0,120" />
  
  <!-- Linea principale -->
  <polyline fill="none" stroke="#0366d6" stroke-width="2.5" stroke-linecap="round" stroke-linejoin="round" points="30.0,120.0 31.3,119.5 32.6,119.0 33.8,118.5 35.1,118.4 36.4,118.1 37.7,117.6 39.0,117.2 40.2,116.9 41.5,116.3 42.8,116.0 44.1,115.7 45.4,115.6 46.6,115.3 47.9,114.9 49.2,114.5 50.5,114.2 51.8,113.9 53.0,113.8 54.3,113.5 55.6,113.2 56.9,112.9 58.2,112.8 59.4,112.5 60.7,111.6 62.0,111.3 63.3,111.0 64.5,110.6 65.8,110.3 67.1,110.0 68.4,109.8 69.7,109.6 70.9,109.4 72.2,108.9 73.5,108.5 74.8,108.3 76.1,107.9 77.3,107.9 78.6,107.8 79.9,107.6 81.2,107.3 82.5,107.1 83.7,107.0 85.0,106.7 86.3,106.2 87.6,106.1 88.9,106.0 90.1,105.8 91.4,105.4 92.7,105.1 94.0,104.7 95.3,104.4 96.5,104.0 97.8,104.0 99.1,103.7 100.4,103.4 101.7,103.0 102.9,102.7 104.2,102.6 105.5,102.4 106.8,102.2 108.1,101.8 109.3,101.4 110.6,101.1 111.9,100.7 113.2,100.6 114.5,100.4 115.7,100.3 117.0,100.0 118.3,99.8 119.6,99.7 120.9,99.5 122.1,99.4 123.4,99.2 124.7,99.1 126.0,99.0 127.3,98.9 128.5,98.5 129.8,98.3 131.1,98.2 132.4,98.1 133.6,98.0 134.9,98.0 136.2,104.3 137.5,103.7 138.8,103.1 140.0,102.5 141.3,100.8 142.6,99.6 143.9,98.3 145.2,97.9 146.4,97.3 147.7,96.4 149.0,95.5 150.3,94.8 151.6,94.5 152.8,94.3 154.1,93.6 155.4,93.1 156.7,92.8 158.0,92.4 159.2,92.2 160.5,92.1 161.8,91.7 163.1,91.2 164.4,90.7 165.6,90.3 166.9,89.8 168.2,89.6 169.5,89.5 170.8,89.1 172.0,88.7 173.3,88.3 174.6,88.1 175.9,87.9 177.2,87.8 178.4,87.6 179.7,87.3 181.0,87.1 182.3,86.9 183.6,86.7 184.8,86.5 186.1,86.3 187.4,86.2 188.7,86.0 190.0,85.9 191.2,85.5 192.5,85.3 193.8,85.0 195.1,84.8 196.4,84.7 197.6,84.5 198.9,84.4 200.2,84.2 201.5,83.8 202.7,83.5 204.0,83.1 205.3,83.0 206.6,82.9 207.9,82.7 209.1,82.5 210.4,82.3 211.7,82.1 213.0,81.8 214.3,81.6 215.5,81.5 216.8,81.4 218.1,81.3 219.4,81.1 220.7,80.9 221.9,80.8 223.2,80.5 224.5,80.4 225.8,80.3 227.1,80.2 228.3,80.1 229.6,79.9 230.9,79.7 232.2,79.4 233.5,79.3 234.7,79.1 236.0,78.9 237.3,78.8 238.6,78.7 239.9,78.4 241.1,78.1 242.4,78.0 243.7,77.7 245.0,77.4 246.3,77.3 247.5,77.2 248.8,77.1 250.1,76.9 251.4,76.8 252.7,76.6 253.9,76.5 255.2,76.3 256.5,76.2 257.8,76.0 259.1,75.9 260.3,75.8 261.6,75.7 262.9,75.4 264.2,75.3 265.5,75.1 266.7,75.0 268.0,74.9 269.3,74.7 270.6,74.6 271.8,74.5 273.1,74.4 274.4,74.1 275.7,73.8 277.0,73.6 278.2,73.4 279.5,73.4 280.8,73.3 282.1,73.1 283.4,72.9 284.6,72.8 285.9,72.7 287.2,72.5 288.5,72.3 289.8,72.2 291.0,72.1 292.3,72.0 293.6,71.7 294.9,71.6 296.2,71.4 297.4,71.2 298.7,71.1 300.0,71.0 301.3,71.0 302.6,70.8 303.8,70.7 305.1,70.5 306.4,70.4 307.7,70.2 309.0,70.1 310.2,70.0 311.5,69.8 312.8,69.7 314.1,69.5 315.4,69.3 316.6,69.1 317.9,69.0 319.2,68.9 320.5,68.8 321.8,68.7 323.0,68.6 324.3,68.5 325.6,68.4 326.9,68.2 328.2,68.0 329.4,67.9 330.7,67.8 332.0,67.7 333.3,67.5 334.5,67.4 335.8,67.2 337.1,67.1 338.4,67.0 339.7,66.8 340.9,66.7 342.2,66.5 343.5,66.5 344.8,66.4 346.1,66.3 347.3,66.2 348.6,66.0 349.9,65.9 351.2,65.9 352.5,65.8 353.7,65.5 355.0,65.3 356.3,69.4 357.6,68.6 358.9,67.0 360.1,66.4 361.4,65.7 362.7,64.8 364.0,64.3 365.3,64.0 366.5,63.4 367.8,62.5 369.1,61.8 370.4,61.6 371.7,61.3 372.9,61.0 374.2,60.6 375.5,60.1 376.8,59.6 378.1,59.4 379.3,58.9 380.6,58.7 381.9,58.4 383.2,58.2 384.5,58.0 385.7,57.8 387.0,57.3 388.3,57.0 389.6,56.6 390.9,56.0 392.1,55.7 393.4,55.5 394.7,55.3 396.0,55.1 397.3,54.8 398.5,54.4 399.8,54.2 401.1,53.3 402.4,52.7 403.6,52.4 404.9,52.2 406.2,51.9 407.5,51.5 408.8,51.1 410.0,50.6 411.3,50.3 412.6,50.0 413.9,49.7 415.2,49.3 416.4,49.1 417.7,49.0 419.0,48.8 420.3,48.6 421.6,48.4 422.8,48.2 424.1,48.0 425.4,47.8 426.7,47.6 428.0,47.4 429.2,47.2 430.5,47.0 431.8,46.9 433.1,46.7 434.4,46.5 435.6,46.4 436.9,46.3 438.2,46.1 439.5,46.0 440.8,45.8 442.0,45.7 443.3,45.5 444.6,45.3 445.9,45.2 447.2,45.0 448.4,44.8 449.7,44.7 451.0,44.6 452.3,44.5 453.6,44.3 454.8,44.2 456.1,44.1 457.4,44.0 458.7,43.8 460.0,43.6 461.2,43.4 462.5,43.2 463.8,43.1 465.1,42.9 466.4,42.6 467.6,42.5 468.9,42.3 470.2,42.1 471.5,41.9 472.7,41.6 474.0,41.4 475.3,41.2 476.6,41.0 477.9,40.7 479.1,40.6 480.4,40.5 481.7,40.4 483.0,40.3 484.3,40.1 485.5,39.9 486.8,39.8 488.1,39.6 489.4,39.4 490.7,39.2 491.9,38.9 493.2,38.8 494.5,38.5 495.8,38.3 497.1,38.2 498.3,38.1 499.6,38.0 500.9,37.8 502.2,37.7 503.5,37.4 504.7,37.3 506.0,37.1 507.3,36.9 508.6,36.8 509.9,36.6 511.1,36.5 512.4,36.4 513.7,36.3 515.0,36.2 516.3,36.0 517.5,36.0 518.8,35.8 520.1,35.6 521.4,35.4 522.7,35.3 523.9,35.2 525.2,35.0 526.5,34.9 527.8,34.8 529.1,34.7 530.3,34.6 531.6,34.4 532.9,34.2 534.2,34.0 535.5,33.8 536.7,33.5 538.0,33.4 539.3,33.4 540.6,33.3 541.8,33.1 543.1,33.1 544.4,33.0 545.7,32.9 547.0,32.8 548.2,32.7 549.5,32.5 550.8,32.4 552.1,32.2 553.4,32.0 554.6,31.9 555.9,31.8 557.2,31.6 558.5,31.5 559.8,31.4 561.0,31.3 562.3,31.1 563.6,31.0 564.9,30.9 566.2,30.6 567.4,30.4 568.7,30.1 570.0,30.0" />
  
  <!-- Punto finale luminoso -->
  <circle cx="570.0" cy="30.0" r="4" fill="#ffffff" stroke="#0366d6" stroke-width="2.5" />
</svg>