<svg width="600" height="150" viewBox="0 0 600 150" xmlns="http://www.w3.org/2000/svg">
  <defs>
    <filter id="shadow2" x="-2%" y="-2%" width="104%" height="108%">
      <feDropShadow dx="0" dy="2" stdDeviation="3" flood-opacity="0.1" />
    </filter>
    <linearGradient id="fillGrad" x1="0" y1="0" x2="0" y2="1">
      <stop offset="0%" stop-color="#0366d6" stop-opacity="0.3"/>
      <stop offset="100%" stop-color="#0366d6" stop-opacity="0.02"/>
    </linearGradient>
  </defs>
  <rect width="600" height="150" rx="12" fill="#ffffff" filter="url(#shadow2)" stroke="#e1e4e8" stroke-width="1"/>
  <text x="20" y="24" fill="#2b3137" font-family="-apple-system,BlinkMacSystemFont,'Segoe UI',Helvetica,Arial,sans-serif" font-size="14" font-weight="600">📈 Download Growth (Actual: 85.8k)</text>
  
  <!-- Area sotto la linea -->
  <polygon fill="url(#fillGrad)" points="30.0,120.0,120 30.0,120.0 31.4,119.5 32.9,118.9 34.3,118.4 35.7,118.3 37.2,118.0 38.6,117.4 40.1,117.0 41.5,116.7 42.9,116.0 44.4,115.7 45.8,115.4 47.2,115.2 48.7,114.9 50.1,114.5 51.5,114.1 53.0,113.7 54.4,113.5 55.9,113.3 57.3,113.0 58.7,112.7 60.2,112.4 61.6,112.2 63.0,112.0 64.5,111.0 65.9,110.7 67.3,110.3 68.8,109.9 70.2,109.5 71.6,109.2 73.1,109.0 74.5,108.8 76.0,108.5 77.4,108.0 78.8,107.6 80.3,107.3 81.7,107.0 83.1,106.9 84.6,106.8 86.0,106.7 87.4,106.3 88.9,106.1 90.3,106.0 91.8,105.6 93.2,105.1 94.6,105.0 96.1,104.9 97.5,104.7 98.9,104.2 100.4,103.9 101.8,103.5 103.2,103.2 104.7,102.8 106.1,102.7 107.6,102.5 109.0,102.1 110.4,101.7 111.9,101.4 113.3,101.2 114.7,101.0 116.2,100.8 117.6,100.4 119.0,100.0 120.5,99.6 121.9,99.2 123.4,99.0 124.8,98.9 126.2,98.8 127.7,98.5 129.1,98.3 130.5,98.1 132.0,97.9 133.4,97.8 134.8,97.6 136.3,97.4 137.7,97.3 139.1,97.2 140.6,96.8 142.0,96.6 143.5,96.5 144.9,96.4 146.3,96.3 147.8,96.3 149.2,103.1 150.6,102.4 152.1,101.8 153.5,101.2 154.9,99.3 156.4,98.0 157.8,96.7 159.3,96.2 160.7,95.6 162.1,94.6 163.6,93.6 165.0,92.8 166.4,92.5 167.9,92.3 169.3,91.5 170.7,91.0 172.2,90.6 173.6,90.2 175.1,90.0 176.5,89.9 177.9,89.6 179.4,88.9 180.8,88.5 182.2,88.0 183.7,87.5 185.1,87.3 186.5,87.1 188.0,86.6 189.4,86.3 190.9,85.9 192.3,85.6 193.7,85.4 195.2,85.3 196.6,85.1 198.0,84.8 199.5,84.5 200.9,84.3 202.3,84.1 203.8,83.9 205.2,83.7 206.6,83.5 208.1,83.4 209.5,83.2 211.0,82.9 212.4,82.6 213.8,82.3 215.3,82.1 216.7,81.9 218.1,81.8 219.6,81.6 221.0,81.5 222.4,81.0 223.9,80.6 225.3,80.2 226.8,80.1 228.2,80.0 229.6,79.8 231.1,79.6 232.5,79.4 233.9,79.1 235.4,78.8 236.8,78.6 238.2,78.5 239.7,78.4 241.1,78.2 242.6,78.1 244.0,77.9 245.4,77.7 246.9,77.5 248.3,77.3 249.7,77.2 251.2,77.1 252.6,77.0 254.0,76.7 255.5,76.5 256.9,76.3 258.4,76.1 259.8,75.9 261.2,75.7 262.7,75.6 264.1,75.5 265.5,75.2 267.0,74.9 268.4,74.7 269.8,74.5 271.3,74.1 272.7,74.0 274.1,73.9 275.6,73.8 277.0,73.6 278.5,73.4 279.9,73.2 281.3,73.1 282.8,72.9 284.2,72.8 285.6,72.6 287.1,72.5 288.5,72.4 289.9,72.2 291.4,71.9 292.8,71.8 294.3,71.6 295.7,71.5 297.1,71.4 298.6,71.2 300.0,71.1 301.4,71.0 302.9,70.8 304.3,70.5 305.7,70.2 307.2,70.0 308.6,69.8 310.1,69.8 311.5,69.7 312.9,69.5 314.4,69.2 315.8,69.1 317.2,69.0 318.7,68.8 320.1,68.6 321.5,68.4 323.0,68.3 324.4,68.2 325.9,68.0 327.3,67.8 328.7,67.6 330.2,67.4 331.6,67.3 333.0,67.2 334.5,67.1 335.9,67.0 337.3,66.8 338.8,66.7 340.2,66.5 341.6,66.3 343.1,66.2 344.5,66.1 346.0,65.9 347.4,65.8 348.8,65.6 350.3,65.4 351.7,65.2 353.1,65.0 354.6,64.9 356.0,64.8 357.4,64.7 358.9,64.6 360.3,64.5 361.8,64.4 363.2,64.1 364.6,64.0 366.1,63.8 367.5,63.7 368.9,63.6 370.4,63.4 371.8,63.3 373.2,63.1 374.7,63.0 376.1,62.9 377.6,62.7 379.0,62.5 380.4,62.4 381.9,62.3 383.3,62.2 384.7,62.1 386.2,62.0 387.6,61.8 389.0,61.7 390.5,61.7 391.9,61.5 393.4,61.2 394.8,61.0 396.2,65.4 397.7,64.6 399.1,62.9 400.5,62.2 402.0,61.5 403.4,60.5 404.8,60.0 406.3,59.6 407.7,59.0 409.1,58.1 410.6,57.3 412.0,57.1 413.5,56.7 414.9,56.5 416.3,56.0 417.8,55.5 419.2,54.9 420.6,54.7 422.1,54.2 423.5,54.0 424.9,53.6 426.4,53.4 427.8,53.1 429.3,52.9 430.7,52.4 432.1,52.1 433.6,51.7 435.0,51.1 436.4,50.7 437.9,50.5 439.3,50.3 440.7,50.1 442.2,49.7 443.6,49.3 445.1,49.0 446.5,48.1 447.9,47.4 449.4,47.1 450.8,46.9 452.2,46.6 453.7,46.2 455.1,45.8 456.5,45.2 458.0,44.9 459.4,44.5 460.9,44.2 462.3,43.8 463.7,43.6 465.2,43.4 466.6,43.3 468.0,43.1 469.5,42.8 470.9,42.6 472.3,42.4 473.8,42.2 475.2,42.0 476.6,41.7 478.1,41.6 479.5,41.4 481.0,41.2 482.4,41.0 483.8,40.8 485.3,40.7 486.7,40.5 488.1,40.4 489.6,40.3 491.0,40.1 492.4,39.9 493.9,39.7 495.3,39.5 496.8,39.3 498.2,39.2 499.6,39.0 501.1,38.9 502.5,38.8 503.9,38.6 505.4,38.5 506.8,38.3 508.2,38.2 509.7,38.1 511.1,37.9 512.6,37.7 514.0,37.5 515.4,37.2 516.9,37.1 518.3,36.9 519.7,36.6 521.2,36.5 522.6,36.2 524.0,36.0 525.5,35.8 526.9,35.5 528.4,35.3 529.8,35.0 531.2,34.8 532.7,34.6 534.1,34.5 535.5,34.3 537.0,34.2 538.4,34.1 539.8,33.9 541.3,33.7 542.7,33.6 544.1,33.4 545.6,33.1 547.0,32.9 548.5,32.6 549.9,32.4 551.3,32.1 552.8,32.0 554.2,31.8 555.6,31.7 557.1,31.6 558.5,31.4 559.9,31.3 561.4,31.0 562.8,30.9 564.3,30.6 565.7,30.5 567.1,30.3 568.6,30.2 570.0,30.0 570.0,30.0,120" />
  
  <!-- Linea principale -->
  <polyline fill="none" stroke="#0366d6" stroke-width="2.5" stroke-linecap="round" stroke-linejoin="round" points="30.0,120.0 31.4,119.5 32.9,118.9 34.3,118.4 35.7,118.3 37.2,118.0 38.6,117.4 40.1,117.0 41.5,116.7 42.9,116.0 44.4,115.7 45.8,115.4 47.2,115.2 48.7,114.9 50.1,114.5 51.5,114.1 53.0,113.7 54.4,113.5 55.9,113.3 57.3,113.0 58.7,112.7 60.2,112.4 61.6,112.2 63.0,112.0 64.5,111.0 65.9,110.7 67.3,110.3 68.8,109.9 70.2,109.5 71.6,109.2 73.1,109.0 74.5,108.8 76.0,108.5 77.4,108.0 78.8,107.6 80.3,107.3 81.7,107.0 83.1,106.9 84.6,106.8 86.0,106.7 87.4,106.3 88.9,106.1 90.3,106.0 91.8,105.6 93.2,105.1 94.6,105.0 96.1,104.9 97.5,104.7 98.9,104.2 100.4,103.9 101.8,103.5 103.2,103.2 104.7,102.8 106.1,102.7 107.6,102.5 109.0,102.1 110.4,101.7 111.9,101.4 113.3,101.2 114.7,101.0 116.2,100.8 117.6,100.4 119.0,100.0 120.5,99.6 121.9,99.2 123.4,99.0 124.8,98.9 126.2,98.8 127.7,98.5 129.1,98.3 130.5,98.1 132.0,97.9 133.4,97.8 134.8,97.6 136.3,97.4 137.7,97.3 139.1,97.2 140.6,96.8 142.0,96.6 143.5,96.5 144.9,96.4 146.3,96.3 147.8,96.3 149.2,103.1 150.6,102.4 152.1,101.8 153.5,101.2 154.9,99.3 156.4,98.0 157.8,96.7 159.3,96.2 160.7,95.6 162.1,94.6 163.6,93.6 165.0,92.8 166.4,92.5 167.9,92.3 169.3,91.5 170.7,91.0 172.2,90.6 173.6,90.2 175.1,90.0 176.5,89.9 177.9,89.6 179.4,88.9 180.8,88.5 182.2,88.0 183.7,87.5 185.1,87.3 186.5,87.1 188.0,86.6 189.4,86.3 190.9,85.9 192.3,85.6 193.7,85.4 195.2,85.3 196.6,85.1 198.0,84.8 199.5,84.5 200.9,84.3 202.3,84.1 203.8,83.9 205.2,83.7 206.6,83.5 208.1,83.4 209.5,83.2 211.0,82.9 212.4,82.6 213.8,82.3 215.3,82.1 216.7,81.9 218.1,81.8 219.6,81.6 221.0,81.5 222.4,81.0 223.9,80.6 225.3,80.2 226.8,80.1 228.2,80.0 229.6,79.8 231.1,79.6 232.5,79.4 233.9,79.1 235.4,78.8 236.8,78.6 238.2,78.5 239.7,78.4 241.1,78.2 242.6,78.1 244.0,77.9 245.4,77.7 246.9,77.5 248.3,77.3 249.7,77.2 251.2,77.1 252.6,77.0 254.0,76.7 255.5,76.5 256.9,76.3 258.4,76.1 259.8,75.9 261.2,75.7 262.7,75.6 264.1,75.5 265.5,75.2 267.0,74.9 268.4,74.7 269.8,74.5 271.3,74.1 272.7,74.0 274.1,73.9 275.6,73.8 277.0,73.6 278.5,73.4 279.9,73.2 281.3,73.1 282.8,72.9 284.2,72.8 285.6,72.6 287.1,72.5 288.5,72.4 289.9,72.2 291.4,71.9 292.8,71.8 294.3,71.6 295.7,71.5 297.1,71.4 298.6,71.2 300.0,71.1 301.4,71.0 302.9,70.8 304.3,70.5 305.7,70.2 307.2,70.0 308.6,69.8 310.1,69.8 311.5,69.7 312.9,69.5 314.4,69.2 315.8,69.1 317.2,69.0 318.7,68.8 320.1,68.6 321.5,68.4 323.0,68.3 324.4,68.2 325.9,68.0 327.3,67.8 328.7,67.6 330.2,67.4 331.6,67.3 333.0,67.2 334.5,67.1 335.9,67.0 337.3,66.8 338.8,66.7 340.2,66.5 341.6,66.3 343.1,66.2 344.5,66.1 346.0,65.9 347.4,65.8 348.8,65.6 350.3,65.4 351.7,65.2 353.1,65.0 354.6,64.9 356.0,64.8 357.4,64.7 358.9,64.6 360.3,64.5 361.8,64.4 363.2,64.1 364.6,64.0 366.1,63.8 367.5,63.7 368.9,63.6 370.4,63.4 371.8,63.3 373.2,63.1 374.7,63.0 376.1,62.9 377.6,62.7 379.0,62.5 380.4,62.4 381.9,62.3 383.3,62.2 384.7,62.1 386.2,62.0 387.6,61.8 389.0,61.7 390.5,61.7 391.9,61.5 393.4,61.2 394.8,61.0 396.2,65.4 397.7,64.6 399.1,62.9 400.5,62.2 402.0,61.5 403.4,60.5 404.8,60.0 406.3,59.6 407.7,59.0 409.1,58.1 410.6,57.3 412.0,57.1 413.5,56.7 414.9,56.5 416.3,56.0 417.8,55.5 419.2,54.9 420.6,54.7 422.1,54.2 423.5,54.0 424.9,53.6 426.4,53.4 427.8,53.1 429.3,52.9 430.7,52.4 432.1,52.1 433.6,51.7 435.0,51.1 436.4,50.7 437.9,50.5 439.3,50.3 440.7,50.1 442.2,49.7 443.6,49.3 445.1,49.0 446.5,48.1 447.9,47.4 449.4,47.1 450.8,46.9 452.2,46.6 453.7,46.2 455.1,45.8 456.5,45.2 458.0,44.9 459.4,44.5 460.9,44.2 462.3,43.8 463.7,43.6 465.2,43.4 466.6,43.3 468.0,43.1 469.5,42.8 470.9,42.6 472.3,42.4 473.8,42.2 475.2,42.0 476.6,41.7 478.1,41.6 479.5,41.4 481.0,41.2 482.4,41.0 483.8,40.8 485.3,40.7 486.7,40.5 488.1,40.4 489.6,40.3 491.0,40.1 492.4,39.9 493.9,39.7 495.3,39.5 496.8,39.3 498.2,39.2 499.6,39.0 501.1,38.9 502.5,38.8 503.9,38.6 505.4,38.5 506.8,38.3 508.2,38.2 509.7,38.1 511.1,37.9 512.6,37.7 514.0,37.5 515.4,37.2 516.9,37.1 518.3,36.9 519.7,36.6 521.2,36.5 522.6,36.2 524.0,36.0 525.5,35.8 526.9,35.5 528.4,35.3 529.8,35.0 531.2,34.8 532.7,34.6 534.1,34.5 535.5,34.3 537.0,34.2 538.4,34.1 539.8,33.9 541.3,33.7 542.7,33.6 544.1,33.4 545.6,33.1 547.0,32.9 548.5,32.6 549.9,32.4 551.3,32.1 552.8,32.0 554.2,31.8 555.6,31.7 557.1,31.6 558.5,31.4 559.9,31.3 561.4,31.0 562.8,30.9 564.3,30.6 565.7,30.5 567.1,30.3 568.6,30.2 570.0,30.0" />
  
  <!-- Punto finale luminoso -->
  <circle cx="570.0" cy="30.0" r="4" fill="#ffffff" stroke="#0366d6" stroke-width="2.5" />
</svg>