<svg width="600" height="150" viewBox="0 0 600 150" xmlns="http://www.w3.org/2000/svg">
  <defs>
    <filter id="shadow2" x="-2%" y="-2%" width="104%" height="108%">
      <feDropShadow dx="0" dy="2" stdDeviation="3" flood-opacity="0.1" />
    </filter>
    <linearGradient id="fillGrad" x1="0" y1="0" x2="0" y2="1">
      <stop offset="0%" stop-color="#0366d6" stop-opacity="0.3"/>
      <stop offset="100%" stop-color="#0366d6" stop-opacity="0.02"/>
    </linearGradient>
  </defs>
  <rect width="600" height="150" rx="12" fill="#ffffff" filter="url(#shadow2)" stroke="#e1e4e8" stroke-width="1"/>
  <text x="20" y="24" fill="#2b3137" font-family="-apple-system,BlinkMacSystemFont,'Segoe UI',Helvetica,Arial,sans-serif" font-size="14" font-weight="600">📈 Download Growth (Actual: 83.7k)</text>
  
  <!-- Area sotto la linea -->
  <polygon fill="url(#fillGrad)" points="30.0,120.0,120 30.0,120.0 31.7,119.4 33.4,118.8 35.0,118.2 36.7,118.0 38.4,117.7 40.1,117.0 41.8,116.6 43.5,116.3 45.1,115.6 46.8,115.2 48.5,114.8 50.2,114.6 51.9,114.3 53.6,113.8 55.2,113.3 56.9,112.9 58.6,112.6 60.3,112.5 62.0,112.1 63.6,111.8 65.3,111.4 67.0,111.3 68.7,110.9 70.4,109.8 72.1,109.5 73.7,109.0 75.4,108.6 77.1,108.2 78.8,107.8 80.5,107.6 82.1,107.4 83.8,107.1 85.5,106.5 87.2,106.1 88.9,105.7 90.6,105.4 92.2,105.3 93.9,105.2 95.6,105.0 97.3,104.6 99.0,104.4 100.7,104.2 102.3,103.8 104.0,103.2 105.7,103.1 107.4,103.0 109.1,102.7 110.7,102.2 112.4,101.9 114.1,101.4 115.8,101.1 117.5,100.6 119.2,100.5 120.8,100.3 122.5,99.8 124.2,99.4 125.9,99.0 127.6,98.9 129.3,98.6 130.9,98.4 132.6,97.9 134.3,97.4 136.0,97.0 137.7,96.6 139.3,96.4 141.0,96.3 142.7,96.1 144.4,95.7 146.1,95.5 147.8,95.3 149.4,95.1 151.1,95.0 152.8,94.7 154.5,94.6 156.2,94.5 157.9,94.4 159.5,93.9 161.2,93.6 162.9,93.6 164.6,93.4 166.3,93.3 167.9,93.3 169.6,100.9 171.3,100.2 173.0,99.5 174.7,98.8 176.4,96.7 178.0,95.3 179.7,93.7 181.4,93.1 183.1,92.5 184.8,91.4 186.4,90.3 188.1,89.4 189.8,89.1 191.5,88.8 193.2,87.9 194.9,87.3 196.5,86.9 198.2,86.4 199.9,86.2 201.6,86.2 203.3,85.7 205.0,85.0 206.6,84.5 208.3,84.0 210.0,83.4 211.7,83.1 213.4,82.9 215.0,82.4 216.7,82.0 218.4,81.6 220.1,81.2 221.8,81.1 223.5,81.0 225.1,80.7 226.8,80.3 228.5,80.1 230.2,79.8 231.9,79.6 233.6,79.3 235.2,79.1 236.9,78.9 238.6,78.8 240.3,78.6 242.0,78.2 243.6,77.9 245.3,77.5 247.0,77.3 248.7,77.1 250.4,77.0 252.1,76.8 253.7,76.6 255.4,76.0 257.1,75.7 258.8,75.2 260.5,75.0 262.1,75.0 263.8,74.8 265.5,74.5 267.2,74.2 268.9,74.0 270.6,73.6 272.2,73.4 273.9,73.3 275.6,73.1 277.3,73.0 279.0,72.8 280.7,72.6 282.3,72.4 284.0,72.1 285.7,71.9 287.4,71.8 289.1,71.7 290.7,71.6 292.4,71.3 294.1,71.0 295.8,70.8 297.5,70.5 299.2,70.3 300.8,70.1 302.5,70.0 304.2,69.9 305.9,69.5 307.6,69.2 309.3,69.0 310.9,68.7 312.6,68.3 314.3,68.2 316.0,68.1 317.7,68.0 319.3,67.7 321.0,67.6 322.7,67.3 324.4,67.2 326.1,67.0 327.8,66.8 329.4,66.6 331.1,66.5 332.8,66.4 334.5,66.2 336.2,65.9 337.9,65.7 339.5,65.5 341.2,65.4 342.9,65.2 344.6,65.0 346.3,64.9 347.9,64.8 349.6,64.6 351.3,64.3 353.0,63.9 354.7,63.7 356.4,63.5 358.0,63.4 359.7,63.3 361.4,63.1 363.1,62.8 364.8,62.7 366.4,62.6 368.1,62.3 369.8,62.2 371.5,61.9 373.2,61.8 374.9,61.7 376.5,61.4 378.2,61.2 379.9,61.0 381.6,60.7 383.3,60.6 385.0,60.6 386.6,60.5 388.3,60.3 390.0,60.1 391.7,59.9 393.4,59.7 395.0,59.5 396.7,59.4 398.4,59.3 400.1,59.1 401.8,59.0 403.5,58.7 405.1,58.5 406.8,58.3 408.5,58.1 410.2,58.0 411.9,57.8 413.6,57.7 415.2,57.6 416.9,57.5 418.6,57.4 420.3,57.1 422.0,56.9 423.6,56.7 425.3,56.6 427.0,56.5 428.7,56.3 430.4,56.1 432.1,56.0 433.7,55.8 435.4,55.7 437.1,55.5 438.8,55.3 440.5,55.1 442.1,55.0 443.8,54.9 445.5,54.8 447.2,54.7 448.9,54.5 450.6,54.4 452.2,54.3 453.9,54.2 455.6,53.8 457.3,53.6 459.0,58.5 460.7,57.6 462.3,55.7 464.0,55.0 465.7,54.1 467.4,53.0 469.1,52.4 470.7,52.0 472.4,51.3 474.1,50.2 475.8,49.4 477.5,49.2 479.2,48.8 480.8,48.4 482.5,47.9 484.2,47.3 485.9,46.7 487.6,46.5 489.3,45.9 490.9,45.6 492.6,45.2 494.3,45.0 496.0,44.7 497.7,44.4 499.3,43.9 501.0,43.5 502.7,43.0 504.4,42.4 506.1,41.9 507.8,41.7 509.4,41.5 511.1,41.2 512.8,40.8 514.5,40.4 516.2,40.1 517.9,39.1 519.5,38.3 521.2,37.9 522.9,37.7 524.6,37.4 526.3,36.8 527.9,36.4 529.6,35.8 531.3,35.4 533.0,35.0 534.7,34.7 536.4,34.2 538.0,34.0 539.7,33.8 541.4,33.6 543.1,33.4 544.8,33.1 546.4,32.9 548.1,32.6 549.8,32.4 551.5,32.2 553.2,31.9 554.9,31.7 556.5,31.4 558.2,31.2 559.9,31.0 561.6,30.8 563.3,30.7 565.0,30.5 566.6,30.3 568.3,30.2 570.0,30.0 570.0,30.0,120" />
  
  <!-- Linea principale -->
  <polyline fill="none" stroke="#0366d6" stroke-width="2.5" stroke-linecap="round" stroke-linejoin="round" points="30.0,120.0 31.7,119.4 33.4,118.8 35.0,118.2 36.7,118.0 38.4,117.7 40.1,117.0 41.8,116.6 43.5,116.3 45.1,115.6 46.8,115.2 48.5,114.8 50.2,114.6 51.9,114.3 53.6,113.8 55.2,113.3 56.9,112.9 58.6,112.6 60.3,112.5 62.0,112.1 63.6,111.8 65.3,111.4 67.0,111.3 68.7,110.9 70.4,109.8 72.1,109.5 73.7,109.0 75.4,108.6 77.1,108.2 78.8,107.8 80.5,107.6 82.1,107.4 83.8,107.1 85.5,106.5 87.2,106.1 88.9,105.7 90.6,105.4 92.2,105.3 93.9,105.2 95.6,105.0 97.3,104.6 99.0,104.4 100.7,104.2 102.3,103.8 104.0,103.2 105.7,103.1 107.4,103.0 109.1,102.7 110.7,102.2 112.4,101.9 114.1,101.4 115.8,101.1 117.5,100.6 119.2,100.5 120.8,100.3 122.5,99.8 124.2,99.4 125.9,99.0 127.6,98.9 129.3,98.6 130.9,98.4 132.6,97.9 134.3,97.4 136.0,97.0 137.7,96.6 139.3,96.4 141.0,96.3 142.7,96.1 144.4,95.7 146.1,95.5 147.8,95.3 149.4,95.1 151.1,95.0 152.8,94.7 154.5,94.6 156.2,94.5 157.9,94.4 159.5,93.9 161.2,93.6 162.9,93.6 164.6,93.4 166.3,93.3 167.9,93.3 169.6,100.9 171.3,100.2 173.0,99.5 174.7,98.8 176.4,96.7 178.0,95.3 179.7,93.7 181.4,93.1 183.1,92.5 184.8,91.4 186.4,90.3 188.1,89.4 189.8,89.1 191.5,88.8 193.2,87.9 194.9,87.3 196.5,86.9 198.2,86.4 199.9,86.2 201.6,86.2 203.3,85.7 205.0,85.0 206.6,84.5 208.3,84.0 210.0,83.4 211.7,83.1 213.4,82.9 215.0,82.4 216.7,82.0 218.4,81.6 220.1,81.2 221.8,81.1 223.5,81.0 225.1,80.7 226.8,80.3 228.5,80.1 230.2,79.8 231.9,79.6 233.6,79.3 235.2,79.1 236.9,78.9 238.6,78.8 240.3,78.6 242.0,78.2 243.6,77.9 245.3,77.5 247.0,77.3 248.7,77.1 250.4,77.0 252.1,76.8 253.7,76.6 255.4,76.0 257.1,75.7 258.8,75.2 260.5,75.0 262.1,75.0 263.8,74.8 265.5,74.5 267.2,74.2 268.9,74.0 270.6,73.6 272.2,73.4 273.9,73.3 275.6,73.1 277.3,73.0 279.0,72.8 280.7,72.6 282.3,72.4 284.0,72.1 285.7,71.9 287.4,71.8 289.1,71.7 290.7,71.6 292.4,71.3 294.1,71.0 295.8,70.8 297.5,70.5 299.2,70.3 300.8,70.1 302.5,70.0 304.2,69.9 305.9,69.5 307.6,69.2 309.3,69.0 310.9,68.7 312.6,68.3 314.3,68.2 316.0,68.1 317.7,68.0 319.3,67.7 321.0,67.6 322.7,67.3 324.4,67.2 326.1,67.0 327.8,66.8 329.4,66.6 331.1,66.5 332.8,66.4 334.5,66.2 336.2,65.9 337.9,65.7 339.5,65.5 341.2,65.4 342.9,65.2 344.6,65.0 346.3,64.9 347.9,64.8 349.6,64.6 351.3,64.3 353.0,63.9 354.7,63.7 356.4,63.5 358.0,63.4 359.7,63.3 361.4,63.1 363.1,62.8 364.8,62.7 366.4,62.6 368.1,62.3 369.8,62.2 371.5,61.9 373.2,61.8 374.9,61.7 376.5,61.4 378.2,61.2 379.9,61.0 381.6,60.7 383.3,60.6 385.0,60.6 386.6,60.5 388.3,60.3 390.0,60.1 391.7,59.9 393.4,59.7 395.0,59.5 396.7,59.4 398.4,59.3 400.1,59.1 401.8,59.0 403.5,58.7 405.1,58.5 406.8,58.3 408.5,58.1 410.2,58.0 411.9,57.8 413.6,57.7 415.2,57.6 416.9,57.5 418.6,57.4 420.3,57.1 422.0,56.9 423.6,56.7 425.3,56.6 427.0,56.5 428.7,56.3 430.4,56.1 432.1,56.0 433.7,55.8 435.4,55.7 437.1,55.5 438.8,55.3 440.5,55.1 442.1,55.0 443.8,54.9 445.5,54.8 447.2,54.7 448.9,54.5 450.6,54.4 452.2,54.3 453.9,54.2 455.6,53.8 457.3,53.6 459.0,58.5 460.7,57.6 462.3,55.7 464.0,55.0 465.7,54.1 467.4,53.0 469.1,52.4 470.7,52.0 472.4,51.3 474.1,50.2 475.8,49.4 477.5,49.2 479.2,48.8 480.8,48.4 482.5,47.9 484.2,47.3 485.9,46.7 487.6,46.5 489.3,45.9 490.9,45.6 492.6,45.2 494.3,45.0 496.0,44.7 497.7,44.4 499.3,43.9 501.0,43.5 502.7,43.0 504.4,42.4 506.1,41.9 507.8,41.7 509.4,41.5 511.1,41.2 512.8,40.8 514.5,40.4 516.2,40.1 517.9,39.1 519.5,38.3 521.2,37.9 522.9,37.7 524.6,37.4 526.3,36.8 527.9,36.4 529.6,35.8 531.3,35.4 533.0,35.0 534.7,34.7 536.4,34.2 538.0,34.0 539.7,33.8 541.4,33.6 543.1,33.4 544.8,33.1 546.4,32.9 548.1,32.6 549.8,32.4 551.5,32.2 553.2,31.9 554.9,31.7 556.5,31.4 558.2,31.2 559.9,31.0 561.6,30.8 563.3,30.7 565.0,30.5 566.6,30.3 568.3,30.2 570.0,30.0" />
  
  <!-- Punto finale luminoso -->
  <circle cx="570.0" cy="30.0" r="4" fill="#ffffff" stroke="#0366d6" stroke-width="2.5" />
</svg>