<svg width="600" height="150" viewBox="0 0 600 150" xmlns="http://www.w3.org/2000/svg">
  <defs>
    <filter id="shadow2" x="-2%" y="-2%" width="104%" height="108%">
      <feDropShadow dx="0" dy="2" stdDeviation="3" flood-opacity="0.1" />
    </filter>
    <linearGradient id="fillGrad" x1="0" y1="0" x2="0" y2="1">
      <stop offset="0%" stop-color="#0366d6" stop-opacity="0.3"/>
      <stop offset="100%" stop-color="#0366d6" stop-opacity="0.02"/>
    </linearGradient>
  </defs>
  <rect width="600" height="150" rx="12" fill="#ffffff" filter="url(#shadow2)" stroke="#e1e4e8" stroke-width="1"/>
  <text x="20" y="24" fill="#2b3137" font-family="-apple-system,BlinkMacSystemFont,'Segoe UI',Helvetica,Arial,sans-serif" font-size="14" font-weight="600">📈 Download Growth (Actual: 85.9k)</text>
  
  <!-- Area sotto la linea -->
  <polygon fill="url(#fillGrad)" points="30.0,120.0,120 30.0,120.0 31.4,119.5 32.9,118.9 34.3,118.4 35.7,118.3 37.1,118.0 38.6,117.4 40.0,117.0 41.4,116.7 42.9,116.1 44.3,115.7 45.7,115.4 47.1,115.2 48.6,114.9 50.0,114.5 51.4,114.1 52.9,113.7 54.3,113.5 55.7,113.3 57.1,113.0 58.6,112.7 60.0,112.4 61.4,112.3 62.9,112.0 64.3,111.0 65.7,110.7 67.1,110.3 68.6,109.9 70.0,109.5 71.4,109.2 72.9,109.0 74.3,108.8 75.7,108.6 77.1,108.1 78.6,107.6 80.0,107.4 81.4,107.0 82.9,106.9 84.3,106.8 85.7,106.7 87.1,106.4 88.6,106.2 90.0,106.0 91.4,105.7 92.9,105.1 94.3,105.0 95.7,104.9 97.1,104.7 98.6,104.3 100.0,104.0 101.4,103.5 102.9,103.2 104.3,102.8 105.7,102.7 107.1,102.5 108.6,102.1 110.0,101.7 111.4,101.4 112.9,101.3 114.3,101.1 115.7,100.9 117.1,100.4 118.6,100.0 120.0,99.6 121.4,99.3 122.9,99.1 124.3,99.0 125.7,98.8 127.1,98.5 128.6,98.3 130.0,98.1 131.4,98.0 132.9,97.8 134.3,97.6 135.7,97.5 137.1,97.4 138.6,97.3 140.0,96.9 141.4,96.6 142.9,96.6 144.3,96.4 145.7,96.3 147.1,96.3 148.6,103.1 150.0,102.4 151.4,101.8 152.9,101.2 154.3,99.4 155.7,98.1 157.1,96.7 158.6,96.2 160.0,95.6 161.4,94.7 162.9,93.6 164.3,92.9 165.7,92.6 167.1,92.3 168.6,91.6 170.0,91.0 171.4,90.7 172.9,90.3 174.3,90.1 175.7,90.0 177.1,89.6 178.6,89.0 180.0,88.5 181.4,88.1 182.9,87.6 184.3,87.3 185.7,87.1 187.1,86.7 188.6,86.3 190.0,85.9 191.4,85.6 192.9,85.5 194.3,85.4 195.7,85.2 197.1,84.8 198.6,84.6 200.0,84.4 201.4,84.2 202.9,84.0 204.3,83.8 205.7,83.6 207.1,83.4 208.6,83.3 210.0,82.9 211.4,82.7 212.9,82.4 214.3,82.2 215.7,82.0 217.1,81.8 218.6,81.7 220.0,81.5 221.4,81.0 222.9,80.7 224.3,80.3 225.7,80.1 227.1,80.1 228.6,79.9 230.0,79.7 231.4,79.4 232.9,79.2 234.3,78.9 235.7,78.7 237.1,78.6 238.6,78.5 240.0,78.3 241.4,78.2 242.9,78.0 244.3,77.8 245.7,77.5 247.1,77.4 248.6,77.3 250.0,77.2 251.4,77.1 252.9,76.8 254.3,76.6 255.7,76.4 257.1,76.2 258.6,75.9 260.0,75.8 261.4,75.7 262.9,75.6 264.3,75.2 265.7,75.0 267.1,74.8 268.6,74.5 270.0,74.2 271.4,74.1 272.9,74.0 274.3,73.9 275.7,73.7 277.1,73.5 278.6,73.3 280.0,73.2 281.4,73.0 282.9,72.9 284.3,72.7 285.7,72.6 287.1,72.5 288.6,72.3 290.0,72.0 291.4,71.9 292.9,71.7 294.3,71.6 295.7,71.5 297.1,71.3 298.6,71.2 300.0,71.1 301.4,70.9 302.9,70.6 304.3,70.3 305.7,70.1 307.1,69.9 308.6,69.9 310.0,69.8 311.4,69.6 312.9,69.3 314.3,69.2 315.7,69.1 317.1,68.9 318.6,68.7 320.0,68.5 321.4,68.4 322.9,68.3 324.3,68.1 325.7,67.9 327.1,67.7 328.6,67.5 330.0,67.4 331.4,67.3 332.9,67.2 334.3,67.1 335.7,66.9 337.1,66.8 338.6,66.6 340.0,66.4 341.4,66.3 342.9,66.2 344.3,66.0 345.7,65.9 347.1,65.7 348.6,65.5 350.0,65.3 351.4,65.1 352.9,65.0 354.3,64.9 355.7,64.8 357.1,64.7 358.6,64.6 360.0,64.5 361.4,64.2 362.9,64.1 364.3,63.9 365.7,63.8 367.1,63.7 368.6,63.5 370.0,63.4 371.4,63.2 372.9,63.1 374.3,63.0 375.7,62.8 377.1,62.7 378.6,62.5 380.0,62.4 381.4,62.3 382.9,62.2 384.3,62.1 385.7,61.9 387.1,61.8 388.6,61.8 390.0,61.6 391.4,61.3 392.9,61.1 394.3,65.5 395.7,64.7 397.1,63.0 398.6,62.4 400.0,61.6 401.4,60.6 402.9,60.1 404.3,59.8 405.7,59.1 407.1,58.2 408.6,57.4 410.0,57.2 411.4,56.9 412.9,56.6 414.3,56.1 415.7,55.6 417.1,55.1 418.6,54.8 420.0,54.3 421.4,54.1 422.9,53.7 424.3,53.5 425.7,53.3 427.1,53.0 428.6,52.5 430.0,52.2 431.4,51.8 432.9,51.2 434.3,50.8 435.7,50.6 437.1,50.4 438.6,50.2 440.0,49.8 441.4,49.5 442.9,49.2 444.3,48.3 445.7,47.6 447.1,47.2 448.6,47.1 450.0,46.8 451.4,46.3 452.9,45.9 454.3,45.3 455.7,45.0 457.1,44.7 458.6,44.4 460.0,44.0 461.4,43.7 462.9,43.6 464.3,43.4 465.7,43.2 467.1,42.9 468.6,42.8 470.0,42.5 471.4,42.3 472.9,42.2 474.3,41.9 475.7,41.7 477.1,41.5 478.6,41.3 480.0,41.1 481.4,41.0 482.9,40.8 484.3,40.7 485.7,40.5 487.1,40.4 488.6,40.2 490.0,40.1 491.4,39.9 492.9,39.7 494.3,39.5 495.7,39.4 497.1,39.1 498.6,39.0 500.0,38.9 501.4,38.8 502.9,38.6 504.3,38.5 505.7,38.4 507.1,38.2 508.6,38.0 510.0,37.9 511.4,37.6 512.9,37.4 514.3,37.2 515.7,37.0 517.1,36.8 518.6,36.6 520.0,36.4 521.4,36.2 522.9,35.9 524.3,35.7 525.7,35.5 527.1,35.2 528.6,35.0 530.0,34.7 531.4,34.6 532.9,34.5 534.3,34.4 535.7,34.2 537.1,34.1 538.6,33.9 540.0,33.7 541.4,33.5 542.9,33.3 544.3,33.1 545.7,32.8 547.1,32.6 548.6,32.3 550.0,32.2 551.4,32.0 552.9,31.9 554.3,31.8 555.7,31.6 557.1,31.4 558.6,31.2 560.0,31.1 561.4,30.8 562.9,30.6 564.3,30.5 565.7,30.3 567.1,30.2 568.6,30.1 570.0,30.0 570.0,30.0,120" />
  
  <!-- Linea principale -->
  <polyline fill="none" stroke="#0366d6" stroke-width="2.5" stroke-linecap="round" stroke-linejoin="round" points="30.0,120.0 31.4,119.5 32.9,118.9 34.3,118.4 35.7,118.3 37.1,118.0 38.6,117.4 40.0,117.0 41.4,116.7 42.9,116.1 44.3,115.7 45.7,115.4 47.1,115.2 48.6,114.9 50.0,114.5 51.4,114.1 52.9,113.7 54.3,113.5 55.7,113.3 57.1,113.0 58.6,112.7 60.0,112.4 61.4,112.3 62.9,112.0 64.3,111.0 65.7,110.7 67.1,110.3 68.6,109.9 70.0,109.5 71.4,109.2 72.9,109.0 74.3,108.8 75.7,108.6 77.1,108.1 78.6,107.6 80.0,107.4 81.4,107.0 82.9,106.9 84.3,106.8 85.7,106.7 87.1,106.4 88.6,106.2 90.0,106.0 91.4,105.7 92.9,105.1 94.3,105.0 95.7,104.9 97.1,104.7 98.6,104.3 100.0,104.0 101.4,103.5 102.9,103.2 104.3,102.8 105.7,102.7 107.1,102.5 108.6,102.1 110.0,101.7 111.4,101.4 112.9,101.3 114.3,101.1 115.7,100.9 117.1,100.4 118.6,100.0 120.0,99.6 121.4,99.3 122.9,99.1 124.3,99.0 125.7,98.8 127.1,98.5 128.6,98.3 130.0,98.1 131.4,98.0 132.9,97.8 134.3,97.6 135.7,97.5 137.1,97.4 138.6,97.3 140.0,96.9 141.4,96.6 142.9,96.6 144.3,96.4 145.7,96.3 147.1,96.3 148.6,103.1 150.0,102.4 151.4,101.8 152.9,101.2 154.3,99.4 155.7,98.1 157.1,96.7 158.6,96.2 160.0,95.6 161.4,94.7 162.9,93.6 164.3,92.9 165.7,92.6 167.1,92.3 168.6,91.6 170.0,91.0 171.4,90.7 172.9,90.3 174.3,90.1 175.7,90.0 177.1,89.6 178.6,89.0 180.0,88.5 181.4,88.1 182.9,87.6 184.3,87.3 185.7,87.1 187.1,86.7 188.6,86.3 190.0,85.9 191.4,85.6 192.9,85.5 194.3,85.4 195.7,85.2 197.1,84.8 198.6,84.6 200.0,84.4 201.4,84.2 202.9,84.0 204.3,83.8 205.7,83.6 207.1,83.4 208.6,83.3 210.0,82.9 211.4,82.7 212.9,82.4 214.3,82.2 215.7,82.0 217.1,81.8 218.6,81.7 220.0,81.5 221.4,81.0 222.9,80.7 224.3,80.3 225.7,80.1 227.1,80.1 228.6,79.9 230.0,79.7 231.4,79.4 232.9,79.2 234.3,78.9 235.7,78.7 237.1,78.6 238.6,78.5 240.0,78.3 241.4,78.2 242.9,78.0 244.3,77.8 245.7,77.5 247.1,77.4 248.6,77.3 250.0,77.2 251.4,77.1 252.9,76.8 254.3,76.6 255.7,76.4 257.1,76.2 258.6,75.9 260.0,75.8 261.4,75.7 262.9,75.6 264.3,75.2 265.7,75.0 267.1,74.8 268.6,74.5 270.0,74.2 271.4,74.1 272.9,74.0 274.3,73.9 275.7,73.7 277.1,73.5 278.6,73.3 280.0,73.2 281.4,73.0 282.9,72.9 284.3,72.7 285.7,72.6 287.1,72.5 288.6,72.3 290.0,72.0 291.4,71.9 292.9,71.7 294.3,71.6 295.7,71.5 297.1,71.3 298.6,71.2 300.0,71.1 301.4,70.9 302.9,70.6 304.3,70.3 305.7,70.1 307.1,69.9 308.6,69.9 310.0,69.8 311.4,69.6 312.9,69.3 314.3,69.2 315.7,69.1 317.1,68.9 318.6,68.7 320.0,68.5 321.4,68.4 322.9,68.3 324.3,68.1 325.7,67.9 327.1,67.7 328.6,67.5 330.0,67.4 331.4,67.3 332.9,67.2 334.3,67.1 335.7,66.9 337.1,66.8 338.6,66.6 340.0,66.4 341.4,66.3 342.9,66.2 344.3,66.0 345.7,65.9 347.1,65.7 348.6,65.5 350.0,65.3 351.4,65.1 352.9,65.0 354.3,64.9 355.7,64.8 357.1,64.7 358.6,64.6 360.0,64.5 361.4,64.2 362.9,64.1 364.3,63.9 365.7,63.8 367.1,63.7 368.6,63.5 370.0,63.4 371.4,63.2 372.9,63.1 374.3,63.0 375.7,62.8 377.1,62.7 378.6,62.5 380.0,62.4 381.4,62.3 382.9,62.2 384.3,62.1 385.7,61.9 387.1,61.8 388.6,61.8 390.0,61.6 391.4,61.3 392.9,61.1 394.3,65.5 395.7,64.7 397.1,63.0 398.6,62.4 400.0,61.6 401.4,60.6 402.9,60.1 404.3,59.8 405.7,59.1 407.1,58.2 408.6,57.4 410.0,57.2 411.4,56.9 412.9,56.6 414.3,56.1 415.7,55.6 417.1,55.1 418.6,54.8 420.0,54.3 421.4,54.1 422.9,53.7 424.3,53.5 425.7,53.3 427.1,53.0 428.6,52.5 430.0,52.2 431.4,51.8 432.9,51.2 434.3,50.8 435.7,50.6 437.1,50.4 438.6,50.2 440.0,49.8 441.4,49.5 442.9,49.2 444.3,48.3 445.7,47.6 447.1,47.2 448.6,47.1 450.0,46.8 451.4,46.3 452.9,45.9 454.3,45.3 455.7,45.0 457.1,44.7 458.6,44.4 460.0,44.0 461.4,43.7 462.9,43.6 464.3,43.4 465.7,43.2 467.1,42.9 468.6,42.8 470.0,42.5 471.4,42.3 472.9,42.2 474.3,41.9 475.7,41.7 477.1,41.5 478.6,41.3 480.0,41.1 481.4,41.0 482.9,40.8 484.3,40.7 485.7,40.5 487.1,40.4 488.6,40.2 490.0,40.1 491.4,39.9 492.9,39.7 494.3,39.5 495.7,39.4 497.1,39.1 498.6,39.0 500.0,38.9 501.4,38.8 502.9,38.6 504.3,38.5 505.7,38.4 507.1,38.2 508.6,38.0 510.0,37.9 511.4,37.6 512.9,37.4 514.3,37.2 515.7,37.0 517.1,36.8 518.6,36.6 520.0,36.4 521.4,36.2 522.9,35.9 524.3,35.7 525.7,35.5 527.1,35.2 528.6,35.0 530.0,34.7 531.4,34.6 532.9,34.5 534.3,34.4 535.7,34.2 537.1,34.1 538.6,33.9 540.0,33.7 541.4,33.5 542.9,33.3 544.3,33.1 545.7,32.8 547.1,32.6 548.6,32.3 550.0,32.2 551.4,32.0 552.9,31.9 554.3,31.8 555.7,31.6 557.1,31.4 558.6,31.2 560.0,31.1 561.4,30.8 562.9,30.6 564.3,30.5 565.7,30.3 567.1,30.2 568.6,30.1 570.0,30.0" />
  
  <!-- Punto finale luminoso -->
  <circle cx="570.0" cy="30.0" r="4" fill="#ffffff" stroke="#0366d6" stroke-width="2.5" />
</svg>