<svg width="600" height="150" viewBox="0 0 600 150" xmlns="http://www.w3.org/2000/svg">
  <defs>
    <filter id="shadow2" x="-2%" y="-2%" width="104%" height="108%">
      <feDropShadow dx="0" dy="2" stdDeviation="3" flood-opacity="0.1" />
    </filter>
    <linearGradient id="fillGrad" x1="0" y1="0" x2="0" y2="1">
      <stop offset="0%" stop-color="#0366d6" stop-opacity="0.3"/>
      <stop offset="100%" stop-color="#0366d6" stop-opacity="0.02"/>
    </linearGradient>
  </defs>
  <rect width="600" height="150" rx="12" fill="#ffffff" filter="url(#shadow2)" stroke="#e1e4e8" stroke-width="1"/>
  <text x="20" y="24" fill="#2b3137" font-family="-apple-system,BlinkMacSystemFont,'Segoe UI',Helvetica,Arial,sans-serif" font-size="14" font-weight="600">📈 Download Growth (Actual: 86.6k)</text>
  
  <!-- Area sotto la linea -->
  <polygon fill="url(#fillGrad)" points="30.0,120.0,120 30.0,120.0 31.4,119.5 32.7,118.9 34.0,118.4 35.4,118.3 36.8,118.1 38.1,117.5 39.5,117.1 40.8,116.8 42.1,116.2 43.5,115.9 44.9,115.6 46.2,115.4 47.5,115.1 48.9,114.7 50.2,114.3 51.6,113.9 53.0,113.7 54.3,113.6 55.6,113.3 57.0,113.0 58.3,112.7 59.7,112.5 61.0,112.3 62.4,111.3 63.8,111.0 65.1,110.6 66.5,110.3 67.8,109.9 69.2,109.6 70.5,109.4 71.8,109.2 73.2,109.0 74.6,108.5 75.9,108.1 77.2,107.8 78.6,107.5 80.0,107.4 81.3,107.3 82.7,107.2 84.0,106.9 85.3,106.7 86.7,106.5 88.0,106.2 89.4,105.7 90.8,105.6 92.1,105.5 93.4,105.3 94.8,104.8 96.2,104.6 97.5,104.1 98.8,103.8 100.2,103.5 101.5,103.4 102.9,103.2 104.2,102.8 105.6,102.4 106.9,102.1 108.3,102.0 109.6,101.8 111.0,101.6 112.3,101.2 113.7,100.8 115.0,100.4 116.4,100.0 117.8,99.9 119.1,99.7 120.5,99.6 121.8,99.3 123.1,99.1 124.5,98.9 125.8,98.8 127.2,98.7 128.6,98.4 129.9,98.3 131.2,98.2 132.6,98.1 133.9,97.7 135.3,97.5 136.7,97.4 138.0,97.3 139.4,97.2 140.7,97.2 142.1,103.7 143.4,103.1 144.8,102.5 146.1,101.9 147.4,100.1 148.8,98.9 150.2,97.6 151.5,97.1 152.9,96.5 154.2,95.6 155.6,94.6 156.9,93.9 158.2,93.6 159.6,93.3 160.9,92.6 162.3,92.1 163.7,91.8 165.0,91.4 166.3,91.2 167.7,91.1 169.1,90.7 170.4,90.1 171.8,89.7 173.1,89.3 174.5,88.8 175.8,88.5 177.2,88.4 178.5,87.9 179.9,87.6 181.2,87.2 182.5,86.9 183.9,86.8 185.2,86.7 186.6,86.5 187.9,86.1 189.3,85.9 190.7,85.7 192.0,85.5 193.3,85.3 194.7,85.1 196.1,84.9 197.4,84.8 198.8,84.6 200.1,84.3 201.4,84.0 202.8,83.7 204.2,83.6 205.5,83.4 206.8,83.3 208.2,83.1 209.6,83.0 210.9,82.5 212.2,82.2 213.6,81.8 215.0,81.6 216.3,81.6 217.6,81.4 219.0,81.2 220.3,80.9 221.7,80.7 223.0,80.4 224.4,80.2 225.8,80.1 227.1,80.0 228.4,79.9 229.8,79.7 231.2,79.5 232.5,79.4 233.8,79.1 235.2,79.0 236.6,78.9 237.9,78.7 239.2,78.7 240.6,78.4 242.0,78.2 243.3,78.0 244.7,77.8 246.0,77.6 247.4,77.4 248.7,77.3 250.0,77.2 251.4,76.9 252.8,76.6 254.1,76.4 255.4,76.2 256.8,75.9 258.1,75.8 259.5,75.7 260.9,75.6 262.2,75.4 263.6,75.2 264.9,75.1 266.2,74.9 267.6,74.7 268.9,74.6 270.3,74.4 271.6,74.3 273.0,74.2 274.4,74.1 275.7,73.8 277.1,73.7 278.4,73.5 279.8,73.4 281.1,73.3 282.5,73.1 283.8,73.0 285.1,72.9 286.5,72.7 287.8,72.4 289.2,72.1 290.6,71.9 291.9,71.8 293.2,71.7 294.6,71.6 295.9,71.5 297.3,71.2 298.6,71.1 300.0,71.0 301.3,70.8 302.7,70.6 304.0,70.4 305.4,70.3 306.8,70.2 308.1,70.0 309.4,69.8 310.8,69.6 312.1,69.4 313.5,69.3 314.8,69.3 316.2,69.2 317.6,69.0 318.9,68.9 320.2,68.7 321.6,68.6 322.9,68.4 324.3,68.3 325.6,68.2 327.0,68.0 328.4,67.9 329.7,67.7 331.1,67.5 332.4,67.3 333.8,67.2 335.1,67.0 336.4,67.0 337.8,66.9 339.1,66.8 340.5,66.7 341.9,66.5 343.2,66.3 344.6,66.2 345.9,66.0 347.2,65.9 348.6,65.8 349.9,65.6 351.3,65.5 352.7,65.3 354.0,65.2 355.4,65.1 356.7,64.9 358.1,64.8 359.4,64.6 360.8,64.5 362.1,64.5 363.5,64.3 364.8,64.2 366.2,64.1 367.5,64.0 368.8,63.9 370.2,63.8 371.5,63.5 372.9,63.3 374.2,67.5 375.6,66.7 376.9,65.1 378.3,64.5 379.6,63.7 381.0,62.8 382.3,62.3 383.7,62.0 385.1,61.4 386.4,60.5 387.8,59.8 389.1,59.5 390.4,59.2 391.8,58.9 393.1,58.4 394.5,58.0 395.9,57.5 397.2,57.2 398.6,56.8 399.9,56.5 401.2,56.2 402.6,56.0 403.9,55.7 405.3,55.5 406.6,55.0 408.0,54.7 409.4,54.3 410.7,53.7 412.1,53.4 413.4,53.2 414.8,53.0 416.1,52.8 417.4,52.4 418.8,52.1 420.2,51.8 421.5,50.9 422.9,50.2 424.2,49.9 425.6,49.8 426.9,49.5 428.2,49.0 429.6,48.6 431.0,48.1 432.3,47.8 433.7,47.5 435.0,47.2 436.3,46.8 437.7,46.6 439.0,46.4 440.4,46.2 441.8,46.1 443.1,45.8 444.4,45.6 445.8,45.4 447.1,45.2 448.5,45.1 449.8,44.8 451.2,44.6 452.6,44.4 453.9,44.2 455.2,44.0 456.6,43.9 457.9,43.8 459.3,43.6 460.6,43.5 462.0,43.4 463.4,43.2 464.7,43.0 466.1,42.9 467.4,42.7 468.8,42.5 470.1,42.3 471.4,42.1 472.8,42.0 474.1,41.9 475.5,41.8 476.9,41.6 478.2,41.5 479.6,41.4 480.9,41.2 482.2,41.0 483.6,40.9 484.9,40.7 486.3,40.4 487.7,40.3 489.0,40.1 490.4,39.9 491.7,39.7 493.1,39.5 494.4,39.3 495.8,39.1 497.1,38.8 498.5,38.6 499.8,38.3 501.2,38.1 502.5,37.9 503.8,37.8 505.2,37.7 506.5,37.5 507.9,37.4 509.2,37.3 510.6,37.1 511.9,36.9 513.3,36.7 514.6,36.5 516.0,36.3 517.3,36.0 518.7,35.8 520.0,35.5 521.4,35.4 522.8,35.2 524.1,35.1 525.5,35.0 526.8,34.9 528.1,34.7 529.5,34.5 530.9,34.4 532.2,34.1 533.5,33.9 534.9,33.8 536.2,33.6 537.6,33.5 539.0,33.4 540.3,33.3 541.6,33.2 543.0,33.0 544.4,32.9 545.7,32.8 547.0,32.6 548.4,32.4 549.8,32.3 551.1,32.1 552.5,32.0 553.8,31.9 555.1,31.7 556.5,31.6 557.9,31.5 559.2,31.3 560.6,31.1 561.9,30.9 563.2,30.7 564.6,30.4 566.0,30.3 567.3,30.2 568.6,30.2 570.0,30.0 570.0,30.0,120" />
  
  <!-- Linea principale -->
  <polyline fill="none" stroke="#0366d6" stroke-width="2.5" stroke-linecap="round" stroke-linejoin="round" points="30.0,120.0 31.4,119.5 32.7,118.9 34.0,118.4 35.4,118.3 36.8,118.1 38.1,117.5 39.5,117.1 40.8,116.8 42.1,116.2 43.5,115.9 44.9,115.6 46.2,115.4 47.5,115.1 48.9,114.7 50.2,114.3 51.6,113.9 53.0,113.7 54.3,113.6 55.6,113.3 57.0,113.0 58.3,112.7 59.7,112.5 61.0,112.3 62.4,111.3 63.8,111.0 65.1,110.6 66.5,110.3 67.8,109.9 69.2,109.6 70.5,109.4 71.8,109.2 73.2,109.0 74.6,108.5 75.9,108.1 77.2,107.8 78.6,107.5 80.0,107.4 81.3,107.3 82.7,107.2 84.0,106.9 85.3,106.7 86.7,106.5 88.0,106.2 89.4,105.7 90.8,105.6 92.1,105.5 93.4,105.3 94.8,104.8 96.2,104.6 97.5,104.1 98.8,103.8 100.2,103.5 101.5,103.4 102.9,103.2 104.2,102.8 105.6,102.4 106.9,102.1 108.3,102.0 109.6,101.8 111.0,101.6 112.3,101.2 113.7,100.8 115.0,100.4 116.4,100.0 117.8,99.9 119.1,99.7 120.5,99.6 121.8,99.3 123.1,99.1 124.5,98.9 125.8,98.8 127.2,98.7 128.6,98.4 129.9,98.3 131.2,98.2 132.6,98.1 133.9,97.7 135.3,97.5 136.7,97.4 138.0,97.3 139.4,97.2 140.7,97.2 142.1,103.7 143.4,103.1 144.8,102.5 146.1,101.9 147.4,100.1 148.8,98.9 150.2,97.6 151.5,97.1 152.9,96.5 154.2,95.6 155.6,94.6 156.9,93.9 158.2,93.6 159.6,93.3 160.9,92.6 162.3,92.1 163.7,91.8 165.0,91.4 166.3,91.2 167.7,91.1 169.1,90.7 170.4,90.1 171.8,89.7 173.1,89.3 174.5,88.8 175.8,88.5 177.2,88.4 178.5,87.9 179.9,87.6 181.2,87.2 182.5,86.9 183.9,86.8 185.2,86.7 186.6,86.5 187.9,86.1 189.3,85.9 190.7,85.7 192.0,85.5 193.3,85.3 194.7,85.1 196.1,84.9 197.4,84.8 198.8,84.6 200.1,84.3 201.4,84.0 202.8,83.7 204.2,83.6 205.5,83.4 206.8,83.3 208.2,83.1 209.6,83.0 210.9,82.5 212.2,82.2 213.6,81.8 215.0,81.6 216.3,81.6 217.6,81.4 219.0,81.2 220.3,80.9 221.7,80.7 223.0,80.4 224.4,80.2 225.8,80.1 227.1,80.0 228.4,79.9 229.8,79.7 231.2,79.5 232.5,79.4 233.8,79.1 235.2,79.0 236.6,78.9 237.9,78.7 239.2,78.7 240.6,78.4 242.0,78.2 243.3,78.0 244.7,77.8 246.0,77.6 247.4,77.4 248.7,77.3 250.0,77.2 251.4,76.9 252.8,76.6 254.1,76.4 255.4,76.2 256.8,75.9 258.1,75.8 259.5,75.7 260.9,75.6 262.2,75.4 263.6,75.2 264.9,75.1 266.2,74.9 267.6,74.7 268.9,74.6 270.3,74.4 271.6,74.3 273.0,74.2 274.4,74.1 275.7,73.8 277.1,73.7 278.4,73.5 279.8,73.4 281.1,73.3 282.5,73.1 283.8,73.0 285.1,72.9 286.5,72.7 287.8,72.4 289.2,72.1 290.6,71.9 291.9,71.8 293.2,71.7 294.6,71.6 295.9,71.5 297.3,71.2 298.6,71.1 300.0,71.0 301.3,70.8 302.7,70.6 304.0,70.4 305.4,70.3 306.8,70.2 308.1,70.0 309.4,69.8 310.8,69.6 312.1,69.4 313.5,69.3 314.8,69.3 316.2,69.2 317.6,69.0 318.9,68.9 320.2,68.7 321.6,68.6 322.9,68.4 324.3,68.3 325.6,68.2 327.0,68.0 328.4,67.9 329.7,67.7 331.1,67.5 332.4,67.3 333.8,67.2 335.1,67.0 336.4,67.0 337.8,66.9 339.1,66.8 340.5,66.7 341.9,66.5 343.2,66.3 344.6,66.2 345.9,66.0 347.2,65.9 348.6,65.8 349.9,65.6 351.3,65.5 352.7,65.3 354.0,65.2 355.4,65.1 356.7,64.9 358.1,64.8 359.4,64.6 360.8,64.5 362.1,64.5 363.5,64.3 364.8,64.2 366.2,64.1 367.5,64.0 368.8,63.9 370.2,63.8 371.5,63.5 372.9,63.3 374.2,67.5 375.6,66.7 376.9,65.1 378.3,64.5 379.6,63.7 381.0,62.8 382.3,62.3 383.7,62.0 385.1,61.4 386.4,60.5 387.8,59.8 389.1,59.5 390.4,59.2 391.8,58.9 393.1,58.4 394.5,58.0 395.9,57.5 397.2,57.2 398.6,56.8 399.9,56.5 401.2,56.2 402.6,56.0 403.9,55.7 405.3,55.5 406.6,55.0 408.0,54.7 409.4,54.3 410.7,53.7 412.1,53.4 413.4,53.2 414.8,53.0 416.1,52.8 417.4,52.4 418.8,52.1 420.2,51.8 421.5,50.9 422.9,50.2 424.2,49.9 425.6,49.8 426.9,49.5 428.2,49.0 429.6,48.6 431.0,48.1 432.3,47.8 433.7,47.5 435.0,47.2 436.3,46.8 437.7,46.6 439.0,46.4 440.4,46.2 441.8,46.1 443.1,45.8 444.4,45.6 445.8,45.4 447.1,45.2 448.5,45.1 449.8,44.8 451.2,44.6 452.6,44.4 453.9,44.2 455.2,44.0 456.6,43.9 457.9,43.8 459.3,43.6 460.6,43.5 462.0,43.4 463.4,43.2 464.7,43.0 466.1,42.9 467.4,42.7 468.8,42.5 470.1,42.3 471.4,42.1 472.8,42.0 474.1,41.9 475.5,41.8 476.9,41.6 478.2,41.5 479.6,41.4 480.9,41.2 482.2,41.0 483.6,40.9 484.9,40.7 486.3,40.4 487.7,40.3 489.0,40.1 490.4,39.9 491.7,39.7 493.1,39.5 494.4,39.3 495.8,39.1 497.1,38.8 498.5,38.6 499.8,38.3 501.2,38.1 502.5,37.9 503.8,37.8 505.2,37.7 506.5,37.5 507.9,37.4 509.2,37.3 510.6,37.1 511.9,36.9 513.3,36.7 514.6,36.5 516.0,36.3 517.3,36.0 518.7,35.8 520.0,35.5 521.4,35.4 522.8,35.2 524.1,35.1 525.5,35.0 526.8,34.9 528.1,34.7 529.5,34.5 530.9,34.4 532.2,34.1 533.5,33.9 534.9,33.8 536.2,33.6 537.6,33.5 539.0,33.4 540.3,33.3 541.6,33.2 543.0,33.0 544.4,32.9 545.7,32.8 547.0,32.6 548.4,32.4 549.8,32.3 551.1,32.1 552.5,32.0 553.8,31.9 555.1,31.7 556.5,31.6 557.9,31.5 559.2,31.3 560.6,31.1 561.9,30.9 563.2,30.7 564.6,30.4 566.0,30.3 567.3,30.2 568.6,30.2 570.0,30.0" />
  
  <!-- Punto finale luminoso -->
  <circle cx="570.0" cy="30.0" r="4" fill="#ffffff" stroke="#0366d6" stroke-width="2.5" />
</svg>