<svg width="600" height="150" viewBox="0 0 600 150" xmlns="http://www.w3.org/2000/svg">
  <defs>
    <filter id="shadow2" x="-2%" y="-2%" width="104%" height="108%">
      <feDropShadow dx="0" dy="2" stdDeviation="3" flood-opacity="0.1" />
    </filter>
    <linearGradient id="fillGrad" x1="0" y1="0" x2="0" y2="1">
      <stop offset="0%" stop-color="#0366d6" stop-opacity="0.3"/>
      <stop offset="100%" stop-color="#0366d6" stop-opacity="0.02"/>
    </linearGradient>
  </defs>
  <rect width="600" height="150" rx="12" fill="#ffffff" filter="url(#shadow2)" stroke="#e1e4e8" stroke-width="1"/>
  <text x="20" y="24" fill="#2b3137" font-family="-apple-system,BlinkMacSystemFont,'Segoe UI',Helvetica,Arial,sans-serif" font-size="14" font-weight="600">📈 Download Growth (Actual: 84.1k)</text>
  
  <!-- Area sotto la linea -->
  <polygon fill="url(#fillGrad)" points="30.0,120.0,120 30.0,120.0 31.6,119.4 33.2,118.8 34.9,118.2 36.5,118.1 38.1,117.8 39.7,117.1 41.4,116.7 43.0,116.4 44.6,115.7 46.2,115.3 47.8,115.0 49.5,114.7 51.1,114.4 52.7,114.0 54.3,113.5 55.9,113.1 57.6,112.8 59.2,112.6 60.8,112.3 62.4,111.9 64.1,111.6 65.7,111.5 67.3,111.2 68.9,110.1 70.5,109.7 72.2,109.3 73.8,108.9 75.4,108.5 77.0,108.1 78.6,107.9 80.3,107.7 81.9,107.4 83.5,106.8 85.1,106.4 86.8,106.1 88.4,105.7 90.0,105.6 91.6,105.5 93.2,105.3 94.9,105.0 96.5,104.7 98.1,104.6 99.7,104.2 101.4,103.6 103.0,103.5 104.6,103.3 106.2,103.1 107.8,102.6 109.5,102.3 111.1,101.8 112.7,101.5 114.3,101.1 115.9,101.0 117.6,100.7 119.2,100.3 120.8,99.8 122.4,99.5 124.1,99.3 125.7,99.1 127.3,98.9 128.9,98.4 130.5,98.0 132.2,97.5 133.8,97.1 135.4,96.9 137.0,96.8 138.6,96.6 140.3,96.3 141.9,96.1 143.5,95.9 145.1,95.7 146.8,95.6 148.4,95.3 150.0,95.2 151.6,95.1 153.2,94.9 154.9,94.5 156.5,94.2 158.1,94.2 159.7,94.0 161.4,93.9 163.0,93.9 164.6,101.4 166.2,100.6 167.8,100.0 169.5,99.3 171.1,97.3 172.7,95.8 174.3,94.3 175.9,93.8 177.6,93.1 179.2,92.1 180.8,90.9 182.4,90.1 184.1,89.8 185.7,89.5 187.3,88.7 188.9,88.1 190.5,87.7 192.2,87.2 193.8,87.0 195.4,86.9 197.0,86.5 198.6,85.8 200.3,85.3 201.9,84.8 203.5,84.2 205.1,84.0 206.8,83.8 208.4,83.3 210.0,82.9 211.6,82.4 213.2,82.1 214.9,82.0 216.5,81.9 218.1,81.6 219.7,81.2 221.4,81.0 223.0,80.7 224.6,80.5 226.2,80.3 227.8,80.1 229.5,79.9 231.1,79.7 232.7,79.5 234.3,79.1 235.9,78.8 237.6,78.5 239.2,78.3 240.8,78.1 242.4,77.9 244.1,77.8 245.7,77.6 247.3,77.0 248.9,76.7 250.5,76.2 252.2,76.1 253.8,76.0 255.4,75.8 257.0,75.6 258.6,75.3 260.3,75.0 261.9,74.7 263.5,74.5 265.1,74.4 266.8,74.2 268.4,74.1 270.0,73.9 271.6,73.7 273.2,73.5 274.9,73.2 276.5,73.0 278.1,72.9 279.7,72.8 281.4,72.7 283.0,72.4 284.6,72.2 286.2,71.9 287.8,71.7 289.5,71.4 291.1,71.3 292.7,71.2 294.3,71.0 295.9,70.7 297.6,70.4 299.2,70.1 300.8,69.9 302.4,69.5 304.1,69.4 305.7,69.3 307.3,69.1 308.9,68.9 310.5,68.8 312.2,68.5 313.8,68.4 315.4,68.2 317.0,68.0 318.6,67.8 320.3,67.7 321.9,67.6 323.5,67.4 325.1,67.1 326.8,67.0 328.4,66.7 330.0,66.6 331.6,66.5 333.2,66.3 334.9,66.2 336.5,66.0 338.1,65.9 339.7,65.5 341.4,65.2 343.0,65.0 344.6,64.8 346.2,64.7 347.8,64.6 349.5,64.4 351.1,64.1 352.7,64.0 354.3,63.9 355.9,63.6 357.6,63.5 359.2,63.3 360.8,63.1 362.4,63.0 364.1,62.8 365.7,62.6 367.3,62.3 368.9,62.1 370.5,62.0 372.2,61.9 373.8,61.8 375.4,61.7 377.0,61.5 378.6,61.3 380.3,61.1 381.9,60.9 383.5,60.8 385.1,60.7 386.8,60.5 388.4,60.4 390.0,60.1 391.6,59.9 393.2,59.7 394.9,59.5 396.5,59.4 398.1,59.3 399.7,59.2 401.4,59.1 403.0,58.9 404.6,58.8 406.2,58.5 407.8,58.4 409.5,58.2 411.1,58.1 412.7,57.9 414.3,57.8 415.9,57.6 417.6,57.4 419.2,57.3 420.8,57.1 422.4,56.9 424.1,56.8 425.7,56.6 427.3,56.5 428.9,56.4 430.5,56.3 432.2,56.1 433.8,56.0 435.4,55.9 437.0,55.8 438.6,55.7 440.3,55.3 441.9,55.1 443.5,59.9 445.1,59.0 446.8,57.1 448.4,56.4 450.0,55.6 451.6,54.5 453.2,54.0 454.9,53.6 456.5,52.9 458.1,51.8 459.7,51.0 461.4,50.8 463.0,50.4 464.6,50.1 466.2,49.5 467.8,49.0 469.5,48.4 471.1,48.1 472.7,47.6 474.3,47.3 475.9,46.9 477.6,46.7 479.2,46.4 480.8,46.2 482.4,45.6 484.1,45.3 485.7,44.8 487.3,44.1 488.9,43.7 490.5,43.5 492.2,43.3 493.8,43.0 495.4,42.6 497.0,42.2 498.6,41.9 500.3,40.9 501.9,40.1 503.5,39.8 505.1,39.6 506.8,39.2 508.4,38.7 510.0,38.3 511.6,37.7 513.2,37.3 514.9,37.0 516.5,36.6 518.1,36.2 519.7,35.9 521.4,35.7 523.0,35.5 524.6,35.3 526.2,35.0 527.8,34.9 529.5,34.6 531.1,34.4 532.7,34.2 534.3,33.9 535.9,33.7 537.6,33.5 539.2,33.3 540.8,33.0 542.4,32.9 544.1,32.7 545.7,32.6 547.3,32.4 548.9,32.3 550.5,32.1 552.2,31.9 553.8,31.7 555.4,31.4 557.0,31.2 558.6,31.1 560.3,30.9 561.9,30.7 563.5,30.6 565.1,30.4 566.8,30.3 568.4,30.1 570.0,30.0 570.0,30.0,120" />
  
  <!-- Linea principale -->
  <polyline fill="none" stroke="#0366d6" stroke-width="2.5" stroke-linecap="round" stroke-linejoin="round" points="30.0,120.0 31.6,119.4 33.2,118.8 34.9,118.2 36.5,118.1 38.1,117.8 39.7,117.1 41.4,116.7 43.0,116.4 44.6,115.7 46.2,115.3 47.8,115.0 49.5,114.7 51.1,114.4 52.7,114.0 54.3,113.5 55.9,113.1 57.6,112.8 59.2,112.6 60.8,112.3 62.4,111.9 64.1,111.6 65.7,111.5 67.3,111.2 68.9,110.1 70.5,109.7 72.2,109.3 73.8,108.9 75.4,108.5 77.0,108.1 78.6,107.9 80.3,107.7 81.9,107.4 83.5,106.8 85.1,106.4 86.8,106.1 88.4,105.7 90.0,105.6 91.6,105.5 93.2,105.3 94.9,105.0 96.5,104.7 98.1,104.6 99.7,104.2 101.4,103.6 103.0,103.5 104.6,103.3 106.2,103.1 107.8,102.6 109.5,102.3 111.1,101.8 112.7,101.5 114.3,101.1 115.9,101.0 117.6,100.7 119.2,100.3 120.8,99.8 122.4,99.5 124.1,99.3 125.7,99.1 127.3,98.9 128.9,98.4 130.5,98.0 132.2,97.5 133.8,97.1 135.4,96.9 137.0,96.8 138.6,96.6 140.3,96.3 141.9,96.1 143.5,95.9 145.1,95.7 146.8,95.6 148.4,95.3 150.0,95.2 151.6,95.1 153.2,94.9 154.9,94.5 156.5,94.2 158.1,94.2 159.7,94.0 161.4,93.9 163.0,93.9 164.6,101.4 166.2,100.6 167.8,100.0 169.5,99.3 171.1,97.3 172.7,95.8 174.3,94.3 175.9,93.8 177.6,93.1 179.2,92.1 180.8,90.9 182.4,90.1 184.1,89.8 185.7,89.5 187.3,88.7 188.9,88.1 190.5,87.7 192.2,87.2 193.8,87.0 195.4,86.9 197.0,86.5 198.6,85.8 200.3,85.3 201.9,84.8 203.5,84.2 205.1,84.0 206.8,83.8 208.4,83.3 210.0,82.9 211.6,82.4 213.2,82.1 214.9,82.0 216.5,81.9 218.1,81.6 219.7,81.2 221.4,81.0 223.0,80.7 224.6,80.5 226.2,80.3 227.8,80.1 229.5,79.9 231.1,79.7 232.7,79.5 234.3,79.1 235.9,78.8 237.6,78.5 239.2,78.3 240.8,78.1 242.4,77.9 244.1,77.8 245.7,77.6 247.3,77.0 248.9,76.7 250.5,76.2 252.2,76.1 253.8,76.0 255.4,75.8 257.0,75.6 258.6,75.3 260.3,75.0 261.9,74.7 263.5,74.5 265.1,74.4 266.8,74.2 268.4,74.1 270.0,73.9 271.6,73.7 273.2,73.5 274.9,73.2 276.5,73.0 278.1,72.9 279.7,72.8 281.4,72.7 283.0,72.4 284.6,72.2 286.2,71.9 287.8,71.7 289.5,71.4 291.1,71.3 292.7,71.2 294.3,71.0 295.9,70.7 297.6,70.4 299.2,70.1 300.8,69.9 302.4,69.5 304.1,69.4 305.7,69.3 307.3,69.1 308.9,68.9 310.5,68.8 312.2,68.5 313.8,68.4 315.4,68.2 317.0,68.0 318.6,67.8 320.3,67.7 321.9,67.6 323.5,67.4 325.1,67.1 326.8,67.0 328.4,66.7 330.0,66.6 331.6,66.5 333.2,66.3 334.9,66.2 336.5,66.0 338.1,65.9 339.7,65.5 341.4,65.2 343.0,65.0 344.6,64.8 346.2,64.7 347.8,64.6 349.5,64.4 351.1,64.1 352.7,64.0 354.3,63.9 355.9,63.6 357.6,63.5 359.2,63.3 360.8,63.1 362.4,63.0 364.1,62.8 365.7,62.6 367.3,62.3 368.9,62.1 370.5,62.0 372.2,61.9 373.8,61.8 375.4,61.7 377.0,61.5 378.6,61.3 380.3,61.1 381.9,60.9 383.5,60.8 385.1,60.7 386.8,60.5 388.4,60.4 390.0,60.1 391.6,59.9 393.2,59.7 394.9,59.5 396.5,59.4 398.1,59.3 399.7,59.2 401.4,59.1 403.0,58.9 404.6,58.8 406.2,58.5 407.8,58.4 409.5,58.2 411.1,58.1 412.7,57.9 414.3,57.8 415.9,57.6 417.6,57.4 419.2,57.3 420.8,57.1 422.4,56.9 424.1,56.8 425.7,56.6 427.3,56.5 428.9,56.4 430.5,56.3 432.2,56.1 433.8,56.0 435.4,55.9 437.0,55.8 438.6,55.7 440.3,55.3 441.9,55.1 443.5,59.9 445.1,59.0 446.8,57.1 448.4,56.4 450.0,55.6 451.6,54.5 453.2,54.0 454.9,53.6 456.5,52.9 458.1,51.8 459.7,51.0 461.4,50.8 463.0,50.4 464.6,50.1 466.2,49.5 467.8,49.0 469.5,48.4 471.1,48.1 472.7,47.6 474.3,47.3 475.9,46.9 477.6,46.7 479.2,46.4 480.8,46.2 482.4,45.6 484.1,45.3 485.7,44.8 487.3,44.1 488.9,43.7 490.5,43.5 492.2,43.3 493.8,43.0 495.4,42.6 497.0,42.2 498.6,41.9 500.3,40.9 501.9,40.1 503.5,39.8 505.1,39.6 506.8,39.2 508.4,38.7 510.0,38.3 511.6,37.7 513.2,37.3 514.9,37.0 516.5,36.6 518.1,36.2 519.7,35.9 521.4,35.7 523.0,35.5 524.6,35.3 526.2,35.0 527.8,34.9 529.5,34.6 531.1,34.4 532.7,34.2 534.3,33.9 535.9,33.7 537.6,33.5 539.2,33.3 540.8,33.0 542.4,32.9 544.1,32.7 545.7,32.6 547.3,32.4 548.9,32.3 550.5,32.1 552.2,31.9 553.8,31.7 555.4,31.4 557.0,31.2 558.6,31.1 560.3,30.9 561.9,30.7 563.5,30.6 565.1,30.4 566.8,30.3 568.4,30.1 570.0,30.0" />
  
  <!-- Punto finale luminoso -->
  <circle cx="570.0" cy="30.0" r="4" fill="#ffffff" stroke="#0366d6" stroke-width="2.5" />
</svg>