<svg width="600" height="150" viewBox="0 0 600 150" xmlns="http://www.w3.org/2000/svg">
  <defs>
    <filter id="shadow2" x="-2%" y="-2%" width="104%" height="108%">
      <feDropShadow dx="0" dy="2" stdDeviation="3" flood-opacity="0.1" />
    </filter>
    <linearGradient id="fillGrad" x1="0" y1="0" x2="0" y2="1">
      <stop offset="0%" stop-color="#0366d6" stop-opacity="0.3"/>
      <stop offset="100%" stop-color="#0366d6" stop-opacity="0.02"/>
    </linearGradient>
  </defs>
  <rect width="600" height="150" rx="12" fill="#ffffff" filter="url(#shadow2)" stroke="#e1e4e8" stroke-width="1"/>
  <text x="20" y="24" fill="#2b3137" font-family="-apple-system,BlinkMacSystemFont,'Segoe UI',Helvetica,Arial,sans-serif" font-size="14" font-weight="600">📈 Download Growth (Actual: 83.3k)</text>
  
  <!-- Area sotto la linea -->
  <polygon fill="url(#fillGrad)" points="30.0,120.0,120 30.0,120.0 31.7,119.4 33.5,118.7 35.2,118.1 37.0,118.0 38.7,117.7 40.5,117.0 42.2,116.5 44.0,116.2 45.7,115.4 47.5,115.1 49.2,114.7 51.0,114.5 52.7,114.1 54.5,113.7 56.2,113.1 58.0,112.7 59.7,112.4 61.5,112.3 63.2,111.9 65.0,111.5 66.7,111.2 68.4,111.0 70.2,110.7 71.9,109.5 73.7,109.2 75.4,108.7 77.2,108.3 78.9,107.9 80.7,107.5 82.4,107.3 84.2,107.1 85.9,106.7 87.7,106.2 89.4,105.7 91.2,105.4 92.9,105.0 94.7,104.9 96.4,104.8 98.2,104.6 99.9,104.2 101.7,104.0 103.4,103.8 105.1,103.4 106.9,102.8 108.6,102.6 110.4,102.5 112.1,102.3 113.9,101.8 115.6,101.4 117.4,100.9 119.1,100.6 120.9,100.1 122.6,100.0 124.4,99.7 126.1,99.3 127.9,98.8 129.6,98.4 131.4,98.3 133.1,98.1 134.9,97.8 136.6,97.3 138.3,96.8 140.1,96.4 141.8,96.0 143.6,95.8 145.3,95.6 147.1,95.4 148.8,95.1 150.6,94.9 152.3,94.7 154.1,94.5 155.8,94.3 157.6,94.1 159.3,93.9 161.1,93.8 162.8,93.7 164.6,93.2 166.3,92.9 168.1,92.9 169.8,92.7 171.6,92.6 173.3,92.6 175.0,100.4 176.8,99.7 178.5,99.0 180.3,98.2 182.0,96.1 183.8,94.6 185.5,93.0 187.3,92.4 189.0,91.7 190.8,90.6 192.5,89.4 194.3,88.6 196.0,88.2 197.8,87.9 199.5,87.1 201.3,86.4 203.0,86.0 204.8,85.5 206.5,85.3 208.3,85.2 210.0,84.8 211.7,84.1 213.5,83.5 215.2,83.0 217.0,82.4 218.7,82.1 220.5,81.9 222.2,81.4 224.0,81.0 225.7,80.5 227.5,80.2 229.2,80.0 231.0,79.9 232.7,79.7 234.5,79.3 236.2,79.0 238.0,78.7 239.7,78.5 241.5,78.2 243.2,78.0 245.0,77.8 246.7,77.6 248.4,77.4 250.2,77.0 251.9,76.7 253.7,76.4 255.4,76.2 257.2,75.9 258.9,75.8 260.7,75.6 262.4,75.4 264.2,74.9 265.9,74.5 267.7,74.0 269.4,73.8 271.2,73.8 272.9,73.6 274.7,73.3 276.4,73.0 278.2,72.7 279.9,72.4 281.7,72.2 283.4,72.0 285.1,71.9 286.9,71.7 288.6,71.6 290.4,71.3 292.1,71.1 293.9,70.8 295.6,70.6 297.4,70.5 299.1,70.4 300.9,70.3 302.6,70.0 304.4,69.7 306.1,69.4 307.9,69.2 309.6,69.0 311.4,68.8 313.1,68.7 314.9,68.5 316.6,68.1 318.3,67.8 320.1,67.6 321.8,67.3 323.6,66.9 325.3,66.8 327.1,66.7 328.8,66.6 330.6,66.3 332.3,66.1 334.1,65.9 335.8,65.7 337.6,65.5 339.3,65.4 341.1,65.2 342.8,65.0 344.6,65.0 346.3,64.7 348.1,64.4 349.8,64.3 351.6,64.0 353.3,63.9 355.0,63.8 356.8,63.6 358.5,63.4 360.3,63.3 362.0,63.1 363.8,62.8 365.5,62.4 367.3,62.2 369.0,62.0 370.8,61.9 372.5,61.8 374.3,61.6 376.0,61.3 377.8,61.1 379.5,61.0 381.3,60.8 383.0,60.6 384.8,60.4 386.5,60.2 388.3,60.1 390.0,59.8 391.7,59.6 393.5,59.4 395.2,59.1 397.0,59.0 398.7,58.9 400.5,58.9 402.2,58.7 404.0,58.5 405.7,58.3 407.5,58.1 409.2,57.9 411.0,57.8 412.7,57.6 414.5,57.5 416.2,57.3 418.0,57.1 419.7,56.8 421.5,56.6 423.2,56.4 425.0,56.3 426.7,56.2 428.4,56.1 430.2,56.0 431.9,55.8 433.7,55.7 435.4,55.4 437.2,55.2 438.9,55.0 440.7,54.9 442.4,54.8 444.2,54.6 445.9,54.4 447.7,54.2 449.4,54.1 451.2,53.9 452.9,53.7 454.7,53.6 456.4,53.4 458.2,53.3 459.9,53.2 461.7,53.0 463.4,52.9 465.1,52.7 466.9,52.6 468.6,52.5 470.4,52.4 472.1,52.0 473.9,51.8 475.6,56.9 477.4,55.9 479.1,53.9 480.9,53.2 482.6,52.3 484.4,51.2 486.1,50.6 487.9,50.2 489.6,49.5 491.4,48.4 493.1,47.5 494.9,47.3 496.6,46.8 498.3,46.5 500.1,45.9 501.8,45.4 503.6,44.8 505.3,44.5 507.1,43.9 508.8,43.6 510.6,43.2 512.3,43.0 514.1,42.7 515.8,42.4 517.6,41.8 519.3,41.5 521.1,41.0 522.8,40.3 524.6,39.8 526.3,39.6 528.1,39.4 529.8,39.1 531.6,38.7 533.3,38.3 535.0,37.9 536.8,36.9 538.5,36.1 540.3,35.7 542.0,35.5 543.8,35.1 545.5,34.6 547.3,34.1 549.0,33.5 550.8,33.1 552.5,32.7 554.3,32.4 556.0,31.9 557.8,31.6 559.5,31.4 561.3,31.2 563.0,31.0 564.8,30.7 566.5,30.5 568.3,30.2 570.0,30.0 570.0,30.0,120" />
  
  <!-- Linea principale -->
  <polyline fill="none" stroke="#0366d6" stroke-width="2.5" stroke-linecap="round" stroke-linejoin="round" points="30.0,120.0 31.7,119.4 33.5,118.7 35.2,118.1 37.0,118.0 38.7,117.7 40.5,117.0 42.2,116.5 44.0,116.2 45.7,115.4 47.5,115.1 49.2,114.7 51.0,114.5 52.7,114.1 54.5,113.7 56.2,113.1 58.0,112.7 59.7,112.4 61.5,112.3 63.2,111.9 65.0,111.5 66.7,111.2 68.4,111.0 70.2,110.7 71.9,109.5 73.7,109.2 75.4,108.7 77.2,108.3 78.9,107.9 80.7,107.5 82.4,107.3 84.2,107.1 85.9,106.7 87.7,106.2 89.4,105.7 91.2,105.4 92.9,105.0 94.7,104.9 96.4,104.8 98.2,104.6 99.9,104.2 101.7,104.0 103.4,103.8 105.1,103.4 106.9,102.8 108.6,102.6 110.4,102.5 112.1,102.3 113.9,101.8 115.6,101.4 117.4,100.9 119.1,100.6 120.9,100.1 122.6,100.0 124.4,99.7 126.1,99.3 127.9,98.8 129.6,98.4 131.4,98.3 133.1,98.1 134.9,97.8 136.6,97.3 138.3,96.8 140.1,96.4 141.8,96.0 143.6,95.8 145.3,95.6 147.1,95.4 148.8,95.1 150.6,94.9 152.3,94.7 154.1,94.5 155.8,94.3 157.6,94.1 159.3,93.9 161.1,93.8 162.8,93.7 164.6,93.2 166.3,92.9 168.1,92.9 169.8,92.7 171.6,92.6 173.3,92.6 175.0,100.4 176.8,99.7 178.5,99.0 180.3,98.2 182.0,96.1 183.8,94.6 185.5,93.0 187.3,92.4 189.0,91.7 190.8,90.6 192.5,89.4 194.3,88.6 196.0,88.2 197.8,87.9 199.5,87.1 201.3,86.4 203.0,86.0 204.8,85.5 206.5,85.3 208.3,85.2 210.0,84.8 211.7,84.1 213.5,83.5 215.2,83.0 217.0,82.4 218.7,82.1 220.5,81.9 222.2,81.4 224.0,81.0 225.7,80.5 227.5,80.2 229.2,80.0 231.0,79.9 232.7,79.7 234.5,79.3 236.2,79.0 238.0,78.7 239.7,78.5 241.5,78.2 243.2,78.0 245.0,77.8 246.7,77.6 248.4,77.4 250.2,77.0 251.9,76.7 253.7,76.4 255.4,76.2 257.2,75.9 258.9,75.8 260.7,75.6 262.4,75.4 264.2,74.9 265.9,74.5 267.7,74.0 269.4,73.8 271.2,73.8 272.9,73.6 274.7,73.3 276.4,73.0 278.2,72.7 279.9,72.4 281.7,72.2 283.4,72.0 285.1,71.9 286.9,71.7 288.6,71.6 290.4,71.3 292.1,71.1 293.9,70.8 295.6,70.6 297.4,70.5 299.1,70.4 300.9,70.3 302.6,70.0 304.4,69.7 306.1,69.4 307.9,69.2 309.6,69.0 311.4,68.8 313.1,68.7 314.9,68.5 316.6,68.1 318.3,67.8 320.1,67.6 321.8,67.3 323.6,66.9 325.3,66.8 327.1,66.7 328.8,66.6 330.6,66.3 332.3,66.1 334.1,65.9 335.8,65.7 337.6,65.5 339.3,65.4 341.1,65.2 342.8,65.0 344.6,65.0 346.3,64.7 348.1,64.4 349.8,64.3 351.6,64.0 353.3,63.9 355.0,63.8 356.8,63.6 358.5,63.4 360.3,63.3 362.0,63.1 363.8,62.8 365.5,62.4 367.3,62.2 369.0,62.0 370.8,61.9 372.5,61.8 374.3,61.6 376.0,61.3 377.8,61.1 379.5,61.0 381.3,60.8 383.0,60.6 384.8,60.4 386.5,60.2 388.3,60.1 390.0,59.8 391.7,59.6 393.5,59.4 395.2,59.1 397.0,59.0 398.7,58.9 400.5,58.9 402.2,58.7 404.0,58.5 405.7,58.3 407.5,58.1 409.2,57.9 411.0,57.8 412.7,57.6 414.5,57.5 416.2,57.3 418.0,57.1 419.7,56.8 421.5,56.6 423.2,56.4 425.0,56.3 426.7,56.2 428.4,56.1 430.2,56.0 431.9,55.8 433.7,55.7 435.4,55.4 437.2,55.2 438.9,55.0 440.7,54.9 442.4,54.8 444.2,54.6 445.9,54.4 447.7,54.2 449.4,54.1 451.2,53.9 452.9,53.7 454.7,53.6 456.4,53.4 458.2,53.3 459.9,53.2 461.7,53.0 463.4,52.9 465.1,52.7 466.9,52.6 468.6,52.5 470.4,52.4 472.1,52.0 473.9,51.8 475.6,56.9 477.4,55.9 479.1,53.9 480.9,53.2 482.6,52.3 484.4,51.2 486.1,50.6 487.9,50.2 489.6,49.5 491.4,48.4 493.1,47.5 494.9,47.3 496.6,46.8 498.3,46.5 500.1,45.9 501.8,45.4 503.6,44.8 505.3,44.5 507.1,43.9 508.8,43.6 510.6,43.2 512.3,43.0 514.1,42.7 515.8,42.4 517.6,41.8 519.3,41.5 521.1,41.0 522.8,40.3 524.6,39.8 526.3,39.6 528.1,39.4 529.8,39.1 531.6,38.7 533.3,38.3 535.0,37.9 536.8,36.9 538.5,36.1 540.3,35.7 542.0,35.5 543.8,35.1 545.5,34.6 547.3,34.1 549.0,33.5 550.8,33.1 552.5,32.7 554.3,32.4 556.0,31.9 557.8,31.6 559.5,31.4 561.3,31.2 563.0,31.0 564.8,30.7 566.5,30.5 568.3,30.2 570.0,30.0" />
  
  <!-- Punto finale luminoso -->
  <circle cx="570.0" cy="30.0" r="4" fill="#ffffff" stroke="#0366d6" stroke-width="2.5" />
</svg>