<svg width="600" height="150" viewBox="0 0 600 150" xmlns="http://www.w3.org/2000/svg">
  <defs>
    <filter id="shadow2" x="-2%" y="-2%" width="104%" height="108%">
      <feDropShadow dx="0" dy="2" stdDeviation="3" flood-opacity="0.1" />
    </filter>
    <linearGradient id="fillGrad" x1="0" y1="0" x2="0" y2="1">
      <stop offset="0%" stop-color="#0366d6" stop-opacity="0.3"/>
      <stop offset="100%" stop-color="#0366d6" stop-opacity="0.02"/>
    </linearGradient>
  </defs>
  <rect width="600" height="150" rx="12" fill="#ffffff" filter="url(#shadow2)" stroke="#e1e4e8" stroke-width="1"/>
  <text x="20" y="24" fill="#2b3137" font-family="-apple-system,BlinkMacSystemFont,'Segoe UI',Helvetica,Arial,sans-serif" font-size="14" font-weight="600">📈 Download Growth (Actual: 85.6k)</text>
  
  <!-- Area sotto la linea -->
  <polygon fill="url(#fillGrad)" points="30.0,120.0,120 30.0,120.0 31.5,119.5 32.9,118.9 34.4,118.4 35.9,118.2 37.3,118.0 38.8,117.3 40.2,116.9 41.7,116.6 43.2,116.0 44.6,115.7 46.1,115.3 47.6,115.2 49.0,114.9 50.5,114.4 52.0,114.0 53.4,113.6 54.9,113.4 56.3,113.2 57.8,112.9 59.3,112.6 60.7,112.3 62.2,112.1 63.7,111.8 65.1,110.8 66.6,110.5 68.0,110.1 69.5,109.7 71.0,109.4 72.4,109.0 73.9,108.8 75.4,108.7 76.8,108.4 78.3,107.9 79.8,107.4 81.2,107.2 82.7,106.8 84.1,106.7 85.6,106.6 87.1,106.5 88.5,106.1 90.0,105.9 91.5,105.8 92.9,105.4 94.4,104.9 95.9,104.8 97.3,104.7 98.8,104.4 100.2,104.0 101.7,103.7 103.2,103.3 104.6,102.9 106.1,102.5 107.6,102.5 109.0,102.2 110.5,101.8 112.0,101.4 113.4,101.1 114.9,101.0 116.3,100.8 117.8,100.6 119.3,100.1 120.7,99.7 122.2,99.3 123.7,98.9 125.1,98.7 126.6,98.6 128.0,98.5 129.5,98.2 131.0,97.9 132.4,97.8 133.9,97.6 135.4,97.5 136.8,97.3 138.3,97.1 139.8,97.0 141.2,96.9 142.7,96.5 144.1,96.3 145.6,96.2 147.1,96.0 148.5,96.0 150.0,96.0 151.5,102.8 152.9,102.2 154.4,101.6 155.9,100.9 157.3,99.0 158.8,97.7 160.2,96.3 161.7,95.8 163.2,95.2 164.6,94.3 166.1,93.2 167.6,92.4 169.0,92.2 170.5,91.9 172.0,91.1 173.4,90.6 174.9,90.2 176.3,89.8 177.8,89.6 179.3,89.5 180.7,89.1 182.2,88.5 183.7,88.0 185.1,87.6 186.6,87.0 188.0,86.8 189.5,86.6 191.0,86.2 192.4,85.8 193.9,85.4 195.4,85.1 196.8,84.9 198.3,84.9 199.8,84.6 201.2,84.3 202.7,84.0 204.1,83.8 205.6,83.6 207.1,83.4 208.5,83.2 210.0,83.0 211.5,82.9 212.9,82.7 214.4,82.3 215.9,82.1 217.3,81.7 218.8,81.6 220.2,81.4 221.7,81.2 223.2,81.1 224.6,80.9 226.1,80.4 227.6,80.1 229.0,79.7 230.5,79.5 232.0,79.5 233.4,79.3 234.9,79.1 236.3,78.8 237.8,78.6 239.3,78.2 240.7,78.0 242.2,77.9 243.7,77.8 245.1,77.7 246.6,77.5 248.0,77.3 249.5,77.1 251.0,76.8 252.4,76.7 253.9,76.6 255.4,76.5 256.8,76.4 258.3,76.1 259.8,75.9 261.2,75.7 262.7,75.5 264.1,75.2 265.6,75.1 267.1,75.0 268.5,74.8 270.0,74.5 271.5,74.2 272.9,74.0 274.4,73.8 275.9,73.4 277.3,73.4 278.8,73.2 280.2,73.1 281.7,72.9 283.2,72.8 284.6,72.6 286.1,72.4 287.6,72.2 289.0,72.1 290.5,71.9 292.0,71.8 293.4,71.7 294.9,71.5 296.3,71.3 297.8,71.1 299.3,70.9 300.7,70.8 302.2,70.7 303.7,70.5 305.1,70.4 306.6,70.3 308.0,70.1 309.5,69.8 311.0,69.5 312.4,69.3 313.9,69.1 315.4,69.0 316.8,69.0 318.3,68.8 319.8,68.5 321.2,68.4 322.7,68.3 324.1,68.1 325.6,67.9 327.1,67.7 328.5,67.6 330.0,67.5 331.5,67.2 332.9,67.1 334.4,66.8 335.9,66.6 337.3,66.5 338.8,66.5 340.2,66.4 341.7,66.2 343.2,66.1 344.6,65.9 346.1,65.7 347.6,65.5 349.0,65.4 350.5,65.3 352.0,65.2 353.4,65.0 354.9,64.8 356.3,64.6 357.8,64.4 359.3,64.2 360.7,64.1 362.2,64.0 363.7,63.9 365.1,63.8 366.6,63.7 368.0,63.6 369.5,63.3 371.0,63.2 372.4,63.0 373.9,62.9 375.4,62.8 376.8,62.6 378.3,62.5 379.8,62.3 381.2,62.2 382.7,62.1 384.1,61.9 385.6,61.7 387.1,61.6 388.5,61.5 390.0,61.4 391.5,61.3 392.9,61.2 394.4,61.0 395.9,60.9 397.3,60.8 398.8,60.7 400.2,60.4 401.7,60.2 403.2,64.7 404.6,63.8 406.1,62.1 407.6,61.4 409.0,60.6 410.5,59.7 412.0,59.1 413.4,58.8 414.9,58.1 416.3,57.2 417.8,56.4 419.3,56.2 420.7,55.8 422.2,55.6 423.7,55.0 425.1,54.6 426.6,54.0 428.0,53.8 429.5,53.3 431.0,53.0 432.4,52.7 433.9,52.5 435.4,52.2 436.8,52.0 438.3,51.5 439.8,51.1 441.2,50.7 442.7,50.1 444.1,49.7 445.6,49.5 447.1,49.3 448.5,49.1 450.0,48.7 451.5,48.3 452.9,48.0 454.4,47.1 455.9,46.4 457.3,46.1 458.8,45.9 460.2,45.6 461.7,45.1 463.2,44.7 464.6,44.1 466.1,43.8 467.6,43.5 469.0,43.2 470.5,42.7 472.0,42.5 473.4,42.3 474.9,42.2 476.3,42.0 477.8,41.7 479.3,41.5 480.7,41.3 482.2,41.1 483.7,40.9 485.1,40.6 486.6,40.5 488.0,40.2 489.5,40.1 491.0,39.9 492.4,39.7 493.9,39.6 495.4,39.4 496.8,39.3 498.3,39.2 499.8,38.9 501.2,38.8 502.7,38.6 504.1,38.4 505.6,38.2 507.1,38.1 508.5,37.8 510.0,37.7 511.5,37.6 512.9,37.5 514.4,37.3 515.9,37.1 517.3,37.1 518.8,36.9 520.2,36.7 521.7,36.5 523.2,36.3 524.6,36.1 526.1,35.9 527.6,35.7 529.0,35.5 530.5,35.3 532.0,35.0 533.4,34.8 534.9,34.6 536.3,34.3 537.8,34.1 539.3,33.8 540.7,33.6 542.2,33.4 543.7,33.2 545.1,33.1 546.6,33.0 548.0,32.8 549.5,32.7 551.0,32.5 552.4,32.3 553.9,32.1 555.4,31.9 556.8,31.7 558.3,31.4 559.8,31.2 561.2,30.9 562.7,30.7 564.1,30.6 565.6,30.4 567.1,30.3 568.5,30.2 570.0,30.0 570.0,30.0,120" />
  
  <!-- Linea principale -->
  <polyline fill="none" stroke="#0366d6" stroke-width="2.5" stroke-linecap="round" stroke-linejoin="round" points="30.0,120.0 31.5,119.5 32.9,118.9 34.4,118.4 35.9,118.2 37.3,118.0 38.8,117.3 40.2,116.9 41.7,116.6 43.2,116.0 44.6,115.7 46.1,115.3 47.6,115.2 49.0,114.9 50.5,114.4 52.0,114.0 53.4,113.6 54.9,113.4 56.3,113.2 57.8,112.9 59.3,112.6 60.7,112.3 62.2,112.1 63.7,111.8 65.1,110.8 66.6,110.5 68.0,110.1 69.5,109.7 71.0,109.4 72.4,109.0 73.9,108.8 75.4,108.7 76.8,108.4 78.3,107.9 79.8,107.4 81.2,107.2 82.7,106.8 84.1,106.7 85.6,106.6 87.1,106.5 88.5,106.1 90.0,105.9 91.5,105.8 92.9,105.4 94.4,104.9 95.9,104.8 97.3,104.7 98.8,104.4 100.2,104.0 101.7,103.7 103.2,103.3 104.6,102.9 106.1,102.5 107.6,102.5 109.0,102.2 110.5,101.8 112.0,101.4 113.4,101.1 114.9,101.0 116.3,100.8 117.8,100.6 119.3,100.1 120.7,99.7 122.2,99.3 123.7,98.9 125.1,98.7 126.6,98.6 128.0,98.5 129.5,98.2 131.0,97.9 132.4,97.8 133.9,97.6 135.4,97.5 136.8,97.3 138.3,97.1 139.8,97.0 141.2,96.9 142.7,96.5 144.1,96.3 145.6,96.2 147.1,96.0 148.5,96.0 150.0,96.0 151.5,102.8 152.9,102.2 154.4,101.6 155.9,100.9 157.3,99.0 158.8,97.7 160.2,96.3 161.7,95.8 163.2,95.2 164.6,94.3 166.1,93.2 167.6,92.4 169.0,92.2 170.5,91.9 172.0,91.1 173.4,90.6 174.9,90.2 176.3,89.8 177.8,89.6 179.3,89.5 180.7,89.1 182.2,88.5 183.7,88.0 185.1,87.6 186.6,87.0 188.0,86.8 189.5,86.6 191.0,86.2 192.4,85.8 193.9,85.4 195.4,85.1 196.8,84.9 198.3,84.9 199.8,84.6 201.2,84.3 202.7,84.0 204.1,83.8 205.6,83.6 207.1,83.4 208.5,83.2 210.0,83.0 211.5,82.9 212.9,82.7 214.4,82.3 215.9,82.1 217.3,81.7 218.8,81.6 220.2,81.4 221.7,81.2 223.2,81.1 224.6,80.9 226.1,80.4 227.6,80.1 229.0,79.7 230.5,79.5 232.0,79.5 233.4,79.3 234.9,79.1 236.3,78.8 237.8,78.6 239.3,78.2 240.7,78.0 242.2,77.9 243.7,77.8 245.1,77.7 246.6,77.5 248.0,77.3 249.5,77.1 251.0,76.8 252.4,76.7 253.9,76.6 255.4,76.5 256.8,76.4 258.3,76.1 259.8,75.9 261.2,75.7 262.7,75.5 264.1,75.2 265.6,75.1 267.1,75.0 268.5,74.8 270.0,74.5 271.5,74.2 272.9,74.0 274.4,73.8 275.9,73.4 277.3,73.4 278.8,73.2 280.2,73.1 281.7,72.9 283.2,72.8 284.6,72.6 286.1,72.4 287.6,72.2 289.0,72.1 290.5,71.9 292.0,71.8 293.4,71.7 294.9,71.5 296.3,71.3 297.8,71.1 299.3,70.9 300.7,70.8 302.2,70.7 303.7,70.5 305.1,70.4 306.6,70.3 308.0,70.1 309.5,69.8 311.0,69.5 312.4,69.3 313.9,69.1 315.4,69.0 316.8,69.0 318.3,68.8 319.8,68.5 321.2,68.4 322.7,68.3 324.1,68.1 325.6,67.9 327.1,67.7 328.5,67.6 330.0,67.5 331.5,67.2 332.9,67.1 334.4,66.8 335.9,66.6 337.3,66.5 338.8,66.5 340.2,66.4 341.7,66.2 343.2,66.1 344.6,65.9 346.1,65.7 347.6,65.5 349.0,65.4 350.5,65.3 352.0,65.2 353.4,65.0 354.9,64.8 356.3,64.6 357.8,64.4 359.3,64.2 360.7,64.1 362.2,64.0 363.7,63.9 365.1,63.8 366.6,63.7 368.0,63.6 369.5,63.3 371.0,63.2 372.4,63.0 373.9,62.9 375.4,62.8 376.8,62.6 378.3,62.5 379.8,62.3 381.2,62.2 382.7,62.1 384.1,61.9 385.6,61.7 387.1,61.6 388.5,61.5 390.0,61.4 391.5,61.3 392.9,61.2 394.4,61.0 395.9,60.9 397.3,60.8 398.8,60.7 400.2,60.4 401.7,60.2 403.2,64.7 404.6,63.8 406.1,62.1 407.6,61.4 409.0,60.6 410.5,59.7 412.0,59.1 413.4,58.8 414.9,58.1 416.3,57.2 417.8,56.4 419.3,56.2 420.7,55.8 422.2,55.6 423.7,55.0 425.1,54.6 426.6,54.0 428.0,53.8 429.5,53.3 431.0,53.0 432.4,52.7 433.9,52.5 435.4,52.2 436.8,52.0 438.3,51.5 439.8,51.1 441.2,50.7 442.7,50.1 444.1,49.7 445.6,49.5 447.1,49.3 448.5,49.1 450.0,48.7 451.5,48.3 452.9,48.0 454.4,47.1 455.9,46.4 457.3,46.1 458.8,45.9 460.2,45.6 461.7,45.1 463.2,44.7 464.6,44.1 466.1,43.8 467.6,43.5 469.0,43.2 470.5,42.7 472.0,42.5 473.4,42.3 474.9,42.2 476.3,42.0 477.8,41.7 479.3,41.5 480.7,41.3 482.2,41.1 483.7,40.9 485.1,40.6 486.6,40.5 488.0,40.2 489.5,40.1 491.0,39.9 492.4,39.7 493.9,39.6 495.4,39.4 496.8,39.3 498.3,39.2 499.8,38.9 501.2,38.8 502.7,38.6 504.1,38.4 505.6,38.2 507.1,38.1 508.5,37.8 510.0,37.7 511.5,37.6 512.9,37.5 514.4,37.3 515.9,37.1 517.3,37.1 518.8,36.9 520.2,36.7 521.7,36.5 523.2,36.3 524.6,36.1 526.1,35.9 527.6,35.7 529.0,35.5 530.5,35.3 532.0,35.0 533.4,34.8 534.9,34.6 536.3,34.3 537.8,34.1 539.3,33.8 540.7,33.6 542.2,33.4 543.7,33.2 545.1,33.1 546.6,33.0 548.0,32.8 549.5,32.7 551.0,32.5 552.4,32.3 553.9,32.1 555.4,31.9 556.8,31.7 558.3,31.4 559.8,31.2 561.2,30.9 562.7,30.7 564.1,30.6 565.6,30.4 567.1,30.3 568.5,30.2 570.0,30.0" />
  
  <!-- Punto finale luminoso -->
  <circle cx="570.0" cy="30.0" r="4" fill="#ffffff" stroke="#0366d6" stroke-width="2.5" />
</svg>