<svg width="600" height="150" viewBox="0 0 600 150" xmlns="http://www.w3.org/2000/svg">
  <defs>
    <filter id="shadow2" x="-2%" y="-2%" width="104%" height="108%">
      <feDropShadow dx="0" dy="2" stdDeviation="3" flood-opacity="0.1" />
    </filter>
    <linearGradient id="fillGrad" x1="0" y1="0" x2="0" y2="1">
      <stop offset="0%" stop-color="#0366d6" stop-opacity="0.3"/>
      <stop offset="100%" stop-color="#0366d6" stop-opacity="0.02"/>
    </linearGradient>
  </defs>
  <rect width="600" height="150" rx="12" fill="#ffffff" filter="url(#shadow2)" stroke="#e1e4e8" stroke-width="1"/>
  <text x="20" y="24" fill="#2b3137" font-family="-apple-system,BlinkMacSystemFont,'Segoe UI',Helvetica,Arial,sans-serif" font-size="14" font-weight="600">📈 Download Growth (Actual: 87.9k)</text>
  
  <!-- Area sotto la linea -->
  <polygon fill="url(#fillGrad)" points="30.0,120.0,120 30.0,120.0 31.2,119.5 32.4,119.0 33.7,118.5 34.9,118.4 36.1,118.2 37.3,117.6 38.6,117.3 39.8,117.0 41.0,116.4 42.2,116.2 43.5,115.9 44.7,115.7 45.9,115.4 47.1,115.1 48.4,114.6 49.6,114.3 50.8,114.1 52.0,114.0 53.3,113.7 54.5,113.4 55.7,113.1 56.9,113.0 58.2,112.8 59.4,111.8 60.6,111.6 61.8,111.2 63.1,110.9 64.3,110.6 65.5,110.3 66.7,110.1 68.0,109.9 69.2,109.7 70.4,109.2 71.6,108.8 72.9,108.6 74.1,108.3 75.3,108.2 76.5,108.1 77.8,108.0 79.0,107.7 80.2,107.5 81.4,107.4 82.7,107.1 83.9,106.6 85.1,106.4 86.3,106.4 87.6,106.2 88.8,105.8 90.0,105.5 91.2,105.1 92.4,104.8 93.7,104.5 94.9,104.4 96.1,104.2 97.3,103.8 98.6,103.5 99.8,103.2 101.0,103.1 102.2,102.9 103.5,102.7 104.7,102.3 105.9,101.9 107.1,101.6 108.4,101.3 109.6,101.1 110.8,101.0 112.0,100.9 113.3,100.6 114.5,100.4 115.7,100.2 116.9,100.1 118.2,100.0 119.4,99.8 120.6,99.7 121.8,99.6 123.1,99.5 124.3,99.1 125.5,98.9 126.7,98.8 128.0,98.7 129.2,98.6 130.4,98.6 131.6,104.7 132.9,104.1 134.1,103.6 135.3,103.0 136.5,101.4 137.8,100.2 139.0,99.0 140.2,98.5 141.4,98.0 142.7,97.1 143.9,96.2 145.1,95.5 146.3,95.2 147.6,95.0 148.8,94.3 150.0,93.8 151.2,93.5 152.4,93.1 153.7,93.0 154.9,92.9 156.1,92.6 157.3,92.0 158.6,91.6 159.8,91.2 161.0,90.7 162.2,90.5 163.5,90.3 164.7,89.9 165.9,89.6 167.1,89.2 168.4,89.0 169.6,88.8 170.8,88.8 172.0,88.5 173.3,88.2 174.5,88.0 175.7,87.8 176.9,87.6 178.2,87.5 179.4,87.3 180.6,87.1 181.8,87.0 183.1,86.8 184.3,86.5 185.5,86.3 186.7,86.0 188.0,85.8 189.2,85.7 190.4,85.5 191.6,85.4 192.9,85.3 194.1,84.8 195.3,84.5 196.5,84.1 197.8,84.0 199.0,84.0 200.2,83.8 201.4,83.6 202.7,83.4 203.9,83.2 205.1,82.9 206.3,82.7 207.6,82.6 208.8,82.5 210.0,82.4 211.2,82.2 212.4,82.1 213.7,81.9 214.9,81.6 216.1,81.5 217.3,81.4 218.6,81.3 219.8,81.2 221.0,81.0 222.2,80.8 223.5,80.6 224.7,80.4 225.9,80.2 227.1,80.1 228.4,80.0 229.6,79.9 230.8,79.6 232.0,79.3 233.3,79.1 234.5,78.9 235.7,78.6 236.9,78.5 238.2,78.4 239.4,78.3 240.6,78.2 241.8,78.0 243.1,77.8 244.3,77.7 245.5,77.5 246.7,77.4 248.0,77.3 249.2,77.2 250.4,77.1 251.6,76.9 252.9,76.7 254.1,76.6 255.3,76.4 256.5,76.3 257.8,76.2 259.0,76.0 260.2,75.9 261.4,75.8 262.7,75.6 263.9,75.4 265.1,75.1 266.3,74.9 267.6,74.8 268.8,74.7 270.0,74.6 271.2,74.5 272.4,74.2 273.7,74.1 274.9,74.0 276.1,73.8 277.3,73.7 278.6,73.5 279.8,73.4 281.0,73.3 282.2,73.1 283.5,72.9 284.7,72.7 285.9,72.5 287.1,72.5 288.4,72.4 289.6,72.3 290.8,72.2 292.0,72.1 293.3,71.9 294.5,71.8 295.7,71.6 296.9,71.5 298.2,71.4 299.4,71.3 300.6,71.1 301.8,70.9 303.1,70.7 304.3,70.6 305.5,70.4 306.7,70.3 308.0,70.2 309.2,70.2 310.4,70.1 311.6,70.0 312.9,69.8 314.1,69.6 315.3,69.5 316.5,69.4 317.8,69.3 319.0,69.1 320.2,69.0 321.4,68.8 322.7,68.7 323.9,68.6 325.1,68.5 326.3,68.3 327.6,68.2 328.8,68.1 330.0,68.0 331.2,67.9 332.4,67.8 333.7,67.7 334.9,67.6 336.1,67.5 337.3,67.4 338.6,67.3 339.8,67.0 341.0,66.8 342.2,70.8 343.5,70.0 344.7,68.5 345.9,67.9 347.1,67.2 348.4,66.4 349.6,65.9 350.8,65.6 352.0,65.0 353.3,64.2 354.5,63.5 355.7,63.3 356.9,63.0 358.2,62.7 359.4,62.3 360.6,61.8 361.8,61.3 363.1,61.1 364.3,60.7 365.5,60.5 366.7,60.2 368.0,60.0 369.2,59.7 370.4,59.5 371.6,59.1 372.9,58.8 374.1,58.4 375.3,57.8 376.5,57.5 377.8,57.3 379.0,57.2 380.2,57.0 381.4,56.6 382.7,56.3 383.9,56.0 385.1,55.2 386.3,54.6 387.6,54.3 388.8,54.1 390.0,53.8 391.2,53.4 392.4,53.1 393.7,52.6 394.9,52.3 396.1,52.0 397.3,51.7 398.6,51.3 399.8,51.1 401.0,51.0 402.2,50.8 403.5,50.6 404.7,50.4 405.9,50.3 407.1,50.0 408.4,49.8 409.6,49.7 410.8,49.4 412.0,49.3 413.3,49.1 414.5,48.9 415.7,48.8 416.9,48.6 418.2,48.5 419.4,48.4 420.6,48.2 421.8,48.1 423.1,48.0 424.3,47.8 425.5,47.6 426.7,47.5 428.0,47.3 429.2,47.2 430.4,47.0 431.6,46.9 432.9,46.8 434.1,46.6 435.3,46.5 436.5,46.3 437.8,46.3 439.0,46.1 440.2,45.9 441.4,45.8 442.7,45.6 443.9,45.4 445.1,45.3 446.3,45.0 447.6,44.8 448.8,44.7 450.0,44.5 451.2,44.3 452.4,44.1 453.7,43.9 454.9,43.7 456.1,43.4 457.3,43.2 458.6,43.0 459.8,42.9 461.0,42.8 462.2,42.7 463.5,42.5 464.7,42.4 465.9,42.2 467.1,42.1 468.4,41.9 469.6,41.7 470.8,41.5 472.0,41.2 473.3,41.1 474.5,40.8 475.7,40.7 476.9,40.5 478.2,40.4 479.4,40.3 480.6,40.2 481.8,40.0 483.1,39.8 484.3,39.7 485.5,39.4 486.7,39.3 488.0,39.1 489.2,39.0 490.4,38.9 491.6,38.8 492.9,38.7 494.1,38.6 495.3,38.4 496.5,38.3 497.8,38.2 499.0,38.0 500.2,37.8 501.4,37.7 502.7,37.6 503.9,37.4 505.1,37.3 506.3,37.2 507.6,37.1 508.8,37.0 510.0,36.8 511.2,36.7 512.4,36.4 513.7,36.3 514.9,36.0 516.1,35.9 517.3,35.8 518.6,35.7 519.8,35.6 521.0,35.5 522.2,35.5 523.5,35.3 524.7,35.2 525.9,35.2 527.1,35.0 528.4,34.9 529.6,34.6 530.8,34.5 532.0,34.4 533.3,34.3 534.5,34.1 535.7,34.0 536.9,33.9 538.2,33.8 539.4,33.7 540.6,33.5 541.8,33.4 543.1,33.1 544.3,32.9 545.5,32.7 546.7,32.6 548.0,32.4 549.2,32.2 550.4,32.1 551.6,32.0 552.9,31.9 554.1,31.8 555.3,31.7 556.5,31.5 557.8,31.3 559.0,31.2 560.2,31.0 561.4,30.9 562.7,30.7 563.9,30.5 565.1,30.4 566.3,30.3 567.6,30.2 568.8,30.1 570.0,30.0 570.0,30.0,120" />
  
  <!-- Linea principale -->
  <polyline fill="none" stroke="#0366d6" stroke-width="2.5" stroke-linecap="round" stroke-linejoin="round" points="30.0,120.0 31.2,119.5 32.4,119.0 33.7,118.5 34.9,118.4 36.1,118.2 37.3,117.6 38.6,117.3 39.8,117.0 41.0,116.4 42.2,116.2 43.5,115.9 44.7,115.7 45.9,115.4 47.1,115.1 48.4,114.6 49.6,114.3 50.8,114.1 52.0,114.0 53.3,113.7 54.5,113.4 55.7,113.1 56.9,113.0 58.2,112.8 59.4,111.8 60.6,111.6 61.8,111.2 63.1,110.9 64.3,110.6 65.5,110.3 66.7,110.1 68.0,109.9 69.2,109.7 70.4,109.2 71.6,108.8 72.9,108.6 74.1,108.3 75.3,108.2 76.5,108.1 77.8,108.0 79.0,107.7 80.2,107.5 81.4,107.4 82.7,107.1 83.9,106.6 85.1,106.4 86.3,106.4 87.6,106.2 88.8,105.8 90.0,105.5 91.2,105.1 92.4,104.8 93.7,104.5 94.9,104.4 96.1,104.2 97.3,103.8 98.6,103.5 99.8,103.2 101.0,103.1 102.2,102.9 103.5,102.7 104.7,102.3 105.9,101.9 107.1,101.6 108.4,101.3 109.6,101.1 110.8,101.0 112.0,100.9 113.3,100.6 114.5,100.4 115.7,100.2 116.9,100.1 118.2,100.0 119.4,99.8 120.6,99.7 121.8,99.6 123.1,99.5 124.3,99.1 125.5,98.9 126.7,98.8 128.0,98.7 129.2,98.6 130.4,98.6 131.6,104.7 132.9,104.1 134.1,103.6 135.3,103.0 136.5,101.4 137.8,100.2 139.0,99.0 140.2,98.5 141.4,98.0 142.7,97.1 143.9,96.2 145.1,95.5 146.3,95.2 147.6,95.0 148.8,94.3 150.0,93.8 151.2,93.5 152.4,93.1 153.7,93.0 154.9,92.9 156.1,92.6 157.3,92.0 158.6,91.6 159.8,91.2 161.0,90.7 162.2,90.5 163.5,90.3 164.7,89.9 165.9,89.6 167.1,89.2 168.4,89.0 169.6,88.8 170.8,88.8 172.0,88.5 173.3,88.2 174.5,88.0 175.7,87.8 176.9,87.6 178.2,87.5 179.4,87.3 180.6,87.1 181.8,87.0 183.1,86.8 184.3,86.5 185.5,86.3 186.7,86.0 188.0,85.8 189.2,85.7 190.4,85.5 191.6,85.4 192.9,85.3 194.1,84.8 195.3,84.5 196.5,84.1 197.8,84.0 199.0,84.0 200.2,83.8 201.4,83.6 202.7,83.4 203.9,83.2 205.1,82.9 206.3,82.7 207.6,82.6 208.8,82.5 210.0,82.4 211.2,82.2 212.4,82.1 213.7,81.9 214.9,81.6 216.1,81.5 217.3,81.4 218.6,81.3 219.8,81.2 221.0,81.0 222.2,80.8 223.5,80.6 224.7,80.4 225.9,80.2 227.1,80.1 228.4,80.0 229.6,79.9 230.8,79.6 232.0,79.3 233.3,79.1 234.5,78.9 235.7,78.6 236.9,78.5 238.2,78.4 239.4,78.3 240.6,78.2 241.8,78.0 243.1,77.8 244.3,77.7 245.5,77.5 246.7,77.4 248.0,77.3 249.2,77.2 250.4,77.1 251.6,76.9 252.9,76.7 254.1,76.6 255.3,76.4 256.5,76.3 257.8,76.2 259.0,76.0 260.2,75.9 261.4,75.8 262.7,75.6 263.9,75.4 265.1,75.1 266.3,74.9 267.6,74.8 268.8,74.7 270.0,74.6 271.2,74.5 272.4,74.2 273.7,74.1 274.9,74.0 276.1,73.8 277.3,73.7 278.6,73.5 279.8,73.4 281.0,73.3 282.2,73.1 283.5,72.9 284.7,72.7 285.9,72.5 287.1,72.5 288.4,72.4 289.6,72.3 290.8,72.2 292.0,72.1 293.3,71.9 294.5,71.8 295.7,71.6 296.9,71.5 298.2,71.4 299.4,71.3 300.6,71.1 301.8,70.9 303.1,70.7 304.3,70.6 305.5,70.4 306.7,70.3 308.0,70.2 309.2,70.2 310.4,70.1 311.6,70.0 312.9,69.8 314.1,69.6 315.3,69.5 316.5,69.4 317.8,69.3 319.0,69.1 320.2,69.0 321.4,68.8 322.7,68.7 323.9,68.6 325.1,68.5 326.3,68.3 327.6,68.2 328.8,68.1 330.0,68.0 331.2,67.9 332.4,67.8 333.7,67.7 334.9,67.6 336.1,67.5 337.3,67.4 338.6,67.3 339.8,67.0 341.0,66.8 342.2,70.8 343.5,70.0 344.7,68.5 345.9,67.9 347.1,67.2 348.4,66.4 349.6,65.9 350.8,65.6 352.0,65.0 353.3,64.2 354.5,63.5 355.7,63.3 356.9,63.0 358.2,62.7 359.4,62.3 360.6,61.8 361.8,61.3 363.1,61.1 364.3,60.7 365.5,60.5 366.7,60.2 368.0,60.0 369.2,59.7 370.4,59.5 371.6,59.1 372.9,58.8 374.1,58.4 375.3,57.8 376.5,57.5 377.8,57.3 379.0,57.2 380.2,57.0 381.4,56.6 382.7,56.3 383.9,56.0 385.1,55.2 386.3,54.6 387.6,54.3 388.8,54.1 390.0,53.8 391.2,53.4 392.4,53.1 393.7,52.6 394.9,52.3 396.1,52.0 397.3,51.7 398.6,51.3 399.8,51.1 401.0,51.0 402.2,50.8 403.5,50.6 404.7,50.4 405.9,50.3 407.1,50.0 408.4,49.8 409.6,49.7 410.8,49.4 412.0,49.3 413.3,49.1 414.5,48.9 415.7,48.8 416.9,48.6 418.2,48.5 419.4,48.4 420.6,48.2 421.8,48.1 423.1,48.0 424.3,47.8 425.5,47.6 426.7,47.5 428.0,47.3 429.2,47.2 430.4,47.0 431.6,46.9 432.9,46.8 434.1,46.6 435.3,46.5 436.5,46.3 437.8,46.3 439.0,46.1 440.2,45.9 441.4,45.8 442.7,45.6 443.9,45.4 445.1,45.3 446.3,45.0 447.6,44.8 448.8,44.7 450.0,44.5 451.2,44.3 452.4,44.1 453.7,43.9 454.9,43.7 456.1,43.4 457.3,43.2 458.6,43.0 459.8,42.9 461.0,42.8 462.2,42.7 463.5,42.5 464.7,42.4 465.9,42.2 467.1,42.1 468.4,41.9 469.6,41.7 470.8,41.5 472.0,41.2 473.3,41.1 474.5,40.8 475.7,40.7 476.9,40.5 478.2,40.4 479.4,40.3 480.6,40.2 481.8,40.0 483.1,39.8 484.3,39.7 485.5,39.4 486.7,39.3 488.0,39.1 489.2,39.0 490.4,38.9 491.6,38.8 492.9,38.7 494.1,38.6 495.3,38.4 496.5,38.3 497.8,38.2 499.0,38.0 500.2,37.8 501.4,37.7 502.7,37.6 503.9,37.4 505.1,37.3 506.3,37.2 507.6,37.1 508.8,37.0 510.0,36.8 511.2,36.7 512.4,36.4 513.7,36.3 514.9,36.0 516.1,35.9 517.3,35.8 518.6,35.7 519.8,35.6 521.0,35.5 522.2,35.5 523.5,35.3 524.7,35.2 525.9,35.2 527.1,35.0 528.4,34.9 529.6,34.6 530.8,34.5 532.0,34.4 533.3,34.3 534.5,34.1 535.7,34.0 536.9,33.9 538.2,33.8 539.4,33.7 540.6,33.5 541.8,33.4 543.1,33.1 544.3,32.9 545.5,32.7 546.7,32.6 548.0,32.4 549.2,32.2 550.4,32.1 551.6,32.0 552.9,31.9 554.1,31.8 555.3,31.7 556.5,31.5 557.8,31.3 559.0,31.2 560.2,31.0 561.4,30.9 562.7,30.7 563.9,30.5 565.1,30.4 566.3,30.3 567.6,30.2 568.8,30.1 570.0,30.0" />
  
  <!-- Punto finale luminoso -->
  <circle cx="570.0" cy="30.0" r="4" fill="#ffffff" stroke="#0366d6" stroke-width="2.5" />
</svg>