<svg width="600" height="150" viewBox="0 0 600 150" xmlns="http://www.w3.org/2000/svg">
  <defs>
    <filter id="shadow2" x="-2%" y="-2%" width="104%" height="108%">
      <feDropShadow dx="0" dy="2" stdDeviation="3" flood-opacity="0.1" />
    </filter>
    <linearGradient id="fillGrad" x1="0" y1="0" x2="0" y2="1">
      <stop offset="0%" stop-color="#0366d6" stop-opacity="0.3"/>
      <stop offset="100%" stop-color="#0366d6" stop-opacity="0.02"/>
    </linearGradient>
  </defs>
  <rect width="600" height="150" rx="12" fill="#ffffff" filter="url(#shadow2)" stroke="#e1e4e8" stroke-width="1"/>
  <text x="20" y="24" fill="#2b3137" font-family="-apple-system,BlinkMacSystemFont,'Segoe UI',Helvetica,Arial,sans-serif" font-size="14" font-weight="600">📈 Download Growth (Actual: 84.4k)</text>
  
  <!-- Area sotto la linea -->
  <polygon fill="url(#fillGrad)" points="30.0,120.0,120 30.0,120.0 31.6,119.4 33.2,118.8 34.8,118.3 36.3,118.1 37.9,117.8 39.5,117.2 41.1,116.7 42.7,116.4 44.3,115.7 45.8,115.4 47.4,115.0 49.0,114.8 50.6,114.5 52.2,114.1 53.8,113.6 55.3,113.2 56.9,112.9 58.5,112.8 60.1,112.5 61.7,112.1 63.3,111.8 64.8,111.6 66.4,111.3 68.0,110.2 69.6,109.9 71.2,109.5 72.8,109.1 74.3,108.7 75.9,108.3 77.5,108.1 79.1,107.9 80.7,107.6 82.3,107.1 83.8,106.6 85.4,106.3 87.0,106.0 88.6,105.9 90.2,105.8 91.8,105.6 93.3,105.2 94.9,105.0 96.5,104.9 98.1,104.5 99.7,103.9 101.3,103.8 102.8,103.7 104.4,103.4 106.0,103.0 107.6,102.7 109.2,102.2 110.8,101.8 112.3,101.4 113.9,101.3 115.5,101.1 117.1,100.6 118.7,100.2 120.3,99.9 121.8,99.7 123.4,99.5 125.0,99.3 126.6,98.8 128.2,98.4 129.8,98.0 131.3,97.6 132.9,97.4 134.5,97.2 136.1,97.1 137.7,96.7 139.3,96.5 140.9,96.3 142.4,96.2 144.0,96.0 145.6,95.8 147.2,95.6 148.8,95.5 150.4,95.4 151.9,95.0 153.5,94.7 155.1,94.7 156.7,94.5 158.3,94.4 159.9,94.4 161.4,101.7 163.0,101.0 164.6,100.4 166.2,99.7 167.8,97.7 169.4,96.3 170.9,94.8 172.5,94.3 174.1,93.6 175.7,92.6 177.3,91.5 178.9,90.7 180.4,90.4 182.0,90.1 183.6,89.3 185.2,88.7 186.8,88.3 188.4,87.8 189.9,87.6 191.5,87.6 193.1,87.1 194.7,86.4 196.3,86.0 197.9,85.5 199.4,84.9 201.0,84.7 202.6,84.5 204.2,84.0 205.8,83.6 207.4,83.2 208.9,82.8 210.5,82.7 212.1,82.6 213.7,82.3 215.3,82.0 216.9,81.7 218.4,81.4 220.0,81.2 221.6,81.0 223.2,80.8 224.8,80.6 226.4,80.5 227.9,80.3 229.5,79.9 231.1,79.6 232.7,79.3 234.3,79.1 235.9,78.9 237.4,78.7 239.0,78.6 240.6,78.4 242.2,77.9 243.8,77.5 245.4,77.1 247.0,76.9 248.5,76.8 250.1,76.6 251.7,76.4 253.3,76.1 254.9,75.9 256.5,75.6 258.0,75.3 259.6,75.2 261.2,75.1 262.8,74.9 264.4,74.8 266.0,74.6 267.5,74.4 269.1,74.1 270.7,73.9 272.3,73.8 273.9,73.7 275.5,73.6 277.0,73.3 278.6,73.1 280.2,72.8 281.8,72.6 283.4,72.4 285.0,72.2 286.5,72.1 288.1,71.9 289.7,71.6 291.3,71.3 292.9,71.1 294.5,70.8 296.0,70.4 297.6,70.3 299.2,70.2 300.8,70.1 302.4,69.9 304.0,69.7 305.5,69.5 307.1,69.4 308.7,69.2 310.3,69.0 311.9,68.8 313.5,68.7 315.0,68.6 316.6,68.4 318.2,68.1 319.8,68.0 321.4,67.8 323.0,67.6 324.5,67.5 326.1,67.3 327.7,67.2 329.3,67.1 330.9,66.9 332.5,66.6 334.0,66.2 335.6,66.0 337.2,65.8 338.8,65.8 340.4,65.7 342.0,65.5 343.5,65.2 345.1,65.0 346.7,64.9 348.3,64.7 349.9,64.6 351.5,64.3 353.0,64.2 354.6,64.1 356.2,63.8 357.8,63.6 359.4,63.4 361.0,63.2 362.6,63.1 364.1,63.0 365.7,62.9 367.3,62.8 368.9,62.6 370.5,62.4 372.1,62.2 373.6,62.0 375.2,61.9 376.8,61.8 378.4,61.6 380.0,61.5 381.6,61.3 383.1,61.0 384.7,60.8 386.3,60.6 387.9,60.5 389.5,60.4 391.1,60.3 392.6,60.2 394.2,60.1 395.8,59.9 397.4,59.7 399.0,59.5 400.6,59.4 402.1,59.3 403.7,59.1 405.3,58.9 406.9,58.7 408.5,58.6 410.1,58.5 411.6,58.3 413.2,58.1 414.8,58.0 416.4,57.8 418.0,57.7 419.6,57.6 421.1,57.5 422.7,57.4 424.3,57.2 425.9,57.1 427.5,57.0 429.1,56.9 430.6,56.5 432.2,56.3 433.8,61.1 435.4,60.1 437.0,58.3 438.6,57.6 440.1,56.8 441.7,55.8 443.3,55.2 444.9,54.8 446.5,54.2 448.1,53.1 449.6,52.3 451.2,52.1 452.8,51.7 454.4,51.4 456.0,50.9 457.6,50.4 459.1,49.8 460.7,49.5 462.3,49.0 463.9,48.7 465.5,48.3 467.1,48.1 468.7,47.8 470.2,47.6 471.8,47.0 473.4,46.7 475.0,46.2 476.6,45.6 478.2,45.2 479.7,45.0 481.3,44.8 482.9,44.5 484.5,44.1 486.1,43.7 487.7,43.4 489.2,42.4 490.8,41.7 492.4,41.3 494.0,41.1 495.6,40.8 497.2,40.3 498.7,39.8 500.3,39.3 501.9,38.9 503.5,38.5 505.1,38.2 506.7,37.8 508.2,37.5 509.8,37.3 511.4,37.1 513.0,36.9 514.6,36.6 516.2,36.5 517.7,36.2 519.3,36.0 520.9,35.8 522.5,35.5 524.1,35.3 525.7,35.1 527.2,34.9 528.8,34.7 530.4,34.5 532.0,34.4 533.6,34.2 535.2,34.1 536.7,34.0 538.3,33.7 539.9,33.6 541.5,33.4 543.1,33.1 544.7,32.9 546.2,32.8 547.8,32.5 549.4,32.4 551.0,32.3 552.6,32.1 554.2,32.0 555.7,31.8 557.3,31.7 558.9,31.5 560.5,31.3 562.1,31.2 563.7,30.9 565.2,30.7 566.8,30.5 568.4,30.2 570.0,30.0 570.0,30.0,120" />
  
  <!-- Linea principale -->
  <polyline fill="none" stroke="#0366d6" stroke-width="2.5" stroke-linecap="round" stroke-linejoin="round" points="30.0,120.0 31.6,119.4 33.2,118.8 34.8,118.3 36.3,118.1 37.9,117.8 39.5,117.2 41.1,116.7 42.7,116.4 44.3,115.7 45.8,115.4 47.4,115.0 49.0,114.8 50.6,114.5 52.2,114.1 53.8,113.6 55.3,113.2 56.9,112.9 58.5,112.8 60.1,112.5 61.7,112.1 63.3,111.8 64.8,111.6 66.4,111.3 68.0,110.2 69.6,109.9 71.2,109.5 72.8,109.1 74.3,108.7 75.9,108.3 77.5,108.1 79.1,107.9 80.7,107.6 82.3,107.1 83.8,106.6 85.4,106.3 87.0,106.0 88.6,105.9 90.2,105.8 91.8,105.6 93.3,105.2 94.9,105.0 96.5,104.9 98.1,104.5 99.7,103.9 101.3,103.8 102.8,103.7 104.4,103.4 106.0,103.0 107.6,102.7 109.2,102.2 110.8,101.8 112.3,101.4 113.9,101.3 115.5,101.1 117.1,100.6 118.7,100.2 120.3,99.9 121.8,99.7 123.4,99.5 125.0,99.3 126.6,98.8 128.2,98.4 129.8,98.0 131.3,97.6 132.9,97.4 134.5,97.2 136.1,97.1 137.7,96.7 139.3,96.5 140.9,96.3 142.4,96.2 144.0,96.0 145.6,95.8 147.2,95.6 148.8,95.5 150.4,95.4 151.9,95.0 153.5,94.7 155.1,94.7 156.7,94.5 158.3,94.4 159.9,94.4 161.4,101.7 163.0,101.0 164.6,100.4 166.2,99.7 167.8,97.7 169.4,96.3 170.9,94.8 172.5,94.3 174.1,93.6 175.7,92.6 177.3,91.5 178.9,90.7 180.4,90.4 182.0,90.1 183.6,89.3 185.2,88.7 186.8,88.3 188.4,87.8 189.9,87.6 191.5,87.6 193.1,87.1 194.7,86.4 196.3,86.0 197.9,85.5 199.4,84.9 201.0,84.7 202.6,84.5 204.2,84.0 205.8,83.6 207.4,83.2 208.9,82.8 210.5,82.7 212.1,82.6 213.7,82.3 215.3,82.0 216.9,81.7 218.4,81.4 220.0,81.2 221.6,81.0 223.2,80.8 224.8,80.6 226.4,80.5 227.9,80.3 229.5,79.9 231.1,79.6 232.7,79.3 234.3,79.1 235.9,78.9 237.4,78.7 239.0,78.6 240.6,78.4 242.2,77.9 243.8,77.5 245.4,77.1 247.0,76.9 248.5,76.8 250.1,76.6 251.7,76.4 253.3,76.1 254.9,75.9 256.5,75.6 258.0,75.3 259.6,75.2 261.2,75.1 262.8,74.9 264.4,74.8 266.0,74.6 267.5,74.4 269.1,74.1 270.7,73.9 272.3,73.8 273.9,73.7 275.5,73.6 277.0,73.3 278.6,73.1 280.2,72.8 281.8,72.6 283.4,72.4 285.0,72.2 286.5,72.1 288.1,71.9 289.7,71.6 291.3,71.3 292.9,71.1 294.5,70.8 296.0,70.4 297.6,70.3 299.2,70.2 300.8,70.1 302.4,69.9 304.0,69.7 305.5,69.5 307.1,69.4 308.7,69.2 310.3,69.0 311.9,68.8 313.5,68.7 315.0,68.6 316.6,68.4 318.2,68.1 319.8,68.0 321.4,67.8 323.0,67.6 324.5,67.5 326.1,67.3 327.7,67.2 329.3,67.1 330.9,66.9 332.5,66.6 334.0,66.2 335.6,66.0 337.2,65.8 338.8,65.8 340.4,65.7 342.0,65.5 343.5,65.2 345.1,65.0 346.7,64.9 348.3,64.7 349.9,64.6 351.5,64.3 353.0,64.2 354.6,64.1 356.2,63.8 357.8,63.6 359.4,63.4 361.0,63.2 362.6,63.1 364.1,63.0 365.7,62.9 367.3,62.8 368.9,62.6 370.5,62.4 372.1,62.2 373.6,62.0 375.2,61.9 376.8,61.8 378.4,61.6 380.0,61.5 381.6,61.3 383.1,61.0 384.7,60.8 386.3,60.6 387.9,60.5 389.5,60.4 391.1,60.3 392.6,60.2 394.2,60.1 395.8,59.9 397.4,59.7 399.0,59.5 400.6,59.4 402.1,59.3 403.7,59.1 405.3,58.9 406.9,58.7 408.5,58.6 410.1,58.5 411.6,58.3 413.2,58.1 414.8,58.0 416.4,57.8 418.0,57.7 419.6,57.6 421.1,57.5 422.7,57.4 424.3,57.2 425.9,57.1 427.5,57.0 429.1,56.9 430.6,56.5 432.2,56.3 433.8,61.1 435.4,60.1 437.0,58.3 438.6,57.6 440.1,56.8 441.7,55.8 443.3,55.2 444.9,54.8 446.5,54.2 448.1,53.1 449.6,52.3 451.2,52.1 452.8,51.7 454.4,51.4 456.0,50.9 457.6,50.4 459.1,49.8 460.7,49.5 462.3,49.0 463.9,48.7 465.5,48.3 467.1,48.1 468.7,47.8 470.2,47.6 471.8,47.0 473.4,46.7 475.0,46.2 476.6,45.6 478.2,45.2 479.7,45.0 481.3,44.8 482.9,44.5 484.5,44.1 486.1,43.7 487.7,43.4 489.2,42.4 490.8,41.7 492.4,41.3 494.0,41.1 495.6,40.8 497.2,40.3 498.7,39.8 500.3,39.3 501.9,38.9 503.5,38.5 505.1,38.2 506.7,37.8 508.2,37.5 509.8,37.3 511.4,37.1 513.0,36.9 514.6,36.6 516.2,36.5 517.7,36.2 519.3,36.0 520.9,35.8 522.5,35.5 524.1,35.3 525.7,35.1 527.2,34.9 528.8,34.7 530.4,34.5 532.0,34.4 533.6,34.2 535.2,34.1 536.7,34.0 538.3,33.7 539.9,33.6 541.5,33.4 543.1,33.1 544.7,32.9 546.2,32.8 547.8,32.5 549.4,32.4 551.0,32.3 552.6,32.1 554.2,32.0 555.7,31.8 557.3,31.7 558.9,31.5 560.5,31.3 562.1,31.2 563.7,30.9 565.2,30.7 566.8,30.5 568.4,30.2 570.0,30.0" />
  
  <!-- Punto finale luminoso -->
  <circle cx="570.0" cy="30.0" r="4" fill="#ffffff" stroke="#0366d6" stroke-width="2.5" />
</svg>