<svg width="600" height="150" viewBox="0 0 600 150" xmlns="http://www.w3.org/2000/svg">
  <defs>
    <filter id="shadow2" x="-2%" y="-2%" width="104%" height="108%">
      <feDropShadow dx="0" dy="2" stdDeviation="3" flood-opacity="0.1" />
    </filter>
    <linearGradient id="fillGrad" x1="0" y1="0" x2="0" y2="1">
      <stop offset="0%" stop-color="#0366d6" stop-opacity="0.3"/>
      <stop offset="100%" stop-color="#0366d6" stop-opacity="0.02"/>
    </linearGradient>
  </defs>
  <rect width="600" height="150" rx="12" fill="#ffffff" filter="url(#shadow2)" stroke="#e1e4e8" stroke-width="1"/>
  <text x="20" y="24" fill="#2b3137" font-family="-apple-system,BlinkMacSystemFont,'Segoe UI',Helvetica,Arial,sans-serif" font-size="14" font-weight="600">📈 Download Growth (Actual: 84.7k)</text>
  
  <!-- Area sotto la linea -->
  <polygon fill="url(#fillGrad)" points="30.0,120.0,120 30.0,120.0 31.6,119.4 33.1,118.8 34.7,118.3 36.2,118.1 37.8,117.9 39.4,117.2 40.9,116.8 42.5,116.5 44.0,115.8 45.6,115.5 47.2,115.1 48.7,114.9 50.3,114.6 51.8,114.2 53.4,113.7 55.0,113.3 56.5,113.0 58.1,112.9 59.7,112.6 61.2,112.2 62.8,111.9 64.3,111.7 65.9,111.4 67.5,110.4 69.0,110.0 70.6,109.6 72.1,109.2 73.7,108.8 75.3,108.5 76.8,108.3 78.4,108.1 79.9,107.8 81.5,107.3 83.1,106.8 84.6,106.5 86.2,106.2 87.7,106.0 89.3,106.0 90.9,105.8 92.4,105.4 94.0,105.2 95.5,105.1 97.1,104.7 98.7,104.1 100.2,104.0 101.8,103.9 103.4,103.6 104.9,103.2 106.5,102.9 108.0,102.4 109.6,102.1 111.2,101.7 112.7,101.6 114.3,101.3 115.8,100.9 117.4,100.5 119.0,100.1 120.5,100.0 122.1,99.8 123.6,99.6 125.2,99.1 126.8,98.7 128.3,98.3 129.9,97.9 131.4,97.7 133.0,97.5 134.6,97.4 136.1,97.0 137.7,96.8 139.2,96.6 140.8,96.5 142.4,96.3 143.9,96.1 145.5,96.0 147.1,95.9 148.6,95.7 150.2,95.3 151.7,95.1 153.3,95.0 154.9,94.8 156.4,94.7 158.0,94.7 159.5,102.0 161.1,101.3 162.7,100.6 164.2,99.9 165.8,98.0 167.3,96.6 168.9,95.1 170.5,94.6 172.0,94.0 173.6,93.0 175.1,91.9 176.7,91.0 178.3,90.7 179.8,90.4 181.4,89.7 182.9,89.1 184.5,88.7 186.1,88.2 187.6,88.1 189.2,88.0 190.8,87.6 192.3,86.9 193.9,86.4 195.4,85.9 197.0,85.4 198.6,85.1 200.1,84.9 201.7,84.5 203.2,84.0 204.8,83.6 206.4,83.3 207.9,83.2 209.5,83.1 211.0,82.8 212.6,82.5 214.2,82.2 215.7,81.9 217.3,81.7 218.8,81.5 220.4,81.3 222.0,81.1 223.5,81.0 225.1,80.8 226.6,80.4 228.2,80.1 229.8,79.8 231.3,79.6 232.9,79.4 234.5,79.3 236.0,79.1 237.6,78.9 239.1,78.4 240.7,78.1 242.3,77.6 243.8,77.5 245.4,77.4 246.9,77.2 248.5,77.0 250.1,76.7 251.6,76.5 253.2,76.1 254.7,75.9 256.3,75.8 257.9,75.7 259.4,75.5 261.0,75.4 262.5,75.2 264.1,75.0 265.7,74.7 267.2,74.5 268.8,74.4 270.3,74.3 271.9,74.2 273.5,73.9 275.0,73.7 276.6,73.4 278.2,73.2 279.7,73.0 281.3,72.8 282.8,72.7 284.4,72.5 286.0,72.2 287.5,71.9 289.1,71.7 290.6,71.5 292.2,71.1 293.8,71.0 295.3,70.9 296.9,70.8 298.4,70.6 300.0,70.4 301.6,70.2 303.1,70.0 304.7,69.8 306.2,69.7 307.8,69.5 309.4,69.4 310.9,69.3 312.5,69.1 314.0,68.8 315.6,68.7 317.2,68.4 318.7,68.3 320.3,68.2 321.8,68.0 323.4,67.9 325.0,67.8 326.5,67.6 328.1,67.3 329.7,66.9 331.2,66.7 332.8,66.5 334.3,66.5 335.9,66.4 337.5,66.2 339.0,65.9 340.6,65.8 342.1,65.6 343.7,65.4 345.3,65.3 346.8,65.1 348.4,64.9 349.9,64.8 351.5,64.6 353.1,64.4 354.6,64.1 356.2,63.9 357.7,63.8 359.3,63.7 360.9,63.7 362.4,63.5 364.0,63.3 365.5,63.2 367.1,63.0 368.7,62.8 370.2,62.7 371.8,62.5 373.4,62.4 374.9,62.3 376.5,62.0 378.0,61.8 379.6,61.6 381.2,61.4 382.7,61.3 384.3,61.2 385.8,61.1 387.4,61.0 389.0,60.9 390.5,60.7 392.1,60.5 393.6,60.3 395.2,60.1 396.8,60.0 398.3,59.9 399.9,59.7 401.4,59.5 403.0,59.4 404.6,59.3 406.1,59.1 407.7,58.9 409.2,58.8 410.8,58.6 412.4,58.5 413.9,58.4 415.5,58.3 417.1,58.2 418.6,58.0 420.2,57.9 421.7,57.8 423.3,57.7 424.9,57.4 426.4,57.1 428.0,61.8 429.5,60.9 431.1,59.1 432.7,58.5 434.2,57.6 435.8,56.6 437.3,56.1 438.9,55.7 440.5,55.0 442.0,54.0 443.6,53.2 445.1,53.0 446.7,52.6 448.3,52.3 449.8,51.8 451.4,51.3 452.9,50.7 454.5,50.4 456.1,49.9 457.6,49.6 459.2,49.3 460.8,49.0 462.3,48.8 463.9,48.5 465.4,48.0 467.0,47.6 468.6,47.2 470.1,46.5 471.7,46.1 473.2,45.9 474.8,45.7 476.4,45.5 477.9,45.1 479.5,44.7 481.0,44.4 482.6,43.4 484.2,42.7 485.7,42.3 487.3,42.1 488.8,41.8 490.4,41.3 492.0,40.9 493.5,40.3 495.1,40.0 496.6,39.6 498.2,39.3 499.8,38.8 501.3,38.6 502.9,38.4 504.5,38.2 506.0,38.0 507.6,37.7 509.1,37.6 510.7,37.3 512.3,37.1 513.8,36.9 515.4,36.6 516.9,36.4 518.5,36.2 520.1,36.0 521.6,35.8 523.2,35.6 524.7,35.5 526.3,35.3 527.9,35.2 529.4,35.1 531.0,34.8 532.5,34.7 534.1,34.5 535.7,34.3 537.2,34.0 538.8,33.9 540.3,33.7 541.9,33.6 543.5,33.4 545.0,33.3 546.6,33.1 548.2,32.9 549.7,32.9 551.3,32.7 552.8,32.5 554.4,32.3 556.0,32.0 557.5,31.8 559.1,31.7 560.6,31.4 562.2,31.2 563.8,31.0 565.3,30.7 566.9,30.5 568.4,30.3 570.0,30.0 570.0,30.0,120" />
  
  <!-- Linea principale -->
  <polyline fill="none" stroke="#0366d6" stroke-width="2.5" stroke-linecap="round" stroke-linejoin="round" points="30.0,120.0 31.6,119.4 33.1,118.8 34.7,118.3 36.2,118.1 37.8,117.9 39.4,117.2 40.9,116.8 42.5,116.5 44.0,115.8 45.6,115.5 47.2,115.1 48.7,114.9 50.3,114.6 51.8,114.2 53.4,113.7 55.0,113.3 56.5,113.0 58.1,112.9 59.7,112.6 61.2,112.2 62.8,111.9 64.3,111.7 65.9,111.4 67.5,110.4 69.0,110.0 70.6,109.6 72.1,109.2 73.7,108.8 75.3,108.5 76.8,108.3 78.4,108.1 79.9,107.8 81.5,107.3 83.1,106.8 84.6,106.5 86.2,106.2 87.7,106.0 89.3,106.0 90.9,105.8 92.4,105.4 94.0,105.2 95.5,105.1 97.1,104.7 98.7,104.1 100.2,104.0 101.8,103.9 103.4,103.6 104.9,103.2 106.5,102.9 108.0,102.4 109.6,102.1 111.2,101.7 112.7,101.6 114.3,101.3 115.8,100.9 117.4,100.5 119.0,100.1 120.5,100.0 122.1,99.8 123.6,99.6 125.2,99.1 126.8,98.7 128.3,98.3 129.9,97.9 131.4,97.7 133.0,97.5 134.6,97.4 136.1,97.0 137.7,96.8 139.2,96.6 140.8,96.5 142.4,96.3 143.9,96.1 145.5,96.0 147.1,95.9 148.6,95.7 150.2,95.3 151.7,95.1 153.3,95.0 154.9,94.8 156.4,94.7 158.0,94.7 159.5,102.0 161.1,101.3 162.7,100.6 164.2,99.9 165.8,98.0 167.3,96.6 168.9,95.1 170.5,94.6 172.0,94.0 173.6,93.0 175.1,91.9 176.7,91.0 178.3,90.7 179.8,90.4 181.4,89.7 182.9,89.1 184.5,88.7 186.1,88.2 187.6,88.1 189.2,88.0 190.8,87.6 192.3,86.9 193.9,86.4 195.4,85.9 197.0,85.4 198.6,85.1 200.1,84.9 201.7,84.5 203.2,84.0 204.8,83.6 206.4,83.3 207.9,83.2 209.5,83.1 211.0,82.8 212.6,82.5 214.2,82.2 215.7,81.9 217.3,81.7 218.8,81.5 220.4,81.3 222.0,81.1 223.5,81.0 225.1,80.8 226.6,80.4 228.2,80.1 229.8,79.8 231.3,79.6 232.9,79.4 234.5,79.3 236.0,79.1 237.6,78.9 239.1,78.4 240.7,78.1 242.3,77.6 243.8,77.5 245.4,77.4 246.9,77.2 248.5,77.0 250.1,76.7 251.6,76.5 253.2,76.1 254.7,75.9 256.3,75.8 257.9,75.7 259.4,75.5 261.0,75.4 262.5,75.2 264.1,75.0 265.7,74.7 267.2,74.5 268.8,74.4 270.3,74.3 271.9,74.2 273.5,73.9 275.0,73.7 276.6,73.4 278.2,73.2 279.7,73.0 281.3,72.8 282.8,72.7 284.4,72.5 286.0,72.2 287.5,71.9 289.1,71.7 290.6,71.5 292.2,71.1 293.8,71.0 295.3,70.9 296.9,70.8 298.4,70.6 300.0,70.4 301.6,70.2 303.1,70.0 304.7,69.8 306.2,69.7 307.8,69.5 309.4,69.4 310.9,69.3 312.5,69.1 314.0,68.8 315.6,68.7 317.2,68.4 318.7,68.3 320.3,68.2 321.8,68.0 323.4,67.9 325.0,67.8 326.5,67.6 328.1,67.3 329.7,66.9 331.2,66.7 332.8,66.5 334.3,66.5 335.9,66.4 337.5,66.2 339.0,65.9 340.6,65.8 342.1,65.6 343.7,65.4 345.3,65.3 346.8,65.1 348.4,64.9 349.9,64.8 351.5,64.6 353.1,64.4 354.6,64.1 356.2,63.9 357.7,63.8 359.3,63.7 360.9,63.7 362.4,63.5 364.0,63.3 365.5,63.2 367.1,63.0 368.7,62.8 370.2,62.7 371.8,62.5 373.4,62.4 374.9,62.3 376.5,62.0 378.0,61.8 379.6,61.6 381.2,61.4 382.7,61.3 384.3,61.2 385.8,61.1 387.4,61.0 389.0,60.9 390.5,60.7 392.1,60.5 393.6,60.3 395.2,60.1 396.8,60.0 398.3,59.9 399.9,59.7 401.4,59.5 403.0,59.4 404.6,59.3 406.1,59.1 407.7,58.9 409.2,58.8 410.8,58.6 412.4,58.5 413.9,58.4 415.5,58.3 417.1,58.2 418.6,58.0 420.2,57.9 421.7,57.8 423.3,57.7 424.9,57.4 426.4,57.1 428.0,61.8 429.5,60.9 431.1,59.1 432.7,58.5 434.2,57.6 435.8,56.6 437.3,56.1 438.9,55.7 440.5,55.0 442.0,54.0 443.6,53.2 445.1,53.0 446.7,52.6 448.3,52.3 449.8,51.8 451.4,51.3 452.9,50.7 454.5,50.4 456.1,49.9 457.6,49.6 459.2,49.3 460.8,49.0 462.3,48.8 463.9,48.5 465.4,48.0 467.0,47.6 468.6,47.2 470.1,46.5 471.7,46.1 473.2,45.9 474.8,45.7 476.4,45.5 477.9,45.1 479.5,44.7 481.0,44.4 482.6,43.4 484.2,42.7 485.7,42.3 487.3,42.1 488.8,41.8 490.4,41.3 492.0,40.9 493.5,40.3 495.1,40.0 496.6,39.6 498.2,39.3 499.8,38.8 501.3,38.6 502.9,38.4 504.5,38.2 506.0,38.0 507.6,37.7 509.1,37.6 510.7,37.3 512.3,37.1 513.8,36.9 515.4,36.6 516.9,36.4 518.5,36.2 520.1,36.0 521.6,35.8 523.2,35.6 524.7,35.5 526.3,35.3 527.9,35.2 529.4,35.1 531.0,34.8 532.5,34.7 534.1,34.5 535.7,34.3 537.2,34.0 538.8,33.9 540.3,33.7 541.9,33.6 543.5,33.4 545.0,33.3 546.6,33.1 548.2,32.9 549.7,32.9 551.3,32.7 552.8,32.5 554.4,32.3 556.0,32.0 557.5,31.8 559.1,31.7 560.6,31.4 562.2,31.2 563.8,31.0 565.3,30.7 566.9,30.5 568.4,30.3 570.0,30.0" />
  
  <!-- Punto finale luminoso -->
  <circle cx="570.0" cy="30.0" r="4" fill="#ffffff" stroke="#0366d6" stroke-width="2.5" />
</svg>