<svg width="600" height="150" viewBox="0 0 600 150" xmlns="http://www.w3.org/2000/svg">
  <defs>
    <filter id="shadow2" x="-2%" y="-2%" width="104%" height="108%">
      <feDropShadow dx="0" dy="2" stdDeviation="3" flood-opacity="0.1" />
    </filter>
    <linearGradient id="fillGrad" x1="0" y1="0" x2="0" y2="1">
      <stop offset="0%" stop-color="#0366d6" stop-opacity="0.3"/>
      <stop offset="100%" stop-color="#0366d6" stop-opacity="0.02"/>
    </linearGradient>
  </defs>
  <rect width="600" height="150" rx="12" fill="#ffffff" filter="url(#shadow2)" stroke="#e1e4e8" stroke-width="1"/>
  <text x="20" y="24" fill="#2b3137" font-family="-apple-system,BlinkMacSystemFont,'Segoe UI',Helvetica,Arial,sans-serif" font-size="14" font-weight="600">📈 Download Growth (Actual: 84.3k)</text>
  
  <!-- Area sotto la linea -->
  <polygon fill="url(#fillGrad)" points="30.0,120.0,120 30.0,120.0 31.6,119.4 33.2,118.8 34.8,118.2 36.4,118.1 38.0,117.8 39.6,117.1 41.2,116.7 42.8,116.4 44.4,115.7 46.0,115.3 47.6,115.0 49.2,114.8 50.8,114.5 52.4,114.0 54.0,113.5 55.6,113.1 57.2,112.9 58.8,112.7 60.4,112.4 62.0,112.0 63.6,111.7 65.3,111.5 66.9,111.2 68.5,110.1 70.1,109.8 71.7,109.4 73.3,109.0 74.9,108.6 76.5,108.2 78.1,108.0 79.7,107.8 81.3,107.5 82.9,107.0 84.5,106.5 86.1,106.2 87.7,105.8 89.3,105.7 90.9,105.6 92.5,105.4 94.1,105.1 95.7,104.9 97.3,104.7 98.9,104.3 100.5,103.8 102.1,103.6 103.7,103.5 105.3,103.3 106.9,102.8 108.5,102.5 110.1,102.0 111.7,101.7 113.3,101.2 114.9,101.1 116.5,100.9 118.1,100.5 119.7,100.0 121.3,99.7 122.9,99.5 124.5,99.3 126.1,99.1 127.7,98.6 129.3,98.2 130.9,97.8 132.6,97.4 134.2,97.1 135.8,97.0 137.4,96.8 139.0,96.5 140.6,96.3 142.2,96.1 143.8,95.9 145.4,95.8 147.0,95.6 148.6,95.4 150.2,95.3 151.8,95.2 153.4,94.7 155.0,94.5 156.6,94.4 158.2,94.3 159.8,94.2 161.4,94.2 163.0,101.5 164.6,100.8 166.2,100.2 167.8,99.5 169.4,97.5 171.0,96.1 172.6,94.6 174.2,94.0 175.8,93.4 177.4,92.3 179.0,91.2 180.6,90.4 182.2,90.1 183.8,89.8 185.4,89.0 187.0,88.4 188.6,88.0 190.2,87.5 191.8,87.3 193.4,87.2 195.0,86.8 196.6,86.1 198.2,85.6 199.9,85.1 201.5,84.6 203.1,84.3 204.7,84.1 206.3,83.6 207.9,83.2 209.5,82.8 211.1,82.5 212.7,82.3 214.3,82.2 215.9,82.0 217.5,81.6 219.1,81.3 220.7,81.1 222.3,80.9 223.9,80.6 225.5,80.4 227.1,80.2 228.7,80.1 230.3,79.9 231.9,79.5 233.5,79.2 235.1,78.9 236.7,78.7 238.3,78.5 239.9,78.3 241.5,78.2 243.1,78.0 244.7,77.4 246.3,77.1 247.9,76.6 249.5,76.5 251.1,76.4 252.7,76.2 254.3,76.0 255.9,75.7 257.5,75.4 259.1,75.1 260.7,74.9 262.3,74.8 263.9,74.6 265.5,74.5 267.2,74.3 268.8,74.1 270.4,73.9 272.0,73.6 273.6,73.5 275.2,73.4 276.8,73.2 278.4,73.1 280.0,72.8 281.6,72.6 283.2,72.3 284.8,72.1 286.4,71.9 288.0,71.7 289.6,71.6 291.2,71.4 292.8,71.1 294.4,70.8 296.0,70.6 297.6,70.4 299.2,70.0 300.8,69.9 302.4,69.7 304.0,69.6 305.6,69.4 307.2,69.2 308.8,69.0 310.4,68.9 312.0,68.7 313.6,68.5 315.2,68.3 316.8,68.2 318.4,68.1 320.0,67.9 321.6,67.6 323.2,67.5 324.8,67.2 326.4,67.1 328.0,67.0 329.6,66.8 331.2,66.7 332.8,66.5 334.5,66.4 336.1,66.0 337.7,65.7 339.3,65.5 340.9,65.3 342.5,65.2 344.1,65.2 345.7,64.9 347.3,64.6 348.9,64.5 350.5,64.4 352.1,64.2 353.7,64.0 355.3,63.8 356.9,63.7 358.5,63.5 360.1,63.3 361.7,63.1 363.3,62.8 364.9,62.6 366.5,62.5 368.1,62.4 369.7,62.4 371.3,62.2 372.9,62.0 374.5,61.8 376.1,61.7 377.7,61.5 379.3,61.3 380.9,61.2 382.5,61.1 384.1,60.9 385.7,60.7 387.3,60.4 388.9,60.2 390.5,60.1 392.1,59.9 393.7,59.8 395.3,59.7 396.9,59.6 398.5,59.5 400.1,59.3 401.8,59.1 403.4,58.9 405.0,58.8 406.6,58.7 408.2,58.5 409.8,58.3 411.4,58.1 413.0,58.0 414.6,57.9 416.2,57.7 417.8,57.5 419.4,57.4 421.0,57.2 422.6,57.1 424.2,57.0 425.8,56.9 427.4,56.7 429.0,56.6 430.6,56.5 432.2,56.4 433.8,56.3 435.4,55.9 437.0,55.7 438.6,60.5 440.2,59.6 441.8,57.7 443.4,57.0 445.0,56.2 446.6,55.1 448.2,54.6 449.8,54.2 451.4,53.5 453.0,52.5 454.6,51.7 456.2,51.4 457.8,51.0 459.4,50.7 461.0,50.2 462.6,49.7 464.2,49.1 465.8,48.8 467.4,48.3 469.1,48.0 470.7,47.6 472.3,47.4 473.9,47.1 475.5,46.9 477.1,46.3 478.7,46.0 480.3,45.5 481.9,44.8 483.5,44.4 485.1,44.2 486.7,44.0 488.3,43.8 489.9,43.3 491.5,42.9 493.1,42.6 494.7,41.6 496.3,40.9 497.9,40.5 499.5,40.3 501.1,40.0 502.7,39.5 504.3,39.1 505.9,38.5 507.5,38.1 509.1,37.7 510.7,37.4 512.3,36.9 513.9,36.7 515.5,36.5 517.1,36.3 518.7,36.1 520.3,35.8 521.9,35.7 523.5,35.4 525.1,35.2 526.7,35.0 528.3,34.7 529.9,34.5 531.5,34.3 533.1,34.1 534.7,33.8 536.4,33.7 538.0,33.5 539.6,33.4 541.2,33.2 542.8,33.1 544.4,32.9 546.0,32.7 547.6,32.5 549.2,32.3 550.8,32.1 552.4,31.9 554.0,31.7 555.6,31.6 557.2,31.4 558.8,31.3 560.4,31.1 562.0,30.9 563.6,30.8 565.2,30.7 566.8,30.4 568.4,30.3 570.0,30.0 570.0,30.0,120" />
  
  <!-- Linea principale -->
  <polyline fill="none" stroke="#0366d6" stroke-width="2.5" stroke-linecap="round" stroke-linejoin="round" points="30.0,120.0 31.6,119.4 33.2,118.8 34.8,118.2 36.4,118.1 38.0,117.8 39.6,117.1 41.2,116.7 42.8,116.4 44.4,115.7 46.0,115.3 47.6,115.0 49.2,114.8 50.8,114.5 52.4,114.0 54.0,113.5 55.6,113.1 57.2,112.9 58.8,112.7 60.4,112.4 62.0,112.0 63.6,111.7 65.3,111.5 66.9,111.2 68.5,110.1 70.1,109.8 71.7,109.4 73.3,109.0 74.9,108.6 76.5,108.2 78.1,108.0 79.7,107.8 81.3,107.5 82.9,107.0 84.5,106.5 86.1,106.2 87.7,105.8 89.3,105.7 90.9,105.6 92.5,105.4 94.1,105.1 95.7,104.9 97.3,104.7 98.9,104.3 100.5,103.8 102.1,103.6 103.7,103.5 105.3,103.3 106.9,102.8 108.5,102.5 110.1,102.0 111.7,101.7 113.3,101.2 114.9,101.1 116.5,100.9 118.1,100.5 119.7,100.0 121.3,99.7 122.9,99.5 124.5,99.3 126.1,99.1 127.7,98.6 129.3,98.2 130.9,97.8 132.6,97.4 134.2,97.1 135.8,97.0 137.4,96.8 139.0,96.5 140.6,96.3 142.2,96.1 143.8,95.9 145.4,95.8 147.0,95.6 148.6,95.4 150.2,95.3 151.8,95.2 153.4,94.7 155.0,94.5 156.6,94.4 158.2,94.3 159.8,94.2 161.4,94.2 163.0,101.5 164.6,100.8 166.2,100.2 167.8,99.5 169.4,97.5 171.0,96.1 172.6,94.6 174.2,94.0 175.8,93.4 177.4,92.3 179.0,91.2 180.6,90.4 182.2,90.1 183.8,89.8 185.4,89.0 187.0,88.4 188.6,88.0 190.2,87.5 191.8,87.3 193.4,87.2 195.0,86.8 196.6,86.1 198.2,85.6 199.9,85.1 201.5,84.6 203.1,84.3 204.7,84.1 206.3,83.6 207.9,83.2 209.5,82.8 211.1,82.5 212.7,82.3 214.3,82.2 215.9,82.0 217.5,81.6 219.1,81.3 220.7,81.1 222.3,80.9 223.9,80.6 225.5,80.4 227.1,80.2 228.7,80.1 230.3,79.9 231.9,79.5 233.5,79.2 235.1,78.9 236.7,78.7 238.3,78.5 239.9,78.3 241.5,78.2 243.1,78.0 244.7,77.4 246.3,77.1 247.9,76.6 249.5,76.5 251.1,76.4 252.7,76.2 254.3,76.0 255.9,75.7 257.5,75.4 259.1,75.1 260.7,74.9 262.3,74.8 263.9,74.6 265.5,74.5 267.2,74.3 268.8,74.1 270.4,73.9 272.0,73.6 273.6,73.5 275.2,73.4 276.8,73.2 278.4,73.1 280.0,72.8 281.6,72.6 283.2,72.3 284.8,72.1 286.4,71.9 288.0,71.7 289.6,71.6 291.2,71.4 292.8,71.1 294.4,70.8 296.0,70.6 297.6,70.4 299.2,70.0 300.8,69.9 302.4,69.7 304.0,69.6 305.6,69.4 307.2,69.2 308.8,69.0 310.4,68.9 312.0,68.7 313.6,68.5 315.2,68.3 316.8,68.2 318.4,68.1 320.0,67.9 321.6,67.6 323.2,67.5 324.8,67.2 326.4,67.1 328.0,67.0 329.6,66.8 331.2,66.7 332.8,66.5 334.5,66.4 336.1,66.0 337.7,65.7 339.3,65.5 340.9,65.3 342.5,65.2 344.1,65.2 345.7,64.9 347.3,64.6 348.9,64.5 350.5,64.4 352.1,64.2 353.7,64.0 355.3,63.8 356.9,63.7 358.5,63.5 360.1,63.3 361.7,63.1 363.3,62.8 364.9,62.6 366.5,62.5 368.1,62.4 369.7,62.4 371.3,62.2 372.9,62.0 374.5,61.8 376.1,61.7 377.7,61.5 379.3,61.3 380.9,61.2 382.5,61.1 384.1,60.9 385.7,60.7 387.3,60.4 388.9,60.2 390.5,60.1 392.1,59.9 393.7,59.8 395.3,59.7 396.9,59.6 398.5,59.5 400.1,59.3 401.8,59.1 403.4,58.9 405.0,58.8 406.6,58.7 408.2,58.5 409.8,58.3 411.4,58.1 413.0,58.0 414.6,57.9 416.2,57.7 417.8,57.5 419.4,57.4 421.0,57.2 422.6,57.1 424.2,57.0 425.8,56.9 427.4,56.7 429.0,56.6 430.6,56.5 432.2,56.4 433.8,56.3 435.4,55.9 437.0,55.7 438.6,60.5 440.2,59.6 441.8,57.7 443.4,57.0 445.0,56.2 446.6,55.1 448.2,54.6 449.8,54.2 451.4,53.5 453.0,52.5 454.6,51.7 456.2,51.4 457.8,51.0 459.4,50.7 461.0,50.2 462.6,49.7 464.2,49.1 465.8,48.8 467.4,48.3 469.1,48.0 470.7,47.6 472.3,47.4 473.9,47.1 475.5,46.9 477.1,46.3 478.7,46.0 480.3,45.5 481.9,44.8 483.5,44.4 485.1,44.2 486.7,44.0 488.3,43.8 489.9,43.3 491.5,42.9 493.1,42.6 494.7,41.6 496.3,40.9 497.9,40.5 499.5,40.3 501.1,40.0 502.7,39.5 504.3,39.1 505.9,38.5 507.5,38.1 509.1,37.7 510.7,37.4 512.3,36.9 513.9,36.7 515.5,36.5 517.1,36.3 518.7,36.1 520.3,35.8 521.9,35.7 523.5,35.4 525.1,35.2 526.7,35.0 528.3,34.7 529.9,34.5 531.5,34.3 533.1,34.1 534.7,33.8 536.4,33.7 538.0,33.5 539.6,33.4 541.2,33.2 542.8,33.1 544.4,32.9 546.0,32.7 547.6,32.5 549.2,32.3 550.8,32.1 552.4,31.9 554.0,31.7 555.6,31.6 557.2,31.4 558.8,31.3 560.4,31.1 562.0,30.9 563.6,30.8 565.2,30.7 566.8,30.4 568.4,30.3 570.0,30.0" />
  
  <!-- Punto finale luminoso -->
  <circle cx="570.0" cy="30.0" r="4" fill="#ffffff" stroke="#0366d6" stroke-width="2.5" />
</svg>