<svg width="600" height="150" viewBox="0 0 600 150" xmlns="http://www.w3.org/2000/svg">
  <defs>
    <filter id="shadow2" x="-2%" y="-2%" width="104%" height="108%">
      <feDropShadow dx="0" dy="2" stdDeviation="3" flood-opacity="0.1" />
    </filter>
    <linearGradient id="fillGrad" x1="0" y1="0" x2="0" y2="1">
      <stop offset="0%" stop-color="#0366d6" stop-opacity="0.3"/>
      <stop offset="100%" stop-color="#0366d6" stop-opacity="0.02"/>
    </linearGradient>
  </defs>
  <rect width="600" height="150" rx="12" fill="#ffffff" filter="url(#shadow2)" stroke="#e1e4e8" stroke-width="1"/>
  <text x="20" y="24" fill="#2b3137" font-family="-apple-system,BlinkMacSystemFont,'Segoe UI',Helvetica,Arial,sans-serif" font-size="14" font-weight="600">📈 Download Growth (Actual: 83.6k)</text>
  
  <!-- Area sotto la linea -->
  <polygon fill="url(#fillGrad)" points="30.0,120.0,120 30.0,120.0 31.7,119.4 33.4,118.7 35.1,118.2 36.8,118.0 38.5,117.7 40.3,117.0 42.0,116.5 43.7,116.2 45.4,115.5 47.1,115.1 48.8,114.8 50.5,114.6 52.2,114.2 53.9,113.8 55.6,113.2 57.3,112.8 59.1,112.6 60.8,112.4 62.5,112.1 64.2,111.7 65.9,111.3 67.6,111.2 69.3,110.9 71.0,109.7 72.7,109.4 74.4,108.9 76.1,108.5 77.8,108.1 79.6,107.7 81.3,107.5 83.0,107.3 84.7,107.0 86.4,106.4 88.1,105.9 89.8,105.6 91.5,105.2 93.2,105.1 94.9,105.0 96.6,104.8 98.4,104.5 100.1,104.2 101.8,104.1 103.5,103.7 105.2,103.1 106.9,102.9 108.6,102.8 110.3,102.6 112.0,102.1 113.7,101.7 115.4,101.2 117.2,100.9 118.9,100.4 120.6,100.3 122.3,100.1 124.0,99.6 125.7,99.2 127.4,98.8 129.1,98.7 130.8,98.4 132.5,98.2 134.2,97.7 135.9,97.2 137.7,96.8 139.4,96.4 141.1,96.2 142.8,96.0 144.5,95.9 146.2,95.5 147.9,95.3 149.6,95.1 151.3,94.9 153.0,94.8 154.7,94.5 156.5,94.3 158.2,94.2 159.9,94.1 161.6,93.7 163.3,93.4 165.0,93.3 166.7,93.1 168.4,93.1 170.1,93.1 171.8,100.8 173.5,100.0 175.3,99.3 177.0,98.6 178.7,96.5 180.4,95.0 182.1,93.5 183.8,92.9 185.5,92.2 187.2,91.1 188.9,90.0 190.6,89.1 192.3,88.8 194.1,88.5 195.8,87.6 197.5,87.0 199.2,86.6 200.9,86.1 202.6,85.9 204.3,85.8 206.0,85.4 207.7,84.7 209.4,84.2 211.1,83.6 212.8,83.1 214.6,82.8 216.3,82.6 218.0,82.1 219.7,81.6 221.4,81.2 223.1,80.9 224.8,80.7 226.5,80.6 228.2,80.3 229.9,80.0 231.6,79.7 233.4,79.4 235.1,79.2 236.8,79.0 238.5,78.7 240.2,78.5 241.9,78.4 243.6,78.2 245.3,77.8 247.0,77.5 248.7,77.1 250.4,76.9 252.2,76.7 253.9,76.5 255.6,76.4 257.3,76.2 259.0,75.6 260.7,75.3 262.4,74.8 264.1,74.6 265.8,74.6 267.5,74.3 269.2,74.1 270.9,73.8 272.7,73.5 274.4,73.2 276.1,73.0 277.8,72.9 279.5,72.7 281.2,72.5 282.9,72.4 284.6,72.1 286.3,72.0 288.0,71.6 289.7,71.5 291.5,71.4 293.2,71.2 294.9,71.1 296.6,70.8 298.3,70.6 300.0,70.3 301.7,70.1 303.4,69.8 305.1,69.7 306.8,69.5 308.5,69.4 310.3,69.0 312.0,68.7 313.7,68.5 315.4,68.2 317.1,67.8 318.8,67.7 320.5,67.6 322.2,67.5 323.9,67.2 325.6,67.1 327.3,66.8 329.1,66.7 330.8,66.5 332.5,66.3 334.2,66.1 335.9,66.0 337.6,65.9 339.3,65.7 341.0,65.4 342.7,65.2 344.4,65.0 346.1,64.9 347.8,64.7 349.6,64.5 351.3,64.4 353.0,64.3 354.7,64.1 356.4,63.7 358.1,63.4 359.8,63.1 361.5,63.0 363.2,62.9 364.9,62.8 366.6,62.6 368.4,62.3 370.1,62.1 371.8,62.0 373.5,61.8 375.2,61.6 376.9,61.4 378.6,61.3 380.3,61.1 382.0,60.9 383.7,60.7 385.4,60.4 387.2,60.2 388.9,60.1 390.6,60.0 392.3,59.9 394.0,59.7 395.7,59.6 397.4,59.4 399.1,59.2 400.8,59.0 402.5,58.8 404.2,58.7 405.9,58.5 407.7,58.4 409.4,58.1 411.1,57.9 412.8,57.7 414.5,57.5 416.2,57.4 417.9,57.3 419.6,57.1 421.3,57.0 423.0,56.9 424.7,56.8 426.5,56.5 428.2,56.3 429.9,56.1 431.6,56.0 433.3,55.9 435.0,55.7 436.7,55.5 438.4,55.4 440.1,55.2 441.8,55.1 443.5,54.9 445.3,54.7 447.0,54.5 448.7,54.4 450.4,54.3 452.1,54.2 453.8,54.0 455.5,53.9 457.2,53.7 458.9,53.7 460.6,53.5 462.3,53.2 464.1,52.9 465.8,58.0 467.5,57.0 469.2,55.1 470.9,54.3 472.6,53.5 474.3,52.4 476.0,51.8 477.7,51.4 479.4,50.7 481.1,49.6 482.8,48.7 484.6,48.5 486.3,48.1 488.0,47.8 489.7,47.2 491.4,46.7 493.1,46.0 494.8,45.8 496.5,45.2 498.2,44.9 499.9,44.5 501.6,44.3 503.4,44.0 505.1,43.7 506.8,43.2 508.5,42.8 510.2,42.3 511.9,41.6 513.6,41.2 515.3,41.0 517.0,40.8 518.7,40.5 520.4,40.1 522.2,39.7 523.9,39.3 525.6,38.3 527.3,37.5 529.0,37.1 530.7,36.9 532.4,36.6 534.1,36.0 535.8,35.6 537.5,35.0 539.2,34.6 540.9,34.2 542.7,33.9 544.4,33.4 546.1,33.1 547.8,32.9 549.5,32.7 551.2,32.5 552.9,32.2 554.6,32.0 556.3,31.8 558.0,31.5 559.7,31.3 561.5,31.0 563.2,30.8 564.9,30.6 566.6,30.4 568.3,30.2 570.0,30.0 570.0,30.0,120" />
  
  <!-- Linea principale -->
  <polyline fill="none" stroke="#0366d6" stroke-width="2.5" stroke-linecap="round" stroke-linejoin="round" points="30.0,120.0 31.7,119.4 33.4,118.7 35.1,118.2 36.8,118.0 38.5,117.7 40.3,117.0 42.0,116.5 43.7,116.2 45.4,115.5 47.1,115.1 48.8,114.8 50.5,114.6 52.2,114.2 53.9,113.8 55.6,113.2 57.3,112.8 59.1,112.6 60.8,112.4 62.5,112.1 64.2,111.7 65.9,111.3 67.6,111.2 69.3,110.9 71.0,109.7 72.7,109.4 74.4,108.9 76.1,108.5 77.8,108.1 79.6,107.7 81.3,107.5 83.0,107.3 84.7,107.0 86.4,106.4 88.1,105.9 89.8,105.6 91.5,105.2 93.2,105.1 94.9,105.0 96.6,104.8 98.4,104.5 100.1,104.2 101.8,104.1 103.5,103.7 105.2,103.1 106.9,102.9 108.6,102.8 110.3,102.6 112.0,102.1 113.7,101.7 115.4,101.2 117.2,100.9 118.9,100.4 120.6,100.3 122.3,100.1 124.0,99.6 125.7,99.2 127.4,98.8 129.1,98.7 130.8,98.4 132.5,98.2 134.2,97.7 135.9,97.2 137.7,96.8 139.4,96.4 141.1,96.2 142.8,96.0 144.5,95.9 146.2,95.5 147.9,95.3 149.6,95.1 151.3,94.9 153.0,94.8 154.7,94.5 156.5,94.3 158.2,94.2 159.9,94.1 161.6,93.7 163.3,93.4 165.0,93.3 166.7,93.1 168.4,93.1 170.1,93.1 171.8,100.8 173.5,100.0 175.3,99.3 177.0,98.6 178.7,96.5 180.4,95.0 182.1,93.5 183.8,92.9 185.5,92.2 187.2,91.1 188.9,90.0 190.6,89.1 192.3,88.8 194.1,88.5 195.8,87.6 197.5,87.0 199.2,86.6 200.9,86.1 202.6,85.9 204.3,85.8 206.0,85.4 207.7,84.7 209.4,84.2 211.1,83.6 212.8,83.1 214.6,82.8 216.3,82.6 218.0,82.1 219.7,81.6 221.4,81.2 223.1,80.9 224.8,80.7 226.5,80.6 228.2,80.3 229.9,80.0 231.6,79.7 233.4,79.4 235.1,79.2 236.8,79.0 238.5,78.7 240.2,78.5 241.9,78.4 243.6,78.2 245.3,77.8 247.0,77.5 248.7,77.1 250.4,76.9 252.2,76.7 253.9,76.5 255.6,76.4 257.3,76.2 259.0,75.6 260.7,75.3 262.4,74.8 264.1,74.6 265.8,74.6 267.5,74.3 269.2,74.1 270.9,73.8 272.7,73.5 274.4,73.2 276.1,73.0 277.8,72.9 279.5,72.7 281.2,72.5 282.9,72.4 284.6,72.1 286.3,72.0 288.0,71.6 289.7,71.5 291.5,71.4 293.2,71.2 294.9,71.1 296.6,70.8 298.3,70.6 300.0,70.3 301.7,70.1 303.4,69.8 305.1,69.7 306.8,69.5 308.5,69.4 310.3,69.0 312.0,68.7 313.7,68.5 315.4,68.2 317.1,67.8 318.8,67.7 320.5,67.6 322.2,67.5 323.9,67.2 325.6,67.1 327.3,66.8 329.1,66.7 330.8,66.5 332.5,66.3 334.2,66.1 335.9,66.0 337.6,65.9 339.3,65.7 341.0,65.4 342.7,65.2 344.4,65.0 346.1,64.9 347.8,64.7 349.6,64.5 351.3,64.4 353.0,64.3 354.7,64.1 356.4,63.7 358.1,63.4 359.8,63.1 361.5,63.0 363.2,62.9 364.9,62.8 366.6,62.6 368.4,62.3 370.1,62.1 371.8,62.0 373.5,61.8 375.2,61.6 376.9,61.4 378.6,61.3 380.3,61.1 382.0,60.9 383.7,60.7 385.4,60.4 387.2,60.2 388.9,60.1 390.6,60.0 392.3,59.9 394.0,59.7 395.7,59.6 397.4,59.4 399.1,59.2 400.8,59.0 402.5,58.8 404.2,58.7 405.9,58.5 407.7,58.4 409.4,58.1 411.1,57.9 412.8,57.7 414.5,57.5 416.2,57.4 417.9,57.3 419.6,57.1 421.3,57.0 423.0,56.9 424.7,56.8 426.5,56.5 428.2,56.3 429.9,56.1 431.6,56.0 433.3,55.9 435.0,55.7 436.7,55.5 438.4,55.4 440.1,55.2 441.8,55.1 443.5,54.9 445.3,54.7 447.0,54.5 448.7,54.4 450.4,54.3 452.1,54.2 453.8,54.0 455.5,53.9 457.2,53.7 458.9,53.7 460.6,53.5 462.3,53.2 464.1,52.9 465.8,58.0 467.5,57.0 469.2,55.1 470.9,54.3 472.6,53.5 474.3,52.4 476.0,51.8 477.7,51.4 479.4,50.7 481.1,49.6 482.8,48.7 484.6,48.5 486.3,48.1 488.0,47.8 489.7,47.2 491.4,46.7 493.1,46.0 494.8,45.8 496.5,45.2 498.2,44.9 499.9,44.5 501.6,44.3 503.4,44.0 505.1,43.7 506.8,43.2 508.5,42.8 510.2,42.3 511.9,41.6 513.6,41.2 515.3,41.0 517.0,40.8 518.7,40.5 520.4,40.1 522.2,39.7 523.9,39.3 525.6,38.3 527.3,37.5 529.0,37.1 530.7,36.9 532.4,36.6 534.1,36.0 535.8,35.6 537.5,35.0 539.2,34.6 540.9,34.2 542.7,33.9 544.4,33.4 546.1,33.1 547.8,32.9 549.5,32.7 551.2,32.5 552.9,32.2 554.6,32.0 556.3,31.8 558.0,31.5 559.7,31.3 561.5,31.0 563.2,30.8 564.9,30.6 566.6,30.4 568.3,30.2 570.0,30.0" />
  
  <!-- Punto finale luminoso -->
  <circle cx="570.0" cy="30.0" r="4" fill="#ffffff" stroke="#0366d6" stroke-width="2.5" />
</svg>