<svg width="600" height="150" viewBox="0 0 600 150" xmlns="http://www.w3.org/2000/svg">
  <defs>
    <filter id="shadow2" x="-2%" y="-2%" width="104%" height="108%">
      <feDropShadow dx="0" dy="2" stdDeviation="3" flood-opacity="0.1" />
    </filter>
    <linearGradient id="fillGrad" x1="0" y1="0" x2="0" y2="1">
      <stop offset="0%" stop-color="#0366d6" stop-opacity="0.3"/>
      <stop offset="100%" stop-color="#0366d6" stop-opacity="0.02"/>
    </linearGradient>
  </defs>
  <rect width="600" height="150" rx="12" fill="#ffffff" filter="url(#shadow2)" stroke="#e1e4e8" stroke-width="1"/>
  <text x="20" y="24" fill="#2b3137" font-family="-apple-system,BlinkMacSystemFont,'Segoe UI',Helvetica,Arial,sans-serif" font-size="14" font-weight="600">📈 Download Growth (Actual: 86.0k)</text>
  
  <!-- Area sotto la linea -->
  <polygon fill="url(#fillGrad)" points="30.0,120.0,120 30.0,120.0 31.4,119.5 32.8,118.9 34.2,118.4 35.6,118.3 37.0,118.0 38.5,117.4 39.9,117.0 41.3,116.7 42.7,116.1 44.1,115.8 45.5,115.5 46.9,115.3 48.3,115.0 49.7,114.6 51.1,114.1 52.6,113.8 54.0,113.5 55.4,113.4 56.8,113.1 58.2,112.8 59.6,112.5 61.0,112.3 62.4,112.0 63.8,111.1 65.2,110.8 66.7,110.4 68.1,110.0 69.5,109.6 70.9,109.3 72.3,109.1 73.7,108.9 75.1,108.6 76.5,108.2 77.9,107.8 79.3,107.5 80.8,107.1 82.2,107.0 83.6,107.0 85.0,106.8 86.4,106.5 87.8,106.3 89.2,106.1 90.6,105.8 92.0,105.2 93.4,105.1 94.9,105.0 96.3,104.8 97.7,104.4 99.1,104.1 100.5,103.7 101.9,103.4 103.3,103.0 104.7,102.9 106.1,102.7 107.5,102.3 109.0,101.9 110.4,101.6 111.8,101.4 113.2,101.2 114.6,101.0 116.0,100.6 117.4,100.2 118.8,99.8 120.2,99.4 121.6,99.3 123.1,99.1 124.5,99.0 125.9,98.7 127.3,98.5 128.7,98.3 130.1,98.2 131.5,98.0 132.9,97.8 134.3,97.7 135.7,97.6 137.2,97.5 138.6,97.1 140.0,96.8 141.4,96.8 142.8,96.6 144.2,96.5 145.6,96.5 147.0,103.2 148.4,102.6 149.8,102.0 151.3,101.4 152.7,99.6 154.1,98.3 155.5,96.9 156.9,96.4 158.3,95.8 159.7,94.9 161.1,93.9 162.5,93.1 163.9,92.8 165.4,92.6 166.8,91.8 168.2,91.3 169.6,90.9 171.0,90.5 172.4,90.3 173.8,90.3 175.2,89.9 176.6,89.2 178.0,88.8 179.5,88.3 180.9,87.8 182.3,87.6 183.7,87.4 185.1,87.0 186.5,86.6 187.9,86.2 189.3,85.9 190.7,85.8 192.1,85.7 193.6,85.5 195.0,85.1 196.4,84.9 197.8,84.7 199.2,84.5 200.6,84.3 202.0,84.1 203.4,83.9 204.8,83.8 206.2,83.6 207.7,83.2 209.1,83.0 210.5,82.7 211.9,82.5 213.3,82.3 214.7,82.2 216.1,82.0 217.5,81.9 218.9,81.4 220.3,81.0 221.7,80.6 223.2,80.5 224.6,80.4 226.0,80.3 227.4,80.0 228.8,79.8 230.2,79.6 231.6,79.3 233.0,79.1 234.4,79.0 235.8,78.8 237.3,78.7 238.7,78.5 240.1,78.3 241.5,78.2 242.9,77.9 244.3,77.8 245.7,77.7 247.1,77.5 248.5,77.4 249.9,77.2 251.4,77.0 252.8,76.7 254.2,76.5 255.6,76.3 257.0,76.2 258.4,76.1 259.8,75.9 261.2,75.6 262.6,75.3 264.0,75.1 265.5,74.9 266.9,74.6 268.3,74.5 269.7,74.4 271.1,74.3 272.5,74.1 273.9,73.9 275.3,73.7 276.7,73.6 278.1,73.4 279.6,73.3 281.0,73.1 282.4,73.0 283.8,72.9 285.2,72.7 286.6,72.4 288.0,72.3 289.4,72.1 290.8,72.0 292.2,71.9 293.7,71.7 295.1,71.6 296.5,71.5 297.9,71.3 299.3,71.0 300.7,70.7 302.1,70.5 303.5,70.3 304.9,70.3 306.3,70.2 307.8,70.0 309.2,69.7 310.6,69.6 312.0,69.5 313.4,69.3 314.8,69.2 316.2,69.0 317.6,68.9 319.0,68.8 320.4,68.5 321.9,68.3 323.3,68.1 324.7,67.9 326.1,67.8 327.5,67.8 328.9,67.7 330.3,67.5 331.7,67.4 333.1,67.2 334.5,67.0 336.0,66.9 337.4,66.7 338.8,66.6 340.2,66.5 341.6,66.4 343.0,66.1 344.4,65.9 345.8,65.8 347.2,65.6 348.6,65.5 350.1,65.4 351.5,65.3 352.9,65.2 354.3,65.1 355.7,64.9 357.1,64.7 358.5,64.6 359.9,64.4 361.3,64.3 362.7,64.2 364.2,64.0 365.6,63.8 367.0,63.7 368.4,63.6 369.8,63.5 371.2,63.3 372.6,63.1 374.0,63.0 375.4,62.9 376.8,62.8 378.3,62.7 379.7,62.6 381.1,62.4 382.5,62.3 383.9,62.3 385.3,62.1 386.7,61.8 388.1,61.6 389.5,66.0 390.9,65.1 392.3,63.5 393.8,62.8 395.2,62.1 396.6,61.1 398.0,60.6 399.4,60.3 400.8,59.6 402.2,58.7 403.6,58.0 405.0,57.8 406.4,57.4 407.9,57.1 409.3,56.6 410.7,56.1 412.1,55.6 413.5,55.4 414.9,54.9 416.3,54.6 417.7,54.3 419.1,54.1 420.5,53.8 422.0,53.6 423.4,53.1 424.8,52.8 426.2,52.4 427.6,51.8 429.0,51.4 430.4,51.2 431.8,51.0 433.2,50.8 434.6,50.4 436.1,50.1 437.5,49.8 438.9,48.9 440.3,48.2 441.7,47.8 443.1,47.7 444.5,47.4 445.9,46.9 447.3,46.5 448.7,46.0 450.2,45.7 451.6,45.3 453.0,45.0 454.4,44.6 455.8,44.4 457.2,44.2 458.6,44.0 460.0,43.9 461.4,43.6 462.8,43.4 464.3,43.2 465.7,43.0 467.1,42.8 468.5,42.5 469.9,42.4 471.3,42.2 472.7,42.0 474.1,41.8 475.5,41.7 476.9,41.5 478.4,41.4 479.8,41.2 481.2,41.1 482.6,40.9 484.0,40.8 485.4,40.6 486.8,40.4 488.2,40.2 489.6,40.0 491.0,39.8 492.5,39.7 493.9,39.6 495.3,39.4 496.7,39.3 498.1,39.1 499.5,39.1 500.9,38.9 502.3,38.7 503.7,38.6 505.1,38.3 506.6,38.1 508.0,37.9 509.4,37.7 510.8,37.5 512.2,37.3 513.6,37.1 515.0,36.9 516.4,36.7 517.8,36.4 519.2,36.2 520.7,35.9 522.1,35.7 523.5,35.4 524.9,35.3 526.3,35.2 527.7,35.1 529.1,35.0 530.5,34.8 531.9,34.6 533.3,34.5 534.8,34.2 536.2,34.0 537.6,33.8 539.0,33.5 540.4,33.3 541.8,33.0 543.2,32.9 544.6,32.7 546.0,32.6 547.4,32.5 548.9,32.3 550.3,32.2 551.7,31.9 553.1,31.8 554.5,31.5 555.9,31.4 557.3,31.2 558.7,31.1 560.1,30.9 561.5,30.8 563.0,30.8 564.4,30.6 565.8,30.4 567.2,30.4 568.6,30.2 570.0,30.0 570.0,30.0,120" />
  
  <!-- Linea principale -->
  <polyline fill="none" stroke="#0366d6" stroke-width="2.5" stroke-linecap="round" stroke-linejoin="round" points="30.0,120.0 31.4,119.5 32.8,118.9 34.2,118.4 35.6,118.3 37.0,118.0 38.5,117.4 39.9,117.0 41.3,116.7 42.7,116.1 44.1,115.8 45.5,115.5 46.9,115.3 48.3,115.0 49.7,114.6 51.1,114.1 52.6,113.8 54.0,113.5 55.4,113.4 56.8,113.1 58.2,112.8 59.6,112.5 61.0,112.3 62.4,112.0 63.8,111.1 65.2,110.8 66.7,110.4 68.1,110.0 69.5,109.6 70.9,109.3 72.3,109.1 73.7,108.9 75.1,108.6 76.5,108.2 77.9,107.8 79.3,107.5 80.8,107.1 82.2,107.0 83.6,107.0 85.0,106.8 86.4,106.5 87.8,106.3 89.2,106.1 90.6,105.8 92.0,105.2 93.4,105.1 94.9,105.0 96.3,104.8 97.7,104.4 99.1,104.1 100.5,103.7 101.9,103.4 103.3,103.0 104.7,102.9 106.1,102.7 107.5,102.3 109.0,101.9 110.4,101.6 111.8,101.4 113.2,101.2 114.6,101.0 116.0,100.6 117.4,100.2 118.8,99.8 120.2,99.4 121.6,99.3 123.1,99.1 124.5,99.0 125.9,98.7 127.3,98.5 128.7,98.3 130.1,98.2 131.5,98.0 132.9,97.8 134.3,97.7 135.7,97.6 137.2,97.5 138.6,97.1 140.0,96.8 141.4,96.8 142.8,96.6 144.2,96.5 145.6,96.5 147.0,103.2 148.4,102.6 149.8,102.0 151.3,101.4 152.7,99.6 154.1,98.3 155.5,96.9 156.9,96.4 158.3,95.8 159.7,94.9 161.1,93.9 162.5,93.1 163.9,92.8 165.4,92.6 166.8,91.8 168.2,91.3 169.6,90.9 171.0,90.5 172.4,90.3 173.8,90.3 175.2,89.9 176.6,89.2 178.0,88.8 179.5,88.3 180.9,87.8 182.3,87.6 183.7,87.4 185.1,87.0 186.5,86.6 187.9,86.2 189.3,85.9 190.7,85.8 192.1,85.7 193.6,85.5 195.0,85.1 196.4,84.9 197.8,84.7 199.2,84.5 200.6,84.3 202.0,84.1 203.4,83.9 204.8,83.8 206.2,83.6 207.7,83.2 209.1,83.0 210.5,82.7 211.9,82.5 213.3,82.3 214.7,82.2 216.1,82.0 217.5,81.9 218.9,81.4 220.3,81.0 221.7,80.6 223.2,80.5 224.6,80.4 226.0,80.3 227.4,80.0 228.8,79.8 230.2,79.6 231.6,79.3 233.0,79.1 234.4,79.0 235.8,78.8 237.3,78.7 238.7,78.5 240.1,78.3 241.5,78.2 242.9,77.9 244.3,77.8 245.7,77.7 247.1,77.5 248.5,77.4 249.9,77.2 251.4,77.0 252.8,76.7 254.2,76.5 255.6,76.3 257.0,76.2 258.4,76.1 259.8,75.9 261.2,75.6 262.6,75.3 264.0,75.1 265.5,74.9 266.9,74.6 268.3,74.5 269.7,74.4 271.1,74.3 272.5,74.1 273.9,73.9 275.3,73.7 276.7,73.6 278.1,73.4 279.6,73.3 281.0,73.1 282.4,73.0 283.8,72.9 285.2,72.7 286.6,72.4 288.0,72.3 289.4,72.1 290.8,72.0 292.2,71.9 293.7,71.7 295.1,71.6 296.5,71.5 297.9,71.3 299.3,71.0 300.7,70.7 302.1,70.5 303.5,70.3 304.9,70.3 306.3,70.2 307.8,70.0 309.2,69.7 310.6,69.6 312.0,69.5 313.4,69.3 314.8,69.2 316.2,69.0 317.6,68.9 319.0,68.8 320.4,68.5 321.9,68.3 323.3,68.1 324.7,67.9 326.1,67.8 327.5,67.8 328.9,67.7 330.3,67.5 331.7,67.4 333.1,67.2 334.5,67.0 336.0,66.9 337.4,66.7 338.8,66.6 340.2,66.5 341.6,66.4 343.0,66.1 344.4,65.9 345.8,65.8 347.2,65.6 348.6,65.5 350.1,65.4 351.5,65.3 352.9,65.2 354.3,65.1 355.7,64.9 357.1,64.7 358.5,64.6 359.9,64.4 361.3,64.3 362.7,64.2 364.2,64.0 365.6,63.8 367.0,63.7 368.4,63.6 369.8,63.5 371.2,63.3 372.6,63.1 374.0,63.0 375.4,62.9 376.8,62.8 378.3,62.7 379.7,62.6 381.1,62.4 382.5,62.3 383.9,62.3 385.3,62.1 386.7,61.8 388.1,61.6 389.5,66.0 390.9,65.1 392.3,63.5 393.8,62.8 395.2,62.1 396.6,61.1 398.0,60.6 399.4,60.3 400.8,59.6 402.2,58.7 403.6,58.0 405.0,57.8 406.4,57.4 407.9,57.1 409.3,56.6 410.7,56.1 412.1,55.6 413.5,55.4 414.9,54.9 416.3,54.6 417.7,54.3 419.1,54.1 420.5,53.8 422.0,53.6 423.4,53.1 424.8,52.8 426.2,52.4 427.6,51.8 429.0,51.4 430.4,51.2 431.8,51.0 433.2,50.8 434.6,50.4 436.1,50.1 437.5,49.8 438.9,48.9 440.3,48.2 441.7,47.8 443.1,47.7 444.5,47.4 445.9,46.9 447.3,46.5 448.7,46.0 450.2,45.7 451.6,45.3 453.0,45.0 454.4,44.6 455.8,44.4 457.2,44.2 458.6,44.0 460.0,43.9 461.4,43.6 462.8,43.4 464.3,43.2 465.7,43.0 467.1,42.8 468.5,42.5 469.9,42.4 471.3,42.2 472.7,42.0 474.1,41.8 475.5,41.7 476.9,41.5 478.4,41.4 479.8,41.2 481.2,41.1 482.6,40.9 484.0,40.8 485.4,40.6 486.8,40.4 488.2,40.2 489.6,40.0 491.0,39.8 492.5,39.7 493.9,39.6 495.3,39.4 496.7,39.3 498.1,39.1 499.5,39.1 500.9,38.9 502.3,38.7 503.7,38.6 505.1,38.3 506.6,38.1 508.0,37.9 509.4,37.7 510.8,37.5 512.2,37.3 513.6,37.1 515.0,36.9 516.4,36.7 517.8,36.4 519.2,36.2 520.7,35.9 522.1,35.7 523.5,35.4 524.9,35.3 526.3,35.2 527.7,35.1 529.1,35.0 530.5,34.8 531.9,34.6 533.3,34.5 534.8,34.2 536.2,34.0 537.6,33.8 539.0,33.5 540.4,33.3 541.8,33.0 543.2,32.9 544.6,32.7 546.0,32.6 547.4,32.5 548.9,32.3 550.3,32.2 551.7,31.9 553.1,31.8 554.5,31.5 555.9,31.4 557.3,31.2 558.7,31.1 560.1,30.9 561.5,30.8 563.0,30.8 564.4,30.6 565.8,30.4 567.2,30.4 568.6,30.2 570.0,30.0" />
  
  <!-- Punto finale luminoso -->
  <circle cx="570.0" cy="30.0" r="4" fill="#ffffff" stroke="#0366d6" stroke-width="2.5" />
</svg>