<svg width="600" height="150" viewBox="0 0 600 150" xmlns="http://www.w3.org/2000/svg">
  <defs>
    <filter id="shadow2" x="-2%" y="-2%" width="104%" height="108%">
      <feDropShadow dx="0" dy="2" stdDeviation="3" flood-opacity="0.1" />
    </filter>
    <linearGradient id="fillGrad" x1="0" y1="0" x2="0" y2="1">
      <stop offset="0%" stop-color="#0366d6" stop-opacity="0.3"/>
      <stop offset="100%" stop-color="#0366d6" stop-opacity="0.02"/>
    </linearGradient>
  </defs>
  <rect width="600" height="150" rx="12" fill="#ffffff" filter="url(#shadow2)" stroke="#e1e4e8" stroke-width="1"/>
  <text x="20" y="24" fill="#2b3137" font-family="-apple-system,BlinkMacSystemFont,'Segoe UI',Helvetica,Arial,sans-serif" font-size="14" font-weight="600">📈 Download Growth (Actual: 86.0k)</text>
  
  <!-- Area sotto la linea -->
  <polygon fill="url(#fillGrad)" points="30.0,120.0,120 30.0,120.0 31.4,119.5 32.8,118.9 34.3,118.4 35.7,118.3 37.1,118.0 38.5,117.4 39.9,117.0 41.3,116.7 42.8,116.1 44.2,115.8 45.6,115.4 47.0,115.3 48.4,115.0 49.8,114.5 51.3,114.1 52.7,113.7 54.1,113.5 55.5,113.3 56.9,113.1 58.3,112.7 59.8,112.4 61.2,112.3 62.6,112.0 64.0,111.0 65.4,110.7 66.9,110.3 68.3,109.9 69.7,109.6 71.1,109.3 72.5,109.0 73.9,108.9 75.4,108.6 76.8,108.1 78.2,107.7 79.6,107.4 81.0,107.1 82.4,107.0 83.9,106.9 85.3,106.7 86.7,106.4 88.1,106.2 89.5,106.1 90.9,105.7 92.4,105.2 93.8,105.1 95.2,105.0 96.6,104.8 98.0,104.3 99.4,104.0 100.9,103.6 102.3,103.3 103.7,102.9 105.1,102.8 106.5,102.6 108.0,102.2 109.4,101.8 110.8,101.5 112.2,101.3 113.6,101.1 115.0,101.0 116.5,100.5 117.9,100.1 119.3,99.7 120.7,99.4 122.1,99.2 123.5,99.1 125.0,98.9 126.4,98.6 127.8,98.4 129.2,98.2 130.6,98.1 132.0,97.9 133.5,97.7 134.9,97.6 136.3,97.5 137.7,97.4 139.1,97.0 140.6,96.8 142.0,96.7 143.4,96.5 144.8,96.5 146.2,96.5 147.6,103.2 149.1,102.5 150.5,101.9 151.9,101.3 153.3,99.5 154.7,98.2 156.1,96.8 157.6,96.3 159.0,95.7 160.4,94.8 161.8,93.8 163.2,93.0 164.6,92.7 166.1,92.4 167.5,91.7 168.9,91.2 170.3,90.8 171.7,90.4 173.1,90.2 174.6,90.1 176.0,89.7 177.4,89.1 178.8,88.7 180.2,88.2 181.7,87.7 183.1,87.5 184.5,87.3 185.9,86.9 187.3,86.5 188.7,86.1 190.2,85.8 191.6,85.7 193.0,85.6 194.4,85.3 195.8,85.0 197.2,84.8 198.7,84.5 200.1,84.3 201.5,84.1 202.9,83.9 204.3,83.8 205.7,83.6 207.2,83.4 208.6,83.1 210.0,82.8 211.4,82.5 212.8,82.4 214.3,82.1 215.7,82.0 217.1,81.9 218.5,81.7 219.9,81.2 221.3,80.9 222.8,80.5 224.2,80.3 225.6,80.3 227.0,80.1 228.4,79.9 229.8,79.6 231.3,79.4 232.7,79.1 234.1,78.9 235.5,78.8 236.9,78.6 238.3,78.5 239.8,78.4 241.2,78.2 242.6,78.0 244.0,77.7 245.4,77.6 246.9,77.5 248.3,77.4 249.7,77.3 251.1,77.0 252.5,76.8 253.9,76.6 255.4,76.4 256.8,76.1 258.2,76.0 259.6,75.9 261.0,75.8 262.4,75.5 263.9,75.2 265.3,75.0 266.7,74.8 268.1,74.4 269.5,74.3 270.9,74.2 272.4,74.1 273.8,73.9 275.2,73.7 276.6,73.5 278.0,73.4 279.4,73.2 280.9,73.1 282.3,72.9 283.7,72.8 285.1,72.7 286.5,72.5 288.0,72.2 289.4,72.1 290.8,71.9 292.2,71.8 293.6,71.7 295.0,71.5 296.5,71.4 297.9,71.3 299.3,71.1 300.7,70.8 302.1,70.5 303.5,70.3 305.0,70.2 306.4,70.1 307.8,70.0 309.2,69.8 310.6,69.5 312.0,69.4 313.5,69.3 314.9,69.1 316.3,69.0 317.7,68.8 319.1,68.7 320.6,68.6 322.0,68.3 323.4,68.1 324.8,67.9 326.2,67.7 327.6,67.6 329.1,67.5 330.5,67.5 331.9,67.3 333.3,67.2 334.7,67.0 336.1,66.8 337.6,66.7 339.0,66.5 340.4,66.4 341.8,66.3 343.2,66.2 344.6,65.9 346.1,65.7 347.5,65.5 348.9,65.4 350.3,65.3 351.7,65.2 353.1,65.1 354.6,65.0 356.0,64.9 357.4,64.7 358.8,64.5 360.2,64.3 361.7,64.2 363.1,64.1 364.5,63.9 365.9,63.8 367.3,63.6 368.7,63.5 370.2,63.4 371.6,63.2 373.0,63.1 374.4,62.9 375.8,62.8 377.2,62.7 378.7,62.6 380.1,62.5 381.5,62.4 382.9,62.2 384.3,62.1 385.7,62.0 387.2,61.9 388.6,61.6 390.0,61.4 391.4,65.8 392.8,64.9 394.3,63.3 395.7,62.6 397.1,61.9 398.5,60.9 399.9,60.4 401.3,60.0 402.8,59.4 404.2,58.4 405.6,57.7 407.0,57.5 408.4,57.2 409.8,56.9 411.3,56.4 412.7,55.9 414.1,55.4 415.5,55.1 416.9,54.6 418.3,54.4 419.8,54.0 421.2,53.8 422.6,53.6 424.0,53.3 425.4,52.9 426.9,52.5 428.3,52.1 429.7,51.5 431.1,51.1 432.5,50.9 433.9,50.8 435.4,50.5 436.8,50.1 438.2,49.8 439.6,49.5 441.0,48.6 442.4,47.9 443.9,47.6 445.3,47.4 446.7,47.1 448.1,46.6 449.5,46.2 450.9,45.7 452.4,45.4 453.8,45.0 455.2,44.7 456.6,44.3 458.0,44.1 459.4,43.9 460.9,43.7 462.3,43.6 463.7,43.3 465.1,43.1 466.5,42.9 468.0,42.7 469.4,42.5 470.8,42.2 472.2,42.1 473.6,41.9 475.0,41.7 476.5,41.5 477.9,41.3 479.3,41.2 480.7,41.1 482.1,40.9 483.5,40.8 485.0,40.6 486.4,40.4 487.8,40.3 489.2,40.0 490.6,39.9 492.0,39.7 493.5,39.5 494.9,39.4 496.3,39.3 497.7,39.1 499.1,39.0 500.6,38.8 502.0,38.7 503.4,38.6 504.8,38.4 506.2,38.2 507.6,38.0 509.1,37.8 510.5,37.6 511.9,37.4 513.3,37.2 514.7,37.0 516.1,36.7 517.6,36.5 519.0,36.3 520.4,36.1 521.8,35.9 523.2,35.6 524.6,35.4 526.1,35.1 527.5,35.0 528.9,34.9 530.3,34.8 531.7,34.6 533.1,34.5 534.6,34.3 536.0,34.1 537.4,33.9 538.8,33.7 540.2,33.5 541.7,33.2 543.1,33.0 544.5,32.7 545.9,32.6 547.3,32.4 548.7,32.3 550.2,32.2 551.6,32.0 553.0,31.8 554.4,31.6 555.8,31.5 557.2,31.2 558.7,31.0 560.1,30.9 561.5,30.7 562.9,30.6 564.3,30.5 565.7,30.4 567.2,30.3 568.6,30.1 570.0,30.0 570.0,30.0,120" />
  
  <!-- Linea principale -->
  <polyline fill="none" stroke="#0366d6" stroke-width="2.5" stroke-linecap="round" stroke-linejoin="round" points="30.0,120.0 31.4,119.5 32.8,118.9 34.3,118.4 35.7,118.3 37.1,118.0 38.5,117.4 39.9,117.0 41.3,116.7 42.8,116.1 44.2,115.8 45.6,115.4 47.0,115.3 48.4,115.0 49.8,114.5 51.3,114.1 52.7,113.7 54.1,113.5 55.5,113.3 56.9,113.1 58.3,112.7 59.8,112.4 61.2,112.3 62.6,112.0 64.0,111.0 65.4,110.7 66.9,110.3 68.3,109.9 69.7,109.6 71.1,109.3 72.5,109.0 73.9,108.9 75.4,108.6 76.8,108.1 78.2,107.7 79.6,107.4 81.0,107.1 82.4,107.0 83.9,106.9 85.3,106.7 86.7,106.4 88.1,106.2 89.5,106.1 90.9,105.7 92.4,105.2 93.8,105.1 95.2,105.0 96.6,104.8 98.0,104.3 99.4,104.0 100.9,103.6 102.3,103.3 103.7,102.9 105.1,102.8 106.5,102.6 108.0,102.2 109.4,101.8 110.8,101.5 112.2,101.3 113.6,101.1 115.0,101.0 116.5,100.5 117.9,100.1 119.3,99.7 120.7,99.4 122.1,99.2 123.5,99.1 125.0,98.9 126.4,98.6 127.8,98.4 129.2,98.2 130.6,98.1 132.0,97.9 133.5,97.7 134.9,97.6 136.3,97.5 137.7,97.4 139.1,97.0 140.6,96.8 142.0,96.7 143.4,96.5 144.8,96.5 146.2,96.5 147.6,103.2 149.1,102.5 150.5,101.9 151.9,101.3 153.3,99.5 154.7,98.2 156.1,96.8 157.6,96.3 159.0,95.7 160.4,94.8 161.8,93.8 163.2,93.0 164.6,92.7 166.1,92.4 167.5,91.7 168.9,91.2 170.3,90.8 171.7,90.4 173.1,90.2 174.6,90.1 176.0,89.7 177.4,89.1 178.8,88.7 180.2,88.2 181.7,87.7 183.1,87.5 184.5,87.3 185.9,86.9 187.3,86.5 188.7,86.1 190.2,85.8 191.6,85.7 193.0,85.6 194.4,85.3 195.8,85.0 197.2,84.8 198.7,84.5 200.1,84.3 201.5,84.1 202.9,83.9 204.3,83.8 205.7,83.6 207.2,83.4 208.6,83.1 210.0,82.8 211.4,82.5 212.8,82.4 214.3,82.1 215.7,82.0 217.1,81.9 218.5,81.7 219.9,81.2 221.3,80.9 222.8,80.5 224.2,80.3 225.6,80.3 227.0,80.1 228.4,79.9 229.8,79.6 231.3,79.4 232.7,79.1 234.1,78.9 235.5,78.8 236.9,78.6 238.3,78.5 239.8,78.4 241.2,78.2 242.6,78.0 244.0,77.7 245.4,77.6 246.9,77.5 248.3,77.4 249.7,77.3 251.1,77.0 252.5,76.8 253.9,76.6 255.4,76.4 256.8,76.1 258.2,76.0 259.6,75.9 261.0,75.8 262.4,75.5 263.9,75.2 265.3,75.0 266.7,74.8 268.1,74.4 269.5,74.3 270.9,74.2 272.4,74.1 273.8,73.9 275.2,73.7 276.6,73.5 278.0,73.4 279.4,73.2 280.9,73.1 282.3,72.9 283.7,72.8 285.1,72.7 286.5,72.5 288.0,72.2 289.4,72.1 290.8,71.9 292.2,71.8 293.6,71.7 295.0,71.5 296.5,71.4 297.9,71.3 299.3,71.1 300.7,70.8 302.1,70.5 303.5,70.3 305.0,70.2 306.4,70.1 307.8,70.0 309.2,69.8 310.6,69.5 312.0,69.4 313.5,69.3 314.9,69.1 316.3,69.0 317.7,68.8 319.1,68.7 320.6,68.6 322.0,68.3 323.4,68.1 324.8,67.9 326.2,67.7 327.6,67.6 329.1,67.5 330.5,67.5 331.9,67.3 333.3,67.2 334.7,67.0 336.1,66.8 337.6,66.7 339.0,66.5 340.4,66.4 341.8,66.3 343.2,66.2 344.6,65.9 346.1,65.7 347.5,65.5 348.9,65.4 350.3,65.3 351.7,65.2 353.1,65.1 354.6,65.0 356.0,64.9 357.4,64.7 358.8,64.5 360.2,64.3 361.7,64.2 363.1,64.1 364.5,63.9 365.9,63.8 367.3,63.6 368.7,63.5 370.2,63.4 371.6,63.2 373.0,63.1 374.4,62.9 375.8,62.8 377.2,62.7 378.7,62.6 380.1,62.5 381.5,62.4 382.9,62.2 384.3,62.1 385.7,62.0 387.2,61.9 388.6,61.6 390.0,61.4 391.4,65.8 392.8,64.9 394.3,63.3 395.7,62.6 397.1,61.9 398.5,60.9 399.9,60.4 401.3,60.0 402.8,59.4 404.2,58.4 405.6,57.7 407.0,57.5 408.4,57.2 409.8,56.9 411.3,56.4 412.7,55.9 414.1,55.4 415.5,55.1 416.9,54.6 418.3,54.4 419.8,54.0 421.2,53.8 422.6,53.6 424.0,53.3 425.4,52.9 426.9,52.5 428.3,52.1 429.7,51.5 431.1,51.1 432.5,50.9 433.9,50.8 435.4,50.5 436.8,50.1 438.2,49.8 439.6,49.5 441.0,48.6 442.4,47.9 443.9,47.6 445.3,47.4 446.7,47.1 448.1,46.6 449.5,46.2 450.9,45.7 452.4,45.4 453.8,45.0 455.2,44.7 456.6,44.3 458.0,44.1 459.4,43.9 460.9,43.7 462.3,43.6 463.7,43.3 465.1,43.1 466.5,42.9 468.0,42.7 469.4,42.5 470.8,42.2 472.2,42.1 473.6,41.9 475.0,41.7 476.5,41.5 477.9,41.3 479.3,41.2 480.7,41.1 482.1,40.9 483.5,40.8 485.0,40.6 486.4,40.4 487.8,40.3 489.2,40.0 490.6,39.9 492.0,39.7 493.5,39.5 494.9,39.4 496.3,39.3 497.7,39.1 499.1,39.0 500.6,38.8 502.0,38.7 503.4,38.6 504.8,38.4 506.2,38.2 507.6,38.0 509.1,37.8 510.5,37.6 511.9,37.4 513.3,37.2 514.7,37.0 516.1,36.7 517.6,36.5 519.0,36.3 520.4,36.1 521.8,35.9 523.2,35.6 524.6,35.4 526.1,35.1 527.5,35.0 528.9,34.9 530.3,34.8 531.7,34.6 533.1,34.5 534.6,34.3 536.0,34.1 537.4,33.9 538.8,33.7 540.2,33.5 541.7,33.2 543.1,33.0 544.5,32.7 545.9,32.6 547.3,32.4 548.7,32.3 550.2,32.2 551.6,32.0 553.0,31.8 554.4,31.6 555.8,31.5 557.2,31.2 558.7,31.0 560.1,30.9 561.5,30.7 562.9,30.6 564.3,30.5 565.7,30.4 567.2,30.3 568.6,30.1 570.0,30.0" />
  
  <!-- Punto finale luminoso -->
  <circle cx="570.0" cy="30.0" r="4" fill="#ffffff" stroke="#0366d6" stroke-width="2.5" />
</svg>