<svg width="600" height="150" viewBox="0 0 600 150" xmlns="http://www.w3.org/2000/svg">
  <defs>
    <filter id="shadow2" x="-2%" y="-2%" width="104%" height="108%">
      <feDropShadow dx="0" dy="2" stdDeviation="3" flood-opacity="0.1" />
    </filter>
    <linearGradient id="fillGrad" x1="0" y1="0" x2="0" y2="1">
      <stop offset="0%" stop-color="#0366d6" stop-opacity="0.3"/>
      <stop offset="100%" stop-color="#0366d6" stop-opacity="0.02"/>
    </linearGradient>
  </defs>
  <rect width="600" height="150" rx="12" fill="#ffffff" filter="url(#shadow2)" stroke="#e1e4e8" stroke-width="1"/>
  <text x="20" y="24" fill="#2b3137" font-family="-apple-system,BlinkMacSystemFont,'Segoe UI',Helvetica,Arial,sans-serif" font-size="14" font-weight="600">📈 Download Growth (Actual: 87.1k)</text>
  
  <!-- Area sotto la linea -->
  <polygon fill="url(#fillGrad)" points="30.0,120.0,120 30.0,120.0 31.3,119.5 32.6,119.0 33.9,118.5 35.2,118.4 36.5,118.1 37.8,117.5 39.1,117.1 40.4,116.9 41.7,116.3 42.9,116.0 44.2,115.7 45.5,115.5 46.8,115.3 48.1,114.8 49.4,114.4 50.7,114.1 52.0,113.9 53.3,113.7 54.6,113.4 55.9,113.1 57.2,112.9 58.5,112.7 59.8,112.5 61.1,111.5 62.4,111.2 63.7,110.9 65.0,110.5 66.3,110.2 67.6,109.9 68.8,109.7 70.1,109.5 71.4,109.2 72.7,108.8 74.0,108.4 75.3,108.1 76.6,107.8 77.9,107.7 79.2,107.6 80.5,107.5 81.8,107.2 83.1,107.0 84.4,106.9 85.7,106.5 87.0,106.0 88.3,105.9 89.6,105.8 90.9,105.6 92.2,105.2 93.5,104.9 94.7,104.5 96.0,104.2 97.3,103.8 98.6,103.8 99.9,103.6 101.2,103.2 102.5,102.8 103.8,102.5 105.1,102.4 106.4,102.2 107.7,102.0 109.0,101.6 110.3,101.2 111.6,100.9 112.9,100.5 114.2,100.3 115.5,100.2 116.8,100.1 118.1,99.8 119.4,99.6 120.6,99.4 121.9,99.3 123.2,99.2 124.5,99.0 125.8,98.8 127.1,98.7 128.4,98.6 129.7,98.3 131.0,98.0 132.3,98.0 133.6,97.8 134.9,97.8 136.2,97.8 137.5,104.1 138.8,103.5 140.1,102.9 141.4,102.3 142.7,100.6 144.0,99.4 145.3,98.1 146.5,97.6 147.8,97.1 149.1,96.2 150.4,95.2 151.7,94.5 153.0,94.2 154.3,94.0 155.6,93.3 156.9,92.8 158.2,92.4 159.5,92.0 160.8,91.9 162.1,91.8 163.4,91.4 164.7,90.8 166.0,90.4 167.3,90.0 168.6,89.5 169.9,89.3 171.2,89.1 172.4,88.7 173.7,88.3 175.0,88.0 176.3,87.7 177.6,87.6 178.9,87.5 180.2,87.3 181.5,86.9 182.8,86.7 184.1,86.5 185.4,86.3 186.7,86.1 188.0,85.9 189.3,85.8 190.6,85.6 191.9,85.5 193.2,85.1 194.5,84.9 195.8,84.6 197.1,84.4 198.3,84.2 199.6,84.1 200.9,84.0 202.2,83.8 203.5,83.4 204.8,83.1 206.1,82.7 207.4,82.5 208.7,82.5 210.0,82.3 211.3,82.1 212.6,81.9 213.9,81.6 215.2,81.4 216.5,81.2 217.8,81.1 219.1,80.9 220.4,80.8 221.7,80.7 222.9,80.5 224.2,80.3 225.5,80.1 226.8,79.9 228.1,79.9 229.4,79.7 230.7,79.6 232.0,79.4 233.3,79.2 234.6,79.0 235.9,78.8 237.2,78.6 238.5,78.4 239.8,78.3 241.1,78.2 242.4,77.9 243.7,77.7 245.0,77.5 246.3,77.3 247.6,76.9 248.8,76.8 250.1,76.7 251.4,76.6 252.7,76.5 254.0,76.3 255.3,76.1 256.6,76.0 257.9,75.8 259.2,75.7 260.5,75.5 261.8,75.4 263.1,75.3 264.4,75.2 265.7,74.9 267.0,74.8 268.3,74.6 269.6,74.5 270.9,74.4 272.2,74.2 273.5,74.1 274.7,74.0 276.0,73.8 277.3,73.6 278.6,73.3 279.9,73.1 281.2,72.9 282.5,72.9 283.8,72.8 285.1,72.6 286.4,72.3 287.7,72.2 289.0,72.1 290.3,71.9 291.6,71.8 292.9,71.6 294.2,71.5 295.5,71.4 296.8,71.2 298.1,71.0 299.4,70.8 300.6,70.6 301.9,70.5 303.2,70.5 304.5,70.4 305.8,70.2 307.1,70.1 308.4,69.9 309.7,69.8 311.0,69.6 312.3,69.5 313.6,69.4 314.9,69.3 316.2,69.1 317.5,68.9 318.8,68.7 320.1,68.6 321.4,68.4 322.7,68.3 324.0,68.2 325.3,68.1 326.5,68.0 327.8,67.9 329.1,67.8 330.4,67.6 331.7,67.4 333.0,67.3 334.3,67.2 335.6,67.1 336.9,66.9 338.2,66.7 339.5,66.6 340.8,66.5 342.1,66.4 343.4,66.2 344.7,66.1 346.0,65.9 347.3,65.9 348.6,65.8 349.9,65.7 351.2,65.5 352.4,65.4 353.7,65.3 355.0,65.3 356.3,65.1 357.6,64.8 358.9,64.6 360.2,68.8 361.5,68.0 362.8,66.4 364.1,65.8 365.4,65.1 366.7,64.2 368.0,63.7 369.3,63.4 370.6,62.8 371.9,61.9 373.2,61.2 374.5,61.0 375.8,60.6 377.1,60.4 378.3,59.9 379.6,59.5 380.9,58.9 382.2,58.7 383.5,58.2 384.8,58.0 386.1,57.7 387.4,57.5 388.7,57.3 390.0,57.0 391.3,56.6 392.6,56.3 393.9,55.9 395.2,55.3 396.5,54.9 397.8,54.8 399.1,54.6 400.4,54.4 401.7,54.0 402.9,53.7 404.2,53.4 405.5,52.6 406.8,51.9 408.1,51.6 409.4,51.4 410.7,51.1 412.0,50.7 413.3,50.3 414.6,49.8 415.9,49.5 417.2,49.2 418.5,48.9 419.8,48.5 421.1,48.3 422.4,48.1 423.7,48.0 425.0,47.8 426.3,47.5 427.6,47.4 428.8,47.2 430.1,47.0 431.4,46.8 432.7,46.5 434.0,46.4 435.3,46.2 436.6,46.0 437.9,45.8 439.2,45.7 440.5,45.6 441.8,45.4 443.1,45.3 444.4,45.2 445.7,45.0 447.0,44.9 448.3,44.7 449.6,44.5 450.9,44.3 452.2,44.2 453.5,44.0 454.7,43.9 456.0,43.8 457.3,43.6 458.6,43.5 459.9,43.3 461.2,43.2 462.5,43.1 463.8,42.9 465.1,42.8 466.4,42.5 467.7,42.3 469.0,42.2 470.3,42.0 471.6,41.8 472.9,41.6 474.2,41.4 475.5,41.2 476.8,41.0 478.1,40.7 479.4,40.5 480.6,40.3 481.9,40.1 483.2,39.8 484.5,39.7 485.8,39.6 487.1,39.5 488.4,39.4 489.7,39.2 491.0,39.0 492.3,38.9 493.6,38.7 494.9,38.5 496.2,38.3 497.5,38.0 498.8,37.8 500.1,37.5 501.4,37.4 502.7,37.2 504.0,37.1 505.3,37.0 506.5,36.9 507.8,36.7 509.1,36.5 510.4,36.4 511.7,36.1 513.0,36.0 514.3,35.8 515.6,35.7 516.9,35.5 518.2,35.4 519.5,35.4 520.8,35.3 522.1,35.1 523.4,35.0 524.7,34.8 526.0,34.7 527.3,34.5 528.6,34.3 529.9,34.2 531.2,34.0 532.4,34.0 533.7,33.8 535.0,33.7 536.3,33.6 537.6,33.4 538.9,33.2 540.2,33.0 541.5,32.8 542.8,32.5 544.1,32.4 545.4,32.4 546.7,32.3 548.0,32.1 549.3,32.1 550.6,32.0 551.9,31.9 553.2,31.8 554.5,31.7 555.8,31.5 557.1,31.4 558.3,31.1 559.6,31.0 560.9,30.9 562.2,30.8 563.5,30.6 564.8,30.5 566.1,30.3 567.4,30.2 568.7,30.1 570.0,30.0 570.0,30.0,120" />
  
  <!-- Linea principale -->
  <polyline fill="none" stroke="#0366d6" stroke-width="2.5" stroke-linecap="round" stroke-linejoin="round" points="30.0,120.0 31.3,119.5 32.6,119.0 33.9,118.5 35.2,118.4 36.5,118.1 37.8,117.5 39.1,117.1 40.4,116.9 41.7,116.3 42.9,116.0 44.2,115.7 45.5,115.5 46.8,115.3 48.1,114.8 49.4,114.4 50.7,114.1 52.0,113.9 53.3,113.7 54.6,113.4 55.9,113.1 57.2,112.9 58.5,112.7 59.8,112.5 61.1,111.5 62.4,111.2 63.7,110.9 65.0,110.5 66.3,110.2 67.6,109.9 68.8,109.7 70.1,109.5 71.4,109.2 72.7,108.8 74.0,108.4 75.3,108.1 76.6,107.8 77.9,107.7 79.2,107.6 80.5,107.5 81.8,107.2 83.1,107.0 84.4,106.9 85.7,106.5 87.0,106.0 88.3,105.9 89.6,105.8 90.9,105.6 92.2,105.2 93.5,104.9 94.7,104.5 96.0,104.2 97.3,103.8 98.6,103.8 99.9,103.6 101.2,103.2 102.5,102.8 103.8,102.5 105.1,102.4 106.4,102.2 107.7,102.0 109.0,101.6 110.3,101.2 111.6,100.9 112.9,100.5 114.2,100.3 115.5,100.2 116.8,100.1 118.1,99.8 119.4,99.6 120.6,99.4 121.9,99.3 123.2,99.2 124.5,99.0 125.8,98.8 127.1,98.7 128.4,98.6 129.7,98.3 131.0,98.0 132.3,98.0 133.6,97.8 134.9,97.8 136.2,97.8 137.5,104.1 138.8,103.5 140.1,102.9 141.4,102.3 142.7,100.6 144.0,99.4 145.3,98.1 146.5,97.6 147.8,97.1 149.1,96.2 150.4,95.2 151.7,94.5 153.0,94.2 154.3,94.0 155.6,93.3 156.9,92.8 158.2,92.4 159.5,92.0 160.8,91.9 162.1,91.8 163.4,91.4 164.7,90.8 166.0,90.4 167.3,90.0 168.6,89.5 169.9,89.3 171.2,89.1 172.4,88.7 173.7,88.3 175.0,88.0 176.3,87.7 177.6,87.6 178.9,87.5 180.2,87.3 181.5,86.9 182.8,86.7 184.1,86.5 185.4,86.3 186.7,86.1 188.0,85.9 189.3,85.8 190.6,85.6 191.9,85.5 193.2,85.1 194.5,84.9 195.8,84.6 197.1,84.4 198.3,84.2 199.6,84.1 200.9,84.0 202.2,83.8 203.5,83.4 204.8,83.1 206.1,82.7 207.4,82.5 208.7,82.5 210.0,82.3 211.3,82.1 212.6,81.9 213.9,81.6 215.2,81.4 216.5,81.2 217.8,81.1 219.1,80.9 220.4,80.8 221.7,80.7 222.9,80.5 224.2,80.3 225.5,80.1 226.8,79.9 228.1,79.9 229.4,79.7 230.7,79.6 232.0,79.4 233.3,79.2 234.6,79.0 235.9,78.8 237.2,78.6 238.5,78.4 239.8,78.3 241.1,78.2 242.4,77.9 243.7,77.7 245.0,77.5 246.3,77.3 247.6,76.9 248.8,76.8 250.1,76.7 251.4,76.6 252.7,76.5 254.0,76.3 255.3,76.1 256.6,76.0 257.9,75.8 259.2,75.7 260.5,75.5 261.8,75.4 263.1,75.3 264.4,75.2 265.7,74.9 267.0,74.8 268.3,74.6 269.6,74.5 270.9,74.4 272.2,74.2 273.5,74.1 274.7,74.0 276.0,73.8 277.3,73.6 278.6,73.3 279.9,73.1 281.2,72.9 282.5,72.9 283.8,72.8 285.1,72.6 286.4,72.3 287.7,72.2 289.0,72.1 290.3,71.9 291.6,71.8 292.9,71.6 294.2,71.5 295.5,71.4 296.8,71.2 298.1,71.0 299.4,70.8 300.6,70.6 301.9,70.5 303.2,70.5 304.5,70.4 305.8,70.2 307.1,70.1 308.4,69.9 309.7,69.8 311.0,69.6 312.3,69.5 313.6,69.4 314.9,69.3 316.2,69.1 317.5,68.9 318.8,68.7 320.1,68.6 321.4,68.4 322.7,68.3 324.0,68.2 325.3,68.1 326.5,68.0 327.8,67.9 329.1,67.8 330.4,67.6 331.7,67.4 333.0,67.3 334.3,67.2 335.6,67.1 336.9,66.9 338.2,66.7 339.5,66.6 340.8,66.5 342.1,66.4 343.4,66.2 344.7,66.1 346.0,65.9 347.3,65.9 348.6,65.8 349.9,65.7 351.2,65.5 352.4,65.4 353.7,65.3 355.0,65.3 356.3,65.1 357.6,64.8 358.9,64.6 360.2,68.8 361.5,68.0 362.8,66.4 364.1,65.8 365.4,65.1 366.7,64.2 368.0,63.7 369.3,63.4 370.6,62.8 371.9,61.9 373.2,61.2 374.5,61.0 375.8,60.6 377.1,60.4 378.3,59.9 379.6,59.5 380.9,58.9 382.2,58.7 383.5,58.2 384.8,58.0 386.1,57.7 387.4,57.5 388.7,57.3 390.0,57.0 391.3,56.6 392.6,56.3 393.9,55.9 395.2,55.3 396.5,54.9 397.8,54.8 399.1,54.6 400.4,54.4 401.7,54.0 402.9,53.7 404.2,53.4 405.5,52.6 406.8,51.9 408.1,51.6 409.4,51.4 410.7,51.1 412.0,50.7 413.3,50.3 414.6,49.8 415.9,49.5 417.2,49.2 418.5,48.9 419.8,48.5 421.1,48.3 422.4,48.1 423.7,48.0 425.0,47.8 426.3,47.5 427.6,47.4 428.8,47.2 430.1,47.0 431.4,46.8 432.7,46.5 434.0,46.4 435.3,46.2 436.6,46.0 437.9,45.8 439.2,45.7 440.5,45.6 441.8,45.4 443.1,45.3 444.4,45.2 445.7,45.0 447.0,44.9 448.3,44.7 449.6,44.5 450.9,44.3 452.2,44.2 453.5,44.0 454.7,43.9 456.0,43.8 457.3,43.6 458.6,43.5 459.9,43.3 461.2,43.2 462.5,43.1 463.8,42.9 465.1,42.8 466.4,42.5 467.7,42.3 469.0,42.2 470.3,42.0 471.6,41.8 472.9,41.6 474.2,41.4 475.5,41.2 476.8,41.0 478.1,40.7 479.4,40.5 480.6,40.3 481.9,40.1 483.2,39.8 484.5,39.7 485.8,39.6 487.1,39.5 488.4,39.4 489.7,39.2 491.0,39.0 492.3,38.9 493.6,38.7 494.9,38.5 496.2,38.3 497.5,38.0 498.8,37.8 500.1,37.5 501.4,37.4 502.7,37.2 504.0,37.1 505.3,37.0 506.5,36.9 507.8,36.7 509.1,36.5 510.4,36.4 511.7,36.1 513.0,36.0 514.3,35.8 515.6,35.7 516.9,35.5 518.2,35.4 519.5,35.4 520.8,35.3 522.1,35.1 523.4,35.0 524.7,34.8 526.0,34.7 527.3,34.5 528.6,34.3 529.9,34.2 531.2,34.0 532.4,34.0 533.7,33.8 535.0,33.7 536.3,33.6 537.6,33.4 538.9,33.2 540.2,33.0 541.5,32.8 542.8,32.5 544.1,32.4 545.4,32.4 546.7,32.3 548.0,32.1 549.3,32.1 550.6,32.0 551.9,31.9 553.2,31.8 554.5,31.7 555.8,31.5 557.1,31.4 558.3,31.1 559.6,31.0 560.9,30.9 562.2,30.8 563.5,30.6 564.8,30.5 566.1,30.3 567.4,30.2 568.7,30.1 570.0,30.0" />
  
  <!-- Punto finale luminoso -->
  <circle cx="570.0" cy="30.0" r="4" fill="#ffffff" stroke="#0366d6" stroke-width="2.5" />
</svg>