<svg width="600" height="150" viewBox="0 0 600 150" xmlns="http://www.w3.org/2000/svg">
  <defs>
    <filter id="shadow2" x="-2%" y="-2%" width="104%" height="108%">
      <feDropShadow dx="0" dy="2" stdDeviation="3" flood-opacity="0.1" />
    </filter>
    <linearGradient id="fillGrad" x1="0" y1="0" x2="0" y2="1">
      <stop offset="0%" stop-color="#0366d6" stop-opacity="0.3"/>
      <stop offset="100%" stop-color="#0366d6" stop-opacity="0.02"/>
    </linearGradient>
  </defs>
  <rect width="600" height="150" rx="12" fill="#ffffff" filter="url(#shadow2)" stroke="#e1e4e8" stroke-width="1"/>
  <text x="20" y="24" fill="#2b3137" font-family="-apple-system,BlinkMacSystemFont,'Segoe UI',Helvetica,Arial,sans-serif" font-size="14" font-weight="600">📈 Download Growth (Actual: 85.8k)</text>
  
  <!-- Area sotto la linea -->
  <polygon fill="url(#fillGrad)" points="30.0,120.0,120 30.0,120.0 31.4,119.5 32.9,118.9 34.3,118.4 35.8,118.2 37.2,118.0 38.7,117.4 40.1,116.9 41.6,116.7 43.0,116.0 44.4,115.7 45.9,115.4 47.3,115.2 48.8,114.9 50.2,114.5 51.7,114.0 53.1,113.7 54.5,113.4 56.0,113.3 57.4,113.0 58.9,112.7 60.3,112.4 61.8,112.2 63.2,111.9 64.7,110.9 66.1,110.6 67.5,110.2 69.0,109.8 70.4,109.5 71.9,109.2 73.3,108.9 74.8,108.8 76.2,108.5 77.6,108.0 79.1,107.6 80.5,107.3 82.0,107.0 83.4,106.9 84.9,106.8 86.3,106.6 87.8,106.3 89.2,106.1 90.6,106.0 92.1,105.6 93.5,105.0 95.0,104.9 96.4,104.8 97.9,104.6 99.3,104.2 100.7,103.9 102.2,103.4 103.6,103.1 105.1,102.7 106.5,102.7 108.0,102.4 109.4,102.0 110.9,101.6 112.3,101.3 113.7,101.2 115.2,101.0 116.6,100.8 118.1,100.3 119.5,99.9 121.0,99.5 122.4,99.2 123.9,99.0 125.3,98.9 126.7,98.7 128.2,98.4 129.6,98.2 131.1,98.0 132.5,97.9 134.0,97.7 135.4,97.5 136.8,97.4 138.3,97.3 139.7,97.2 141.2,96.8 142.6,96.5 144.1,96.4 145.5,96.3 147.0,96.2 148.4,96.2 149.8,103.0 151.3,102.4 152.7,101.8 154.2,101.1 155.6,99.3 157.1,98.0 158.5,96.6 159.9,96.1 161.4,95.5 162.8,94.5 164.3,93.5 165.7,92.7 167.2,92.5 168.6,92.2 170.1,91.4 171.5,90.9 172.9,90.5 174.4,90.1 175.8,89.9 177.3,89.8 178.7,89.5 180.2,88.8 181.6,88.4 183.0,87.9 184.5,87.4 185.9,87.2 187.4,87.0 188.8,86.5 190.3,86.1 191.7,85.8 193.2,85.5 194.6,85.3 196.0,85.2 197.5,85.0 198.9,84.7 200.4,84.4 201.8,84.2 203.3,84.0 204.7,83.8 206.1,83.6 207.6,83.4 209.0,83.3 210.5,83.1 211.9,82.7 213.4,82.5 214.8,82.2 216.3,82.0 217.7,81.8 219.1,81.7 220.6,81.5 222.0,81.3 223.5,80.8 224.9,80.5 226.4,80.1 227.8,79.9 229.3,79.9 230.7,79.7 232.1,79.5 233.6,79.2 235.0,79.0 236.5,78.7 237.9,78.5 239.4,78.4 240.8,78.2 242.2,78.1 243.7,78.0 245.1,77.8 246.6,77.6 248.0,77.3 249.5,77.2 250.9,77.1 252.4,76.9 253.8,76.8 255.2,76.6 256.7,76.4 258.1,76.1 259.6,75.9 261.0,75.7 262.5,75.6 263.9,75.5 265.3,75.3 266.8,75.0 268.2,74.7 269.7,74.5 271.1,74.3 272.6,73.9 274.0,73.9 275.5,73.7 276.9,73.6 278.3,73.4 279.8,73.3 281.2,73.1 282.7,72.9 284.1,72.8 285.6,72.6 287.0,72.4 288.4,72.3 289.9,72.2 291.3,72.1 292.8,71.8 294.2,71.7 295.7,71.4 297.1,71.3 298.6,71.2 300.0,71.0 301.4,70.9 302.9,70.8 304.3,70.6 305.8,70.4 307.2,70.0 308.7,69.8 310.1,69.7 311.6,69.6 313.0,69.5 314.4,69.3 315.9,69.1 317.3,68.9 318.8,68.8 320.2,68.6 321.7,68.5 323.1,68.3 324.5,68.2 326.0,68.1 327.4,67.8 328.9,67.6 330.3,67.4 331.8,67.2 333.2,67.1 334.7,67.0 336.1,67.0 337.5,66.8 339.0,66.7 340.4,66.5 341.9,66.3 343.3,66.1 344.8,66.0 346.2,65.9 347.6,65.8 349.1,65.6 350.5,65.4 352.0,65.2 353.4,65.0 354.9,64.8 356.3,64.7 357.8,64.6 359.2,64.5 360.6,64.4 362.1,64.3 363.5,64.2 365.0,63.9 366.4,63.8 367.9,63.6 369.3,63.5 370.7,63.4 372.2,63.3 373.6,63.1 375.1,63.0 376.5,62.8 378.0,62.7 379.4,62.5 380.9,62.4 382.3,62.2 383.7,62.1 385.2,62.0 386.6,61.9 388.1,61.8 389.5,61.6 391.0,61.5 392.4,61.5 393.9,61.3 395.3,61.0 396.7,60.8 398.2,65.2 399.6,64.4 401.1,62.7 402.5,62.1 404.0,61.3 405.4,60.3 406.8,59.8 408.3,59.4 409.7,58.8 411.2,57.8 412.6,57.1 414.1,56.9 415.5,56.5 417.0,56.2 418.4,55.7 419.8,55.3 421.3,54.7 422.7,54.5 424.2,54.0 425.6,53.7 427.1,53.4 428.5,53.2 429.9,52.9 431.4,52.7 432.8,52.2 434.3,51.9 435.7,51.4 437.2,50.8 438.6,50.5 440.1,50.3 441.5,50.1 442.9,49.8 444.4,49.5 445.8,49.1 447.3,48.8 448.7,47.9 450.2,47.2 451.6,46.9 453.0,46.7 454.5,46.4 455.9,45.9 457.4,45.5 458.8,45.0 460.3,44.6 461.7,44.3 463.2,44.0 464.6,43.6 466.0,43.3 467.5,43.2 468.9,43.0 470.4,42.8 471.8,42.5 473.3,42.4 474.7,42.1 476.1,41.9 477.6,41.8 479.0,41.5 480.5,41.3 481.9,41.1 483.4,40.9 484.8,40.7 486.3,40.6 487.7,40.4 489.1,40.3 490.6,40.1 492.0,40.0 493.5,39.8 494.9,39.7 496.4,39.5 497.8,39.3 499.3,39.1 500.7,38.9 502.1,38.7 503.6,38.6 505.0,38.5 506.5,38.3 507.9,38.2 509.4,38.0 510.8,38.0 512.2,37.8 513.7,37.6 515.1,37.4 516.6,37.2 518.0,37.0 519.5,36.8 520.9,36.6 522.4,36.4 523.8,36.2 525.2,35.9 526.7,35.7 528.1,35.5 529.6,35.3 531.0,35.0 532.5,34.8 533.9,34.5 535.3,34.3 536.8,34.2 538.2,34.0 539.7,33.9 541.1,33.8 542.6,33.6 544.0,33.4 545.5,33.3 546.9,33.1 548.3,32.9 549.8,32.6 551.2,32.3 552.7,32.2 554.1,31.8 555.6,31.7 557.0,31.5 558.4,31.4 559.9,31.3 561.3,31.1 562.8,31.0 564.2,30.7 565.7,30.6 567.1,30.3 568.6,30.2 570.0,30.0 570.0,30.0,120" />
  
  <!-- Linea principale -->
  <polyline fill="none" stroke="#0366d6" stroke-width="2.5" stroke-linecap="round" stroke-linejoin="round" points="30.0,120.0 31.4,119.5 32.9,118.9 34.3,118.4 35.8,118.2 37.2,118.0 38.7,117.4 40.1,116.9 41.6,116.7 43.0,116.0 44.4,115.7 45.9,115.4 47.3,115.2 48.8,114.9 50.2,114.5 51.7,114.0 53.1,113.7 54.5,113.4 56.0,113.3 57.4,113.0 58.9,112.7 60.3,112.4 61.8,112.2 63.2,111.9 64.7,110.9 66.1,110.6 67.5,110.2 69.0,109.8 70.4,109.5 71.9,109.2 73.3,108.9 74.8,108.8 76.2,108.5 77.6,108.0 79.1,107.6 80.5,107.3 82.0,107.0 83.4,106.9 84.9,106.8 86.3,106.6 87.8,106.3 89.2,106.1 90.6,106.0 92.1,105.6 93.5,105.0 95.0,104.9 96.4,104.8 97.9,104.6 99.3,104.2 100.7,103.9 102.2,103.4 103.6,103.1 105.1,102.7 106.5,102.7 108.0,102.4 109.4,102.0 110.9,101.6 112.3,101.3 113.7,101.2 115.2,101.0 116.6,100.8 118.1,100.3 119.5,99.9 121.0,99.5 122.4,99.2 123.9,99.0 125.3,98.9 126.7,98.7 128.2,98.4 129.6,98.2 131.1,98.0 132.5,97.9 134.0,97.7 135.4,97.5 136.8,97.4 138.3,97.3 139.7,97.2 141.2,96.8 142.6,96.5 144.1,96.4 145.5,96.3 147.0,96.2 148.4,96.2 149.8,103.0 151.3,102.4 152.7,101.8 154.2,101.1 155.6,99.3 157.1,98.0 158.5,96.6 159.9,96.1 161.4,95.5 162.8,94.5 164.3,93.5 165.7,92.7 167.2,92.5 168.6,92.2 170.1,91.4 171.5,90.9 172.9,90.5 174.4,90.1 175.8,89.9 177.3,89.8 178.7,89.5 180.2,88.8 181.6,88.4 183.0,87.9 184.5,87.4 185.9,87.2 187.4,87.0 188.8,86.5 190.3,86.1 191.7,85.8 193.2,85.5 194.6,85.3 196.0,85.2 197.5,85.0 198.9,84.7 200.4,84.4 201.8,84.2 203.3,84.0 204.7,83.8 206.1,83.6 207.6,83.4 209.0,83.3 210.5,83.1 211.9,82.7 213.4,82.5 214.8,82.2 216.3,82.0 217.7,81.8 219.1,81.7 220.6,81.5 222.0,81.3 223.5,80.8 224.9,80.5 226.4,80.1 227.8,79.9 229.3,79.9 230.7,79.7 232.1,79.5 233.6,79.2 235.0,79.0 236.5,78.7 237.9,78.5 239.4,78.4 240.8,78.2 242.2,78.1 243.7,78.0 245.1,77.8 246.6,77.6 248.0,77.3 249.5,77.2 250.9,77.1 252.4,76.9 253.8,76.8 255.2,76.6 256.7,76.4 258.1,76.1 259.6,75.9 261.0,75.7 262.5,75.6 263.9,75.5 265.3,75.3 266.8,75.0 268.2,74.7 269.7,74.5 271.1,74.3 272.6,73.9 274.0,73.9 275.5,73.7 276.9,73.6 278.3,73.4 279.8,73.3 281.2,73.1 282.7,72.9 284.1,72.8 285.6,72.6 287.0,72.4 288.4,72.3 289.9,72.2 291.3,72.1 292.8,71.8 294.2,71.7 295.7,71.4 297.1,71.3 298.6,71.2 300.0,71.0 301.4,70.9 302.9,70.8 304.3,70.6 305.8,70.4 307.2,70.0 308.7,69.8 310.1,69.7 311.6,69.6 313.0,69.5 314.4,69.3 315.9,69.1 317.3,68.9 318.8,68.8 320.2,68.6 321.7,68.5 323.1,68.3 324.5,68.2 326.0,68.1 327.4,67.8 328.9,67.6 330.3,67.4 331.8,67.2 333.2,67.1 334.7,67.0 336.1,67.0 337.5,66.8 339.0,66.7 340.4,66.5 341.9,66.3 343.3,66.1 344.8,66.0 346.2,65.9 347.6,65.8 349.1,65.6 350.5,65.4 352.0,65.2 353.4,65.0 354.9,64.8 356.3,64.7 357.8,64.6 359.2,64.5 360.6,64.4 362.1,64.3 363.5,64.2 365.0,63.9 366.4,63.8 367.9,63.6 369.3,63.5 370.7,63.4 372.2,63.3 373.6,63.1 375.1,63.0 376.5,62.8 378.0,62.7 379.4,62.5 380.9,62.4 382.3,62.2 383.7,62.1 385.2,62.0 386.6,61.9 388.1,61.8 389.5,61.6 391.0,61.5 392.4,61.5 393.9,61.3 395.3,61.0 396.7,60.8 398.2,65.2 399.6,64.4 401.1,62.7 402.5,62.1 404.0,61.3 405.4,60.3 406.8,59.8 408.3,59.4 409.7,58.8 411.2,57.8 412.6,57.1 414.1,56.9 415.5,56.5 417.0,56.2 418.4,55.7 419.8,55.3 421.3,54.7 422.7,54.5 424.2,54.0 425.6,53.7 427.1,53.4 428.5,53.2 429.9,52.9 431.4,52.7 432.8,52.2 434.3,51.9 435.7,51.4 437.2,50.8 438.6,50.5 440.1,50.3 441.5,50.1 442.9,49.8 444.4,49.5 445.8,49.1 447.3,48.8 448.7,47.9 450.2,47.2 451.6,46.9 453.0,46.7 454.5,46.4 455.9,45.9 457.4,45.5 458.8,45.0 460.3,44.6 461.7,44.3 463.2,44.0 464.6,43.6 466.0,43.3 467.5,43.2 468.9,43.0 470.4,42.8 471.8,42.5 473.3,42.4 474.7,42.1 476.1,41.9 477.6,41.8 479.0,41.5 480.5,41.3 481.9,41.1 483.4,40.9 484.8,40.7 486.3,40.6 487.7,40.4 489.1,40.3 490.6,40.1 492.0,40.0 493.5,39.8 494.9,39.7 496.4,39.5 497.8,39.3 499.3,39.1 500.7,38.9 502.1,38.7 503.6,38.6 505.0,38.5 506.5,38.3 507.9,38.2 509.4,38.0 510.8,38.0 512.2,37.8 513.7,37.6 515.1,37.4 516.6,37.2 518.0,37.0 519.5,36.8 520.9,36.6 522.4,36.4 523.8,36.2 525.2,35.9 526.7,35.7 528.1,35.5 529.6,35.3 531.0,35.0 532.5,34.8 533.9,34.5 535.3,34.3 536.8,34.2 538.2,34.0 539.7,33.9 541.1,33.8 542.6,33.6 544.0,33.4 545.5,33.3 546.9,33.1 548.3,32.9 549.8,32.6 551.2,32.3 552.7,32.2 554.1,31.8 555.6,31.7 557.0,31.5 558.4,31.4 559.9,31.3 561.3,31.1 562.8,31.0 564.2,30.7 565.7,30.6 567.1,30.3 568.6,30.2 570.0,30.0" />
  
  <!-- Punto finale luminoso -->
  <circle cx="570.0" cy="30.0" r="4" fill="#ffffff" stroke="#0366d6" stroke-width="2.5" />
</svg>