<svg width="600" height="150" viewBox="0 0 600 150" xmlns="http://www.w3.org/2000/svg">
  <defs>
    <filter id="shadow2" x="-2%" y="-2%" width="104%" height="108%">
      <feDropShadow dx="0" dy="2" stdDeviation="3" flood-opacity="0.1" />
    </filter>
    <linearGradient id="fillGrad" x1="0" y1="0" x2="0" y2="1">
      <stop offset="0%" stop-color="#0366d6" stop-opacity="0.3"/>
      <stop offset="100%" stop-color="#0366d6" stop-opacity="0.02"/>
    </linearGradient>
  </defs>
  <rect width="600" height="150" rx="12" fill="#ffffff" filter="url(#shadow2)" stroke="#e1e4e8" stroke-width="1"/>
  <text x="20" y="24" fill="#2b3137" font-family="-apple-system,BlinkMacSystemFont,'Segoe UI',Helvetica,Arial,sans-serif" font-size="14" font-weight="600">📈 Download Growth (Actual: 83.8k)</text>
  
  <!-- Area sotto la linea -->
  <polygon fill="url(#fillGrad)" points="30.0,120.0,120 30.0,120.0 31.7,119.4 33.3,118.8 35.0,118.2 36.7,118.0 38.4,117.7 40.0,117.1 41.7,116.6 43.4,116.3 45.0,115.6 46.7,115.2 48.4,114.9 50.1,114.6 51.7,114.3 53.4,113.8 55.1,113.3 56.7,112.9 58.4,112.7 60.1,112.5 61.8,112.2 63.4,111.8 65.1,111.5 66.8,111.3 68.5,111.0 70.1,109.9 71.8,109.5 73.5,109.1 75.1,108.6 76.8,108.3 78.5,107.9 80.2,107.6 81.8,107.5 83.5,107.1 85.2,106.6 86.8,106.1 88.5,105.8 90.2,105.4 91.9,105.3 93.5,105.2 95.2,105.0 96.9,104.7 98.5,104.5 100.2,104.3 101.9,103.9 103.6,103.3 105.2,103.1 106.9,103.0 108.6,102.8 110.2,102.3 111.9,102.0 113.6,101.5 115.3,101.1 116.9,100.7 118.6,100.6 120.3,100.3 122.0,99.9 123.6,99.4 125.3,99.1 127.0,98.9 128.6,98.7 130.3,98.5 132.0,98.0 133.7,97.5 135.3,97.1 137.0,96.7 138.7,96.5 140.3,96.4 142.0,96.2 143.7,95.8 145.4,95.6 147.0,95.4 148.7,95.3 150.4,95.1 152.0,94.9 153.7,94.7 155.4,94.6 157.1,94.5 158.7,94.0 160.4,93.8 162.1,93.7 163.7,93.5 165.4,93.4 167.1,93.4 168.8,101.0 170.4,100.3 172.1,99.6 173.8,98.9 175.4,96.8 177.1,95.4 178.8,93.8 180.5,93.3 182.1,92.6 183.8,91.5 185.5,90.4 187.2,89.5 188.8,89.2 190.5,88.9 192.2,88.1 193.8,87.5 195.5,87.1 197.2,86.6 198.9,86.4 200.5,86.3 202.2,85.9 203.9,85.1 205.5,84.6 207.2,84.1 208.9,83.6 210.6,83.3 212.2,83.1 213.9,82.6 215.6,82.2 217.2,81.7 218.9,81.4 220.6,81.2 222.3,81.1 223.9,80.9 225.6,80.5 227.3,80.2 228.9,80.0 230.6,79.7 232.3,79.5 234.0,79.3 235.6,79.1 237.3,78.9 239.0,78.7 240.7,78.3 242.3,78.0 244.0,77.7 245.7,77.5 247.3,77.3 249.0,77.1 250.7,77.0 252.4,76.8 254.0,76.2 255.7,75.9 257.4,75.4 259.0,75.2 260.7,75.2 262.4,75.0 264.1,74.7 265.7,74.4 267.4,74.2 269.1,73.8 270.7,73.6 272.4,73.5 274.1,73.3 275.8,73.2 277.4,73.0 279.1,72.8 280.8,72.6 282.4,72.3 284.1,72.1 285.8,72.0 287.5,71.9 289.1,71.8 290.8,71.5 292.5,71.2 294.1,71.0 295.8,70.8 297.5,70.5 299.2,70.3 300.8,70.2 302.5,70.1 304.2,69.7 305.9,69.4 307.5,69.2 309.2,68.9 310.9,68.5 312.5,68.4 314.2,68.3 315.9,68.2 317.6,68.0 319.2,67.8 320.9,67.6 322.6,67.4 324.2,67.2 325.9,67.0 327.6,66.9 329.3,66.7 330.9,66.6 332.6,66.4 334.3,66.1 335.9,66.0 337.6,65.7 339.3,65.6 341.0,65.5 342.6,65.3 344.3,65.2 346.0,65.0 347.6,64.8 349.3,64.5 351.0,64.1 352.7,63.9 354.3,63.7 356.0,63.7 357.7,63.6 359.3,63.4 361.0,63.1 362.7,62.9 364.4,62.8 366.0,62.6 367.7,62.4 369.4,62.2 371.1,62.1 372.7,61.9 374.4,61.7 376.1,61.5 377.7,61.2 379.4,61.0 381.1,60.9 382.8,60.8 384.4,60.7 386.1,60.5 387.8,60.4 389.4,60.2 391.1,60.0 392.8,59.8 394.5,59.7 396.1,59.5 397.8,59.4 399.5,59.2 401.1,59.0 402.8,58.7 404.5,58.5 406.2,58.4 407.8,58.2 409.5,58.1 411.2,58.0 412.8,57.9 414.5,57.8 416.2,57.6 417.9,57.3 419.5,57.2 421.2,57.0 422.9,56.9 424.6,56.7 426.2,56.6 427.9,56.4 429.6,56.2 431.2,56.1 432.9,55.9 434.6,55.7 436.3,55.6 437.9,55.4 439.6,55.3 441.3,55.2 442.9,55.1 444.6,54.9 446.3,54.8 448.0,54.6 449.6,54.6 451.3,54.4 453.0,54.1 454.6,53.8 456.3,58.8 458.0,57.8 459.7,56.0 461.3,55.2 463.0,54.4 464.7,53.3 466.3,52.7 468.0,52.3 469.7,51.6 471.4,50.5 473.0,49.7 474.7,49.5 476.4,49.1 478.0,48.7 479.7,48.2 481.4,47.7 483.1,47.0 484.7,46.8 486.4,46.2 488.1,45.9 489.8,45.6 491.4,45.3 493.1,45.0 494.8,44.8 496.4,44.2 498.1,43.9 499.8,43.4 501.5,42.7 503.1,42.3 504.8,42.1 506.5,41.9 508.1,41.6 509.8,41.1 511.5,40.8 513.2,40.4 514.8,39.4 516.5,38.6 518.2,38.2 519.8,38.1 521.5,37.7 523.2,37.2 524.9,36.7 526.5,36.1 528.2,35.8 529.9,35.4 531.5,35.0 533.2,34.6 534.9,34.3 536.6,34.1 538.2,33.9 539.9,33.7 541.6,33.4 543.3,33.2 544.9,33.0 546.6,32.7 548.3,32.6 549.9,32.2 551.6,32.0 553.3,31.8 555.0,31.6 556.6,31.4 558.3,31.2 560.0,31.1 561.6,30.9 563.3,30.7 565.0,30.6 566.7,30.4 568.3,30.2 570.0,30.0 570.0,30.0,120" />
  
  <!-- Linea principale -->
  <polyline fill="none" stroke="#0366d6" stroke-width="2.5" stroke-linecap="round" stroke-linejoin="round" points="30.0,120.0 31.7,119.4 33.3,118.8 35.0,118.2 36.7,118.0 38.4,117.7 40.0,117.1 41.7,116.6 43.4,116.3 45.0,115.6 46.7,115.2 48.4,114.9 50.1,114.6 51.7,114.3 53.4,113.8 55.1,113.3 56.7,112.9 58.4,112.7 60.1,112.5 61.8,112.2 63.4,111.8 65.1,111.5 66.8,111.3 68.5,111.0 70.1,109.9 71.8,109.5 73.5,109.1 75.1,108.6 76.8,108.3 78.5,107.9 80.2,107.6 81.8,107.5 83.5,107.1 85.2,106.6 86.8,106.1 88.5,105.8 90.2,105.4 91.9,105.3 93.5,105.2 95.2,105.0 96.9,104.7 98.5,104.5 100.2,104.3 101.9,103.9 103.6,103.3 105.2,103.1 106.9,103.0 108.6,102.8 110.2,102.3 111.9,102.0 113.6,101.5 115.3,101.1 116.9,100.7 118.6,100.6 120.3,100.3 122.0,99.9 123.6,99.4 125.3,99.1 127.0,98.9 128.6,98.7 130.3,98.5 132.0,98.0 133.7,97.5 135.3,97.1 137.0,96.7 138.7,96.5 140.3,96.4 142.0,96.2 143.7,95.8 145.4,95.6 147.0,95.4 148.7,95.3 150.4,95.1 152.0,94.9 153.7,94.7 155.4,94.6 157.1,94.5 158.7,94.0 160.4,93.8 162.1,93.7 163.7,93.5 165.4,93.4 167.1,93.4 168.8,101.0 170.4,100.3 172.1,99.6 173.8,98.9 175.4,96.8 177.1,95.4 178.8,93.8 180.5,93.3 182.1,92.6 183.8,91.5 185.5,90.4 187.2,89.5 188.8,89.2 190.5,88.9 192.2,88.1 193.8,87.5 195.5,87.1 197.2,86.6 198.9,86.4 200.5,86.3 202.2,85.9 203.9,85.1 205.5,84.6 207.2,84.1 208.9,83.6 210.6,83.3 212.2,83.1 213.9,82.6 215.6,82.2 217.2,81.7 218.9,81.4 220.6,81.2 222.3,81.1 223.9,80.9 225.6,80.5 227.3,80.2 228.9,80.0 230.6,79.7 232.3,79.5 234.0,79.3 235.6,79.1 237.3,78.9 239.0,78.7 240.7,78.3 242.3,78.0 244.0,77.7 245.7,77.5 247.3,77.3 249.0,77.1 250.7,77.0 252.4,76.8 254.0,76.2 255.7,75.9 257.4,75.4 259.0,75.2 260.7,75.2 262.4,75.0 264.1,74.7 265.7,74.4 267.4,74.2 269.1,73.8 270.7,73.6 272.4,73.5 274.1,73.3 275.8,73.2 277.4,73.0 279.1,72.8 280.8,72.6 282.4,72.3 284.1,72.1 285.8,72.0 287.5,71.9 289.1,71.8 290.8,71.5 292.5,71.2 294.1,71.0 295.8,70.8 297.5,70.5 299.2,70.3 300.8,70.2 302.5,70.1 304.2,69.7 305.9,69.4 307.5,69.2 309.2,68.9 310.9,68.5 312.5,68.4 314.2,68.3 315.9,68.2 317.6,68.0 319.2,67.8 320.9,67.6 322.6,67.4 324.2,67.2 325.9,67.0 327.6,66.9 329.3,66.7 330.9,66.6 332.6,66.4 334.3,66.1 335.9,66.0 337.6,65.7 339.3,65.6 341.0,65.5 342.6,65.3 344.3,65.2 346.0,65.0 347.6,64.8 349.3,64.5 351.0,64.1 352.7,63.9 354.3,63.7 356.0,63.7 357.7,63.6 359.3,63.4 361.0,63.1 362.7,62.9 364.4,62.8 366.0,62.6 367.7,62.4 369.4,62.2 371.1,62.1 372.7,61.9 374.4,61.7 376.1,61.5 377.7,61.2 379.4,61.0 381.1,60.9 382.8,60.8 384.4,60.7 386.1,60.5 387.8,60.4 389.4,60.2 391.1,60.0 392.8,59.8 394.5,59.7 396.1,59.5 397.8,59.4 399.5,59.2 401.1,59.0 402.8,58.7 404.5,58.5 406.2,58.4 407.8,58.2 409.5,58.1 411.2,58.0 412.8,57.9 414.5,57.8 416.2,57.6 417.9,57.3 419.5,57.2 421.2,57.0 422.9,56.9 424.6,56.7 426.2,56.6 427.9,56.4 429.6,56.2 431.2,56.1 432.9,55.9 434.6,55.7 436.3,55.6 437.9,55.4 439.6,55.3 441.3,55.2 442.9,55.1 444.6,54.9 446.3,54.8 448.0,54.6 449.6,54.6 451.3,54.4 453.0,54.1 454.6,53.8 456.3,58.8 458.0,57.8 459.7,56.0 461.3,55.2 463.0,54.4 464.7,53.3 466.3,52.7 468.0,52.3 469.7,51.6 471.4,50.5 473.0,49.7 474.7,49.5 476.4,49.1 478.0,48.7 479.7,48.2 481.4,47.7 483.1,47.0 484.7,46.8 486.4,46.2 488.1,45.9 489.8,45.6 491.4,45.3 493.1,45.0 494.8,44.8 496.4,44.2 498.1,43.9 499.8,43.4 501.5,42.7 503.1,42.3 504.8,42.1 506.5,41.9 508.1,41.6 509.8,41.1 511.5,40.8 513.2,40.4 514.8,39.4 516.5,38.6 518.2,38.2 519.8,38.1 521.5,37.7 523.2,37.2 524.9,36.7 526.5,36.1 528.2,35.8 529.9,35.4 531.5,35.0 533.2,34.6 534.9,34.3 536.6,34.1 538.2,33.9 539.9,33.7 541.6,33.4 543.3,33.2 544.9,33.0 546.6,32.7 548.3,32.6 549.9,32.2 551.6,32.0 553.3,31.8 555.0,31.6 556.6,31.4 558.3,31.2 560.0,31.1 561.6,30.9 563.3,30.7 565.0,30.6 566.7,30.4 568.3,30.2 570.0,30.0" />
  
  <!-- Punto finale luminoso -->
  <circle cx="570.0" cy="30.0" r="4" fill="#ffffff" stroke="#0366d6" stroke-width="2.5" />
</svg>