<svg width="600" height="150" viewBox="0 0 600 150" xmlns="http://www.w3.org/2000/svg">
  <defs>
    <filter id="shadow2" x="-2%" y="-2%" width="104%" height="108%">
      <feDropShadow dx="0" dy="2" stdDeviation="3" flood-opacity="0.1" />
    </filter>
    <linearGradient id="fillGrad" x1="0" y1="0" x2="0" y2="1">
      <stop offset="0%" stop-color="#0366d6" stop-opacity="0.3"/>
      <stop offset="100%" stop-color="#0366d6" stop-opacity="0.02"/>
    </linearGradient>
  </defs>
  <rect width="600" height="150" rx="12" fill="#ffffff" filter="url(#shadow2)" stroke="#e1e4e8" stroke-width="1"/>
  <text x="20" y="24" fill="#2b3137" font-family="-apple-system,BlinkMacSystemFont,'Segoe UI',Helvetica,Arial,sans-serif" font-size="14" font-weight="600">📈 Download Growth (Actual: 84.6k)</text>
  
  <!-- Area sotto la linea -->
  <polygon fill="url(#fillGrad)" points="30.0,120.0,120 30.0,120.0 31.6,119.4 33.1,118.8 34.7,118.3 36.3,118.1 37.8,117.9 39.4,117.2 41.0,116.8 42.5,116.5 44.1,115.8 45.7,115.4 47.2,115.1 48.8,114.9 50.3,114.6 51.9,114.1 53.5,113.6 55.0,113.3 56.6,113.0 58.2,112.8 59.7,112.5 61.3,112.2 62.9,111.9 64.4,111.7 66.0,111.4 67.6,110.3 69.1,110.0 70.7,109.6 72.3,109.2 73.8,108.8 75.4,108.5 77.0,108.2 78.5,108.0 80.1,107.7 81.7,107.2 83.2,106.8 84.8,106.5 86.3,106.1 87.9,106.0 89.5,105.9 91.0,105.7 92.6,105.4 94.2,105.2 95.7,105.0 97.3,104.6 98.9,104.1 100.4,103.9 102.0,103.8 103.6,103.6 105.1,103.1 106.7,102.8 108.3,102.4 109.8,102.0 111.4,101.6 113.0,101.5 114.5,101.3 116.1,100.8 117.7,100.4 119.2,100.1 120.8,99.9 122.3,99.7 123.9,99.5 125.5,99.0 127.0,98.6 128.6,98.2 130.2,97.8 131.7,97.6 133.3,97.5 134.9,97.3 136.4,97.0 138.0,96.8 139.6,96.6 141.1,96.4 142.7,96.3 144.3,96.0 145.8,95.9 147.4,95.8 149.0,95.7 150.5,95.2 152.1,95.0 153.7,94.9 155.2,94.8 156.8,94.7 158.3,94.7 159.9,101.9 161.5,101.2 163.0,100.6 164.6,99.9 166.2,97.9 167.7,96.5 169.3,95.1 170.9,94.5 172.4,93.9 174.0,92.9 175.6,91.8 177.1,91.0 178.7,90.7 180.3,90.4 181.8,89.6 183.4,89.0 185.0,88.6 186.5,88.2 188.1,88.0 189.7,87.9 191.2,87.5 192.8,86.8 194.3,86.3 195.9,85.8 197.5,85.3 199.0,85.0 200.6,84.8 202.2,84.4 203.7,83.9 205.3,83.5 206.9,83.2 208.4,83.1 210.0,83.0 211.6,82.7 213.1,82.4 214.7,82.1 216.3,81.8 217.8,81.6 219.4,81.4 221.0,81.2 222.5,81.0 224.1,80.9 225.7,80.7 227.2,80.3 228.8,80.0 230.3,79.7 231.9,79.5 233.5,79.3 235.0,79.1 236.6,79.0 238.2,78.8 239.7,78.3 241.3,77.9 242.9,77.5 244.4,77.3 246.0,77.3 247.6,77.1 249.1,76.8 250.7,76.6 252.3,76.3 253.8,76.0 255.4,75.8 257.0,75.7 258.5,75.5 260.1,75.4 261.7,75.2 263.2,75.0 264.8,74.8 266.3,74.5 267.9,74.4 269.5,74.3 271.0,74.1 272.6,74.0 274.2,73.8 275.7,73.5 277.3,73.3 278.9,73.1 280.4,72.8 282.0,72.7 283.6,72.6 285.1,72.4 286.7,72.1 288.3,71.8 289.8,71.6 291.4,71.3 293.0,70.9 294.5,70.8 296.1,70.7 297.7,70.6 299.2,70.4 300.8,70.2 302.3,70.0 303.9,69.9 305.5,69.7 307.0,69.5 308.6,69.3 310.2,69.2 311.7,69.1 313.3,68.9 314.9,68.6 316.4,68.5 318.0,68.3 319.6,68.2 321.1,68.0 322.7,67.8 324.3,67.7 325.8,67.6 327.4,67.4 329.0,67.1 330.5,66.8 332.1,66.6 333.7,66.4 335.2,66.3 336.8,66.2 338.3,66.0 339.9,65.7 341.5,65.6 343.0,65.5 344.6,65.3 346.2,65.1 347.7,64.9 349.3,64.8 350.9,64.7 352.4,64.4 354.0,64.2 355.6,64.0 357.1,63.7 358.7,63.6 360.3,63.6 361.8,63.5 363.4,63.3 365.0,63.2 366.5,63.0 368.1,62.8 369.7,62.6 371.2,62.5 372.8,62.4 374.3,62.2 375.9,62.1 377.5,61.8 379.0,61.6 380.6,61.4 382.2,61.2 383.7,61.1 385.3,61.0 386.9,60.9 388.4,60.8 390.0,60.7 391.6,60.5 393.1,60.3 394.7,60.1 396.3,60.0 397.8,59.9 399.4,59.7 401.0,59.6 402.5,59.4 404.1,59.2 405.7,59.1 407.2,59.0 408.8,58.8 410.3,58.6 411.9,58.4 413.5,58.3 415.0,58.2 416.6,58.1 418.2,58.0 419.7,57.8 421.3,57.7 422.9,57.7 424.4,57.5 426.0,57.2 427.6,56.9 429.1,61.7 430.7,60.7 432.3,59.0 433.8,58.3 435.4,57.5 437.0,56.4 438.5,55.9 440.1,55.5 441.7,54.8 443.2,53.8 444.8,53.0 446.3,52.8 447.9,52.4 449.5,52.1 451.0,51.6 452.6,51.0 454.2,50.5 455.7,50.2 457.3,49.7 458.9,49.4 460.4,49.1 462.0,48.8 463.6,48.5 465.1,48.3 466.7,47.8 468.3,47.4 469.8,47.0 471.4,46.3 473.0,45.9 474.5,45.7 476.1,45.5 477.7,45.3 479.2,44.8 480.8,44.5 482.3,44.2 483.9,43.2 485.5,42.4 487.0,42.1 488.6,41.9 490.2,41.6 491.7,41.1 493.3,40.6 494.9,40.1 496.4,39.7 498.0,39.4 499.6,39.0 501.1,38.6 502.7,38.3 504.3,38.2 505.8,38.0 507.4,37.8 509.0,37.5 510.5,37.3 512.1,37.0 513.7,36.8 515.2,36.7 516.8,36.3 518.3,36.2 519.9,36.0 521.5,35.8 523.0,35.5 524.6,35.4 526.2,35.2 527.7,35.1 529.3,34.9 530.9,34.8 532.4,34.6 534.0,34.4 535.6,34.2 537.1,34.0 538.7,33.8 540.3,33.6 541.8,33.4 543.4,33.3 545.0,33.2 546.5,33.0 548.1,32.8 549.7,32.7 551.2,32.6 552.8,32.4 554.3,32.2 555.9,32.0 557.5,31.8 559.0,31.5 560.6,31.4 562.2,31.1 563.7,30.9 565.3,30.7 566.9,30.4 568.4,30.2 570.0,30.0 570.0,30.0,120" />
  
  <!-- Linea principale -->
  <polyline fill="none" stroke="#0366d6" stroke-width="2.5" stroke-linecap="round" stroke-linejoin="round" points="30.0,120.0 31.6,119.4 33.1,118.8 34.7,118.3 36.3,118.1 37.8,117.9 39.4,117.2 41.0,116.8 42.5,116.5 44.1,115.8 45.7,115.4 47.2,115.1 48.8,114.9 50.3,114.6 51.9,114.1 53.5,113.6 55.0,113.3 56.6,113.0 58.2,112.8 59.7,112.5 61.3,112.2 62.9,111.9 64.4,111.7 66.0,111.4 67.6,110.3 69.1,110.0 70.7,109.6 72.3,109.2 73.8,108.8 75.4,108.5 77.0,108.2 78.5,108.0 80.1,107.7 81.7,107.2 83.2,106.8 84.8,106.5 86.3,106.1 87.9,106.0 89.5,105.9 91.0,105.7 92.6,105.4 94.2,105.2 95.7,105.0 97.3,104.6 98.9,104.1 100.4,103.9 102.0,103.8 103.6,103.6 105.1,103.1 106.7,102.8 108.3,102.4 109.8,102.0 111.4,101.6 113.0,101.5 114.5,101.3 116.1,100.8 117.7,100.4 119.2,100.1 120.8,99.9 122.3,99.7 123.9,99.5 125.5,99.0 127.0,98.6 128.6,98.2 130.2,97.8 131.7,97.6 133.3,97.5 134.9,97.3 136.4,97.0 138.0,96.8 139.6,96.6 141.1,96.4 142.7,96.3 144.3,96.0 145.8,95.9 147.4,95.8 149.0,95.7 150.5,95.2 152.1,95.0 153.7,94.9 155.2,94.8 156.8,94.7 158.3,94.7 159.9,101.9 161.5,101.2 163.0,100.6 164.6,99.9 166.2,97.9 167.7,96.5 169.3,95.1 170.9,94.5 172.4,93.9 174.0,92.9 175.6,91.8 177.1,91.0 178.7,90.7 180.3,90.4 181.8,89.6 183.4,89.0 185.0,88.6 186.5,88.2 188.1,88.0 189.7,87.9 191.2,87.5 192.8,86.8 194.3,86.3 195.9,85.8 197.5,85.3 199.0,85.0 200.6,84.8 202.2,84.4 203.7,83.9 205.3,83.5 206.9,83.2 208.4,83.1 210.0,83.0 211.6,82.7 213.1,82.4 214.7,82.1 216.3,81.8 217.8,81.6 219.4,81.4 221.0,81.2 222.5,81.0 224.1,80.9 225.7,80.7 227.2,80.3 228.8,80.0 230.3,79.7 231.9,79.5 233.5,79.3 235.0,79.1 236.6,79.0 238.2,78.8 239.7,78.3 241.3,77.9 242.9,77.5 244.4,77.3 246.0,77.3 247.6,77.1 249.1,76.8 250.7,76.6 252.3,76.3 253.8,76.0 255.4,75.8 257.0,75.7 258.5,75.5 260.1,75.4 261.7,75.2 263.2,75.0 264.8,74.8 266.3,74.5 267.9,74.4 269.5,74.3 271.0,74.1 272.6,74.0 274.2,73.8 275.7,73.5 277.3,73.3 278.9,73.1 280.4,72.8 282.0,72.7 283.6,72.6 285.1,72.4 286.7,72.1 288.3,71.8 289.8,71.6 291.4,71.3 293.0,70.9 294.5,70.8 296.1,70.7 297.7,70.6 299.2,70.4 300.8,70.2 302.3,70.0 303.9,69.9 305.5,69.7 307.0,69.5 308.6,69.3 310.2,69.2 311.7,69.1 313.3,68.9 314.9,68.6 316.4,68.5 318.0,68.3 319.6,68.2 321.1,68.0 322.7,67.8 324.3,67.7 325.8,67.6 327.4,67.4 329.0,67.1 330.5,66.8 332.1,66.6 333.7,66.4 335.2,66.3 336.8,66.2 338.3,66.0 339.9,65.7 341.5,65.6 343.0,65.5 344.6,65.3 346.2,65.1 347.7,64.9 349.3,64.8 350.9,64.7 352.4,64.4 354.0,64.2 355.6,64.0 357.1,63.7 358.7,63.6 360.3,63.6 361.8,63.5 363.4,63.3 365.0,63.2 366.5,63.0 368.1,62.8 369.7,62.6 371.2,62.5 372.8,62.4 374.3,62.2 375.9,62.1 377.5,61.8 379.0,61.6 380.6,61.4 382.2,61.2 383.7,61.1 385.3,61.0 386.9,60.9 388.4,60.8 390.0,60.7 391.6,60.5 393.1,60.3 394.7,60.1 396.3,60.0 397.8,59.9 399.4,59.7 401.0,59.6 402.5,59.4 404.1,59.2 405.7,59.1 407.2,59.0 408.8,58.8 410.3,58.6 411.9,58.4 413.5,58.3 415.0,58.2 416.6,58.1 418.2,58.0 419.7,57.8 421.3,57.7 422.9,57.7 424.4,57.5 426.0,57.2 427.6,56.9 429.1,61.7 430.7,60.7 432.3,59.0 433.8,58.3 435.4,57.5 437.0,56.4 438.5,55.9 440.1,55.5 441.7,54.8 443.2,53.8 444.8,53.0 446.3,52.8 447.9,52.4 449.5,52.1 451.0,51.6 452.6,51.0 454.2,50.5 455.7,50.2 457.3,49.7 458.9,49.4 460.4,49.1 462.0,48.8 463.6,48.5 465.1,48.3 466.7,47.8 468.3,47.4 469.8,47.0 471.4,46.3 473.0,45.9 474.5,45.7 476.1,45.5 477.7,45.3 479.2,44.8 480.8,44.5 482.3,44.2 483.9,43.2 485.5,42.4 487.0,42.1 488.6,41.9 490.2,41.6 491.7,41.1 493.3,40.6 494.9,40.1 496.4,39.7 498.0,39.4 499.6,39.0 501.1,38.6 502.7,38.3 504.3,38.2 505.8,38.0 507.4,37.8 509.0,37.5 510.5,37.3 512.1,37.0 513.7,36.8 515.2,36.7 516.8,36.3 518.3,36.2 519.9,36.0 521.5,35.8 523.0,35.5 524.6,35.4 526.2,35.2 527.7,35.1 529.3,34.9 530.9,34.8 532.4,34.6 534.0,34.4 535.6,34.2 537.1,34.0 538.7,33.8 540.3,33.6 541.8,33.4 543.4,33.3 545.0,33.2 546.5,33.0 548.1,32.8 549.7,32.7 551.2,32.6 552.8,32.4 554.3,32.2 555.9,32.0 557.5,31.8 559.0,31.5 560.6,31.4 562.2,31.1 563.7,30.9 565.3,30.7 566.9,30.4 568.4,30.2 570.0,30.0" />
  
  <!-- Punto finale luminoso -->
  <circle cx="570.0" cy="30.0" r="4" fill="#ffffff" stroke="#0366d6" stroke-width="2.5" />
</svg>