<svg width="600" height="150" viewBox="0 0 600 150" xmlns="http://www.w3.org/2000/svg">
  <defs>
    <filter id="shadow2" x="-2%" y="-2%" width="104%" height="108%">
      <feDropShadow dx="0" dy="2" stdDeviation="3" flood-opacity="0.1" />
    </filter>
    <linearGradient id="fillGrad" x1="0" y1="0" x2="0" y2="1">
      <stop offset="0%" stop-color="#0366d6" stop-opacity="0.3"/>
      <stop offset="100%" stop-color="#0366d6" stop-opacity="0.02"/>
    </linearGradient>
  </defs>
  <rect width="600" height="150" rx="12" fill="#ffffff" filter="url(#shadow2)" stroke="#e1e4e8" stroke-width="1"/>
  <text x="20" y="24" fill="#2b3137" font-family="-apple-system,BlinkMacSystemFont,'Segoe UI',Helvetica,Arial,sans-serif" font-size="14" font-weight="600">📈 Download Growth (Actual: 85.0k)</text>
  
  <!-- Area sotto la linea -->
  <polygon fill="url(#fillGrad)" points="30.0,120.0,120 30.0,120.0 31.5,119.4 33.0,118.8 34.6,118.3 36.1,118.2 37.6,117.9 39.1,117.3 40.6,116.8 42.2,116.5 43.7,115.9 45.2,115.5 46.7,115.2 48.3,115.0 49.8,114.7 51.3,114.3 52.8,113.8 54.3,113.4 55.9,113.2 57.4,113.0 58.9,112.7 60.4,112.3 61.9,112.0 63.5,111.9 65.0,111.6 66.5,110.5 68.0,110.2 69.5,109.8 71.1,109.4 72.6,109.1 74.1,108.7 75.6,108.5 77.2,108.3 78.7,108.0 80.2,107.5 81.7,107.1 83.2,106.8 84.8,106.4 86.3,106.3 87.8,106.2 89.3,106.0 90.8,105.7 92.4,105.5 93.9,105.4 95.4,105.0 96.9,104.4 98.5,104.3 100.0,104.2 101.5,104.0 103.0,103.5 104.5,103.2 106.1,102.8 107.6,102.4 109.1,102.0 110.6,101.9 112.1,101.7 113.7,101.3 115.2,100.8 116.7,100.5 118.2,100.4 119.7,100.2 121.3,100.0 122.8,99.5 124.3,99.1 125.8,98.7 127.4,98.3 128.9,98.1 130.4,98.0 131.9,97.8 133.4,97.5 135.0,97.3 136.5,97.1 138.0,96.9 139.5,96.8 141.0,96.6 142.6,96.4 144.1,96.3 145.6,96.2 147.1,95.8 148.6,95.5 150.2,95.5 151.7,95.3 153.2,95.2 154.7,95.2 156.3,102.3 157.8,101.6 159.3,101.0 160.8,100.3 162.3,98.4 163.9,97.0 165.4,95.6 166.9,95.1 168.4,94.5 169.9,93.5 171.5,92.4 173.0,91.6 174.5,91.3 176.0,91.0 177.5,90.2 179.1,89.7 180.6,89.3 182.1,88.8 183.6,88.7 185.2,88.6 186.7,88.2 188.2,87.5 189.7,87.0 191.2,86.6 192.8,86.0 194.3,85.8 195.8,85.6 197.3,85.1 198.8,84.7 200.4,84.3 201.9,84.0 203.4,83.9 204.9,83.8 206.5,83.5 208.0,83.2 209.5,82.9 211.0,82.7 212.5,82.5 214.1,82.3 215.6,82.1 217.1,81.9 218.6,81.7 220.1,81.5 221.7,81.2 223.2,80.9 224.7,80.6 226.2,80.4 227.7,80.2 229.3,80.0 230.8,79.9 232.3,79.7 233.8,79.2 235.4,78.9 236.9,78.4 238.4,78.3 239.9,78.2 241.4,78.0 243.0,77.8 244.5,77.5 246.0,77.3 247.5,77.0 249.0,76.8 250.6,76.7 252.1,76.5 253.6,76.4 255.1,76.2 256.6,76.0 258.2,75.8 259.7,75.5 261.2,75.4 262.7,75.3 264.3,75.1 265.8,75.0 267.3,74.8 268.8,74.6 270.3,74.3 271.9,74.1 273.4,73.9 274.9,73.7 276.4,73.6 277.9,73.4 279.5,73.1 281.0,72.8 282.5,72.6 284.0,72.4 285.5,72.0 287.1,71.9 288.6,71.8 290.1,71.7 291.6,71.5 293.2,71.3 294.7,71.1 296.2,71.0 297.7,70.8 299.2,70.6 300.8,70.5 302.3,70.3 303.8,70.2 305.3,70.0 306.8,69.8 308.4,69.6 309.9,69.4 311.4,69.3 312.9,69.2 314.5,69.0 316.0,68.9 317.5,68.7 319.0,68.6 320.5,68.3 322.1,67.9 323.6,67.7 325.1,67.5 326.6,67.5 328.1,67.4 329.7,67.2 331.2,66.9 332.7,66.8 334.2,66.7 335.7,66.5 337.3,66.3 338.8,66.1 340.3,66.0 341.8,65.9 343.4,65.6 344.9,65.4 346.4,65.2 347.9,65.0 349.4,64.9 351.0,64.8 352.5,64.7 354.0,64.6 355.5,64.4 357.0,64.2 358.6,64.1 360.1,63.9 361.6,63.8 363.1,63.6 364.6,63.5 366.2,63.3 367.7,63.1 369.2,62.9 370.7,62.7 372.3,62.5 373.8,62.4 375.3,62.3 376.8,62.2 378.3,62.1 379.9,62.0 381.4,61.8 382.9,61.6 384.4,61.4 385.9,61.3 387.5,61.2 389.0,61.0 390.5,60.9 392.0,60.7 393.5,60.6 395.1,60.4 396.6,60.3 398.1,60.1 399.6,59.9 401.2,59.8 402.7,59.7 404.2,59.6 405.7,59.5 407.2,59.3 408.8,59.2 410.3,59.1 411.8,59.0 413.3,58.9 414.8,58.5 416.4,58.3 417.9,62.9 419.4,62.0 420.9,60.3 422.5,59.6 424.0,58.8 425.5,57.8 427.0,57.3 428.5,56.9 430.1,56.2 431.6,55.2 433.1,54.5 434.6,54.2 436.1,53.9 437.7,53.6 439.2,53.0 440.7,52.6 442.2,52.0 443.7,51.7 445.3,51.2 446.8,51.0 448.3,50.6 449.8,50.4 451.4,50.1 452.9,49.9 454.4,49.3 455.9,49.0 457.4,48.5 459.0,47.9 460.5,47.5 462.0,47.3 463.5,47.1 465.0,46.9 466.6,46.5 468.1,46.1 469.6,45.8 471.1,44.9 472.6,44.1 474.2,43.8 475.7,43.6 477.2,43.3 478.7,42.8 480.3,42.4 481.8,41.8 483.3,41.5 484.8,41.1 486.3,40.8 487.9,40.4 489.4,40.1 490.9,39.9 492.4,39.8 493.9,39.6 495.5,39.3 497.0,39.1 498.5,38.9 500.0,38.6 501.5,38.5 503.1,38.2 504.6,38.0 506.1,37.8 507.6,37.6 509.2,37.4 510.7,37.2 512.2,37.1 513.7,36.9 515.2,36.8 516.8,36.7 518.3,36.5 519.8,36.3 521.3,36.1 522.8,35.9 524.4,35.7 525.9,35.5 527.4,35.3 528.9,35.2 530.5,35.1 532.0,34.9 533.5,34.8 535.0,34.6 536.5,34.5 538.1,34.3 539.6,34.1 541.1,34.0 542.6,33.7 544.1,33.5 545.7,33.3 547.2,33.1 548.7,32.8 550.2,32.7 551.7,32.4 553.3,32.2 554.8,32.0 556.3,31.7 557.8,31.5 559.4,31.2 560.9,31.0 562.4,30.7 563.9,30.6 565.4,30.4 567.0,30.3 568.5,30.2 570.0,30.0 570.0,30.0,120" />
  
  <!-- Linea principale -->
  <polyline fill="none" stroke="#0366d6" stroke-width="2.5" stroke-linecap="round" stroke-linejoin="round" points="30.0,120.0 31.5,119.4 33.0,118.8 34.6,118.3 36.1,118.2 37.6,117.9 39.1,117.3 40.6,116.8 42.2,116.5 43.7,115.9 45.2,115.5 46.7,115.2 48.3,115.0 49.8,114.7 51.3,114.3 52.8,113.8 54.3,113.4 55.9,113.2 57.4,113.0 58.9,112.7 60.4,112.3 61.9,112.0 63.5,111.9 65.0,111.6 66.5,110.5 68.0,110.2 69.5,109.8 71.1,109.4 72.6,109.1 74.1,108.7 75.6,108.5 77.2,108.3 78.7,108.0 80.2,107.5 81.7,107.1 83.2,106.8 84.8,106.4 86.3,106.3 87.8,106.2 89.3,106.0 90.8,105.7 92.4,105.5 93.9,105.4 95.4,105.0 96.9,104.4 98.5,104.3 100.0,104.2 101.5,104.0 103.0,103.5 104.5,103.2 106.1,102.8 107.6,102.4 109.1,102.0 110.6,101.9 112.1,101.7 113.7,101.3 115.2,100.8 116.7,100.5 118.2,100.4 119.7,100.2 121.3,100.0 122.8,99.5 124.3,99.1 125.8,98.7 127.4,98.3 128.9,98.1 130.4,98.0 131.9,97.8 133.4,97.5 135.0,97.3 136.5,97.1 138.0,96.9 139.5,96.8 141.0,96.6 142.6,96.4 144.1,96.3 145.6,96.2 147.1,95.8 148.6,95.5 150.2,95.5 151.7,95.3 153.2,95.2 154.7,95.2 156.3,102.3 157.8,101.6 159.3,101.0 160.8,100.3 162.3,98.4 163.9,97.0 165.4,95.6 166.9,95.1 168.4,94.5 169.9,93.5 171.5,92.4 173.0,91.6 174.5,91.3 176.0,91.0 177.5,90.2 179.1,89.7 180.6,89.3 182.1,88.8 183.6,88.7 185.2,88.6 186.7,88.2 188.2,87.5 189.7,87.0 191.2,86.6 192.8,86.0 194.3,85.8 195.8,85.6 197.3,85.1 198.8,84.7 200.4,84.3 201.9,84.0 203.4,83.9 204.9,83.8 206.5,83.5 208.0,83.2 209.5,82.9 211.0,82.7 212.5,82.5 214.1,82.3 215.6,82.1 217.1,81.9 218.6,81.7 220.1,81.5 221.7,81.2 223.2,80.9 224.7,80.6 226.2,80.4 227.7,80.2 229.3,80.0 230.8,79.9 232.3,79.7 233.8,79.2 235.4,78.9 236.9,78.4 238.4,78.3 239.9,78.2 241.4,78.0 243.0,77.8 244.5,77.5 246.0,77.3 247.5,77.0 249.0,76.8 250.6,76.7 252.1,76.5 253.6,76.4 255.1,76.2 256.6,76.0 258.2,75.8 259.7,75.5 261.2,75.4 262.7,75.3 264.3,75.1 265.8,75.0 267.3,74.8 268.8,74.6 270.3,74.3 271.9,74.1 273.4,73.9 274.9,73.7 276.4,73.6 277.9,73.4 279.5,73.1 281.0,72.8 282.5,72.6 284.0,72.4 285.5,72.0 287.1,71.9 288.6,71.8 290.1,71.7 291.6,71.5 293.2,71.3 294.7,71.1 296.2,71.0 297.7,70.8 299.2,70.6 300.8,70.5 302.3,70.3 303.8,70.2 305.3,70.0 306.8,69.8 308.4,69.6 309.9,69.4 311.4,69.3 312.9,69.2 314.5,69.0 316.0,68.9 317.5,68.7 319.0,68.6 320.5,68.3 322.1,67.9 323.6,67.7 325.1,67.5 326.6,67.5 328.1,67.4 329.7,67.2 331.2,66.9 332.7,66.8 334.2,66.7 335.7,66.5 337.3,66.3 338.8,66.1 340.3,66.0 341.8,65.9 343.4,65.6 344.9,65.4 346.4,65.2 347.9,65.0 349.4,64.9 351.0,64.8 352.5,64.7 354.0,64.6 355.5,64.4 357.0,64.2 358.6,64.1 360.1,63.9 361.6,63.8 363.1,63.6 364.6,63.5 366.2,63.3 367.7,63.1 369.2,62.9 370.7,62.7 372.3,62.5 373.8,62.4 375.3,62.3 376.8,62.2 378.3,62.1 379.9,62.0 381.4,61.8 382.9,61.6 384.4,61.4 385.9,61.3 387.5,61.2 389.0,61.0 390.5,60.9 392.0,60.7 393.5,60.6 395.1,60.4 396.6,60.3 398.1,60.1 399.6,59.9 401.2,59.8 402.7,59.7 404.2,59.6 405.7,59.5 407.2,59.3 408.8,59.2 410.3,59.1 411.8,59.0 413.3,58.9 414.8,58.5 416.4,58.3 417.9,62.9 419.4,62.0 420.9,60.3 422.5,59.6 424.0,58.8 425.5,57.8 427.0,57.3 428.5,56.9 430.1,56.2 431.6,55.2 433.1,54.5 434.6,54.2 436.1,53.9 437.7,53.6 439.2,53.0 440.7,52.6 442.2,52.0 443.7,51.7 445.3,51.2 446.8,51.0 448.3,50.6 449.8,50.4 451.4,50.1 452.9,49.9 454.4,49.3 455.9,49.0 457.4,48.5 459.0,47.9 460.5,47.5 462.0,47.3 463.5,47.1 465.0,46.9 466.6,46.5 468.1,46.1 469.6,45.8 471.1,44.9 472.6,44.1 474.2,43.8 475.7,43.6 477.2,43.3 478.7,42.8 480.3,42.4 481.8,41.8 483.3,41.5 484.8,41.1 486.3,40.8 487.9,40.4 489.4,40.1 490.9,39.9 492.4,39.8 493.9,39.6 495.5,39.3 497.0,39.1 498.5,38.9 500.0,38.6 501.5,38.5 503.1,38.2 504.6,38.0 506.1,37.8 507.6,37.6 509.2,37.4 510.7,37.2 512.2,37.1 513.7,36.9 515.2,36.8 516.8,36.7 518.3,36.5 519.8,36.3 521.3,36.1 522.8,35.9 524.4,35.7 525.9,35.5 527.4,35.3 528.9,35.2 530.5,35.1 532.0,34.9 533.5,34.8 535.0,34.6 536.5,34.5 538.1,34.3 539.6,34.1 541.1,34.0 542.6,33.7 544.1,33.5 545.7,33.3 547.2,33.1 548.7,32.8 550.2,32.7 551.7,32.4 553.3,32.2 554.8,32.0 556.3,31.7 557.8,31.5 559.4,31.2 560.9,31.0 562.4,30.7 563.9,30.6 565.4,30.4 567.0,30.3 568.5,30.2 570.0,30.0" />
  
  <!-- Punto finale luminoso -->
  <circle cx="570.0" cy="30.0" r="4" fill="#ffffff" stroke="#0366d6" stroke-width="2.5" />
</svg>