<svg width="600" height="150" viewBox="0 0 600 150" xmlns="http://www.w3.org/2000/svg">
  <defs>
    <filter id="shadow2" x="-2%" y="-2%" width="104%" height="108%">
      <feDropShadow dx="0" dy="2" stdDeviation="3" flood-opacity="0.1" />
    </filter>
    <linearGradient id="fillGrad" x1="0" y1="0" x2="0" y2="1">
      <stop offset="0%" stop-color="#0366d6" stop-opacity="0.3"/>
      <stop offset="100%" stop-color="#0366d6" stop-opacity="0.02"/>
    </linearGradient>
  </defs>
  <rect width="600" height="150" rx="12" fill="#ffffff" filter="url(#shadow2)" stroke="#e1e4e8" stroke-width="1"/>
  <text x="20" y="24" fill="#2b3137" font-family="-apple-system,BlinkMacSystemFont,'Segoe UI',Helvetica,Arial,sans-serif" font-size="14" font-weight="600">📈 Download Growth (Actual: 83.0k)</text>
  
  <!-- Area sotto la linea -->
  <polygon fill="url(#fillGrad)" points="30.0,120.0,120 30.0,120.0 31.8,119.4 33.6,118.7 35.4,118.1 37.2,117.9 38.9,117.6 40.7,116.9 42.5,116.4 44.3,116.1 46.1,115.3 47.9,115.0 49.7,114.6 51.5,114.4 53.2,114.0 55.0,113.5 56.8,113.0 58.6,112.6 60.4,112.3 62.2,112.1 64.0,111.8 65.8,111.4 67.5,111.0 69.3,110.9 71.1,110.5 72.9,109.4 74.7,109.0 76.5,108.5 78.3,108.1 80.1,107.7 81.9,107.3 83.6,107.0 85.4,106.8 87.2,106.5 89.0,105.9 90.8,105.4 92.6,105.1 94.4,104.7 96.2,104.6 97.9,104.5 99.7,104.3 101.5,103.9 103.3,103.7 105.1,103.5 106.9,103.1 108.7,102.4 110.5,102.3 112.3,102.2 114.0,101.9 115.8,101.4 117.6,101.1 119.4,100.6 121.2,100.2 123.0,99.7 124.8,99.6 126.6,99.4 128.3,98.9 130.1,98.4 131.9,98.0 133.7,97.9 135.5,97.6 137.3,97.4 139.1,96.9 140.9,96.4 142.6,96.0 144.4,95.5 146.2,95.3 148.0,95.2 149.8,95.0 151.6,94.6 153.4,94.4 155.2,94.2 157.0,94.0 158.7,93.8 160.5,93.6 162.3,93.4 164.1,93.3 165.9,93.2 167.7,92.7 169.5,92.4 171.3,92.3 173.0,92.2 174.8,92.1 176.6,92.1 178.4,100.1 180.2,99.3 182.0,98.6 183.8,97.8 185.6,95.7 187.4,94.1 189.1,92.5 190.9,91.9 192.7,91.2 194.5,90.1 196.3,88.9 198.1,88.0 199.9,87.7 201.7,87.3 203.4,86.5 205.2,85.8 207.0,85.4 208.8,84.9 210.6,84.7 212.4,84.6 214.2,84.1 216.0,83.4 217.7,82.9 219.5,82.3 221.3,81.7 223.1,81.4 224.9,81.2 226.7,80.7 228.5,80.2 230.3,79.8 232.1,79.5 233.8,79.3 235.6,79.2 237.4,78.9 239.2,78.5 241.0,78.2 242.8,77.9 244.6,77.7 246.4,77.5 248.1,77.3 249.9,77.0 251.7,76.9 253.5,76.7 255.3,76.2 257.1,75.9 258.9,75.6 260.7,75.4 262.5,75.1 264.2,75.0 266.0,74.8 267.8,74.6 269.6,74.0 271.4,73.6 273.2,73.2 275.0,73.0 276.8,72.9 278.5,72.7 280.3,72.4 282.1,72.1 283.9,71.9 285.7,71.5 287.5,71.3 289.3,71.2 291.1,71.0 292.8,70.8 294.6,70.7 296.4,70.4 298.2,70.2 300.0,69.9 301.8,69.7 303.6,69.6 305.4,69.4 307.2,69.3 308.9,69.0 310.7,68.8 312.5,68.5 314.3,68.3 316.1,68.0 317.9,67.8 319.7,67.7 321.5,67.5 323.2,67.2 325.0,66.9 326.8,66.6 328.6,66.4 330.4,65.9 332.2,65.8 334.0,65.7 335.8,65.6 337.5,65.3 339.3,65.1 341.1,64.9 342.9,64.7 344.7,64.5 346.5,64.4 348.3,64.2 350.1,64.0 351.9,63.9 353.6,63.7 355.4,63.4 357.2,63.2 359.0,63.0 360.8,62.9 362.6,62.7 364.4,62.5 366.2,62.4 367.9,62.2 369.7,62.0 371.5,61.7 373.3,61.3 375.1,61.1 376.9,60.9 378.7,60.8 380.5,60.7 382.3,60.5 384.0,60.2 385.8,60.0 387.6,59.9 389.4,59.7 391.2,59.5 393.0,59.3 394.8,59.1 396.6,59.0 398.3,58.7 400.1,58.5 401.9,58.2 403.7,58.0 405.5,57.9 407.3,57.8 409.1,57.7 410.9,57.6 412.6,57.4 414.4,57.2 416.2,57.0 418.0,56.8 419.8,56.6 421.6,56.5 423.4,56.3 425.2,56.2 427.0,55.9 428.7,55.6 430.5,55.4 432.3,55.2 434.1,55.1 435.9,55.0 437.7,54.9 439.5,54.8 441.3,54.6 443.0,54.5 444.8,54.2 446.6,54.0 448.4,53.8 450.2,53.7 452.0,53.6 453.8,53.4 455.6,53.2 457.4,53.0 459.1,52.9 460.9,52.7 462.7,52.5 464.5,52.3 466.3,52.1 468.1,52.0 469.9,51.9 471.7,51.8 473.4,51.7 475.2,51.5 477.0,51.3 478.8,51.3 480.6,51.1 482.4,50.8 484.2,50.5 486.0,55.7 487.7,54.7 489.5,52.7 491.3,52.0 493.1,51.1 494.9,49.9 496.7,49.3 498.5,48.9 500.3,48.2 502.1,47.0 503.8,46.2 505.6,45.9 507.4,45.5 509.2,45.1 511.0,44.6 512.8,44.0 514.6,43.4 516.4,43.1 518.1,42.5 519.9,42.2 521.7,41.8 523.5,41.6 525.3,41.3 527.1,41.0 528.9,40.4 530.7,40.0 532.5,39.5 534.2,38.8 536.0,38.4 537.8,38.1 539.6,37.9 541.4,37.6 543.2,37.2 545.0,36.8 546.8,36.4 548.5,35.3 550.3,34.5 552.1,34.1 553.9,33.9 555.7,33.6 557.5,33.0 559.3,32.5 561.1,31.9 562.8,31.5 564.6,31.1 566.4,30.8 568.2,30.3 570.0,30.0 570.0,30.0,120" />
  
  <!-- Linea principale -->
  <polyline fill="none" stroke="#0366d6" stroke-width="2.5" stroke-linecap="round" stroke-linejoin="round" points="30.0,120.0 31.8,119.4 33.6,118.7 35.4,118.1 37.2,117.9 38.9,117.6 40.7,116.9 42.5,116.4 44.3,116.1 46.1,115.3 47.9,115.0 49.7,114.6 51.5,114.4 53.2,114.0 55.0,113.5 56.8,113.0 58.6,112.6 60.4,112.3 62.2,112.1 64.0,111.8 65.8,111.4 67.5,111.0 69.3,110.9 71.1,110.5 72.9,109.4 74.7,109.0 76.5,108.5 78.3,108.1 80.1,107.7 81.9,107.3 83.6,107.0 85.4,106.8 87.2,106.5 89.0,105.9 90.8,105.4 92.6,105.1 94.4,104.7 96.2,104.6 97.9,104.5 99.7,104.3 101.5,103.9 103.3,103.7 105.1,103.5 106.9,103.1 108.7,102.4 110.5,102.3 112.3,102.2 114.0,101.9 115.8,101.4 117.6,101.1 119.4,100.6 121.2,100.2 123.0,99.7 124.8,99.6 126.6,99.4 128.3,98.9 130.1,98.4 131.9,98.0 133.7,97.9 135.5,97.6 137.3,97.4 139.1,96.9 140.9,96.4 142.6,96.0 144.4,95.5 146.2,95.3 148.0,95.2 149.8,95.0 151.6,94.6 153.4,94.4 155.2,94.2 157.0,94.0 158.7,93.8 160.5,93.6 162.3,93.4 164.1,93.3 165.9,93.2 167.7,92.7 169.5,92.4 171.3,92.3 173.0,92.2 174.8,92.1 176.6,92.1 178.4,100.1 180.2,99.3 182.0,98.6 183.8,97.8 185.6,95.7 187.4,94.1 189.1,92.5 190.9,91.9 192.7,91.2 194.5,90.1 196.3,88.9 198.1,88.0 199.9,87.7 201.7,87.3 203.4,86.5 205.2,85.8 207.0,85.4 208.8,84.9 210.6,84.7 212.4,84.6 214.2,84.1 216.0,83.4 217.7,82.9 219.5,82.3 221.3,81.7 223.1,81.4 224.9,81.2 226.7,80.7 228.5,80.2 230.3,79.8 232.1,79.5 233.8,79.3 235.6,79.2 237.4,78.9 239.2,78.5 241.0,78.2 242.8,77.9 244.6,77.7 246.4,77.5 248.1,77.3 249.9,77.0 251.7,76.9 253.5,76.7 255.3,76.2 257.1,75.9 258.9,75.6 260.7,75.4 262.5,75.1 264.2,75.0 266.0,74.8 267.8,74.6 269.6,74.0 271.4,73.6 273.2,73.2 275.0,73.0 276.8,72.9 278.5,72.7 280.3,72.4 282.1,72.1 283.9,71.9 285.7,71.5 287.5,71.3 289.3,71.2 291.1,71.0 292.8,70.8 294.6,70.7 296.4,70.4 298.2,70.2 300.0,69.9 301.8,69.7 303.6,69.6 305.4,69.4 307.2,69.3 308.9,69.0 310.7,68.8 312.5,68.5 314.3,68.3 316.1,68.0 317.9,67.8 319.7,67.7 321.5,67.5 323.2,67.2 325.0,66.9 326.8,66.6 328.6,66.4 330.4,65.9 332.2,65.8 334.0,65.7 335.8,65.6 337.5,65.3 339.3,65.1 341.1,64.9 342.9,64.7 344.7,64.5 346.5,64.4 348.3,64.2 350.1,64.0 351.9,63.9 353.6,63.7 355.4,63.4 357.2,63.2 359.0,63.0 360.8,62.9 362.6,62.7 364.4,62.5 366.2,62.4 367.9,62.2 369.7,62.0 371.5,61.7 373.3,61.3 375.1,61.1 376.9,60.9 378.7,60.8 380.5,60.7 382.3,60.5 384.0,60.2 385.8,60.0 387.6,59.9 389.4,59.7 391.2,59.5 393.0,59.3 394.8,59.1 396.6,59.0 398.3,58.7 400.1,58.5 401.9,58.2 403.7,58.0 405.5,57.9 407.3,57.8 409.1,57.7 410.9,57.6 412.6,57.4 414.4,57.2 416.2,57.0 418.0,56.8 419.8,56.6 421.6,56.5 423.4,56.3 425.2,56.2 427.0,55.9 428.7,55.6 430.5,55.4 432.3,55.2 434.1,55.1 435.9,55.0 437.7,54.9 439.5,54.8 441.3,54.6 443.0,54.5 444.8,54.2 446.6,54.0 448.4,53.8 450.2,53.7 452.0,53.6 453.8,53.4 455.6,53.2 457.4,53.0 459.1,52.9 460.9,52.7 462.7,52.5 464.5,52.3 466.3,52.1 468.1,52.0 469.9,51.9 471.7,51.8 473.4,51.7 475.2,51.5 477.0,51.3 478.8,51.3 480.6,51.1 482.4,50.8 484.2,50.5 486.0,55.7 487.7,54.7 489.5,52.7 491.3,52.0 493.1,51.1 494.9,49.9 496.7,49.3 498.5,48.9 500.3,48.2 502.1,47.0 503.8,46.2 505.6,45.9 507.4,45.5 509.2,45.1 511.0,44.6 512.8,44.0 514.6,43.4 516.4,43.1 518.1,42.5 519.9,42.2 521.7,41.8 523.5,41.6 525.3,41.3 527.1,41.0 528.9,40.4 530.7,40.0 532.5,39.5 534.2,38.8 536.0,38.4 537.8,38.1 539.6,37.9 541.4,37.6 543.2,37.2 545.0,36.8 546.8,36.4 548.5,35.3 550.3,34.5 552.1,34.1 553.9,33.9 555.7,33.6 557.5,33.0 559.3,32.5 561.1,31.9 562.8,31.5 564.6,31.1 566.4,30.8 568.2,30.3 570.0,30.0" />
  
  <!-- Punto finale luminoso -->
  <circle cx="570.0" cy="30.0" r="4" fill="#ffffff" stroke="#0366d6" stroke-width="2.5" />
</svg>