<svg width="600" height="150" viewBox="0 0 600 150" xmlns="http://www.w3.org/2000/svg">
  <defs>
    <filter id="shadow2" x="-2%" y="-2%" width="104%" height="108%">
      <feDropShadow dx="0" dy="2" stdDeviation="3" flood-opacity="0.1" />
    </filter>
    <linearGradient id="fillGrad" x1="0" y1="0" x2="0" y2="1">
      <stop offset="0%" stop-color="#0366d6" stop-opacity="0.3"/>
      <stop offset="100%" stop-color="#0366d6" stop-opacity="0.02"/>
    </linearGradient>
  </defs>
  <rect width="600" height="150" rx="12" fill="#ffffff" filter="url(#shadow2)" stroke="#e1e4e8" stroke-width="1"/>
  <text x="20" y="24" fill="#2b3137" font-family="-apple-system,BlinkMacSystemFont,'Segoe UI',Helvetica,Arial,sans-serif" font-size="14" font-weight="600">📈 Download Growth (Actual: 83.9k)</text>
  
  <!-- Area sotto la linea -->
  <polygon fill="url(#fillGrad)" points="30.0,120.0,120 30.0,120.0 31.7,119.4 33.3,118.8 35.0,118.2 36.6,118.1 38.3,117.8 39.9,117.1 41.6,116.6 43.3,116.3 44.9,115.6 46.6,115.2 48.2,114.9 49.9,114.7 51.5,114.4 53.2,113.9 54.8,113.4 56.5,113.0 58.2,112.7 59.8,112.5 61.5,112.2 63.1,111.8 64.8,111.5 66.4,111.4 68.1,111.0 69.8,109.9 71.4,109.6 73.1,109.2 74.7,108.7 76.4,108.3 78.0,108.0 79.7,107.7 81.3,107.5 83.0,107.2 84.7,106.7 86.3,106.2 88.0,105.9 89.6,105.5 91.3,105.4 92.9,105.3 94.6,105.1 96.3,104.8 97.9,104.6 99.6,104.4 101.2,104.0 102.9,103.4 104.5,103.3 106.2,103.1 107.9,102.9 109.5,102.4 111.2,102.1 112.8,101.6 114.5,101.3 116.1,100.8 117.8,100.7 119.4,100.5 121.1,100.0 122.8,99.6 124.4,99.2 126.1,99.1 127.7,98.9 129.4,98.7 131.0,98.2 132.7,97.7 134.4,97.3 136.0,96.9 137.7,96.7 139.3,96.5 141.0,96.3 142.6,96.0 144.3,95.8 146.0,95.6 147.6,95.4 149.3,95.3 150.9,95.0 152.6,94.9 154.2,94.8 155.9,94.6 157.5,94.2 159.2,93.9 160.9,93.9 162.5,93.7 164.2,93.6 165.8,93.6 167.5,101.1 169.1,100.4 170.8,99.7 172.5,99.0 174.1,97.0 175.8,95.5 177.4,94.0 179.1,93.4 180.7,92.8 182.4,91.7 184.0,90.6 185.7,89.7 187.4,89.4 189.0,89.1 190.7,88.3 192.3,87.7 194.0,87.3 195.6,86.8 197.3,86.6 199.0,86.5 200.6,86.1 202.3,85.4 203.9,84.9 205.6,84.4 207.2,83.8 208.9,83.5 210.6,83.3 212.2,82.8 213.9,82.4 215.5,82.0 217.2,81.7 218.8,81.5 220.5,81.4 222.1,81.1 223.8,80.8 225.5,80.5 227.1,80.2 228.8,80.0 230.4,79.8 232.1,79.6 233.7,79.4 235.4,79.2 237.1,79.0 238.7,78.6 240.4,78.3 242.0,78.0 243.7,77.8 245.3,77.6 247.0,77.4 248.7,77.3 250.3,77.1 252.0,76.5 253.6,76.2 255.3,75.7 256.9,75.5 258.6,75.5 260.2,75.3 261.9,75.0 263.6,74.7 265.2,74.5 266.9,74.1 268.5,73.9 270.2,73.8 271.8,73.6 273.5,73.5 275.2,73.3 276.8,73.1 278.5,72.9 280.1,72.6 281.8,72.5 283.4,72.3 285.1,72.2 286.7,72.1 288.4,71.8 290.1,71.6 291.7,71.3 293.4,71.1 295.0,70.8 296.7,70.7 298.3,70.6 300.0,70.4 301.7,70.1 303.3,69.7 305.0,69.5 306.6,69.3 308.3,68.9 309.9,68.8 311.6,68.6 313.3,68.5 314.9,68.3 316.6,68.1 318.2,67.9 319.9,67.7 321.5,67.6 323.2,67.4 324.8,67.2 326.5,67.1 328.2,67.0 329.8,66.8 331.5,66.5 333.1,66.3 334.8,66.1 336.4,66.0 338.1,65.8 339.8,65.6 341.4,65.5 343.1,65.4 344.7,65.2 346.4,64.9 348.0,64.5 349.7,64.3 351.3,64.1 353.0,64.0 354.7,64.0 356.3,63.7 358.0,63.4 359.6,63.3 361.3,63.2 362.9,63.0 364.6,62.8 366.3,62.6 367.9,62.5 369.6,62.3 371.2,62.1 372.9,61.9 374.5,61.6 376.2,61.4 377.9,61.3 379.5,61.2 381.2,61.1 382.8,60.9 384.5,60.8 386.1,60.6 387.8,60.4 389.4,60.2 391.1,60.1 392.8,59.9 394.4,59.8 396.1,59.6 397.7,59.4 399.4,59.1 401.0,59.0 402.7,58.8 404.4,58.6 406.0,58.5 407.7,58.4 409.3,58.3 411.0,58.2 412.6,58.0 414.3,57.8 416.0,57.6 417.6,57.4 419.3,57.3 420.9,57.2 422.6,57.0 424.2,56.8 425.9,56.7 427.5,56.5 429.2,56.4 430.9,56.2 432.5,56.0 434.2,55.8 435.8,55.7 437.5,55.6 439.1,55.5 440.8,55.4 442.5,55.2 444.1,55.1 445.8,55.0 447.4,54.9 449.1,54.5 450.7,54.3 452.4,59.2 454.0,58.2 455.7,56.4 457.4,55.7 459.0,54.8 460.7,53.7 462.3,53.2 464.0,52.8 465.6,52.1 467.3,51.0 469.0,50.2 470.6,49.9 472.3,49.5 473.9,49.2 475.6,48.7 477.2,48.1 478.9,47.5 480.6,47.3 482.2,46.7 483.9,46.4 485.5,46.1 487.2,45.8 488.8,45.5 490.5,45.3 492.1,44.7 493.8,44.4 495.5,43.9 497.1,43.2 498.8,42.8 500.4,42.6 502.1,42.4 503.7,42.1 505.4,41.7 507.1,41.3 508.7,41.0 510.4,39.9 512.0,39.2 513.7,38.8 515.3,38.6 517.0,38.3 518.7,37.7 520.3,37.3 522.0,36.7 523.6,36.3 525.3,35.9 526.9,35.6 528.6,35.1 530.2,34.9 531.9,34.7 533.6,34.5 535.2,34.3 536.9,34.0 538.5,33.8 540.2,33.5 541.8,33.3 543.5,33.1 545.2,32.8 546.8,32.6 548.5,32.4 550.1,32.2 551.8,32.0 553.4,31.8 555.1,31.7 556.7,31.5 558.4,31.3 560.1,31.2 561.7,31.0 563.4,30.8 565.0,30.6 566.7,30.4 568.3,30.2 570.0,30.0 570.0,30.0,120" />
  
  <!-- Linea principale -->
  <polyline fill="none" stroke="#0366d6" stroke-width="2.5" stroke-linecap="round" stroke-linejoin="round" points="30.0,120.0 31.7,119.4 33.3,118.8 35.0,118.2 36.6,118.1 38.3,117.8 39.9,117.1 41.6,116.6 43.3,116.3 44.9,115.6 46.6,115.2 48.2,114.9 49.9,114.7 51.5,114.4 53.2,113.9 54.8,113.4 56.5,113.0 58.2,112.7 59.8,112.5 61.5,112.2 63.1,111.8 64.8,111.5 66.4,111.4 68.1,111.0 69.8,109.9 71.4,109.6 73.1,109.2 74.7,108.7 76.4,108.3 78.0,108.0 79.7,107.7 81.3,107.5 83.0,107.2 84.7,106.7 86.3,106.2 88.0,105.9 89.6,105.5 91.3,105.4 92.9,105.3 94.6,105.1 96.3,104.8 97.9,104.6 99.6,104.4 101.2,104.0 102.9,103.4 104.5,103.3 106.2,103.1 107.9,102.9 109.5,102.4 111.2,102.1 112.8,101.6 114.5,101.3 116.1,100.8 117.8,100.7 119.4,100.5 121.1,100.0 122.8,99.6 124.4,99.2 126.1,99.1 127.7,98.9 129.4,98.7 131.0,98.2 132.7,97.7 134.4,97.3 136.0,96.9 137.7,96.7 139.3,96.5 141.0,96.3 142.6,96.0 144.3,95.8 146.0,95.6 147.6,95.4 149.3,95.3 150.9,95.0 152.6,94.9 154.2,94.8 155.9,94.6 157.5,94.2 159.2,93.9 160.9,93.9 162.5,93.7 164.2,93.6 165.8,93.6 167.5,101.1 169.1,100.4 170.8,99.7 172.5,99.0 174.1,97.0 175.8,95.5 177.4,94.0 179.1,93.4 180.7,92.8 182.4,91.7 184.0,90.6 185.7,89.7 187.4,89.4 189.0,89.1 190.7,88.3 192.3,87.7 194.0,87.3 195.6,86.8 197.3,86.6 199.0,86.5 200.6,86.1 202.3,85.4 203.9,84.9 205.6,84.4 207.2,83.8 208.9,83.5 210.6,83.3 212.2,82.8 213.9,82.4 215.5,82.0 217.2,81.7 218.8,81.5 220.5,81.4 222.1,81.1 223.8,80.8 225.5,80.5 227.1,80.2 228.8,80.0 230.4,79.8 232.1,79.6 233.7,79.4 235.4,79.2 237.1,79.0 238.7,78.6 240.4,78.3 242.0,78.0 243.7,77.8 245.3,77.6 247.0,77.4 248.7,77.3 250.3,77.1 252.0,76.5 253.6,76.2 255.3,75.7 256.9,75.5 258.6,75.5 260.2,75.3 261.9,75.0 263.6,74.7 265.2,74.5 266.9,74.1 268.5,73.9 270.2,73.8 271.8,73.6 273.5,73.5 275.2,73.3 276.8,73.1 278.5,72.9 280.1,72.6 281.8,72.5 283.4,72.3 285.1,72.2 286.7,72.1 288.4,71.8 290.1,71.6 291.7,71.3 293.4,71.1 295.0,70.8 296.7,70.7 298.3,70.6 300.0,70.4 301.7,70.1 303.3,69.7 305.0,69.5 306.6,69.3 308.3,68.9 309.9,68.8 311.6,68.6 313.3,68.5 314.9,68.3 316.6,68.1 318.2,67.9 319.9,67.7 321.5,67.6 323.2,67.4 324.8,67.2 326.5,67.1 328.2,67.0 329.8,66.8 331.5,66.5 333.1,66.3 334.8,66.1 336.4,66.0 338.1,65.8 339.8,65.6 341.4,65.5 343.1,65.4 344.7,65.2 346.4,64.9 348.0,64.5 349.7,64.3 351.3,64.1 353.0,64.0 354.7,64.0 356.3,63.7 358.0,63.4 359.6,63.3 361.3,63.2 362.9,63.0 364.6,62.8 366.3,62.6 367.9,62.5 369.6,62.3 371.2,62.1 372.9,61.9 374.5,61.6 376.2,61.4 377.9,61.3 379.5,61.2 381.2,61.1 382.8,60.9 384.5,60.8 386.1,60.6 387.8,60.4 389.4,60.2 391.1,60.1 392.8,59.9 394.4,59.8 396.1,59.6 397.7,59.4 399.4,59.1 401.0,59.0 402.7,58.8 404.4,58.6 406.0,58.5 407.7,58.4 409.3,58.3 411.0,58.2 412.6,58.0 414.3,57.8 416.0,57.6 417.6,57.4 419.3,57.3 420.9,57.2 422.6,57.0 424.2,56.8 425.9,56.7 427.5,56.5 429.2,56.4 430.9,56.2 432.5,56.0 434.2,55.8 435.8,55.7 437.5,55.6 439.1,55.5 440.8,55.4 442.5,55.2 444.1,55.1 445.8,55.0 447.4,54.9 449.1,54.5 450.7,54.3 452.4,59.2 454.0,58.2 455.7,56.4 457.4,55.7 459.0,54.8 460.7,53.7 462.3,53.2 464.0,52.8 465.6,52.1 467.3,51.0 469.0,50.2 470.6,49.9 472.3,49.5 473.9,49.2 475.6,48.7 477.2,48.1 478.9,47.5 480.6,47.3 482.2,46.7 483.9,46.4 485.5,46.1 487.2,45.8 488.8,45.5 490.5,45.3 492.1,44.7 493.8,44.4 495.5,43.9 497.1,43.2 498.8,42.8 500.4,42.6 502.1,42.4 503.7,42.1 505.4,41.7 507.1,41.3 508.7,41.0 510.4,39.9 512.0,39.2 513.7,38.8 515.3,38.6 517.0,38.3 518.7,37.7 520.3,37.3 522.0,36.7 523.6,36.3 525.3,35.9 526.9,35.6 528.6,35.1 530.2,34.9 531.9,34.7 533.6,34.5 535.2,34.3 536.9,34.0 538.5,33.8 540.2,33.5 541.8,33.3 543.5,33.1 545.2,32.8 546.8,32.6 548.5,32.4 550.1,32.2 551.8,32.0 553.4,31.8 555.1,31.7 556.7,31.5 558.4,31.3 560.1,31.2 561.7,31.0 563.4,30.8 565.0,30.6 566.7,30.4 568.3,30.2 570.0,30.0" />
  
  <!-- Punto finale luminoso -->
  <circle cx="570.0" cy="30.0" r="4" fill="#ffffff" stroke="#0366d6" stroke-width="2.5" />
</svg>