<svg width="600" height="150" viewBox="0 0 600 150" xmlns="http://www.w3.org/2000/svg">
  <defs>
    <filter id="shadow2" x="-2%" y="-2%" width="104%" height="108%">
      <feDropShadow dx="0" dy="2" stdDeviation="3" flood-opacity="0.1" />
    </filter>
    <linearGradient id="fillGrad" x1="0" y1="0" x2="0" y2="1">
      <stop offset="0%" stop-color="#0366d6" stop-opacity="0.3"/>
      <stop offset="100%" stop-color="#0366d6" stop-opacity="0.02"/>
    </linearGradient>
  </defs>
  <rect width="600" height="150" rx="12" fill="#ffffff" filter="url(#shadow2)" stroke="#e1e4e8" stroke-width="1"/>
  <text x="20" y="24" fill="#2b3137" font-family="-apple-system,BlinkMacSystemFont,'Segoe UI',Helvetica,Arial,sans-serif" font-size="14" font-weight="600">📈 Download Growth (Actual: 87.8k)</text>
  
  <!-- Area sotto la linea -->
  <polygon fill="url(#fillGrad)" points="30.0,120.0,120 30.0,120.0 31.2,119.5 32.5,119.0 33.7,118.5 35.0,118.4 36.2,118.2 37.4,117.6 38.7,117.2 39.9,117.0 41.1,116.4 42.4,116.1 43.6,115.8 44.9,115.7 46.1,115.4 47.3,115.0 48.6,114.6 49.8,114.3 51.1,114.1 52.3,113.9 53.5,113.7 54.8,113.4 56.0,113.1 57.2,113.0 58.5,112.7 59.7,111.8 61.0,111.5 62.2,111.2 63.4,110.8 64.7,110.5 65.9,110.2 67.2,110.0 68.4,109.9 69.6,109.6 70.9,109.2 72.1,108.8 73.3,108.5 74.6,108.2 75.8,108.1 77.1,108.1 78.3,107.9 79.5,107.6 80.8,107.4 82.0,107.3 83.3,107.0 84.5,106.5 85.7,106.4 87.0,106.3 88.2,106.1 89.4,105.7 90.7,105.4 91.9,105.0 93.2,104.8 94.4,104.4 95.6,104.3 96.9,104.1 98.1,103.7 99.4,103.4 100.6,103.1 101.8,103.0 103.1,102.8 104.3,102.6 105.6,102.2 106.8,101.8 108.0,101.5 109.3,101.2 110.5,101.0 111.7,100.9 113.0,100.7 114.2,100.5 115.5,100.3 116.7,100.1 117.9,100.0 119.2,99.9 120.4,99.7 121.7,99.5 122.9,99.5 124.1,99.4 125.4,99.0 126.6,98.8 127.8,98.7 129.1,98.6 130.3,98.5 131.6,98.5 132.8,104.7 134.0,104.1 135.3,103.5 136.5,102.9 137.8,101.3 139.0,100.1 140.2,98.8 141.5,98.4 142.7,97.8 143.9,97.0 145.2,96.1 146.4,95.4 147.7,95.1 148.9,94.9 150.1,94.2 151.4,93.7 152.6,93.4 153.9,93.0 155.1,92.8 156.3,92.8 157.6,92.4 158.8,91.8 160.0,91.4 161.3,91.0 162.5,90.5 163.8,90.3 165.0,90.2 166.2,89.8 167.5,89.4 168.7,89.1 170.0,88.8 171.2,88.7 172.4,88.6 173.7,88.4 174.9,88.1 176.1,87.8 177.4,87.6 178.6,87.4 179.9,87.3 181.1,87.1 182.3,86.9 183.6,86.8 184.8,86.6 186.1,86.3 187.3,86.1 188.5,85.8 189.8,85.6 191.0,85.5 192.2,85.3 193.5,85.2 194.7,85.1 196.0,84.6 197.2,84.3 198.4,83.9 199.7,83.8 200.9,83.8 202.2,83.6 203.4,83.4 204.6,83.2 205.9,83.0 207.1,82.7 208.3,82.5 209.6,82.4 210.8,82.3 212.1,82.1 213.3,82.0 214.5,81.8 215.8,81.7 217.0,81.4 218.3,81.3 219.5,81.2 220.7,81.1 222.0,81.0 223.2,80.8 224.4,80.6 225.7,80.4 226.9,80.2 228.2,80.0 229.4,79.9 230.6,79.8 231.9,79.6 233.1,79.4 234.4,79.1 235.6,78.9 236.8,78.7 238.1,78.4 239.3,78.3 240.6,78.2 241.8,78.1 243.0,77.9 244.3,77.8 245.5,77.6 246.7,77.5 248.0,77.3 249.2,77.2 250.5,77.0 251.7,76.9 252.9,76.8 254.2,76.7 255.4,76.4 256.7,76.3 257.9,76.1 259.1,76.0 260.4,75.9 261.6,75.8 262.8,75.7 264.1,75.5 265.3,75.4 266.6,75.1 267.8,74.8 269.0,74.7 270.3,74.5 271.5,74.5 272.8,74.4 274.0,74.2 275.2,74.0 276.5,73.8 277.7,73.8 278.9,73.6 280.2,73.4 281.4,73.3 282.7,73.2 283.9,73.1 285.1,72.8 286.4,72.7 287.6,72.5 288.9,72.3 290.1,72.2 291.3,72.1 292.6,72.1 293.8,71.9 295.0,71.8 296.3,71.6 297.5,71.5 298.8,71.3 300.0,71.2 301.2,71.1 302.5,71.0 303.7,70.9 305.0,70.7 306.2,70.5 307.4,70.3 308.7,70.2 309.9,70.1 311.1,70.0 312.4,69.9 313.6,69.8 314.9,69.7 316.1,69.6 317.3,69.3 318.6,69.2 319.8,69.1 321.1,69.0 322.3,68.9 323.5,68.7 324.8,68.6 326.0,68.5 327.2,68.3 328.5,68.2 329.7,68.1 331.0,67.9 332.2,67.8 333.4,67.7 334.7,67.6 335.9,67.5 337.2,67.4 338.4,67.3 339.6,67.2 340.9,67.1 342.1,67.0 343.3,66.7 344.6,66.5 345.8,70.5 347.1,69.7 348.3,68.2 349.5,67.6 350.8,66.9 352.0,66.1 353.3,65.6 354.5,65.3 355.7,64.7 357.0,63.8 358.2,63.2 359.4,63.0 360.7,62.7 361.9,62.4 363.2,61.9 364.4,61.5 365.6,61.0 366.9,60.8 368.1,60.3 369.4,60.1 370.6,59.8 371.8,59.6 373.1,59.4 374.3,59.2 375.6,58.7 376.8,58.4 378.0,58.0 379.3,57.5 380.5,57.2 381.7,57.0 383.0,56.8 384.2,56.6 385.5,56.2 386.7,55.9 387.9,55.7 389.2,54.8 390.4,54.2 391.7,53.9 392.9,53.7 394.1,53.5 395.4,53.0 396.6,52.7 397.8,52.2 399.1,51.9 400.3,51.6 401.6,51.3 402.8,50.9 404.0,50.7 405.3,50.6 406.5,50.4 407.8,50.3 409.0,50.0 410.2,49.9 411.5,49.6 412.7,49.4 413.9,49.3 415.2,49.0 416.4,48.9 417.7,48.7 418.9,48.5 420.1,48.4 421.4,48.2 422.6,48.1 423.9,48.0 425.1,47.8 426.3,47.7 427.6,47.5 428.8,47.4 430.0,47.2 431.3,47.0 432.5,46.9 433.8,46.7 435.0,46.6 436.2,46.5 437.5,46.3 438.7,46.2 440.0,46.1 441.2,45.9 442.4,45.9 443.7,45.7 444.9,45.5 446.1,45.4 447.4,45.2 448.6,45.0 449.9,44.8 451.1,44.6 452.3,44.4 453.6,44.3 454.8,44.0 456.1,43.8 457.3,43.7 458.5,43.4 459.8,43.2 461.0,43.0 462.2,42.8 463.5,42.5 464.7,42.4 466.0,42.3 467.2,42.2 468.4,42.1 469.7,42.0 470.9,41.8 472.2,41.6 473.4,41.4 474.6,41.3 475.9,41.0 477.1,40.8 478.3,40.6 479.6,40.3 480.8,40.2 482.1,40.1 483.3,39.9 484.5,39.8 485.8,39.7 487.0,39.5 488.3,39.3 489.5,39.2 490.7,38.9 492.0,38.8 493.2,38.7 494.4,38.5 495.7,38.4 496.9,38.3 498.2,38.3 499.4,38.1 500.6,38.0 501.9,37.9 503.1,37.7 504.4,37.6 505.6,37.4 506.8,37.2 508.1,37.1 509.3,37.0 510.6,36.9 511.8,36.7 513.0,36.6 514.3,36.5 515.5,36.3 516.7,36.2 518.0,35.9 519.2,35.8 520.5,35.5 521.7,35.4 522.9,35.3 524.2,35.3 525.4,35.1 526.7,35.0 527.9,35.0 529.1,34.9 530.4,34.8 531.6,34.7 532.8,34.5 534.1,34.4 535.3,34.2 536.6,34.0 537.8,33.9 539.0,33.8 540.3,33.6 541.5,33.5 542.8,33.4 544.0,33.3 545.2,33.2 546.5,33.1 547.7,32.9 548.9,32.6 550.2,32.4 551.4,32.2 552.7,32.1 553.9,31.9 555.1,31.8 556.4,31.6 557.6,31.5 558.9,31.4 560.1,31.3 561.3,31.2 562.6,31.0 563.8,30.8 565.0,30.7 566.3,30.5 567.5,30.3 568.8,30.2 570.0,30.0 570.0,30.0,120" />
  
  <!-- Linea principale -->
  <polyline fill="none" stroke="#0366d6" stroke-width="2.5" stroke-linecap="round" stroke-linejoin="round" points="30.0,120.0 31.2,119.5 32.5,119.0 33.7,118.5 35.0,118.4 36.2,118.2 37.4,117.6 38.7,117.2 39.9,117.0 41.1,116.4 42.4,116.1 43.6,115.8 44.9,115.7 46.1,115.4 47.3,115.0 48.6,114.6 49.8,114.3 51.1,114.1 52.3,113.9 53.5,113.7 54.8,113.4 56.0,113.1 57.2,113.0 58.5,112.7 59.7,111.8 61.0,111.5 62.2,111.2 63.4,110.8 64.7,110.5 65.9,110.2 67.2,110.0 68.4,109.9 69.6,109.6 70.9,109.2 72.1,108.8 73.3,108.5 74.6,108.2 75.8,108.1 77.1,108.1 78.3,107.9 79.5,107.6 80.8,107.4 82.0,107.3 83.3,107.0 84.5,106.5 85.7,106.4 87.0,106.3 88.2,106.1 89.4,105.7 90.7,105.4 91.9,105.0 93.2,104.8 94.4,104.4 95.6,104.3 96.9,104.1 98.1,103.7 99.4,103.4 100.6,103.1 101.8,103.0 103.1,102.8 104.3,102.6 105.6,102.2 106.8,101.8 108.0,101.5 109.3,101.2 110.5,101.0 111.7,100.9 113.0,100.7 114.2,100.5 115.5,100.3 116.7,100.1 117.9,100.0 119.2,99.9 120.4,99.7 121.7,99.5 122.9,99.5 124.1,99.4 125.4,99.0 126.6,98.8 127.8,98.7 129.1,98.6 130.3,98.5 131.6,98.5 132.8,104.7 134.0,104.1 135.3,103.5 136.5,102.9 137.8,101.3 139.0,100.1 140.2,98.8 141.5,98.4 142.7,97.8 143.9,97.0 145.2,96.1 146.4,95.4 147.7,95.1 148.9,94.9 150.1,94.2 151.4,93.7 152.6,93.4 153.9,93.0 155.1,92.8 156.3,92.8 157.6,92.4 158.8,91.8 160.0,91.4 161.3,91.0 162.5,90.5 163.8,90.3 165.0,90.2 166.2,89.8 167.5,89.4 168.7,89.1 170.0,88.8 171.2,88.7 172.4,88.6 173.7,88.4 174.9,88.1 176.1,87.8 177.4,87.6 178.6,87.4 179.9,87.3 181.1,87.1 182.3,86.9 183.6,86.8 184.8,86.6 186.1,86.3 187.3,86.1 188.5,85.8 189.8,85.6 191.0,85.5 192.2,85.3 193.5,85.2 194.7,85.1 196.0,84.6 197.2,84.3 198.4,83.9 199.7,83.8 200.9,83.8 202.2,83.6 203.4,83.4 204.6,83.2 205.9,83.0 207.1,82.7 208.3,82.5 209.6,82.4 210.8,82.3 212.1,82.1 213.3,82.0 214.5,81.8 215.8,81.7 217.0,81.4 218.3,81.3 219.5,81.2 220.7,81.1 222.0,81.0 223.2,80.8 224.4,80.6 225.7,80.4 226.9,80.2 228.2,80.0 229.4,79.9 230.6,79.8 231.9,79.6 233.1,79.4 234.4,79.1 235.6,78.9 236.8,78.7 238.1,78.4 239.3,78.3 240.6,78.2 241.8,78.1 243.0,77.9 244.3,77.8 245.5,77.6 246.7,77.5 248.0,77.3 249.2,77.2 250.5,77.0 251.7,76.9 252.9,76.8 254.2,76.7 255.4,76.4 256.7,76.3 257.9,76.1 259.1,76.0 260.4,75.9 261.6,75.8 262.8,75.7 264.1,75.5 265.3,75.4 266.6,75.1 267.8,74.8 269.0,74.7 270.3,74.5 271.5,74.5 272.8,74.4 274.0,74.2 275.2,74.0 276.5,73.8 277.7,73.8 278.9,73.6 280.2,73.4 281.4,73.3 282.7,73.2 283.9,73.1 285.1,72.8 286.4,72.7 287.6,72.5 288.9,72.3 290.1,72.2 291.3,72.1 292.6,72.1 293.8,71.9 295.0,71.8 296.3,71.6 297.5,71.5 298.8,71.3 300.0,71.2 301.2,71.1 302.5,71.0 303.7,70.9 305.0,70.7 306.2,70.5 307.4,70.3 308.7,70.2 309.9,70.1 311.1,70.0 312.4,69.9 313.6,69.8 314.9,69.7 316.1,69.6 317.3,69.3 318.6,69.2 319.8,69.1 321.1,69.0 322.3,68.9 323.5,68.7 324.8,68.6 326.0,68.5 327.2,68.3 328.5,68.2 329.7,68.1 331.0,67.9 332.2,67.8 333.4,67.7 334.7,67.6 335.9,67.5 337.2,67.4 338.4,67.3 339.6,67.2 340.9,67.1 342.1,67.0 343.3,66.7 344.6,66.5 345.8,70.5 347.1,69.7 348.3,68.2 349.5,67.6 350.8,66.9 352.0,66.1 353.3,65.6 354.5,65.3 355.7,64.7 357.0,63.8 358.2,63.2 359.4,63.0 360.7,62.7 361.9,62.4 363.2,61.9 364.4,61.5 365.6,61.0 366.9,60.8 368.1,60.3 369.4,60.1 370.6,59.8 371.8,59.6 373.1,59.4 374.3,59.2 375.6,58.7 376.8,58.4 378.0,58.0 379.3,57.5 380.5,57.2 381.7,57.0 383.0,56.8 384.2,56.6 385.5,56.2 386.7,55.9 387.9,55.7 389.2,54.8 390.4,54.2 391.7,53.9 392.9,53.7 394.1,53.5 395.4,53.0 396.6,52.7 397.8,52.2 399.1,51.9 400.3,51.6 401.6,51.3 402.8,50.9 404.0,50.7 405.3,50.6 406.5,50.4 407.8,50.3 409.0,50.0 410.2,49.9 411.5,49.6 412.7,49.4 413.9,49.3 415.2,49.0 416.4,48.9 417.7,48.7 418.9,48.5 420.1,48.4 421.4,48.2 422.6,48.1 423.9,48.0 425.1,47.8 426.3,47.7 427.6,47.5 428.8,47.4 430.0,47.2 431.3,47.0 432.5,46.9 433.8,46.7 435.0,46.6 436.2,46.5 437.5,46.3 438.7,46.2 440.0,46.1 441.2,45.9 442.4,45.9 443.7,45.7 444.9,45.5 446.1,45.4 447.4,45.2 448.6,45.0 449.9,44.8 451.1,44.6 452.3,44.4 453.6,44.3 454.8,44.0 456.1,43.8 457.3,43.7 458.5,43.4 459.8,43.2 461.0,43.0 462.2,42.8 463.5,42.5 464.7,42.4 466.0,42.3 467.2,42.2 468.4,42.1 469.7,42.0 470.9,41.8 472.2,41.6 473.4,41.4 474.6,41.3 475.9,41.0 477.1,40.8 478.3,40.6 479.6,40.3 480.8,40.2 482.1,40.1 483.3,39.9 484.5,39.8 485.8,39.7 487.0,39.5 488.3,39.3 489.5,39.2 490.7,38.9 492.0,38.8 493.2,38.7 494.4,38.5 495.7,38.4 496.9,38.3 498.2,38.3 499.4,38.1 500.6,38.0 501.9,37.9 503.1,37.7 504.4,37.6 505.6,37.4 506.8,37.2 508.1,37.1 509.3,37.0 510.6,36.9 511.8,36.7 513.0,36.6 514.3,36.5 515.5,36.3 516.7,36.2 518.0,35.9 519.2,35.8 520.5,35.5 521.7,35.4 522.9,35.3 524.2,35.3 525.4,35.1 526.7,35.0 527.9,35.0 529.1,34.9 530.4,34.8 531.6,34.7 532.8,34.5 534.1,34.4 535.3,34.2 536.6,34.0 537.8,33.9 539.0,33.8 540.3,33.6 541.5,33.5 542.8,33.4 544.0,33.3 545.2,33.2 546.5,33.1 547.7,32.9 548.9,32.6 550.2,32.4 551.4,32.2 552.7,32.1 553.9,31.9 555.1,31.8 556.4,31.6 557.6,31.5 558.9,31.4 560.1,31.3 561.3,31.2 562.6,31.0 563.8,30.8 565.0,30.7 566.3,30.5 567.5,30.3 568.8,30.2 570.0,30.0" />
  
  <!-- Punto finale luminoso -->
  <circle cx="570.0" cy="30.0" r="4" fill="#ffffff" stroke="#0366d6" stroke-width="2.5" />
</svg>