<svg width="600" height="150" viewBox="0 0 600 150" xmlns="http://www.w3.org/2000/svg">
  <defs>
    <filter id="shadow2" x="-2%" y="-2%" width="104%" height="108%">
      <feDropShadow dx="0" dy="2" stdDeviation="3" flood-opacity="0.1" />
    </filter>
    <linearGradient id="fillGrad" x1="0" y1="0" x2="0" y2="1">
      <stop offset="0%" stop-color="#0366d6" stop-opacity="0.3"/>
      <stop offset="100%" stop-color="#0366d6" stop-opacity="0.02"/>
    </linearGradient>
  </defs>
  <rect width="600" height="150" rx="12" fill="#ffffff" filter="url(#shadow2)" stroke="#e1e4e8" stroke-width="1"/>
  <text x="20" y="24" fill="#2b3137" font-family="-apple-system,BlinkMacSystemFont,'Segoe UI',Helvetica,Arial,sans-serif" font-size="14" font-weight="600">📈 Download Growth (Actual: 86.8k)</text>
  
  <!-- Area sotto la linea -->
  <polygon fill="url(#fillGrad)" points="30.0,120.0,120 30.0,120.0 31.3,119.5 32.7,118.9 34.0,118.5 35.3,118.3 36.6,118.1 38.0,117.5 39.3,117.1 40.6,116.8 41.9,116.2 43.3,115.9 44.6,115.6 45.9,115.5 47.2,115.2 48.6,114.8 49.9,114.3 51.2,114.0 52.6,113.8 53.9,113.6 55.2,113.3 56.5,113.0 57.9,112.7 59.2,112.6 60.5,112.3 61.8,111.4 63.2,111.1 64.5,110.7 65.8,110.3 67.1,110.0 68.5,109.7 69.8,109.5 71.1,109.3 72.5,109.1 73.8,108.6 75.1,108.2 76.4,107.9 77.8,107.6 79.1,107.5 80.4,107.4 81.7,107.3 83.1,107.0 84.4,106.8 85.7,106.7 87.1,106.3 88.4,105.8 89.7,105.7 91.0,105.6 92.4,105.4 93.7,105.0 95.0,104.7 96.3,104.3 97.7,104.0 99.0,103.6 100.3,103.5 101.6,103.3 103.0,102.9 104.3,102.5 105.6,102.2 107.0,102.1 108.3,101.9 109.6,101.7 110.9,101.3 112.3,100.9 113.6,100.6 114.9,100.2 116.2,100.0 117.6,99.9 118.9,99.8 120.2,99.5 121.5,99.3 122.9,99.1 124.2,99.0 125.5,98.8 126.9,98.6 128.2,98.5 129.5,98.4 130.8,98.3 132.2,97.9 133.5,97.7 134.8,97.6 136.1,97.5 137.5,97.4 138.8,97.4 140.1,103.9 141.4,103.2 142.8,102.7 144.1,102.1 145.4,100.3 146.8,99.1 148.1,97.8 149.4,97.3 150.7,96.7 152.1,95.8 153.4,94.8 154.7,94.1 156.0,93.8 157.4,93.6 158.7,92.9 160.0,92.3 161.4,92.0 162.7,91.6 164.0,91.4 165.3,91.4 166.7,91.0 168.0,90.4 169.3,90.0 170.6,89.5 172.0,89.0 173.3,88.8 174.6,88.6 175.9,88.2 177.3,87.8 178.6,87.5 179.9,87.2 181.3,87.1 182.6,87.0 183.9,86.8 185.2,86.4 186.6,86.2 187.9,86.0 189.2,85.8 190.5,85.6 191.9,85.4 193.2,85.2 194.5,85.1 195.8,84.9 197.2,84.6 198.5,84.3 199.8,84.1 201.2,83.9 202.5,83.7 203.8,83.6 205.1,83.4 206.5,83.3 207.8,82.8 209.1,82.5 210.4,82.1 211.8,81.9 213.1,81.9 214.4,81.7 215.7,81.5 217.1,81.3 218.4,81.1 219.7,80.8 221.1,80.6 222.4,80.5 223.7,80.3 225.0,80.2 226.4,80.1 227.7,79.9 229.0,79.7 230.3,79.5 231.7,79.3 233.0,79.2 234.3,79.1 235.7,79.0 237.0,78.8 238.3,78.6 239.6,78.3 241.0,78.1 242.3,77.9 243.6,77.8 244.9,77.7 246.3,77.6 247.6,77.3 248.9,77.0 250.2,76.8 251.6,76.6 252.9,76.2 254.2,76.2 255.6,76.1 256.9,76.0 258.2,75.8 259.5,75.6 260.9,75.4 262.2,75.3 263.5,75.1 264.8,75.0 266.2,74.8 267.5,74.7 268.8,74.6 270.1,74.5 271.5,74.2 272.8,74.1 274.1,73.9 275.5,73.8 276.8,73.7 278.1,73.5 279.4,73.4 280.8,73.3 282.1,73.1 283.4,72.8 284.7,72.5 286.1,72.3 287.4,72.2 288.7,72.1 290.0,72.1 291.4,71.9 292.7,71.6 294.0,71.5 295.4,71.4 296.7,71.2 298.0,71.1 299.3,70.9 300.7,70.8 302.0,70.7 303.3,70.4 304.6,70.3 306.0,70.0 307.3,69.8 308.6,69.7 310.0,69.7 311.3,69.6 312.6,69.5 313.9,69.3 315.3,69.2 316.6,69.0 317.9,68.8 319.2,68.7 320.6,68.6 321.9,68.5 323.2,68.4 324.5,68.1 325.9,67.9 327.2,67.8 328.5,67.6 329.9,67.5 331.2,67.4 332.5,67.3 333.8,67.2 335.2,67.1 336.5,67.0 337.8,66.8 339.1,66.6 340.5,66.5 341.8,66.4 343.1,66.2 344.4,66.1 345.8,65.9 347.1,65.8 348.4,65.7 349.8,65.6 351.1,65.4 352.4,65.2 353.7,65.1 355.1,65.0 356.4,64.9 357.7,64.8 359.0,64.7 360.4,64.6 361.7,64.5 363.0,64.4 364.3,64.3 365.7,64.0 367.0,63.8 368.3,68.0 369.7,67.2 371.0,65.6 372.3,65.0 373.6,64.2 375.0,63.3 376.3,62.8 377.6,62.5 378.9,61.9 380.3,61.0 381.6,60.3 382.9,60.1 384.3,59.7 385.6,59.4 386.9,59.0 388.2,58.5 389.6,58.0 390.9,57.8 392.2,57.3 393.5,57.1 394.9,56.7 396.2,56.5 397.5,56.3 398.8,56.1 400.2,55.6 401.5,55.3 402.8,54.9 404.2,54.3 405.5,53.9 406.8,53.8 408.1,53.6 409.5,53.4 410.8,53.0 412.1,52.6 413.4,52.4 414.8,51.5 416.1,50.8 417.4,50.5 418.7,50.4 420.1,50.1 421.4,49.6 422.7,49.2 424.1,48.7 425.4,48.4 426.7,48.1 428.0,47.8 429.4,47.4 430.7,47.2 432.0,47.0 433.3,46.9 434.7,46.7 436.0,46.4 437.3,46.3 438.6,46.0 440.0,45.8 441.3,45.7 442.6,45.4 444.0,45.3 445.3,45.1 446.6,44.9 447.9,44.7 449.3,44.6 450.6,44.4 451.9,44.3 453.2,44.1 454.6,44.0 455.9,43.8 457.2,43.7 458.6,43.5 459.9,43.3 461.2,43.1 462.5,43.0 463.9,42.8 465.2,42.7 466.5,42.6 467.8,42.4 469.2,42.3 470.5,42.1 471.8,42.1 473.1,41.9 474.5,41.7 475.8,41.6 477.1,41.3 478.5,41.1 479.8,41.0 481.1,40.8 482.4,40.6 483.8,40.4 485.1,40.1 486.4,39.9 487.7,39.7 489.1,39.5 490.4,39.3 491.7,39.0 493.0,38.8 494.4,38.6 495.7,38.5 497.0,38.3 498.4,38.2 499.7,38.1 501.0,38.0 502.3,37.8 503.7,37.6 505.0,37.4 506.3,37.2 507.6,37.0 509.0,36.7 510.3,36.6 511.6,36.2 512.9,36.1 514.3,36.0 515.6,35.8 516.9,35.7 518.3,35.6 519.6,35.4 520.9,35.2 522.2,35.1 523.6,34.8 524.9,34.7 526.2,34.5 527.5,34.4 528.9,34.2 530.2,34.1 531.5,34.1 532.9,33.9 534.2,33.8 535.5,33.7 536.8,33.5 538.2,33.3 539.5,33.2 540.8,33.0 542.1,32.9 543.5,32.7 544.8,32.6 546.1,32.5 547.4,32.4 548.8,32.2 550.1,32.0 551.4,31.9 552.8,31.6 554.1,31.5 555.4,31.2 556.7,31.1 558.1,31.0 559.4,30.9 560.7,30.8 562.0,30.7 563.4,30.6 564.7,30.5 566.0,30.4 567.3,30.3 568.7,30.1 570.0,30.0 570.0,30.0,120" />
  
  <!-- Linea principale -->
  <polyline fill="none" stroke="#0366d6" stroke-width="2.5" stroke-linecap="round" stroke-linejoin="round" points="30.0,120.0 31.3,119.5 32.7,118.9 34.0,118.5 35.3,118.3 36.6,118.1 38.0,117.5 39.3,117.1 40.6,116.8 41.9,116.2 43.3,115.9 44.6,115.6 45.9,115.5 47.2,115.2 48.6,114.8 49.9,114.3 51.2,114.0 52.6,113.8 53.9,113.6 55.2,113.3 56.5,113.0 57.9,112.7 59.2,112.6 60.5,112.3 61.8,111.4 63.2,111.1 64.5,110.7 65.8,110.3 67.1,110.0 68.5,109.7 69.8,109.5 71.1,109.3 72.5,109.1 73.8,108.6 75.1,108.2 76.4,107.9 77.8,107.6 79.1,107.5 80.4,107.4 81.7,107.3 83.1,107.0 84.4,106.8 85.7,106.7 87.1,106.3 88.4,105.8 89.7,105.7 91.0,105.6 92.4,105.4 93.7,105.0 95.0,104.7 96.3,104.3 97.7,104.0 99.0,103.6 100.3,103.5 101.6,103.3 103.0,102.9 104.3,102.5 105.6,102.2 107.0,102.1 108.3,101.9 109.6,101.7 110.9,101.3 112.3,100.9 113.6,100.6 114.9,100.2 116.2,100.0 117.6,99.9 118.9,99.8 120.2,99.5 121.5,99.3 122.9,99.1 124.2,99.0 125.5,98.8 126.9,98.6 128.2,98.5 129.5,98.4 130.8,98.3 132.2,97.9 133.5,97.7 134.8,97.6 136.1,97.5 137.5,97.4 138.8,97.4 140.1,103.9 141.4,103.2 142.8,102.7 144.1,102.1 145.4,100.3 146.8,99.1 148.1,97.8 149.4,97.3 150.7,96.7 152.1,95.8 153.4,94.8 154.7,94.1 156.0,93.8 157.4,93.6 158.7,92.9 160.0,92.3 161.4,92.0 162.7,91.6 164.0,91.4 165.3,91.4 166.7,91.0 168.0,90.4 169.3,90.0 170.6,89.5 172.0,89.0 173.3,88.8 174.6,88.6 175.9,88.2 177.3,87.8 178.6,87.5 179.9,87.2 181.3,87.1 182.6,87.0 183.9,86.8 185.2,86.4 186.6,86.2 187.9,86.0 189.2,85.8 190.5,85.6 191.9,85.4 193.2,85.2 194.5,85.1 195.8,84.9 197.2,84.6 198.5,84.3 199.8,84.1 201.2,83.9 202.5,83.7 203.8,83.6 205.1,83.4 206.5,83.3 207.8,82.8 209.1,82.5 210.4,82.1 211.8,81.9 213.1,81.9 214.4,81.7 215.7,81.5 217.1,81.3 218.4,81.1 219.7,80.8 221.1,80.6 222.4,80.5 223.7,80.3 225.0,80.2 226.4,80.1 227.7,79.9 229.0,79.7 230.3,79.5 231.7,79.3 233.0,79.2 234.3,79.1 235.7,79.0 237.0,78.8 238.3,78.6 239.6,78.3 241.0,78.1 242.3,77.9 243.6,77.8 244.9,77.7 246.3,77.6 247.6,77.3 248.9,77.0 250.2,76.8 251.6,76.6 252.9,76.2 254.2,76.2 255.6,76.1 256.9,76.0 258.2,75.8 259.5,75.6 260.9,75.4 262.2,75.3 263.5,75.1 264.8,75.0 266.2,74.8 267.5,74.7 268.8,74.6 270.1,74.5 271.5,74.2 272.8,74.1 274.1,73.9 275.5,73.8 276.8,73.7 278.1,73.5 279.4,73.4 280.8,73.3 282.1,73.1 283.4,72.8 284.7,72.5 286.1,72.3 287.4,72.2 288.7,72.1 290.0,72.1 291.4,71.9 292.7,71.6 294.0,71.5 295.4,71.4 296.7,71.2 298.0,71.1 299.3,70.9 300.7,70.8 302.0,70.7 303.3,70.4 304.6,70.3 306.0,70.0 307.3,69.8 308.6,69.7 310.0,69.7 311.3,69.6 312.6,69.5 313.9,69.3 315.3,69.2 316.6,69.0 317.9,68.8 319.2,68.7 320.6,68.6 321.9,68.5 323.2,68.4 324.5,68.1 325.9,67.9 327.2,67.8 328.5,67.6 329.9,67.5 331.2,67.4 332.5,67.3 333.8,67.2 335.2,67.1 336.5,67.0 337.8,66.8 339.1,66.6 340.5,66.5 341.8,66.4 343.1,66.2 344.4,66.1 345.8,65.9 347.1,65.8 348.4,65.7 349.8,65.6 351.1,65.4 352.4,65.2 353.7,65.1 355.1,65.0 356.4,64.9 357.7,64.8 359.0,64.7 360.4,64.6 361.7,64.5 363.0,64.4 364.3,64.3 365.7,64.0 367.0,63.8 368.3,68.0 369.7,67.2 371.0,65.6 372.3,65.0 373.6,64.2 375.0,63.3 376.3,62.8 377.6,62.5 378.9,61.9 380.3,61.0 381.6,60.3 382.9,60.1 384.3,59.7 385.6,59.4 386.9,59.0 388.2,58.5 389.6,58.0 390.9,57.8 392.2,57.3 393.5,57.1 394.9,56.7 396.2,56.5 397.5,56.3 398.8,56.1 400.2,55.6 401.5,55.3 402.8,54.9 404.2,54.3 405.5,53.9 406.8,53.8 408.1,53.6 409.5,53.4 410.8,53.0 412.1,52.6 413.4,52.4 414.8,51.5 416.1,50.8 417.4,50.5 418.7,50.4 420.1,50.1 421.4,49.6 422.7,49.2 424.1,48.7 425.4,48.4 426.7,48.1 428.0,47.8 429.4,47.4 430.7,47.2 432.0,47.0 433.3,46.9 434.7,46.7 436.0,46.4 437.3,46.3 438.6,46.0 440.0,45.8 441.3,45.7 442.6,45.4 444.0,45.3 445.3,45.1 446.6,44.9 447.9,44.7 449.3,44.6 450.6,44.4 451.9,44.3 453.2,44.1 454.6,44.0 455.9,43.8 457.2,43.7 458.6,43.5 459.9,43.3 461.2,43.1 462.5,43.0 463.9,42.8 465.2,42.7 466.5,42.6 467.8,42.4 469.2,42.3 470.5,42.1 471.8,42.1 473.1,41.9 474.5,41.7 475.8,41.6 477.1,41.3 478.5,41.1 479.8,41.0 481.1,40.8 482.4,40.6 483.8,40.4 485.1,40.1 486.4,39.9 487.7,39.7 489.1,39.5 490.4,39.3 491.7,39.0 493.0,38.8 494.4,38.6 495.7,38.5 497.0,38.3 498.4,38.2 499.7,38.1 501.0,38.0 502.3,37.8 503.7,37.6 505.0,37.4 506.3,37.2 507.6,37.0 509.0,36.7 510.3,36.6 511.6,36.2 512.9,36.1 514.3,36.0 515.6,35.8 516.9,35.7 518.3,35.6 519.6,35.4 520.9,35.2 522.2,35.1 523.6,34.8 524.9,34.7 526.2,34.5 527.5,34.4 528.9,34.2 530.2,34.1 531.5,34.1 532.9,33.9 534.2,33.8 535.5,33.7 536.8,33.5 538.2,33.3 539.5,33.2 540.8,33.0 542.1,32.9 543.5,32.7 544.8,32.6 546.1,32.5 547.4,32.4 548.8,32.2 550.1,32.0 551.4,31.9 552.8,31.6 554.1,31.5 555.4,31.2 556.7,31.1 558.1,31.0 559.4,30.9 560.7,30.8 562.0,30.7 563.4,30.6 564.7,30.5 566.0,30.4 567.3,30.3 568.7,30.1 570.0,30.0" />
  
  <!-- Punto finale luminoso -->
  <circle cx="570.0" cy="30.0" r="4" fill="#ffffff" stroke="#0366d6" stroke-width="2.5" />
</svg>