<svg width="600" height="150" viewBox="0 0 600 150" xmlns="http://www.w3.org/2000/svg">
  <defs>
    <filter id="shadow2" x="-2%" y="-2%" width="104%" height="108%">
      <feDropShadow dx="0" dy="2" stdDeviation="3" flood-opacity="0.1" />
    </filter>
    <linearGradient id="fillGrad" x1="0" y1="0" x2="0" y2="1">
      <stop offset="0%" stop-color="#0366d6" stop-opacity="0.3"/>
      <stop offset="100%" stop-color="#0366d6" stop-opacity="0.02"/>
    </linearGradient>
  </defs>
  <rect width="600" height="150" rx="12" fill="#ffffff" filter="url(#shadow2)" stroke="#e1e4e8" stroke-width="1"/>
  <text x="20" y="24" fill="#2b3137" font-family="-apple-system,BlinkMacSystemFont,'Segoe UI',Helvetica,Arial,sans-serif" font-size="14" font-weight="600">📈 Download Growth (Actual: 83.4k)</text>
  
  <!-- Area sotto la linea -->
  <polygon fill="url(#fillGrad)" points="30.0,120.0,120 30.0,120.0 31.7,119.4 33.5,118.7 35.2,118.1 36.9,118.0 38.7,117.7 40.4,117.0 42.2,116.5 43.9,116.2 45.6,115.5 47.4,115.1 49.1,114.7 50.8,114.5 52.6,114.2 54.3,113.7 56.0,113.2 57.8,112.8 59.5,112.5 61.3,112.3 63.0,112.0 64.7,111.6 66.5,111.2 68.2,111.1 69.9,110.8 71.7,109.6 73.4,109.3 75.1,108.8 76.9,108.4 78.6,108.0 80.4,107.6 82.1,107.3 83.8,107.1 85.6,106.8 87.3,106.2 89.0,105.8 90.8,105.4 92.5,105.1 94.2,104.9 96.0,104.8 97.7,104.7 99.5,104.3 101.2,104.1 102.9,103.9 104.7,103.5 106.4,102.9 108.1,102.7 109.9,102.6 111.6,102.4 113.3,101.9 115.1,101.5 116.8,101.0 118.6,100.7 120.3,100.2 122.0,100.1 123.8,99.8 125.5,99.4 127.2,98.9 129.0,98.6 130.7,98.4 132.4,98.2 134.2,98.0 135.9,97.5 137.7,97.0 139.4,96.5 141.1,96.1 142.9,95.9 144.6,95.8 146.3,95.6 148.1,95.2 149.8,95.0 151.5,94.8 153.3,94.6 155.0,94.5 156.8,94.2 158.5,94.1 160.2,93.9 162.0,93.8 163.7,93.4 165.4,93.1 167.2,93.0 168.9,92.8 170.6,92.8 172.4,92.8 174.1,100.5 175.9,99.8 177.6,99.1 179.3,98.4 181.1,96.2 182.8,94.8 184.5,93.2 186.3,92.6 188.0,91.9 189.7,90.8 191.5,89.6 193.2,88.8 195.0,88.4 196.7,88.1 198.4,87.3 200.2,86.6 201.9,86.2 203.6,85.7 205.4,85.5 207.1,85.4 208.8,85.0 210.6,84.3 212.3,83.7 214.1,83.2 215.8,82.6 217.5,82.4 219.3,82.1 221.0,81.6 222.7,81.2 224.5,80.8 226.2,80.4 227.9,80.3 229.7,80.2 231.4,79.9 233.2,79.5 234.9,79.2 236.6,78.9 238.4,78.7 240.1,78.5 241.8,78.3 243.6,78.1 245.3,77.9 247.0,77.7 248.8,77.3 250.5,77.0 252.3,76.6 254.0,76.4 255.7,76.2 257.5,76.0 259.2,75.9 260.9,75.7 262.7,75.1 264.4,74.7 266.1,74.3 267.9,74.1 269.6,74.0 271.4,73.8 273.1,73.6 274.8,73.3 276.6,73.0 278.3,72.7 280.0,72.4 281.8,72.3 283.5,72.1 285.2,72.0 287.0,71.8 288.7,71.6 290.5,71.4 292.2,71.1 293.9,70.9 295.7,70.8 297.4,70.6 299.1,70.5 300.9,70.2 302.6,70.0 304.3,69.7 306.1,69.5 307.8,69.3 309.5,69.1 311.3,69.0 313.0,68.8 314.8,68.4 316.5,68.1 318.2,67.9 320.0,67.6 321.7,67.2 323.4,67.1 325.2,67.0 326.9,66.9 328.6,66.6 330.4,66.5 332.1,66.2 333.9,66.1 335.6,65.9 337.3,65.7 339.1,65.5 340.8,65.4 342.5,65.3 344.3,65.1 346.0,64.7 347.7,64.6 349.5,64.4 351.2,64.2 353.0,64.1 354.7,63.9 356.4,63.8 358.2,63.6 359.9,63.4 361.6,63.1 363.4,62.7 365.1,62.5 366.8,62.3 368.6,62.2 370.3,62.2 372.1,61.9 373.8,61.6 375.5,61.5 377.3,61.3 379.0,61.1 380.7,60.9 382.5,60.7 384.2,60.6 385.9,60.5 387.7,60.2 389.4,60.0 391.2,59.7 392.9,59.5 394.6,59.4 396.4,59.3 398.1,59.2 399.8,59.0 401.6,58.9 403.3,58.7 405.0,58.5 406.8,58.3 408.5,58.1 410.3,58.0 412.0,57.8 413.7,57.7 415.5,57.4 417.2,57.2 418.9,57.0 420.7,56.8 422.4,56.6 424.1,56.5 425.9,56.4 427.6,56.3 429.4,56.2 431.1,56.0 432.8,55.8 434.6,55.6 436.3,55.4 438.0,55.3 439.8,55.1 441.5,55.0 443.2,54.8 445.0,54.6 446.7,54.5 448.5,54.3 450.2,54.1 451.9,53.9 453.7,53.8 455.4,53.7 457.1,53.6 458.9,53.4 460.6,53.3 462.3,53.1 464.1,53.0 465.8,52.9 467.6,52.8 469.3,52.4 471.0,52.2 472.8,57.2 474.5,56.3 476.2,54.3 478.0,53.6 479.7,52.7 481.4,51.6 483.2,51.0 484.9,50.6 486.7,49.9 488.4,48.8 490.1,47.9 491.9,47.7 493.6,47.3 495.3,46.9 497.1,46.4 498.8,45.8 500.5,45.2 502.3,44.9 504.0,44.3 505.8,44.1 507.5,43.7 509.2,43.4 511.0,43.1 512.7,42.9 514.4,42.3 516.2,41.9 517.9,41.4 519.6,40.7 521.4,40.3 523.1,40.1 524.9,39.9 526.6,39.6 528.3,39.1 530.1,38.7 531.8,38.4 533.5,37.4 535.3,36.6 537.0,36.2 538.7,36.0 540.5,35.6 542.2,35.1 544.0,34.6 545.7,34.0 547.4,33.6 549.2,33.2 550.9,32.9 552.6,32.4 554.4,32.1 556.1,32.0 557.8,31.8 559.6,31.5 561.3,31.2 563.1,31.0 564.8,30.8 566.5,30.5 568.3,30.3 570.0,30.0 570.0,30.0,120" />
  
  <!-- Linea principale -->
  <polyline fill="none" stroke="#0366d6" stroke-width="2.5" stroke-linecap="round" stroke-linejoin="round" points="30.0,120.0 31.7,119.4 33.5,118.7 35.2,118.1 36.9,118.0 38.7,117.7 40.4,117.0 42.2,116.5 43.9,116.2 45.6,115.5 47.4,115.1 49.1,114.7 50.8,114.5 52.6,114.2 54.3,113.7 56.0,113.2 57.8,112.8 59.5,112.5 61.3,112.3 63.0,112.0 64.7,111.6 66.5,111.2 68.2,111.1 69.9,110.8 71.7,109.6 73.4,109.3 75.1,108.8 76.9,108.4 78.6,108.0 80.4,107.6 82.1,107.3 83.8,107.1 85.6,106.8 87.3,106.2 89.0,105.8 90.8,105.4 92.5,105.1 94.2,104.9 96.0,104.8 97.7,104.7 99.5,104.3 101.2,104.1 102.9,103.9 104.7,103.5 106.4,102.9 108.1,102.7 109.9,102.6 111.6,102.4 113.3,101.9 115.1,101.5 116.8,101.0 118.6,100.7 120.3,100.2 122.0,100.1 123.8,99.8 125.5,99.4 127.2,98.9 129.0,98.6 130.7,98.4 132.4,98.2 134.2,98.0 135.9,97.5 137.7,97.0 139.4,96.5 141.1,96.1 142.9,95.9 144.6,95.8 146.3,95.6 148.1,95.2 149.8,95.0 151.5,94.8 153.3,94.6 155.0,94.5 156.8,94.2 158.5,94.1 160.2,93.9 162.0,93.8 163.7,93.4 165.4,93.1 167.2,93.0 168.9,92.8 170.6,92.8 172.4,92.8 174.1,100.5 175.9,99.8 177.6,99.1 179.3,98.4 181.1,96.2 182.8,94.8 184.5,93.2 186.3,92.6 188.0,91.9 189.7,90.8 191.5,89.6 193.2,88.8 195.0,88.4 196.7,88.1 198.4,87.3 200.2,86.6 201.9,86.2 203.6,85.7 205.4,85.5 207.1,85.4 208.8,85.0 210.6,84.3 212.3,83.7 214.1,83.2 215.8,82.6 217.5,82.4 219.3,82.1 221.0,81.6 222.7,81.2 224.5,80.8 226.2,80.4 227.9,80.3 229.7,80.2 231.4,79.9 233.2,79.5 234.9,79.2 236.6,78.9 238.4,78.7 240.1,78.5 241.8,78.3 243.6,78.1 245.3,77.9 247.0,77.7 248.8,77.3 250.5,77.0 252.3,76.6 254.0,76.4 255.7,76.2 257.5,76.0 259.2,75.9 260.9,75.7 262.7,75.1 264.4,74.7 266.1,74.3 267.9,74.1 269.6,74.0 271.4,73.8 273.1,73.6 274.8,73.3 276.6,73.0 278.3,72.7 280.0,72.4 281.8,72.3 283.5,72.1 285.2,72.0 287.0,71.8 288.7,71.6 290.5,71.4 292.2,71.1 293.9,70.9 295.7,70.8 297.4,70.6 299.1,70.5 300.9,70.2 302.6,70.0 304.3,69.7 306.1,69.5 307.8,69.3 309.5,69.1 311.3,69.0 313.0,68.8 314.8,68.4 316.5,68.1 318.2,67.9 320.0,67.6 321.7,67.2 323.4,67.1 325.2,67.0 326.9,66.9 328.6,66.6 330.4,66.5 332.1,66.2 333.9,66.1 335.6,65.9 337.3,65.7 339.1,65.5 340.8,65.4 342.5,65.3 344.3,65.1 346.0,64.7 347.7,64.6 349.5,64.4 351.2,64.2 353.0,64.1 354.7,63.9 356.4,63.8 358.2,63.6 359.9,63.4 361.6,63.1 363.4,62.7 365.1,62.5 366.8,62.3 368.6,62.2 370.3,62.2 372.1,61.9 373.8,61.6 375.5,61.5 377.3,61.3 379.0,61.1 380.7,60.9 382.5,60.7 384.2,60.6 385.9,60.5 387.7,60.2 389.4,60.0 391.2,59.7 392.9,59.5 394.6,59.4 396.4,59.3 398.1,59.2 399.8,59.0 401.6,58.9 403.3,58.7 405.0,58.5 406.8,58.3 408.5,58.1 410.3,58.0 412.0,57.8 413.7,57.7 415.5,57.4 417.2,57.2 418.9,57.0 420.7,56.8 422.4,56.6 424.1,56.5 425.9,56.4 427.6,56.3 429.4,56.2 431.1,56.0 432.8,55.8 434.6,55.6 436.3,55.4 438.0,55.3 439.8,55.1 441.5,55.0 443.2,54.8 445.0,54.6 446.7,54.5 448.5,54.3 450.2,54.1 451.9,53.9 453.7,53.8 455.4,53.7 457.1,53.6 458.9,53.4 460.6,53.3 462.3,53.1 464.1,53.0 465.8,52.9 467.6,52.8 469.3,52.4 471.0,52.2 472.8,57.2 474.5,56.3 476.2,54.3 478.0,53.6 479.7,52.7 481.4,51.6 483.2,51.0 484.9,50.6 486.7,49.9 488.4,48.8 490.1,47.9 491.9,47.7 493.6,47.3 495.3,46.9 497.1,46.4 498.8,45.8 500.5,45.2 502.3,44.9 504.0,44.3 505.8,44.1 507.5,43.7 509.2,43.4 511.0,43.1 512.7,42.9 514.4,42.3 516.2,41.9 517.9,41.4 519.6,40.7 521.4,40.3 523.1,40.1 524.9,39.9 526.6,39.6 528.3,39.1 530.1,38.7 531.8,38.4 533.5,37.4 535.3,36.6 537.0,36.2 538.7,36.0 540.5,35.6 542.2,35.1 544.0,34.6 545.7,34.0 547.4,33.6 549.2,33.2 550.9,32.9 552.6,32.4 554.4,32.1 556.1,32.0 557.8,31.8 559.6,31.5 561.3,31.2 563.1,31.0 564.8,30.8 566.5,30.5 568.3,30.3 570.0,30.0" />
  
  <!-- Punto finale luminoso -->
  <circle cx="570.0" cy="30.0" r="4" fill="#ffffff" stroke="#0366d6" stroke-width="2.5" />
</svg>