<svg width="600" height="150" viewBox="0 0 600 150" xmlns="http://www.w3.org/2000/svg">
  <defs>
    <filter id="shadow2" x="-2%" y="-2%" width="104%" height="108%">
      <feDropShadow dx="0" dy="2" stdDeviation="3" flood-opacity="0.1" />
    </filter>
    <linearGradient id="fillGrad" x1="0" y1="0" x2="0" y2="1">
      <stop offset="0%" stop-color="#0366d6" stop-opacity="0.3"/>
      <stop offset="100%" stop-color="#0366d6" stop-opacity="0.02"/>
    </linearGradient>
  </defs>
  <rect width="600" height="150" rx="12" fill="#ffffff" filter="url(#shadow2)" stroke="#e1e4e8" stroke-width="1"/>
  <text x="20" y="24" fill="#2b3137" font-family="-apple-system,BlinkMacSystemFont,'Segoe UI',Helvetica,Arial,sans-serif" font-size="14" font-weight="600">📈 Download Growth (Actual: 87.5k)</text>
  
  <!-- Area sotto la linea -->
  <polygon fill="url(#fillGrad)" points="30.0,120.0,120 30.0,120.0 31.3,119.5 32.5,119.0 33.8,118.5 35.1,118.4 36.3,118.1 37.6,117.6 38.9,117.2 40.1,116.9 41.4,116.4 42.6,116.1 43.9,115.8 45.2,115.6 46.4,115.3 47.7,114.9 49.0,114.5 50.2,114.2 51.5,114.0 52.8,113.8 54.0,113.6 55.3,113.3 56.6,113.0 57.8,112.9 59.1,112.6 60.4,111.7 61.6,111.4 62.9,111.0 64.1,110.7 65.4,110.4 66.7,110.0 67.9,109.8 69.2,109.7 70.5,109.4 71.7,109.0 73.0,108.6 74.3,108.3 75.5,108.0 76.8,107.9 78.1,107.9 79.3,107.7 80.6,107.4 81.9,107.2 83.1,107.1 84.4,106.8 85.6,106.3 86.9,106.2 88.2,106.1 89.4,105.9 90.7,105.5 92.0,105.2 93.2,104.8 94.5,104.5 95.8,104.2 97.0,104.1 98.3,103.9 99.6,103.5 100.8,103.1 102.1,102.8 103.3,102.7 104.6,102.5 105.9,102.4 107.1,101.9 108.4,101.6 109.7,101.2 110.9,100.9 112.2,100.7 113.5,100.6 114.7,100.4 116.0,100.2 117.3,100.0 118.5,99.8 119.8,99.7 121.1,99.6 122.3,99.4 123.6,99.2 124.8,99.1 126.1,99.0 127.4,98.7 128.6,98.5 129.9,98.4 131.2,98.3 132.4,98.2 133.7,98.2 135.0,104.4 136.2,103.8 137.5,103.3 138.8,102.7 140.0,101.0 141.3,99.8 142.6,98.5 143.8,98.0 145.1,97.5 146.3,96.6 147.6,95.7 148.9,95.0 150.1,94.7 151.4,94.5 152.7,93.8 153.9,93.3 155.2,93.0 156.5,92.6 157.7,92.4 159.0,92.3 160.3,92.0 161.5,91.4 162.8,91.0 164.1,90.5 165.3,90.1 166.6,89.9 167.8,89.7 169.1,89.3 170.4,88.9 171.6,88.6 172.9,88.3 174.2,88.2 175.4,88.1 176.7,87.9 178.0,87.6 179.2,87.3 180.5,87.1 181.8,86.9 183.0,86.8 184.3,86.6 185.6,86.4 186.8,86.3 188.1,86.1 189.3,85.8 190.6,85.5 191.9,85.3 193.1,85.1 194.4,84.9 195.7,84.8 196.9,84.7 198.2,84.5 199.5,84.1 200.7,83.8 202.0,83.4 203.3,83.2 204.5,83.2 205.8,83.0 207.0,82.8 208.3,82.6 209.6,82.4 210.8,82.1 212.1,81.9 213.4,81.8 214.6,81.7 215.9,81.6 217.2,81.4 218.4,81.2 219.7,81.1 221.0,80.8 222.2,80.7 223.5,80.6 224.8,80.5 226.0,80.4 227.3,80.2 228.5,80.0 229.8,79.7 231.1,79.6 232.3,79.4 233.6,79.2 234.9,79.1 236.1,79.0 237.4,78.7 238.7,78.5 239.9,78.3 241.2,78.1 242.5,77.7 243.7,77.6 245.0,77.5 246.3,77.4 247.5,77.3 248.8,77.1 250.0,76.9 251.3,76.8 252.6,76.6 253.8,76.5 255.1,76.4 256.4,76.2 257.6,76.2 258.9,76.0 260.2,75.7 261.4,75.6 262.7,75.4 264.0,75.3 265.2,75.2 266.5,75.1 267.8,75.0 269.0,74.8 270.3,74.7 271.5,74.4 272.8,74.1 274.1,74.0 275.3,73.8 276.6,73.7 277.9,73.7 279.1,73.5 280.4,73.2 281.7,73.1 282.9,73.0 284.2,72.8 285.5,72.7 286.7,72.5 288.0,72.4 289.3,72.3 290.5,72.1 291.8,71.9 293.0,71.7 294.3,71.5 295.6,71.4 296.8,71.4 298.1,71.3 299.4,71.2 300.6,71.0 301.9,70.9 303.2,70.7 304.4,70.6 305.7,70.5 307.0,70.3 308.2,70.2 309.5,70.1 310.7,69.9 312.0,69.7 313.3,69.5 314.5,69.4 315.8,69.3 317.1,69.2 318.3,69.1 319.6,69.0 320.9,68.9 322.1,68.8 323.4,68.5 324.7,68.4 325.9,68.3 327.2,68.2 328.5,68.1 329.7,67.9 331.0,67.7 332.2,67.6 333.5,67.5 334.8,67.4 336.0,67.2 337.3,67.1 338.6,66.9 339.8,66.9 341.1,66.8 342.4,66.7 343.6,66.6 344.9,66.4 346.2,66.3 347.4,66.3 348.7,66.2 350.0,65.9 351.2,65.7 352.5,69.7 353.7,68.9 355.0,67.4 356.3,66.8 357.5,66.1 358.8,65.2 360.1,64.7 361.3,64.4 362.6,63.8 363.9,63.0 365.1,62.3 366.4,62.1 367.7,61.8 368.9,61.5 370.2,61.0 371.5,60.6 372.7,60.1 374.0,59.9 375.2,59.4 376.5,59.2 377.8,58.9 379.0,58.7 380.3,58.4 381.6,58.2 382.8,57.8 384.1,57.5 385.4,57.1 386.6,56.5 387.9,56.2 389.2,56.0 390.4,55.8 391.7,55.6 393.0,55.2 394.2,54.9 395.5,54.6 396.7,53.8 398.0,53.2 399.3,52.9 400.5,52.7 401.8,52.4 403.1,52.0 404.3,51.6 405.6,51.1 406.9,50.8 408.1,50.5 409.4,50.2 410.7,49.8 411.9,49.6 413.2,49.5 414.4,49.3 415.7,49.2 417.0,48.9 418.2,48.8 419.5,48.5 420.8,48.3 422.0,48.2 423.3,47.9 424.6,47.8 425.8,47.6 427.1,47.4 428.4,47.2 429.6,47.1 430.9,47.0 432.2,46.8 433.4,46.7 434.7,46.6 435.9,46.4 437.2,46.3 438.5,46.1 439.7,45.9 441.0,45.7 442.3,45.6 443.5,45.4 444.8,45.3 446.1,45.2 447.3,45.0 448.6,44.9 449.9,44.8 451.1,44.7 452.4,44.5 453.7,44.4 454.9,44.2 456.2,44.0 457.4,43.8 458.7,43.7 460.0,43.4 461.2,43.2 462.5,43.1 463.8,42.8 465.0,42.6 466.3,42.5 467.6,42.2 468.8,42.0 470.1,41.8 471.4,41.6 472.6,41.3 473.9,41.2 475.2,41.1 476.4,41.0 477.7,40.9 478.9,40.7 480.2,40.5 481.5,40.4 482.7,40.2 484.0,40.0 485.3,39.8 486.5,39.5 487.8,39.4 489.1,39.1 490.3,39.0 491.6,38.8 492.9,38.7 494.1,38.6 495.4,38.4 496.7,38.3 497.9,38.1 499.2,37.9 500.4,37.7 501.7,37.5 503.0,37.4 504.2,37.3 505.5,37.1 506.8,37.0 508.0,37.0 509.3,36.8 510.6,36.7 511.8,36.6 513.1,36.4 514.4,36.3 515.6,36.1 516.9,35.9 518.1,35.8 519.4,35.7 520.7,35.6 521.9,35.4 523.2,35.3 524.5,35.2 525.7,35.0 527.0,34.9 528.3,34.6 529.5,34.5 530.8,34.2 532.1,34.1 533.3,34.0 534.6,33.9 535.9,33.8 537.1,33.7 538.4,33.7 539.6,33.5 540.9,33.4 542.2,33.3 543.4,33.2 544.7,33.0 546.0,32.8 547.2,32.7 548.5,32.6 549.8,32.5 551.0,32.3 552.3,32.2 553.6,32.0 554.8,31.9 556.1,31.8 557.4,31.7 558.6,31.5 559.9,31.3 561.1,31.1 562.4,30.8 563.7,30.7 564.9,30.5 566.2,30.4 567.5,30.2 568.7,30.1 570.0,30.0 570.0,30.0,120" />
  
  <!-- Linea principale -->
  <polyline fill="none" stroke="#0366d6" stroke-width="2.5" stroke-linecap="round" stroke-linejoin="round" points="30.0,120.0 31.3,119.5 32.5,119.0 33.8,118.5 35.1,118.4 36.3,118.1 37.6,117.6 38.9,117.2 40.1,116.9 41.4,116.4 42.6,116.1 43.9,115.8 45.2,115.6 46.4,115.3 47.7,114.9 49.0,114.5 50.2,114.2 51.5,114.0 52.8,113.8 54.0,113.6 55.3,113.3 56.6,113.0 57.8,112.9 59.1,112.6 60.4,111.7 61.6,111.4 62.9,111.0 64.1,110.7 65.4,110.4 66.7,110.0 67.9,109.8 69.2,109.7 70.5,109.4 71.7,109.0 73.0,108.6 74.3,108.3 75.5,108.0 76.8,107.9 78.1,107.9 79.3,107.7 80.6,107.4 81.9,107.2 83.1,107.1 84.4,106.8 85.6,106.3 86.9,106.2 88.2,106.1 89.4,105.9 90.7,105.5 92.0,105.2 93.2,104.8 94.5,104.5 95.8,104.2 97.0,104.1 98.3,103.9 99.6,103.5 100.8,103.1 102.1,102.8 103.3,102.7 104.6,102.5 105.9,102.4 107.1,101.9 108.4,101.6 109.7,101.2 110.9,100.9 112.2,100.7 113.5,100.6 114.7,100.4 116.0,100.2 117.3,100.0 118.5,99.8 119.8,99.7 121.1,99.6 122.3,99.4 123.6,99.2 124.8,99.1 126.1,99.0 127.4,98.7 128.6,98.5 129.9,98.4 131.2,98.3 132.4,98.2 133.7,98.2 135.0,104.4 136.2,103.8 137.5,103.3 138.8,102.7 140.0,101.0 141.3,99.8 142.6,98.5 143.8,98.0 145.1,97.5 146.3,96.6 147.6,95.7 148.9,95.0 150.1,94.7 151.4,94.5 152.7,93.8 153.9,93.3 155.2,93.0 156.5,92.6 157.7,92.4 159.0,92.3 160.3,92.0 161.5,91.4 162.8,91.0 164.1,90.5 165.3,90.1 166.6,89.9 167.8,89.7 169.1,89.3 170.4,88.9 171.6,88.6 172.9,88.3 174.2,88.2 175.4,88.1 176.7,87.9 178.0,87.6 179.2,87.3 180.5,87.1 181.8,86.9 183.0,86.8 184.3,86.6 185.6,86.4 186.8,86.3 188.1,86.1 189.3,85.8 190.6,85.5 191.9,85.3 193.1,85.1 194.4,84.9 195.7,84.8 196.9,84.7 198.2,84.5 199.5,84.1 200.7,83.8 202.0,83.4 203.3,83.2 204.5,83.2 205.8,83.0 207.0,82.8 208.3,82.6 209.6,82.4 210.8,82.1 212.1,81.9 213.4,81.8 214.6,81.7 215.9,81.6 217.2,81.4 218.4,81.2 219.7,81.1 221.0,80.8 222.2,80.7 223.5,80.6 224.8,80.5 226.0,80.4 227.3,80.2 228.5,80.0 229.8,79.7 231.1,79.6 232.3,79.4 233.6,79.2 234.9,79.1 236.1,79.0 237.4,78.7 238.7,78.5 239.9,78.3 241.2,78.1 242.5,77.7 243.7,77.6 245.0,77.5 246.3,77.4 247.5,77.3 248.8,77.1 250.0,76.9 251.3,76.8 252.6,76.6 253.8,76.5 255.1,76.4 256.4,76.2 257.6,76.2 258.9,76.0 260.2,75.7 261.4,75.6 262.7,75.4 264.0,75.3 265.2,75.2 266.5,75.1 267.8,75.0 269.0,74.8 270.3,74.7 271.5,74.4 272.8,74.1 274.1,74.0 275.3,73.8 276.6,73.7 277.9,73.7 279.1,73.5 280.4,73.2 281.7,73.1 282.9,73.0 284.2,72.8 285.5,72.7 286.7,72.5 288.0,72.4 289.3,72.3 290.5,72.1 291.8,71.9 293.0,71.7 294.3,71.5 295.6,71.4 296.8,71.4 298.1,71.3 299.4,71.2 300.6,71.0 301.9,70.9 303.2,70.7 304.4,70.6 305.7,70.5 307.0,70.3 308.2,70.2 309.5,70.1 310.7,69.9 312.0,69.7 313.3,69.5 314.5,69.4 315.8,69.3 317.1,69.2 318.3,69.1 319.6,69.0 320.9,68.9 322.1,68.8 323.4,68.5 324.7,68.4 325.9,68.3 327.2,68.2 328.5,68.1 329.7,67.9 331.0,67.7 332.2,67.6 333.5,67.5 334.8,67.4 336.0,67.2 337.3,67.1 338.6,66.9 339.8,66.9 341.1,66.8 342.4,66.7 343.6,66.6 344.9,66.4 346.2,66.3 347.4,66.3 348.7,66.2 350.0,65.9 351.2,65.7 352.5,69.7 353.7,68.9 355.0,67.4 356.3,66.8 357.5,66.1 358.8,65.2 360.1,64.7 361.3,64.4 362.6,63.8 363.9,63.0 365.1,62.3 366.4,62.1 367.7,61.8 368.9,61.5 370.2,61.0 371.5,60.6 372.7,60.1 374.0,59.9 375.2,59.4 376.5,59.2 377.8,58.9 379.0,58.7 380.3,58.4 381.6,58.2 382.8,57.8 384.1,57.5 385.4,57.1 386.6,56.5 387.9,56.2 389.2,56.0 390.4,55.8 391.7,55.6 393.0,55.2 394.2,54.9 395.5,54.6 396.7,53.8 398.0,53.2 399.3,52.9 400.5,52.7 401.8,52.4 403.1,52.0 404.3,51.6 405.6,51.1 406.9,50.8 408.1,50.5 409.4,50.2 410.7,49.8 411.9,49.6 413.2,49.5 414.4,49.3 415.7,49.2 417.0,48.9 418.2,48.8 419.5,48.5 420.8,48.3 422.0,48.2 423.3,47.9 424.6,47.8 425.8,47.6 427.1,47.4 428.4,47.2 429.6,47.1 430.9,47.0 432.2,46.8 433.4,46.7 434.7,46.6 435.9,46.4 437.2,46.3 438.5,46.1 439.7,45.9 441.0,45.7 442.3,45.6 443.5,45.4 444.8,45.3 446.1,45.2 447.3,45.0 448.6,44.9 449.9,44.8 451.1,44.7 452.4,44.5 453.7,44.4 454.9,44.2 456.2,44.0 457.4,43.8 458.7,43.7 460.0,43.4 461.2,43.2 462.5,43.1 463.8,42.8 465.0,42.6 466.3,42.5 467.6,42.2 468.8,42.0 470.1,41.8 471.4,41.6 472.6,41.3 473.9,41.2 475.2,41.1 476.4,41.0 477.7,40.9 478.9,40.7 480.2,40.5 481.5,40.4 482.7,40.2 484.0,40.0 485.3,39.8 486.5,39.5 487.8,39.4 489.1,39.1 490.3,39.0 491.6,38.8 492.9,38.7 494.1,38.6 495.4,38.4 496.7,38.3 497.9,38.1 499.2,37.9 500.4,37.7 501.7,37.5 503.0,37.4 504.2,37.3 505.5,37.1 506.8,37.0 508.0,37.0 509.3,36.8 510.6,36.7 511.8,36.6 513.1,36.4 514.4,36.3 515.6,36.1 516.9,35.9 518.1,35.8 519.4,35.7 520.7,35.6 521.9,35.4 523.2,35.3 524.5,35.2 525.7,35.0 527.0,34.9 528.3,34.6 529.5,34.5 530.8,34.2 532.1,34.1 533.3,34.0 534.6,33.9 535.9,33.8 537.1,33.7 538.4,33.7 539.6,33.5 540.9,33.4 542.2,33.3 543.4,33.2 544.7,33.0 546.0,32.8 547.2,32.7 548.5,32.6 549.8,32.5 551.0,32.3 552.3,32.2 553.6,32.0 554.8,31.9 556.1,31.8 557.4,31.7 558.6,31.5 559.9,31.3 561.1,31.1 562.4,30.8 563.7,30.7 564.9,30.5 566.2,30.4 567.5,30.2 568.7,30.1 570.0,30.0" />
  
  <!-- Punto finale luminoso -->
  <circle cx="570.0" cy="30.0" r="4" fill="#ffffff" stroke="#0366d6" stroke-width="2.5" />
</svg>