<svg width="600" height="150" viewBox="0 0 600 150" xmlns="http://www.w3.org/2000/svg">
  <defs>
    <filter id="shadow2" x="-2%" y="-2%" width="104%" height="108%">
      <feDropShadow dx="0" dy="2" stdDeviation="3" flood-opacity="0.1" />
    </filter>
    <linearGradient id="fillGrad" x1="0" y1="0" x2="0" y2="1">
      <stop offset="0%" stop-color="#0366d6" stop-opacity="0.3"/>
      <stop offset="100%" stop-color="#0366d6" stop-opacity="0.02"/>
    </linearGradient>
  </defs>
  <rect width="600" height="150" rx="12" fill="#ffffff" filter="url(#shadow2)" stroke="#e1e4e8" stroke-width="1"/>
  <text x="20" y="24" fill="#2b3137" font-family="-apple-system,BlinkMacSystemFont,'Segoe UI',Helvetica,Arial,sans-serif" font-size="14" font-weight="600">📈 Download Growth (Actual: 84.1k)</text>
  
  <!-- Area sotto la linea -->
  <polygon fill="url(#fillGrad)" points="30.0,120.0,120 30.0,120.0 31.6,119.4 33.3,118.8 34.9,118.2 36.5,118.1 38.1,117.8 39.8,117.1 41.4,116.7 43.0,116.3 44.6,115.6 46.3,115.3 47.9,114.9 49.5,114.7 51.1,114.4 52.8,114.0 54.4,113.5 56.0,113.1 57.7,112.8 59.3,112.6 60.9,112.3 62.5,111.9 64.2,111.6 65.8,111.5 67.4,111.1 69.0,110.0 70.7,109.7 72.3,109.3 73.9,108.8 75.5,108.5 77.2,108.1 78.8,107.9 80.4,107.7 82.0,107.4 83.7,106.8 85.3,106.4 86.9,106.1 88.6,105.7 90.2,105.6 91.8,105.5 93.4,105.3 95.1,104.9 96.7,104.7 98.3,104.6 99.9,104.2 101.6,103.6 103.2,103.4 104.8,103.3 106.4,103.1 108.1,102.6 109.7,102.3 111.3,101.8 113.0,101.5 114.6,101.0 116.2,101.0 117.8,100.7 119.5,100.3 121.1,99.8 122.7,99.5 124.3,99.3 126.0,99.1 127.6,98.9 129.2,98.4 130.8,97.9 132.5,97.5 134.1,97.1 135.7,96.9 137.3,96.8 139.0,96.6 140.6,96.3 142.2,96.0 143.9,95.9 145.5,95.7 147.1,95.5 148.7,95.3 150.4,95.1 152.0,95.0 153.6,94.9 155.2,94.5 156.9,94.2 158.5,94.1 160.1,94.0 161.7,93.9 163.4,93.9 165.0,101.4 166.6,100.6 168.3,100.0 169.9,99.3 171.5,97.2 173.1,95.8 174.8,94.3 176.4,93.7 178.0,93.1 179.6,92.0 181.3,90.9 182.9,90.1 184.5,89.7 186.1,89.4 187.8,88.6 189.4,88.0 191.0,87.7 192.7,87.2 194.3,87.0 195.9,86.9 197.5,86.5 199.2,85.8 200.8,85.3 202.4,84.8 204.0,84.2 205.7,83.9 207.3,83.7 208.9,83.3 210.5,82.8 212.2,82.4 213.8,82.1 215.4,81.9 217.0,81.8 218.7,81.6 220.3,81.2 221.9,80.9 223.6,80.7 225.2,80.4 226.8,80.2 228.4,80.0 230.1,79.8 231.7,79.7 233.3,79.5 234.9,79.1 236.6,78.8 238.2,78.5 239.8,78.3 241.4,78.0 243.1,77.9 244.7,77.7 246.3,77.5 248.0,77.0 249.6,76.6 251.2,76.2 252.8,76.0 254.5,76.0 256.1,75.8 257.7,75.5 259.3,75.2 261.0,75.0 262.6,74.6 264.2,74.4 265.8,74.3 267.5,74.2 269.1,74.0 270.7,73.9 272.3,73.6 274.0,73.5 275.6,73.1 277.2,73.0 278.9,72.9 280.5,72.7 282.1,72.6 283.7,72.3 285.4,72.1 287.0,71.8 288.6,71.6 290.2,71.4 291.9,71.2 293.5,71.1 295.1,70.9 296.7,70.6 298.4,70.3 300.0,70.1 301.6,69.8 303.3,69.4 304.9,69.3 306.5,69.2 308.1,69.1 309.8,68.9 311.4,68.7 313.0,68.5 314.6,68.3 316.3,68.1 317.9,68.0 319.5,67.8 321.1,67.7 322.8,67.6 324.4,67.4 326.0,67.1 327.7,66.9 329.3,66.7 330.9,66.6 332.5,66.4 334.2,66.2 335.8,66.1 337.4,66.0 339.0,65.8 340.7,65.5 342.3,65.1 343.9,64.9 345.5,64.7 347.2,64.7 348.8,64.6 350.4,64.4 352.0,64.1 353.7,63.9 355.3,63.8 356.9,63.6 358.6,63.4 360.2,63.2 361.8,63.1 363.4,63.0 365.1,62.7 366.7,62.5 368.3,62.2 369.9,62.0 371.6,61.9 373.2,61.8 374.8,61.8 376.4,61.6 378.1,61.4 379.7,61.2 381.3,61.1 383.0,60.9 384.6,60.7 386.2,60.6 387.8,60.4 389.5,60.3 391.1,60.1 392.7,59.8 394.3,59.6 396.0,59.4 397.6,59.3 399.2,59.2 400.8,59.1 402.5,59.0 404.1,58.9 405.7,58.7 407.3,58.4 409.0,58.3 410.6,58.1 412.2,58.0 413.9,57.9 415.5,57.7 417.1,57.5 418.7,57.4 420.4,57.2 422.0,57.1 423.6,56.9 425.2,56.7 426.9,56.5 428.5,56.4 430.1,56.3 431.7,56.2 433.4,56.1 435.0,55.9 436.6,55.8 438.3,55.7 439.9,55.6 441.5,55.2 443.1,55.0 444.8,59.9 446.4,58.9 448.0,57.1 449.6,56.4 451.3,55.5 452.9,54.5 454.5,53.9 456.1,53.5 457.8,52.8 459.4,51.8 461.0,51.0 462.7,50.7 464.3,50.3 465.9,50.0 467.5,49.4 469.2,48.9 470.8,48.3 472.4,48.1 474.0,47.5 475.7,47.2 477.3,46.9 478.9,46.6 480.5,46.4 482.2,46.1 483.8,45.6 485.4,45.2 487.0,44.7 488.7,44.0 490.3,43.6 491.9,43.4 493.6,43.2 495.2,43.0 496.8,42.5 498.4,42.1 500.1,41.8 501.7,40.8 503.3,40.0 504.9,39.7 506.6,39.5 508.2,39.2 509.8,38.6 511.4,38.2 513.1,37.6 514.7,37.2 516.3,36.9 518.0,36.5 519.6,36.1 521.2,35.8 522.8,35.6 524.5,35.5 526.1,35.2 527.7,34.9 529.3,34.8 531.0,34.5 532.6,34.3 534.2,34.1 535.8,33.8 537.5,33.6 539.1,33.4 540.7,33.2 542.3,32.9 544.0,32.8 545.6,32.6 547.2,32.5 548.9,32.3 550.5,32.2 552.1,32.0 553.7,31.8 555.4,31.6 557.0,31.3 558.6,31.1 560.2,31.0 561.9,30.8 563.5,30.6 565.1,30.5 566.7,30.3 568.4,30.2 570.0,30.0 570.0,30.0,120" />
  
  <!-- Linea principale -->
  <polyline fill="none" stroke="#0366d6" stroke-width="2.5" stroke-linecap="round" stroke-linejoin="round" points="30.0,120.0 31.6,119.4 33.3,118.8 34.9,118.2 36.5,118.1 38.1,117.8 39.8,117.1 41.4,116.7 43.0,116.3 44.6,115.6 46.3,115.3 47.9,114.9 49.5,114.7 51.1,114.4 52.8,114.0 54.4,113.5 56.0,113.1 57.7,112.8 59.3,112.6 60.9,112.3 62.5,111.9 64.2,111.6 65.8,111.5 67.4,111.1 69.0,110.0 70.7,109.7 72.3,109.3 73.9,108.8 75.5,108.5 77.2,108.1 78.8,107.9 80.4,107.7 82.0,107.4 83.7,106.8 85.3,106.4 86.9,106.1 88.6,105.7 90.2,105.6 91.8,105.5 93.4,105.3 95.1,104.9 96.7,104.7 98.3,104.6 99.9,104.2 101.6,103.6 103.2,103.4 104.8,103.3 106.4,103.1 108.1,102.6 109.7,102.3 111.3,101.8 113.0,101.5 114.6,101.0 116.2,101.0 117.8,100.7 119.5,100.3 121.1,99.8 122.7,99.5 124.3,99.3 126.0,99.1 127.6,98.9 129.2,98.4 130.8,97.9 132.5,97.5 134.1,97.1 135.7,96.9 137.3,96.8 139.0,96.6 140.6,96.3 142.2,96.0 143.9,95.9 145.5,95.7 147.1,95.5 148.7,95.3 150.4,95.1 152.0,95.0 153.6,94.9 155.2,94.5 156.9,94.2 158.5,94.1 160.1,94.0 161.7,93.9 163.4,93.9 165.0,101.4 166.6,100.6 168.3,100.0 169.9,99.3 171.5,97.2 173.1,95.8 174.8,94.3 176.4,93.7 178.0,93.1 179.6,92.0 181.3,90.9 182.9,90.1 184.5,89.7 186.1,89.4 187.8,88.6 189.4,88.0 191.0,87.7 192.7,87.2 194.3,87.0 195.9,86.9 197.5,86.5 199.2,85.8 200.8,85.3 202.4,84.8 204.0,84.2 205.7,83.9 207.3,83.7 208.9,83.3 210.5,82.8 212.2,82.4 213.8,82.1 215.4,81.9 217.0,81.8 218.7,81.6 220.3,81.2 221.9,80.9 223.6,80.7 225.2,80.4 226.8,80.2 228.4,80.0 230.1,79.8 231.7,79.7 233.3,79.5 234.9,79.1 236.6,78.8 238.2,78.5 239.8,78.3 241.4,78.0 243.1,77.9 244.7,77.7 246.3,77.5 248.0,77.0 249.6,76.6 251.2,76.2 252.8,76.0 254.5,76.0 256.1,75.8 257.7,75.5 259.3,75.2 261.0,75.0 262.6,74.6 264.2,74.4 265.8,74.3 267.5,74.2 269.1,74.0 270.7,73.9 272.3,73.6 274.0,73.5 275.6,73.1 277.2,73.0 278.9,72.9 280.5,72.7 282.1,72.6 283.7,72.3 285.4,72.1 287.0,71.8 288.6,71.6 290.2,71.4 291.9,71.2 293.5,71.1 295.1,70.9 296.7,70.6 298.4,70.3 300.0,70.1 301.6,69.8 303.3,69.4 304.9,69.3 306.5,69.2 308.1,69.1 309.8,68.9 311.4,68.7 313.0,68.5 314.6,68.3 316.3,68.1 317.9,68.0 319.5,67.8 321.1,67.7 322.8,67.6 324.4,67.4 326.0,67.1 327.7,66.9 329.3,66.7 330.9,66.6 332.5,66.4 334.2,66.2 335.8,66.1 337.4,66.0 339.0,65.8 340.7,65.5 342.3,65.1 343.9,64.9 345.5,64.7 347.2,64.7 348.8,64.6 350.4,64.4 352.0,64.1 353.7,63.9 355.3,63.8 356.9,63.6 358.6,63.4 360.2,63.2 361.8,63.1 363.4,63.0 365.1,62.7 366.7,62.5 368.3,62.2 369.9,62.0 371.6,61.9 373.2,61.8 374.8,61.8 376.4,61.6 378.1,61.4 379.7,61.2 381.3,61.1 383.0,60.9 384.6,60.7 386.2,60.6 387.8,60.4 389.5,60.3 391.1,60.1 392.7,59.8 394.3,59.6 396.0,59.4 397.6,59.3 399.2,59.2 400.8,59.1 402.5,59.0 404.1,58.9 405.7,58.7 407.3,58.4 409.0,58.3 410.6,58.1 412.2,58.0 413.9,57.9 415.5,57.7 417.1,57.5 418.7,57.4 420.4,57.2 422.0,57.1 423.6,56.9 425.2,56.7 426.9,56.5 428.5,56.4 430.1,56.3 431.7,56.2 433.4,56.1 435.0,55.9 436.6,55.8 438.3,55.7 439.9,55.6 441.5,55.2 443.1,55.0 444.8,59.9 446.4,58.9 448.0,57.1 449.6,56.4 451.3,55.5 452.9,54.5 454.5,53.9 456.1,53.5 457.8,52.8 459.4,51.8 461.0,51.0 462.7,50.7 464.3,50.3 465.9,50.0 467.5,49.4 469.2,48.9 470.8,48.3 472.4,48.1 474.0,47.5 475.7,47.2 477.3,46.9 478.9,46.6 480.5,46.4 482.2,46.1 483.8,45.6 485.4,45.2 487.0,44.7 488.7,44.0 490.3,43.6 491.9,43.4 493.6,43.2 495.2,43.0 496.8,42.5 498.4,42.1 500.1,41.8 501.7,40.8 503.3,40.0 504.9,39.7 506.6,39.5 508.2,39.2 509.8,38.6 511.4,38.2 513.1,37.6 514.7,37.2 516.3,36.9 518.0,36.5 519.6,36.1 521.2,35.8 522.8,35.6 524.5,35.5 526.1,35.2 527.7,34.9 529.3,34.8 531.0,34.5 532.6,34.3 534.2,34.1 535.8,33.8 537.5,33.6 539.1,33.4 540.7,33.2 542.3,32.9 544.0,32.8 545.6,32.6 547.2,32.5 548.9,32.3 550.5,32.2 552.1,32.0 553.7,31.8 555.4,31.6 557.0,31.3 558.6,31.1 560.2,31.0 561.9,30.8 563.5,30.6 565.1,30.5 566.7,30.3 568.4,30.2 570.0,30.0" />
  
  <!-- Punto finale luminoso -->
  <circle cx="570.0" cy="30.0" r="4" fill="#ffffff" stroke="#0366d6" stroke-width="2.5" />
</svg>