<svg width="600" height="150" viewBox="0 0 600 150" xmlns="http://www.w3.org/2000/svg">
  <defs>
    <filter id="shadow2" x="-2%" y="-2%" width="104%" height="108%">
      <feDropShadow dx="0" dy="2" stdDeviation="3" flood-opacity="0.1" />
    </filter>
    <linearGradient id="fillGrad" x1="0" y1="0" x2="0" y2="1">
      <stop offset="0%" stop-color="#0366d6" stop-opacity="0.3"/>
      <stop offset="100%" stop-color="#0366d6" stop-opacity="0.02"/>
    </linearGradient>
  </defs>
  <rect width="600" height="150" rx="12" fill="#ffffff" filter="url(#shadow2)" stroke="#e1e4e8" stroke-width="1"/>
  <text x="20" y="24" fill="#2b3137" font-family="-apple-system,BlinkMacSystemFont,'Segoe UI',Helvetica,Arial,sans-serif" font-size="14" font-weight="600">📈 Download Growth (Actual: 83.7k)</text>
  
  <!-- Area sotto la linea -->
  <polygon fill="url(#fillGrad)" points="30.0,120.0,120 30.0,120.0 31.7,119.4 33.4,118.8 35.0,118.2 36.7,118.0 38.4,117.7 40.1,117.0 41.7,116.6 43.4,116.3 45.1,115.6 46.8,115.2 48.4,114.8 50.1,114.6 51.8,114.3 53.5,113.8 55.2,113.3 56.8,112.9 58.5,112.7 60.2,112.5 61.9,112.2 63.5,111.8 65.2,111.4 66.9,111.3 68.6,111.0 70.2,109.8 71.9,109.5 73.6,109.1 75.3,108.6 77.0,108.2 78.6,107.9 80.3,107.6 82.0,107.4 83.7,107.1 85.3,106.6 87.0,106.1 88.7,105.8 90.4,105.4 92.0,105.3 93.7,105.2 95.4,105.0 97.1,104.6 98.8,104.4 100.4,104.3 102.1,103.9 103.8,103.2 105.5,103.1 107.1,103.0 108.8,102.8 110.5,102.3 112.2,102.0 113.9,101.5 115.5,101.1 117.2,100.7 118.9,100.6 120.6,100.3 122.2,99.9 123.9,99.4 125.6,99.1 127.3,98.9 128.9,98.7 130.6,98.5 132.3,98.0 134.0,97.5 135.7,97.1 137.3,96.7 139.0,96.4 140.7,96.3 142.4,96.1 144.0,95.8 145.7,95.6 147.4,95.4 149.1,95.2 150.7,95.0 152.4,94.8 154.1,94.6 155.8,94.5 157.5,94.4 159.1,94.0 160.8,93.7 162.5,93.6 164.2,93.5 165.8,93.4 167.5,93.4 169.2,101.0 170.9,100.2 172.5,99.6 174.2,98.8 175.9,96.8 177.6,95.3 179.3,93.8 180.9,93.2 182.6,92.5 184.3,91.5 186.0,90.3 187.6,89.5 189.3,89.1 191.0,88.8 192.7,88.0 194.3,87.4 196.0,87.0 197.7,86.5 199.4,86.3 201.1,86.2 202.7,85.8 204.4,85.1 206.1,84.6 207.8,84.0 209.4,83.5 211.1,83.2 212.8,83.0 214.5,82.5 216.1,82.1 217.8,81.6 219.5,81.3 221.2,81.2 222.9,81.0 224.5,80.8 226.2,80.4 227.9,80.1 229.6,79.9 231.2,79.6 232.9,79.4 234.6,79.2 236.3,79.0 238.0,78.8 239.6,78.6 241.3,78.2 243.0,77.9 244.7,77.6 246.3,77.4 248.0,77.2 249.7,77.0 251.4,76.9 253.0,76.7 254.7,76.1 256.4,75.8 258.1,75.3 259.8,75.1 261.4,75.1 263.1,74.9 264.8,74.6 266.5,74.3 268.1,74.1 269.8,73.7 271.5,73.5 273.2,73.4 274.8,73.2 276.5,73.1 278.2,72.9 279.9,72.7 281.6,72.5 283.2,72.2 284.9,72.0 286.6,71.9 288.3,71.8 289.9,71.6 291.6,71.4 293.3,71.1 295.0,70.9 296.6,70.6 298.3,70.4 300.0,70.2 301.7,70.1 303.4,69.9 305.0,69.6 306.7,69.3 308.4,69.1 310.1,68.8 311.7,68.4 313.4,68.3 315.1,68.2 316.8,68.1 318.4,67.8 320.1,67.7 321.8,67.4 323.5,67.3 325.2,67.1 326.8,66.9 328.5,66.7 330.2,66.6 331.9,66.5 333.5,66.3 335.2,66.0 336.9,65.8 338.6,65.6 340.2,65.5 341.9,65.3 343.6,65.1 345.3,65.0 347.0,64.9 348.6,64.7 350.3,64.4 352.0,64.0 353.7,63.8 355.3,63.6 357.0,63.5 358.7,63.4 360.4,63.2 362.0,62.9 363.7,62.8 365.4,62.7 367.1,62.4 368.8,62.3 370.4,62.0 372.1,61.9 373.8,61.8 375.5,61.5 377.1,61.3 378.8,61.1 380.5,60.8 382.2,60.7 383.9,60.7 385.5,60.6 387.2,60.4 388.9,60.2 390.6,60.0 392.2,59.9 393.9,59.6 395.6,59.5 397.3,59.4 398.9,59.2 400.6,59.1 402.3,58.8 404.0,58.6 405.7,58.4 407.3,58.2 409.0,58.1 410.7,58.0 412.4,57.9 414.0,57.7 415.7,57.6 417.4,57.5 419.1,57.2 420.7,57.0 422.4,56.9 424.1,56.7 425.8,56.6 427.5,56.4 429.1,56.2 430.8,56.1 432.5,56.0 434.2,55.8 435.8,55.6 437.5,55.4 439.2,55.2 440.9,55.1 442.5,55.0 444.2,54.9 445.9,54.8 447.6,54.6 449.3,54.5 450.9,54.4 452.6,54.3 454.3,53.9 456.0,53.7 457.6,58.7 459.3,57.7 461.0,55.8 462.7,55.1 464.3,54.2 466.0,53.1 467.7,52.6 469.4,52.1 471.1,51.4 472.7,50.4 474.4,49.5 476.1,49.3 477.8,48.9 479.4,48.6 481.1,48.0 482.8,47.5 484.5,46.9 486.1,46.6 487.8,46.0 489.5,45.8 491.2,45.4 492.9,45.1 494.5,44.8 496.2,44.6 497.9,44.0 499.6,43.7 501.2,43.2 502.9,42.5 504.6,42.1 506.3,41.9 508.0,41.7 509.6,41.4 511.3,41.0 513.0,40.6 514.7,40.2 516.3,39.2 518.0,38.4 519.7,38.1 521.4,37.9 523.0,37.5 524.7,37.0 526.4,36.5 528.1,35.9 529.8,35.6 531.4,35.2 533.1,34.8 534.8,34.4 536.5,34.1 538.1,33.9 539.8,33.7 541.5,33.5 543.2,33.2 544.8,33.0 546.5,32.8 548.2,32.5 549.9,32.3 551.6,32.0 553.2,31.8 554.9,31.6 556.6,31.4 558.3,31.2 559.9,31.0 561.6,30.9 563.3,30.7 565.0,30.5 566.6,30.4 568.3,30.2 570.0,30.0 570.0,30.0,120" />
  
  <!-- Linea principale -->
  <polyline fill="none" stroke="#0366d6" stroke-width="2.5" stroke-linecap="round" stroke-linejoin="round" points="30.0,120.0 31.7,119.4 33.4,118.8 35.0,118.2 36.7,118.0 38.4,117.7 40.1,117.0 41.7,116.6 43.4,116.3 45.1,115.6 46.8,115.2 48.4,114.8 50.1,114.6 51.8,114.3 53.5,113.8 55.2,113.3 56.8,112.9 58.5,112.7 60.2,112.5 61.9,112.2 63.5,111.8 65.2,111.4 66.9,111.3 68.6,111.0 70.2,109.8 71.9,109.5 73.6,109.1 75.3,108.6 77.0,108.2 78.6,107.9 80.3,107.6 82.0,107.4 83.7,107.1 85.3,106.6 87.0,106.1 88.7,105.8 90.4,105.4 92.0,105.3 93.7,105.2 95.4,105.0 97.1,104.6 98.8,104.4 100.4,104.3 102.1,103.9 103.8,103.2 105.5,103.1 107.1,103.0 108.8,102.8 110.5,102.3 112.2,102.0 113.9,101.5 115.5,101.1 117.2,100.7 118.9,100.6 120.6,100.3 122.2,99.9 123.9,99.4 125.6,99.1 127.3,98.9 128.9,98.7 130.6,98.5 132.3,98.0 134.0,97.5 135.7,97.1 137.3,96.7 139.0,96.4 140.7,96.3 142.4,96.1 144.0,95.8 145.7,95.6 147.4,95.4 149.1,95.2 150.7,95.0 152.4,94.8 154.1,94.6 155.8,94.5 157.5,94.4 159.1,94.0 160.8,93.7 162.5,93.6 164.2,93.5 165.8,93.4 167.5,93.4 169.2,101.0 170.9,100.2 172.5,99.6 174.2,98.8 175.9,96.8 177.6,95.3 179.3,93.8 180.9,93.2 182.6,92.5 184.3,91.5 186.0,90.3 187.6,89.5 189.3,89.1 191.0,88.8 192.7,88.0 194.3,87.4 196.0,87.0 197.7,86.5 199.4,86.3 201.1,86.2 202.7,85.8 204.4,85.1 206.1,84.6 207.8,84.0 209.4,83.5 211.1,83.2 212.8,83.0 214.5,82.5 216.1,82.1 217.8,81.6 219.5,81.3 221.2,81.2 222.9,81.0 224.5,80.8 226.2,80.4 227.9,80.1 229.6,79.9 231.2,79.6 232.9,79.4 234.6,79.2 236.3,79.0 238.0,78.8 239.6,78.6 241.3,78.2 243.0,77.9 244.7,77.6 246.3,77.4 248.0,77.2 249.7,77.0 251.4,76.9 253.0,76.7 254.7,76.1 256.4,75.8 258.1,75.3 259.8,75.1 261.4,75.1 263.1,74.9 264.8,74.6 266.5,74.3 268.1,74.1 269.8,73.7 271.5,73.5 273.2,73.4 274.8,73.2 276.5,73.1 278.2,72.9 279.9,72.7 281.6,72.5 283.2,72.2 284.9,72.0 286.6,71.9 288.3,71.8 289.9,71.6 291.6,71.4 293.3,71.1 295.0,70.9 296.6,70.6 298.3,70.4 300.0,70.2 301.7,70.1 303.4,69.9 305.0,69.6 306.7,69.3 308.4,69.1 310.1,68.8 311.7,68.4 313.4,68.3 315.1,68.2 316.8,68.1 318.4,67.8 320.1,67.7 321.8,67.4 323.5,67.3 325.2,67.1 326.8,66.9 328.5,66.7 330.2,66.6 331.9,66.5 333.5,66.3 335.2,66.0 336.9,65.8 338.6,65.6 340.2,65.5 341.9,65.3 343.6,65.1 345.3,65.0 347.0,64.9 348.6,64.7 350.3,64.4 352.0,64.0 353.7,63.8 355.3,63.6 357.0,63.5 358.7,63.4 360.4,63.2 362.0,62.9 363.7,62.8 365.4,62.7 367.1,62.4 368.8,62.3 370.4,62.0 372.1,61.9 373.8,61.8 375.5,61.5 377.1,61.3 378.8,61.1 380.5,60.8 382.2,60.7 383.9,60.7 385.5,60.6 387.2,60.4 388.9,60.2 390.6,60.0 392.2,59.9 393.9,59.6 395.6,59.5 397.3,59.4 398.9,59.2 400.6,59.1 402.3,58.8 404.0,58.6 405.7,58.4 407.3,58.2 409.0,58.1 410.7,58.0 412.4,57.9 414.0,57.7 415.7,57.6 417.4,57.5 419.1,57.2 420.7,57.0 422.4,56.9 424.1,56.7 425.8,56.6 427.5,56.4 429.1,56.2 430.8,56.1 432.5,56.0 434.2,55.8 435.8,55.6 437.5,55.4 439.2,55.2 440.9,55.1 442.5,55.0 444.2,54.9 445.9,54.8 447.6,54.6 449.3,54.5 450.9,54.4 452.6,54.3 454.3,53.9 456.0,53.7 457.6,58.7 459.3,57.7 461.0,55.8 462.7,55.1 464.3,54.2 466.0,53.1 467.7,52.6 469.4,52.1 471.1,51.4 472.7,50.4 474.4,49.5 476.1,49.3 477.8,48.9 479.4,48.6 481.1,48.0 482.8,47.5 484.5,46.9 486.1,46.6 487.8,46.0 489.5,45.8 491.2,45.4 492.9,45.1 494.5,44.8 496.2,44.6 497.9,44.0 499.6,43.7 501.2,43.2 502.9,42.5 504.6,42.1 506.3,41.9 508.0,41.7 509.6,41.4 511.3,41.0 513.0,40.6 514.7,40.2 516.3,39.2 518.0,38.4 519.7,38.1 521.4,37.9 523.0,37.5 524.7,37.0 526.4,36.5 528.1,35.9 529.8,35.6 531.4,35.2 533.1,34.8 534.8,34.4 536.5,34.1 538.1,33.9 539.8,33.7 541.5,33.5 543.2,33.2 544.8,33.0 546.5,32.8 548.2,32.5 549.9,32.3 551.6,32.0 553.2,31.8 554.9,31.6 556.6,31.4 558.3,31.2 559.9,31.0 561.6,30.9 563.3,30.7 565.0,30.5 566.6,30.4 568.3,30.2 570.0,30.0" />
  
  <!-- Punto finale luminoso -->
  <circle cx="570.0" cy="30.0" r="4" fill="#ffffff" stroke="#0366d6" stroke-width="2.5" />
</svg>