<svg width="600" height="150" viewBox="0 0 600 150" xmlns="http://www.w3.org/2000/svg">
  <defs>
    <filter id="shadow2" x="-2%" y="-2%" width="104%" height="108%">
      <feDropShadow dx="0" dy="2" stdDeviation="3" flood-opacity="0.1" />
    </filter>
    <linearGradient id="fillGrad" x1="0" y1="0" x2="0" y2="1">
      <stop offset="0%" stop-color="#0366d6" stop-opacity="0.3"/>
      <stop offset="100%" stop-color="#0366d6" stop-opacity="0.02"/>
    </linearGradient>
  </defs>
  <rect width="600" height="150" rx="12" fill="#ffffff" filter="url(#shadow2)" stroke="#e1e4e8" stroke-width="1"/>
  <text x="20" y="24" fill="#2b3137" font-family="-apple-system,BlinkMacSystemFont,'Segoe UI',Helvetica,Arial,sans-serif" font-size="14" font-weight="600">📈 Download Growth (Actual: 86.3k)</text>
  
  <!-- Area sotto la linea -->
  <polygon fill="url(#fillGrad)" points="30.0,120.0,120 30.0,120.0 31.4,119.5 32.8,118.9 34.1,118.4 35.5,118.3 36.9,118.0 38.3,117.4 39.7,117.0 41.0,116.8 42.4,116.1 43.8,115.8 45.2,115.5 46.6,115.3 48.0,115.1 49.3,114.6 50.7,114.2 52.1,113.8 53.5,113.6 54.9,113.5 56.2,113.2 57.6,112.8 59.0,112.6 60.4,112.4 61.8,112.1 63.1,111.2 64.5,110.9 65.9,110.5 67.3,110.1 68.7,109.8 70.1,109.4 71.4,109.2 72.8,109.1 74.2,108.8 75.6,108.3 77.0,107.9 78.3,107.6 79.7,107.3 81.1,107.2 82.5,107.1 83.9,107.0 85.2,106.6 86.6,106.5 88.0,106.3 89.4,106.0 90.8,105.4 92.1,105.3 93.5,105.2 94.9,105.0 96.3,104.6 97.7,104.3 99.1,103.9 100.4,103.6 101.8,103.2 103.2,103.1 104.6,102.9 106.0,102.5 107.3,102.1 108.7,101.8 110.1,101.7 111.5,101.5 112.9,101.3 114.2,100.8 115.6,100.4 117.0,100.1 118.4,99.7 119.8,99.5 121.2,99.4 122.5,99.2 123.9,98.9 125.3,98.7 126.7,98.6 128.1,98.4 129.4,98.3 130.8,98.1 132.2,97.9 133.6,97.9 135.0,97.8 136.3,97.4 137.7,97.1 139.1,97.1 140.5,96.9 141.9,96.8 143.2,96.8 144.6,103.5 146.0,102.8 147.4,102.2 148.8,101.6 150.2,99.8 151.5,98.5 152.9,97.2 154.3,96.7 155.7,96.1 157.1,95.2 158.4,94.2 159.8,93.4 161.2,93.2 162.6,92.9 164.0,92.2 165.3,91.6 166.7,91.3 168.1,90.9 169.5,90.7 170.9,90.6 172.3,90.2 173.6,89.6 175.0,89.2 176.4,88.7 177.8,88.2 179.2,88.0 180.5,87.8 181.9,87.4 183.3,87.0 184.7,86.6 186.1,86.4 187.4,86.2 188.8,86.1 190.2,85.9 191.6,85.6 193.0,85.3 194.3,85.1 195.7,84.9 197.1,84.7 198.5,84.5 199.9,84.4 201.3,84.2 202.6,84.0 204.0,83.7 205.4,83.4 206.8,83.1 208.2,83.0 209.5,82.8 210.9,82.6 212.3,82.5 213.7,82.3 215.1,81.9 216.4,81.5 217.8,81.1 219.2,81.0 220.6,80.9 222.0,80.7 223.4,80.5 224.7,80.3 226.1,80.1 227.5,79.8 228.9,79.6 230.3,79.5 231.6,79.3 233.0,79.2 234.4,79.1 235.8,78.9 237.2,78.7 238.5,78.4 239.9,78.3 241.3,78.2 242.7,78.1 244.1,78.0 245.4,77.7 246.8,77.5 248.2,77.3 249.6,77.1 251.0,76.9 252.4,76.7 253.7,76.6 255.1,76.5 256.5,76.2 257.9,75.9 259.3,75.7 260.6,75.5 262.0,75.1 263.4,75.1 264.8,74.9 266.2,74.8 267.5,74.7 268.9,74.5 270.3,74.3 271.7,74.2 273.1,74.0 274.5,73.8 275.8,73.7 277.2,73.6 278.6,73.5 280.0,73.3 281.4,73.0 282.7,72.9 284.1,72.7 285.5,72.6 286.9,72.5 288.3,72.3 289.6,72.2 291.0,72.1 292.4,71.9 293.8,71.6 295.2,71.3 296.5,71.1 297.9,71.0 299.3,70.9 300.7,70.8 302.1,70.6 303.5,70.4 304.8,70.2 306.2,70.1 307.6,70.0 309.0,69.8 310.4,69.6 311.7,69.5 313.1,69.4 314.5,69.2 315.9,69.0 317.3,68.8 318.6,68.6 320.0,68.5 321.4,68.4 322.8,68.3 324.2,68.2 325.5,68.0 326.9,67.9 328.3,67.7 329.7,67.5 331.1,67.4 332.5,67.3 333.8,67.2 335.2,67.0 336.6,66.8 338.0,66.6 339.4,66.4 340.7,66.3 342.1,66.2 343.5,66.1 344.9,66.0 346.3,65.9 347.6,65.8 349.0,65.6 350.4,65.4 351.8,65.3 353.2,65.1 354.6,65.0 355.9,64.9 357.3,64.7 358.7,64.5 360.1,64.4 361.5,64.3 362.8,64.2 364.2,64.0 365.6,63.9 367.0,63.7 368.4,63.6 369.7,63.5 371.1,63.4 372.5,63.3 373.9,63.2 375.3,63.0 376.6,63.0 378.0,62.9 379.4,62.5 380.8,62.3 382.2,66.7 383.6,65.8 384.9,64.2 386.3,63.6 387.7,62.8 389.1,61.9 390.5,61.4 391.8,61.0 393.2,60.4 394.6,59.5 396.0,58.7 397.4,58.5 398.7,58.2 400.1,57.9 401.5,57.4 402.9,56.9 404.3,56.4 405.7,56.2 407.0,55.7 408.4,55.5 409.8,55.1 411.2,54.9 412.6,54.7 413.9,54.4 415.3,54.0 416.7,53.6 418.1,53.2 419.5,52.6 420.8,52.3 422.2,52.1 423.6,51.9 425.0,51.7 426.4,51.3 427.7,50.9 429.1,50.6 430.5,49.8 431.9,49.1 433.3,48.8 434.7,48.6 436.0,48.3 437.4,47.8 438.8,47.4 440.2,46.9 441.6,46.6 442.9,46.3 444.3,46.0 445.7,45.5 447.1,45.3 448.5,45.2 449.8,45.0 451.2,44.8 452.6,44.5 454.0,44.4 455.4,44.1 456.8,43.9 458.1,43.8 459.5,43.5 460.9,43.3 462.3,43.1 463.7,43.0 465.0,42.8 466.4,42.6 467.8,42.5 469.2,42.3 470.6,42.2 471.9,42.1 473.3,41.9 474.7,41.8 476.1,41.6 477.5,41.4 478.8,41.2 480.2,41.0 481.6,40.8 483.0,40.7 484.4,40.6 485.8,40.5 487.1,40.3 488.5,40.2 489.9,40.1 491.3,39.9 492.7,39.7 494.0,39.6 495.4,39.3 496.8,39.1 498.2,39.0 499.6,38.7 500.9,38.5 502.3,38.4 503.7,38.1 505.1,37.9 506.5,37.7 507.9,37.5 509.2,37.2 510.6,37.0 512.0,36.8 513.4,36.5 514.8,36.4 516.1,36.3 517.5,36.2 518.9,36.0 520.3,35.9 521.7,35.7 523.0,35.5 524.4,35.3 525.8,35.1 527.2,34.9 528.6,34.6 529.9,34.4 531.3,34.1 532.7,34.0 534.1,33.8 535.5,33.7 536.9,33.6 538.2,33.4 539.6,33.3 541.0,33.0 542.4,32.9 543.8,32.6 545.1,32.5 546.5,32.3 547.9,32.2 549.3,32.0 550.7,32.0 552.0,31.9 553.4,31.7 554.8,31.6 556.2,31.5 557.6,31.3 559.0,31.1 560.3,30.9 561.7,30.8 563.1,30.7 564.5,30.5 565.9,30.4 567.2,30.2 568.6,30.1 570.0,30.0 570.0,30.0,120" />
  
  <!-- Linea principale -->
  <polyline fill="none" stroke="#0366d6" stroke-width="2.5" stroke-linecap="round" stroke-linejoin="round" points="30.0,120.0 31.4,119.5 32.8,118.9 34.1,118.4 35.5,118.3 36.9,118.0 38.3,117.4 39.7,117.0 41.0,116.8 42.4,116.1 43.8,115.8 45.2,115.5 46.6,115.3 48.0,115.1 49.3,114.6 50.7,114.2 52.1,113.8 53.5,113.6 54.9,113.5 56.2,113.2 57.6,112.8 59.0,112.6 60.4,112.4 61.8,112.1 63.1,111.2 64.5,110.9 65.9,110.5 67.3,110.1 68.7,109.8 70.1,109.4 71.4,109.2 72.8,109.1 74.2,108.8 75.6,108.3 77.0,107.9 78.3,107.6 79.7,107.3 81.1,107.2 82.5,107.1 83.9,107.0 85.2,106.6 86.6,106.5 88.0,106.3 89.4,106.0 90.8,105.4 92.1,105.3 93.5,105.2 94.9,105.0 96.3,104.6 97.7,104.3 99.1,103.9 100.4,103.6 101.8,103.2 103.2,103.1 104.6,102.9 106.0,102.5 107.3,102.1 108.7,101.8 110.1,101.7 111.5,101.5 112.9,101.3 114.2,100.8 115.6,100.4 117.0,100.1 118.4,99.7 119.8,99.5 121.2,99.4 122.5,99.2 123.9,98.9 125.3,98.7 126.7,98.6 128.1,98.4 129.4,98.3 130.8,98.1 132.2,97.9 133.6,97.9 135.0,97.8 136.3,97.4 137.7,97.1 139.1,97.1 140.5,96.9 141.9,96.8 143.2,96.8 144.6,103.5 146.0,102.8 147.4,102.2 148.8,101.6 150.2,99.8 151.5,98.5 152.9,97.2 154.3,96.7 155.7,96.1 157.1,95.2 158.4,94.2 159.8,93.4 161.2,93.2 162.6,92.9 164.0,92.2 165.3,91.6 166.7,91.3 168.1,90.9 169.5,90.7 170.9,90.6 172.3,90.2 173.6,89.6 175.0,89.2 176.4,88.7 177.8,88.2 179.2,88.0 180.5,87.8 181.9,87.4 183.3,87.0 184.7,86.6 186.1,86.4 187.4,86.2 188.8,86.1 190.2,85.9 191.6,85.6 193.0,85.3 194.3,85.1 195.7,84.9 197.1,84.7 198.5,84.5 199.9,84.4 201.3,84.2 202.6,84.0 204.0,83.7 205.4,83.4 206.8,83.1 208.2,83.0 209.5,82.8 210.9,82.6 212.3,82.5 213.7,82.3 215.1,81.9 216.4,81.5 217.8,81.1 219.2,81.0 220.6,80.9 222.0,80.7 223.4,80.5 224.7,80.3 226.1,80.1 227.5,79.8 228.9,79.6 230.3,79.5 231.6,79.3 233.0,79.2 234.4,79.1 235.8,78.9 237.2,78.7 238.5,78.4 239.9,78.3 241.3,78.2 242.7,78.1 244.1,78.0 245.4,77.7 246.8,77.5 248.2,77.3 249.6,77.1 251.0,76.9 252.4,76.7 253.7,76.6 255.1,76.5 256.5,76.2 257.9,75.9 259.3,75.7 260.6,75.5 262.0,75.1 263.4,75.1 264.8,74.9 266.2,74.8 267.5,74.7 268.9,74.5 270.3,74.3 271.7,74.2 273.1,74.0 274.5,73.8 275.8,73.7 277.2,73.6 278.6,73.5 280.0,73.3 281.4,73.0 282.7,72.9 284.1,72.7 285.5,72.6 286.9,72.5 288.3,72.3 289.6,72.2 291.0,72.1 292.4,71.9 293.8,71.6 295.2,71.3 296.5,71.1 297.9,71.0 299.3,70.9 300.7,70.8 302.1,70.6 303.5,70.4 304.8,70.2 306.2,70.1 307.6,70.0 309.0,69.8 310.4,69.6 311.7,69.5 313.1,69.4 314.5,69.2 315.9,69.0 317.3,68.8 318.6,68.6 320.0,68.5 321.4,68.4 322.8,68.3 324.2,68.2 325.5,68.0 326.9,67.9 328.3,67.7 329.7,67.5 331.1,67.4 332.5,67.3 333.8,67.2 335.2,67.0 336.6,66.8 338.0,66.6 339.4,66.4 340.7,66.3 342.1,66.2 343.5,66.1 344.9,66.0 346.3,65.9 347.6,65.8 349.0,65.6 350.4,65.4 351.8,65.3 353.2,65.1 354.6,65.0 355.9,64.9 357.3,64.7 358.7,64.5 360.1,64.4 361.5,64.3 362.8,64.2 364.2,64.0 365.6,63.9 367.0,63.7 368.4,63.6 369.7,63.5 371.1,63.4 372.5,63.3 373.9,63.2 375.3,63.0 376.6,63.0 378.0,62.9 379.4,62.5 380.8,62.3 382.2,66.7 383.6,65.8 384.9,64.2 386.3,63.6 387.7,62.8 389.1,61.9 390.5,61.4 391.8,61.0 393.2,60.4 394.6,59.5 396.0,58.7 397.4,58.5 398.7,58.2 400.1,57.9 401.5,57.4 402.9,56.9 404.3,56.4 405.7,56.2 407.0,55.7 408.4,55.5 409.8,55.1 411.2,54.9 412.6,54.7 413.9,54.4 415.3,54.0 416.7,53.6 418.1,53.2 419.5,52.6 420.8,52.3 422.2,52.1 423.6,51.9 425.0,51.7 426.4,51.3 427.7,50.9 429.1,50.6 430.5,49.8 431.9,49.1 433.3,48.8 434.7,48.6 436.0,48.3 437.4,47.8 438.8,47.4 440.2,46.9 441.6,46.6 442.9,46.3 444.3,46.0 445.7,45.5 447.1,45.3 448.5,45.2 449.8,45.0 451.2,44.8 452.6,44.5 454.0,44.4 455.4,44.1 456.8,43.9 458.1,43.8 459.5,43.5 460.9,43.3 462.3,43.1 463.7,43.0 465.0,42.8 466.4,42.6 467.8,42.5 469.2,42.3 470.6,42.2 471.9,42.1 473.3,41.9 474.7,41.8 476.1,41.6 477.5,41.4 478.8,41.2 480.2,41.0 481.6,40.8 483.0,40.7 484.4,40.6 485.8,40.5 487.1,40.3 488.5,40.2 489.9,40.1 491.3,39.9 492.7,39.7 494.0,39.6 495.4,39.3 496.8,39.1 498.2,39.0 499.6,38.7 500.9,38.5 502.3,38.4 503.7,38.1 505.1,37.9 506.5,37.7 507.9,37.5 509.2,37.2 510.6,37.0 512.0,36.8 513.4,36.5 514.8,36.4 516.1,36.3 517.5,36.2 518.9,36.0 520.3,35.9 521.7,35.7 523.0,35.5 524.4,35.3 525.8,35.1 527.2,34.9 528.6,34.6 529.9,34.4 531.3,34.1 532.7,34.0 534.1,33.8 535.5,33.7 536.9,33.6 538.2,33.4 539.6,33.3 541.0,33.0 542.4,32.9 543.8,32.6 545.1,32.5 546.5,32.3 547.9,32.2 549.3,32.0 550.7,32.0 552.0,31.9 553.4,31.7 554.8,31.6 556.2,31.5 557.6,31.3 559.0,31.1 560.3,30.9 561.7,30.8 563.1,30.7 564.5,30.5 565.9,30.4 567.2,30.2 568.6,30.1 570.0,30.0" />
  
  <!-- Punto finale luminoso -->
  <circle cx="570.0" cy="30.0" r="4" fill="#ffffff" stroke="#0366d6" stroke-width="2.5" />
</svg>