<svg width="600" height="150" viewBox="0 0 600 150" xmlns="http://www.w3.org/2000/svg">
  <defs>
    <filter id="shadow2" x="-2%" y="-2%" width="104%" height="108%">
      <feDropShadow dx="0" dy="2" stdDeviation="3" flood-opacity="0.1" />
    </filter>
    <linearGradient id="fillGrad" x1="0" y1="0" x2="0" y2="1">
      <stop offset="0%" stop-color="#0366d6" stop-opacity="0.3"/>
      <stop offset="100%" stop-color="#0366d6" stop-opacity="0.02"/>
    </linearGradient>
  </defs>
  <rect width="600" height="150" rx="12" fill="#ffffff" filter="url(#shadow2)" stroke="#e1e4e8" stroke-width="1"/>
  <text x="20" y="24" fill="#2b3137" font-family="-apple-system,BlinkMacSystemFont,'Segoe UI',Helvetica,Arial,sans-serif" font-size="14" font-weight="600">📈 Download Growth (Actual: 84.3k)</text>
  
  <!-- Area sotto la linea -->
  <polygon fill="url(#fillGrad)" points="30.0,120.0,120 30.0,120.0 31.6,119.4 33.2,118.8 34.8,118.2 36.4,118.1 38.0,117.8 39.6,117.1 41.2,116.7 42.8,116.4 44.4,115.7 46.0,115.4 47.6,115.0 49.2,114.8 50.8,114.5 52.4,114.0 54.0,113.5 55.6,113.2 57.2,112.9 58.8,112.7 60.4,112.4 62.0,112.0 63.6,111.7 65.1,111.6 66.7,111.3 68.3,110.2 69.9,109.8 71.5,109.4 73.1,109.0 74.7,108.6 76.3,108.2 77.9,108.0 79.5,107.8 81.1,107.5 82.7,107.0 84.3,106.5 85.9,106.2 87.5,105.9 89.1,105.8 90.7,105.7 92.3,105.5 93.9,105.1 95.5,104.9 97.1,104.8 98.7,104.4 100.3,103.8 101.9,103.7 103.5,103.5 105.1,103.3 106.7,102.8 108.3,102.5 109.9,102.1 111.5,101.7 113.1,101.3 114.7,101.2 116.3,100.9 117.9,100.5 119.5,100.1 121.1,99.7 122.7,99.6 124.3,99.4 125.9,99.2 127.5,98.7 129.1,98.2 130.7,97.8 132.2,97.4 133.8,97.2 135.4,97.1 137.0,96.9 138.6,96.6 140.2,96.4 141.8,96.2 143.4,96.0 145.0,95.9 146.6,95.6 148.2,95.5 149.8,95.4 151.4,95.2 153.0,94.8 154.6,94.6 156.2,94.5 157.8,94.3 159.4,94.2 161.0,94.2 162.6,101.6 164.2,100.9 165.8,100.2 167.4,99.5 169.0,97.5 170.6,96.1 172.2,94.6 173.8,94.1 175.4,93.4 177.0,92.4 178.6,91.3 180.2,90.4 181.8,90.1 183.4,89.8 185.0,89.0 186.6,88.4 188.2,88.1 189.8,87.6 191.4,87.4 193.0,87.3 194.6,86.9 196.2,86.2 197.8,85.7 199.3,85.2 200.9,84.7 202.5,84.4 204.1,84.2 205.7,83.7 207.3,83.3 208.9,82.9 210.5,82.6 212.1,82.4 213.7,82.3 215.3,82.1 216.9,81.7 218.5,81.4 220.1,81.2 221.7,81.0 223.3,80.7 224.9,80.5 226.5,80.3 228.1,80.2 229.7,80.0 231.3,79.6 232.9,79.3 234.5,79.0 236.1,78.8 237.7,78.6 239.3,78.4 240.9,78.3 242.5,78.1 244.1,77.6 245.7,77.2 247.3,76.8 248.9,76.6 250.5,76.5 252.1,76.3 253.7,76.1 255.3,75.8 256.9,75.6 258.5,75.2 260.1,75.0 261.7,74.9 263.3,74.7 264.9,74.6 266.4,74.4 268.0,74.2 269.6,74.1 271.2,73.7 272.8,73.6 274.4,73.5 276.0,73.3 277.6,73.2 279.2,72.9 280.8,72.7 282.4,72.5 284.0,72.2 285.6,72.0 287.2,71.8 288.8,71.7 290.4,71.6 292.0,71.2 293.6,70.9 295.2,70.7 296.8,70.5 298.4,70.1 300.0,70.0 301.6,69.9 303.2,69.7 304.8,69.5 306.4,69.4 308.0,69.1 309.6,69.0 311.2,68.8 312.8,68.6 314.4,68.5 316.0,68.3 317.6,68.2 319.2,68.0 320.8,67.7 322.4,67.6 324.0,67.4 325.6,67.3 327.2,67.1 328.8,66.9 330.4,66.8 332.0,66.7 333.6,66.5 335.1,66.2 336.7,65.8 338.3,65.6 339.9,65.4 341.5,65.4 343.1,65.3 344.7,65.1 346.3,64.8 347.9,64.6 349.5,64.5 351.1,64.3 352.7,64.1 354.3,63.9 355.9,63.8 357.5,63.7 359.1,63.4 360.7,63.2 362.3,63.0 363.9,62.8 365.5,62.7 367.1,62.6 368.7,62.5 370.3,62.3 371.9,62.2 373.5,62.0 375.1,61.8 376.7,61.6 378.3,61.5 379.9,61.4 381.5,61.2 383.1,61.1 384.7,60.8 386.3,60.6 387.9,60.4 389.5,60.2 391.1,60.1 392.7,60.0 394.3,59.9 395.9,59.8 397.5,59.7 399.1,59.5 400.7,59.2 402.2,59.1 403.8,58.9 405.4,58.8 407.0,58.7 408.6,58.5 410.2,58.3 411.8,58.2 413.4,58.0 415.0,57.9 416.6,57.7 418.2,57.5 419.8,57.3 421.4,57.3 423.0,57.2 424.6,57.0 426.2,56.9 427.8,56.8 429.4,56.6 431.0,56.6 432.6,56.4 434.2,56.1 435.8,55.8 437.4,60.7 439.0,59.7 440.6,57.9 442.2,57.2 443.8,56.4 445.4,55.3 447.0,54.8 448.6,54.4 450.2,53.7 451.8,52.6 453.4,51.8 455.0,51.6 456.6,51.2 458.2,50.9 459.8,50.4 461.4,49.8 463.0,49.3 464.6,49.0 466.2,48.4 467.8,48.2 469.3,47.8 470.9,47.6 472.5,47.3 474.1,47.0 475.7,46.5 477.3,46.2 478.9,45.7 480.5,45.0 482.1,44.6 483.7,44.4 485.3,44.2 486.9,44.0 488.5,43.5 490.1,43.1 491.7,42.8 493.3,41.8 494.9,41.1 496.5,40.7 498.1,40.5 499.7,40.2 501.3,39.7 502.9,39.3 504.5,38.7 506.1,38.3 507.7,37.9 509.3,37.6 510.9,37.2 512.5,36.9 514.1,36.7 515.7,36.5 517.3,36.3 518.9,36.0 520.5,35.9 522.1,35.6 523.7,35.4 525.3,35.2 526.9,34.9 528.5,34.7 530.1,34.5 531.7,34.3 533.3,34.1 534.9,33.9 536.4,33.8 538.0,33.6 539.6,33.4 541.2,33.3 542.8,33.1 544.4,32.9 546.0,32.7 547.6,32.5 549.2,32.3 550.8,32.1 552.4,31.9 554.0,31.8 555.6,31.7 557.2,31.5 558.8,31.3 560.4,31.2 562.0,31.1 563.6,30.9 565.2,30.7 566.8,30.5 568.4,30.2 570.0,30.0 570.0,30.0,120" />
  
  <!-- Linea principale -->
  <polyline fill="none" stroke="#0366d6" stroke-width="2.5" stroke-linecap="round" stroke-linejoin="round" points="30.0,120.0 31.6,119.4 33.2,118.8 34.8,118.2 36.4,118.1 38.0,117.8 39.6,117.1 41.2,116.7 42.8,116.4 44.4,115.7 46.0,115.4 47.6,115.0 49.2,114.8 50.8,114.5 52.4,114.0 54.0,113.5 55.6,113.2 57.2,112.9 58.8,112.7 60.4,112.4 62.0,112.0 63.6,111.7 65.1,111.6 66.7,111.3 68.3,110.2 69.9,109.8 71.5,109.4 73.1,109.0 74.7,108.6 76.3,108.2 77.9,108.0 79.5,107.8 81.1,107.5 82.7,107.0 84.3,106.5 85.9,106.2 87.5,105.9 89.1,105.8 90.7,105.7 92.3,105.5 93.9,105.1 95.5,104.9 97.1,104.8 98.7,104.4 100.3,103.8 101.9,103.7 103.5,103.5 105.1,103.3 106.7,102.8 108.3,102.5 109.9,102.1 111.5,101.7 113.1,101.3 114.7,101.2 116.3,100.9 117.9,100.5 119.5,100.1 121.1,99.7 122.7,99.6 124.3,99.4 125.9,99.2 127.5,98.7 129.1,98.2 130.7,97.8 132.2,97.4 133.8,97.2 135.4,97.1 137.0,96.9 138.6,96.6 140.2,96.4 141.8,96.2 143.4,96.0 145.0,95.9 146.6,95.6 148.2,95.5 149.8,95.4 151.4,95.2 153.0,94.8 154.6,94.6 156.2,94.5 157.8,94.3 159.4,94.2 161.0,94.2 162.6,101.6 164.2,100.9 165.8,100.2 167.4,99.5 169.0,97.5 170.6,96.1 172.2,94.6 173.8,94.1 175.4,93.4 177.0,92.4 178.6,91.3 180.2,90.4 181.8,90.1 183.4,89.8 185.0,89.0 186.6,88.4 188.2,88.1 189.8,87.6 191.4,87.4 193.0,87.3 194.6,86.9 196.2,86.2 197.8,85.7 199.3,85.2 200.9,84.7 202.5,84.4 204.1,84.2 205.7,83.7 207.3,83.3 208.9,82.9 210.5,82.6 212.1,82.4 213.7,82.3 215.3,82.1 216.9,81.7 218.5,81.4 220.1,81.2 221.7,81.0 223.3,80.7 224.9,80.5 226.5,80.3 228.1,80.2 229.7,80.0 231.3,79.6 232.9,79.3 234.5,79.0 236.1,78.8 237.7,78.6 239.3,78.4 240.9,78.3 242.5,78.1 244.1,77.6 245.7,77.2 247.3,76.8 248.9,76.6 250.5,76.5 252.1,76.3 253.7,76.1 255.3,75.8 256.9,75.6 258.5,75.2 260.1,75.0 261.7,74.9 263.3,74.7 264.9,74.6 266.4,74.4 268.0,74.2 269.6,74.1 271.2,73.7 272.8,73.6 274.4,73.5 276.0,73.3 277.6,73.2 279.2,72.9 280.8,72.7 282.4,72.5 284.0,72.2 285.6,72.0 287.2,71.8 288.8,71.7 290.4,71.6 292.0,71.2 293.6,70.9 295.2,70.7 296.8,70.5 298.4,70.1 300.0,70.0 301.6,69.9 303.2,69.7 304.8,69.5 306.4,69.4 308.0,69.1 309.6,69.0 311.2,68.8 312.8,68.6 314.4,68.5 316.0,68.3 317.6,68.2 319.2,68.0 320.8,67.7 322.4,67.6 324.0,67.4 325.6,67.3 327.2,67.1 328.8,66.9 330.4,66.8 332.0,66.7 333.6,66.5 335.1,66.2 336.7,65.8 338.3,65.6 339.9,65.4 341.5,65.4 343.1,65.3 344.7,65.1 346.3,64.8 347.9,64.6 349.5,64.5 351.1,64.3 352.7,64.1 354.3,63.9 355.9,63.8 357.5,63.7 359.1,63.4 360.7,63.2 362.3,63.0 363.9,62.8 365.5,62.7 367.1,62.6 368.7,62.5 370.3,62.3 371.9,62.2 373.5,62.0 375.1,61.8 376.7,61.6 378.3,61.5 379.9,61.4 381.5,61.2 383.1,61.1 384.7,60.8 386.3,60.6 387.9,60.4 389.5,60.2 391.1,60.1 392.7,60.0 394.3,59.9 395.9,59.8 397.5,59.7 399.1,59.5 400.7,59.2 402.2,59.1 403.8,58.9 405.4,58.8 407.0,58.7 408.6,58.5 410.2,58.3 411.8,58.2 413.4,58.0 415.0,57.9 416.6,57.7 418.2,57.5 419.8,57.3 421.4,57.3 423.0,57.2 424.6,57.0 426.2,56.9 427.8,56.8 429.4,56.6 431.0,56.6 432.6,56.4 434.2,56.1 435.8,55.8 437.4,60.7 439.0,59.7 440.6,57.9 442.2,57.2 443.8,56.4 445.4,55.3 447.0,54.8 448.6,54.4 450.2,53.7 451.8,52.6 453.4,51.8 455.0,51.6 456.6,51.2 458.2,50.9 459.8,50.4 461.4,49.8 463.0,49.3 464.6,49.0 466.2,48.4 467.8,48.2 469.3,47.8 470.9,47.6 472.5,47.3 474.1,47.0 475.7,46.5 477.3,46.2 478.9,45.7 480.5,45.0 482.1,44.6 483.7,44.4 485.3,44.2 486.9,44.0 488.5,43.5 490.1,43.1 491.7,42.8 493.3,41.8 494.9,41.1 496.5,40.7 498.1,40.5 499.7,40.2 501.3,39.7 502.9,39.3 504.5,38.7 506.1,38.3 507.7,37.9 509.3,37.6 510.9,37.2 512.5,36.9 514.1,36.7 515.7,36.5 517.3,36.3 518.9,36.0 520.5,35.9 522.1,35.6 523.7,35.4 525.3,35.2 526.9,34.9 528.5,34.7 530.1,34.5 531.7,34.3 533.3,34.1 534.9,33.9 536.4,33.8 538.0,33.6 539.6,33.4 541.2,33.3 542.8,33.1 544.4,32.9 546.0,32.7 547.6,32.5 549.2,32.3 550.8,32.1 552.4,31.9 554.0,31.8 555.6,31.7 557.2,31.5 558.8,31.3 560.4,31.2 562.0,31.1 563.6,30.9 565.2,30.7 566.8,30.5 568.4,30.2 570.0,30.0" />
  
  <!-- Punto finale luminoso -->
  <circle cx="570.0" cy="30.0" r="4" fill="#ffffff" stroke="#0366d6" stroke-width="2.5" />
</svg>