<svg width="600" height="150" viewBox="0 0 600 150" xmlns="http://www.w3.org/2000/svg">
  <defs>
    <filter id="shadow2" x="-2%" y="-2%" width="104%" height="108%">
      <feDropShadow dx="0" dy="2" stdDeviation="3" flood-opacity="0.1" />
    </filter>
    <linearGradient id="fillGrad" x1="0" y1="0" x2="0" y2="1">
      <stop offset="0%" stop-color="#0366d6" stop-opacity="0.3"/>
      <stop offset="100%" stop-color="#0366d6" stop-opacity="0.02"/>
    </linearGradient>
  </defs>
  <rect width="600" height="150" rx="12" fill="#ffffff" filter="url(#shadow2)" stroke="#e1e4e8" stroke-width="1"/>
  <text x="20" y="24" fill="#2b3137" font-family="-apple-system,BlinkMacSystemFont,'Segoe UI',Helvetica,Arial,sans-serif" font-size="14" font-weight="600">📈 Download Growth (Actual: 85.5k)</text>
  
  <!-- Area sotto la linea -->
  <polygon fill="url(#fillGrad)" points="30.0,120.0,120 30.0,120.0 31.5,119.5 32.9,118.9 34.4,118.4 35.9,118.2 37.3,118.0 38.8,117.3 40.3,116.9 41.7,116.6 43.2,116.0 44.7,115.7 46.1,115.3 47.6,115.2 49.1,114.9 50.5,114.4 52.0,114.0 53.5,113.6 54.9,113.4 56.4,113.2 57.9,112.9 59.3,112.6 60.8,112.3 62.3,112.1 63.8,111.8 65.2,110.8 66.7,110.5 68.2,110.1 69.6,109.7 71.1,109.4 72.6,109.0 74.0,108.8 75.5,108.6 77.0,108.3 78.4,107.8 79.9,107.4 81.4,107.1 82.8,106.8 84.3,106.7 85.8,106.6 87.2,106.4 88.7,106.1 90.2,105.9 91.6,105.8 93.1,105.4 94.6,104.9 96.0,104.7 97.5,104.6 99.0,104.4 100.4,104.0 101.9,103.7 103.4,103.2 104.8,102.9 106.3,102.5 107.8,102.4 109.2,102.2 110.7,101.8 112.2,101.4 113.6,101.1 115.1,100.9 116.6,100.7 118.0,100.5 119.5,100.1 121.0,99.6 122.4,99.3 123.9,98.9 125.4,98.7 126.8,98.6 128.3,98.4 129.8,98.1 131.2,97.9 132.7,97.7 134.2,97.6 135.7,97.4 137.1,97.2 138.6,97.1 140.1,97.0 141.5,96.9 143.0,96.5 144.5,96.2 145.9,96.1 147.4,96.0 148.9,95.9 150.3,95.9 151.8,102.8 153.3,102.1 154.7,101.5 156.2,100.9 157.7,99.0 159.1,97.7 160.6,96.3 162.1,95.8 163.5,95.2 165.0,94.2 166.5,93.2 167.9,92.4 169.4,92.1 170.9,91.8 172.3,91.1 173.8,90.5 175.3,90.2 176.7,89.7 178.2,89.5 179.7,89.5 181.1,89.1 182.6,88.4 184.1,88.0 185.5,87.5 187.0,87.0 188.5,86.7 189.9,86.5 191.4,86.1 192.9,85.7 194.3,85.3 195.8,85.0 197.3,84.9 198.8,84.8 200.2,84.5 201.7,84.2 203.2,84.0 204.6,83.7 206.1,83.5 207.6,83.3 209.0,83.1 210.5,82.9 212.0,82.8 213.4,82.6 214.9,82.2 216.4,82.0 217.8,81.7 219.3,81.5 220.8,81.3 222.2,81.2 223.7,81.0 225.2,80.8 226.6,80.3 228.1,80.0 229.6,79.6 231.0,79.4 232.5,79.4 234.0,79.2 235.4,79.0 236.9,78.7 238.4,78.5 239.8,78.2 241.3,78.0 242.8,77.9 244.2,77.7 245.7,77.6 247.2,77.4 248.6,77.2 250.1,77.1 251.6,76.8 253.0,76.6 254.5,76.5 256.0,76.4 257.4,76.3 258.9,76.0 260.4,75.8 261.8,75.6 263.3,75.4 264.8,75.2 266.2,75.0 267.7,74.9 269.2,74.7 270.7,74.4 272.1,74.2 273.6,73.9 275.1,73.7 276.5,73.4 278.0,73.3 279.5,73.1 280.9,73.0 282.4,72.9 283.9,72.7 285.3,72.5 286.8,72.3 288.3,72.2 289.7,72.0 291.2,71.8 292.7,71.7 294.1,71.6 295.6,71.4 297.1,71.2 298.5,71.0 300.0,70.8 301.5,70.7 302.9,70.6 304.4,70.4 305.9,70.3 307.3,70.2 308.8,70.0 310.3,69.7 311.7,69.4 313.2,69.2 314.7,69.0 316.1,69.0 317.6,68.9 319.1,68.7 320.5,68.4 322.0,68.3 323.5,68.2 324.9,68.0 326.4,67.8 327.9,67.6 329.3,67.5 330.8,67.4 332.3,67.1 333.8,67.0 335.2,66.7 336.7,66.5 338.2,66.4 339.6,66.4 341.1,66.3 342.6,66.1 344.0,66.0 345.5,65.8 347.0,65.6 348.4,65.4 349.9,65.3 351.4,65.2 352.8,65.1 354.3,64.9 355.8,64.7 357.2,64.5 358.7,64.3 360.2,64.1 361.6,64.0 363.1,63.9 364.6,63.8 366.0,63.7 367.5,63.6 369.0,63.5 370.4,63.2 371.9,63.1 373.4,62.9 374.8,62.8 376.3,62.7 377.8,62.5 379.2,62.3 380.7,62.2 382.2,62.1 383.6,62.0 385.1,61.8 386.6,61.6 388.0,61.5 389.5,61.4 391.0,61.3 392.4,61.2 393.9,61.0 395.4,60.9 396.8,60.8 398.3,60.7 399.8,60.6 401.2,60.3 402.7,60.0 404.2,64.5 405.7,63.7 407.1,62.0 408.6,61.3 410.1,60.5 411.5,59.6 413.0,59.0 414.5,58.7 415.9,58.0 417.4,57.1 418.9,56.3 420.3,56.1 421.8,55.7 423.3,55.4 424.7,54.9 426.2,54.4 427.7,53.9 429.1,53.6 430.6,53.1 432.1,52.9 433.5,52.5 435.0,52.3 436.5,52.1 437.9,51.8 439.4,51.3 440.9,51.0 442.3,50.5 443.8,49.9 445.3,49.6 446.7,49.4 448.2,49.2 449.7,48.9 451.1,48.5 452.6,48.2 454.1,47.9 455.5,47.0 457.0,46.3 458.5,45.9 459.9,45.7 461.4,45.4 462.9,45.0 464.3,44.6 465.8,44.0 467.3,43.7 468.8,43.3 470.2,43.0 471.7,42.6 473.2,42.4 474.6,42.2 476.1,42.0 477.6,41.8 479.0,41.5 480.5,41.4 482.0,41.1 483.4,40.9 484.9,40.8 486.4,40.5 487.8,40.3 489.3,40.1 490.8,39.9 492.2,39.7 493.7,39.6 495.2,39.4 496.6,39.3 498.1,39.1 499.6,39.0 501.0,38.8 502.5,38.6 504.0,38.4 505.4,38.2 506.9,38.0 508.4,37.9 509.8,37.7 511.3,37.6 512.8,37.4 514.2,37.3 515.7,37.1 517.2,37.0 518.6,36.9 520.1,36.7 521.6,36.5 523.0,36.4 524.5,36.1 526.0,35.9 527.4,35.8 528.9,35.5 530.4,35.3 531.8,35.1 533.3,34.9 534.8,34.6 536.2,34.4 537.7,34.2 539.2,33.9 540.7,33.7 542.1,33.4 543.6,33.2 545.1,33.1 546.5,32.9 548.0,32.8 549.5,32.7 550.9,32.5 552.4,32.3 553.9,32.2 555.3,32.0 556.8,31.7 558.3,31.5 559.7,31.2 561.2,31.0 562.7,30.7 564.1,30.6 565.6,30.4 567.1,30.3 568.5,30.2 570.0,30.0 570.0,30.0,120" />
  
  <!-- Linea principale -->
  <polyline fill="none" stroke="#0366d6" stroke-width="2.5" stroke-linecap="round" stroke-linejoin="round" points="30.0,120.0 31.5,119.5 32.9,118.9 34.4,118.4 35.9,118.2 37.3,118.0 38.8,117.3 40.3,116.9 41.7,116.6 43.2,116.0 44.7,115.7 46.1,115.3 47.6,115.2 49.1,114.9 50.5,114.4 52.0,114.0 53.5,113.6 54.9,113.4 56.4,113.2 57.9,112.9 59.3,112.6 60.8,112.3 62.3,112.1 63.8,111.8 65.2,110.8 66.7,110.5 68.2,110.1 69.6,109.7 71.1,109.4 72.6,109.0 74.0,108.8 75.5,108.6 77.0,108.3 78.4,107.8 79.9,107.4 81.4,107.1 82.8,106.8 84.3,106.7 85.8,106.6 87.2,106.4 88.7,106.1 90.2,105.9 91.6,105.8 93.1,105.4 94.6,104.9 96.0,104.7 97.5,104.6 99.0,104.4 100.4,104.0 101.9,103.7 103.4,103.2 104.8,102.9 106.3,102.5 107.8,102.4 109.2,102.2 110.7,101.8 112.2,101.4 113.6,101.1 115.1,100.9 116.6,100.7 118.0,100.5 119.5,100.1 121.0,99.6 122.4,99.3 123.9,98.9 125.4,98.7 126.8,98.6 128.3,98.4 129.8,98.1 131.2,97.9 132.7,97.7 134.2,97.6 135.7,97.4 137.1,97.2 138.6,97.1 140.1,97.0 141.5,96.9 143.0,96.5 144.5,96.2 145.9,96.1 147.4,96.0 148.9,95.9 150.3,95.9 151.8,102.8 153.3,102.1 154.7,101.5 156.2,100.9 157.7,99.0 159.1,97.7 160.6,96.3 162.1,95.8 163.5,95.2 165.0,94.2 166.5,93.2 167.9,92.4 169.4,92.1 170.9,91.8 172.3,91.1 173.8,90.5 175.3,90.2 176.7,89.7 178.2,89.5 179.7,89.5 181.1,89.1 182.6,88.4 184.1,88.0 185.5,87.5 187.0,87.0 188.5,86.7 189.9,86.5 191.4,86.1 192.9,85.7 194.3,85.3 195.8,85.0 197.3,84.9 198.8,84.8 200.2,84.5 201.7,84.2 203.2,84.0 204.6,83.7 206.1,83.5 207.6,83.3 209.0,83.1 210.5,82.9 212.0,82.8 213.4,82.6 214.9,82.2 216.4,82.0 217.8,81.7 219.3,81.5 220.8,81.3 222.2,81.2 223.7,81.0 225.2,80.8 226.6,80.3 228.1,80.0 229.6,79.6 231.0,79.4 232.5,79.4 234.0,79.2 235.4,79.0 236.9,78.7 238.4,78.5 239.8,78.2 241.3,78.0 242.8,77.9 244.2,77.7 245.7,77.6 247.2,77.4 248.6,77.2 250.1,77.1 251.6,76.8 253.0,76.6 254.5,76.5 256.0,76.4 257.4,76.3 258.9,76.0 260.4,75.8 261.8,75.6 263.3,75.4 264.8,75.2 266.2,75.0 267.7,74.9 269.2,74.7 270.7,74.4 272.1,74.2 273.6,73.9 275.1,73.7 276.5,73.4 278.0,73.3 279.5,73.1 280.9,73.0 282.4,72.9 283.9,72.7 285.3,72.5 286.8,72.3 288.3,72.2 289.7,72.0 291.2,71.8 292.7,71.7 294.1,71.6 295.6,71.4 297.1,71.2 298.5,71.0 300.0,70.8 301.5,70.7 302.9,70.6 304.4,70.4 305.9,70.3 307.3,70.2 308.8,70.0 310.3,69.7 311.7,69.4 313.2,69.2 314.7,69.0 316.1,69.0 317.6,68.9 319.1,68.7 320.5,68.4 322.0,68.3 323.5,68.2 324.9,68.0 326.4,67.8 327.9,67.6 329.3,67.5 330.8,67.4 332.3,67.1 333.8,67.0 335.2,66.7 336.7,66.5 338.2,66.4 339.6,66.4 341.1,66.3 342.6,66.1 344.0,66.0 345.5,65.8 347.0,65.6 348.4,65.4 349.9,65.3 351.4,65.2 352.8,65.1 354.3,64.9 355.8,64.7 357.2,64.5 358.7,64.3 360.2,64.1 361.6,64.0 363.1,63.9 364.6,63.8 366.0,63.7 367.5,63.6 369.0,63.5 370.4,63.2 371.9,63.1 373.4,62.9 374.8,62.8 376.3,62.7 377.8,62.5 379.2,62.3 380.7,62.2 382.2,62.1 383.6,62.0 385.1,61.8 386.6,61.6 388.0,61.5 389.5,61.4 391.0,61.3 392.4,61.2 393.9,61.0 395.4,60.9 396.8,60.8 398.3,60.7 399.8,60.6 401.2,60.3 402.7,60.0 404.2,64.5 405.7,63.7 407.1,62.0 408.6,61.3 410.1,60.5 411.5,59.6 413.0,59.0 414.5,58.7 415.9,58.0 417.4,57.1 418.9,56.3 420.3,56.1 421.8,55.7 423.3,55.4 424.7,54.9 426.2,54.4 427.7,53.9 429.1,53.6 430.6,53.1 432.1,52.9 433.5,52.5 435.0,52.3 436.5,52.1 437.9,51.8 439.4,51.3 440.9,51.0 442.3,50.5 443.8,49.9 445.3,49.6 446.7,49.4 448.2,49.2 449.7,48.9 451.1,48.5 452.6,48.2 454.1,47.9 455.5,47.0 457.0,46.3 458.5,45.9 459.9,45.7 461.4,45.4 462.9,45.0 464.3,44.6 465.8,44.0 467.3,43.7 468.8,43.3 470.2,43.0 471.7,42.6 473.2,42.4 474.6,42.2 476.1,42.0 477.6,41.8 479.0,41.5 480.5,41.4 482.0,41.1 483.4,40.9 484.9,40.8 486.4,40.5 487.8,40.3 489.3,40.1 490.8,39.9 492.2,39.7 493.7,39.6 495.2,39.4 496.6,39.3 498.1,39.1 499.6,39.0 501.0,38.8 502.5,38.6 504.0,38.4 505.4,38.2 506.9,38.0 508.4,37.9 509.8,37.7 511.3,37.6 512.8,37.4 514.2,37.3 515.7,37.1 517.2,37.0 518.6,36.9 520.1,36.7 521.6,36.5 523.0,36.4 524.5,36.1 526.0,35.9 527.4,35.8 528.9,35.5 530.4,35.3 531.8,35.1 533.3,34.9 534.8,34.6 536.2,34.4 537.7,34.2 539.2,33.9 540.7,33.7 542.1,33.4 543.6,33.2 545.1,33.1 546.5,32.9 548.0,32.8 549.5,32.7 550.9,32.5 552.4,32.3 553.9,32.2 555.3,32.0 556.8,31.7 558.3,31.5 559.7,31.2 561.2,31.0 562.7,30.7 564.1,30.6 565.6,30.4 567.1,30.3 568.5,30.2 570.0,30.0" />
  
  <!-- Punto finale luminoso -->
  <circle cx="570.0" cy="30.0" r="4" fill="#ffffff" stroke="#0366d6" stroke-width="2.5" />
</svg>