<svg width="600" height="150" viewBox="0 0 600 150" xmlns="http://www.w3.org/2000/svg">
  <defs>
    <filter id="shadow2" x="-2%" y="-2%" width="104%" height="108%">
      <feDropShadow dx="0" dy="2" stdDeviation="3" flood-opacity="0.1" />
    </filter>
    <linearGradient id="fillGrad" x1="0" y1="0" x2="0" y2="1">
      <stop offset="0%" stop-color="#0366d6" stop-opacity="0.3"/>
      <stop offset="100%" stop-color="#0366d6" stop-opacity="0.02"/>
    </linearGradient>
  </defs>
  <rect width="600" height="150" rx="12" fill="#ffffff" filter="url(#shadow2)" stroke="#e1e4e8" stroke-width="1"/>
  <text x="20" y="24" fill="#2b3137" font-family="-apple-system,BlinkMacSystemFont,'Segoe UI',Helvetica,Arial,sans-serif" font-size="14" font-weight="600">📈 Download Growth (Actual: 85.3k)</text>
  
  <!-- Area sotto la linea -->
  <polygon fill="url(#fillGrad)" points="30.0,120.0,120 30.0,120.0 31.5,119.5 33.0,118.9 34.5,118.3 36.0,118.2 37.5,117.9 39.0,117.3 40.5,116.9 42.0,116.6 43.5,115.9 45.0,115.6 46.5,115.3 48.0,115.1 49.4,114.8 50.9,114.3 52.4,113.9 53.9,113.5 55.4,113.3 56.9,113.1 58.4,112.8 59.9,112.5 61.4,112.2 62.9,112.0 64.4,111.7 65.9,110.7 67.4,110.4 68.9,110.0 70.4,109.6 71.9,109.2 73.4,108.9 74.9,108.6 76.4,108.5 77.9,108.2 79.4,107.7 80.9,107.3 82.4,107.0 83.9,106.6 85.3,106.5 86.8,106.4 88.3,106.3 89.8,105.9 91.3,105.7 92.8,105.6 94.3,105.2 95.8,104.6 97.3,104.5 98.8,104.4 100.3,104.2 101.8,103.8 103.3,103.5 104.8,103.0 106.3,102.7 107.8,102.3 109.3,102.2 110.8,101.9 112.3,101.5 113.8,101.1 115.3,100.8 116.8,100.7 118.3,100.5 119.8,100.3 121.2,99.8 122.7,99.4 124.2,99.0 125.7,98.6 127.2,98.4 128.7,98.3 130.2,98.1 131.7,97.8 133.2,97.6 134.7,97.4 136.2,97.3 137.7,97.1 139.2,96.9 140.7,96.8 142.2,96.7 143.7,96.6 145.2,96.1 146.7,95.9 148.2,95.8 149.7,95.7 151.2,95.6 152.7,95.6 154.2,102.6 155.7,101.9 157.1,101.3 158.6,100.6 160.1,98.7 161.6,97.4 163.1,96.0 164.6,95.4 166.1,94.8 167.6,93.9 169.1,92.8 170.6,92.0 172.1,91.7 173.6,91.4 175.1,90.7 176.6,90.1 178.1,89.8 179.6,89.3 181.1,89.1 182.6,89.0 184.1,88.6 185.6,88.0 187.1,87.5 188.6,87.1 190.1,86.5 191.6,86.3 193.0,86.1 194.5,85.6 196.0,85.2 197.5,84.8 199.0,84.5 200.5,84.4 202.0,84.3 203.5,84.1 205.0,83.7 206.5,83.5 208.0,83.2 209.5,83.0 211.0,82.8 212.5,82.6 214.0,82.4 215.5,82.3 217.0,82.1 218.5,81.7 220.0,81.5 221.5,81.1 223.0,81.0 224.5,80.8 226.0,80.6 227.5,80.5 228.9,80.3 230.4,79.8 231.9,79.5 233.4,79.0 234.9,78.9 236.4,78.8 237.9,78.6 239.4,78.4 240.9,78.1 242.4,77.9 243.9,77.6 245.4,77.4 246.9,77.3 248.4,77.1 249.9,77.0 251.4,76.8 252.9,76.6 254.4,76.5 255.9,76.2 257.4,76.0 258.9,75.9 260.4,75.8 261.9,75.7 263.4,75.4 264.8,75.2 266.3,75.0 267.8,74.8 269.3,74.5 270.8,74.4 272.3,74.3 273.8,74.1 275.3,73.8 276.8,73.5 278.3,73.3 279.8,73.1 281.3,72.7 282.8,72.6 284.3,72.5 285.8,72.4 287.3,72.2 288.8,72.0 290.3,71.8 291.8,71.7 293.3,71.5 294.8,71.3 296.3,71.2 297.8,71.0 299.3,71.0 300.7,70.8 302.2,70.5 303.7,70.4 305.2,70.1 306.7,70.0 308.2,69.9 309.7,69.7 311.2,69.6 312.7,69.5 314.2,69.3 315.7,69.0 317.2,68.7 318.7,68.5 320.2,68.3 321.7,68.2 323.2,68.2 324.7,68.0 326.2,67.7 327.7,67.6 329.2,67.5 330.7,67.2 332.2,67.1 333.7,66.9 335.2,66.8 336.6,66.7 338.1,66.4 339.6,66.2 341.1,66.0 342.6,65.8 344.1,65.7 345.6,65.6 347.1,65.6 348.6,65.4 350.1,65.2 351.6,65.1 353.1,64.9 354.6,64.7 356.1,64.6 357.6,64.5 359.1,64.3 360.6,64.2 362.1,63.9 363.6,63.7 365.1,63.5 366.6,63.4 368.1,63.2 369.6,63.1 371.1,63.1 372.5,63.0 374.0,62.8 375.5,62.7 377.0,62.4 378.5,62.3 380.0,62.1 381.5,62.0 383.0,61.9 384.5,61.7 386.0,61.6 387.5,61.4 389.0,61.3 390.5,61.2 392.0,61.0 393.5,60.8 395.0,60.7 396.5,60.6 398.0,60.5 399.5,60.3 401.0,60.2 402.5,60.1 404.0,60.0 405.5,59.9 407.0,59.8 408.4,59.4 409.9,59.2 411.4,63.8 412.9,62.9 414.4,61.2 415.9,60.5 417.4,59.7 418.9,58.7 420.4,58.2 421.9,57.8 423.4,57.2 424.9,56.2 426.4,55.4 427.9,55.2 429.4,54.8 430.9,54.5 432.4,54.0 433.9,53.5 435.4,53.0 436.9,52.7 438.4,52.2 439.9,52.0 441.4,51.6 442.9,51.4 444.3,51.1 445.8,50.9 447.3,50.4 448.8,50.1 450.3,49.6 451.8,49.0 453.3,48.6 454.8,48.4 456.3,48.2 457.8,48.0 459.3,47.6 460.8,47.2 462.3,46.9 463.8,46.0 465.3,45.2 466.8,44.9 468.3,44.7 469.8,44.4 471.3,43.9 472.8,43.5 474.3,43.0 475.8,42.6 477.3,42.3 478.8,42.0 480.2,41.5 481.7,41.3 483.2,41.1 484.7,40.9 486.2,40.7 487.7,40.5 489.2,40.3 490.7,40.0 492.2,39.8 493.7,39.7 495.2,39.4 496.7,39.2 498.2,39.0 499.7,38.8 501.2,38.6 502.7,38.5 504.2,38.3 505.7,38.2 507.2,38.0 508.7,37.9 510.2,37.7 511.7,37.5 513.2,37.3 514.7,37.1 516.1,36.9 517.6,36.8 519.1,36.6 520.6,36.4 522.1,36.3 523.6,36.2 525.1,36.0 526.6,35.8 528.1,35.8 529.6,35.6 531.1,35.4 532.6,35.2 534.1,35.0 535.6,34.7 537.1,34.6 538.6,34.4 540.1,34.1 541.6,33.9 543.1,33.7 544.6,33.5 546.1,33.3 547.6,33.0 549.1,32.8 550.6,32.5 552.0,32.3 553.5,32.0 555.0,31.9 556.5,31.7 558.0,31.6 559.5,31.5 561.0,31.3 562.5,31.1 564.0,31.0 565.5,30.7 567.0,30.5 568.5,30.3 570.0,30.0 570.0,30.0,120" />
  
  <!-- Linea principale -->
  <polyline fill="none" stroke="#0366d6" stroke-width="2.5" stroke-linecap="round" stroke-linejoin="round" points="30.0,120.0 31.5,119.5 33.0,118.9 34.5,118.3 36.0,118.2 37.5,117.9 39.0,117.3 40.5,116.9 42.0,116.6 43.5,115.9 45.0,115.6 46.5,115.3 48.0,115.1 49.4,114.8 50.9,114.3 52.4,113.9 53.9,113.5 55.4,113.3 56.9,113.1 58.4,112.8 59.9,112.5 61.4,112.2 62.9,112.0 64.4,111.7 65.9,110.7 67.4,110.4 68.9,110.0 70.4,109.6 71.9,109.2 73.4,108.9 74.9,108.6 76.4,108.5 77.9,108.2 79.4,107.7 80.9,107.3 82.4,107.0 83.9,106.6 85.3,106.5 86.8,106.4 88.3,106.3 89.8,105.9 91.3,105.7 92.8,105.6 94.3,105.2 95.8,104.6 97.3,104.5 98.8,104.4 100.3,104.2 101.8,103.8 103.3,103.5 104.8,103.0 106.3,102.7 107.8,102.3 109.3,102.2 110.8,101.9 112.3,101.5 113.8,101.1 115.3,100.8 116.8,100.7 118.3,100.5 119.8,100.3 121.2,99.8 122.7,99.4 124.2,99.0 125.7,98.6 127.2,98.4 128.7,98.3 130.2,98.1 131.7,97.8 133.2,97.6 134.7,97.4 136.2,97.3 137.7,97.1 139.2,96.9 140.7,96.8 142.2,96.7 143.7,96.6 145.2,96.1 146.7,95.9 148.2,95.8 149.7,95.7 151.2,95.6 152.7,95.6 154.2,102.6 155.7,101.9 157.1,101.3 158.6,100.6 160.1,98.7 161.6,97.4 163.1,96.0 164.6,95.4 166.1,94.8 167.6,93.9 169.1,92.8 170.6,92.0 172.1,91.7 173.6,91.4 175.1,90.7 176.6,90.1 178.1,89.8 179.6,89.3 181.1,89.1 182.6,89.0 184.1,88.6 185.6,88.0 187.1,87.5 188.6,87.1 190.1,86.5 191.6,86.3 193.0,86.1 194.5,85.6 196.0,85.2 197.5,84.8 199.0,84.5 200.5,84.4 202.0,84.3 203.5,84.1 205.0,83.7 206.5,83.5 208.0,83.2 209.5,83.0 211.0,82.8 212.5,82.6 214.0,82.4 215.5,82.3 217.0,82.1 218.5,81.7 220.0,81.5 221.5,81.1 223.0,81.0 224.5,80.8 226.0,80.6 227.5,80.5 228.9,80.3 230.4,79.8 231.9,79.5 233.4,79.0 234.9,78.9 236.4,78.8 237.9,78.6 239.4,78.4 240.9,78.1 242.4,77.9 243.9,77.6 245.4,77.4 246.9,77.3 248.4,77.1 249.9,77.0 251.4,76.8 252.9,76.6 254.4,76.5 255.9,76.2 257.4,76.0 258.9,75.9 260.4,75.8 261.9,75.7 263.4,75.4 264.8,75.2 266.3,75.0 267.8,74.8 269.3,74.5 270.8,74.4 272.3,74.3 273.8,74.1 275.3,73.8 276.8,73.5 278.3,73.3 279.8,73.1 281.3,72.7 282.8,72.6 284.3,72.5 285.8,72.4 287.3,72.2 288.8,72.0 290.3,71.8 291.8,71.7 293.3,71.5 294.8,71.3 296.3,71.2 297.8,71.0 299.3,71.0 300.7,70.8 302.2,70.5 303.7,70.4 305.2,70.1 306.7,70.0 308.2,69.9 309.7,69.7 311.2,69.6 312.7,69.5 314.2,69.3 315.7,69.0 317.2,68.7 318.7,68.5 320.2,68.3 321.7,68.2 323.2,68.2 324.7,68.0 326.2,67.7 327.7,67.6 329.2,67.5 330.7,67.2 332.2,67.1 333.7,66.9 335.2,66.8 336.6,66.7 338.1,66.4 339.6,66.2 341.1,66.0 342.6,65.8 344.1,65.7 345.6,65.6 347.1,65.6 348.6,65.4 350.1,65.2 351.6,65.1 353.1,64.9 354.6,64.7 356.1,64.6 357.6,64.5 359.1,64.3 360.6,64.2 362.1,63.9 363.6,63.7 365.1,63.5 366.6,63.4 368.1,63.2 369.6,63.1 371.1,63.1 372.5,63.0 374.0,62.8 375.5,62.7 377.0,62.4 378.5,62.3 380.0,62.1 381.5,62.0 383.0,61.9 384.5,61.7 386.0,61.6 387.5,61.4 389.0,61.3 390.5,61.2 392.0,61.0 393.5,60.8 395.0,60.7 396.5,60.6 398.0,60.5 399.5,60.3 401.0,60.2 402.5,60.1 404.0,60.0 405.5,59.9 407.0,59.8 408.4,59.4 409.9,59.2 411.4,63.8 412.9,62.9 414.4,61.2 415.9,60.5 417.4,59.7 418.9,58.7 420.4,58.2 421.9,57.8 423.4,57.2 424.9,56.2 426.4,55.4 427.9,55.2 429.4,54.8 430.9,54.5 432.4,54.0 433.9,53.5 435.4,53.0 436.9,52.7 438.4,52.2 439.9,52.0 441.4,51.6 442.9,51.4 444.3,51.1 445.8,50.9 447.3,50.4 448.8,50.1 450.3,49.6 451.8,49.0 453.3,48.6 454.8,48.4 456.3,48.2 457.8,48.0 459.3,47.6 460.8,47.2 462.3,46.9 463.8,46.0 465.3,45.2 466.8,44.9 468.3,44.7 469.8,44.4 471.3,43.9 472.8,43.5 474.3,43.0 475.8,42.6 477.3,42.3 478.8,42.0 480.2,41.5 481.7,41.3 483.2,41.1 484.7,40.9 486.2,40.7 487.7,40.5 489.2,40.3 490.7,40.0 492.2,39.8 493.7,39.7 495.2,39.4 496.7,39.2 498.2,39.0 499.7,38.8 501.2,38.6 502.7,38.5 504.2,38.3 505.7,38.2 507.2,38.0 508.7,37.9 510.2,37.7 511.7,37.5 513.2,37.3 514.7,37.1 516.1,36.9 517.6,36.8 519.1,36.6 520.6,36.4 522.1,36.3 523.6,36.2 525.1,36.0 526.6,35.8 528.1,35.8 529.6,35.6 531.1,35.4 532.6,35.2 534.1,35.0 535.6,34.7 537.1,34.6 538.6,34.4 540.1,34.1 541.6,33.9 543.1,33.7 544.6,33.5 546.1,33.3 547.6,33.0 549.1,32.8 550.6,32.5 552.0,32.3 553.5,32.0 555.0,31.9 556.5,31.7 558.0,31.6 559.5,31.5 561.0,31.3 562.5,31.1 564.0,31.0 565.5,30.7 567.0,30.5 568.5,30.3 570.0,30.0" />
  
  <!-- Punto finale luminoso -->
  <circle cx="570.0" cy="30.0" r="4" fill="#ffffff" stroke="#0366d6" stroke-width="2.5" />
</svg>