<svg width="600" height="150" viewBox="0 0 600 150" xmlns="http://www.w3.org/2000/svg">
  <defs>
    <filter id="shadow2" x="-2%" y="-2%" width="104%" height="108%">
      <feDropShadow dx="0" dy="2" stdDeviation="3" flood-opacity="0.1" />
    </filter>
    <linearGradient id="fillGrad" x1="0" y1="0" x2="0" y2="1">
      <stop offset="0%" stop-color="#0366d6" stop-opacity="0.3"/>
      <stop offset="100%" stop-color="#0366d6" stop-opacity="0.02"/>
    </linearGradient>
  </defs>
  <rect width="600" height="150" rx="12" fill="#ffffff" filter="url(#shadow2)" stroke="#e1e4e8" stroke-width="1"/>
  <text x="20" y="24" fill="#2b3137" font-family="-apple-system,BlinkMacSystemFont,'Segoe UI',Helvetica,Arial,sans-serif" font-size="14" font-weight="600">📈 Download Growth (Actual: 83.0k)</text>
  
  <!-- Area sotto la linea -->
  <polygon fill="url(#fillGrad)" points="30.0,120.0,120 30.0,120.0 31.8,119.4 33.6,118.7 35.3,118.1 37.1,118.0 38.9,117.6 40.7,116.9 42.4,116.4 44.2,116.1 46.0,115.4 47.8,115.0 49.5,114.6 51.3,114.4 53.1,114.1 54.9,113.6 56.6,113.0 58.4,112.6 60.2,112.3 62.0,112.1 63.8,111.8 65.5,111.4 67.3,111.1 69.1,110.9 70.9,110.6 72.6,109.4 74.4,109.0 76.2,108.6 78.0,108.1 79.7,107.7 81.5,107.3 83.3,107.1 85.1,106.9 86.8,106.6 88.6,106.0 90.4,105.5 92.2,105.2 93.9,104.8 95.7,104.6 97.5,104.5 99.3,104.3 101.1,104.0 102.8,103.7 104.6,103.6 106.4,103.2 108.2,102.5 109.9,102.4 111.7,102.3 113.5,102.0 115.3,101.5 117.0,101.2 118.8,100.7 120.6,100.3 122.4,99.8 124.1,99.7 125.9,99.4 127.7,99.0 129.5,98.5 131.2,98.1 133.0,98.0 134.8,97.7 136.6,97.5 138.4,97.0 140.1,96.5 141.9,96.1 143.7,95.6 145.5,95.4 147.2,95.3 149.0,95.1 150.8,94.7 152.6,94.5 154.3,94.3 156.1,94.1 157.9,94.0 159.7,93.7 161.4,93.5 163.2,93.4 165.0,93.3 166.8,92.8 168.6,92.6 170.3,92.5 172.1,92.3 173.9,92.2 175.7,92.2 177.4,100.2 179.2,99.4 181.0,98.7 182.8,97.9 184.5,95.8 186.3,94.3 188.1,92.6 189.9,92.0 191.6,91.3 193.4,90.2 195.2,89.0 197.0,88.1 198.8,87.8 200.5,87.5 202.3,86.6 204.1,86.0 205.9,85.6 207.6,85.1 209.4,84.8 211.2,84.8 213.0,84.3 214.7,83.6 216.5,83.0 218.3,82.5 220.1,81.9 221.8,81.6 223.6,81.4 225.4,80.9 227.2,80.4 228.9,80.0 230.7,79.6 232.5,79.5 234.3,79.4 236.1,79.1 237.8,78.7 239.6,78.4 241.4,78.1 243.2,77.9 244.9,77.7 246.7,77.4 248.5,77.2 250.3,77.1 252.0,76.8 253.8,76.4 255.6,76.1 257.4,75.8 259.1,75.6 260.9,75.3 262.7,75.2 264.5,75.0 266.2,74.8 268.0,74.2 269.8,73.8 271.6,73.4 273.4,73.2 275.1,73.1 276.9,72.9 278.7,72.7 280.5,72.4 282.2,72.1 284.0,71.7 285.8,71.5 287.6,71.4 289.3,71.2 291.1,71.0 292.9,70.9 294.7,70.6 296.4,70.4 298.2,70.1 300.0,69.9 301.8,69.8 303.6,69.7 305.3,69.6 307.1,69.3 308.9,69.0 310.7,68.7 312.4,68.5 314.2,68.2 316.0,68.1 317.8,68.0 319.5,67.8 321.3,67.4 323.1,67.1 324.9,66.9 326.6,66.6 328.4,66.2 330.2,66.1 332.0,65.9 333.8,65.8 335.5,65.6 337.3,65.4 339.1,65.2 340.9,65.0 342.6,64.8 344.4,64.6 346.2,64.4 348.0,64.3 349.7,64.2 351.5,64.0 353.3,63.6 355.1,63.5 356.8,63.2 358.6,63.1 360.4,63.0 362.2,62.8 363.9,62.7 365.7,62.5 367.5,62.3 369.3,62.0 371.1,61.6 372.8,61.4 374.6,61.2 376.4,61.1 378.2,61.0 379.9,60.8 381.7,60.4 383.5,60.3 385.3,60.2 387.0,59.9 388.8,59.8 390.6,59.5 392.4,59.4 394.1,59.3 395.9,59.0 397.7,58.8 399.5,58.5 401.2,58.3 403.0,58.2 404.8,58.1 406.6,58.0 408.4,57.8 410.1,57.7 411.9,57.5 413.7,57.3 415.5,57.0 417.2,56.9 419.0,56.8 420.8,56.6 422.6,56.4 424.3,56.2 426.1,55.9 427.9,55.7 429.7,55.5 431.4,55.4 433.2,55.3 435.0,55.2 436.8,55.1 438.6,54.9 440.3,54.8 442.1,54.5 443.9,54.3 445.7,54.1 447.4,54.0 449.2,53.8 451.0,53.7 452.8,53.5 454.5,53.3 456.3,53.2 458.1,53.0 459.9,52.8 461.6,52.6 463.4,52.4 465.2,52.3 467.0,52.2 468.8,52.1 470.5,52.0 472.3,51.8 474.1,51.6 475.9,51.6 477.6,51.4 479.4,51.1 481.2,50.8 483.0,56.0 484.7,55.0 486.5,53.0 488.3,52.3 490.1,51.4 491.8,50.2 493.6,49.6 495.4,49.2 497.2,48.5 498.9,47.4 500.7,46.5 502.5,46.2 504.3,45.8 506.1,45.5 507.8,44.9 509.6,44.3 511.4,43.7 513.2,43.4 514.9,42.8 516.7,42.5 518.5,42.2 520.3,41.9 522.0,41.6 523.8,41.3 525.6,40.8 527.4,40.4 529.1,39.9 530.9,39.1 532.7,38.7 534.5,38.5 536.2,38.3 538.0,38.0 539.8,37.5 541.6,37.1 543.4,36.8 545.1,35.7 546.9,34.9 548.7,34.5 550.5,34.3 552.2,33.9 554.0,33.4 555.8,32.9 557.6,32.3 559.3,31.9 561.1,31.5 562.9,31.2 564.7,30.7 566.4,30.4 568.2,30.2 570.0,30.0 570.0,30.0,120" />
  
  <!-- Linea principale -->
  <polyline fill="none" stroke="#0366d6" stroke-width="2.5" stroke-linecap="round" stroke-linejoin="round" points="30.0,120.0 31.8,119.4 33.6,118.7 35.3,118.1 37.1,118.0 38.9,117.6 40.7,116.9 42.4,116.4 44.2,116.1 46.0,115.4 47.8,115.0 49.5,114.6 51.3,114.4 53.1,114.1 54.9,113.6 56.6,113.0 58.4,112.6 60.2,112.3 62.0,112.1 63.8,111.8 65.5,111.4 67.3,111.1 69.1,110.9 70.9,110.6 72.6,109.4 74.4,109.0 76.2,108.6 78.0,108.1 79.7,107.7 81.5,107.3 83.3,107.1 85.1,106.9 86.8,106.6 88.6,106.0 90.4,105.5 92.2,105.2 93.9,104.8 95.7,104.6 97.5,104.5 99.3,104.3 101.1,104.0 102.8,103.7 104.6,103.6 106.4,103.2 108.2,102.5 109.9,102.4 111.7,102.3 113.5,102.0 115.3,101.5 117.0,101.2 118.8,100.7 120.6,100.3 122.4,99.8 124.1,99.7 125.9,99.4 127.7,99.0 129.5,98.5 131.2,98.1 133.0,98.0 134.8,97.7 136.6,97.5 138.4,97.0 140.1,96.5 141.9,96.1 143.7,95.6 145.5,95.4 147.2,95.3 149.0,95.1 150.8,94.7 152.6,94.5 154.3,94.3 156.1,94.1 157.9,94.0 159.7,93.7 161.4,93.5 163.2,93.4 165.0,93.3 166.8,92.8 168.6,92.6 170.3,92.5 172.1,92.3 173.9,92.2 175.7,92.2 177.4,100.2 179.2,99.4 181.0,98.7 182.8,97.9 184.5,95.8 186.3,94.3 188.1,92.6 189.9,92.0 191.6,91.3 193.4,90.2 195.2,89.0 197.0,88.1 198.8,87.8 200.5,87.5 202.3,86.6 204.1,86.0 205.9,85.6 207.6,85.1 209.4,84.8 211.2,84.8 213.0,84.3 214.7,83.6 216.5,83.0 218.3,82.5 220.1,81.9 221.8,81.6 223.6,81.4 225.4,80.9 227.2,80.4 228.9,80.0 230.7,79.6 232.5,79.5 234.3,79.4 236.1,79.1 237.8,78.7 239.6,78.4 241.4,78.1 243.2,77.9 244.9,77.7 246.7,77.4 248.5,77.2 250.3,77.1 252.0,76.8 253.8,76.4 255.6,76.1 257.4,75.8 259.1,75.6 260.9,75.3 262.7,75.2 264.5,75.0 266.2,74.8 268.0,74.2 269.8,73.8 271.6,73.4 273.4,73.2 275.1,73.1 276.9,72.9 278.7,72.7 280.5,72.4 282.2,72.1 284.0,71.7 285.8,71.5 287.6,71.4 289.3,71.2 291.1,71.0 292.9,70.9 294.7,70.6 296.4,70.4 298.2,70.1 300.0,69.9 301.8,69.8 303.6,69.7 305.3,69.6 307.1,69.3 308.9,69.0 310.7,68.7 312.4,68.5 314.2,68.2 316.0,68.1 317.8,68.0 319.5,67.8 321.3,67.4 323.1,67.1 324.9,66.9 326.6,66.6 328.4,66.2 330.2,66.1 332.0,65.9 333.8,65.8 335.5,65.6 337.3,65.4 339.1,65.2 340.9,65.0 342.6,64.8 344.4,64.6 346.2,64.4 348.0,64.3 349.7,64.2 351.5,64.0 353.3,63.6 355.1,63.5 356.8,63.2 358.6,63.1 360.4,63.0 362.2,62.8 363.9,62.7 365.7,62.5 367.5,62.3 369.3,62.0 371.1,61.6 372.8,61.4 374.6,61.2 376.4,61.1 378.2,61.0 379.9,60.8 381.7,60.4 383.5,60.3 385.3,60.2 387.0,59.9 388.8,59.8 390.6,59.5 392.4,59.4 394.1,59.3 395.9,59.0 397.7,58.8 399.5,58.5 401.2,58.3 403.0,58.2 404.8,58.1 406.6,58.0 408.4,57.8 410.1,57.7 411.9,57.5 413.7,57.3 415.5,57.0 417.2,56.9 419.0,56.8 420.8,56.6 422.6,56.4 424.3,56.2 426.1,55.9 427.9,55.7 429.7,55.5 431.4,55.4 433.2,55.3 435.0,55.2 436.8,55.1 438.6,54.9 440.3,54.8 442.1,54.5 443.9,54.3 445.7,54.1 447.4,54.0 449.2,53.8 451.0,53.7 452.8,53.5 454.5,53.3 456.3,53.2 458.1,53.0 459.9,52.8 461.6,52.6 463.4,52.4 465.2,52.3 467.0,52.2 468.8,52.1 470.5,52.0 472.3,51.8 474.1,51.6 475.9,51.6 477.6,51.4 479.4,51.1 481.2,50.8 483.0,56.0 484.7,55.0 486.5,53.0 488.3,52.3 490.1,51.4 491.8,50.2 493.6,49.6 495.4,49.2 497.2,48.5 498.9,47.4 500.7,46.5 502.5,46.2 504.3,45.8 506.1,45.5 507.8,44.9 509.6,44.3 511.4,43.7 513.2,43.4 514.9,42.8 516.7,42.5 518.5,42.2 520.3,41.9 522.0,41.6 523.8,41.3 525.6,40.8 527.4,40.4 529.1,39.9 530.9,39.1 532.7,38.7 534.5,38.5 536.2,38.3 538.0,38.0 539.8,37.5 541.6,37.1 543.4,36.8 545.1,35.7 546.9,34.9 548.7,34.5 550.5,34.3 552.2,33.9 554.0,33.4 555.8,32.9 557.6,32.3 559.3,31.9 561.1,31.5 562.9,31.2 564.7,30.7 566.4,30.4 568.2,30.2 570.0,30.0" />
  
  <!-- Punto finale luminoso -->
  <circle cx="570.0" cy="30.0" r="4" fill="#ffffff" stroke="#0366d6" stroke-width="2.5" />
</svg>