<svg width="600" height="150" viewBox="0 0 600 150" xmlns="http://www.w3.org/2000/svg">
  <defs>
    <filter id="shadow2" x="-2%" y="-2%" width="104%" height="108%">
      <feDropShadow dx="0" dy="2" stdDeviation="3" flood-opacity="0.1" />
    </filter>
    <linearGradient id="fillGrad" x1="0" y1="0" x2="0" y2="1">
      <stop offset="0%" stop-color="#0366d6" stop-opacity="0.3"/>
      <stop offset="100%" stop-color="#0366d6" stop-opacity="0.02"/>
    </linearGradient>
  </defs>
  <rect width="600" height="150" rx="12" fill="#ffffff" filter="url(#shadow2)" stroke="#e1e4e8" stroke-width="1"/>
  <text x="20" y="24" fill="#2b3137" font-family="-apple-system,BlinkMacSystemFont,'Segoe UI',Helvetica,Arial,sans-serif" font-size="14" font-weight="600">📈 Download Growth (Actual: 87.1k)</text>
  
  <!-- Area sotto la linea -->
  <polygon fill="url(#fillGrad)" points="30.0,120.0,120 30.0,120.0 31.3,119.5 32.6,119.0 33.9,118.5 35.2,118.4 36.5,118.1 37.8,117.5 39.1,117.1 40.4,116.9 41.7,116.3 43.0,116.0 44.3,115.7 45.6,115.5 46.9,115.2 48.2,114.8 49.5,114.4 50.8,114.1 52.1,113.9 53.4,113.7 54.7,113.4 56.0,113.1 57.3,112.8 58.6,112.7 59.9,112.4 61.2,111.5 62.5,111.2 63.8,110.9 65.0,110.5 66.3,110.2 67.6,109.8 68.9,109.6 70.2,109.5 71.5,109.2 72.8,108.8 74.1,108.4 75.4,108.1 76.7,107.8 78.0,107.7 79.3,107.6 80.6,107.5 81.9,107.2 83.2,107.0 84.5,106.8 85.8,106.5 87.1,106.0 88.4,105.9 89.7,105.8 91.0,105.6 92.3,105.2 93.6,104.9 94.9,104.5 96.2,104.2 97.5,103.8 98.8,103.8 100.1,103.5 101.4,103.2 102.7,102.8 104.0,102.5 105.3,102.4 106.6,102.2 107.9,102.0 109.2,101.6 110.5,101.2 111.8,100.8 113.1,100.5 114.4,100.3 115.7,100.2 117.0,100.0 118.3,99.8 119.6,99.6 120.9,99.4 122.2,99.3 123.5,99.1 124.8,98.9 126.1,98.8 127.4,98.7 128.7,98.6 130.0,98.2 131.2,98.0 132.5,97.9 133.8,97.8 135.1,97.7 136.4,97.7 137.7,104.1 139.0,103.5 140.3,102.9 141.6,102.3 142.9,100.6 144.2,99.4 145.5,98.1 146.8,97.6 148.1,97.0 149.4,96.1 150.7,95.2 152.0,94.5 153.3,94.2 154.6,93.9 155.9,93.2 157.2,92.7 158.5,92.4 159.8,92.0 161.1,91.8 162.4,91.8 163.7,91.4 165.0,90.8 166.3,90.4 167.6,89.9 168.9,89.5 170.2,89.2 171.5,89.1 172.8,88.7 174.1,88.3 175.4,87.9 176.7,87.6 178.0,87.5 179.3,87.4 180.6,87.2 181.9,86.9 183.2,86.7 184.5,86.4 185.8,86.3 187.1,86.1 188.4,85.9 189.7,85.7 191.0,85.6 192.3,85.4 193.6,85.1 194.9,84.8 196.2,84.6 197.5,84.4 198.8,84.2 200.0,84.1 201.3,83.9 202.6,83.8 203.9,83.3 205.2,83.0 206.5,82.6 207.8,82.5 209.1,82.4 210.4,82.3 211.7,82.1 213.0,81.8 214.3,81.6 215.6,81.3 216.9,81.1 218.2,81.0 219.5,80.9 220.8,80.8 222.1,80.6 223.4,80.4 224.7,80.3 226.0,80.0 227.3,79.9 228.6,79.8 229.9,79.7 231.2,79.6 232.5,79.3 233.8,79.1 235.1,78.9 236.4,78.7 237.7,78.5 239.0,78.4 240.3,78.3 241.6,78.1 242.9,77.9 244.2,77.6 245.5,77.4 246.8,77.2 248.1,76.9 249.4,76.8 250.7,76.7 252.0,76.6 253.3,76.4 254.6,76.2 255.9,76.0 257.2,75.9 258.5,75.7 259.8,75.6 261.1,75.5 262.4,75.3 263.7,75.3 265.0,75.1 266.2,74.8 267.5,74.7 268.8,74.5 270.1,74.4 271.4,74.3 272.7,74.1 274.0,74.0 275.3,73.9 276.6,73.8 277.9,73.5 279.2,73.2 280.5,73.0 281.8,72.8 283.1,72.8 284.4,72.7 285.7,72.5 287.0,72.3 288.3,72.2 289.6,72.1 290.9,71.9 292.2,71.7 293.5,71.5 294.8,71.4 296.1,71.3 297.4,71.1 298.7,70.9 300.0,70.7 301.3,70.5 302.6,70.4 303.9,70.4 305.2,70.3 306.5,70.2 307.8,70.0 309.1,69.9 310.4,69.7 311.7,69.5 313.0,69.4 314.3,69.3 315.6,69.2 316.9,69.1 318.2,68.9 319.5,68.7 320.8,68.5 322.1,68.3 323.4,68.2 324.7,68.1 326.0,68.0 327.3,68.0 328.6,67.9 329.9,67.7 331.2,67.5 332.5,67.4 333.8,67.2 335.0,67.1 336.3,67.0 337.6,66.8 338.9,66.7 340.2,66.6 341.5,66.5 342.8,66.3 344.1,66.1 345.4,66.0 346.7,65.9 348.0,65.8 349.3,65.7 350.6,65.6 351.9,65.5 353.2,65.3 354.5,65.2 355.8,65.2 357.1,65.1 358.4,64.8 359.7,64.5 361.0,68.7 362.3,67.9 363.6,66.3 364.9,65.7 366.2,65.0 367.5,64.1 368.8,63.6 370.1,63.3 371.4,62.7 372.7,61.8 374.0,61.1 375.3,60.9 376.6,60.6 377.9,60.3 379.2,59.8 380.5,59.4 381.8,58.9 383.1,58.6 384.4,58.2 385.7,57.9 387.0,57.6 388.3,57.4 389.6,57.2 390.9,57.0 392.2,56.5 393.5,56.2 394.8,55.8 396.1,55.2 397.4,54.9 398.7,54.7 400.0,54.5 401.2,54.3 402.5,53.9 403.8,53.6 405.1,53.3 406.4,52.5 407.7,51.8 409.0,51.5 410.3,51.3 411.6,51.0 412.9,50.6 414.2,50.2 415.5,49.7 416.8,49.4 418.1,49.1 419.4,48.8 420.7,48.4 422.0,48.2 423.3,48.0 424.6,47.9 425.9,47.7 427.2,47.4 428.5,47.3 429.8,47.1 431.1,46.9 432.4,46.7 433.7,46.4 435.0,46.3 436.3,46.1 437.6,45.9 438.9,45.7 440.2,45.6 441.5,45.5 442.8,45.3 444.1,45.2 445.4,45.1 446.7,44.9 448.0,44.8 449.3,44.6 450.6,44.4 451.9,44.2 453.2,44.1 454.5,43.9 455.8,43.8 457.1,43.7 458.4,43.5 459.7,43.4 461.0,43.2 462.3,43.1 463.6,43.0 464.9,42.8 466.2,42.7 467.5,42.4 468.8,42.2 470.0,42.1 471.3,41.9 472.6,41.7 473.9,41.5 475.2,41.3 476.5,41.1 477.8,40.9 479.1,40.6 480.4,40.4 481.7,40.2 483.0,39.9 484.3,39.7 485.6,39.6 486.9,39.5 488.2,39.4 489.5,39.2 490.8,39.1 492.1,38.9 493.4,38.8 494.7,38.6 496.0,38.4 497.3,38.1 498.6,37.9 499.9,37.7 501.2,37.4 502.5,37.3 503.8,37.1 505.1,37.0 506.4,36.9 507.7,36.8 509.0,36.6 510.3,36.4 511.6,36.3 512.9,36.0 514.2,35.8 515.5,35.7 516.8,35.6 518.1,35.4 519.4,35.3 520.7,35.3 522.0,35.1 523.3,35.0 524.6,34.9 525.9,34.7 527.2,34.5 528.5,34.4 529.8,34.2 531.1,34.1 532.4,33.9 533.7,33.8 535.0,33.7 536.2,33.6 537.5,33.5 538.8,33.3 540.1,33.1 541.4,32.9 542.7,32.7 544.0,32.4 545.3,32.3 546.6,32.2 547.9,32.2 549.2,32.0 550.5,31.9 551.8,31.9 553.1,31.7 554.4,31.6 555.7,31.6 557.0,31.4 558.3,31.2 559.6,31.0 560.9,30.9 562.2,30.8 563.5,30.7 564.8,30.5 566.1,30.4 567.4,30.2 568.7,30.1 570.0,30.0 570.0,30.0,120" />
  
  <!-- Linea principale -->
  <polyline fill="none" stroke="#0366d6" stroke-width="2.5" stroke-linecap="round" stroke-linejoin="round" points="30.0,120.0 31.3,119.5 32.6,119.0 33.9,118.5 35.2,118.4 36.5,118.1 37.8,117.5 39.1,117.1 40.4,116.9 41.7,116.3 43.0,116.0 44.3,115.7 45.6,115.5 46.9,115.2 48.2,114.8 49.5,114.4 50.8,114.1 52.1,113.9 53.4,113.7 54.7,113.4 56.0,113.1 57.3,112.8 58.6,112.7 59.9,112.4 61.2,111.5 62.5,111.2 63.8,110.9 65.0,110.5 66.3,110.2 67.6,109.8 68.9,109.6 70.2,109.5 71.5,109.2 72.8,108.8 74.1,108.4 75.4,108.1 76.7,107.8 78.0,107.7 79.3,107.6 80.6,107.5 81.9,107.2 83.2,107.0 84.5,106.8 85.8,106.5 87.1,106.0 88.4,105.9 89.7,105.8 91.0,105.6 92.3,105.2 93.6,104.9 94.9,104.5 96.2,104.2 97.5,103.8 98.8,103.8 100.1,103.5 101.4,103.2 102.7,102.8 104.0,102.5 105.3,102.4 106.6,102.2 107.9,102.0 109.2,101.6 110.5,101.2 111.8,100.8 113.1,100.5 114.4,100.3 115.7,100.2 117.0,100.0 118.3,99.8 119.6,99.6 120.9,99.4 122.2,99.3 123.5,99.1 124.8,98.9 126.1,98.8 127.4,98.7 128.7,98.6 130.0,98.2 131.2,98.0 132.5,97.9 133.8,97.8 135.1,97.7 136.4,97.7 137.7,104.1 139.0,103.5 140.3,102.9 141.6,102.3 142.9,100.6 144.2,99.4 145.5,98.1 146.8,97.6 148.1,97.0 149.4,96.1 150.7,95.2 152.0,94.5 153.3,94.2 154.6,93.9 155.9,93.2 157.2,92.7 158.5,92.4 159.8,92.0 161.1,91.8 162.4,91.8 163.7,91.4 165.0,90.8 166.3,90.4 167.6,89.9 168.9,89.5 170.2,89.2 171.5,89.1 172.8,88.7 174.1,88.3 175.4,87.9 176.7,87.6 178.0,87.5 179.3,87.4 180.6,87.2 181.9,86.9 183.2,86.7 184.5,86.4 185.8,86.3 187.1,86.1 188.4,85.9 189.7,85.7 191.0,85.6 192.3,85.4 193.6,85.1 194.9,84.8 196.2,84.6 197.5,84.4 198.8,84.2 200.0,84.1 201.3,83.9 202.6,83.8 203.9,83.3 205.2,83.0 206.5,82.6 207.8,82.5 209.1,82.4 210.4,82.3 211.7,82.1 213.0,81.8 214.3,81.6 215.6,81.3 216.9,81.1 218.2,81.0 219.5,80.9 220.8,80.8 222.1,80.6 223.4,80.4 224.7,80.3 226.0,80.0 227.3,79.9 228.6,79.8 229.9,79.7 231.2,79.6 232.5,79.3 233.8,79.1 235.1,78.9 236.4,78.7 237.7,78.5 239.0,78.4 240.3,78.3 241.6,78.1 242.9,77.9 244.2,77.6 245.5,77.4 246.8,77.2 248.1,76.9 249.4,76.8 250.7,76.7 252.0,76.6 253.3,76.4 254.6,76.2 255.9,76.0 257.2,75.9 258.5,75.7 259.8,75.6 261.1,75.5 262.4,75.3 263.7,75.3 265.0,75.1 266.2,74.8 267.5,74.7 268.8,74.5 270.1,74.4 271.4,74.3 272.7,74.1 274.0,74.0 275.3,73.9 276.6,73.8 277.9,73.5 279.2,73.2 280.5,73.0 281.8,72.8 283.1,72.8 284.4,72.7 285.7,72.5 287.0,72.3 288.3,72.2 289.6,72.1 290.9,71.9 292.2,71.7 293.5,71.5 294.8,71.4 296.1,71.3 297.4,71.1 298.7,70.9 300.0,70.7 301.3,70.5 302.6,70.4 303.9,70.4 305.2,70.3 306.5,70.2 307.8,70.0 309.1,69.9 310.4,69.7 311.7,69.5 313.0,69.4 314.3,69.3 315.6,69.2 316.9,69.1 318.2,68.9 319.5,68.7 320.8,68.5 322.1,68.3 323.4,68.2 324.7,68.1 326.0,68.0 327.3,68.0 328.6,67.9 329.9,67.7 331.2,67.5 332.5,67.4 333.8,67.2 335.0,67.1 336.3,67.0 337.6,66.8 338.9,66.7 340.2,66.6 341.5,66.5 342.8,66.3 344.1,66.1 345.4,66.0 346.7,65.9 348.0,65.8 349.3,65.7 350.6,65.6 351.9,65.5 353.2,65.3 354.5,65.2 355.8,65.2 357.1,65.1 358.4,64.8 359.7,64.5 361.0,68.7 362.3,67.9 363.6,66.3 364.9,65.7 366.2,65.0 367.5,64.1 368.8,63.6 370.1,63.3 371.4,62.7 372.7,61.8 374.0,61.1 375.3,60.9 376.6,60.6 377.9,60.3 379.2,59.8 380.5,59.4 381.8,58.9 383.1,58.6 384.4,58.2 385.7,57.9 387.0,57.6 388.3,57.4 389.6,57.2 390.9,57.0 392.2,56.5 393.5,56.2 394.8,55.8 396.1,55.2 397.4,54.9 398.7,54.7 400.0,54.5 401.2,54.3 402.5,53.9 403.8,53.6 405.1,53.3 406.4,52.5 407.7,51.8 409.0,51.5 410.3,51.3 411.6,51.0 412.9,50.6 414.2,50.2 415.5,49.7 416.8,49.4 418.1,49.1 419.4,48.8 420.7,48.4 422.0,48.2 423.3,48.0 424.6,47.9 425.9,47.7 427.2,47.4 428.5,47.3 429.8,47.1 431.1,46.9 432.4,46.7 433.7,46.4 435.0,46.3 436.3,46.1 437.6,45.9 438.9,45.7 440.2,45.6 441.5,45.5 442.8,45.3 444.1,45.2 445.4,45.1 446.7,44.9 448.0,44.8 449.3,44.6 450.6,44.4 451.9,44.2 453.2,44.1 454.5,43.9 455.8,43.8 457.1,43.7 458.4,43.5 459.7,43.4 461.0,43.2 462.3,43.1 463.6,43.0 464.9,42.8 466.2,42.7 467.5,42.4 468.8,42.2 470.0,42.1 471.3,41.9 472.6,41.7 473.9,41.5 475.2,41.3 476.5,41.1 477.8,40.9 479.1,40.6 480.4,40.4 481.7,40.2 483.0,39.9 484.3,39.7 485.6,39.6 486.9,39.5 488.2,39.4 489.5,39.2 490.8,39.1 492.1,38.9 493.4,38.8 494.7,38.6 496.0,38.4 497.3,38.1 498.6,37.9 499.9,37.7 501.2,37.4 502.5,37.3 503.8,37.1 505.1,37.0 506.4,36.9 507.7,36.8 509.0,36.6 510.3,36.4 511.6,36.3 512.9,36.0 514.2,35.8 515.5,35.7 516.8,35.6 518.1,35.4 519.4,35.3 520.7,35.3 522.0,35.1 523.3,35.0 524.6,34.9 525.9,34.7 527.2,34.5 528.5,34.4 529.8,34.2 531.1,34.1 532.4,33.9 533.7,33.8 535.0,33.7 536.2,33.6 537.5,33.5 538.8,33.3 540.1,33.1 541.4,32.9 542.7,32.7 544.0,32.4 545.3,32.3 546.6,32.2 547.9,32.2 549.2,32.0 550.5,31.9 551.8,31.9 553.1,31.7 554.4,31.6 555.7,31.6 557.0,31.4 558.3,31.2 559.6,31.0 560.9,30.9 562.2,30.8 563.5,30.7 564.8,30.5 566.1,30.4 567.4,30.2 568.7,30.1 570.0,30.0" />
  
  <!-- Punto finale luminoso -->
  <circle cx="570.0" cy="30.0" r="4" fill="#ffffff" stroke="#0366d6" stroke-width="2.5" />
</svg>