<svg width="600" height="150" viewBox="0 0 600 150" xmlns="http://www.w3.org/2000/svg">
  <defs>
    <filter id="shadow2" x="-2%" y="-2%" width="104%" height="108%">
      <feDropShadow dx="0" dy="2" stdDeviation="3" flood-opacity="0.1" />
    </filter>
    <linearGradient id="fillGrad" x1="0" y1="0" x2="0" y2="1">
      <stop offset="0%" stop-color="#0366d6" stop-opacity="0.3"/>
      <stop offset="100%" stop-color="#0366d6" stop-opacity="0.02"/>
    </linearGradient>
  </defs>
  <rect width="600" height="150" rx="12" fill="#ffffff" filter="url(#shadow2)" stroke="#e1e4e8" stroke-width="1"/>
  <text x="20" y="24" fill="#2b3137" font-family="-apple-system,BlinkMacSystemFont,'Segoe UI',Helvetica,Arial,sans-serif" font-size="14" font-weight="600">📈 Download Growth (Actual: 115.3k)</text>
  
  <!-- Area sotto la linea -->
  <polygon fill="url(#fillGrad)" points="30.0,67.8,120 30.0,67.8 30.5,67.7 31.0,67.6 31.5,67.5 32.0,67.5 32.4,67.5 32.9,67.4 33.4,67.3 33.9,67.3 34.4,67.2 34.9,67.1 35.4,67.1 35.9,67.0 36.3,67.0 36.8,66.9 37.3,66.8 37.8,66.8 38.3,66.7 38.8,66.7 39.3,66.7 39.8,66.6 40.2,66.6 40.7,66.5 41.2,66.5 41.7,66.3 42.2,66.3 42.7,66.2 43.2,66.1 43.7,66.1 44.1,66.0 44.6,66.0 45.1,66.0 45.6,65.9 46.1,65.8 46.6,65.8 47.1,65.7 47.6,65.7 48.0,65.7 48.5,65.6 49.0,65.6 49.5,65.6 50.0,65.5 50.5,65.5 51.0,65.4 51.5,65.4 52.0,65.3 52.4,65.3 52.9,65.3 53.4,65.2 53.9,65.2 54.4,65.1 54.9,65.0 55.4,65.0 55.9,65.0 56.3,64.9 56.8,64.9 57.3,64.8 57.8,64.7 58.3,64.7 58.8,64.7 59.3,64.7 59.8,64.6 60.2,64.5 60.7,64.5 61.2,64.4 61.7,64.4 62.2,64.3 62.7,64.3 63.2,64.3 63.7,64.2 64.1,64.2 64.6,64.2 65.1,64.2 65.6,64.1 66.1,64.1 66.6,64.1 67.1,64.1 67.6,64.0 68.0,64.0 68.5,64.0 69.0,63.9 69.5,63.9 70.0,63.9 70.5,65.0 71.0,64.9 71.5,64.8 72.0,64.7 72.4,64.4 72.9,64.2 73.4,64.0 73.9,63.9 74.4,63.8 74.9,63.6 75.4,63.5 75.9,63.3 76.3,63.3 76.8,63.2 77.3,63.1 77.8,63.0 78.3,63.0 78.8,62.9 79.3,62.9 79.8,62.9 80.2,62.8 80.7,62.7 81.2,62.6 81.7,62.6 82.2,62.5 82.7,62.4 83.2,62.4 83.7,62.3 84.1,62.3 84.6,62.2 85.1,62.1 85.6,62.1 86.1,62.1 86.6,62.1 87.1,62.0 87.6,62.0 88.0,61.9 88.5,61.9 89.0,61.9 89.5,61.8 90.0,61.8 90.5,61.8 91.0,61.8 91.5,61.7 92.0,61.7 92.4,61.6 92.9,61.6 93.4,61.5 93.9,61.5 94.4,61.5 94.9,61.5 95.4,61.4 95.9,61.3 96.3,61.3 96.8,61.2 97.3,61.2 97.8,61.2 98.3,61.2 98.8,61.1 99.3,61.1 99.8,61.0 100.2,61.0 100.7,61.0 101.2,61.0 101.7,60.9 102.2,60.9 102.7,60.9 103.2,60.9 103.7,60.8 104.1,60.8 104.6,60.8 105.1,60.8 105.6,60.7 106.1,60.7 106.6,60.7 107.1,60.6 107.6,60.6 108.0,60.6 108.5,60.5 109.0,60.5 109.5,60.5 110.0,60.4 110.5,60.4 111.0,60.4 111.5,60.3 112.0,60.3 112.4,60.2 112.9,60.2 113.4,60.2 113.9,60.2 114.4,60.2 114.9,60.1 115.4,60.1 115.9,60.1 116.3,60.0 116.8,60.0 117.3,60.0 117.8,60.0 118.3,60.0 118.8,59.9 119.3,59.9 119.8,59.8 120.2,59.8 120.7,59.8 121.2,59.8 121.7,59.8 122.2,59.7 122.7,59.7 123.2,59.7 123.7,59.6 124.1,59.6 124.6,59.6 125.1,59.5 125.6,59.5 126.1,59.5 126.6,59.5 127.1,59.4 127.6,59.4 128.0,59.4 128.5,59.4 129.0,59.3 129.5,59.3 130.0,59.3 130.5,59.3 131.0,59.2 131.5,59.2 132.0,59.2 132.4,59.1 132.9,59.1 133.4,59.1 133.9,59.1 134.4,59.1 134.9,59.0 135.4,59.0 135.9,59.0 136.3,59.0 136.8,58.9 137.3,58.9 137.8,58.9 138.3,58.9 138.8,58.8 139.3,58.8 139.8,58.8 140.2,58.7 140.7,58.7 141.2,58.7 141.7,58.7 142.2,58.7 142.7,58.7 143.2,58.6 143.7,58.6 144.1,58.6 144.6,58.6 145.1,58.5 145.6,58.5 146.1,58.5 146.6,58.5 147.1,58.4 147.6,58.4 148.0,58.4 148.5,58.4 149.0,58.3 149.5,58.3 150.0,58.3 150.5,58.3 151.0,58.3 151.5,58.2 152.0,58.2 152.4,58.2 152.9,58.2 153.4,58.1 153.9,58.1 154.4,58.8 154.9,58.7 155.4,58.4 155.9,58.3 156.3,58.2 156.8,58.0 157.3,57.9 157.8,57.9 158.3,57.8 158.8,57.6 159.3,57.5 159.8,57.5 160.2,57.4 160.7,57.4 161.2,57.3 161.7,57.2 162.2,57.1 162.7,57.1 163.2,57.0 163.7,56.9 164.1,56.9 164.6,56.9 165.1,56.8 165.6,56.8 166.1,56.7 166.6,56.6 167.1,56.6 167.6,56.5 168.0,56.4 168.5,56.4 169.0,56.3 169.5,56.3 170.0,56.2 170.5,56.2 171.0,56.1 171.5,56.0 172.0,55.9 172.4,55.8 172.9,55.8 173.4,55.7 173.9,55.7 174.4,55.6 174.9,55.5 175.4,55.5 175.9,55.4 176.3,55.3 176.8,55.3 177.3,55.2 177.8,55.2 178.3,55.2 178.8,55.2 179.3,55.1 179.8,55.1 180.2,55.0 180.7,55.0 181.2,55.0 181.7,54.9 182.2,54.9 182.7,54.9 183.2,54.8 183.7,54.8 184.1,54.8 184.6,54.8 185.1,54.7 185.6,54.7 186.1,54.7 186.6,54.7 187.1,54.6 187.6,54.6 188.0,54.6 188.5,54.5 189.0,54.5 189.5,54.5 190.0,54.5 190.5,54.4 191.0,54.4 191.5,54.4 192.0,54.4 192.4,54.4 192.9,54.3 193.4,54.3 193.9,54.3 194.4,54.2 194.9,54.2 195.4,54.2 195.9,54.1 196.3,54.1 196.8,54.1 197.3,54.0 197.8,54.0 198.3,54.0 198.8,53.9 199.3,53.9 199.8,53.8 200.2,53.8 200.7,53.8 201.2,53.7 201.7,53.7 202.2,53.7 202.7,53.7 203.2,53.6 203.7,53.6 204.1,53.6 204.6,53.6 205.1,53.5 205.6,53.5 206.1,53.4 206.6,53.4 207.1,53.4 207.6,53.3 208.0,53.3 208.5,53.3 209.0,53.3 209.5,53.2 210.0,53.2 210.5,53.2 211.0,53.2 211.5,53.1 212.0,53.1 212.4,53.1 212.9,53.0 213.4,53.0 213.9,53.0 214.4,53.0 214.9,53.0 215.4,52.9 215.9,52.9 216.3,52.9 216.8,52.9 217.3,52.8 217.8,52.8 218.3,52.8 218.8,52.7 219.3,52.7 219.8,52.7 220.2,52.7 220.7,52.7 221.2,52.6 221.7,52.6 222.2,52.6 222.7,52.5 223.2,52.5 223.7,52.5 224.1,52.4 224.6,52.4 225.1,52.4 225.6,52.4 226.1,52.4 226.6,52.4 227.1,52.3 227.6,52.3 228.0,52.3 228.5,52.3 229.0,52.2 229.5,52.2 230.0,52.2 230.5,52.2 231.0,52.1 231.5,52.1 232.0,52.1 232.4,52.1 232.9,52.1 233.4,52.0 233.9,52.0 234.4,52.0 234.9,51.9 235.4,51.9 235.9,51.9 236.3,51.8 236.8,51.8 237.3,51.8 237.8,51.7 238.3,51.7 238.8,51.7 239.3,51.7 239.8,51.7 240.2,51.6 240.7,51.6 241.2,51.6 241.7,51.5 242.2,51.5 242.7,51.5 243.2,51.5 243.7,51.4 244.1,51.4 244.6,51.4 245.1,51.4 245.6,51.4 246.1,51.3 246.6,51.3 247.1,51.3 247.6,51.2 248.0,51.2 248.5,51.2 249.0,51.2 249.5,51.2 250.0,51.2 250.5,51.2 251.0,51.1 251.5,51.1 252.0,51.1 252.4,51.1 252.9,51.0 253.4,51.0 253.9,51.0 254.4,51.0 254.9,51.0 255.4,51.0 255.9,50.9 256.3,50.9 256.8,50.9 257.3,53.3 257.8,53.1 258.3,52.9 258.8,52.7 259.3,52.6 259.8,52.5 260.2,52.4 260.7,52.3 261.2,52.3 261.7,52.2 262.2,52.1 262.7,52.0 263.2,51.8 263.7,51.8 264.1,51.7 264.6,51.6 265.1,51.5 265.6,51.5 266.1,51.4 266.6,51.4 267.1,51.3 267.6,51.3 268.0,51.2 268.5,51.2 269.0,51.1 269.5,51.1 270.0,51.0 270.5,51.0 271.0,50.9 271.5,50.9 272.0,50.8 272.4,50.8 272.9,50.8 273.4,50.8 273.9,50.8 274.4,50.7 274.9,50.7 275.4,50.7 275.9,50.7 276.3,50.7 276.8,50.7 277.3,50.6 277.8,50.6 278.3,50.6 278.8,50.5 279.3,50.5 279.8,50.5 280.2,50.5 280.7,50.4 281.2,50.4 281.7,50.3 282.2,50.3 282.7,50.2 283.2,50.2 283.7,50.2 284.1,50.2 284.6,50.1 285.1,50.1 285.6,50.1 286.1,50.0 286.6,50.0 287.1,50.0 287.6,49.9 288.0,49.9 288.5,49.9 289.0,49.9 289.5,49.8 290.0,49.8 290.5,49.8 291.0,49.7 291.5,49.7 292.0,49.7 292.4,49.7 292.9,49.6 293.4,49.6 293.9,49.6 294.4,49.5 294.9,49.5 295.4,49.5 295.9,49.5 296.3,49.4 296.8,49.4 297.3,49.4 297.8,49.3 298.3,49.3 298.8,49.3 299.3,49.2 299.8,49.2 300.2,49.2 300.7,49.1 301.2,49.1 301.7,49.1 302.2,49.1 302.7,49.1 303.2,49.0 303.7,49.0 304.1,49.0 304.6,48.9 305.1,48.9 305.6,48.9 306.1,48.9 306.6,48.8 307.1,48.8 307.6,48.8 308.0,48.8 308.5,48.8 309.0,48.8 309.5,48.8 310.0,48.8 310.5,48.7 311.0,48.7 311.5,48.7 312.0,48.7 312.4,48.6 312.9,48.6 313.4,48.6 313.9,48.6 314.4,48.6 314.9,48.6 315.4,48.6 315.9,48.5 316.3,48.5 316.8,48.5 317.3,48.4 317.8,48.4 318.3,48.4 318.8,48.4 319.3,48.4 319.8,48.3 320.2,48.3 320.7,48.3 321.2,48.3 321.7,48.2 322.2,48.2 322.7,48.2 323.2,48.2 323.7,48.1 324.1,48.1 324.6,48.1 325.1,48.1 325.6,48.1 326.1,48.0 326.6,48.0 327.1,48.0 327.6,48.0 328.0,47.9 328.5,47.9 329.0,47.8 329.5,47.8 330.0,47.8 330.5,47.8 331.0,47.8 331.5,47.7 332.0,47.7 332.4,47.7 332.9,47.7 333.4,47.6 333.9,47.6 334.4,47.6 334.9,47.6 335.4,47.6 335.9,47.6 336.3,47.6 336.8,47.5 337.3,47.5 337.8,47.5 338.3,47.5 338.8,47.5 339.3,47.5 339.8,47.4 340.2,47.4 340.7,47.4 341.2,47.4 341.7,47.4 342.2,47.3 342.7,47.3 343.2,47.3 343.7,47.3 344.1,47.3 344.6,47.3 345.1,47.2 345.6,47.2 346.1,47.2 346.6,47.2 347.1,47.2 347.6,47.2 348.0,47.1 348.5,47.1 349.0,47.1 349.5,47.1 350.0,47.1 350.5,47.1 351.0,47.0 351.5,47.0 352.0,47.0 352.4,47.0 352.9,47.0 353.4,47.0 353.9,47.0 354.4,47.0 354.9,47.0 355.4,46.9 355.9,46.9 356.3,46.9 356.8,46.9 357.3,47.6 357.8,47.4 358.3,47.3 358.8,47.2 359.3,47.0 359.8,46.9 360.2,46.8 360.7,46.7 361.2,46.6 361.7,46.5 362.2,46.4 362.7,46.3 363.2,46.2 363.7,46.2 364.1,46.1 364.6,46.1 365.1,46.1 365.6,46.0 366.1,46.0 366.6,45.9 367.1,45.9 367.6,45.8 368.0,45.7 368.5,45.7 369.0,45.6 369.5,45.6 370.0,45.6 370.5,45.6 371.0,45.5 371.5,45.5 372.0,45.4 372.4,45.4 372.9,45.4 373.4,45.3 373.9,45.2 374.4,45.2 374.9,45.2 375.4,45.1 375.9,120.0 376.3,45.1 376.8,45.1 377.3,45.0 377.8,45.0 378.3,44.9 378.8,44.9 379.3,44.9 379.8,44.8 380.2,44.8 380.7,44.7 381.2,44.7 381.7,44.7 382.2,44.6 382.7,44.6 383.2,44.6 383.7,44.6 384.1,44.5 384.6,44.5 385.1,44.5 385.6,44.4 386.1,44.4 386.6,44.4 387.1,44.3 387.6,44.3 388.0,44.3 388.5,44.3 389.0,44.3 389.5,44.2 390.0,44.2 390.5,120.0 391.0,44.1 391.5,44.1 392.0,44.0 392.4,44.0 392.9,44.0 393.4,44.0 393.9,44.0 394.4,43.9 394.9,43.9 395.4,43.9 395.9,43.8 396.3,43.8 396.8,43.7 397.3,43.7 397.8,43.6 398.3,43.6 398.8,43.6 399.3,43.6 399.8,43.5 400.2,43.5 400.7,43.5 401.2,43.4 401.7,43.4 402.2,43.3 402.7,43.3 403.2,43.2 403.7,43.2 404.1,43.2 404.6,43.1 405.1,43.1 405.6,43.1 406.1,43.0 406.6,43.0 407.1,43.0 407.6,42.9 408.0,42.9 408.5,42.8 409.0,42.8 409.5,42.8 410.0,42.7 410.5,42.7 411.0,42.7 411.5,42.7 412.0,42.7 412.4,42.6 412.9,42.6 413.4,42.6 413.9,42.5 414.4,42.5 414.9,42.5 415.4,42.4 415.9,42.4 416.3,42.4 416.8,42.4 417.3,42.4 417.8,42.3 418.3,42.3 418.8,42.3 419.3,42.3 419.8,42.2 420.2,42.1 420.7,41.9 421.2,41.8 421.7,41.6 422.2,41.6 422.7,41.4 423.2,41.4 423.7,41.3 424.1,41.2 424.6,41.1 425.1,41.0 425.6,41.1 426.1,40.9 426.6,40.7 427.1,40.5 427.6,40.4 428.0,40.3 428.5,40.2 429.0,40.2 429.5,40.1 430.0,40.0 430.5,39.9 431.0,39.8 431.5,39.7 432.0,39.6 432.4,39.5 432.9,39.4 433.4,39.4 433.9,39.4 434.4,39.3 434.9,39.2 435.4,39.2 435.9,39.1 436.3,39.1 436.8,39.0 437.3,38.9 437.8,38.8 438.3,38.8 438.8,38.7 439.3,38.7 439.8,38.6 440.2,38.6 440.7,38.5 441.2,38.5 441.7,38.5 442.2,38.8 442.7,38.6 443.2,38.4 443.7,38.2 444.1,38.1 444.6,37.9 445.1,37.8 445.6,37.8 446.1,37.6 446.6,37.4 447.1,37.3 447.6,37.1 448.0,38.9 448.5,38.7 449.0,38.4 449.5,38.1 450.0,37.8 450.5,37.6 451.0,37.6 451.5,37.5 452.0,37.5 452.4,37.4 452.9,37.4 453.4,37.3 453.9,37.2 454.4,37.1 454.9,37.0 455.4,36.9 455.9,36.8 456.3,36.7 456.8,36.6 457.3,36.6 457.8,36.5 458.3,36.5 458.8,36.4 459.3,36.3 459.8,36.2 460.2,36.1 460.7,36.0 461.2,36.0 461.7,35.9 462.2,35.8 462.7,35.7 463.2,35.6 463.7,35.5 464.1,35.4 464.6,35.4 465.1,35.3 465.6,35.3 466.1,35.2 466.6,35.1 467.1,35.0 467.6,34.9 468.0,34.8 468.5,34.8 469.0,34.7 469.5,34.7 470.0,34.7 470.5,34.7 471.0,34.6 471.5,34.6 472.0,34.6 472.4,34.5 472.9,34.5 473.4,34.4 473.9,34.4 474.4,34.3 474.9,34.3 475.4,34.3 475.9,34.3 476.3,34.2 476.8,34.2 477.3,34.2 477.8,34.2 478.3,34.1 478.8,34.1 479.3,34.1 479.8,34.0 480.2,34.0 480.7,34.0 481.2,34.0 481.7,33.9 482.2,33.9 482.7,33.9 483.2,33.9 483.7,33.9 484.1,33.8 484.6,33.8 485.1,33.7 485.6,33.7 486.1,33.7 486.6,33.7 487.1,33.6 487.6,33.6 488.0,33.6 488.5,33.6 489.0,33.5 489.5,33.5 490.0,33.5 490.5,33.5 491.0,33.4 491.5,33.4 492.0,33.4 492.4,33.3 492.9,33.3 493.4,33.3 493.9,33.3 494.4,33.3 494.9,33.2 495.4,33.2 495.9,33.2 496.3,33.1 496.8,33.1 497.3,33.1 497.8,33.1 498.3,33.0 498.8,33.0 499.3,33.0 499.8,33.0 500.2,32.9 500.7,32.9 501.2,32.9 501.7,32.9 502.2,32.8 502.7,32.8 503.2,32.8 503.7,32.7 504.1,32.7 504.6,32.7 505.1,32.7 505.6,32.7 506.1,32.7 506.6,32.6 507.1,32.6 507.6,32.6 508.0,32.5 508.5,32.5 509.0,32.5 509.5,32.5 510.0,32.5 510.5,32.5 511.0,32.4 511.5,32.4 512.0,32.4 512.4,32.4 512.9,32.4 513.4,32.3 513.9,32.3 514.4,32.2 514.9,32.2 515.4,32.2 515.9,32.2 516.3,32.2 516.8,32.2 517.3,32.2 517.8,32.1 518.3,32.1 518.8,32.1 519.3,32.1 519.8,32.0 520.2,32.0 520.7,32.0 521.2,32.0 521.7,32.0 522.2,31.9 522.7,31.9 523.2,31.9 523.7,31.9 524.1,31.9 524.6,31.9 525.1,31.9 525.6,31.8 526.1,31.8 526.6,31.8 527.1,31.8 527.6,31.7 528.0,31.7 528.5,31.7 529.0,31.7 529.5,31.7 530.0,34.2 530.5,34.0 531.0,33.8 531.5,33.6 532.0,33.4 532.4,33.3 532.9,33.2 533.4,33.1 533.9,33.0 534.4,33.0 534.9,32.9 535.4,32.9 535.9,32.8 536.3,32.7 536.8,32.6 537.3,32.5 537.8,32.5 538.3,32.4 538.8,32.3 539.3,32.3 539.8,32.3 540.2,32.2 540.7,32.2 541.2,32.2 541.7,32.1 542.2,32.1 542.7,32.0 543.2,31.9 543.7,31.9 544.1,31.8 544.6,31.8 545.1,31.7 545.6,31.7 546.1,31.7 546.6,31.6 547.1,31.5 547.6,31.5 548.0,31.5 548.5,31.4 549.0,31.4 549.5,31.3 550.0,31.3 550.5,31.2 551.0,31.2 551.5,31.2 552.0,31.1 552.4,31.1 552.9,31.1 553.4,31.0 553.9,31.0 554.4,31.0 554.9,30.9 555.4,30.9 555.9,30.8 556.3,30.8 556.8,30.8 557.3,30.7 557.8,30.7 558.3,30.7 558.8,30.6 559.3,30.6 559.8,30.6 560.2,30.5 560.7,30.5 561.2,30.5 561.7,30.4 562.2,30.4 562.7,30.4 563.2,30.4 563.7,30.3 564.1,30.3 564.6,30.3 565.1,30.3 565.6,30.3 566.1,30.2 566.6,30.2 567.1,30.1 567.6,30.1 568.0,30.1 568.5,30.1 569.0,30.0 569.5,30.0 570.0,30.0 570.0,30.0,120" />
  
  <!-- Linea principale -->
  <polyline fill="none" stroke="#0366d6" stroke-width="2.5" stroke-linecap="round" stroke-linejoin="round" points="30.0,67.8 30.5,67.7 31.0,67.6 31.5,67.5 32.0,67.5 32.4,67.5 32.9,67.4 33.4,67.3 33.9,67.3 34.4,67.2 34.9,67.1 35.4,67.1 35.9,67.0 36.3,67.0 36.8,66.9 37.3,66.8 37.8,66.8 38.3,66.7 38.8,66.7 39.3,66.7 39.8,66.6 40.2,66.6 40.7,66.5 41.2,66.5 41.7,66.3 42.2,66.3 42.7,66.2 43.2,66.1 43.7,66.1 44.1,66.0 44.6,66.0 45.1,66.0 45.6,65.9 46.1,65.8 46.6,65.8 47.1,65.7 47.6,65.7 48.0,65.7 48.5,65.6 49.0,65.6 49.5,65.6 50.0,65.5 50.5,65.5 51.0,65.4 51.5,65.4 52.0,65.3 52.4,65.3 52.9,65.3 53.4,65.2 53.9,65.2 54.4,65.1 54.9,65.0 55.4,65.0 55.9,65.0 56.3,64.9 56.8,64.9 57.3,64.8 57.8,64.7 58.3,64.7 58.8,64.7 59.3,64.7 59.8,64.6 60.2,64.5 60.7,64.5 61.2,64.4 61.7,64.4 62.2,64.3 62.7,64.3 63.2,64.3 63.7,64.2 64.1,64.2 64.6,64.2 65.1,64.2 65.6,64.1 66.1,64.1 66.6,64.1 67.1,64.1 67.6,64.0 68.0,64.0 68.5,64.0 69.0,63.9 69.5,63.9 70.0,63.9 70.5,65.0 71.0,64.9 71.5,64.8 72.0,64.7 72.4,64.4 72.9,64.2 73.4,64.0 73.9,63.9 74.4,63.8 74.9,63.6 75.4,63.5 75.9,63.3 76.3,63.3 76.8,63.2 77.3,63.1 77.8,63.0 78.3,63.0 78.8,62.9 79.3,62.9 79.8,62.9 80.2,62.8 80.7,62.7 81.2,62.6 81.7,62.6 82.2,62.5 82.7,62.4 83.2,62.4 83.7,62.3 84.1,62.3 84.6,62.2 85.1,62.1 85.6,62.1 86.1,62.1 86.6,62.1 87.1,62.0 87.6,62.0 88.0,61.9 88.5,61.9 89.0,61.9 89.5,61.8 90.0,61.8 90.5,61.8 91.0,61.8 91.5,61.7 92.0,61.7 92.4,61.6 92.9,61.6 93.4,61.5 93.9,61.5 94.4,61.5 94.9,61.5 95.4,61.4 95.9,61.3 96.3,61.3 96.8,61.2 97.3,61.2 97.8,61.2 98.3,61.2 98.8,61.1 99.3,61.1 99.8,61.0 100.2,61.0 100.7,61.0 101.2,61.0 101.7,60.9 102.2,60.9 102.7,60.9 103.2,60.9 103.7,60.8 104.1,60.8 104.6,60.8 105.1,60.8 105.6,60.7 106.1,60.7 106.6,60.7 107.1,60.6 107.6,60.6 108.0,60.6 108.5,60.5 109.0,60.5 109.5,60.5 110.0,60.4 110.5,60.4 111.0,60.4 111.5,60.3 112.0,60.3 112.4,60.2 112.9,60.2 113.4,60.2 113.9,60.2 114.4,60.2 114.9,60.1 115.4,60.1 115.9,60.1 116.3,60.0 116.8,60.0 117.3,60.0 117.8,60.0 118.3,60.0 118.8,59.9 119.3,59.9 119.8,59.8 120.2,59.8 120.7,59.8 121.2,59.8 121.7,59.8 122.2,59.7 122.7,59.7 123.2,59.7 123.7,59.6 124.1,59.6 124.6,59.6 125.1,59.5 125.6,59.5 126.1,59.5 126.6,59.5 127.1,59.4 127.6,59.4 128.0,59.4 128.5,59.4 129.0,59.3 129.5,59.3 130.0,59.3 130.5,59.3 131.0,59.2 131.5,59.2 132.0,59.2 132.4,59.1 132.9,59.1 133.4,59.1 133.9,59.1 134.4,59.1 134.9,59.0 135.4,59.0 135.9,59.0 136.3,59.0 136.8,58.9 137.3,58.9 137.8,58.9 138.3,58.9 138.8,58.8 139.3,58.8 139.8,58.8 140.2,58.7 140.7,58.7 141.2,58.7 141.7,58.7 142.2,58.7 142.7,58.7 143.2,58.6 143.7,58.6 144.1,58.6 144.6,58.6 145.1,58.5 145.6,58.5 146.1,58.5 146.6,58.5 147.1,58.4 147.6,58.4 148.0,58.4 148.5,58.4 149.0,58.3 149.5,58.3 150.0,58.3 150.5,58.3 151.0,58.3 151.5,58.2 152.0,58.2 152.4,58.2 152.9,58.2 153.4,58.1 153.9,58.1 154.4,58.8 154.9,58.7 155.4,58.4 155.9,58.3 156.3,58.2 156.8,58.0 157.3,57.9 157.8,57.9 158.3,57.8 158.8,57.6 159.3,57.5 159.8,57.5 160.2,57.4 160.7,57.4 161.2,57.3 161.7,57.2 162.2,57.1 162.7,57.1 163.2,57.0 163.7,56.9 164.1,56.9 164.6,56.9 165.1,56.8 165.6,56.8 166.1,56.7 166.6,56.6 167.1,56.6 167.6,56.5 168.0,56.4 168.5,56.4 169.0,56.3 169.5,56.3 170.0,56.2 170.5,56.2 171.0,56.1 171.5,56.0 172.0,55.9 172.4,55.8 172.9,55.8 173.4,55.7 173.9,55.7 174.4,55.6 174.9,55.5 175.4,55.5 175.9,55.4 176.3,55.3 176.8,55.3 177.3,55.2 177.8,55.2 178.3,55.2 178.8,55.2 179.3,55.1 179.8,55.1 180.2,55.0 180.7,55.0 181.2,55.0 181.7,54.9 182.2,54.9 182.7,54.9 183.2,54.8 183.7,54.8 184.1,54.8 184.6,54.8 185.1,54.7 185.6,54.7 186.1,54.7 186.6,54.7 187.1,54.6 187.6,54.6 188.0,54.6 188.5,54.5 189.0,54.5 189.5,54.5 190.0,54.5 190.5,54.4 191.0,54.4 191.5,54.4 192.0,54.4 192.4,54.4 192.9,54.3 193.4,54.3 193.9,54.3 194.4,54.2 194.9,54.2 195.4,54.2 195.9,54.1 196.3,54.1 196.8,54.1 197.3,54.0 197.8,54.0 198.3,54.0 198.8,53.9 199.3,53.9 199.8,53.8 200.2,53.8 200.7,53.8 201.2,53.7 201.7,53.7 202.2,53.7 202.7,53.7 203.2,53.6 203.7,53.6 204.1,53.6 204.6,53.6 205.1,53.5 205.6,53.5 206.1,53.4 206.6,53.4 207.1,53.4 207.6,53.3 208.0,53.3 208.5,53.3 209.0,53.3 209.5,53.2 210.0,53.2 210.5,53.2 211.0,53.2 211.5,53.1 212.0,53.1 212.4,53.1 212.9,53.0 213.4,53.0 213.9,53.0 214.4,53.0 214.9,53.0 215.4,52.9 215.9,52.9 216.3,52.9 216.8,52.9 217.3,52.8 217.8,52.8 218.3,52.8 218.8,52.7 219.3,52.7 219.8,52.7 220.2,52.7 220.7,52.7 221.2,52.6 221.7,52.6 222.2,52.6 222.7,52.5 223.2,52.5 223.7,52.5 224.1,52.4 224.6,52.4 225.1,52.4 225.6,52.4 226.1,52.4 226.6,52.4 227.1,52.3 227.6,52.3 228.0,52.3 228.5,52.3 229.0,52.2 229.5,52.2 230.0,52.2 230.5,52.2 231.0,52.1 231.5,52.1 232.0,52.1 232.4,52.1 232.9,52.1 233.4,52.0 233.9,52.0 234.4,52.0 234.9,51.9 235.4,51.9 235.9,51.9 236.3,51.8 236.8,51.8 237.3,51.8 237.8,51.7 238.3,51.7 238.8,51.7 239.3,51.7 239.8,51.7 240.2,51.6 240.7,51.6 241.2,51.6 241.7,51.5 242.2,51.5 242.7,51.5 243.2,51.5 243.7,51.4 244.1,51.4 244.6,51.4 245.1,51.4 245.6,51.4 246.1,51.3 246.6,51.3 247.1,51.3 247.6,51.2 248.0,51.2 248.5,51.2 249.0,51.2 249.5,51.2 250.0,51.2 250.5,51.2 251.0,51.1 251.5,51.1 252.0,51.1 252.4,51.1 252.9,51.0 253.4,51.0 253.9,51.0 254.4,51.0 254.9,51.0 255.4,51.0 255.9,50.9 256.3,50.9 256.8,50.9 257.3,53.3 257.8,53.1 258.3,52.9 258.8,52.7 259.3,52.6 259.8,52.5 260.2,52.4 260.7,52.3 261.2,52.3 261.7,52.2 262.2,52.1 262.7,52.0 263.2,51.8 263.7,51.8 264.1,51.7 264.6,51.6 265.1,51.5 265.6,51.5 266.1,51.4 266.6,51.4 267.1,51.3 267.6,51.3 268.0,51.2 268.5,51.2 269.0,51.1 269.5,51.1 270.0,51.0 270.5,51.0 271.0,50.9 271.5,50.9 272.0,50.8 272.4,50.8 272.9,50.8 273.4,50.8 273.9,50.8 274.4,50.7 274.9,50.7 275.4,50.7 275.9,50.7 276.3,50.7 276.8,50.7 277.3,50.6 277.8,50.6 278.3,50.6 278.8,50.5 279.3,50.5 279.8,50.5 280.2,50.5 280.7,50.4 281.2,50.4 281.7,50.3 282.2,50.3 282.7,50.2 283.2,50.2 283.7,50.2 284.1,50.2 284.6,50.1 285.1,50.1 285.6,50.1 286.1,50.0 286.6,50.0 287.1,50.0 287.6,49.9 288.0,49.9 288.5,49.9 289.0,49.9 289.5,49.8 290.0,49.8 290.5,49.8 291.0,49.7 291.5,49.7 292.0,49.7 292.4,49.7 292.9,49.6 293.4,49.6 293.9,49.6 294.4,49.5 294.9,49.5 295.4,49.5 295.9,49.5 296.3,49.4 296.8,49.4 297.3,49.4 297.8,49.3 298.3,49.3 298.8,49.3 299.3,49.2 299.8,49.2 300.2,49.2 300.7,49.1 301.2,49.1 301.7,49.1 302.2,49.1 302.7,49.1 303.2,49.0 303.7,49.0 304.1,49.0 304.6,48.9 305.1,48.9 305.6,48.9 306.1,48.9 306.6,48.8 307.1,48.8 307.6,48.8 308.0,48.8 308.5,48.8 309.0,48.8 309.5,48.8 310.0,48.8 310.5,48.7 311.0,48.7 311.5,48.7 312.0,48.7 312.4,48.6 312.9,48.6 313.4,48.6 313.9,48.6 314.4,48.6 314.9,48.6 315.4,48.6 315.9,48.5 316.3,48.5 316.8,48.5 317.3,48.4 317.8,48.4 318.3,48.4 318.8,48.4 319.3,48.4 319.8,48.3 320.2,48.3 320.7,48.3 321.2,48.3 321.7,48.2 322.2,48.2 322.7,48.2 323.2,48.2 323.7,48.1 324.1,48.1 324.6,48.1 325.1,48.1 325.6,48.1 326.1,48.0 326.6,48.0 327.1,48.0 327.6,48.0 328.0,47.9 328.5,47.9 329.0,47.8 329.5,47.8 330.0,47.8 330.5,47.8 331.0,47.8 331.5,47.7 332.0,47.7 332.4,47.7 332.9,47.7 333.4,47.6 333.9,47.6 334.4,47.6 334.9,47.6 335.4,47.6 335.9,47.6 336.3,47.6 336.8,47.5 337.3,47.5 337.8,47.5 338.3,47.5 338.8,47.5 339.3,47.5 339.8,47.4 340.2,47.4 340.7,47.4 341.2,47.4 341.7,47.4 342.2,47.3 342.7,47.3 343.2,47.3 343.7,47.3 344.1,47.3 344.6,47.3 345.1,47.2 345.6,47.2 346.1,47.2 346.6,47.2 347.1,47.2 347.6,47.2 348.0,47.1 348.5,47.1 349.0,47.1 349.5,47.1 350.0,47.1 350.5,47.1 351.0,47.0 351.5,47.0 352.0,47.0 352.4,47.0 352.9,47.0 353.4,47.0 353.9,47.0 354.4,47.0 354.9,47.0 355.4,46.9 355.9,46.9 356.3,46.9 356.8,46.9 357.3,47.6 357.8,47.4 358.3,47.3 358.8,47.2 359.3,47.0 359.8,46.9 360.2,46.8 360.7,46.7 361.2,46.6 361.7,46.5 362.2,46.4 362.7,46.3 363.2,46.2 363.7,46.2 364.1,46.1 364.6,46.1 365.1,46.1 365.6,46.0 366.1,46.0 366.6,45.9 367.1,45.9 367.6,45.8 368.0,45.7 368.5,45.7 369.0,45.6 369.5,45.6 370.0,45.6 370.5,45.6 371.0,45.5 371.5,45.5 372.0,45.4 372.4,45.4 372.9,45.4 373.4,45.3 373.9,45.2 374.4,45.2 374.9,45.2 375.4,45.1 375.9,120.0 376.3,45.1 376.8,45.1 377.3,45.0 377.8,45.0 378.3,44.9 378.8,44.9 379.3,44.9 379.8,44.8 380.2,44.8 380.7,44.7 381.2,44.7 381.7,44.7 382.2,44.6 382.7,44.6 383.2,44.6 383.7,44.6 384.1,44.5 384.6,44.5 385.1,44.5 385.6,44.4 386.1,44.4 386.6,44.4 387.1,44.3 387.6,44.3 388.0,44.3 388.5,44.3 389.0,44.3 389.5,44.2 390.0,44.2 390.5,120.0 391.0,44.1 391.5,44.1 392.0,44.0 392.4,44.0 392.9,44.0 393.4,44.0 393.9,44.0 394.4,43.9 394.9,43.9 395.4,43.9 395.9,43.8 396.3,43.8 396.8,43.7 397.3,43.7 397.8,43.6 398.3,43.6 398.8,43.6 399.3,43.6 399.8,43.5 400.2,43.5 400.7,43.5 401.2,43.4 401.7,43.4 402.2,43.3 402.7,43.3 403.2,43.2 403.7,43.2 404.1,43.2 404.6,43.1 405.1,43.1 405.6,43.1 406.1,43.0 406.6,43.0 407.1,43.0 407.6,42.9 408.0,42.9 408.5,42.8 409.0,42.8 409.5,42.8 410.0,42.7 410.5,42.7 411.0,42.7 411.5,42.7 412.0,42.7 412.4,42.6 412.9,42.6 413.4,42.6 413.9,42.5 414.4,42.5 414.9,42.5 415.4,42.4 415.9,42.4 416.3,42.4 416.8,42.4 417.3,42.4 417.8,42.3 418.3,42.3 418.8,42.3 419.3,42.3 419.8,42.2 420.2,42.1 420.7,41.9 421.2,41.8 421.7,41.6 422.2,41.6 422.7,41.4 423.2,41.4 423.7,41.3 424.1,41.2 424.6,41.1 425.1,41.0 425.6,41.1 426.1,40.9 426.6,40.7 427.1,40.5 427.6,40.4 428.0,40.3 428.5,40.2 429.0,40.2 429.5,40.1 430.0,40.0 430.5,39.9 431.0,39.8 431.5,39.7 432.0,39.6 432.4,39.5 432.9,39.4 433.4,39.4 433.9,39.4 434.4,39.3 434.9,39.2 435.4,39.2 435.9,39.1 436.3,39.1 436.8,39.0 437.3,38.9 437.8,38.8 438.3,38.8 438.8,38.7 439.3,38.7 439.8,38.6 440.2,38.6 440.7,38.5 441.2,38.5 441.7,38.5 442.2,38.8 442.7,38.6 443.2,38.4 443.7,38.2 444.1,38.1 444.6,37.9 445.1,37.8 445.6,37.8 446.1,37.6 446.6,37.4 447.1,37.3 447.6,37.1 448.0,38.9 448.5,38.7 449.0,38.4 449.5,38.1 450.0,37.8 450.5,37.6 451.0,37.6 451.5,37.5 452.0,37.5 452.4,37.4 452.9,37.4 453.4,37.3 453.9,37.2 454.4,37.1 454.9,37.0 455.4,36.9 455.9,36.8 456.3,36.7 456.8,36.6 457.3,36.6 457.8,36.5 458.3,36.5 458.8,36.4 459.3,36.3 459.8,36.2 460.2,36.1 460.7,36.0 461.2,36.0 461.7,35.9 462.2,35.8 462.7,35.7 463.2,35.6 463.7,35.5 464.1,35.4 464.6,35.4 465.1,35.3 465.6,35.3 466.1,35.2 466.6,35.1 467.1,35.0 467.6,34.9 468.0,34.8 468.5,34.8 469.0,34.7 469.5,34.7 470.0,34.7 470.5,34.7 471.0,34.6 471.5,34.6 472.0,34.6 472.4,34.5 472.9,34.5 473.4,34.4 473.9,34.4 474.4,34.3 474.9,34.3 475.4,34.3 475.9,34.3 476.3,34.2 476.8,34.2 477.3,34.2 477.8,34.2 478.3,34.1 478.8,34.1 479.3,34.1 479.8,34.0 480.2,34.0 480.7,34.0 481.2,34.0 481.7,33.9 482.2,33.9 482.7,33.9 483.2,33.9 483.7,33.9 484.1,33.8 484.6,33.8 485.1,33.7 485.6,33.7 486.1,33.7 486.6,33.7 487.1,33.6 487.6,33.6 488.0,33.6 488.5,33.6 489.0,33.5 489.5,33.5 490.0,33.5 490.5,33.5 491.0,33.4 491.5,33.4 492.0,33.4 492.4,33.3 492.9,33.3 493.4,33.3 493.9,33.3 494.4,33.3 494.9,33.2 495.4,33.2 495.9,33.2 496.3,33.1 496.8,33.1 497.3,33.1 497.8,33.1 498.3,33.0 498.8,33.0 499.3,33.0 499.8,33.0 500.2,32.9 500.7,32.9 501.2,32.9 501.7,32.9 502.2,32.8 502.7,32.8 503.2,32.8 503.7,32.7 504.1,32.7 504.6,32.7 505.1,32.7 505.6,32.7 506.1,32.7 506.6,32.6 507.1,32.6 507.6,32.6 508.0,32.5 508.5,32.5 509.0,32.5 509.5,32.5 510.0,32.5 510.5,32.5 511.0,32.4 511.5,32.4 512.0,32.4 512.4,32.4 512.9,32.4 513.4,32.3 513.9,32.3 514.4,32.2 514.9,32.2 515.4,32.2 515.9,32.2 516.3,32.2 516.8,32.2 517.3,32.2 517.8,32.1 518.3,32.1 518.8,32.1 519.3,32.1 519.8,32.0 520.2,32.0 520.7,32.0 521.2,32.0 521.7,32.0 522.2,31.9 522.7,31.9 523.2,31.9 523.7,31.9 524.1,31.9 524.6,31.9 525.1,31.9 525.6,31.8 526.1,31.8 526.6,31.8 527.1,31.8 527.6,31.7 528.0,31.7 528.5,31.7 529.0,31.7 529.5,31.7 530.0,34.2 530.5,34.0 531.0,33.8 531.5,33.6 532.0,33.4 532.4,33.3 532.9,33.2 533.4,33.1 533.9,33.0 534.4,33.0 534.9,32.9 535.4,32.9 535.9,32.8 536.3,32.7 536.8,32.6 537.3,32.5 537.8,32.5 538.3,32.4 538.8,32.3 539.3,32.3 539.8,32.3 540.2,32.2 540.7,32.2 541.2,32.2 541.7,32.1 542.2,32.1 542.7,32.0 543.2,31.9 543.7,31.9 544.1,31.8 544.6,31.8 545.1,31.7 545.6,31.7 546.1,31.7 546.6,31.6 547.1,31.5 547.6,31.5 548.0,31.5 548.5,31.4 549.0,31.4 549.5,31.3 550.0,31.3 550.5,31.2 551.0,31.2 551.5,31.2 552.0,31.1 552.4,31.1 552.9,31.1 553.4,31.0 553.9,31.0 554.4,31.0 554.9,30.9 555.4,30.9 555.9,30.8 556.3,30.8 556.8,30.8 557.3,30.7 557.8,30.7 558.3,30.7 558.8,30.6 559.3,30.6 559.8,30.6 560.2,30.5 560.7,30.5 561.2,30.5 561.7,30.4 562.2,30.4 562.7,30.4 563.2,30.4 563.7,30.3 564.1,30.3 564.6,30.3 565.1,30.3 565.6,30.3 566.1,30.2 566.6,30.2 567.1,30.1 567.6,30.1 568.0,30.1 568.5,30.1 569.0,30.0 569.5,30.0 570.0,30.0" />
  
  <!-- Punto finale luminoso -->
  <circle cx="570.0" cy="30.0" r="4" fill="#ffffff" stroke="#0366d6" stroke-width="2.5" />
</svg>