<svg width="600" height="150" viewBox="0 0 600 150" xmlns="http://www.w3.org/2000/svg">
  <defs>
    <filter id="shadow2" x="-2%" y="-2%" width="104%" height="108%">
      <feDropShadow dx="0" dy="2" stdDeviation="3" flood-opacity="0.1" />
    </filter>
    <linearGradient id="fillGrad" x1="0" y1="0" x2="0" y2="1">
      <stop offset="0%" stop-color="#0366d6" stop-opacity="0.3"/>
      <stop offset="100%" stop-color="#0366d6" stop-opacity="0.02"/>
    </linearGradient>
  </defs>
  <rect width="600" height="150" rx="12" fill="#ffffff" filter="url(#shadow2)" stroke="#e1e4e8" stroke-width="1"/>
  <text x="20" y="24" fill="#2b3137" font-family="-apple-system,BlinkMacSystemFont,'Segoe UI',Helvetica,Arial,sans-serif" font-size="14" font-weight="600">📈 Download Growth (Actual: 84.7k)</text>
  
  <!-- Area sotto la linea -->
  <polygon fill="url(#fillGrad)" points="30.0,120.0,120 30.0,120.0 31.6,119.4 33.1,118.8 34.7,118.3 36.2,118.1 37.8,117.9 39.3,117.2 40.9,116.8 42.4,116.5 44.0,115.8 45.6,115.5 47.1,115.1 48.7,114.9 50.2,114.6 51.8,114.2 53.3,113.7 54.9,113.3 56.5,113.1 58.0,112.9 59.6,112.6 61.1,112.2 62.7,111.9 64.2,111.8 65.8,111.5 67.3,110.4 68.9,110.1 70.5,109.7 72.0,109.2 73.6,108.9 75.1,108.5 76.7,108.3 78.2,108.1 79.8,107.8 81.4,107.3 82.9,106.8 84.5,106.5 86.0,106.2 87.6,106.1 89.1,106.0 90.7,105.8 92.2,105.5 93.8,105.3 95.4,105.1 96.9,104.7 98.5,104.2 100.0,104.0 101.6,103.9 103.1,103.7 104.7,103.2 106.3,102.9 107.8,102.5 109.4,102.1 110.9,101.7 112.5,101.6 114.0,101.4 115.6,101.0 117.1,100.5 118.7,100.2 120.3,100.0 121.8,99.8 123.4,99.6 124.9,99.2 126.5,98.7 128.0,98.3 129.6,97.9 131.2,97.7 132.7,97.6 134.3,97.4 135.8,97.1 137.4,96.9 138.9,96.7 140.5,96.5 142.0,96.4 143.6,96.2 145.2,96.0 146.7,95.9 148.3,95.8 149.8,95.4 151.4,95.1 152.9,95.1 154.5,94.9 156.1,94.8 157.6,94.8 159.2,102.0 160.7,101.3 162.3,100.7 163.8,100.0 165.4,98.0 166.9,96.7 168.5,95.2 170.1,94.7 171.6,94.0 173.2,93.0 174.7,91.9 176.3,91.1 177.8,90.8 179.4,90.5 181.0,89.7 182.5,89.2 184.1,88.8 185.6,88.3 187.2,88.1 188.7,88.1 190.3,87.6 191.8,87.0 193.4,86.5 195.0,86.0 196.5,85.5 198.1,85.2 199.6,85.0 201.2,84.6 202.7,84.1 204.3,83.7 205.9,83.4 207.4,83.3 209.0,83.2 210.5,82.9 212.1,82.6 213.6,82.3 215.2,82.1 216.7,81.8 218.3,81.6 219.9,81.4 221.4,81.2 223.0,81.1 224.5,80.9 226.1,80.5 227.6,80.2 229.2,79.9 230.7,79.7 232.3,79.5 233.9,79.4 235.4,79.2 237.0,79.0 238.5,78.5 240.1,78.2 241.6,77.7 243.2,77.6 244.8,77.5 246.3,77.3 247.9,77.1 249.4,76.8 251.0,76.6 252.5,76.3 254.1,76.0 255.6,75.9 257.2,75.8 258.8,75.6 260.3,75.5 261.9,75.3 263.4,75.1 265.0,74.8 266.5,74.6 268.1,74.5 269.7,74.4 271.2,74.3 272.8,74.0 274.3,73.8 275.9,73.5 277.4,73.3 279.0,73.1 280.5,72.9 282.1,72.8 283.7,72.7 285.2,72.4 286.8,72.1 288.3,71.8 289.9,71.6 291.4,71.2 293.0,71.1 294.6,71.0 296.1,70.9 297.7,70.7 299.2,70.5 300.8,70.3 302.3,70.1 303.9,70.0 305.4,69.8 307.0,69.6 308.6,69.5 310.1,69.4 311.7,69.2 313.2,68.9 314.8,68.8 316.3,68.6 317.9,68.5 319.5,68.3 321.0,68.1 322.6,68.0 324.1,67.9 325.7,67.7 327.2,67.4 328.8,67.1 330.3,66.9 331.9,66.7 333.5,66.6 335.0,66.5 336.6,66.3 338.1,66.0 339.7,65.9 341.2,65.8 342.8,65.6 344.4,65.4 345.9,65.2 347.5,65.1 349.0,65.0 350.6,64.7 352.1,64.5 353.7,64.3 355.2,64.1 356.8,64.0 358.4,63.9 359.9,63.8 361.5,63.7 363.0,63.5 364.6,63.3 366.1,63.1 367.7,62.9 369.3,62.8 370.8,62.7 372.4,62.5 373.9,62.4 375.5,62.2 377.0,61.9 378.6,61.8 380.1,61.6 381.7,61.5 383.3,61.3 384.8,61.2 386.4,61.1 387.9,61.0 389.5,60.9 391.0,60.6 392.6,60.5 394.1,60.3 395.7,60.2 397.3,60.0 398.8,59.9 400.4,59.7 401.9,59.6 403.5,59.4 405.0,59.3 406.6,59.1 408.2,58.9 409.7,58.8 411.3,58.7 412.8,58.6 414.4,58.5 415.9,58.3 417.5,58.2 419.0,58.1 420.6,58.0 422.2,57.9 423.7,57.5 425.3,57.3 426.8,62.0 428.4,61.1 429.9,59.3 431.5,58.6 433.1,57.8 434.6,56.8 436.2,56.2 437.7,55.9 439.3,55.2 440.8,54.2 442.4,53.4 443.9,53.2 445.5,52.8 447.1,52.5 448.6,51.9 450.2,51.4 451.7,50.9 453.3,50.6 454.8,50.1 456.4,49.8 458.0,49.5 459.5,49.2 461.1,49.0 462.6,48.7 464.2,48.2 465.7,47.8 467.3,47.4 468.8,46.7 470.4,46.3 472.0,46.1 473.5,45.9 475.1,45.7 476.6,45.3 478.2,44.9 479.7,44.6 481.3,43.6 482.9,42.9 484.4,42.5 486.0,42.3 487.5,42.0 489.1,41.5 490.6,41.1 492.2,40.5 493.7,40.2 495.3,39.8 496.9,39.5 498.4,39.0 500.0,38.8 501.5,38.6 503.1,38.4 504.6,38.2 506.2,37.9 507.8,37.8 509.3,37.5 510.9,37.3 512.4,37.1 514.0,36.8 515.5,36.6 517.1,36.4 518.6,36.2 520.2,36.0 521.8,35.9 523.3,35.7 524.9,35.6 526.4,35.4 528.0,35.3 529.5,35.1 531.1,34.9 532.7,34.7 534.2,34.5 535.8,34.3 537.3,34.1 538.9,33.9 540.4,33.8 542.0,33.7 543.5,33.5 545.1,33.3 546.7,33.2 548.2,33.1 549.8,32.9 551.3,32.7 552.9,32.5 554.4,32.3 556.0,32.0 557.6,31.9 559.1,31.6 560.7,31.4 562.2,31.2 563.8,31.0 565.3,30.7 566.9,30.5 568.4,30.2 570.0,30.0 570.0,30.0,120" />
  
  <!-- Linea principale -->
  <polyline fill="none" stroke="#0366d6" stroke-width="2.5" stroke-linecap="round" stroke-linejoin="round" points="30.0,120.0 31.6,119.4 33.1,118.8 34.7,118.3 36.2,118.1 37.8,117.9 39.3,117.2 40.9,116.8 42.4,116.5 44.0,115.8 45.6,115.5 47.1,115.1 48.7,114.9 50.2,114.6 51.8,114.2 53.3,113.7 54.9,113.3 56.5,113.1 58.0,112.9 59.6,112.6 61.1,112.2 62.7,111.9 64.2,111.8 65.8,111.5 67.3,110.4 68.9,110.1 70.5,109.7 72.0,109.2 73.6,108.9 75.1,108.5 76.7,108.3 78.2,108.1 79.8,107.8 81.4,107.3 82.9,106.8 84.5,106.5 86.0,106.2 87.6,106.1 89.1,106.0 90.7,105.8 92.2,105.5 93.8,105.3 95.4,105.1 96.9,104.7 98.5,104.2 100.0,104.0 101.6,103.9 103.1,103.7 104.7,103.2 106.3,102.9 107.8,102.5 109.4,102.1 110.9,101.7 112.5,101.6 114.0,101.4 115.6,101.0 117.1,100.5 118.7,100.2 120.3,100.0 121.8,99.8 123.4,99.6 124.9,99.2 126.5,98.7 128.0,98.3 129.6,97.9 131.2,97.7 132.7,97.6 134.3,97.4 135.8,97.1 137.4,96.9 138.9,96.7 140.5,96.5 142.0,96.4 143.6,96.2 145.2,96.0 146.7,95.9 148.3,95.8 149.8,95.4 151.4,95.1 152.9,95.1 154.5,94.9 156.1,94.8 157.6,94.8 159.2,102.0 160.7,101.3 162.3,100.7 163.8,100.0 165.4,98.0 166.9,96.7 168.5,95.2 170.1,94.7 171.6,94.0 173.2,93.0 174.7,91.9 176.3,91.1 177.8,90.8 179.4,90.5 181.0,89.7 182.5,89.2 184.1,88.8 185.6,88.3 187.2,88.1 188.7,88.1 190.3,87.6 191.8,87.0 193.4,86.5 195.0,86.0 196.5,85.5 198.1,85.2 199.6,85.0 201.2,84.6 202.7,84.1 204.3,83.7 205.9,83.4 207.4,83.3 209.0,83.2 210.5,82.9 212.1,82.6 213.6,82.3 215.2,82.1 216.7,81.8 218.3,81.6 219.9,81.4 221.4,81.2 223.0,81.1 224.5,80.9 226.1,80.5 227.6,80.2 229.2,79.9 230.7,79.7 232.3,79.5 233.9,79.4 235.4,79.2 237.0,79.0 238.5,78.5 240.1,78.2 241.6,77.7 243.2,77.6 244.8,77.5 246.3,77.3 247.9,77.1 249.4,76.8 251.0,76.6 252.5,76.3 254.1,76.0 255.6,75.9 257.2,75.8 258.8,75.6 260.3,75.5 261.9,75.3 263.4,75.1 265.0,74.8 266.5,74.6 268.1,74.5 269.7,74.4 271.2,74.3 272.8,74.0 274.3,73.8 275.9,73.5 277.4,73.3 279.0,73.1 280.5,72.9 282.1,72.8 283.7,72.7 285.2,72.4 286.8,72.1 288.3,71.8 289.9,71.6 291.4,71.2 293.0,71.1 294.6,71.0 296.1,70.9 297.7,70.7 299.2,70.5 300.8,70.3 302.3,70.1 303.9,70.0 305.4,69.8 307.0,69.6 308.6,69.5 310.1,69.4 311.7,69.2 313.2,68.9 314.8,68.8 316.3,68.6 317.9,68.5 319.5,68.3 321.0,68.1 322.6,68.0 324.1,67.9 325.7,67.7 327.2,67.4 328.8,67.1 330.3,66.9 331.9,66.7 333.5,66.6 335.0,66.5 336.6,66.3 338.1,66.0 339.7,65.9 341.2,65.8 342.8,65.6 344.4,65.4 345.9,65.2 347.5,65.1 349.0,65.0 350.6,64.7 352.1,64.5 353.7,64.3 355.2,64.1 356.8,64.0 358.4,63.9 359.9,63.8 361.5,63.7 363.0,63.5 364.6,63.3 366.1,63.1 367.7,62.9 369.3,62.8 370.8,62.7 372.4,62.5 373.9,62.4 375.5,62.2 377.0,61.9 378.6,61.8 380.1,61.6 381.7,61.5 383.3,61.3 384.8,61.2 386.4,61.1 387.9,61.0 389.5,60.9 391.0,60.6 392.6,60.5 394.1,60.3 395.7,60.2 397.3,60.0 398.8,59.9 400.4,59.7 401.9,59.6 403.5,59.4 405.0,59.3 406.6,59.1 408.2,58.9 409.7,58.8 411.3,58.7 412.8,58.6 414.4,58.5 415.9,58.3 417.5,58.2 419.0,58.1 420.6,58.0 422.2,57.9 423.7,57.5 425.3,57.3 426.8,62.0 428.4,61.1 429.9,59.3 431.5,58.6 433.1,57.8 434.6,56.8 436.2,56.2 437.7,55.9 439.3,55.2 440.8,54.2 442.4,53.4 443.9,53.2 445.5,52.8 447.1,52.5 448.6,51.9 450.2,51.4 451.7,50.9 453.3,50.6 454.8,50.1 456.4,49.8 458.0,49.5 459.5,49.2 461.1,49.0 462.6,48.7 464.2,48.2 465.7,47.8 467.3,47.4 468.8,46.7 470.4,46.3 472.0,46.1 473.5,45.9 475.1,45.7 476.6,45.3 478.2,44.9 479.7,44.6 481.3,43.6 482.9,42.9 484.4,42.5 486.0,42.3 487.5,42.0 489.1,41.5 490.6,41.1 492.2,40.5 493.7,40.2 495.3,39.8 496.9,39.5 498.4,39.0 500.0,38.8 501.5,38.6 503.1,38.4 504.6,38.2 506.2,37.9 507.8,37.8 509.3,37.5 510.9,37.3 512.4,37.1 514.0,36.8 515.5,36.6 517.1,36.4 518.6,36.2 520.2,36.0 521.8,35.9 523.3,35.7 524.9,35.6 526.4,35.4 528.0,35.3 529.5,35.1 531.1,34.9 532.7,34.7 534.2,34.5 535.8,34.3 537.3,34.1 538.9,33.9 540.4,33.8 542.0,33.7 543.5,33.5 545.1,33.3 546.7,33.2 548.2,33.1 549.8,32.9 551.3,32.7 552.9,32.5 554.4,32.3 556.0,32.0 557.6,31.9 559.1,31.6 560.7,31.4 562.2,31.2 563.8,31.0 565.3,30.7 566.9,30.5 568.4,30.2 570.0,30.0" />
  
  <!-- Punto finale luminoso -->
  <circle cx="570.0" cy="30.0" r="4" fill="#ffffff" stroke="#0366d6" stroke-width="2.5" />
</svg>