<svg width="600" height="150" viewBox="0 0 600 150" xmlns="http://www.w3.org/2000/svg">
  <defs>
    <filter id="shadow2" x="-2%" y="-2%" width="104%" height="108%">
      <feDropShadow dx="0" dy="2" stdDeviation="3" flood-opacity="0.1" />
    </filter>
    <linearGradient id="fillGrad" x1="0" y1="0" x2="0" y2="1">
      <stop offset="0%" stop-color="#0366d6" stop-opacity="0.3"/>
      <stop offset="100%" stop-color="#0366d6" stop-opacity="0.02"/>
    </linearGradient>
  </defs>
  <rect width="600" height="150" rx="12" fill="#ffffff" filter="url(#shadow2)" stroke="#e1e4e8" stroke-width="1"/>
  <text x="20" y="24" fill="#2b3137" font-family="-apple-system,BlinkMacSystemFont,'Segoe UI',Helvetica,Arial,sans-serif" font-size="14" font-weight="600">📈 Download Growth (Actual: 86.1k)</text>
  
  <!-- Area sotto la linea -->
  <polygon fill="url(#fillGrad)" points="30.0,120.0,120 30.0,120.0 31.4,119.5 32.8,118.9 34.2,118.4 35.6,118.3 37.0,118.0 38.4,117.4 39.8,117.0 41.2,116.7 42.6,116.1 44.0,115.8 45.4,115.5 46.8,115.3 48.2,115.0 49.6,114.6 51.0,114.1 52.4,113.8 53.8,113.6 55.2,113.4 56.6,113.1 58.0,112.8 59.4,112.5 60.8,112.4 62.2,112.1 63.6,111.1 65.0,110.8 66.4,110.4 67.8,110.0 69.2,109.7 70.6,109.4 72.0,109.1 73.4,109.0 74.8,108.7 76.2,108.2 77.6,107.8 79.0,107.5 80.4,107.2 81.8,107.1 83.2,107.0 84.6,106.9 86.0,106.5 87.4,106.4 88.8,106.2 90.2,105.9 91.6,105.3 93.0,105.2 94.4,105.1 95.8,104.9 97.2,104.5 98.5,104.2 99.9,103.8 101.3,103.4 102.7,103.1 104.1,103.0 105.5,102.7 106.9,102.4 108.3,101.9 109.7,101.7 111.1,101.5 112.5,101.3 113.9,101.1 115.3,100.7 116.7,100.3 118.1,99.9 119.5,99.5 120.9,99.4 122.3,99.3 123.7,99.1 125.1,98.8 126.5,98.6 127.9,98.4 129.3,98.3 130.7,98.1 132.1,97.9 133.5,97.8 134.9,97.7 136.3,97.6 137.7,97.2 139.1,97.0 140.5,96.9 141.9,96.7 143.3,96.7 144.7,96.7 146.1,103.3 147.5,102.7 148.9,102.1 150.3,101.5 151.7,99.7 153.1,98.4 154.5,97.0 155.9,96.5 157.3,95.9 158.7,95.0 160.1,94.0 161.5,93.2 162.9,93.0 164.3,92.7 165.7,92.0 167.1,91.4 168.5,91.1 169.9,90.7 171.3,90.5 172.7,90.4 174.1,90.0 175.5,89.4 176.9,89.0 178.3,88.5 179.7,88.0 181.1,87.8 182.5,87.6 183.9,87.2 185.3,86.8 186.7,86.4 188.1,86.1 189.5,86.0 190.9,85.9 192.3,85.7 193.7,85.3 195.1,85.1 196.5,84.8 197.9,84.6 199.3,84.5 200.7,84.3 202.1,84.1 203.5,83.9 204.9,83.8 206.3,83.4 207.7,83.2 209.1,82.9 210.5,82.7 211.9,82.5 213.3,82.4 214.7,82.2 216.1,82.0 217.5,81.6 218.9,81.2 220.3,80.8 221.7,80.7 223.1,80.6 224.5,80.5 225.9,80.2 227.3,80.0 228.7,79.8 230.1,79.5 231.5,79.3 232.8,79.2 234.2,79.0 235.6,78.9 237.0,78.8 238.4,78.6 239.8,78.4 241.2,78.1 242.6,78.0 244.0,77.9 245.4,77.7 246.8,77.7 248.2,77.4 249.6,77.2 251.0,77.0 252.4,76.8 253.8,76.5 255.2,76.4 256.6,76.3 258.0,76.2 259.4,75.9 260.8,75.6 262.2,75.4 263.6,75.2 265.0,74.8 266.4,74.7 267.8,74.6 269.2,74.5 270.6,74.3 272.0,74.2 273.4,74.0 274.8,73.8 276.2,73.6 277.6,73.5 279.0,73.3 280.4,73.2 281.8,73.1 283.2,73.0 284.6,72.7 286.0,72.6 287.4,72.3 288.8,72.2 290.2,72.1 291.6,72.0 293.0,71.8 294.4,71.7 295.8,71.6 297.2,71.3 298.6,71.0 300.0,70.8 301.4,70.6 302.8,70.5 304.2,70.5 305.6,70.3 307.0,70.0 308.4,69.9 309.8,69.8 311.2,69.6 312.6,69.4 314.0,69.2 315.4,69.1 316.8,69.0 318.2,68.8 319.6,68.6 321.0,68.4 322.4,68.2 323.8,68.1 325.2,68.0 326.6,68.0 328.0,67.8 329.4,67.7 330.8,67.5 332.2,67.3 333.6,67.1 335.0,67.0 336.4,66.9 337.8,66.8 339.2,66.6 340.6,66.4 342.0,66.2 343.4,66.0 344.8,65.9 346.2,65.8 347.6,65.7 349.0,65.6 350.4,65.5 351.8,65.4 353.2,65.2 354.6,65.0 356.0,64.8 357.4,64.7 358.8,64.6 360.2,64.5 361.6,64.3 363.0,64.1 364.4,64.0 365.8,63.9 367.2,63.8 368.5,63.6 369.9,63.4 371.3,63.3 372.7,63.2 374.1,63.1 375.5,63.0 376.9,62.9 378.3,62.7 379.7,62.6 381.1,62.6 382.5,62.4 383.9,62.1 385.3,61.9 386.7,66.3 388.1,65.4 389.5,63.8 390.9,63.1 392.3,62.4 393.7,61.4 395.1,60.9 396.5,60.6 397.9,60.0 399.3,59.0 400.7,58.3 402.1,58.1 403.5,57.7 404.9,57.4 406.3,56.9 407.7,56.5 409.1,55.9 410.5,55.7 411.9,55.2 413.3,55.0 414.7,54.6 416.1,54.4 417.5,54.2 418.9,53.9 420.3,53.5 421.7,53.1 423.1,52.7 424.5,52.1 425.9,51.8 427.3,51.6 428.7,51.4 430.1,51.2 431.5,50.8 432.9,50.4 434.3,50.1 435.7,49.2 437.1,48.5 438.5,48.2 439.9,48.1 441.3,47.8 442.7,47.3 444.1,46.9 445.5,46.4 446.9,46.0 448.3,45.7 449.7,45.4 451.1,45.0 452.5,44.8 453.9,44.6 455.3,44.4 456.7,44.3 458.1,44.0 459.5,43.8 460.9,43.6 462.3,43.4 463.7,43.2 465.1,42.9 466.5,42.8 467.9,42.6 469.3,42.4 470.7,42.2 472.1,42.1 473.5,41.9 474.9,41.8 476.3,41.6 477.7,41.5 479.1,41.3 480.5,41.2 481.9,41.0 483.3,40.8 484.7,40.6 486.1,40.4 487.5,40.2 488.9,40.1 490.3,40.0 491.7,39.9 493.1,39.7 494.5,39.6 495.9,39.5 497.3,39.3 498.7,39.1 500.1,39.0 501.5,38.7 502.8,38.5 504.2,38.4 505.6,38.1 507.0,37.9 508.4,37.8 509.8,37.5 511.2,37.3 512.6,37.1 514.0,36.8 515.4,36.6 516.8,36.4 518.2,36.1 519.6,35.9 521.0,35.8 522.4,35.6 523.8,35.5 525.2,35.4 526.6,35.2 528.0,35.0 529.4,34.9 530.8,34.7 532.2,34.5 533.6,34.2 535.0,34.0 536.4,33.8 537.8,33.5 539.2,33.4 540.6,33.2 542.0,33.0 543.4,33.0 544.8,32.8 546.2,32.6 547.6,32.4 549.0,32.3 550.4,32.0 551.8,31.8 553.2,31.7 554.6,31.5 556.0,31.4 557.4,31.3 558.8,31.2 560.2,31.1 561.6,30.9 563.0,30.8 564.4,30.6 565.8,30.5 567.2,30.3 568.6,30.1 570.0,30.0 570.0,30.0,120" />
  
  <!-- Linea principale -->
  <polyline fill="none" stroke="#0366d6" stroke-width="2.5" stroke-linecap="round" stroke-linejoin="round" points="30.0,120.0 31.4,119.5 32.8,118.9 34.2,118.4 35.6,118.3 37.0,118.0 38.4,117.4 39.8,117.0 41.2,116.7 42.6,116.1 44.0,115.8 45.4,115.5 46.8,115.3 48.2,115.0 49.6,114.6 51.0,114.1 52.4,113.8 53.8,113.6 55.2,113.4 56.6,113.1 58.0,112.8 59.4,112.5 60.8,112.4 62.2,112.1 63.6,111.1 65.0,110.8 66.4,110.4 67.8,110.0 69.2,109.7 70.6,109.4 72.0,109.1 73.4,109.0 74.8,108.7 76.2,108.2 77.6,107.8 79.0,107.5 80.4,107.2 81.8,107.1 83.2,107.0 84.6,106.9 86.0,106.5 87.4,106.4 88.8,106.2 90.2,105.9 91.6,105.3 93.0,105.2 94.4,105.1 95.8,104.9 97.2,104.5 98.5,104.2 99.9,103.8 101.3,103.4 102.7,103.1 104.1,103.0 105.5,102.7 106.9,102.4 108.3,101.9 109.7,101.7 111.1,101.5 112.5,101.3 113.9,101.1 115.3,100.7 116.7,100.3 118.1,99.9 119.5,99.5 120.9,99.4 122.3,99.3 123.7,99.1 125.1,98.8 126.5,98.6 127.9,98.4 129.3,98.3 130.7,98.1 132.1,97.9 133.5,97.8 134.9,97.7 136.3,97.6 137.7,97.2 139.1,97.0 140.5,96.9 141.9,96.7 143.3,96.7 144.7,96.7 146.1,103.3 147.5,102.7 148.9,102.1 150.3,101.5 151.7,99.7 153.1,98.4 154.5,97.0 155.9,96.5 157.3,95.9 158.7,95.0 160.1,94.0 161.5,93.2 162.9,93.0 164.3,92.7 165.7,92.0 167.1,91.4 168.5,91.1 169.9,90.7 171.3,90.5 172.7,90.4 174.1,90.0 175.5,89.4 176.9,89.0 178.3,88.5 179.7,88.0 181.1,87.8 182.5,87.6 183.9,87.2 185.3,86.8 186.7,86.4 188.1,86.1 189.5,86.0 190.9,85.9 192.3,85.7 193.7,85.3 195.1,85.1 196.5,84.8 197.9,84.6 199.3,84.5 200.7,84.3 202.1,84.1 203.5,83.9 204.9,83.8 206.3,83.4 207.7,83.2 209.1,82.9 210.5,82.7 211.9,82.5 213.3,82.4 214.7,82.2 216.1,82.0 217.5,81.6 218.9,81.2 220.3,80.8 221.7,80.7 223.1,80.6 224.5,80.5 225.9,80.2 227.3,80.0 228.7,79.8 230.1,79.5 231.5,79.3 232.8,79.2 234.2,79.0 235.6,78.9 237.0,78.8 238.4,78.6 239.8,78.4 241.2,78.1 242.6,78.0 244.0,77.9 245.4,77.7 246.8,77.7 248.2,77.4 249.6,77.2 251.0,77.0 252.4,76.8 253.8,76.5 255.2,76.4 256.6,76.3 258.0,76.2 259.4,75.9 260.8,75.6 262.2,75.4 263.6,75.2 265.0,74.8 266.4,74.7 267.8,74.6 269.2,74.5 270.6,74.3 272.0,74.2 273.4,74.0 274.8,73.8 276.2,73.6 277.6,73.5 279.0,73.3 280.4,73.2 281.8,73.1 283.2,73.0 284.6,72.7 286.0,72.6 287.4,72.3 288.8,72.2 290.2,72.1 291.6,72.0 293.0,71.8 294.4,71.7 295.8,71.6 297.2,71.3 298.6,71.0 300.0,70.8 301.4,70.6 302.8,70.5 304.2,70.5 305.6,70.3 307.0,70.0 308.4,69.9 309.8,69.8 311.2,69.6 312.6,69.4 314.0,69.2 315.4,69.1 316.8,69.0 318.2,68.8 319.6,68.6 321.0,68.4 322.4,68.2 323.8,68.1 325.2,68.0 326.6,68.0 328.0,67.8 329.4,67.7 330.8,67.5 332.2,67.3 333.6,67.1 335.0,67.0 336.4,66.9 337.8,66.8 339.2,66.6 340.6,66.4 342.0,66.2 343.4,66.0 344.8,65.9 346.2,65.8 347.6,65.7 349.0,65.6 350.4,65.5 351.8,65.4 353.2,65.2 354.6,65.0 356.0,64.8 357.4,64.7 358.8,64.6 360.2,64.5 361.6,64.3 363.0,64.1 364.4,64.0 365.8,63.9 367.2,63.8 368.5,63.6 369.9,63.4 371.3,63.3 372.7,63.2 374.1,63.1 375.5,63.0 376.9,62.9 378.3,62.7 379.7,62.6 381.1,62.6 382.5,62.4 383.9,62.1 385.3,61.9 386.7,66.3 388.1,65.4 389.5,63.8 390.9,63.1 392.3,62.4 393.7,61.4 395.1,60.9 396.5,60.6 397.9,60.0 399.3,59.0 400.7,58.3 402.1,58.1 403.5,57.7 404.9,57.4 406.3,56.9 407.7,56.5 409.1,55.9 410.5,55.7 411.9,55.2 413.3,55.0 414.7,54.6 416.1,54.4 417.5,54.2 418.9,53.9 420.3,53.5 421.7,53.1 423.1,52.7 424.5,52.1 425.9,51.8 427.3,51.6 428.7,51.4 430.1,51.2 431.5,50.8 432.9,50.4 434.3,50.1 435.7,49.2 437.1,48.5 438.5,48.2 439.9,48.1 441.3,47.8 442.7,47.3 444.1,46.9 445.5,46.4 446.9,46.0 448.3,45.7 449.7,45.4 451.1,45.0 452.5,44.8 453.9,44.6 455.3,44.4 456.7,44.3 458.1,44.0 459.5,43.8 460.9,43.6 462.3,43.4 463.7,43.2 465.1,42.9 466.5,42.8 467.9,42.6 469.3,42.4 470.7,42.2 472.1,42.1 473.5,41.9 474.9,41.8 476.3,41.6 477.7,41.5 479.1,41.3 480.5,41.2 481.9,41.0 483.3,40.8 484.7,40.6 486.1,40.4 487.5,40.2 488.9,40.1 490.3,40.0 491.7,39.9 493.1,39.7 494.5,39.6 495.9,39.5 497.3,39.3 498.7,39.1 500.1,39.0 501.5,38.7 502.8,38.5 504.2,38.4 505.6,38.1 507.0,37.9 508.4,37.8 509.8,37.5 511.2,37.3 512.6,37.1 514.0,36.8 515.4,36.6 516.8,36.4 518.2,36.1 519.6,35.9 521.0,35.8 522.4,35.6 523.8,35.5 525.2,35.4 526.6,35.2 528.0,35.0 529.4,34.9 530.8,34.7 532.2,34.5 533.6,34.2 535.0,34.0 536.4,33.8 537.8,33.5 539.2,33.4 540.6,33.2 542.0,33.0 543.4,33.0 544.8,32.8 546.2,32.6 547.6,32.4 549.0,32.3 550.4,32.0 551.8,31.8 553.2,31.7 554.6,31.5 556.0,31.4 557.4,31.3 558.8,31.2 560.2,31.1 561.6,30.9 563.0,30.8 564.4,30.6 565.8,30.5 567.2,30.3 568.6,30.1 570.0,30.0" />
  
  <!-- Punto finale luminoso -->
  <circle cx="570.0" cy="30.0" r="4" fill="#ffffff" stroke="#0366d6" stroke-width="2.5" />
</svg>