<svg width="600" height="150" viewBox="0 0 600 150" xmlns="http://www.w3.org/2000/svg">
  <defs>
    <filter id="shadow2" x="-2%" y="-2%" width="104%" height="108%">
      <feDropShadow dx="0" dy="2" stdDeviation="3" flood-opacity="0.1" />
    </filter>
    <linearGradient id="fillGrad" x1="0" y1="0" x2="0" y2="1">
      <stop offset="0%" stop-color="#0366d6" stop-opacity="0.3"/>
      <stop offset="100%" stop-color="#0366d6" stop-opacity="0.02"/>
    </linearGradient>
  </defs>
  <rect width="600" height="150" rx="12" fill="#ffffff" filter="url(#shadow2)" stroke="#e1e4e8" stroke-width="1"/>
  <text x="20" y="24" fill="#2b3137" font-family="-apple-system,BlinkMacSystemFont,'Segoe UI',Helvetica,Arial,sans-serif" font-size="14" font-weight="600">📈 Download Growth (Actual: 87.6k)</text>
  
  <!-- Area sotto la linea -->
  <polygon fill="url(#fillGrad)" points="30.0,120.0,120 30.0,120.0 31.3,119.5 32.5,119.0 33.8,118.5 35.0,118.4 36.3,118.2 37.5,117.6 38.8,117.2 40.0,117.0 41.3,116.4 42.6,116.1 43.8,115.8 45.1,115.6 46.3,115.4 47.6,115.0 48.8,114.6 50.1,114.2 51.3,114.0 52.6,113.9 53.9,113.6 55.1,113.3 56.4,113.0 57.6,112.9 58.9,112.6 60.1,111.7 61.4,111.4 62.7,111.1 63.9,110.7 65.2,110.4 66.4,110.1 67.7,109.9 68.9,109.7 70.2,109.5 71.4,109.0 72.7,108.7 74.0,108.4 75.2,108.1 76.5,108.0 77.7,107.9 79.0,107.8 80.2,107.5 81.5,107.3 82.7,107.2 84.0,106.8 85.3,106.3 86.5,106.2 87.8,106.1 89.0,105.9 90.3,105.5 91.5,105.3 92.8,104.9 94.0,104.6 95.3,104.2 96.6,104.1 97.8,103.9 99.1,103.6 100.3,103.2 101.6,102.9 102.8,102.8 104.1,102.6 105.3,102.4 106.6,102.0 107.9,101.6 109.1,101.3 110.4,101.0 111.6,100.8 112.9,100.7 114.1,100.5 115.4,100.2 116.7,100.1 117.9,99.9 119.2,99.8 120.4,99.6 121.7,99.4 122.9,99.3 124.2,99.2 125.4,99.1 126.7,98.8 128.0,98.5 129.2,98.5 130.5,98.3 131.7,98.3 133.0,98.3 134.2,104.5 135.5,103.9 136.7,103.3 138.0,102.7 139.3,101.1 140.5,99.9 141.8,98.6 143.0,98.1 144.3,97.6 145.5,96.7 146.8,95.8 148.0,95.1 149.3,94.8 150.6,94.6 151.8,93.9 153.1,93.4 154.3,93.1 155.6,92.7 156.8,92.5 158.1,92.4 159.3,92.1 160.6,91.5 161.9,91.1 163.1,90.7 164.4,90.2 165.6,90.0 166.9,89.8 168.1,89.4 169.4,89.1 170.7,88.7 171.9,88.4 173.2,88.3 174.4,88.2 175.7,88.0 176.9,87.7 178.2,87.5 179.4,87.3 180.7,87.1 182.0,86.9 183.2,86.7 184.5,86.6 185.7,86.4 187.0,86.3 188.2,85.9 189.5,85.7 190.7,85.4 192.0,85.3 193.3,85.1 194.5,85.0 195.8,84.8 197.0,84.7 198.3,84.2 199.5,83.9 200.8,83.5 202.0,83.4 203.3,83.3 204.6,83.2 205.8,83.0 207.1,82.7 208.3,82.5 209.6,82.3 210.8,82.1 212.1,82.0 213.3,81.8 214.6,81.7 215.9,81.6 217.1,81.4 218.4,81.3 219.6,81.0 220.9,80.9 222.1,80.8 223.4,80.6 224.7,80.6 225.9,80.3 227.2,80.1 228.4,79.9 229.7,79.7 230.9,79.5 232.2,79.4 233.4,79.3 234.7,79.2 236.0,78.9 237.2,78.6 238.5,78.4 239.7,78.2 241.0,77.9 242.2,77.8 243.5,77.7 244.7,77.6 246.0,77.5 247.3,77.3 248.5,77.1 249.8,77.0 251.0,76.8 252.3,76.7 253.5,76.5 254.8,76.4 256.0,76.4 257.3,76.2 258.6,75.9 259.8,75.8 261.1,75.6 262.3,75.5 263.6,75.4 264.8,75.3 266.1,75.2 267.3,75.0 268.6,74.9 269.9,74.6 271.1,74.3 272.4,74.1 273.6,74.0 274.9,73.9 276.1,73.9 277.4,73.7 278.7,73.4 279.9,73.3 281.2,73.2 282.4,73.0 283.7,72.9 284.9,72.7 286.2,72.6 287.4,72.5 288.7,72.3 290.0,72.1 291.2,71.9 292.5,71.7 293.7,71.7 295.0,71.6 296.2,71.5 297.5,71.4 298.7,71.2 300.0,71.1 301.3,70.9 302.5,70.8 303.8,70.7 305.0,70.6 306.3,70.4 307.5,70.3 308.8,70.1 310.0,69.9 311.3,69.7 312.6,69.6 313.8,69.5 315.1,69.4 316.3,69.3 317.6,69.2 318.8,69.1 320.1,69.0 321.3,68.8 322.6,68.6 323.9,68.5 325.1,68.4 326.4,68.3 327.6,68.1 328.9,68.0 330.1,67.9 331.4,67.8 332.7,67.6 333.9,67.5 335.2,67.3 336.4,67.2 337.7,67.1 338.9,67.0 340.2,66.9 341.4,66.8 342.7,66.7 344.0,66.6 345.2,66.5 346.5,66.4 347.7,66.1 349.0,65.9 350.2,70.0 351.5,69.2 352.7,67.6 354.0,67.0 355.3,66.3 356.5,65.5 357.8,65.0 359.0,64.7 360.3,64.1 361.5,63.2 362.8,62.5 364.0,62.3 365.3,62.0 366.6,61.7 367.8,61.3 369.1,60.8 370.3,60.3 371.6,60.1 372.8,59.7 374.1,59.4 375.3,59.1 376.6,58.9 377.9,58.7 379.1,58.5 380.4,58.0 381.6,57.7 382.9,57.3 384.1,56.8 385.4,56.4 386.7,56.3 387.9,56.1 389.2,55.9 390.4,55.5 391.7,55.2 392.9,54.9 394.2,54.1 395.4,53.5 396.7,53.2 398.0,53.0 399.2,52.7 400.5,52.3 401.7,51.9 403.0,51.4 404.2,51.1 405.5,50.8 406.7,50.5 408.0,50.1 409.3,49.9 410.5,49.8 411.8,49.6 413.0,49.5 414.3,49.2 415.5,49.1 416.8,48.8 418.0,48.6 419.3,48.5 420.6,48.2 421.8,48.1 423.1,47.9 424.3,47.7 425.6,47.5 426.8,47.4 428.1,47.3 429.3,47.1 430.6,47.0 431.9,46.9 433.1,46.7 434.4,46.6 435.6,46.4 436.9,46.2 438.1,46.0 439.4,45.9 440.7,45.7 441.9,45.6 443.2,45.5 444.4,45.4 445.7,45.2 446.9,45.1 448.2,45.0 449.4,44.9 450.7,44.7 452.0,44.5 453.2,44.3 454.5,44.1 455.7,44.0 457.0,43.8 458.2,43.6 459.5,43.4 460.7,43.2 462.0,43.0 463.3,42.8 464.5,42.6 465.8,42.3 467.0,42.1 468.3,41.9 469.5,41.7 470.8,41.6 472.0,41.4 473.3,41.3 474.6,41.2 475.8,41.1 477.1,40.9 478.3,40.7 479.6,40.6 480.8,40.4 482.1,40.1 483.3,39.9 484.6,39.7 485.9,39.4 487.1,39.3 488.4,39.1 489.6,39.0 490.9,38.9 492.1,38.8 493.4,38.6 494.7,38.4 495.9,38.3 497.2,38.0 498.4,37.9 499.7,37.7 500.9,37.6 502.2,37.5 503.4,37.4 504.7,37.3 506.0,37.2 507.2,37.0 508.5,36.9 509.7,36.8 511.0,36.6 512.2,36.4 513.5,36.3 514.7,36.2 516.0,36.0 517.3,35.9 518.5,35.8 519.8,35.7 521.0,35.6 522.3,35.4 523.5,35.2 524.8,35.0 526.0,34.8 527.3,34.5 528.6,34.4 529.8,34.4 531.1,34.3 532.3,34.1 533.6,34.1 534.8,34.0 536.1,33.9 537.3,33.8 538.6,33.7 539.9,33.5 541.1,33.4 542.4,33.2 543.6,33.0 544.9,32.9 546.1,32.8 547.4,32.7 548.7,32.6 549.9,32.4 551.2,32.3 552.4,32.2 553.7,32.1 554.9,31.9 556.2,31.6 557.4,31.4 558.7,31.2 560.0,31.1 561.2,30.9 562.5,30.7 563.7,30.6 565.0,30.5 566.2,30.4 567.5,30.3 568.7,30.2 570.0,30.0 570.0,30.0,120" />
  
  <!-- Linea principale -->
  <polyline fill="none" stroke="#0366d6" stroke-width="2.5" stroke-linecap="round" stroke-linejoin="round" points="30.0,120.0 31.3,119.5 32.5,119.0 33.8,118.5 35.0,118.4 36.3,118.2 37.5,117.6 38.8,117.2 40.0,117.0 41.3,116.4 42.6,116.1 43.8,115.8 45.1,115.6 46.3,115.4 47.6,115.0 48.8,114.6 50.1,114.2 51.3,114.0 52.6,113.9 53.9,113.6 55.1,113.3 56.4,113.0 57.6,112.9 58.9,112.6 60.1,111.7 61.4,111.4 62.7,111.1 63.9,110.7 65.2,110.4 66.4,110.1 67.7,109.9 68.9,109.7 70.2,109.5 71.4,109.0 72.7,108.7 74.0,108.4 75.2,108.1 76.5,108.0 77.7,107.9 79.0,107.8 80.2,107.5 81.5,107.3 82.7,107.2 84.0,106.8 85.3,106.3 86.5,106.2 87.8,106.1 89.0,105.9 90.3,105.5 91.5,105.3 92.8,104.9 94.0,104.6 95.3,104.2 96.6,104.1 97.8,103.9 99.1,103.6 100.3,103.2 101.6,102.9 102.8,102.8 104.1,102.6 105.3,102.4 106.6,102.0 107.9,101.6 109.1,101.3 110.4,101.0 111.6,100.8 112.9,100.7 114.1,100.5 115.4,100.2 116.7,100.1 117.9,99.9 119.2,99.8 120.4,99.6 121.7,99.4 122.9,99.3 124.2,99.2 125.4,99.1 126.7,98.8 128.0,98.5 129.2,98.5 130.5,98.3 131.7,98.3 133.0,98.3 134.2,104.5 135.5,103.9 136.7,103.3 138.0,102.7 139.3,101.1 140.5,99.9 141.8,98.6 143.0,98.1 144.3,97.6 145.5,96.7 146.8,95.8 148.0,95.1 149.3,94.8 150.6,94.6 151.8,93.9 153.1,93.4 154.3,93.1 155.6,92.7 156.8,92.5 158.1,92.4 159.3,92.1 160.6,91.5 161.9,91.1 163.1,90.7 164.4,90.2 165.6,90.0 166.9,89.8 168.1,89.4 169.4,89.1 170.7,88.7 171.9,88.4 173.2,88.3 174.4,88.2 175.7,88.0 176.9,87.7 178.2,87.5 179.4,87.3 180.7,87.1 182.0,86.9 183.2,86.7 184.5,86.6 185.7,86.4 187.0,86.3 188.2,85.9 189.5,85.7 190.7,85.4 192.0,85.3 193.3,85.1 194.5,85.0 195.8,84.8 197.0,84.7 198.3,84.2 199.5,83.9 200.8,83.5 202.0,83.4 203.3,83.3 204.6,83.2 205.8,83.0 207.1,82.7 208.3,82.5 209.6,82.3 210.8,82.1 212.1,82.0 213.3,81.8 214.6,81.7 215.9,81.6 217.1,81.4 218.4,81.3 219.6,81.0 220.9,80.9 222.1,80.8 223.4,80.6 224.7,80.6 225.9,80.3 227.2,80.1 228.4,79.9 229.7,79.7 230.9,79.5 232.2,79.4 233.4,79.3 234.7,79.2 236.0,78.9 237.2,78.6 238.5,78.4 239.7,78.2 241.0,77.9 242.2,77.8 243.5,77.7 244.7,77.6 246.0,77.5 247.3,77.3 248.5,77.1 249.8,77.0 251.0,76.8 252.3,76.7 253.5,76.5 254.8,76.4 256.0,76.4 257.3,76.2 258.6,75.9 259.8,75.8 261.1,75.6 262.3,75.5 263.6,75.4 264.8,75.3 266.1,75.2 267.3,75.0 268.6,74.9 269.9,74.6 271.1,74.3 272.4,74.1 273.6,74.0 274.9,73.9 276.1,73.9 277.4,73.7 278.7,73.4 279.9,73.3 281.2,73.2 282.4,73.0 283.7,72.9 284.9,72.7 286.2,72.6 287.4,72.5 288.7,72.3 290.0,72.1 291.2,71.9 292.5,71.7 293.7,71.7 295.0,71.6 296.2,71.5 297.5,71.4 298.7,71.2 300.0,71.1 301.3,70.9 302.5,70.8 303.8,70.7 305.0,70.6 306.3,70.4 307.5,70.3 308.8,70.1 310.0,69.9 311.3,69.7 312.6,69.6 313.8,69.5 315.1,69.4 316.3,69.3 317.6,69.2 318.8,69.1 320.1,69.0 321.3,68.8 322.6,68.6 323.9,68.5 325.1,68.4 326.4,68.3 327.6,68.1 328.9,68.0 330.1,67.9 331.4,67.8 332.7,67.6 333.9,67.5 335.2,67.3 336.4,67.2 337.7,67.1 338.9,67.0 340.2,66.9 341.4,66.8 342.7,66.7 344.0,66.6 345.2,66.5 346.5,66.4 347.7,66.1 349.0,65.9 350.2,70.0 351.5,69.2 352.7,67.6 354.0,67.0 355.3,66.3 356.5,65.5 357.8,65.0 359.0,64.7 360.3,64.1 361.5,63.2 362.8,62.5 364.0,62.3 365.3,62.0 366.6,61.7 367.8,61.3 369.1,60.8 370.3,60.3 371.6,60.1 372.8,59.7 374.1,59.4 375.3,59.1 376.6,58.9 377.9,58.7 379.1,58.5 380.4,58.0 381.6,57.7 382.9,57.3 384.1,56.8 385.4,56.4 386.7,56.3 387.9,56.1 389.2,55.9 390.4,55.5 391.7,55.2 392.9,54.9 394.2,54.1 395.4,53.5 396.7,53.2 398.0,53.0 399.2,52.7 400.5,52.3 401.7,51.9 403.0,51.4 404.2,51.1 405.5,50.8 406.7,50.5 408.0,50.1 409.3,49.9 410.5,49.8 411.8,49.6 413.0,49.5 414.3,49.2 415.5,49.1 416.8,48.8 418.0,48.6 419.3,48.5 420.6,48.2 421.8,48.1 423.1,47.9 424.3,47.7 425.6,47.5 426.8,47.4 428.1,47.3 429.3,47.1 430.6,47.0 431.9,46.9 433.1,46.7 434.4,46.6 435.6,46.4 436.9,46.2 438.1,46.0 439.4,45.9 440.7,45.7 441.9,45.6 443.2,45.5 444.4,45.4 445.7,45.2 446.9,45.1 448.2,45.0 449.4,44.9 450.7,44.7 452.0,44.5 453.2,44.3 454.5,44.1 455.7,44.0 457.0,43.8 458.2,43.6 459.5,43.4 460.7,43.2 462.0,43.0 463.3,42.8 464.5,42.6 465.8,42.3 467.0,42.1 468.3,41.9 469.5,41.7 470.8,41.6 472.0,41.4 473.3,41.3 474.6,41.2 475.8,41.1 477.1,40.9 478.3,40.7 479.6,40.6 480.8,40.4 482.1,40.1 483.3,39.9 484.6,39.7 485.9,39.4 487.1,39.3 488.4,39.1 489.6,39.0 490.9,38.9 492.1,38.8 493.4,38.6 494.7,38.4 495.9,38.3 497.2,38.0 498.4,37.9 499.7,37.7 500.9,37.6 502.2,37.5 503.4,37.4 504.7,37.3 506.0,37.2 507.2,37.0 508.5,36.9 509.7,36.8 511.0,36.6 512.2,36.4 513.5,36.3 514.7,36.2 516.0,36.0 517.3,35.9 518.5,35.8 519.8,35.7 521.0,35.6 522.3,35.4 523.5,35.2 524.8,35.0 526.0,34.8 527.3,34.5 528.6,34.4 529.8,34.4 531.1,34.3 532.3,34.1 533.6,34.1 534.8,34.0 536.1,33.9 537.3,33.8 538.6,33.7 539.9,33.5 541.1,33.4 542.4,33.2 543.6,33.0 544.9,32.9 546.1,32.8 547.4,32.7 548.7,32.6 549.9,32.4 551.2,32.3 552.4,32.2 553.7,32.1 554.9,31.9 556.2,31.6 557.4,31.4 558.7,31.2 560.0,31.1 561.2,30.9 562.5,30.7 563.7,30.6 565.0,30.5 566.2,30.4 567.5,30.3 568.7,30.2 570.0,30.0" />
  
  <!-- Punto finale luminoso -->
  <circle cx="570.0" cy="30.0" r="4" fill="#ffffff" stroke="#0366d6" stroke-width="2.5" />
</svg>