<svg width="600" height="150" viewBox="0 0 600 150" xmlns="http://www.w3.org/2000/svg">
  <defs>
    <filter id="shadow2" x="-2%" y="-2%" width="104%" height="108%">
      <feDropShadow dx="0" dy="2" stdDeviation="3" flood-opacity="0.1" />
    </filter>
    <linearGradient id="fillGrad" x1="0" y1="0" x2="0" y2="1">
      <stop offset="0%" stop-color="#0366d6" stop-opacity="0.3"/>
      <stop offset="100%" stop-color="#0366d6" stop-opacity="0.02"/>
    </linearGradient>
  </defs>
  <rect width="600" height="150" rx="12" fill="#ffffff" filter="url(#shadow2)" stroke="#e1e4e8" stroke-width="1"/>
  <text x="20" y="24" fill="#2b3137" font-family="-apple-system,BlinkMacSystemFont,'Segoe UI',Helvetica,Arial,sans-serif" font-size="14" font-weight="600">📈 Download Growth (Actual: 83.9k)</text>
  
  <!-- Area sotto la linea -->
  <polygon fill="url(#fillGrad)" points="30.0,120.0,120 30.0,120.0 31.7,119.4 33.3,118.8 35.0,118.2 36.6,118.1 38.3,117.8 40.0,117.1 41.6,116.6 43.3,116.3 45.0,115.6 46.6,115.2 48.3,114.9 49.9,114.7 51.6,114.4 53.3,113.9 54.9,113.4 56.6,113.0 58.2,112.7 59.9,112.5 61.6,112.2 63.2,111.8 64.9,111.5 66.6,111.3 68.2,111.0 69.9,109.9 71.5,109.6 73.2,109.1 74.9,108.7 76.5,108.3 78.2,107.9 79.8,107.7 81.5,107.5 83.2,107.2 84.8,106.7 86.5,106.2 88.2,105.9 89.8,105.5 91.5,105.4 93.1,105.3 94.8,105.1 96.5,104.7 98.1,104.5 99.8,104.4 101.4,104.0 103.1,103.4 104.8,103.2 106.4,103.1 108.1,102.9 109.8,102.4 111.4,102.1 113.1,101.6 114.7,101.2 116.4,100.8 118.1,100.7 119.7,100.4 121.4,100.0 123.0,99.5 124.7,99.2 126.4,99.1 128.0,98.8 129.7,98.6 131.4,98.1 133.0,97.7 134.7,97.2 136.3,96.8 138.0,96.6 139.7,96.5 141.3,96.3 143.0,96.0 144.6,95.7 146.3,95.5 148.0,95.4 149.6,95.2 151.3,95.0 153.0,94.8 154.6,94.7 156.3,94.6 157.9,94.1 159.6,93.9 161.3,93.8 162.9,93.6 164.6,93.6 166.2,93.6 167.9,101.1 169.6,100.4 171.2,99.7 172.9,99.0 174.6,96.9 176.2,95.5 177.9,94.0 179.5,93.4 181.2,92.7 182.9,91.7 184.5,90.5 186.2,89.7 187.8,89.4 189.5,89.1 191.2,88.2 192.8,87.6 194.5,87.2 196.2,86.8 197.8,86.6 199.5,86.5 201.1,86.0 202.8,85.3 204.5,84.8 206.1,84.3 207.8,83.7 209.4,83.5 211.1,83.3 212.8,82.8 214.4,82.3 216.1,81.9 217.8,81.6 219.4,81.4 221.1,81.3 222.7,81.1 224.4,80.7 226.1,80.4 227.7,80.2 229.4,79.9 231.0,79.7 232.7,79.5 234.4,79.3 236.0,79.1 237.7,78.9 239.4,78.5 241.0,78.3 242.7,77.9 244.3,77.7 246.0,77.5 247.7,77.4 249.3,77.2 251.0,77.0 252.6,76.4 254.3,76.1 256.0,75.6 257.6,75.4 259.3,75.4 261.0,75.2 262.6,74.9 264.3,74.7 265.9,74.4 267.6,74.1 269.3,73.8 270.9,73.7 272.6,73.6 274.2,73.4 275.9,73.3 277.6,73.0 279.2,72.9 280.9,72.5 282.6,72.4 284.2,72.3 285.9,72.1 287.5,72.0 289.2,71.7 290.9,71.5 292.5,71.2 294.2,71.0 295.8,70.8 297.5,70.6 299.2,70.5 300.8,70.3 302.5,70.0 304.2,69.7 305.8,69.4 307.5,69.2 309.1,68.8 310.8,68.7 312.5,68.6 314.1,68.4 315.8,68.2 317.4,68.0 319.1,67.8 320.8,67.7 322.4,67.5 324.1,67.3 325.8,67.1 327.4,67.0 329.1,66.9 330.7,66.7 332.4,66.4 334.1,66.2 335.7,66.0 337.4,65.9 339.0,65.7 340.7,65.6 342.4,65.4 344.0,65.3 345.7,65.1 347.4,64.8 349.0,64.4 350.7,64.2 352.3,64.0 354.0,63.9 355.7,63.9 357.3,63.7 359.0,63.3 360.6,63.2 362.3,63.1 364.0,62.9 365.6,62.7 367.3,62.5 369.0,62.4 370.6,62.2 372.3,62.0 373.9,61.8 375.6,61.5 377.3,61.3 378.9,61.2 380.6,61.1 382.2,61.0 383.9,60.8 385.6,60.7 387.2,60.5 388.9,60.3 390.6,60.1 392.2,60.0 393.9,59.8 395.5,59.7 397.2,59.5 398.9,59.3 400.5,59.0 402.2,58.8 403.8,58.7 405.5,58.5 407.2,58.4 408.8,58.3 410.5,58.2 412.2,58.1 413.8,57.9 415.5,57.7 417.1,57.5 418.8,57.3 420.5,57.2 422.1,57.1 423.8,56.9 425.4,56.7 427.1,56.6 428.8,56.4 430.4,56.3 432.1,56.1 433.8,55.9 435.4,55.7 437.1,55.6 438.7,55.5 440.4,55.4 442.1,55.3 443.7,55.1 445.4,55.0 447.0,54.9 448.7,54.8 450.4,54.4 452.0,54.2 453.7,59.1 455.4,58.1 457.0,56.3 458.7,55.6 460.3,54.7 462.0,53.6 463.7,53.1 465.3,52.7 467.0,51.9 468.6,50.9 470.3,50.1 472.0,49.8 473.6,49.4 475.3,49.1 477.0,48.5 478.6,48.0 480.3,47.4 481.9,47.1 483.6,46.6 485.3,46.3 486.9,45.9 488.6,45.7 490.2,45.4 491.9,45.1 493.6,44.6 495.2,44.2 496.9,43.7 498.6,43.1 500.2,42.7 501.9,42.4 503.5,42.2 505.2,42.0 506.9,41.5 508.5,41.1 510.2,40.8 511.8,39.8 513.5,39.0 515.2,38.7 516.8,38.5 518.5,38.1 520.2,37.6 521.8,37.2 523.5,36.5 525.1,36.2 526.8,35.8 528.5,35.5 530.1,35.0 531.8,34.7 533.4,34.6 535.1,34.4 536.8,34.2 538.4,33.9 540.1,33.7 541.8,33.4 543.4,33.2 545.1,33.0 546.7,32.7 548.4,32.5 550.1,32.3 551.7,32.0 553.4,31.8 555.0,31.7 556.7,31.5 558.4,31.3 560.0,31.2 561.7,31.1 563.4,30.8 565.0,30.7 566.7,30.4 568.3,30.2 570.0,30.0 570.0,30.0,120" />
  
  <!-- Linea principale -->
  <polyline fill="none" stroke="#0366d6" stroke-width="2.5" stroke-linecap="round" stroke-linejoin="round" points="30.0,120.0 31.7,119.4 33.3,118.8 35.0,118.2 36.6,118.1 38.3,117.8 40.0,117.1 41.6,116.6 43.3,116.3 45.0,115.6 46.6,115.2 48.3,114.9 49.9,114.7 51.6,114.4 53.3,113.9 54.9,113.4 56.6,113.0 58.2,112.7 59.9,112.5 61.6,112.2 63.2,111.8 64.9,111.5 66.6,111.3 68.2,111.0 69.9,109.9 71.5,109.6 73.2,109.1 74.9,108.7 76.5,108.3 78.2,107.9 79.8,107.7 81.5,107.5 83.2,107.2 84.8,106.7 86.5,106.2 88.2,105.9 89.8,105.5 91.5,105.4 93.1,105.3 94.8,105.1 96.5,104.7 98.1,104.5 99.8,104.4 101.4,104.0 103.1,103.4 104.8,103.2 106.4,103.1 108.1,102.9 109.8,102.4 111.4,102.1 113.1,101.6 114.7,101.2 116.4,100.8 118.1,100.7 119.7,100.4 121.4,100.0 123.0,99.5 124.7,99.2 126.4,99.1 128.0,98.8 129.7,98.6 131.4,98.1 133.0,97.7 134.7,97.2 136.3,96.8 138.0,96.6 139.7,96.5 141.3,96.3 143.0,96.0 144.6,95.7 146.3,95.5 148.0,95.4 149.6,95.2 151.3,95.0 153.0,94.8 154.6,94.7 156.3,94.6 157.9,94.1 159.6,93.9 161.3,93.8 162.9,93.6 164.6,93.6 166.2,93.6 167.9,101.1 169.6,100.4 171.2,99.7 172.9,99.0 174.6,96.9 176.2,95.5 177.9,94.0 179.5,93.4 181.2,92.7 182.9,91.7 184.5,90.5 186.2,89.7 187.8,89.4 189.5,89.1 191.2,88.2 192.8,87.6 194.5,87.2 196.2,86.8 197.8,86.6 199.5,86.5 201.1,86.0 202.8,85.3 204.5,84.8 206.1,84.3 207.8,83.7 209.4,83.5 211.1,83.3 212.8,82.8 214.4,82.3 216.1,81.9 217.8,81.6 219.4,81.4 221.1,81.3 222.7,81.1 224.4,80.7 226.1,80.4 227.7,80.2 229.4,79.9 231.0,79.7 232.7,79.5 234.4,79.3 236.0,79.1 237.7,78.9 239.4,78.5 241.0,78.3 242.7,77.9 244.3,77.7 246.0,77.5 247.7,77.4 249.3,77.2 251.0,77.0 252.6,76.4 254.3,76.1 256.0,75.6 257.6,75.4 259.3,75.4 261.0,75.2 262.6,74.9 264.3,74.7 265.9,74.4 267.6,74.1 269.3,73.8 270.9,73.7 272.6,73.6 274.2,73.4 275.9,73.3 277.6,73.0 279.2,72.9 280.9,72.5 282.6,72.4 284.2,72.3 285.9,72.1 287.5,72.0 289.2,71.7 290.9,71.5 292.5,71.2 294.2,71.0 295.8,70.8 297.5,70.6 299.2,70.5 300.8,70.3 302.5,70.0 304.2,69.7 305.8,69.4 307.5,69.2 309.1,68.8 310.8,68.7 312.5,68.6 314.1,68.4 315.8,68.2 317.4,68.0 319.1,67.8 320.8,67.7 322.4,67.5 324.1,67.3 325.8,67.1 327.4,67.0 329.1,66.9 330.7,66.7 332.4,66.4 334.1,66.2 335.7,66.0 337.4,65.9 339.0,65.7 340.7,65.6 342.4,65.4 344.0,65.3 345.7,65.1 347.4,64.8 349.0,64.4 350.7,64.2 352.3,64.0 354.0,63.9 355.7,63.9 357.3,63.7 359.0,63.3 360.6,63.2 362.3,63.1 364.0,62.9 365.6,62.7 367.3,62.5 369.0,62.4 370.6,62.2 372.3,62.0 373.9,61.8 375.6,61.5 377.3,61.3 378.9,61.2 380.6,61.1 382.2,61.0 383.9,60.8 385.6,60.7 387.2,60.5 388.9,60.3 390.6,60.1 392.2,60.0 393.9,59.8 395.5,59.7 397.2,59.5 398.9,59.3 400.5,59.0 402.2,58.8 403.8,58.7 405.5,58.5 407.2,58.4 408.8,58.3 410.5,58.2 412.2,58.1 413.8,57.9 415.5,57.7 417.1,57.5 418.8,57.3 420.5,57.2 422.1,57.1 423.8,56.9 425.4,56.7 427.1,56.6 428.8,56.4 430.4,56.3 432.1,56.1 433.8,55.9 435.4,55.7 437.1,55.6 438.7,55.5 440.4,55.4 442.1,55.3 443.7,55.1 445.4,55.0 447.0,54.9 448.7,54.8 450.4,54.4 452.0,54.2 453.7,59.1 455.4,58.1 457.0,56.3 458.7,55.6 460.3,54.7 462.0,53.6 463.7,53.1 465.3,52.7 467.0,51.9 468.6,50.9 470.3,50.1 472.0,49.8 473.6,49.4 475.3,49.1 477.0,48.5 478.6,48.0 480.3,47.4 481.9,47.1 483.6,46.6 485.3,46.3 486.9,45.9 488.6,45.7 490.2,45.4 491.9,45.1 493.6,44.6 495.2,44.2 496.9,43.7 498.6,43.1 500.2,42.7 501.9,42.4 503.5,42.2 505.2,42.0 506.9,41.5 508.5,41.1 510.2,40.8 511.8,39.8 513.5,39.0 515.2,38.7 516.8,38.5 518.5,38.1 520.2,37.6 521.8,37.2 523.5,36.5 525.1,36.2 526.8,35.8 528.5,35.5 530.1,35.0 531.8,34.7 533.4,34.6 535.1,34.4 536.8,34.2 538.4,33.9 540.1,33.7 541.8,33.4 543.4,33.2 545.1,33.0 546.7,32.7 548.4,32.5 550.1,32.3 551.7,32.0 553.4,31.8 555.0,31.7 556.7,31.5 558.4,31.3 560.0,31.2 561.7,31.1 563.4,30.8 565.0,30.7 566.7,30.4 568.3,30.2 570.0,30.0" />
  
  <!-- Punto finale luminoso -->
  <circle cx="570.0" cy="30.0" r="4" fill="#ffffff" stroke="#0366d6" stroke-width="2.5" />
</svg>