<svg width="600" height="150" viewBox="0 0 600 150" xmlns="http://www.w3.org/2000/svg">
  <defs>
    <filter id="shadow2" x="-2%" y="-2%" width="104%" height="108%">
      <feDropShadow dx="0" dy="2" stdDeviation="3" flood-opacity="0.1" />
    </filter>
    <linearGradient id="fillGrad" x1="0" y1="0" x2="0" y2="1">
      <stop offset="0%" stop-color="#0366d6" stop-opacity="0.3"/>
      <stop offset="100%" stop-color="#0366d6" stop-opacity="0.02"/>
    </linearGradient>
  </defs>
  <rect width="600" height="150" rx="12" fill="#ffffff" filter="url(#shadow2)" stroke="#e1e4e8" stroke-width="1"/>
  <text x="20" y="24" fill="#2b3137" font-family="-apple-system,BlinkMacSystemFont,'Segoe UI',Helvetica,Arial,sans-serif" font-size="14" font-weight="600">📈 Download Growth (Actual: 85.5k)</text>
  
  <!-- Area sotto la linea -->
  <polygon fill="url(#fillGrad)" points="30.0,120.0,120 30.0,120.0 31.5,119.5 32.9,118.9 34.4,118.4 35.9,118.2 37.4,118.0 38.8,117.3 40.3,116.9 41.8,116.6 43.2,116.0 44.7,115.7 46.2,115.3 47.7,115.1 49.1,114.8 50.6,114.4 52.1,113.9 53.5,113.6 55.0,113.4 56.5,113.2 58.0,112.9 59.4,112.5 60.9,112.3 62.4,112.1 63.8,111.8 65.3,110.8 66.8,110.5 68.3,110.1 69.7,109.7 71.2,109.3 72.7,109.0 74.1,108.8 75.6,108.6 77.1,108.3 78.6,107.8 80.0,107.4 81.5,107.1 83.0,106.8 84.4,106.7 85.9,106.6 87.4,106.4 88.9,106.1 90.3,105.9 91.8,105.8 93.3,105.4 94.7,104.8 96.2,104.7 97.7,104.6 99.2,104.4 100.6,103.9 102.1,103.7 103.6,103.2 105.0,102.9 106.5,102.5 108.0,102.4 109.5,102.2 110.9,101.8 112.4,101.3 113.9,101.0 115.3,100.9 116.8,100.7 118.3,100.5 119.8,100.0 121.2,99.6 122.7,99.2 124.2,98.9 125.6,98.7 127.1,98.5 128.6,98.4 130.1,98.1 131.5,97.9 133.0,97.7 134.5,97.5 135.9,97.4 137.4,97.2 138.9,97.0 140.4,96.9 141.8,96.8 143.3,96.4 144.8,96.2 146.2,96.1 147.7,96.0 149.2,95.9 150.7,95.9 152.1,102.8 153.6,102.1 155.1,101.5 156.5,100.8 158.0,99.0 159.5,97.7 161.0,96.2 162.4,95.7 163.9,95.1 165.4,94.2 166.8,93.1 168.3,92.3 169.8,92.0 171.3,91.8 172.7,91.0 174.2,90.5 175.7,90.1 177.1,89.7 178.6,89.5 180.1,89.4 181.6,89.0 183.0,88.4 184.5,87.9 186.0,87.4 187.4,86.9 188.9,86.7 190.4,86.5 191.9,86.0 193.3,85.6 194.8,85.3 196.3,85.0 197.7,84.8 199.2,84.7 200.7,84.5 202.2,84.1 203.6,83.9 205.1,83.7 206.6,83.4 208.0,83.2 209.5,83.1 211.0,82.9 212.5,82.7 213.9,82.5 215.4,82.2 216.9,81.9 218.3,81.6 219.8,81.4 221.3,81.2 222.8,81.1 224.2,80.9 225.7,80.8 227.2,80.3 228.6,79.9 230.1,79.5 231.6,79.4 233.1,79.3 234.5,79.1 236.0,78.9 237.5,78.6 238.9,78.4 240.4,78.1 241.9,77.9 243.4,77.8 244.8,77.6 246.3,77.5 247.8,77.4 249.2,77.2 250.7,77.0 252.2,76.7 253.7,76.5 255.1,76.5 256.6,76.3 258.1,76.2 259.5,76.0 261.0,75.7 262.5,75.5 264.0,75.3 265.4,75.1 266.9,74.9 268.4,74.8 269.8,74.7 271.3,74.4 272.8,74.1 274.3,73.9 275.7,73.6 277.2,73.3 278.7,73.2 280.1,73.1 281.6,73.0 283.1,72.8 284.6,72.6 286.0,72.4 287.5,72.2 289.0,72.1 290.4,71.9 291.9,71.8 293.4,71.6 294.9,71.5 296.3,71.4 297.8,71.1 299.3,71.0 300.7,70.7 302.2,70.6 303.7,70.5 305.1,70.3 306.6,70.2 308.1,70.1 309.6,69.9 311.0,69.6 312.5,69.3 314.0,69.1 315.4,68.9 316.9,68.9 318.4,68.8 319.9,68.6 321.3,68.3 322.8,68.2 324.3,68.1 325.7,67.9 327.2,67.7 328.7,67.5 330.2,67.4 331.6,67.3 333.1,67.0 334.6,66.9 336.0,66.6 337.5,66.4 339.0,66.3 340.5,66.3 341.9,66.2 343.4,66.0 344.9,65.9 346.3,65.7 347.8,65.5 349.3,65.3 350.8,65.2 352.2,65.1 353.7,65.0 355.2,64.8 356.6,64.6 358.1,64.4 359.6,64.2 361.1,64.0 362.5,63.9 364.0,63.8 365.5,63.7 366.9,63.6 368.4,63.5 369.9,63.4 371.4,63.1 372.8,63.0 374.3,62.8 375.8,62.7 377.2,62.6 378.7,62.4 380.2,62.2 381.7,62.1 383.1,62.0 384.6,61.9 386.1,61.7 387.5,61.5 389.0,61.4 390.5,61.3 392.0,61.2 393.4,61.1 394.9,60.9 396.4,60.8 397.8,60.7 399.3,60.6 400.8,60.5 402.3,60.2 403.7,59.9 405.2,64.4 406.7,63.6 408.1,61.9 409.6,61.2 411.1,60.4 412.6,59.4 414.0,58.9 415.5,58.6 417.0,57.9 418.4,56.9 419.9,56.2 421.4,56.0 422.9,55.6 424.3,55.3 425.8,54.8 427.3,54.3 428.7,53.8 430.2,53.5 431.7,53.0 433.2,52.8 434.6,52.4 436.1,52.2 437.6,51.9 439.0,51.7 440.5,51.2 442.0,50.9 443.5,50.4 444.9,49.8 446.4,49.4 447.9,49.2 449.3,49.1 450.8,48.8 452.3,48.4 453.8,48.1 455.2,47.8 456.7,46.8 458.2,46.1 459.6,45.8 461.1,45.6 462.6,45.3 464.1,44.8 465.5,44.4 467.0,43.9 468.5,43.5 469.9,43.2 471.4,42.9 472.9,42.4 474.4,42.2 475.8,42.1 477.3,41.9 478.8,41.7 480.2,41.4 481.7,41.2 483.2,41.0 484.7,40.8 486.1,40.6 487.6,40.3 489.1,40.2 490.5,40.0 492.0,39.8 493.5,39.6 495.0,39.4 496.4,39.3 497.9,39.1 499.4,39.0 500.8,38.9 502.3,38.6 503.8,38.5 505.3,38.3 506.7,38.1 508.2,37.9 509.7,37.7 511.1,37.5 512.6,37.4 514.1,37.3 515.6,37.1 517.0,37.0 518.5,36.8 520.0,36.8 521.4,36.6 522.9,36.4 524.4,36.2 525.9,36.0 527.3,35.8 528.8,35.6 530.3,35.4 531.7,35.1 533.2,35.0 534.7,34.7 536.2,34.5 537.6,34.3 539.1,34.0 540.6,33.8 542.0,33.5 543.5,33.3 545.0,33.0 546.5,32.9 547.9,32.8 549.4,32.7 550.9,32.5 552.3,32.4 553.8,32.2 555.3,32.0 556.8,31.8 558.2,31.6 559.7,31.3 561.2,31.1 562.6,30.9 564.1,30.5 565.6,30.4 567.1,30.2 568.5,30.1 570.0,30.0 570.0,30.0,120" />
  
  <!-- Linea principale -->
  <polyline fill="none" stroke="#0366d6" stroke-width="2.5" stroke-linecap="round" stroke-linejoin="round" points="30.0,120.0 31.5,119.5 32.9,118.9 34.4,118.4 35.9,118.2 37.4,118.0 38.8,117.3 40.3,116.9 41.8,116.6 43.2,116.0 44.7,115.7 46.2,115.3 47.7,115.1 49.1,114.8 50.6,114.4 52.1,113.9 53.5,113.6 55.0,113.4 56.5,113.2 58.0,112.9 59.4,112.5 60.9,112.3 62.4,112.1 63.8,111.8 65.3,110.8 66.8,110.5 68.3,110.1 69.7,109.7 71.2,109.3 72.7,109.0 74.1,108.8 75.6,108.6 77.1,108.3 78.6,107.8 80.0,107.4 81.5,107.1 83.0,106.8 84.4,106.7 85.9,106.6 87.4,106.4 88.9,106.1 90.3,105.9 91.8,105.8 93.3,105.4 94.7,104.8 96.2,104.7 97.7,104.6 99.2,104.4 100.6,103.9 102.1,103.7 103.6,103.2 105.0,102.9 106.5,102.5 108.0,102.4 109.5,102.2 110.9,101.8 112.4,101.3 113.9,101.0 115.3,100.9 116.8,100.7 118.3,100.5 119.8,100.0 121.2,99.6 122.7,99.2 124.2,98.9 125.6,98.7 127.1,98.5 128.6,98.4 130.1,98.1 131.5,97.9 133.0,97.7 134.5,97.5 135.9,97.4 137.4,97.2 138.9,97.0 140.4,96.9 141.8,96.8 143.3,96.4 144.8,96.2 146.2,96.1 147.7,96.0 149.2,95.9 150.7,95.9 152.1,102.8 153.6,102.1 155.1,101.5 156.5,100.8 158.0,99.0 159.5,97.7 161.0,96.2 162.4,95.7 163.9,95.1 165.4,94.2 166.8,93.1 168.3,92.3 169.8,92.0 171.3,91.8 172.7,91.0 174.2,90.5 175.7,90.1 177.1,89.7 178.6,89.5 180.1,89.4 181.6,89.0 183.0,88.4 184.5,87.9 186.0,87.4 187.4,86.9 188.9,86.7 190.4,86.5 191.9,86.0 193.3,85.6 194.8,85.3 196.3,85.0 197.7,84.8 199.2,84.7 200.7,84.5 202.2,84.1 203.6,83.9 205.1,83.7 206.6,83.4 208.0,83.2 209.5,83.1 211.0,82.9 212.5,82.7 213.9,82.5 215.4,82.2 216.9,81.9 218.3,81.6 219.8,81.4 221.3,81.2 222.8,81.1 224.2,80.9 225.7,80.8 227.2,80.3 228.6,79.9 230.1,79.5 231.6,79.4 233.1,79.3 234.5,79.1 236.0,78.9 237.5,78.6 238.9,78.4 240.4,78.1 241.9,77.9 243.4,77.8 244.8,77.6 246.3,77.5 247.8,77.4 249.2,77.2 250.7,77.0 252.2,76.7 253.7,76.5 255.1,76.5 256.6,76.3 258.1,76.2 259.5,76.0 261.0,75.7 262.5,75.5 264.0,75.3 265.4,75.1 266.9,74.9 268.4,74.8 269.8,74.7 271.3,74.4 272.8,74.1 274.3,73.9 275.7,73.6 277.2,73.3 278.7,73.2 280.1,73.1 281.6,73.0 283.1,72.8 284.6,72.6 286.0,72.4 287.5,72.2 289.0,72.1 290.4,71.9 291.9,71.8 293.4,71.6 294.9,71.5 296.3,71.4 297.8,71.1 299.3,71.0 300.7,70.7 302.2,70.6 303.7,70.5 305.1,70.3 306.6,70.2 308.1,70.1 309.6,69.9 311.0,69.6 312.5,69.3 314.0,69.1 315.4,68.9 316.9,68.9 318.4,68.8 319.9,68.6 321.3,68.3 322.8,68.2 324.3,68.1 325.7,67.9 327.2,67.7 328.7,67.5 330.2,67.4 331.6,67.3 333.1,67.0 334.6,66.9 336.0,66.6 337.5,66.4 339.0,66.3 340.5,66.3 341.9,66.2 343.4,66.0 344.9,65.9 346.3,65.7 347.8,65.5 349.3,65.3 350.8,65.2 352.2,65.1 353.7,65.0 355.2,64.8 356.6,64.6 358.1,64.4 359.6,64.2 361.1,64.0 362.5,63.9 364.0,63.8 365.5,63.7 366.9,63.6 368.4,63.5 369.9,63.4 371.4,63.1 372.8,63.0 374.3,62.8 375.8,62.7 377.2,62.6 378.7,62.4 380.2,62.2 381.7,62.1 383.1,62.0 384.6,61.9 386.1,61.7 387.5,61.5 389.0,61.4 390.5,61.3 392.0,61.2 393.4,61.1 394.9,60.9 396.4,60.8 397.8,60.7 399.3,60.6 400.8,60.5 402.3,60.2 403.7,59.9 405.2,64.4 406.7,63.6 408.1,61.9 409.6,61.2 411.1,60.4 412.6,59.4 414.0,58.9 415.5,58.6 417.0,57.9 418.4,56.9 419.9,56.2 421.4,56.0 422.9,55.6 424.3,55.3 425.8,54.8 427.3,54.3 428.7,53.8 430.2,53.5 431.7,53.0 433.2,52.8 434.6,52.4 436.1,52.2 437.6,51.9 439.0,51.7 440.5,51.2 442.0,50.9 443.5,50.4 444.9,49.8 446.4,49.4 447.9,49.2 449.3,49.1 450.8,48.8 452.3,48.4 453.8,48.1 455.2,47.8 456.7,46.8 458.2,46.1 459.6,45.8 461.1,45.6 462.6,45.3 464.1,44.8 465.5,44.4 467.0,43.9 468.5,43.5 469.9,43.2 471.4,42.9 472.9,42.4 474.4,42.2 475.8,42.1 477.3,41.9 478.8,41.7 480.2,41.4 481.7,41.2 483.2,41.0 484.7,40.8 486.1,40.6 487.6,40.3 489.1,40.2 490.5,40.0 492.0,39.8 493.5,39.6 495.0,39.4 496.4,39.3 497.9,39.1 499.4,39.0 500.8,38.9 502.3,38.6 503.8,38.5 505.3,38.3 506.7,38.1 508.2,37.9 509.7,37.7 511.1,37.5 512.6,37.4 514.1,37.3 515.6,37.1 517.0,37.0 518.5,36.8 520.0,36.8 521.4,36.6 522.9,36.4 524.4,36.2 525.9,36.0 527.3,35.8 528.8,35.6 530.3,35.4 531.7,35.1 533.2,35.0 534.7,34.7 536.2,34.5 537.6,34.3 539.1,34.0 540.6,33.8 542.0,33.5 543.5,33.3 545.0,33.0 546.5,32.9 547.9,32.8 549.4,32.7 550.9,32.5 552.3,32.4 553.8,32.2 555.3,32.0 556.8,31.8 558.2,31.6 559.7,31.3 561.2,31.1 562.6,30.9 564.1,30.5 565.6,30.4 567.1,30.2 568.5,30.1 570.0,30.0" />
  
  <!-- Punto finale luminoso -->
  <circle cx="570.0" cy="30.0" r="4" fill="#ffffff" stroke="#0366d6" stroke-width="2.5" />
</svg>