<svg width="600" height="150" viewBox="0 0 600 150" xmlns="http://www.w3.org/2000/svg">
  <defs>
    <filter id="shadow2" x="-2%" y="-2%" width="104%" height="108%">
      <feDropShadow dx="0" dy="2" stdDeviation="3" flood-opacity="0.1" />
    </filter>
    <linearGradient id="fillGrad" x1="0" y1="0" x2="0" y2="1">
      <stop offset="0%" stop-color="#0366d6" stop-opacity="0.3"/>
      <stop offset="100%" stop-color="#0366d6" stop-opacity="0.02"/>
    </linearGradient>
  </defs>
  <rect width="600" height="150" rx="12" fill="#ffffff" filter="url(#shadow2)" stroke="#e1e4e8" stroke-width="1"/>
  <text x="20" y="24" fill="#2b3137" font-family="-apple-system,BlinkMacSystemFont,'Segoe UI',Helvetica,Arial,sans-serif" font-size="14" font-weight="600">📈 Download Growth (Actual: 87.2k)</text>
  
  <!-- Area sotto la linea -->
  <polygon fill="url(#fillGrad)" points="30.0,120.0,120 30.0,120.0 31.3,119.5 32.6,119.0 33.9,118.5 35.1,118.4 36.4,118.1 37.7,117.6 39.0,117.2 40.3,116.9 41.6,116.3 42.9,116.0 44.1,115.7 45.4,115.6 46.7,115.3 48.0,114.9 49.3,114.5 50.6,114.1 51.9,113.9 53.1,113.8 54.4,113.5 55.7,113.2 57.0,112.9 58.3,112.8 59.6,112.5 60.9,111.6 62.1,111.3 63.4,110.9 64.7,110.6 66.0,110.2 67.3,109.9 68.6,109.7 69.9,109.6 71.1,109.3 72.4,108.9 73.7,108.5 75.0,108.2 76.3,107.9 77.6,107.8 78.9,107.7 80.1,107.6 81.4,107.3 82.7,107.1 84.0,107.0 85.3,106.6 86.6,106.1 87.9,106.0 89.1,105.9 90.4,105.7 91.7,105.3 93.0,105.0 94.3,104.6 95.6,104.3 96.9,104.0 98.1,103.9 99.4,103.7 100.7,103.3 102.0,102.9 103.3,102.6 104.6,102.5 105.9,102.3 107.1,102.1 108.4,101.7 109.7,101.3 111.0,101.0 112.3,100.6 113.6,100.5 114.9,100.4 116.1,100.2 117.4,99.9 118.7,99.7 120.0,99.6 121.3,99.4 122.6,99.3 123.9,99.1 125.1,99.0 126.4,98.9 127.7,98.8 129.0,98.4 130.3,98.2 131.6,98.1 132.9,98.0 134.1,97.9 135.4,97.9 136.7,104.2 138.0,103.6 139.3,103.1 140.6,102.5 141.9,100.7 143.1,99.5 144.4,98.3 145.7,97.8 147.0,97.2 148.3,96.3 149.6,95.4 150.9,94.7 152.1,94.4 153.4,94.2 154.7,93.5 156.0,93.0 157.3,92.6 158.6,92.2 159.9,92.1 161.1,92.0 162.4,91.6 163.7,91.0 165.0,90.6 166.3,90.2 167.6,89.7 168.9,89.5 170.1,89.3 171.4,88.9 172.7,88.5 174.0,88.2 175.3,87.9 176.6,87.8 177.9,87.7 179.1,87.5 180.4,87.2 181.7,86.9 183.0,86.7 184.3,86.5 185.6,86.4 186.9,86.2 188.1,86.0 189.4,85.9 190.7,85.7 192.0,85.4 193.3,85.1 194.6,84.9 195.9,84.7 197.1,84.5 198.4,84.4 199.7,84.2 201.0,84.1 202.3,83.6 203.6,83.3 204.9,82.9 206.1,82.8 207.4,82.7 208.7,82.6 210.0,82.4 211.3,82.1 212.6,81.9 213.9,81.6 215.1,81.4 216.4,81.4 217.7,81.2 219.0,81.1 220.3,81.0 221.6,80.8 222.9,80.6 224.1,80.3 225.4,80.2 226.7,80.1 228.0,80.0 229.3,79.9 230.6,79.7 231.9,79.5 233.1,79.3 234.4,79.1 235.7,78.9 237.0,78.7 238.3,78.6 239.6,78.5 240.9,78.2 242.1,78.0 243.4,77.8 244.7,77.6 246.0,77.2 247.3,77.1 248.6,77.0 249.9,76.9 251.1,76.8 252.4,76.6 253.7,76.4 255.0,76.3 256.3,76.1 257.6,76.0 258.9,75.8 260.1,75.7 261.4,75.6 262.7,75.5 264.0,75.2 265.3,75.1 266.6,74.9 267.9,74.8 269.1,74.7 270.4,74.5 271.7,74.4 273.0,74.3 274.3,74.1 275.6,73.9 276.9,73.6 278.1,73.4 279.4,73.2 280.7,73.2 282.0,73.1 283.3,72.9 284.6,72.7 285.9,72.6 287.1,72.5 288.4,72.3 289.7,72.1 291.0,72.0 292.3,71.9 293.6,71.7 294.9,71.5 296.1,71.4 297.4,71.1 298.7,70.9 300.0,70.9 301.3,70.8 302.6,70.7 303.9,70.6 305.1,70.4 306.4,70.3 307.7,70.1 309.0,70.0 310.3,69.9 311.6,69.8 312.9,69.6 314.1,69.5 315.4,69.3 316.7,69.1 318.0,68.9 319.3,68.8 320.6,68.7 321.9,68.6 323.1,68.5 324.4,68.4 325.7,68.3 327.0,68.2 328.3,67.9 329.6,67.8 330.9,67.7 332.1,67.6 333.4,67.4 334.7,67.3 336.0,67.1 337.3,67.0 338.6,66.9 339.9,66.8 341.1,66.6 342.4,66.5 343.7,66.3 345.0,66.2 346.3,66.1 347.6,66.0 348.9,65.9 350.1,65.8 351.4,65.7 352.7,65.6 354.0,65.5 355.3,65.2 356.6,65.0 357.9,69.1 359.1,68.3 360.4,66.8 361.7,66.2 363.0,65.5 364.3,64.6 365.6,64.1 366.9,63.7 368.1,63.2 369.4,62.3 370.7,61.6 372.0,61.4 373.3,61.1 374.6,60.8 375.9,60.3 377.1,59.9 378.4,59.4 379.7,59.1 381.0,58.7 382.3,58.4 383.6,58.1 384.9,57.9 386.1,57.7 387.4,57.5 388.7,57.0 390.0,56.7 391.3,56.3 392.6,55.7 393.9,55.4 395.1,55.2 396.4,55.1 397.7,54.8 399.0,54.5 400.3,54.1 401.6,53.9 402.9,53.0 404.1,52.4 405.4,52.1 406.7,51.9 408.0,51.6 409.3,51.2 410.6,50.8 411.9,50.3 413.1,50.0 414.4,49.7 415.7,49.4 417.0,49.0 418.3,48.8 419.6,48.6 420.9,48.5 422.1,48.3 423.4,48.0 424.7,47.9 426.0,47.7 427.3,47.5 428.6,47.3 429.9,47.1 431.1,46.9 432.4,46.7 433.7,46.5 435.0,46.4 436.3,46.2 437.6,46.1 438.9,45.9 440.1,45.8 441.4,45.7 442.7,45.5 444.0,45.4 445.3,45.2 446.6,45.0 447.9,44.8 449.1,44.7 450.4,44.5 451.7,44.4 453.0,44.3 454.3,44.1 455.6,44.0 456.9,43.9 458.1,43.8 459.4,43.6 460.7,43.4 462.0,43.3 463.3,43.1 464.6,42.9 465.9,42.7 467.1,42.5 468.4,42.3 469.7,42.1 471.0,41.9 472.3,41.7 473.6,41.5 474.9,41.3 476.1,41.1 477.4,40.8 478.7,40.6 480.0,40.4 481.3,40.3 482.6,40.2 483.9,40.1 485.1,39.9 486.4,39.8 487.7,39.6 489.0,39.4 490.3,39.3 491.6,39.1 492.9,38.8 494.1,38.6 495.4,38.4 496.7,38.1 498.0,38.0 499.3,37.8 500.6,37.7 501.9,37.6 503.1,37.5 504.4,37.3 505.7,37.1 507.0,37.0 508.3,36.7 509.6,36.6 510.9,36.4 512.1,36.3 513.4,36.1 514.7,36.0 516.0,36.0 517.3,35.8 518.6,35.7 519.9,35.6 521.1,35.4 522.4,35.3 523.7,35.1 525.0,34.9 526.3,34.8 527.6,34.6 528.9,34.6 530.1,34.4 531.4,34.3 532.7,34.2 534.0,34.0 535.3,33.9 536.6,33.6 537.9,33.4 539.1,33.1 540.4,33.1 541.7,33.0 543.0,32.9 544.3,32.7 545.6,32.7 546.9,32.6 548.1,32.5 549.4,32.4 550.7,32.3 552.0,32.1 553.3,32.0 554.6,31.8 555.9,31.6 557.1,31.5 558.4,31.4 559.7,31.2 561.0,31.1 562.3,31.0 563.6,30.9 564.9,30.8 566.1,30.6 567.4,30.5 568.7,30.2 570.0,30.0 570.0,30.0,120" />
  
  <!-- Linea principale -->
  <polyline fill="none" stroke="#0366d6" stroke-width="2.5" stroke-linecap="round" stroke-linejoin="round" points="30.0,120.0 31.3,119.5 32.6,119.0 33.9,118.5 35.1,118.4 36.4,118.1 37.7,117.6 39.0,117.2 40.3,116.9 41.6,116.3 42.9,116.0 44.1,115.7 45.4,115.6 46.7,115.3 48.0,114.9 49.3,114.5 50.6,114.1 51.9,113.9 53.1,113.8 54.4,113.5 55.7,113.2 57.0,112.9 58.3,112.8 59.6,112.5 60.9,111.6 62.1,111.3 63.4,110.9 64.7,110.6 66.0,110.2 67.3,109.9 68.6,109.7 69.9,109.6 71.1,109.3 72.4,108.9 73.7,108.5 75.0,108.2 76.3,107.9 77.6,107.8 78.9,107.7 80.1,107.6 81.4,107.3 82.7,107.1 84.0,107.0 85.3,106.6 86.6,106.1 87.9,106.0 89.1,105.9 90.4,105.7 91.7,105.3 93.0,105.0 94.3,104.6 95.6,104.3 96.9,104.0 98.1,103.9 99.4,103.7 100.7,103.3 102.0,102.9 103.3,102.6 104.6,102.5 105.9,102.3 107.1,102.1 108.4,101.7 109.7,101.3 111.0,101.0 112.3,100.6 113.6,100.5 114.9,100.4 116.1,100.2 117.4,99.9 118.7,99.7 120.0,99.6 121.3,99.4 122.6,99.3 123.9,99.1 125.1,99.0 126.4,98.9 127.7,98.8 129.0,98.4 130.3,98.2 131.6,98.1 132.9,98.0 134.1,97.9 135.4,97.9 136.7,104.2 138.0,103.6 139.3,103.1 140.6,102.5 141.9,100.7 143.1,99.5 144.4,98.3 145.7,97.8 147.0,97.2 148.3,96.3 149.6,95.4 150.9,94.7 152.1,94.4 153.4,94.2 154.7,93.5 156.0,93.0 157.3,92.6 158.6,92.2 159.9,92.1 161.1,92.0 162.4,91.6 163.7,91.0 165.0,90.6 166.3,90.2 167.6,89.7 168.9,89.5 170.1,89.3 171.4,88.9 172.7,88.5 174.0,88.2 175.3,87.9 176.6,87.8 177.9,87.7 179.1,87.5 180.4,87.2 181.7,86.9 183.0,86.7 184.3,86.5 185.6,86.4 186.9,86.2 188.1,86.0 189.4,85.9 190.7,85.7 192.0,85.4 193.3,85.1 194.6,84.9 195.9,84.7 197.1,84.5 198.4,84.4 199.7,84.2 201.0,84.1 202.3,83.6 203.6,83.3 204.9,82.9 206.1,82.8 207.4,82.7 208.7,82.6 210.0,82.4 211.3,82.1 212.6,81.9 213.9,81.6 215.1,81.4 216.4,81.4 217.7,81.2 219.0,81.1 220.3,81.0 221.6,80.8 222.9,80.6 224.1,80.3 225.4,80.2 226.7,80.1 228.0,80.0 229.3,79.9 230.6,79.7 231.9,79.5 233.1,79.3 234.4,79.1 235.7,78.9 237.0,78.7 238.3,78.6 239.6,78.5 240.9,78.2 242.1,78.0 243.4,77.8 244.7,77.6 246.0,77.2 247.3,77.1 248.6,77.0 249.9,76.9 251.1,76.8 252.4,76.6 253.7,76.4 255.0,76.3 256.3,76.1 257.6,76.0 258.9,75.8 260.1,75.7 261.4,75.6 262.7,75.5 264.0,75.2 265.3,75.1 266.6,74.9 267.9,74.8 269.1,74.7 270.4,74.5 271.7,74.4 273.0,74.3 274.3,74.1 275.6,73.9 276.9,73.6 278.1,73.4 279.4,73.2 280.7,73.2 282.0,73.1 283.3,72.9 284.6,72.7 285.9,72.6 287.1,72.5 288.4,72.3 289.7,72.1 291.0,72.0 292.3,71.9 293.6,71.7 294.9,71.5 296.1,71.4 297.4,71.1 298.7,70.9 300.0,70.9 301.3,70.8 302.6,70.7 303.9,70.6 305.1,70.4 306.4,70.3 307.7,70.1 309.0,70.0 310.3,69.9 311.6,69.8 312.9,69.6 314.1,69.5 315.4,69.3 316.7,69.1 318.0,68.9 319.3,68.8 320.6,68.7 321.9,68.6 323.1,68.5 324.4,68.4 325.7,68.3 327.0,68.2 328.3,67.9 329.6,67.8 330.9,67.7 332.1,67.6 333.4,67.4 334.7,67.3 336.0,67.1 337.3,67.0 338.6,66.9 339.9,66.8 341.1,66.6 342.4,66.5 343.7,66.3 345.0,66.2 346.3,66.1 347.6,66.0 348.9,65.9 350.1,65.8 351.4,65.7 352.7,65.6 354.0,65.5 355.3,65.2 356.6,65.0 357.9,69.1 359.1,68.3 360.4,66.8 361.7,66.2 363.0,65.5 364.3,64.6 365.6,64.1 366.9,63.7 368.1,63.2 369.4,62.3 370.7,61.6 372.0,61.4 373.3,61.1 374.6,60.8 375.9,60.3 377.1,59.9 378.4,59.4 379.7,59.1 381.0,58.7 382.3,58.4 383.6,58.1 384.9,57.9 386.1,57.7 387.4,57.5 388.7,57.0 390.0,56.7 391.3,56.3 392.6,55.7 393.9,55.4 395.1,55.2 396.4,55.1 397.7,54.8 399.0,54.5 400.3,54.1 401.6,53.9 402.9,53.0 404.1,52.4 405.4,52.1 406.7,51.9 408.0,51.6 409.3,51.2 410.6,50.8 411.9,50.3 413.1,50.0 414.4,49.7 415.7,49.4 417.0,49.0 418.3,48.8 419.6,48.6 420.9,48.5 422.1,48.3 423.4,48.0 424.7,47.9 426.0,47.7 427.3,47.5 428.6,47.3 429.9,47.1 431.1,46.9 432.4,46.7 433.7,46.5 435.0,46.4 436.3,46.2 437.6,46.1 438.9,45.9 440.1,45.8 441.4,45.7 442.7,45.5 444.0,45.4 445.3,45.2 446.6,45.0 447.9,44.8 449.1,44.7 450.4,44.5 451.7,44.4 453.0,44.3 454.3,44.1 455.6,44.0 456.9,43.9 458.1,43.8 459.4,43.6 460.7,43.4 462.0,43.3 463.3,43.1 464.6,42.9 465.9,42.7 467.1,42.5 468.4,42.3 469.7,42.1 471.0,41.9 472.3,41.7 473.6,41.5 474.9,41.3 476.1,41.1 477.4,40.8 478.7,40.6 480.0,40.4 481.3,40.3 482.6,40.2 483.9,40.1 485.1,39.9 486.4,39.8 487.7,39.6 489.0,39.4 490.3,39.3 491.6,39.1 492.9,38.8 494.1,38.6 495.4,38.4 496.7,38.1 498.0,38.0 499.3,37.8 500.6,37.7 501.9,37.6 503.1,37.5 504.4,37.3 505.7,37.1 507.0,37.0 508.3,36.7 509.6,36.6 510.9,36.4 512.1,36.3 513.4,36.1 514.7,36.0 516.0,36.0 517.3,35.8 518.6,35.7 519.9,35.6 521.1,35.4 522.4,35.3 523.7,35.1 525.0,34.9 526.3,34.8 527.6,34.6 528.9,34.6 530.1,34.4 531.4,34.3 532.7,34.2 534.0,34.0 535.3,33.9 536.6,33.6 537.9,33.4 539.1,33.1 540.4,33.1 541.7,33.0 543.0,32.9 544.3,32.7 545.6,32.7 546.9,32.6 548.1,32.5 549.4,32.4 550.7,32.3 552.0,32.1 553.3,32.0 554.6,31.8 555.9,31.6 557.1,31.5 558.4,31.4 559.7,31.2 561.0,31.1 562.3,31.0 563.6,30.9 564.9,30.8 566.1,30.6 567.4,30.5 568.7,30.2 570.0,30.0" />
  
  <!-- Punto finale luminoso -->
  <circle cx="570.0" cy="30.0" r="4" fill="#ffffff" stroke="#0366d6" stroke-width="2.5" />
</svg>