<svg width="600" height="150" viewBox="0 0 600 150" xmlns="http://www.w3.org/2000/svg">
  <defs>
    <filter id="shadow2" x="-2%" y="-2%" width="104%" height="108%">
      <feDropShadow dx="0" dy="2" stdDeviation="3" flood-opacity="0.1" />
    </filter>
    <linearGradient id="fillGrad" x1="0" y1="0" x2="0" y2="1">
      <stop offset="0%" stop-color="#0366d6" stop-opacity="0.3"/>
      <stop offset="100%" stop-color="#0366d6" stop-opacity="0.02"/>
    </linearGradient>
  </defs>
  <rect width="600" height="150" rx="12" fill="#ffffff" filter="url(#shadow2)" stroke="#e1e4e8" stroke-width="1"/>
  <text x="20" y="24" fill="#2b3137" font-family="-apple-system,BlinkMacSystemFont,'Segoe UI',Helvetica,Arial,sans-serif" font-size="14" font-weight="600">📈 Download Growth (Actual: 87.8k)</text>
  
  <!-- Area sotto la linea -->
  <polygon fill="url(#fillGrad)" points="30.0,120.0,120 30.0,120.0 31.2,119.5 32.5,119.0 33.7,118.5 34.9,118.4 36.2,118.2 37.4,117.6 38.6,117.2 39.9,117.0 41.1,116.4 42.4,116.1 43.6,115.8 44.8,115.7 46.1,115.4 47.3,115.0 48.5,114.6 49.8,114.3 51.0,114.1 52.2,113.9 53.5,113.7 54.7,113.4 55.9,113.1 57.2,113.0 58.4,112.7 59.7,111.8 60.9,111.5 62.1,111.2 63.4,110.8 64.6,110.5 65.8,110.2 67.1,110.0 68.3,109.9 69.5,109.6 70.8,109.2 72.0,108.8 73.2,108.5 74.5,108.2 75.7,108.1 77.0,108.1 78.2,107.9 79.4,107.6 80.7,107.4 81.9,107.3 83.1,107.0 84.4,106.5 85.6,106.4 86.8,106.3 88.1,106.1 89.3,105.7 90.5,105.5 91.8,105.1 93.0,104.8 94.3,104.4 95.5,104.3 96.7,104.1 98.0,103.8 99.2,103.4 100.4,103.1 101.7,103.0 102.9,102.8 104.1,102.7 105.4,102.2 106.6,101.9 107.8,101.5 109.1,101.2 110.3,101.0 111.6,100.9 112.8,100.8 114.0,100.5 115.3,100.3 116.5,100.2 117.7,100.0 119.0,99.9 120.2,99.7 121.4,99.6 122.7,99.5 123.9,99.4 125.1,99.0 126.4,98.8 127.6,98.7 128.9,98.6 130.1,98.5 131.3,98.5 132.6,104.7 133.8,104.1 135.0,103.5 136.3,103.0 137.5,101.3 138.7,100.1 140.0,98.9 141.2,98.4 142.4,97.9 143.7,97.0 144.9,96.1 146.2,95.4 147.4,95.1 148.6,94.9 149.9,94.2 151.1,93.7 152.3,93.4 153.6,93.0 154.8,92.9 156.0,92.8 157.3,92.4 158.5,91.9 159.7,91.4 161.0,91.0 162.2,90.6 163.5,90.4 164.7,90.2 165.9,89.8 167.2,89.4 168.4,89.1 169.6,88.8 170.9,88.7 172.1,88.6 173.3,88.4 174.6,88.1 175.8,87.9 177.0,87.7 178.3,87.5 179.5,87.3 180.8,87.1 182.0,87.0 183.2,86.8 184.5,86.7 185.7,86.4 186.9,86.1 188.2,85.8 189.4,85.7 190.6,85.5 191.9,85.4 193.1,85.2 194.3,85.1 195.6,84.7 196.8,84.4 198.1,84.0 199.3,83.8 200.5,83.8 201.8,83.6 203.0,83.4 204.2,83.2 205.5,83.0 206.7,82.7 207.9,82.5 209.2,82.5 210.4,82.3 211.6,82.2 212.9,82.1 214.1,81.9 215.4,81.7 216.6,81.5 217.8,81.3 219.1,81.3 220.3,81.1 221.5,81.0 222.8,80.8 224.0,80.6 225.2,80.4 226.5,80.2 227.7,80.0 228.9,79.9 230.2,79.8 231.4,79.7 232.7,79.4 233.9,79.1 235.1,79.0 236.4,78.8 237.6,78.4 238.8,78.4 240.1,78.2 241.3,78.2 242.5,78.0 243.8,77.8 245.0,77.7 246.2,77.5 247.5,77.4 248.7,77.2 250.0,77.1 251.2,77.0 252.4,76.9 253.7,76.7 254.9,76.5 256.1,76.4 257.4,76.2 258.6,76.1 259.8,76.0 261.1,75.8 262.3,75.7 263.5,75.6 264.8,75.4 266.0,75.2 267.3,74.9 268.5,74.7 269.7,74.6 271.0,74.5 272.2,74.4 273.4,74.3 274.7,74.0 275.9,73.9 277.1,73.8 278.4,73.6 279.6,73.5 280.8,73.3 282.1,73.2 283.3,73.1 284.6,72.9 285.8,72.7 287.0,72.5 288.3,72.3 289.5,72.3 290.7,72.2 292.0,72.1 293.2,72.0 294.4,71.9 295.7,71.7 296.9,71.5 298.1,71.4 299.4,71.3 300.6,71.2 301.9,71.0 303.1,70.9 304.3,70.7 305.6,70.5 306.8,70.4 308.0,70.2 309.3,70.1 310.5,70.0 311.7,69.9 313.0,69.8 314.2,69.8 315.4,69.6 316.7,69.4 317.9,69.3 319.2,69.1 320.4,69.0 321.6,68.9 322.9,68.8 324.1,68.6 325.3,68.5 326.6,68.4 327.8,68.3 329.0,68.1 330.3,68.0 331.5,67.8 332.7,67.8 334.0,67.7 335.2,67.6 336.5,67.5 337.7,67.3 338.9,67.2 340.2,67.2 341.4,67.1 342.6,66.8 343.9,66.6 345.1,70.6 346.3,69.8 347.6,68.3 348.8,67.7 350.0,67.0 351.3,66.1 352.5,65.7 353.8,65.3 355.0,64.8 356.2,63.9 357.5,63.2 358.7,63.0 359.9,62.7 361.2,62.5 362.4,62.0 363.6,61.6 364.9,61.1 366.1,60.9 367.3,60.4 368.6,60.2 369.8,59.9 371.1,59.7 372.3,59.5 373.5,59.2 374.8,58.8 376.0,58.5 377.2,58.1 378.5,57.6 379.7,57.2 380.9,57.1 382.2,56.9 383.4,56.7 384.6,56.3 385.9,56.0 387.1,55.7 388.4,54.9 389.6,54.3 390.8,54.0 392.1,53.8 393.3,53.5 394.5,53.1 395.8,52.8 397.0,52.3 398.2,52.0 399.5,51.7 400.7,51.4 401.9,51.0 403.2,50.8 404.4,50.7 405.7,50.5 406.9,50.3 408.1,50.1 409.4,49.9 410.6,49.7 411.8,49.5 413.1,49.4 414.3,49.1 415.5,49.0 416.8,48.8 418.0,48.6 419.2,48.4 420.5,48.3 421.7,48.2 423.0,48.0 424.2,47.9 425.4,47.8 426.7,47.6 427.9,47.5 429.1,47.3 430.4,47.1 431.6,47.0 432.8,46.8 434.1,46.6 435.3,46.5 436.5,46.4 437.8,46.3 439.0,46.2 440.3,46.0 441.5,45.9 442.7,45.8 444.0,45.6 445.2,45.5 446.4,45.2 447.7,45.1 448.9,44.9 450.1,44.7 451.4,44.5 452.6,44.4 453.8,44.1 455.1,43.9 456.3,43.7 457.6,43.5 458.8,43.3 460.0,43.1 461.3,42.9 462.5,42.6 463.7,42.5 465.0,42.4 466.2,42.3 467.4,42.2 468.7,42.0 469.9,41.9 471.1,41.7 472.4,41.5 473.6,41.3 474.9,41.1 476.1,40.9 477.3,40.7 478.6,40.4 479.8,40.3 481.0,40.1 482.3,40.0 483.5,39.9 484.7,39.8 486.0,39.6 487.2,39.4 488.4,39.3 489.7,39.0 490.9,38.9 492.2,38.8 493.4,38.6 494.6,38.5 495.9,38.4 497.1,38.3 498.3,38.2 499.6,38.1 500.8,38.0 502.0,37.8 503.3,37.7 504.5,37.5 505.7,37.3 507.0,37.2 508.2,37.1 509.5,37.0 510.7,36.8 511.9,36.7 513.2,36.6 514.4,36.4 515.6,36.3 516.9,36.0 518.1,35.9 519.3,35.6 520.6,35.5 521.8,35.4 523.0,35.4 524.3,35.2 525.5,35.1 526.8,35.1 528.0,35.0 529.2,34.9 530.5,34.8 531.7,34.6 532.9,34.5 534.2,34.3 535.4,34.1 536.6,34.0 537.9,33.9 539.1,33.7 540.3,33.6 541.6,33.5 542.8,33.4 544.1,33.3 545.3,33.2 546.5,33.0 547.8,32.7 549.0,32.5 550.2,32.3 551.5,32.2 552.7,32.0 553.9,31.9 555.2,31.7 556.4,31.6 557.6,31.5 558.9,31.4 560.1,31.3 561.4,31.1 562.6,30.9 563.8,30.8 565.1,30.6 566.3,30.5 567.5,30.3 568.8,30.1 570.0,30.0 570.0,30.0,120" />
  
  <!-- Linea principale -->
  <polyline fill="none" stroke="#0366d6" stroke-width="2.5" stroke-linecap="round" stroke-linejoin="round" points="30.0,120.0 31.2,119.5 32.5,119.0 33.7,118.5 34.9,118.4 36.2,118.2 37.4,117.6 38.6,117.2 39.9,117.0 41.1,116.4 42.4,116.1 43.6,115.8 44.8,115.7 46.1,115.4 47.3,115.0 48.5,114.6 49.8,114.3 51.0,114.1 52.2,113.9 53.5,113.7 54.7,113.4 55.9,113.1 57.2,113.0 58.4,112.7 59.7,111.8 60.9,111.5 62.1,111.2 63.4,110.8 64.6,110.5 65.8,110.2 67.1,110.0 68.3,109.9 69.5,109.6 70.8,109.2 72.0,108.8 73.2,108.5 74.5,108.2 75.7,108.1 77.0,108.1 78.2,107.9 79.4,107.6 80.7,107.4 81.9,107.3 83.1,107.0 84.4,106.5 85.6,106.4 86.8,106.3 88.1,106.1 89.3,105.7 90.5,105.5 91.8,105.1 93.0,104.8 94.3,104.4 95.5,104.3 96.7,104.1 98.0,103.8 99.2,103.4 100.4,103.1 101.7,103.0 102.9,102.8 104.1,102.7 105.4,102.2 106.6,101.9 107.8,101.5 109.1,101.2 110.3,101.0 111.6,100.9 112.8,100.8 114.0,100.5 115.3,100.3 116.5,100.2 117.7,100.0 119.0,99.9 120.2,99.7 121.4,99.6 122.7,99.5 123.9,99.4 125.1,99.0 126.4,98.8 127.6,98.7 128.9,98.6 130.1,98.5 131.3,98.5 132.6,104.7 133.8,104.1 135.0,103.5 136.3,103.0 137.5,101.3 138.7,100.1 140.0,98.9 141.2,98.4 142.4,97.9 143.7,97.0 144.9,96.1 146.2,95.4 147.4,95.1 148.6,94.9 149.9,94.2 151.1,93.7 152.3,93.4 153.6,93.0 154.8,92.9 156.0,92.8 157.3,92.4 158.5,91.9 159.7,91.4 161.0,91.0 162.2,90.6 163.5,90.4 164.7,90.2 165.9,89.8 167.2,89.4 168.4,89.1 169.6,88.8 170.9,88.7 172.1,88.6 173.3,88.4 174.6,88.1 175.8,87.9 177.0,87.7 178.3,87.5 179.5,87.3 180.8,87.1 182.0,87.0 183.2,86.8 184.5,86.7 185.7,86.4 186.9,86.1 188.2,85.8 189.4,85.7 190.6,85.5 191.9,85.4 193.1,85.2 194.3,85.1 195.6,84.7 196.8,84.4 198.1,84.0 199.3,83.8 200.5,83.8 201.8,83.6 203.0,83.4 204.2,83.2 205.5,83.0 206.7,82.7 207.9,82.5 209.2,82.5 210.4,82.3 211.6,82.2 212.9,82.1 214.1,81.9 215.4,81.7 216.6,81.5 217.8,81.3 219.1,81.3 220.3,81.1 221.5,81.0 222.8,80.8 224.0,80.6 225.2,80.4 226.5,80.2 227.7,80.0 228.9,79.9 230.2,79.8 231.4,79.7 232.7,79.4 233.9,79.1 235.1,79.0 236.4,78.8 237.6,78.4 238.8,78.4 240.1,78.2 241.3,78.2 242.5,78.0 243.8,77.8 245.0,77.7 246.2,77.5 247.5,77.4 248.7,77.2 250.0,77.1 251.2,77.0 252.4,76.9 253.7,76.7 254.9,76.5 256.1,76.4 257.4,76.2 258.6,76.1 259.8,76.0 261.1,75.8 262.3,75.7 263.5,75.6 264.8,75.4 266.0,75.2 267.3,74.9 268.5,74.7 269.7,74.6 271.0,74.5 272.2,74.4 273.4,74.3 274.7,74.0 275.9,73.9 277.1,73.8 278.4,73.6 279.6,73.5 280.8,73.3 282.1,73.2 283.3,73.1 284.6,72.9 285.8,72.7 287.0,72.5 288.3,72.3 289.5,72.3 290.7,72.2 292.0,72.1 293.2,72.0 294.4,71.9 295.7,71.7 296.9,71.5 298.1,71.4 299.4,71.3 300.6,71.2 301.9,71.0 303.1,70.9 304.3,70.7 305.6,70.5 306.8,70.4 308.0,70.2 309.3,70.1 310.5,70.0 311.7,69.9 313.0,69.8 314.2,69.8 315.4,69.6 316.7,69.4 317.9,69.3 319.2,69.1 320.4,69.0 321.6,68.9 322.9,68.8 324.1,68.6 325.3,68.5 326.6,68.4 327.8,68.3 329.0,68.1 330.3,68.0 331.5,67.8 332.7,67.8 334.0,67.7 335.2,67.6 336.5,67.5 337.7,67.3 338.9,67.2 340.2,67.2 341.4,67.1 342.6,66.8 343.9,66.6 345.1,70.6 346.3,69.8 347.6,68.3 348.8,67.7 350.0,67.0 351.3,66.1 352.5,65.7 353.8,65.3 355.0,64.8 356.2,63.9 357.5,63.2 358.7,63.0 359.9,62.7 361.2,62.5 362.4,62.0 363.6,61.6 364.9,61.1 366.1,60.9 367.3,60.4 368.6,60.2 369.8,59.9 371.1,59.7 372.3,59.5 373.5,59.2 374.8,58.8 376.0,58.5 377.2,58.1 378.5,57.6 379.7,57.2 380.9,57.1 382.2,56.9 383.4,56.7 384.6,56.3 385.9,56.0 387.1,55.7 388.4,54.9 389.6,54.3 390.8,54.0 392.1,53.8 393.3,53.5 394.5,53.1 395.8,52.8 397.0,52.3 398.2,52.0 399.5,51.7 400.7,51.4 401.9,51.0 403.2,50.8 404.4,50.7 405.7,50.5 406.9,50.3 408.1,50.1 409.4,49.9 410.6,49.7 411.8,49.5 413.1,49.4 414.3,49.1 415.5,49.0 416.8,48.8 418.0,48.6 419.2,48.4 420.5,48.3 421.7,48.2 423.0,48.0 424.2,47.9 425.4,47.8 426.7,47.6 427.9,47.5 429.1,47.3 430.4,47.1 431.6,47.0 432.8,46.8 434.1,46.6 435.3,46.5 436.5,46.4 437.8,46.3 439.0,46.2 440.3,46.0 441.5,45.9 442.7,45.8 444.0,45.6 445.2,45.5 446.4,45.2 447.7,45.1 448.9,44.9 450.1,44.7 451.4,44.5 452.6,44.4 453.8,44.1 455.1,43.9 456.3,43.7 457.6,43.5 458.8,43.3 460.0,43.1 461.3,42.9 462.5,42.6 463.7,42.5 465.0,42.4 466.2,42.3 467.4,42.2 468.7,42.0 469.9,41.9 471.1,41.7 472.4,41.5 473.6,41.3 474.9,41.1 476.1,40.9 477.3,40.7 478.6,40.4 479.8,40.3 481.0,40.1 482.3,40.0 483.5,39.9 484.7,39.8 486.0,39.6 487.2,39.4 488.4,39.3 489.7,39.0 490.9,38.9 492.2,38.8 493.4,38.6 494.6,38.5 495.9,38.4 497.1,38.3 498.3,38.2 499.6,38.1 500.8,38.0 502.0,37.8 503.3,37.7 504.5,37.5 505.7,37.3 507.0,37.2 508.2,37.1 509.5,37.0 510.7,36.8 511.9,36.7 513.2,36.6 514.4,36.4 515.6,36.3 516.9,36.0 518.1,35.9 519.3,35.6 520.6,35.5 521.8,35.4 523.0,35.4 524.3,35.2 525.5,35.1 526.8,35.1 528.0,35.0 529.2,34.9 530.5,34.8 531.7,34.6 532.9,34.5 534.2,34.3 535.4,34.1 536.6,34.0 537.9,33.9 539.1,33.7 540.3,33.6 541.6,33.5 542.8,33.4 544.1,33.3 545.3,33.2 546.5,33.0 547.8,32.7 549.0,32.5 550.2,32.3 551.5,32.2 552.7,32.0 553.9,31.9 555.2,31.7 556.4,31.6 557.6,31.5 558.9,31.4 560.1,31.3 561.4,31.1 562.6,30.9 563.8,30.8 565.1,30.6 566.3,30.5 567.5,30.3 568.8,30.1 570.0,30.0" />
  
  <!-- Punto finale luminoso -->
  <circle cx="570.0" cy="30.0" r="4" fill="#ffffff" stroke="#0366d6" stroke-width="2.5" />
</svg>