<svg width="600" height="150" viewBox="0 0 600 150" xmlns="http://www.w3.org/2000/svg">
  <defs>
    <filter id="shadow2" x="-2%" y="-2%" width="104%" height="108%">
      <feDropShadow dx="0" dy="2" stdDeviation="3" flood-opacity="0.1" />
    </filter>
    <linearGradient id="fillGrad" x1="0" y1="0" x2="0" y2="1">
      <stop offset="0%" stop-color="#0366d6" stop-opacity="0.3"/>
      <stop offset="100%" stop-color="#0366d6" stop-opacity="0.02"/>
    </linearGradient>
  </defs>
  <rect width="600" height="150" rx="12" fill="#ffffff" filter="url(#shadow2)" stroke="#e1e4e8" stroke-width="1"/>
  <text x="20" y="24" fill="#2b3137" font-family="-apple-system,BlinkMacSystemFont,'Segoe UI',Helvetica,Arial,sans-serif" font-size="14" font-weight="600">📈 Download Growth (Actual: 87.5k)</text>
  
  <!-- Area sotto la linea -->
  <polygon fill="url(#fillGrad)" points="30.0,120.0,120 30.0,120.0 31.3,119.5 32.5,119.0 33.8,118.5 35.0,118.4 36.3,118.2 37.6,117.6 38.8,117.2 40.1,117.0 41.4,116.4 42.6,116.1 43.9,115.8 45.1,115.6 46.4,115.3 47.7,115.0 48.9,114.5 50.2,114.2 51.4,114.0 52.7,113.8 54.0,113.6 55.2,113.3 56.5,113.0 57.8,112.9 59.0,112.6 60.3,111.7 61.5,111.4 62.8,111.0 64.1,110.7 65.3,110.4 66.6,110.1 67.9,109.9 69.1,109.7 70.4,109.5 71.6,109.0 72.9,108.6 74.2,108.4 75.4,108.0 76.7,108.0 77.9,107.9 79.2,107.7 80.5,107.4 81.7,107.3 83.0,107.1 84.3,106.8 85.5,106.3 86.8,106.2 88.0,106.1 89.3,105.9 90.6,105.5 91.8,105.2 93.1,104.8 94.3,104.5 95.6,104.2 96.9,104.1 98.1,103.9 99.4,103.5 100.7,103.1 101.9,102.9 103.2,102.7 104.4,102.5 105.7,102.4 107.0,102.0 108.2,101.6 109.5,101.2 110.7,100.9 112.0,100.7 113.3,100.6 114.5,100.5 115.8,100.2 117.1,100.0 118.3,99.8 119.6,99.7 120.8,99.6 122.1,99.4 123.4,99.2 124.6,99.2 125.9,99.1 127.1,98.7 128.4,98.5 129.7,98.4 130.9,98.3 132.2,98.2 133.5,98.2 134.7,104.4 136.0,103.8 137.2,103.3 138.5,102.7 139.8,101.0 141.0,99.8 142.3,98.5 143.6,98.1 144.8,97.5 146.1,96.7 147.3,95.7 148.6,95.0 149.9,94.7 151.1,94.5 152.4,93.8 153.6,93.3 154.9,93.0 156.2,92.6 157.4,92.4 158.7,92.4 160.0,92.0 161.2,91.4 162.5,91.0 163.7,90.6 165.0,90.1 166.3,89.9 167.5,89.7 168.8,89.3 170.0,89.0 171.3,88.6 172.6,88.3 173.8,88.2 175.1,88.1 176.4,87.9 177.6,87.6 178.9,87.4 180.1,87.2 181.4,87.0 182.7,86.8 183.9,86.6 185.2,86.5 186.4,86.3 187.7,86.2 189.0,85.8 190.2,85.6 191.5,85.3 192.8,85.1 194.0,85.0 195.3,84.8 196.5,84.7 197.8,84.5 199.1,84.1 200.3,83.8 201.6,83.4 202.9,83.3 204.1,83.2 205.4,83.1 206.6,82.9 207.9,82.6 209.2,82.4 210.4,82.1 211.7,82.0 212.9,81.9 214.2,81.7 215.5,81.6 216.7,81.5 218.0,81.3 219.3,81.1 220.5,80.9 221.8,80.7 223.0,80.7 224.3,80.5 225.6,80.4 226.8,80.2 228.1,80.0 229.3,79.8 230.6,79.6 231.9,79.4 233.1,79.3 234.4,79.2 235.7,79.0 236.9,78.8 238.2,78.5 239.4,78.3 240.7,78.1 242.0,77.8 243.2,77.7 244.5,77.6 245.7,77.5 247.0,77.3 248.3,77.2 249.5,77.0 250.8,76.8 252.1,76.7 253.3,76.6 254.6,76.4 255.8,76.3 257.1,76.2 258.4,76.0 259.6,75.8 260.9,75.7 262.1,75.5 263.4,75.4 264.7,75.3 265.9,75.1 267.2,75.0 268.5,74.9 269.7,74.7 271.0,74.5 272.2,74.2 273.5,74.0 274.8,73.9 276.0,73.8 277.3,73.7 278.6,73.5 279.8,73.3 281.1,73.2 282.3,73.1 283.6,72.9 284.9,72.8 286.1,72.6 287.4,72.5 288.6,72.4 289.9,72.2 291.2,72.0 292.4,71.8 293.7,71.6 295.0,71.5 296.2,71.4 297.5,71.4 298.7,71.2 300.0,71.1 301.3,70.9 302.5,70.8 303.8,70.6 305.0,70.5 306.3,70.4 307.6,70.3 308.8,70.2 310.1,70.0 311.4,69.7 312.6,69.6 313.9,69.4 315.1,69.3 316.4,69.2 317.7,69.1 318.9,69.1 320.2,69.0 321.4,68.8 322.7,68.6 324.0,68.5 325.2,68.3 326.5,68.2 327.8,68.1 329.0,68.0 330.3,67.8 331.5,67.7 332.8,67.6 334.1,67.5 335.3,67.3 336.6,67.2 337.9,67.0 339.1,66.9 340.4,66.8 341.6,66.7 342.9,66.6 344.2,66.5 345.4,66.4 346.7,66.3 347.9,66.2 349.2,65.9 350.5,65.7 351.7,69.8 353.0,69.0 354.3,67.5 355.5,66.9 356.8,66.2 358.0,65.3 359.3,64.8 360.6,64.5 361.8,63.9 363.1,63.0 364.3,62.4 365.6,62.2 366.9,61.8 368.1,61.5 369.4,61.1 370.7,60.7 371.9,60.2 373.2,59.9 374.4,59.5 375.7,59.2 377.0,58.9 378.2,58.7 379.5,58.5 380.7,58.3 382.0,57.8 383.3,57.5 384.5,57.1 385.8,56.6 387.1,56.2 388.3,56.1 389.6,55.9 390.8,55.7 392.1,55.3 393.4,55.0 394.6,54.7 395.9,53.9 397.1,53.2 398.4,52.9 399.7,52.8 400.9,52.5 402.2,52.1 403.5,51.7 404.7,51.2 406.0,50.9 407.2,50.6 408.5,50.3 409.8,49.9 411.0,49.7 412.3,49.6 413.6,49.4 414.8,49.2 416.1,49.0 417.3,48.8 418.6,48.6 419.9,48.4 421.1,48.3 422.4,48.0 423.6,47.9 424.9,47.7 426.2,47.5 427.4,47.3 428.7,47.2 430.0,47.1 431.2,46.9 432.5,46.8 433.7,46.7 435.0,46.5 436.3,46.4 437.5,46.2 438.8,46.0 440.0,45.8 441.3,45.7 442.6,45.5 443.8,45.4 445.1,45.3 446.4,45.1 447.6,45.0 448.9,44.9 450.1,44.8 451.4,44.6 452.7,44.4 453.9,44.3 455.2,44.1 456.4,43.9 457.7,43.7 459.0,43.5 460.2,43.3 461.5,43.2 462.8,42.9 464.0,42.7 465.3,42.5 466.5,42.3 467.8,42.1 469.1,41.9 470.3,41.7 471.6,41.4 472.9,41.3 474.1,41.2 475.4,41.1 476.6,41.0 477.9,40.8 479.2,40.6 480.4,40.5 481.7,40.3 482.9,40.1 484.2,39.9 485.5,39.6 486.7,39.5 488.0,39.2 489.3,39.1 490.5,38.9 491.8,38.8 493.0,38.7 494.3,38.5 495.6,38.4 496.8,38.2 498.1,38.0 499.3,37.8 500.6,37.6 501.9,37.5 503.1,37.4 504.4,37.2 505.7,37.1 506.9,37.1 508.2,36.9 509.4,36.8 510.7,36.7 512.0,36.5 513.2,36.4 514.5,36.2 515.7,36.0 517.0,35.9 518.3,35.8 519.5,35.7 520.8,35.5 522.1,35.4 523.3,35.3 524.6,35.1 525.8,35.0 527.1,34.7 528.4,34.6 529.6,34.3 530.9,34.2 532.1,34.1 533.4,34.0 534.7,33.9 535.9,33.8 537.2,33.8 538.5,33.6 539.7,33.5 541.0,33.4 542.2,33.3 543.5,33.1 544.8,32.9 546.0,32.8 547.3,32.7 548.6,32.6 549.8,32.4 551.1,32.3 552.3,32.1 553.6,32.0 554.9,31.9 556.1,31.8 557.4,31.6 558.6,31.4 559.9,31.2 561.2,30.9 562.4,30.8 563.7,30.6 565.0,30.5 566.2,30.3 567.5,30.2 568.7,30.1 570.0,30.0 570.0,30.0,120" />
  
  <!-- Linea principale -->
  <polyline fill="none" stroke="#0366d6" stroke-width="2.5" stroke-linecap="round" stroke-linejoin="round" points="30.0,120.0 31.3,119.5 32.5,119.0 33.8,118.5 35.0,118.4 36.3,118.2 37.6,117.6 38.8,117.2 40.1,117.0 41.4,116.4 42.6,116.1 43.9,115.8 45.1,115.6 46.4,115.3 47.7,115.0 48.9,114.5 50.2,114.2 51.4,114.0 52.7,113.8 54.0,113.6 55.2,113.3 56.5,113.0 57.8,112.9 59.0,112.6 60.3,111.7 61.5,111.4 62.8,111.0 64.1,110.7 65.3,110.4 66.6,110.1 67.9,109.9 69.1,109.7 70.4,109.5 71.6,109.0 72.9,108.6 74.2,108.4 75.4,108.0 76.7,108.0 77.9,107.9 79.2,107.7 80.5,107.4 81.7,107.3 83.0,107.1 84.3,106.8 85.5,106.3 86.8,106.2 88.0,106.1 89.3,105.9 90.6,105.5 91.8,105.2 93.1,104.8 94.3,104.5 95.6,104.2 96.9,104.1 98.1,103.9 99.4,103.5 100.7,103.1 101.9,102.9 103.2,102.7 104.4,102.5 105.7,102.4 107.0,102.0 108.2,101.6 109.5,101.2 110.7,100.9 112.0,100.7 113.3,100.6 114.5,100.5 115.8,100.2 117.1,100.0 118.3,99.8 119.6,99.7 120.8,99.6 122.1,99.4 123.4,99.2 124.6,99.2 125.9,99.1 127.1,98.7 128.4,98.5 129.7,98.4 130.9,98.3 132.2,98.2 133.5,98.2 134.7,104.4 136.0,103.8 137.2,103.3 138.5,102.7 139.8,101.0 141.0,99.8 142.3,98.5 143.6,98.1 144.8,97.5 146.1,96.7 147.3,95.7 148.6,95.0 149.9,94.7 151.1,94.5 152.4,93.8 153.6,93.3 154.9,93.0 156.2,92.6 157.4,92.4 158.7,92.4 160.0,92.0 161.2,91.4 162.5,91.0 163.7,90.6 165.0,90.1 166.3,89.9 167.5,89.7 168.8,89.3 170.0,89.0 171.3,88.6 172.6,88.3 173.8,88.2 175.1,88.1 176.4,87.9 177.6,87.6 178.9,87.4 180.1,87.2 181.4,87.0 182.7,86.8 183.9,86.6 185.2,86.5 186.4,86.3 187.7,86.2 189.0,85.8 190.2,85.6 191.5,85.3 192.8,85.1 194.0,85.0 195.3,84.8 196.5,84.7 197.8,84.5 199.1,84.1 200.3,83.8 201.6,83.4 202.9,83.3 204.1,83.2 205.4,83.1 206.6,82.9 207.9,82.6 209.2,82.4 210.4,82.1 211.7,82.0 212.9,81.9 214.2,81.7 215.5,81.6 216.7,81.5 218.0,81.3 219.3,81.1 220.5,80.9 221.8,80.7 223.0,80.7 224.3,80.5 225.6,80.4 226.8,80.2 228.1,80.0 229.3,79.8 230.6,79.6 231.9,79.4 233.1,79.3 234.4,79.2 235.7,79.0 236.9,78.8 238.2,78.5 239.4,78.3 240.7,78.1 242.0,77.8 243.2,77.7 244.5,77.6 245.7,77.5 247.0,77.3 248.3,77.2 249.5,77.0 250.8,76.8 252.1,76.7 253.3,76.6 254.6,76.4 255.8,76.3 257.1,76.2 258.4,76.0 259.6,75.8 260.9,75.7 262.1,75.5 263.4,75.4 264.7,75.3 265.9,75.1 267.2,75.0 268.5,74.9 269.7,74.7 271.0,74.5 272.2,74.2 273.5,74.0 274.8,73.9 276.0,73.8 277.3,73.7 278.6,73.5 279.8,73.3 281.1,73.2 282.3,73.1 283.6,72.9 284.9,72.8 286.1,72.6 287.4,72.5 288.6,72.4 289.9,72.2 291.2,72.0 292.4,71.8 293.7,71.6 295.0,71.5 296.2,71.4 297.5,71.4 298.7,71.2 300.0,71.1 301.3,70.9 302.5,70.8 303.8,70.6 305.0,70.5 306.3,70.4 307.6,70.3 308.8,70.2 310.1,70.0 311.4,69.7 312.6,69.6 313.9,69.4 315.1,69.3 316.4,69.2 317.7,69.1 318.9,69.1 320.2,69.0 321.4,68.8 322.7,68.6 324.0,68.5 325.2,68.3 326.5,68.2 327.8,68.1 329.0,68.0 330.3,67.8 331.5,67.7 332.8,67.6 334.1,67.5 335.3,67.3 336.6,67.2 337.9,67.0 339.1,66.9 340.4,66.8 341.6,66.7 342.9,66.6 344.2,66.5 345.4,66.4 346.7,66.3 347.9,66.2 349.2,65.9 350.5,65.7 351.7,69.8 353.0,69.0 354.3,67.5 355.5,66.9 356.8,66.2 358.0,65.3 359.3,64.8 360.6,64.5 361.8,63.9 363.1,63.0 364.3,62.4 365.6,62.2 366.9,61.8 368.1,61.5 369.4,61.1 370.7,60.7 371.9,60.2 373.2,59.9 374.4,59.5 375.7,59.2 377.0,58.9 378.2,58.7 379.5,58.5 380.7,58.3 382.0,57.8 383.3,57.5 384.5,57.1 385.8,56.6 387.1,56.2 388.3,56.1 389.6,55.9 390.8,55.7 392.1,55.3 393.4,55.0 394.6,54.7 395.9,53.9 397.1,53.2 398.4,52.9 399.7,52.8 400.9,52.5 402.2,52.1 403.5,51.7 404.7,51.2 406.0,50.9 407.2,50.6 408.5,50.3 409.8,49.9 411.0,49.7 412.3,49.6 413.6,49.4 414.8,49.2 416.1,49.0 417.3,48.8 418.6,48.6 419.9,48.4 421.1,48.3 422.4,48.0 423.6,47.9 424.9,47.7 426.2,47.5 427.4,47.3 428.7,47.2 430.0,47.1 431.2,46.9 432.5,46.8 433.7,46.7 435.0,46.5 436.3,46.4 437.5,46.2 438.8,46.0 440.0,45.8 441.3,45.7 442.6,45.5 443.8,45.4 445.1,45.3 446.4,45.1 447.6,45.0 448.9,44.9 450.1,44.8 451.4,44.6 452.7,44.4 453.9,44.3 455.2,44.1 456.4,43.9 457.7,43.7 459.0,43.5 460.2,43.3 461.5,43.2 462.8,42.9 464.0,42.7 465.3,42.5 466.5,42.3 467.8,42.1 469.1,41.9 470.3,41.7 471.6,41.4 472.9,41.3 474.1,41.2 475.4,41.1 476.6,41.0 477.9,40.8 479.2,40.6 480.4,40.5 481.7,40.3 482.9,40.1 484.2,39.9 485.5,39.6 486.7,39.5 488.0,39.2 489.3,39.1 490.5,38.9 491.8,38.8 493.0,38.7 494.3,38.5 495.6,38.4 496.8,38.2 498.1,38.0 499.3,37.8 500.6,37.6 501.9,37.5 503.1,37.4 504.4,37.2 505.7,37.1 506.9,37.1 508.2,36.9 509.4,36.8 510.7,36.7 512.0,36.5 513.2,36.4 514.5,36.2 515.7,36.0 517.0,35.9 518.3,35.8 519.5,35.7 520.8,35.5 522.1,35.4 523.3,35.3 524.6,35.1 525.8,35.0 527.1,34.7 528.4,34.6 529.6,34.3 530.9,34.2 532.1,34.1 533.4,34.0 534.7,33.9 535.9,33.8 537.2,33.8 538.5,33.6 539.7,33.5 541.0,33.4 542.2,33.3 543.5,33.1 544.8,32.9 546.0,32.8 547.3,32.7 548.6,32.6 549.8,32.4 551.1,32.3 552.3,32.1 553.6,32.0 554.9,31.9 556.1,31.8 557.4,31.6 558.6,31.4 559.9,31.2 561.2,30.9 562.4,30.8 563.7,30.6 565.0,30.5 566.2,30.3 567.5,30.2 568.7,30.1 570.0,30.0" />
  
  <!-- Punto finale luminoso -->
  <circle cx="570.0" cy="30.0" r="4" fill="#ffffff" stroke="#0366d6" stroke-width="2.5" />
</svg>