<svg width="600" height="150" viewBox="0 0 600 150" xmlns="http://www.w3.org/2000/svg">
  <defs>
    <filter id="shadow2" x="-2%" y="-2%" width="104%" height="108%">
      <feDropShadow dx="0" dy="2" stdDeviation="3" flood-opacity="0.1" />
    </filter>
    <linearGradient id="fillGrad" x1="0" y1="0" x2="0" y2="1">
      <stop offset="0%" stop-color="#0366d6" stop-opacity="0.3"/>
      <stop offset="100%" stop-color="#0366d6" stop-opacity="0.02"/>
    </linearGradient>
  </defs>
  <rect width="600" height="150" rx="12" fill="#ffffff" filter="url(#shadow2)" stroke="#e1e4e8" stroke-width="1"/>
  <text x="20" y="24" fill="#2b3137" font-family="-apple-system,BlinkMacSystemFont,'Segoe UI',Helvetica,Arial,sans-serif" font-size="14" font-weight="600">📈 Download Growth (Actual: 84.8k)</text>
  
  <!-- Area sotto la linea -->
  <polygon fill="url(#fillGrad)" points="30.0,120.0,120 30.0,120.0 31.6,119.4 33.1,118.8 34.7,118.3 36.2,118.2 37.8,117.9 39.3,117.2 40.9,116.8 42.4,116.5 44.0,115.8 45.5,115.5 47.1,115.1 48.6,114.9 50.2,114.6 51.7,114.2 53.3,113.7 54.8,113.3 56.4,113.1 57.9,112.9 59.5,112.6 61.0,112.2 62.6,111.9 64.1,111.8 65.7,111.5 67.2,110.4 68.8,110.1 70.3,109.7 71.9,109.3 73.4,108.9 75.0,108.6 76.6,108.3 78.1,108.1 79.7,107.8 81.2,107.3 82.8,106.9 84.3,106.6 85.9,106.2 87.4,106.1 89.0,106.0 90.5,105.9 92.1,105.5 93.6,105.3 95.2,105.2 96.7,104.8 98.3,104.2 99.8,104.1 101.4,104.0 102.9,103.7 104.5,103.3 106.0,103.0 107.6,102.5 109.1,102.2 110.7,101.8 112.2,101.7 113.8,101.4 115.3,101.0 116.9,100.6 118.4,100.3 120.0,100.1 121.6,99.9 123.1,99.7 124.7,99.2 126.2,98.8 127.8,98.4 129.3,98.0 130.9,97.8 132.4,97.7 134.0,97.5 135.5,97.2 137.1,97.0 138.6,96.8 140.2,96.6 141.7,96.5 143.3,96.2 144.8,96.1 146.4,96.0 147.9,95.9 149.5,95.5 151.0,95.2 152.6,95.1 154.1,95.0 155.7,94.9 157.2,94.9 158.8,102.1 160.3,101.4 161.9,100.7 163.4,100.1 165.0,98.1 166.6,96.7 168.1,95.3 169.7,94.7 171.2,94.1 172.8,93.1 174.3,92.0 175.9,91.2 177.4,90.9 179.0,90.6 180.5,89.8 182.1,89.3 183.6,88.9 185.2,88.4 186.7,88.2 188.3,88.2 189.8,87.7 191.4,87.1 192.9,86.6 194.5,86.1 196.0,85.6 197.6,85.3 199.1,85.1 200.7,84.7 202.2,84.2 203.8,83.8 205.3,83.5 206.9,83.4 208.4,83.3 210.0,83.0 211.6,82.7 213.1,82.4 214.7,82.2 216.2,82.0 217.8,81.8 219.3,81.6 220.9,81.4 222.4,81.2 224.0,81.0 225.5,80.6 227.1,80.4 228.6,80.0 230.2,79.9 231.7,79.6 233.3,79.5 234.8,79.3 236.4,79.2 237.9,78.6 239.5,78.3 241.0,77.9 242.6,77.7 244.1,77.7 245.7,77.5 247.2,77.2 248.8,77.0 250.3,76.7 251.9,76.4 253.4,76.2 255.0,76.1 256.6,75.9 258.1,75.8 259.7,75.6 261.2,75.4 262.8,75.2 264.3,74.9 265.9,74.8 267.4,74.7 269.0,74.5 270.5,74.4 272.1,74.2 273.6,73.9 275.2,73.7 276.7,73.5 278.3,73.2 279.8,73.1 281.4,73.0 282.9,72.8 284.5,72.5 286.0,72.2 287.6,72.0 289.1,71.8 290.7,71.4 292.2,71.3 293.8,71.2 295.3,71.0 296.9,70.8 298.4,70.7 300.0,70.5 301.6,70.3 303.1,70.1 304.7,70.0 306.2,69.8 307.8,69.7 309.3,69.6 310.9,69.4 312.4,69.1 314.0,69.0 315.5,68.7 317.1,68.6 318.6,68.5 320.2,68.3 321.7,68.2 323.3,68.1 324.8,67.9 326.4,67.6 327.9,67.2 329.5,67.0 331.0,66.8 332.6,66.8 334.1,66.7 335.7,66.5 337.2,66.2 338.8,66.1 340.3,66.0 341.9,65.7 343.4,65.6 345.0,65.4 346.6,65.3 348.1,65.1 349.7,64.9 351.2,64.7 352.8,64.5 354.3,64.2 355.9,64.1 357.4,64.1 359.0,64.0 360.5,63.8 362.1,63.7 363.6,63.5 365.2,63.3 366.7,63.1 368.3,63.0 369.8,62.9 371.4,62.7 372.9,62.6 374.5,62.4 376.0,62.1 377.6,61.9 379.1,61.8 380.7,61.6 382.2,61.5 383.8,61.4 385.3,61.3 386.9,61.2 388.4,61.1 390.0,60.8 391.6,60.7 393.1,60.5 394.7,60.4 396.2,60.2 397.8,60.1 399.3,59.9 400.9,59.8 402.4,59.6 404.0,59.5 405.5,59.3 407.1,59.1 408.6,59.0 410.2,58.9 411.7,58.8 413.3,58.7 414.8,58.5 416.4,58.4 417.9,58.3 419.5,58.2 421.0,58.1 422.6,57.7 424.1,57.5 425.7,62.2 427.2,61.3 428.8,59.5 430.3,58.8 431.9,58.0 433.4,57.0 435.0,56.4 436.6,56.1 438.1,55.4 439.7,54.4 441.2,53.6 442.8,53.4 444.3,53.0 445.9,52.7 447.4,52.2 449.0,51.7 450.5,51.1 452.1,50.8 453.6,50.3 455.2,50.0 456.7,49.7 458.3,49.4 459.8,49.2 461.4,48.9 462.9,48.4 464.5,48.1 466.0,47.6 467.6,47.0 469.1,46.6 470.7,46.4 472.2,46.2 473.8,45.9 475.3,45.5 476.9,45.1 478.4,44.8 480.0,43.9 481.6,43.1 483.1,42.8 484.7,42.6 486.2,42.3 487.8,41.8 489.3,41.3 490.9,40.8 492.4,40.4 494.0,40.1 495.5,39.7 497.1,39.3 498.6,39.1 500.2,38.9 501.7,38.7 503.3,38.5 504.8,38.2 506.4,38.0 507.9,37.8 509.5,37.6 511.0,37.4 512.6,37.1 514.1,36.9 515.7,36.7 517.2,36.5 518.8,36.3 520.3,36.1 521.9,36.0 523.4,35.8 525.0,35.7 526.6,35.6 528.1,35.3 529.7,35.2 531.2,35.0 532.8,34.7 534.3,34.5 535.9,34.4 537.4,34.2 539.0,34.1 540.5,33.9 542.1,33.8 543.6,33.6 545.2,33.5 546.7,33.4 548.3,33.2 549.8,33.0 551.4,32.8 552.9,32.5 554.5,32.3 556.0,32.2 557.6,31.9 559.1,31.7 560.7,31.5 562.2,31.2 563.8,31.0 565.3,30.8 566.9,30.5 568.4,30.3 570.0,30.0 570.0,30.0,120" />
  
  <!-- Linea principale -->
  <polyline fill="none" stroke="#0366d6" stroke-width="2.5" stroke-linecap="round" stroke-linejoin="round" points="30.0,120.0 31.6,119.4 33.1,118.8 34.7,118.3 36.2,118.2 37.8,117.9 39.3,117.2 40.9,116.8 42.4,116.5 44.0,115.8 45.5,115.5 47.1,115.1 48.6,114.9 50.2,114.6 51.7,114.2 53.3,113.7 54.8,113.3 56.4,113.1 57.9,112.9 59.5,112.6 61.0,112.2 62.6,111.9 64.1,111.8 65.7,111.5 67.2,110.4 68.8,110.1 70.3,109.7 71.9,109.3 73.4,108.9 75.0,108.6 76.6,108.3 78.1,108.1 79.7,107.8 81.2,107.3 82.8,106.9 84.3,106.6 85.9,106.2 87.4,106.1 89.0,106.0 90.5,105.9 92.1,105.5 93.6,105.3 95.2,105.2 96.7,104.8 98.3,104.2 99.8,104.1 101.4,104.0 102.9,103.7 104.5,103.3 106.0,103.0 107.6,102.5 109.1,102.2 110.7,101.8 112.2,101.7 113.8,101.4 115.3,101.0 116.9,100.6 118.4,100.3 120.0,100.1 121.6,99.9 123.1,99.7 124.7,99.2 126.2,98.8 127.8,98.4 129.3,98.0 130.9,97.8 132.4,97.7 134.0,97.5 135.5,97.2 137.1,97.0 138.6,96.8 140.2,96.6 141.7,96.5 143.3,96.2 144.8,96.1 146.4,96.0 147.9,95.9 149.5,95.5 151.0,95.2 152.6,95.1 154.1,95.0 155.7,94.9 157.2,94.9 158.8,102.1 160.3,101.4 161.9,100.7 163.4,100.1 165.0,98.1 166.6,96.7 168.1,95.3 169.7,94.7 171.2,94.1 172.8,93.1 174.3,92.0 175.9,91.2 177.4,90.9 179.0,90.6 180.5,89.8 182.1,89.3 183.6,88.9 185.2,88.4 186.7,88.2 188.3,88.2 189.8,87.7 191.4,87.1 192.9,86.6 194.5,86.1 196.0,85.6 197.6,85.3 199.1,85.1 200.7,84.7 202.2,84.2 203.8,83.8 205.3,83.5 206.9,83.4 208.4,83.3 210.0,83.0 211.6,82.7 213.1,82.4 214.7,82.2 216.2,82.0 217.8,81.8 219.3,81.6 220.9,81.4 222.4,81.2 224.0,81.0 225.5,80.6 227.1,80.4 228.6,80.0 230.2,79.9 231.7,79.6 233.3,79.5 234.8,79.3 236.4,79.2 237.9,78.6 239.5,78.3 241.0,77.9 242.6,77.7 244.1,77.7 245.7,77.5 247.2,77.2 248.8,77.0 250.3,76.7 251.9,76.4 253.4,76.2 255.0,76.1 256.6,75.9 258.1,75.8 259.7,75.6 261.2,75.4 262.8,75.2 264.3,74.9 265.9,74.8 267.4,74.7 269.0,74.5 270.5,74.4 272.1,74.2 273.6,73.9 275.2,73.7 276.7,73.5 278.3,73.2 279.8,73.1 281.4,73.0 282.9,72.8 284.5,72.5 286.0,72.2 287.6,72.0 289.1,71.8 290.7,71.4 292.2,71.3 293.8,71.2 295.3,71.0 296.9,70.8 298.4,70.7 300.0,70.5 301.6,70.3 303.1,70.1 304.7,70.0 306.2,69.8 307.8,69.7 309.3,69.6 310.9,69.4 312.4,69.1 314.0,69.0 315.5,68.7 317.1,68.6 318.6,68.5 320.2,68.3 321.7,68.2 323.3,68.1 324.8,67.9 326.4,67.6 327.9,67.2 329.5,67.0 331.0,66.8 332.6,66.8 334.1,66.7 335.7,66.5 337.2,66.2 338.8,66.1 340.3,66.0 341.9,65.7 343.4,65.6 345.0,65.4 346.6,65.3 348.1,65.1 349.7,64.9 351.2,64.7 352.8,64.5 354.3,64.2 355.9,64.1 357.4,64.1 359.0,64.0 360.5,63.8 362.1,63.7 363.6,63.5 365.2,63.3 366.7,63.1 368.3,63.0 369.8,62.9 371.4,62.7 372.9,62.6 374.5,62.4 376.0,62.1 377.6,61.9 379.1,61.8 380.7,61.6 382.2,61.5 383.8,61.4 385.3,61.3 386.9,61.2 388.4,61.1 390.0,60.8 391.6,60.7 393.1,60.5 394.7,60.4 396.2,60.2 397.8,60.1 399.3,59.9 400.9,59.8 402.4,59.6 404.0,59.5 405.5,59.3 407.1,59.1 408.6,59.0 410.2,58.9 411.7,58.8 413.3,58.7 414.8,58.5 416.4,58.4 417.9,58.3 419.5,58.2 421.0,58.1 422.6,57.7 424.1,57.5 425.7,62.2 427.2,61.3 428.8,59.5 430.3,58.8 431.9,58.0 433.4,57.0 435.0,56.4 436.6,56.1 438.1,55.4 439.7,54.4 441.2,53.6 442.8,53.4 444.3,53.0 445.9,52.7 447.4,52.2 449.0,51.7 450.5,51.1 452.1,50.8 453.6,50.3 455.2,50.0 456.7,49.7 458.3,49.4 459.8,49.2 461.4,48.9 462.9,48.4 464.5,48.1 466.0,47.6 467.6,47.0 469.1,46.6 470.7,46.4 472.2,46.2 473.8,45.9 475.3,45.5 476.9,45.1 478.4,44.8 480.0,43.9 481.6,43.1 483.1,42.8 484.7,42.6 486.2,42.3 487.8,41.8 489.3,41.3 490.9,40.8 492.4,40.4 494.0,40.1 495.5,39.7 497.1,39.3 498.6,39.1 500.2,38.9 501.7,38.7 503.3,38.5 504.8,38.2 506.4,38.0 507.9,37.8 509.5,37.6 511.0,37.4 512.6,37.1 514.1,36.9 515.7,36.7 517.2,36.5 518.8,36.3 520.3,36.1 521.9,36.0 523.4,35.8 525.0,35.7 526.6,35.6 528.1,35.3 529.7,35.2 531.2,35.0 532.8,34.7 534.3,34.5 535.9,34.4 537.4,34.2 539.0,34.1 540.5,33.9 542.1,33.8 543.6,33.6 545.2,33.5 546.7,33.4 548.3,33.2 549.8,33.0 551.4,32.8 552.9,32.5 554.5,32.3 556.0,32.2 557.6,31.9 559.1,31.7 560.7,31.5 562.2,31.2 563.8,31.0 565.3,30.8 566.9,30.5 568.4,30.3 570.0,30.0" />
  
  <!-- Punto finale luminoso -->
  <circle cx="570.0" cy="30.0" r="4" fill="#ffffff" stroke="#0366d6" stroke-width="2.5" />
</svg>