<svg width="600" height="150" viewBox="0 0 600 150" xmlns="http://www.w3.org/2000/svg">
  <defs>
    <filter id="shadow2" x="-2%" y="-2%" width="104%" height="108%">
      <feDropShadow dx="0" dy="2" stdDeviation="3" flood-opacity="0.1" />
    </filter>
    <linearGradient id="fillGrad" x1="0" y1="0" x2="0" y2="1">
      <stop offset="0%" stop-color="#0366d6" stop-opacity="0.3"/>
      <stop offset="100%" stop-color="#0366d6" stop-opacity="0.02"/>
    </linearGradient>
  </defs>
  <rect width="600" height="150" rx="12" fill="#ffffff" filter="url(#shadow2)" stroke="#e1e4e8" stroke-width="1"/>
  <text x="20" y="24" fill="#2b3137" font-family="-apple-system,BlinkMacSystemFont,'Segoe UI',Helvetica,Arial,sans-serif" font-size="14" font-weight="600">📈 Download Growth (Actual: 87.0k)</text>
  
  <!-- Area sotto la linea -->
  <polygon fill="url(#fillGrad)" points="30.0,120.0,120 30.0,120.0 31.3,119.5 32.6,119.0 33.9,118.5 35.2,118.4 36.5,118.1 37.8,117.5 39.2,117.1 40.5,116.9 41.8,116.3 43.1,116.0 44.4,115.7 45.7,115.5 47.0,115.2 48.3,114.8 49.6,114.4 50.9,114.1 52.2,113.8 53.5,113.7 54.8,113.4 56.2,113.1 57.5,112.8 58.8,112.7 60.1,112.4 61.4,111.5 62.7,111.2 64.0,110.8 65.3,110.4 66.6,110.1 67.9,109.8 69.2,109.6 70.5,109.4 71.8,109.2 73.1,108.7 74.5,108.3 75.8,108.1 77.1,107.7 78.4,107.6 79.7,107.6 81.0,107.4 82.3,107.1 83.6,106.9 84.9,106.8 86.2,106.4 87.5,105.9 88.8,105.8 90.1,105.7 91.5,105.5 92.8,105.1 94.1,104.8 95.4,104.4 96.7,104.1 98.0,103.8 99.3,103.7 100.6,103.5 101.9,103.1 103.2,102.7 104.5,102.4 105.8,102.3 107.1,102.1 108.5,101.9 109.8,101.5 111.1,101.1 112.4,100.7 113.7,100.4 115.0,100.2 116.3,100.1 117.6,100.0 118.9,99.7 120.2,99.5 121.5,99.3 122.8,99.2 124.1,99.0 125.4,98.8 126.8,98.7 128.1,98.6 129.4,98.5 130.7,98.1 132.0,97.9 133.3,97.8 134.6,97.7 135.9,97.6 137.2,97.6 138.5,104.0 139.8,103.4 141.1,102.8 142.4,102.2 143.8,100.5 145.1,99.3 146.4,98.0 147.7,97.5 149.0,96.9 150.3,96.0 151.6,95.1 152.9,94.4 154.2,94.1 155.5,93.8 156.8,93.1 158.1,92.6 159.4,92.3 160.8,91.9 162.1,91.7 163.4,91.6 164.7,91.3 166.0,90.7 167.3,90.2 168.6,89.8 169.9,89.3 171.2,89.1 172.5,88.9 173.8,88.5 175.1,88.1 176.4,87.8 177.7,87.5 179.1,87.4 180.4,87.3 181.7,87.1 183.0,86.8 184.3,86.5 185.6,86.3 186.9,86.1 188.2,85.9 189.5,85.8 190.8,85.6 192.1,85.4 193.4,85.3 194.7,84.9 196.1,84.7 197.4,84.4 198.7,84.2 200.0,84.0 201.3,83.9 202.6,83.8 203.9,83.6 205.2,83.2 206.5,82.9 207.8,82.5 209.1,82.3 210.4,82.3 211.7,82.1 213.1,81.9 214.4,81.7 215.7,81.4 217.0,81.1 218.3,81.0 219.6,80.9 220.9,80.7 222.2,80.6 223.5,80.5 224.8,80.3 226.1,80.1 227.4,79.8 228.7,79.7 230.0,79.6 231.4,79.5 232.7,79.4 234.0,79.2 235.3,79.0 236.6,78.7 237.9,78.6 239.2,78.4 240.5,78.2 241.8,78.1 243.1,78.0 244.4,77.7 245.7,77.4 247.0,77.2 248.4,77.0 249.7,76.7 251.0,76.6 252.3,76.5 253.6,76.4 254.9,76.2 256.2,76.1 257.5,75.9 258.8,75.7 260.1,75.6 261.4,75.4 262.7,75.3 264.0,75.2 265.4,75.1 266.7,74.9 268.0,74.6 269.3,74.5 270.6,74.3 271.9,74.2 273.2,74.1 274.5,74.0 275.8,73.8 277.1,73.7 278.4,73.6 279.7,73.3 281.0,73.0 282.3,72.8 283.7,72.7 285.0,72.6 286.3,72.5 287.6,72.3 288.9,72.1 290.2,72.0 291.5,71.9 292.8,71.7 294.1,71.5 295.4,71.3 296.7,71.2 298.0,71.1 299.3,70.9 300.7,70.7 302.0,70.5 303.3,70.3 304.6,70.2 305.9,70.2 307.2,70.1 308.5,70.0 309.8,69.8 311.1,69.7 312.4,69.5 313.7,69.3 315.0,69.2 316.3,69.1 317.7,69.0 319.0,68.9 320.3,68.7 321.6,68.4 322.9,68.3 324.2,68.1 325.5,68.0 326.8,67.9 328.1,67.8 329.4,67.7 330.7,67.6 332.0,67.5 333.3,67.3 334.6,67.1 336.0,67.0 337.3,66.9 338.6,66.8 339.9,66.6 341.2,66.5 342.5,66.3 343.8,66.2 345.1,66.1 346.4,65.9 347.7,65.8 349.0,65.6 350.3,65.6 351.6,65.5 353.0,65.4 354.3,65.2 355.6,65.1 356.9,65.0 358.2,65.0 359.5,64.8 360.8,64.5 362.1,64.3 363.4,68.5 364.7,67.7 366.0,66.1 367.3,65.5 368.6,64.8 370.0,63.9 371.3,63.4 372.6,63.0 373.9,62.4 375.2,61.5 376.5,60.9 377.8,60.6 379.1,60.3 380.4,60.0 381.7,59.6 383.0,59.1 384.3,58.6 385.6,58.4 386.9,57.9 388.3,57.7 389.6,57.4 390.9,57.1 392.2,56.9 393.5,56.7 394.8,56.2 396.1,55.9 397.4,55.5 398.7,54.9 400.0,54.6 401.3,54.4 402.6,54.2 403.9,54.0 405.3,53.6 406.6,53.3 407.9,53.0 409.2,52.2 410.5,51.5 411.8,51.2 413.1,51.0 414.4,50.7 415.7,50.3 417.0,49.9 418.3,49.4 419.6,49.1 420.9,48.8 422.3,48.5 423.6,48.1 424.9,47.9 426.2,47.7 427.5,47.6 428.8,47.4 430.1,47.1 431.4,47.0 432.7,46.8 434.0,46.6 435.3,46.4 436.6,46.1 437.9,46.0 439.2,45.8 440.6,45.6 441.9,45.4 443.2,45.3 444.5,45.2 445.8,45.0 447.1,44.9 448.4,44.8 449.7,44.6 451.0,44.4 452.3,44.3 453.6,44.1 454.9,43.9 456.2,43.7 457.6,43.6 458.9,43.4 460.2,43.3 461.5,43.2 462.8,43.0 464.1,42.9 465.4,42.8 466.7,42.7 468.0,42.5 469.3,42.3 470.6,42.1 471.9,41.9 473.2,41.8 474.6,41.5 475.9,41.3 477.2,41.2 478.5,40.9 479.8,40.7 481.1,40.5 482.4,40.3 483.7,40.1 485.0,39.8 486.3,39.6 487.6,39.4 488.9,39.3 490.2,39.1 491.5,39.0 492.9,38.9 494.2,38.8 495.5,38.6 496.8,38.4 498.1,38.2 499.4,38.0 500.7,37.8 502.0,37.5 503.3,37.4 504.6,37.1 505.9,36.9 507.2,36.8 508.5,36.7 509.9,36.6 511.2,36.4 512.5,36.3 513.8,36.0 515.1,35.9 516.4,35.6 517.7,35.5 519.0,35.3 520.3,35.2 521.6,35.1 522.9,35.0 524.2,34.9 525.5,34.8 526.9,34.6 528.2,34.5 529.5,34.4 530.8,34.2 532.1,34.0 533.4,33.8 534.7,33.7 536.0,33.6 537.3,33.5 538.6,33.3 539.9,33.2 541.2,33.1 542.5,32.9 543.8,32.8 545.2,32.5 546.5,32.3 547.8,32.0 549.1,32.0 550.4,31.9 551.7,31.8 553.0,31.6 554.3,31.6 555.6,31.5 556.9,31.4 558.2,31.3 559.5,31.2 560.8,31.0 562.2,30.9 563.5,30.7 564.8,30.5 566.1,30.4 567.4,30.3 568.7,30.1 570.0,30.0 570.0,30.0,120" />
  
  <!-- Linea principale -->
  <polyline fill="none" stroke="#0366d6" stroke-width="2.5" stroke-linecap="round" stroke-linejoin="round" points="30.0,120.0 31.3,119.5 32.6,119.0 33.9,118.5 35.2,118.4 36.5,118.1 37.8,117.5 39.2,117.1 40.5,116.9 41.8,116.3 43.1,116.0 44.4,115.7 45.7,115.5 47.0,115.2 48.3,114.8 49.6,114.4 50.9,114.1 52.2,113.8 53.5,113.7 54.8,113.4 56.2,113.1 57.5,112.8 58.8,112.7 60.1,112.4 61.4,111.5 62.7,111.2 64.0,110.8 65.3,110.4 66.6,110.1 67.9,109.8 69.2,109.6 70.5,109.4 71.8,109.2 73.1,108.7 74.5,108.3 75.8,108.1 77.1,107.7 78.4,107.6 79.7,107.6 81.0,107.4 82.3,107.1 83.6,106.9 84.9,106.8 86.2,106.4 87.5,105.9 88.8,105.8 90.1,105.7 91.5,105.5 92.8,105.1 94.1,104.8 95.4,104.4 96.7,104.1 98.0,103.8 99.3,103.7 100.6,103.5 101.9,103.1 103.2,102.7 104.5,102.4 105.8,102.3 107.1,102.1 108.5,101.9 109.8,101.5 111.1,101.1 112.4,100.7 113.7,100.4 115.0,100.2 116.3,100.1 117.6,100.0 118.9,99.7 120.2,99.5 121.5,99.3 122.8,99.2 124.1,99.0 125.4,98.8 126.8,98.7 128.1,98.6 129.4,98.5 130.7,98.1 132.0,97.9 133.3,97.8 134.6,97.7 135.9,97.6 137.2,97.6 138.5,104.0 139.8,103.4 141.1,102.8 142.4,102.2 143.8,100.5 145.1,99.3 146.4,98.0 147.7,97.5 149.0,96.9 150.3,96.0 151.6,95.1 152.9,94.4 154.2,94.1 155.5,93.8 156.8,93.1 158.1,92.6 159.4,92.3 160.8,91.9 162.1,91.7 163.4,91.6 164.7,91.3 166.0,90.7 167.3,90.2 168.6,89.8 169.9,89.3 171.2,89.1 172.5,88.9 173.8,88.5 175.1,88.1 176.4,87.8 177.7,87.5 179.1,87.4 180.4,87.3 181.7,87.1 183.0,86.8 184.3,86.5 185.6,86.3 186.9,86.1 188.2,85.9 189.5,85.8 190.8,85.6 192.1,85.4 193.4,85.3 194.7,84.9 196.1,84.7 197.4,84.4 198.7,84.2 200.0,84.0 201.3,83.9 202.6,83.8 203.9,83.6 205.2,83.2 206.5,82.9 207.8,82.5 209.1,82.3 210.4,82.3 211.7,82.1 213.1,81.9 214.4,81.7 215.7,81.4 217.0,81.1 218.3,81.0 219.6,80.9 220.9,80.7 222.2,80.6 223.5,80.5 224.8,80.3 226.1,80.1 227.4,79.8 228.7,79.7 230.0,79.6 231.4,79.5 232.7,79.4 234.0,79.2 235.3,79.0 236.6,78.7 237.9,78.6 239.2,78.4 240.5,78.2 241.8,78.1 243.1,78.0 244.4,77.7 245.7,77.4 247.0,77.2 248.4,77.0 249.7,76.7 251.0,76.6 252.3,76.5 253.6,76.4 254.9,76.2 256.2,76.1 257.5,75.9 258.8,75.7 260.1,75.6 261.4,75.4 262.7,75.3 264.0,75.2 265.4,75.1 266.7,74.9 268.0,74.6 269.3,74.5 270.6,74.3 271.9,74.2 273.2,74.1 274.5,74.0 275.8,73.8 277.1,73.7 278.4,73.6 279.7,73.3 281.0,73.0 282.3,72.8 283.7,72.7 285.0,72.6 286.3,72.5 287.6,72.3 288.9,72.1 290.2,72.0 291.5,71.9 292.8,71.7 294.1,71.5 295.4,71.3 296.7,71.2 298.0,71.1 299.3,70.9 300.7,70.7 302.0,70.5 303.3,70.3 304.6,70.2 305.9,70.2 307.2,70.1 308.5,70.0 309.8,69.8 311.1,69.7 312.4,69.5 313.7,69.3 315.0,69.2 316.3,69.1 317.7,69.0 319.0,68.9 320.3,68.7 321.6,68.4 322.9,68.3 324.2,68.1 325.5,68.0 326.8,67.9 328.1,67.8 329.4,67.7 330.7,67.6 332.0,67.5 333.3,67.3 334.6,67.1 336.0,67.0 337.3,66.9 338.6,66.8 339.9,66.6 341.2,66.5 342.5,66.3 343.8,66.2 345.1,66.1 346.4,65.9 347.7,65.8 349.0,65.6 350.3,65.6 351.6,65.5 353.0,65.4 354.3,65.2 355.6,65.1 356.9,65.0 358.2,65.0 359.5,64.8 360.8,64.5 362.1,64.3 363.4,68.5 364.7,67.7 366.0,66.1 367.3,65.5 368.6,64.8 370.0,63.9 371.3,63.4 372.6,63.0 373.9,62.4 375.2,61.5 376.5,60.9 377.8,60.6 379.1,60.3 380.4,60.0 381.7,59.6 383.0,59.1 384.3,58.6 385.6,58.4 386.9,57.9 388.3,57.7 389.6,57.4 390.9,57.1 392.2,56.9 393.5,56.7 394.8,56.2 396.1,55.9 397.4,55.5 398.7,54.9 400.0,54.6 401.3,54.4 402.6,54.2 403.9,54.0 405.3,53.6 406.6,53.3 407.9,53.0 409.2,52.2 410.5,51.5 411.8,51.2 413.1,51.0 414.4,50.7 415.7,50.3 417.0,49.9 418.3,49.4 419.6,49.1 420.9,48.8 422.3,48.5 423.6,48.1 424.9,47.9 426.2,47.7 427.5,47.6 428.8,47.4 430.1,47.1 431.4,47.0 432.7,46.8 434.0,46.6 435.3,46.4 436.6,46.1 437.9,46.0 439.2,45.8 440.6,45.6 441.9,45.4 443.2,45.3 444.5,45.2 445.8,45.0 447.1,44.9 448.4,44.8 449.7,44.6 451.0,44.4 452.3,44.3 453.6,44.1 454.9,43.9 456.2,43.7 457.6,43.6 458.9,43.4 460.2,43.3 461.5,43.2 462.8,43.0 464.1,42.9 465.4,42.8 466.7,42.7 468.0,42.5 469.3,42.3 470.6,42.1 471.9,41.9 473.2,41.8 474.6,41.5 475.9,41.3 477.2,41.2 478.5,40.9 479.8,40.7 481.1,40.5 482.4,40.3 483.7,40.1 485.0,39.8 486.3,39.6 487.6,39.4 488.9,39.3 490.2,39.1 491.5,39.0 492.9,38.9 494.2,38.8 495.5,38.6 496.8,38.4 498.1,38.2 499.4,38.0 500.7,37.8 502.0,37.5 503.3,37.4 504.6,37.1 505.9,36.9 507.2,36.8 508.5,36.7 509.9,36.6 511.2,36.4 512.5,36.3 513.8,36.0 515.1,35.9 516.4,35.6 517.7,35.5 519.0,35.3 520.3,35.2 521.6,35.1 522.9,35.0 524.2,34.9 525.5,34.8 526.9,34.6 528.2,34.5 529.5,34.4 530.8,34.2 532.1,34.0 533.4,33.8 534.7,33.7 536.0,33.6 537.3,33.5 538.6,33.3 539.9,33.2 541.2,33.1 542.5,32.9 543.8,32.8 545.2,32.5 546.5,32.3 547.8,32.0 549.1,32.0 550.4,31.9 551.7,31.8 553.0,31.6 554.3,31.6 555.6,31.5 556.9,31.4 558.2,31.3 559.5,31.2 560.8,31.0 562.2,30.9 563.5,30.7 564.8,30.5 566.1,30.4 567.4,30.3 568.7,30.1 570.0,30.0" />
  
  <!-- Punto finale luminoso -->
  <circle cx="570.0" cy="30.0" r="4" fill="#ffffff" stroke="#0366d6" stroke-width="2.5" />
</svg>