<svg width="600" height="150" viewBox="0 0 600 150" xmlns="http://www.w3.org/2000/svg">
  <defs>
    <filter id="shadow2" x="-2%" y="-2%" width="104%" height="108%">
      <feDropShadow dx="0" dy="2" stdDeviation="3" flood-opacity="0.1" />
    </filter>
    <linearGradient id="fillGrad" x1="0" y1="0" x2="0" y2="1">
      <stop offset="0%" stop-color="#0366d6" stop-opacity="0.3"/>
      <stop offset="100%" stop-color="#0366d6" stop-opacity="0.02"/>
    </linearGradient>
  </defs>
  <rect width="600" height="150" rx="12" fill="#ffffff" filter="url(#shadow2)" stroke="#e1e4e8" stroke-width="1"/>
  <text x="20" y="24" fill="#2b3137" font-family="-apple-system,BlinkMacSystemFont,'Segoe UI',Helvetica,Arial,sans-serif" font-size="14" font-weight="600">📈 Download Growth (Actual: 84.9k)</text>
  
  <!-- Area sotto la linea -->
  <polygon fill="url(#fillGrad)" points="30.0,120.0,120 30.0,120.0 31.5,119.4 33.1,118.8 34.6,118.3 36.1,118.2 37.7,117.9 39.2,117.2 40.7,116.8 42.3,116.5 43.8,115.8 45.3,115.5 46.9,115.2 48.4,115.0 49.9,114.7 51.5,114.2 53.0,113.8 54.5,113.4 56.1,113.1 57.6,113.0 59.1,112.7 60.7,112.3 62.2,112.0 63.8,111.9 65.3,111.6 66.8,110.5 68.4,110.2 69.9,109.8 71.4,109.4 73.0,109.0 74.5,108.6 76.0,108.4 77.6,108.2 79.1,108.0 80.6,107.4 82.2,107.0 83.7,106.7 85.2,106.3 86.8,106.2 88.3,106.2 89.8,106.0 91.4,105.6 92.9,105.4 94.4,105.3 96.0,104.9 97.5,104.3 99.0,104.2 100.6,104.1 102.1,103.9 103.6,103.4 105.2,103.1 106.7,102.7 108.2,102.3 109.8,101.9 111.3,101.8 112.8,101.6 114.4,101.2 115.9,100.7 117.4,100.4 119.0,100.3 120.5,100.1 122.0,99.9 123.6,99.4 125.1,99.0 126.6,98.6 128.2,98.2 129.7,98.0 131.2,97.9 132.8,97.7 134.3,97.4 135.9,97.2 137.4,97.0 138.9,96.8 140.5,96.7 142.0,96.4 143.5,96.3 145.1,96.2 146.6,96.1 148.1,95.7 149.7,95.4 151.2,95.3 152.7,95.2 154.3,95.1 155.8,95.1 157.3,102.2 158.9,101.5 160.4,100.9 161.9,100.2 163.5,98.3 165.0,96.9 166.5,95.5 168.1,94.9 169.6,94.3 171.1,93.3 172.7,92.3 174.2,91.5 175.7,91.2 177.3,90.9 178.8,90.1 180.3,89.5 181.9,89.2 183.4,88.7 184.9,88.5 186.5,88.4 188.0,88.0 189.5,87.4 191.1,86.9 192.6,86.4 194.1,85.9 195.7,85.6 197.2,85.4 198.8,85.0 200.3,84.5 201.8,84.2 203.4,83.8 204.9,83.7 206.4,83.6 208.0,83.4 209.5,83.0 211.0,82.7 212.6,82.5 214.1,82.3 215.6,82.1 217.2,81.9 218.7,81.7 220.2,81.5 221.8,81.3 223.3,81.0 224.8,80.7 226.4,80.4 227.9,80.2 229.4,80.0 231.0,79.8 232.5,79.7 234.0,79.5 235.6,79.0 237.1,78.7 238.6,78.2 240.2,78.1 241.7,78.0 243.2,77.8 244.8,77.6 246.3,77.3 247.8,77.1 249.4,76.8 250.9,76.5 252.4,76.4 254.0,76.3 255.5,76.1 257.0,76.0 258.6,75.8 260.1,75.6 261.6,75.3 263.2,75.2 264.7,75.1 266.2,74.9 267.8,74.8 269.3,74.5 270.9,74.3 272.4,74.1 273.9,73.9 275.5,73.6 277.0,73.5 278.5,73.4 280.1,73.2 281.6,72.9 283.1,72.6 284.7,72.4 286.2,72.2 287.7,71.8 289.3,71.7 290.8,71.6 292.3,71.5 293.9,71.3 295.4,71.1 296.9,70.9 298.5,70.7 300.0,70.5 301.5,70.4 303.1,70.2 304.6,70.1 306.1,70.0 307.7,69.8 309.2,69.5 310.7,69.4 312.3,69.2 313.8,69.1 315.3,68.9 316.9,68.7 318.4,68.6 319.9,68.5 321.5,68.3 323.0,68.0 324.5,67.7 326.1,67.5 327.6,67.3 329.1,67.2 330.7,67.2 332.2,66.9 333.8,66.7 335.3,66.5 336.8,66.4 338.4,66.2 339.9,66.0 341.4,65.8 343.0,65.7 344.5,65.6 346.0,65.4 347.6,65.2 349.1,64.9 350.6,64.7 352.2,64.6 353.7,64.5 355.2,64.5 356.8,64.3 358.3,64.1 359.8,64.0 361.4,63.8 362.9,63.6 364.4,63.5 366.0,63.4 367.5,63.2 369.0,63.1 370.6,62.8 372.1,62.6 373.6,62.4 375.2,62.2 376.7,62.1 378.2,62.0 379.8,61.9 381.3,61.8 382.8,61.7 384.4,61.6 385.9,61.3 387.4,61.2 389.0,61.0 390.5,60.9 392.0,60.7 393.6,60.6 395.1,60.4 396.6,60.3 398.2,60.1 399.7,60.0 401.2,59.8 402.8,59.6 404.3,59.5 405.9,59.4 407.4,59.3 408.9,59.2 410.5,59.0 412.0,58.9 413.5,58.8 415.1,58.7 416.6,58.6 418.1,58.2 419.7,58.0 421.2,62.7 422.7,61.8 424.3,60.0 425.8,59.3 427.3,58.5 428.9,57.5 430.4,57.0 431.9,56.6 433.5,55.9 435.0,54.9 436.5,54.2 438.1,53.9 439.6,53.6 441.1,53.2 442.7,52.7 444.2,52.2 445.7,51.7 447.3,51.4 448.8,50.9 450.3,50.6 451.9,50.3 453.4,50.0 454.9,49.8 456.5,49.5 458.0,49.0 459.5,48.7 461.1,48.2 462.6,47.6 464.1,47.2 465.7,47.0 467.2,46.8 468.8,46.5 470.3,46.1 471.8,45.8 473.4,45.5 474.9,44.5 476.4,43.8 478.0,43.4 479.5,43.2 481.0,42.9 482.6,42.4 484.1,42.0 485.6,41.4 487.2,41.1 488.7,40.7 490.2,40.4 491.8,40.0 493.3,39.7 494.8,39.6 496.4,39.4 497.9,39.2 499.4,38.9 501.0,38.7 502.5,38.5 504.0,38.3 505.6,38.1 507.1,37.8 508.6,37.6 510.2,37.4 511.7,37.2 513.2,37.0 514.8,36.8 516.3,36.7 517.8,36.5 519.4,36.4 520.9,36.3 522.4,36.0 524.0,35.9 525.5,35.7 527.0,35.5 528.6,35.3 530.1,35.1 531.6,34.9 533.2,34.8 534.7,34.7 536.2,34.5 537.8,34.3 539.3,34.2 540.9,34.1 542.4,33.9 543.9,33.7 545.5,33.6 547.0,33.3 548.5,33.1 550.1,32.9 551.6,32.7 553.1,32.4 554.7,32.2 556.2,32.0 557.7,31.8 559.3,31.5 560.8,31.3 562.3,31.0 563.9,30.8 565.4,30.5 566.9,30.3 568.5,30.1 570.0,30.0 570.0,30.0,120" />
  
  <!-- Linea principale -->
  <polyline fill="none" stroke="#0366d6" stroke-width="2.5" stroke-linecap="round" stroke-linejoin="round" points="30.0,120.0 31.5,119.4 33.1,118.8 34.6,118.3 36.1,118.2 37.7,117.9 39.2,117.2 40.7,116.8 42.3,116.5 43.8,115.8 45.3,115.5 46.9,115.2 48.4,115.0 49.9,114.7 51.5,114.2 53.0,113.8 54.5,113.4 56.1,113.1 57.6,113.0 59.1,112.7 60.7,112.3 62.2,112.0 63.8,111.9 65.3,111.6 66.8,110.5 68.4,110.2 69.9,109.8 71.4,109.4 73.0,109.0 74.5,108.6 76.0,108.4 77.6,108.2 79.1,108.0 80.6,107.4 82.2,107.0 83.7,106.7 85.2,106.3 86.8,106.2 88.3,106.2 89.8,106.0 91.4,105.6 92.9,105.4 94.4,105.3 96.0,104.9 97.5,104.3 99.0,104.2 100.6,104.1 102.1,103.9 103.6,103.4 105.2,103.1 106.7,102.7 108.2,102.3 109.8,101.9 111.3,101.8 112.8,101.6 114.4,101.2 115.9,100.7 117.4,100.4 119.0,100.3 120.5,100.1 122.0,99.9 123.6,99.4 125.1,99.0 126.6,98.6 128.2,98.2 129.7,98.0 131.2,97.9 132.8,97.7 134.3,97.4 135.9,97.2 137.4,97.0 138.9,96.8 140.5,96.7 142.0,96.4 143.5,96.3 145.1,96.2 146.6,96.1 148.1,95.7 149.7,95.4 151.2,95.3 152.7,95.2 154.3,95.1 155.8,95.1 157.3,102.2 158.9,101.5 160.4,100.9 161.9,100.2 163.5,98.3 165.0,96.9 166.5,95.5 168.1,94.9 169.6,94.3 171.1,93.3 172.7,92.3 174.2,91.5 175.7,91.2 177.3,90.9 178.8,90.1 180.3,89.5 181.9,89.2 183.4,88.7 184.9,88.5 186.5,88.4 188.0,88.0 189.5,87.4 191.1,86.9 192.6,86.4 194.1,85.9 195.7,85.6 197.2,85.4 198.8,85.0 200.3,84.5 201.8,84.2 203.4,83.8 204.9,83.7 206.4,83.6 208.0,83.4 209.5,83.0 211.0,82.7 212.6,82.5 214.1,82.3 215.6,82.1 217.2,81.9 218.7,81.7 220.2,81.5 221.8,81.3 223.3,81.0 224.8,80.7 226.4,80.4 227.9,80.2 229.4,80.0 231.0,79.8 232.5,79.7 234.0,79.5 235.6,79.0 237.1,78.7 238.6,78.2 240.2,78.1 241.7,78.0 243.2,77.8 244.8,77.6 246.3,77.3 247.8,77.1 249.4,76.8 250.9,76.5 252.4,76.4 254.0,76.3 255.5,76.1 257.0,76.0 258.6,75.8 260.1,75.6 261.6,75.3 263.2,75.2 264.7,75.1 266.2,74.9 267.8,74.8 269.3,74.5 270.9,74.3 272.4,74.1 273.9,73.9 275.5,73.6 277.0,73.5 278.5,73.4 280.1,73.2 281.6,72.9 283.1,72.6 284.7,72.4 286.2,72.2 287.7,71.8 289.3,71.7 290.8,71.6 292.3,71.5 293.9,71.3 295.4,71.1 296.9,70.9 298.5,70.7 300.0,70.5 301.5,70.4 303.1,70.2 304.6,70.1 306.1,70.0 307.7,69.8 309.2,69.5 310.7,69.4 312.3,69.2 313.8,69.1 315.3,68.9 316.9,68.7 318.4,68.6 319.9,68.5 321.5,68.3 323.0,68.0 324.5,67.7 326.1,67.5 327.6,67.3 329.1,67.2 330.7,67.2 332.2,66.9 333.8,66.7 335.3,66.5 336.8,66.4 338.4,66.2 339.9,66.0 341.4,65.8 343.0,65.7 344.5,65.6 346.0,65.4 347.6,65.2 349.1,64.9 350.6,64.7 352.2,64.6 353.7,64.5 355.2,64.5 356.8,64.3 358.3,64.1 359.8,64.0 361.4,63.8 362.9,63.6 364.4,63.5 366.0,63.4 367.5,63.2 369.0,63.1 370.6,62.8 372.1,62.6 373.6,62.4 375.2,62.2 376.7,62.1 378.2,62.0 379.8,61.9 381.3,61.8 382.8,61.7 384.4,61.6 385.9,61.3 387.4,61.2 389.0,61.0 390.5,60.9 392.0,60.7 393.6,60.6 395.1,60.4 396.6,60.3 398.2,60.1 399.7,60.0 401.2,59.8 402.8,59.6 404.3,59.5 405.9,59.4 407.4,59.3 408.9,59.2 410.5,59.0 412.0,58.9 413.5,58.8 415.1,58.7 416.6,58.6 418.1,58.2 419.7,58.0 421.2,62.7 422.7,61.8 424.3,60.0 425.8,59.3 427.3,58.5 428.9,57.5 430.4,57.0 431.9,56.6 433.5,55.9 435.0,54.9 436.5,54.2 438.1,53.9 439.6,53.6 441.1,53.2 442.7,52.7 444.2,52.2 445.7,51.7 447.3,51.4 448.8,50.9 450.3,50.6 451.9,50.3 453.4,50.0 454.9,49.8 456.5,49.5 458.0,49.0 459.5,48.7 461.1,48.2 462.6,47.6 464.1,47.2 465.7,47.0 467.2,46.8 468.8,46.5 470.3,46.1 471.8,45.8 473.4,45.5 474.9,44.5 476.4,43.8 478.0,43.4 479.5,43.2 481.0,42.9 482.6,42.4 484.1,42.0 485.6,41.4 487.2,41.1 488.7,40.7 490.2,40.4 491.8,40.0 493.3,39.7 494.8,39.6 496.4,39.4 497.9,39.2 499.4,38.9 501.0,38.7 502.5,38.5 504.0,38.3 505.6,38.1 507.1,37.8 508.6,37.6 510.2,37.4 511.7,37.2 513.2,37.0 514.8,36.8 516.3,36.7 517.8,36.5 519.4,36.4 520.9,36.3 522.4,36.0 524.0,35.9 525.5,35.7 527.0,35.5 528.6,35.3 530.1,35.1 531.6,34.9 533.2,34.8 534.7,34.7 536.2,34.5 537.8,34.3 539.3,34.2 540.9,34.1 542.4,33.9 543.9,33.7 545.5,33.6 547.0,33.3 548.5,33.1 550.1,32.9 551.6,32.7 553.1,32.4 554.7,32.2 556.2,32.0 557.7,31.8 559.3,31.5 560.8,31.3 562.3,31.0 563.9,30.8 565.4,30.5 566.9,30.3 568.5,30.1 570.0,30.0" />
  
  <!-- Punto finale luminoso -->
  <circle cx="570.0" cy="30.0" r="4" fill="#ffffff" stroke="#0366d6" stroke-width="2.5" />
</svg>