<svg width="600" height="150" viewBox="0 0 600 150" xmlns="http://www.w3.org/2000/svg">
  <defs>
    <filter id="shadow2" x="-2%" y="-2%" width="104%" height="108%">
      <feDropShadow dx="0" dy="2" stdDeviation="3" flood-opacity="0.1" />
    </filter>
    <linearGradient id="fillGrad" x1="0" y1="0" x2="0" y2="1">
      <stop offset="0%" stop-color="#0366d6" stop-opacity="0.3"/>
      <stop offset="100%" stop-color="#0366d6" stop-opacity="0.02"/>
    </linearGradient>
  </defs>
  <rect width="600" height="150" rx="12" fill="#ffffff" filter="url(#shadow2)" stroke="#e1e4e8" stroke-width="1"/>
  <text x="20" y="24" fill="#2b3137" font-family="-apple-system,BlinkMacSystemFont,'Segoe UI',Helvetica,Arial,sans-serif" font-size="14" font-weight="600">📈 Download Growth (Actual: 86.6k)</text>
  
  <!-- Area sotto la linea -->
  <polygon fill="url(#fillGrad)" points="30.0,120.0,120 30.0,120.0 31.3,119.5 32.7,118.9 34.0,118.5 35.4,118.3 36.7,118.1 38.1,117.5 39.4,117.1 40.8,116.8 42.1,116.2 43.5,115.9 44.8,115.6 46.2,115.4 47.5,115.1 48.9,114.7 50.2,114.3 51.5,114.0 52.9,113.7 54.2,113.6 55.6,113.3 56.9,113.0 58.3,112.7 59.6,112.6 61.0,112.3 62.3,111.3 63.7,111.0 65.0,110.7 66.4,110.3 67.7,109.9 69.1,109.6 70.4,109.4 71.7,109.3 73.1,109.0 74.4,108.5 75.8,108.1 77.1,107.8 78.5,107.5 79.8,107.4 81.2,107.3 82.5,107.2 83.9,106.9 85.2,106.7 86.6,106.6 87.9,106.2 89.3,105.7 90.6,105.6 91.9,105.5 93.3,105.3 94.6,104.9 96.0,104.6 97.3,104.2 98.7,103.8 100.0,103.5 101.4,103.4 102.7,103.2 104.1,102.8 105.4,102.4 106.8,102.1 108.1,102.0 109.5,101.8 110.8,101.6 112.1,101.2 113.5,100.8 114.8,100.4 116.2,100.0 117.5,99.9 118.9,99.8 120.2,99.6 121.6,99.3 122.9,99.1 124.3,98.9 125.6,98.8 127.0,98.7 128.3,98.5 129.7,98.3 131.0,98.2 132.3,98.1 133.7,97.7 135.0,97.5 136.4,97.5 137.7,97.3 139.1,97.2 140.4,97.2 141.8,103.7 143.1,103.1 144.5,102.5 145.8,101.9 147.2,100.2 148.5,98.9 149.9,97.6 151.2,97.1 152.5,96.5 153.9,95.6 155.2,94.6 156.6,93.9 157.9,93.6 159.3,93.4 160.6,92.7 162.0,92.1 163.3,91.8 164.7,91.4 166.0,91.2 167.4,91.1 168.7,90.8 170.0,90.1 171.4,89.7 172.7,89.3 174.1,88.8 175.4,88.6 176.8,88.4 178.1,88.0 179.5,87.6 180.8,87.2 182.2,86.9 183.5,86.8 184.9,86.7 186.2,86.5 187.6,86.2 188.9,85.9 190.2,85.7 191.6,85.5 192.9,85.3 194.3,85.1 195.6,85.0 197.0,84.8 198.3,84.7 199.7,84.3 201.0,84.1 202.4,83.8 203.7,83.6 205.1,83.4 206.4,83.3 207.8,83.1 209.1,83.0 210.4,82.5 211.8,82.2 213.1,81.8 214.5,81.6 215.8,81.6 217.2,81.4 218.5,81.2 219.9,81.0 221.2,80.7 222.6,80.5 223.9,80.3 225.3,80.2 226.6,80.0 228.0,79.9 229.3,79.8 230.6,79.6 232.0,79.4 233.3,79.1 234.7,79.0 236.0,78.9 237.4,78.8 238.7,78.7 240.1,78.4 241.4,78.2 242.8,78.0 244.1,77.8 245.5,77.6 246.8,77.5 248.2,77.4 249.5,77.2 250.8,76.9 252.2,76.7 253.5,76.5 254.9,76.3 256.2,75.9 257.6,75.8 258.9,75.7 260.3,75.6 261.6,75.4 263.0,75.3 264.3,75.1 265.7,74.9 267.0,74.8 268.4,74.6 269.7,74.5 271.0,74.4 272.4,74.3 273.7,74.1 275.1,73.8 276.4,73.7 277.8,73.5 279.1,73.4 280.5,73.3 281.8,73.1 283.2,73.0 284.5,72.9 285.9,72.7 287.2,72.5 288.6,72.2 289.9,72.0 291.2,71.8 292.6,71.7 293.9,71.7 295.3,71.5 296.6,71.2 298.0,71.1 299.3,71.0 300.7,70.8 302.0,70.7 303.4,70.5 304.7,70.4 306.1,70.3 307.4,70.0 308.8,69.9 310.1,69.6 311.4,69.4 312.8,69.4 314.1,69.3 315.5,69.2 316.8,69.1 318.2,68.9 319.5,68.8 320.9,68.6 322.2,68.4 323.6,68.3 324.9,68.2 326.3,68.1 327.6,67.9 329.0,67.7 330.3,67.5 331.6,67.4 333.0,67.2 334.3,67.1 335.7,67.0 337.0,66.9 338.4,66.8 339.7,66.7 341.1,66.6 342.4,66.3 343.8,66.2 345.1,66.0 346.5,66.0 347.8,65.8 349.2,65.7 350.5,65.5 351.8,65.4 353.2,65.3 354.5,65.1 355.9,65.0 357.2,64.8 358.6,64.7 359.9,64.6 361.3,64.5 362.6,64.4 364.0,64.3 365.3,64.1 366.7,64.0 368.0,64.0 369.4,63.8 370.7,63.5 372.0,63.3 373.4,67.6 374.7,66.7 376.1,65.1 377.4,64.5 378.8,63.8 380.1,62.9 381.5,62.4 382.8,62.0 384.2,61.4 385.5,60.5 386.9,59.8 388.2,59.6 389.6,59.2 390.9,59.0 392.2,58.5 393.6,58.0 394.9,57.5 396.3,57.3 397.6,56.8 399.0,56.6 400.3,56.2 401.7,56.0 403.0,55.8 404.4,55.6 405.7,55.1 407.1,54.8 408.4,54.4 409.8,53.8 411.1,53.4 412.4,53.2 413.8,53.1 415.1,52.8 416.5,52.5 417.8,52.1 419.2,51.8 420.5,51.0 421.9,50.3 423.2,50.0 424.6,49.8 425.9,49.5 427.3,49.1 428.6,48.7 430.0,48.2 431.3,47.8 432.6,47.5 434.0,47.2 435.3,46.8 436.7,46.6 438.0,46.5 439.4,46.3 440.7,46.1 442.1,45.8 443.4,45.7 444.8,45.4 446.1,45.3 447.5,45.1 448.8,44.8 450.1,44.7 451.5,44.5 452.8,44.3 454.2,44.1 455.5,44.0 456.9,43.8 458.2,43.7 459.6,43.5 460.9,43.4 462.3,43.2 463.6,43.1 465.0,42.9 466.3,42.7 467.7,42.5 469.0,42.4 470.3,42.2 471.7,42.1 473.0,42.0 474.4,41.8 475.7,41.7 477.1,41.5 478.4,41.4 479.8,41.3 481.1,41.1 482.5,41.0 483.8,40.7 485.2,40.5 486.5,40.4 487.9,40.1 489.2,39.9 490.5,39.8 491.9,39.5 493.2,39.3 494.6,39.1 495.9,38.9 497.3,38.7 498.6,38.4 500.0,38.2 501.3,37.9 502.7,37.8 504.0,37.7 505.4,37.6 506.7,37.5 508.1,37.3 509.4,37.1 510.7,37.0 512.1,36.8 513.4,36.6 514.8,36.3 516.1,36.1 517.5,35.9 518.8,35.6 520.2,35.5 521.5,35.3 522.9,35.2 524.2,35.1 525.6,34.9 526.9,34.8 528.3,34.5 529.6,34.4 530.9,34.1 532.3,34.0 533.6,33.8 535.0,33.7 536.3,33.6 537.7,33.5 539.0,33.4 540.4,33.3 541.7,33.1 543.1,33.0 544.4,32.8 545.8,32.7 547.1,32.5 548.5,32.3 549.8,32.2 551.1,32.0 552.5,31.9 553.8,31.8 555.2,31.7 556.5,31.5 557.9,31.4 559.2,31.2 560.6,30.9 561.9,30.8 563.3,30.5 564.6,30.4 566.0,30.3 567.3,30.2 568.7,30.1 570.0,30.0 570.0,30.0,120" />
  
  <!-- Linea principale -->
  <polyline fill="none" stroke="#0366d6" stroke-width="2.5" stroke-linecap="round" stroke-linejoin="round" points="30.0,120.0 31.3,119.5 32.7,118.9 34.0,118.5 35.4,118.3 36.7,118.1 38.1,117.5 39.4,117.1 40.8,116.8 42.1,116.2 43.5,115.9 44.8,115.6 46.2,115.4 47.5,115.1 48.9,114.7 50.2,114.3 51.5,114.0 52.9,113.7 54.2,113.6 55.6,113.3 56.9,113.0 58.3,112.7 59.6,112.6 61.0,112.3 62.3,111.3 63.7,111.0 65.0,110.7 66.4,110.3 67.7,109.9 69.1,109.6 70.4,109.4 71.7,109.3 73.1,109.0 74.4,108.5 75.8,108.1 77.1,107.8 78.5,107.5 79.8,107.4 81.2,107.3 82.5,107.2 83.9,106.9 85.2,106.7 86.6,106.6 87.9,106.2 89.3,105.7 90.6,105.6 91.9,105.5 93.3,105.3 94.6,104.9 96.0,104.6 97.3,104.2 98.7,103.8 100.0,103.5 101.4,103.4 102.7,103.2 104.1,102.8 105.4,102.4 106.8,102.1 108.1,102.0 109.5,101.8 110.8,101.6 112.1,101.2 113.5,100.8 114.8,100.4 116.2,100.0 117.5,99.9 118.9,99.8 120.2,99.6 121.6,99.3 122.9,99.1 124.3,98.9 125.6,98.8 127.0,98.7 128.3,98.5 129.7,98.3 131.0,98.2 132.3,98.1 133.7,97.7 135.0,97.5 136.4,97.5 137.7,97.3 139.1,97.2 140.4,97.2 141.8,103.7 143.1,103.1 144.5,102.5 145.8,101.9 147.2,100.2 148.5,98.9 149.9,97.6 151.2,97.1 152.5,96.5 153.9,95.6 155.2,94.6 156.6,93.9 157.9,93.6 159.3,93.4 160.6,92.7 162.0,92.1 163.3,91.8 164.7,91.4 166.0,91.2 167.4,91.1 168.7,90.8 170.0,90.1 171.4,89.7 172.7,89.3 174.1,88.8 175.4,88.6 176.8,88.4 178.1,88.0 179.5,87.6 180.8,87.2 182.2,86.9 183.5,86.8 184.9,86.7 186.2,86.5 187.6,86.2 188.9,85.9 190.2,85.7 191.6,85.5 192.9,85.3 194.3,85.1 195.6,85.0 197.0,84.8 198.3,84.7 199.7,84.3 201.0,84.1 202.4,83.8 203.7,83.6 205.1,83.4 206.4,83.3 207.8,83.1 209.1,83.0 210.4,82.5 211.8,82.2 213.1,81.8 214.5,81.6 215.8,81.6 217.2,81.4 218.5,81.2 219.9,81.0 221.2,80.7 222.6,80.5 223.9,80.3 225.3,80.2 226.6,80.0 228.0,79.9 229.3,79.8 230.6,79.6 232.0,79.4 233.3,79.1 234.7,79.0 236.0,78.9 237.4,78.8 238.7,78.7 240.1,78.4 241.4,78.2 242.8,78.0 244.1,77.8 245.5,77.6 246.8,77.5 248.2,77.4 249.5,77.2 250.8,76.9 252.2,76.7 253.5,76.5 254.9,76.3 256.2,75.9 257.6,75.8 258.9,75.7 260.3,75.6 261.6,75.4 263.0,75.3 264.3,75.1 265.7,74.9 267.0,74.8 268.4,74.6 269.7,74.5 271.0,74.4 272.4,74.3 273.7,74.1 275.1,73.8 276.4,73.7 277.8,73.5 279.1,73.4 280.5,73.3 281.8,73.1 283.2,73.0 284.5,72.9 285.9,72.7 287.2,72.5 288.6,72.2 289.9,72.0 291.2,71.8 292.6,71.7 293.9,71.7 295.3,71.5 296.6,71.2 298.0,71.1 299.3,71.0 300.7,70.8 302.0,70.7 303.4,70.5 304.7,70.4 306.1,70.3 307.4,70.0 308.8,69.9 310.1,69.6 311.4,69.4 312.8,69.4 314.1,69.3 315.5,69.2 316.8,69.1 318.2,68.9 319.5,68.8 320.9,68.6 322.2,68.4 323.6,68.3 324.9,68.2 326.3,68.1 327.6,67.9 329.0,67.7 330.3,67.5 331.6,67.4 333.0,67.2 334.3,67.1 335.7,67.0 337.0,66.9 338.4,66.8 339.7,66.7 341.1,66.6 342.4,66.3 343.8,66.2 345.1,66.0 346.5,66.0 347.8,65.8 349.2,65.7 350.5,65.5 351.8,65.4 353.2,65.3 354.5,65.1 355.9,65.0 357.2,64.8 358.6,64.7 359.9,64.6 361.3,64.5 362.6,64.4 364.0,64.3 365.3,64.1 366.7,64.0 368.0,64.0 369.4,63.8 370.7,63.5 372.0,63.3 373.4,67.6 374.7,66.7 376.1,65.1 377.4,64.5 378.8,63.8 380.1,62.9 381.5,62.4 382.8,62.0 384.2,61.4 385.5,60.5 386.9,59.8 388.2,59.6 389.6,59.2 390.9,59.0 392.2,58.5 393.6,58.0 394.9,57.5 396.3,57.3 397.6,56.8 399.0,56.6 400.3,56.2 401.7,56.0 403.0,55.8 404.4,55.6 405.7,55.1 407.1,54.8 408.4,54.4 409.8,53.8 411.1,53.4 412.4,53.2 413.8,53.1 415.1,52.8 416.5,52.5 417.8,52.1 419.2,51.8 420.5,51.0 421.9,50.3 423.2,50.0 424.6,49.8 425.9,49.5 427.3,49.1 428.6,48.7 430.0,48.2 431.3,47.8 432.6,47.5 434.0,47.2 435.3,46.8 436.7,46.6 438.0,46.5 439.4,46.3 440.7,46.1 442.1,45.8 443.4,45.7 444.8,45.4 446.1,45.3 447.5,45.1 448.8,44.8 450.1,44.7 451.5,44.5 452.8,44.3 454.2,44.1 455.5,44.0 456.9,43.8 458.2,43.7 459.6,43.5 460.9,43.4 462.3,43.2 463.6,43.1 465.0,42.9 466.3,42.7 467.7,42.5 469.0,42.4 470.3,42.2 471.7,42.1 473.0,42.0 474.4,41.8 475.7,41.7 477.1,41.5 478.4,41.4 479.8,41.3 481.1,41.1 482.5,41.0 483.8,40.7 485.2,40.5 486.5,40.4 487.9,40.1 489.2,39.9 490.5,39.8 491.9,39.5 493.2,39.3 494.6,39.1 495.9,38.9 497.3,38.7 498.6,38.4 500.0,38.2 501.3,37.9 502.7,37.8 504.0,37.7 505.4,37.6 506.7,37.5 508.1,37.3 509.4,37.1 510.7,37.0 512.1,36.8 513.4,36.6 514.8,36.3 516.1,36.1 517.5,35.9 518.8,35.6 520.2,35.5 521.5,35.3 522.9,35.2 524.2,35.1 525.6,34.9 526.9,34.8 528.3,34.5 529.6,34.4 530.9,34.1 532.3,34.0 533.6,33.8 535.0,33.7 536.3,33.6 537.7,33.5 539.0,33.4 540.4,33.3 541.7,33.1 543.1,33.0 544.4,32.8 545.8,32.7 547.1,32.5 548.5,32.3 549.8,32.2 551.1,32.0 552.5,31.9 553.8,31.8 555.2,31.7 556.5,31.5 557.9,31.4 559.2,31.2 560.6,30.9 561.9,30.8 563.3,30.5 564.6,30.4 566.0,30.3 567.3,30.2 568.7,30.1 570.0,30.0" />
  
  <!-- Punto finale luminoso -->
  <circle cx="570.0" cy="30.0" r="4" fill="#ffffff" stroke="#0366d6" stroke-width="2.5" />
</svg>