<svg width="600" height="150" viewBox="0 0 600 150" xmlns="http://www.w3.org/2000/svg">
  <defs>
    <filter id="shadow2" x="-2%" y="-2%" width="104%" height="108%">
      <feDropShadow dx="0" dy="2" stdDeviation="3" flood-opacity="0.1" />
    </filter>
    <linearGradient id="fillGrad" x1="0" y1="0" x2="0" y2="1">
      <stop offset="0%" stop-color="#0366d6" stop-opacity="0.3"/>
      <stop offset="100%" stop-color="#0366d6" stop-opacity="0.02"/>
    </linearGradient>
  </defs>
  <rect width="600" height="150" rx="12" fill="#ffffff" filter="url(#shadow2)" stroke="#e1e4e8" stroke-width="1"/>
  <text x="20" y="24" fill="#2b3137" font-family="-apple-system,BlinkMacSystemFont,'Segoe UI',Helvetica,Arial,sans-serif" font-size="14" font-weight="600">📈 Download Growth (Actual: 86.2k)</text>
  
  <!-- Area sotto la linea -->
  <polygon fill="url(#fillGrad)" points="30.0,120.0,120 30.0,120.0 31.4,119.5 32.8,118.9 34.2,118.4 35.6,118.3 37.0,118.0 38.4,117.4 39.8,117.0 41.2,116.7 42.6,116.1 44.0,115.8 45.3,115.5 46.7,115.3 48.1,115.0 49.5,114.6 50.9,114.2 52.3,113.8 53.7,113.6 55.1,113.4 56.5,113.1 57.9,112.8 59.3,112.5 60.7,112.4 62.1,112.1 63.5,111.1 64.9,110.8 66.3,110.4 67.7,110.0 69.1,109.7 70.5,109.4 71.9,109.2 73.3,109.0 74.7,108.7 76.0,108.2 77.4,107.8 78.8,107.6 80.2,107.2 81.6,107.1 83.0,107.1 84.4,106.9 85.8,106.6 87.2,106.4 88.6,106.2 90.0,105.9 91.4,105.4 92.8,105.2 94.2,105.1 95.6,104.9 97.0,104.5 98.4,104.2 99.8,103.8 101.2,103.5 102.6,103.1 104.0,103.0 105.3,102.8 106.7,102.4 108.1,102.0 109.5,101.7 110.9,101.6 112.3,101.4 113.7,101.2 115.1,100.7 116.5,100.3 117.9,100.0 119.3,99.6 120.7,99.4 122.1,99.3 123.5,99.1 124.9,98.8 126.3,98.6 127.7,98.5 129.1,98.3 130.5,98.2 131.9,98.0 133.3,97.8 134.7,97.7 136.0,97.6 137.4,97.2 138.8,97.0 140.2,96.9 141.6,96.8 143.0,96.7 144.4,96.7 145.8,103.4 147.2,102.7 148.6,102.1 150.0,101.5 151.4,99.7 152.8,98.4 154.2,97.1 155.6,96.6 157.0,96.0 158.4,95.1 159.8,94.0 161.2,93.3 162.6,93.0 164.0,92.7 165.3,92.0 166.7,91.5 168.1,91.1 169.5,90.7 170.9,90.5 172.3,90.5 173.7,90.1 175.1,89.5 176.5,89.0 177.9,88.6 179.3,88.1 180.7,87.8 182.1,87.7 183.5,87.2 184.9,86.8 186.3,86.5 187.7,86.2 189.1,86.0 190.5,85.9 191.9,85.7 193.3,85.4 194.7,85.1 196.0,84.9 197.4,84.7 198.8,84.5 200.2,84.3 201.6,84.2 203.0,84.0 204.4,83.8 205.8,83.5 207.2,83.2 208.6,82.9 210.0,82.8 211.4,82.6 212.8,82.4 214.2,82.3 215.6,82.1 217.0,81.6 218.4,81.3 219.8,80.9 221.2,80.8 222.6,80.7 224.0,80.5 225.3,80.3 226.7,80.1 228.1,79.8 229.5,79.5 230.9,79.4 232.3,79.3 233.7,79.1 235.1,79.0 236.5,78.8 237.9,78.6 239.3,78.5 240.7,78.2 242.1,78.1 243.5,78.0 244.9,77.8 246.3,77.7 247.7,77.5 249.1,77.3 250.5,77.0 251.9,76.8 253.3,76.6 254.7,76.5 256.0,76.4 257.4,76.2 258.8,75.9 260.2,75.7 261.6,75.5 263.0,75.3 264.4,74.9 265.8,74.8 267.2,74.7 268.6,74.6 270.0,74.4 271.4,74.2 272.8,74.0 274.2,73.9 275.6,73.7 277.0,73.6 278.4,73.4 279.8,73.3 281.2,73.2 282.6,73.0 284.0,72.8 285.3,72.7 286.7,72.4 288.1,72.3 289.5,72.2 290.9,72.1 292.3,71.9 293.7,71.8 295.1,71.7 296.5,71.4 297.9,71.1 299.3,70.9 300.7,70.7 302.1,70.6 303.5,70.6 304.9,70.4 306.3,70.1 307.7,70.0 309.1,69.9 310.5,69.7 311.9,69.5 313.3,69.3 314.7,69.2 316.0,69.1 317.4,68.9 318.8,68.7 320.2,68.5 321.6,68.3 323.0,68.2 324.4,68.1 325.8,68.1 327.2,67.9 328.6,67.8 330.0,67.6 331.4,67.4 332.8,67.2 334.2,67.1 335.6,67.0 337.0,66.9 338.4,66.7 339.8,66.5 341.2,66.3 342.6,66.1 344.0,66.0 345.3,65.9 346.7,65.8 348.1,65.7 349.5,65.6 350.9,65.5 352.3,65.3 353.7,65.1 355.1,65.0 356.5,64.8 357.9,64.7 359.3,64.6 360.7,64.4 362.1,64.2 363.5,64.1 364.9,64.0 366.3,63.9 367.7,63.7 369.1,63.5 370.5,63.4 371.9,63.3 373.3,63.2 374.7,63.1 376.0,63.0 377.4,62.8 378.8,62.7 380.2,62.7 381.6,62.5 383.0,62.2 384.4,62.0 385.8,66.4 387.2,65.5 388.6,63.9 390.0,63.2 391.4,62.5 392.8,61.5 394.2,61.0 395.6,60.7 397.0,60.1 398.4,59.1 399.8,58.4 401.2,58.2 402.6,57.8 404.0,57.6 405.3,57.1 406.7,56.6 408.1,56.1 409.5,55.8 410.9,55.3 412.3,55.1 413.7,54.8 415.1,54.6 416.5,54.3 417.9,54.1 419.3,53.6 420.7,53.3 422.1,52.8 423.5,52.2 424.9,51.9 426.3,51.7 427.7,51.5 429.1,51.3 430.5,50.9 431.9,50.6 433.3,50.3 434.7,49.4 436.0,48.7 437.4,48.4 438.8,48.2 440.2,47.9 441.6,47.4 443.0,47.0 444.4,46.5 445.8,46.2 447.2,45.9 448.6,45.6 450.0,45.1 451.4,44.9 452.8,44.8 454.2,44.6 455.6,44.4 457.0,44.1 458.4,44.0 459.8,43.7 461.2,43.5 462.6,43.4 464.0,43.1 465.3,42.9 466.7,42.7 468.1,42.5 469.5,42.4 470.9,42.2 472.3,42.1 473.7,41.9 475.1,41.8 476.5,41.7 477.9,41.5 479.3,41.3 480.7,41.1 482.1,40.9 483.5,40.7 484.9,40.6 486.3,40.4 487.7,40.3 489.1,40.2 490.5,40.0 491.9,39.9 493.3,39.7 494.7,39.6 496.0,39.5 497.4,39.3 498.8,39.1 500.2,38.9 501.6,38.7 503.0,38.5 504.4,38.3 505.8,38.1 507.2,37.9 508.6,37.7 510.0,37.5 511.4,37.3 512.8,37.0 514.2,36.8 515.6,36.5 517.0,36.3 518.4,36.1 519.8,35.9 521.2,35.8 522.6,35.7 524.0,35.6 525.3,35.4 526.7,35.2 528.1,35.1 529.5,34.9 530.9,34.7 532.3,34.4 533.7,34.1 535.1,34.0 536.5,33.6 537.9,33.5 539.3,33.4 540.7,33.2 542.1,33.1 543.5,33.0 544.9,32.8 546.3,32.6 547.7,32.4 549.1,32.2 550.5,32.0 551.9,31.9 553.3,31.7 554.7,31.6 556.0,31.5 557.4,31.4 558.8,31.3 560.2,31.1 561.6,31.0 563.0,30.8 564.4,30.6 565.8,30.5 567.2,30.3 568.6,30.2 570.0,30.0 570.0,30.0,120" />
  
  <!-- Linea principale -->
  <polyline fill="none" stroke="#0366d6" stroke-width="2.5" stroke-linecap="round" stroke-linejoin="round" points="30.0,120.0 31.4,119.5 32.8,118.9 34.2,118.4 35.6,118.3 37.0,118.0 38.4,117.4 39.8,117.0 41.2,116.7 42.6,116.1 44.0,115.8 45.3,115.5 46.7,115.3 48.1,115.0 49.5,114.6 50.9,114.2 52.3,113.8 53.7,113.6 55.1,113.4 56.5,113.1 57.9,112.8 59.3,112.5 60.7,112.4 62.1,112.1 63.5,111.1 64.9,110.8 66.3,110.4 67.7,110.0 69.1,109.7 70.5,109.4 71.9,109.2 73.3,109.0 74.7,108.7 76.0,108.2 77.4,107.8 78.8,107.6 80.2,107.2 81.6,107.1 83.0,107.1 84.4,106.9 85.8,106.6 87.2,106.4 88.6,106.2 90.0,105.9 91.4,105.4 92.8,105.2 94.2,105.1 95.6,104.9 97.0,104.5 98.4,104.2 99.8,103.8 101.2,103.5 102.6,103.1 104.0,103.0 105.3,102.8 106.7,102.4 108.1,102.0 109.5,101.7 110.9,101.6 112.3,101.4 113.7,101.2 115.1,100.7 116.5,100.3 117.9,100.0 119.3,99.6 120.7,99.4 122.1,99.3 123.5,99.1 124.9,98.8 126.3,98.6 127.7,98.5 129.1,98.3 130.5,98.2 131.9,98.0 133.3,97.8 134.7,97.7 136.0,97.6 137.4,97.2 138.8,97.0 140.2,96.9 141.6,96.8 143.0,96.7 144.4,96.7 145.8,103.4 147.2,102.7 148.6,102.1 150.0,101.5 151.4,99.7 152.8,98.4 154.2,97.1 155.6,96.6 157.0,96.0 158.4,95.1 159.8,94.0 161.2,93.3 162.6,93.0 164.0,92.7 165.3,92.0 166.7,91.5 168.1,91.1 169.5,90.7 170.9,90.5 172.3,90.5 173.7,90.1 175.1,89.5 176.5,89.0 177.9,88.6 179.3,88.1 180.7,87.8 182.1,87.7 183.5,87.2 184.9,86.8 186.3,86.5 187.7,86.2 189.1,86.0 190.5,85.9 191.9,85.7 193.3,85.4 194.7,85.1 196.0,84.9 197.4,84.7 198.8,84.5 200.2,84.3 201.6,84.2 203.0,84.0 204.4,83.8 205.8,83.5 207.2,83.2 208.6,82.9 210.0,82.8 211.4,82.6 212.8,82.4 214.2,82.3 215.6,82.1 217.0,81.6 218.4,81.3 219.8,80.9 221.2,80.8 222.6,80.7 224.0,80.5 225.3,80.3 226.7,80.1 228.1,79.8 229.5,79.5 230.9,79.4 232.3,79.3 233.7,79.1 235.1,79.0 236.5,78.8 237.9,78.6 239.3,78.5 240.7,78.2 242.1,78.1 243.5,78.0 244.9,77.8 246.3,77.7 247.7,77.5 249.1,77.3 250.5,77.0 251.9,76.8 253.3,76.6 254.7,76.5 256.0,76.4 257.4,76.2 258.8,75.9 260.2,75.7 261.6,75.5 263.0,75.3 264.4,74.9 265.8,74.8 267.2,74.7 268.6,74.6 270.0,74.4 271.4,74.2 272.8,74.0 274.2,73.9 275.6,73.7 277.0,73.6 278.4,73.4 279.8,73.3 281.2,73.2 282.6,73.0 284.0,72.8 285.3,72.7 286.7,72.4 288.1,72.3 289.5,72.2 290.9,72.1 292.3,71.9 293.7,71.8 295.1,71.7 296.5,71.4 297.9,71.1 299.3,70.9 300.7,70.7 302.1,70.6 303.5,70.6 304.9,70.4 306.3,70.1 307.7,70.0 309.1,69.9 310.5,69.7 311.9,69.5 313.3,69.3 314.7,69.2 316.0,69.1 317.4,68.9 318.8,68.7 320.2,68.5 321.6,68.3 323.0,68.2 324.4,68.1 325.8,68.1 327.2,67.9 328.6,67.8 330.0,67.6 331.4,67.4 332.8,67.2 334.2,67.1 335.6,67.0 337.0,66.9 338.4,66.7 339.8,66.5 341.2,66.3 342.6,66.1 344.0,66.0 345.3,65.9 346.7,65.8 348.1,65.7 349.5,65.6 350.9,65.5 352.3,65.3 353.7,65.1 355.1,65.0 356.5,64.8 357.9,64.7 359.3,64.6 360.7,64.4 362.1,64.2 363.5,64.1 364.9,64.0 366.3,63.9 367.7,63.7 369.1,63.5 370.5,63.4 371.9,63.3 373.3,63.2 374.7,63.1 376.0,63.0 377.4,62.8 378.8,62.7 380.2,62.7 381.6,62.5 383.0,62.2 384.4,62.0 385.8,66.4 387.2,65.5 388.6,63.9 390.0,63.2 391.4,62.5 392.8,61.5 394.2,61.0 395.6,60.7 397.0,60.1 398.4,59.1 399.8,58.4 401.2,58.2 402.6,57.8 404.0,57.6 405.3,57.1 406.7,56.6 408.1,56.1 409.5,55.8 410.9,55.3 412.3,55.1 413.7,54.8 415.1,54.6 416.5,54.3 417.9,54.1 419.3,53.6 420.7,53.3 422.1,52.8 423.5,52.2 424.9,51.9 426.3,51.7 427.7,51.5 429.1,51.3 430.5,50.9 431.9,50.6 433.3,50.3 434.7,49.4 436.0,48.7 437.4,48.4 438.8,48.2 440.2,47.9 441.6,47.4 443.0,47.0 444.4,46.5 445.8,46.2 447.2,45.9 448.6,45.6 450.0,45.1 451.4,44.9 452.8,44.8 454.2,44.6 455.6,44.4 457.0,44.1 458.4,44.0 459.8,43.7 461.2,43.5 462.6,43.4 464.0,43.1 465.3,42.9 466.7,42.7 468.1,42.5 469.5,42.4 470.9,42.2 472.3,42.1 473.7,41.9 475.1,41.8 476.5,41.7 477.9,41.5 479.3,41.3 480.7,41.1 482.1,40.9 483.5,40.7 484.9,40.6 486.3,40.4 487.7,40.3 489.1,40.2 490.5,40.0 491.9,39.9 493.3,39.7 494.7,39.6 496.0,39.5 497.4,39.3 498.8,39.1 500.2,38.9 501.6,38.7 503.0,38.5 504.4,38.3 505.8,38.1 507.2,37.9 508.6,37.7 510.0,37.5 511.4,37.3 512.8,37.0 514.2,36.8 515.6,36.5 517.0,36.3 518.4,36.1 519.8,35.9 521.2,35.8 522.6,35.7 524.0,35.6 525.3,35.4 526.7,35.2 528.1,35.1 529.5,34.9 530.9,34.7 532.3,34.4 533.7,34.1 535.1,34.0 536.5,33.6 537.9,33.5 539.3,33.4 540.7,33.2 542.1,33.1 543.5,33.0 544.9,32.8 546.3,32.6 547.7,32.4 549.1,32.2 550.5,32.0 551.9,31.9 553.3,31.7 554.7,31.6 556.0,31.5 557.4,31.4 558.8,31.3 560.2,31.1 561.6,31.0 563.0,30.8 564.4,30.6 565.8,30.5 567.2,30.3 568.6,30.2 570.0,30.0" />
  
  <!-- Punto finale luminoso -->
  <circle cx="570.0" cy="30.0" r="4" fill="#ffffff" stroke="#0366d6" stroke-width="2.5" />
</svg>