<svg width="600" height="150" viewBox="0 0 600 150" xmlns="http://www.w3.org/2000/svg">
  <defs>
    <filter id="shadow2" x="-2%" y="-2%" width="104%" height="108%">
      <feDropShadow dx="0" dy="2" stdDeviation="3" flood-opacity="0.1" />
    </filter>
    <linearGradient id="fillGrad" x1="0" y1="0" x2="0" y2="1">
      <stop offset="0%" stop-color="#0366d6" stop-opacity="0.3"/>
      <stop offset="100%" stop-color="#0366d6" stop-opacity="0.02"/>
    </linearGradient>
  </defs>
  <rect width="600" height="150" rx="12" fill="#ffffff" filter="url(#shadow2)" stroke="#e1e4e8" stroke-width="1"/>
  <text x="20" y="24" fill="#2b3137" font-family="-apple-system,BlinkMacSystemFont,'Segoe UI',Helvetica,Arial,sans-serif" font-size="14" font-weight="600">📈 Download Growth (Actual: 86.0k)</text>
  
  <!-- Area sotto la linea -->
  <polygon fill="url(#fillGrad)" points="30.0,120.0,120 30.0,120.0 31.4,119.5 32.8,118.9 34.2,118.4 35.7,118.3 37.1,118.0 38.5,117.4 39.9,117.0 41.3,116.7 42.7,116.1 44.1,115.8 45.5,115.5 47.0,115.3 48.4,115.0 49.8,114.6 51.2,114.1 52.6,113.8 54.0,113.5 55.4,113.4 56.9,113.1 58.3,112.7 59.7,112.5 61.1,112.3 62.5,112.0 63.9,111.0 65.3,110.7 66.8,110.3 68.2,110.0 69.6,109.6 71.0,109.3 72.4,109.1 73.8,108.9 75.2,108.6 76.6,108.1 78.1,107.7 79.5,107.4 80.9,107.1 82.3,107.0 83.7,106.9 85.1,106.8 86.5,106.4 88.0,106.3 89.4,106.1 90.8,105.8 92.2,105.2 93.6,105.1 95.0,105.0 96.4,104.8 97.9,104.4 99.3,104.1 100.7,103.6 102.1,103.3 103.5,102.9 104.9,102.9 106.3,102.6 107.7,102.2 109.2,101.8 110.6,101.5 112.0,101.4 113.4,101.2 114.8,101.0 116.2,100.6 117.6,100.1 119.1,99.8 120.5,99.4 121.9,99.2 123.3,99.1 124.7,98.9 126.1,98.6 127.5,98.4 129.0,98.3 130.4,98.1 131.8,98.0 133.2,97.8 134.6,97.6 136.0,97.5 137.4,97.4 138.8,97.0 140.3,96.8 141.7,96.7 143.1,96.6 144.5,96.5 145.9,96.5 147.3,103.2 148.7,102.6 150.2,102.0 151.6,101.3 153.0,99.5 154.4,98.2 155.8,96.9 157.2,96.3 158.6,95.8 160.1,94.8 161.5,93.8 162.9,93.1 164.3,92.8 165.7,92.5 167.1,91.8 168.5,91.2 169.9,90.9 171.4,90.5 172.8,90.3 174.2,90.2 175.6,89.8 177.0,89.2 178.4,88.7 179.8,88.3 181.3,87.8 182.7,87.5 184.1,87.4 185.5,86.9 186.9,86.5 188.3,86.2 189.7,85.9 191.2,85.7 192.6,85.6 194.0,85.4 195.4,85.1 196.8,84.8 198.2,84.6 199.6,84.4 201.0,84.2 202.5,84.0 203.9,83.8 205.3,83.7 206.7,83.5 208.1,83.2 209.5,82.9 210.9,82.6 212.4,82.4 213.8,82.2 215.2,82.1 216.6,81.9 218.0,81.8 219.4,81.3 220.8,81.0 222.3,80.6 223.7,80.4 225.1,80.4 226.5,80.2 227.9,80.0 229.3,79.7 230.7,79.5 232.1,79.2 233.6,79.0 235.0,78.9 236.4,78.7 237.8,78.6 239.2,78.5 240.6,78.3 242.0,78.1 243.5,77.8 244.9,77.7 246.3,77.6 247.7,77.4 249.1,77.3 250.5,77.1 251.9,76.9 253.4,76.7 254.8,76.5 256.2,76.2 257.6,76.1 259.0,76.0 260.4,75.8 261.8,75.5 263.2,75.3 264.7,75.1 266.1,74.8 267.5,74.5 268.9,74.4 270.3,74.3 271.7,74.2 273.1,74.0 274.6,73.8 276.0,73.6 277.4,73.5 278.8,73.3 280.2,73.2 281.6,73.0 283.0,72.9 284.5,72.8 285.9,72.6 287.3,72.3 288.7,72.2 290.1,72.0 291.5,71.9 292.9,71.8 294.3,71.6 295.8,71.5 297.2,71.4 298.6,71.2 300.0,70.9 301.4,70.6 302.8,70.4 304.2,70.2 305.7,70.2 307.1,70.1 308.5,69.9 309.9,69.6 311.3,69.5 312.7,69.4 314.1,69.2 315.5,69.1 317.0,68.9 318.4,68.8 319.8,68.7 321.2,68.4 322.6,68.2 324.0,68.0 325.4,67.8 326.9,67.7 328.3,67.7 329.7,67.6 331.1,67.4 332.5,67.3 333.9,67.1 335.3,66.9 336.8,66.8 338.2,66.6 339.6,66.5 341.0,66.4 342.4,66.3 343.8,66.0 345.2,65.8 346.6,65.7 348.1,65.5 349.5,65.4 350.9,65.3 352.3,65.2 353.7,65.1 355.1,65.0 356.5,64.8 358.0,64.6 359.4,64.5 360.8,64.3 362.2,64.2 363.6,64.1 365.0,63.9 366.4,63.7 367.9,63.6 369.3,63.5 370.7,63.4 372.1,63.2 373.5,63.0 374.9,62.9 376.3,62.8 377.7,62.7 379.2,62.6 380.6,62.5 382.0,62.3 383.4,62.2 384.8,62.2 386.2,62.0 387.6,61.7 389.1,61.5 390.5,65.9 391.9,65.0 393.3,63.4 394.7,62.7 396.1,62.0 397.5,61.0 399.0,60.5 400.4,60.1 401.8,59.5 403.2,58.6 404.6,57.8 406.0,57.6 407.4,57.3 408.8,57.0 410.3,56.5 411.7,56.0 413.1,55.5 414.5,55.2 415.9,54.7 417.3,54.5 418.7,54.2 420.2,54.0 421.6,53.7 423.0,53.5 424.4,53.0 425.8,52.7 427.2,52.2 428.6,51.6 430.1,51.3 431.5,51.1 432.9,50.9 434.3,50.7 435.7,50.3 437.1,49.9 438.5,49.6 439.9,48.7 441.4,48.0 442.8,47.7 444.2,47.5 445.6,47.2 447.0,46.8 448.4,46.4 449.8,45.8 451.3,45.5 452.7,45.2 454.1,44.9 455.5,44.5 456.9,44.2 458.3,44.1 459.7,43.9 461.2,43.7 462.6,43.4 464.0,43.3 465.4,43.0 466.8,42.8 468.2,42.7 469.6,42.4 471.0,42.2 472.5,42.0 473.9,41.8 475.3,41.6 476.7,41.5 478.1,41.4 479.5,41.2 480.9,41.1 482.4,41.0 483.8,40.7 485.2,40.6 486.6,40.4 488.0,40.2 489.4,40.0 490.8,39.9 492.3,39.7 493.7,39.6 495.1,39.4 496.5,39.3 497.9,39.1 499.3,39.0 500.7,38.9 502.1,38.7 503.6,38.5 505.0,38.4 506.4,38.1 507.8,37.9 509.2,37.8 510.6,37.6 512.0,37.3 513.5,37.2 514.9,36.9 516.3,36.7 517.7,36.5 519.1,36.2 520.5,36.0 521.9,35.8 523.4,35.5 524.8,35.3 526.2,35.2 527.6,35.0 529.0,34.9 530.4,34.8 531.8,34.6 533.2,34.4 534.7,34.3 536.1,34.1 537.5,33.9 538.9,33.6 540.3,33.4 541.7,33.2 543.1,32.9 544.6,32.7 546.0,32.6 547.4,32.4 548.8,32.3 550.2,32.2 551.6,32.0 553.0,31.8 554.5,31.6 555.9,31.3 557.3,31.2 558.7,31.0 560.1,30.9 561.5,30.7 562.9,30.7 564.3,30.6 565.8,30.5 567.2,30.3 568.6,30.2 570.0,30.0 570.0,30.0,120" />
  
  <!-- Linea principale -->
  <polyline fill="none" stroke="#0366d6" stroke-width="2.5" stroke-linecap="round" stroke-linejoin="round" points="30.0,120.0 31.4,119.5 32.8,118.9 34.2,118.4 35.7,118.3 37.1,118.0 38.5,117.4 39.9,117.0 41.3,116.7 42.7,116.1 44.1,115.8 45.5,115.5 47.0,115.3 48.4,115.0 49.8,114.6 51.2,114.1 52.6,113.8 54.0,113.5 55.4,113.4 56.9,113.1 58.3,112.7 59.7,112.5 61.1,112.3 62.5,112.0 63.9,111.0 65.3,110.7 66.8,110.3 68.2,110.0 69.6,109.6 71.0,109.3 72.4,109.1 73.8,108.9 75.2,108.6 76.6,108.1 78.1,107.7 79.5,107.4 80.9,107.1 82.3,107.0 83.7,106.9 85.1,106.8 86.5,106.4 88.0,106.3 89.4,106.1 90.8,105.8 92.2,105.2 93.6,105.1 95.0,105.0 96.4,104.8 97.9,104.4 99.3,104.1 100.7,103.6 102.1,103.3 103.5,102.9 104.9,102.9 106.3,102.6 107.7,102.2 109.2,101.8 110.6,101.5 112.0,101.4 113.4,101.2 114.8,101.0 116.2,100.6 117.6,100.1 119.1,99.8 120.5,99.4 121.9,99.2 123.3,99.1 124.7,98.9 126.1,98.6 127.5,98.4 129.0,98.3 130.4,98.1 131.8,98.0 133.2,97.8 134.6,97.6 136.0,97.5 137.4,97.4 138.8,97.0 140.3,96.8 141.7,96.7 143.1,96.6 144.5,96.5 145.9,96.5 147.3,103.2 148.7,102.6 150.2,102.0 151.6,101.3 153.0,99.5 154.4,98.2 155.8,96.9 157.2,96.3 158.6,95.8 160.1,94.8 161.5,93.8 162.9,93.1 164.3,92.8 165.7,92.5 167.1,91.8 168.5,91.2 169.9,90.9 171.4,90.5 172.8,90.3 174.2,90.2 175.6,89.8 177.0,89.2 178.4,88.7 179.8,88.3 181.3,87.8 182.7,87.5 184.1,87.4 185.5,86.9 186.9,86.5 188.3,86.2 189.7,85.9 191.2,85.7 192.6,85.6 194.0,85.4 195.4,85.1 196.8,84.8 198.2,84.6 199.6,84.4 201.0,84.2 202.5,84.0 203.9,83.8 205.3,83.7 206.7,83.5 208.1,83.2 209.5,82.9 210.9,82.6 212.4,82.4 213.8,82.2 215.2,82.1 216.6,81.9 218.0,81.8 219.4,81.3 220.8,81.0 222.3,80.6 223.7,80.4 225.1,80.4 226.5,80.2 227.9,80.0 229.3,79.7 230.7,79.5 232.1,79.2 233.6,79.0 235.0,78.9 236.4,78.7 237.8,78.6 239.2,78.5 240.6,78.3 242.0,78.1 243.5,77.8 244.9,77.7 246.3,77.6 247.7,77.4 249.1,77.3 250.5,77.1 251.9,76.9 253.4,76.7 254.8,76.5 256.2,76.2 257.6,76.1 259.0,76.0 260.4,75.8 261.8,75.5 263.2,75.3 264.7,75.1 266.1,74.8 267.5,74.5 268.9,74.4 270.3,74.3 271.7,74.2 273.1,74.0 274.6,73.8 276.0,73.6 277.4,73.5 278.8,73.3 280.2,73.2 281.6,73.0 283.0,72.9 284.5,72.8 285.9,72.6 287.3,72.3 288.7,72.2 290.1,72.0 291.5,71.9 292.9,71.8 294.3,71.6 295.8,71.5 297.2,71.4 298.6,71.2 300.0,70.9 301.4,70.6 302.8,70.4 304.2,70.2 305.7,70.2 307.1,70.1 308.5,69.9 309.9,69.6 311.3,69.5 312.7,69.4 314.1,69.2 315.5,69.1 317.0,68.9 318.4,68.8 319.8,68.7 321.2,68.4 322.6,68.2 324.0,68.0 325.4,67.8 326.9,67.7 328.3,67.7 329.7,67.6 331.1,67.4 332.5,67.3 333.9,67.1 335.3,66.9 336.8,66.8 338.2,66.6 339.6,66.5 341.0,66.4 342.4,66.3 343.8,66.0 345.2,65.8 346.6,65.7 348.1,65.5 349.5,65.4 350.9,65.3 352.3,65.2 353.7,65.1 355.1,65.0 356.5,64.8 358.0,64.6 359.4,64.5 360.8,64.3 362.2,64.2 363.6,64.1 365.0,63.9 366.4,63.7 367.9,63.6 369.3,63.5 370.7,63.4 372.1,63.2 373.5,63.0 374.9,62.9 376.3,62.8 377.7,62.7 379.2,62.6 380.6,62.5 382.0,62.3 383.4,62.2 384.8,62.2 386.2,62.0 387.6,61.7 389.1,61.5 390.5,65.9 391.9,65.0 393.3,63.4 394.7,62.7 396.1,62.0 397.5,61.0 399.0,60.5 400.4,60.1 401.8,59.5 403.2,58.6 404.6,57.8 406.0,57.6 407.4,57.3 408.8,57.0 410.3,56.5 411.7,56.0 413.1,55.5 414.5,55.2 415.9,54.7 417.3,54.5 418.7,54.2 420.2,54.0 421.6,53.7 423.0,53.5 424.4,53.0 425.8,52.7 427.2,52.2 428.6,51.6 430.1,51.3 431.5,51.1 432.9,50.9 434.3,50.7 435.7,50.3 437.1,49.9 438.5,49.6 439.9,48.7 441.4,48.0 442.8,47.7 444.2,47.5 445.6,47.2 447.0,46.8 448.4,46.4 449.8,45.8 451.3,45.5 452.7,45.2 454.1,44.9 455.5,44.5 456.9,44.2 458.3,44.1 459.7,43.9 461.2,43.7 462.6,43.4 464.0,43.3 465.4,43.0 466.8,42.8 468.2,42.7 469.6,42.4 471.0,42.2 472.5,42.0 473.9,41.8 475.3,41.6 476.7,41.5 478.1,41.4 479.5,41.2 480.9,41.1 482.4,41.0 483.8,40.7 485.2,40.6 486.6,40.4 488.0,40.2 489.4,40.0 490.8,39.9 492.3,39.7 493.7,39.6 495.1,39.4 496.5,39.3 497.9,39.1 499.3,39.0 500.7,38.9 502.1,38.7 503.6,38.5 505.0,38.4 506.4,38.1 507.8,37.9 509.2,37.8 510.6,37.6 512.0,37.3 513.5,37.2 514.9,36.9 516.3,36.7 517.7,36.5 519.1,36.2 520.5,36.0 521.9,35.8 523.4,35.5 524.8,35.3 526.2,35.2 527.6,35.0 529.0,34.9 530.4,34.8 531.8,34.6 533.2,34.4 534.7,34.3 536.1,34.1 537.5,33.9 538.9,33.6 540.3,33.4 541.7,33.2 543.1,32.9 544.6,32.7 546.0,32.6 547.4,32.4 548.8,32.3 550.2,32.2 551.6,32.0 553.0,31.8 554.5,31.6 555.9,31.3 557.3,31.2 558.7,31.0 560.1,30.9 561.5,30.7 562.9,30.7 564.3,30.6 565.8,30.5 567.2,30.3 568.6,30.2 570.0,30.0" />
  
  <!-- Punto finale luminoso -->
  <circle cx="570.0" cy="30.0" r="4" fill="#ffffff" stroke="#0366d6" stroke-width="2.5" />
</svg>