<svg width="600" height="150" viewBox="0 0 600 150" xmlns="http://www.w3.org/2000/svg">
  <defs>
    <filter id="shadow2" x="-2%" y="-2%" width="104%" height="108%">
      <feDropShadow dx="0" dy="2" stdDeviation="3" flood-opacity="0.1" />
    </filter>
    <linearGradient id="fillGrad" x1="0" y1="0" x2="0" y2="1">
      <stop offset="0%" stop-color="#0366d6" stop-opacity="0.3"/>
      <stop offset="100%" stop-color="#0366d6" stop-opacity="0.02"/>
    </linearGradient>
  </defs>
  <rect width="600" height="150" rx="12" fill="#ffffff" filter="url(#shadow2)" stroke="#e1e4e8" stroke-width="1"/>
  <text x="20" y="24" fill="#2b3137" font-family="-apple-system,BlinkMacSystemFont,'Segoe UI',Helvetica,Arial,sans-serif" font-size="14" font-weight="600">📈 Download Growth (Actual: 88.1k)</text>
  
  <!-- Area sotto la linea -->
  <polygon fill="url(#fillGrad)" points="30.0,120.0,120 30.0,120.0 31.2,119.5 32.4,119.0 33.6,118.6 34.8,118.4 36.1,118.2 37.3,117.7 38.5,117.3 39.7,117.0 40.9,116.5 42.1,116.2 43.3,115.9 44.5,115.7 45.7,115.5 47.0,115.1 48.2,114.7 49.4,114.4 50.6,114.2 51.8,114.0 53.0,113.8 54.2,113.5 55.4,113.2 56.6,113.1 57.8,112.8 59.1,111.9 60.3,111.7 61.5,111.3 62.7,110.9 63.9,110.6 65.1,110.3 66.3,110.1 67.5,110.0 68.7,109.7 70.0,109.3 71.2,108.9 72.4,108.7 73.6,108.4 74.8,108.3 76.0,108.2 77.2,108.1 78.4,107.8 79.6,107.6 80.9,107.5 82.1,107.2 83.3,106.7 84.5,106.6 85.7,106.5 86.9,106.3 88.1,105.9 89.3,105.7 90.5,105.3 91.7,105.0 93.0,104.6 94.2,104.5 95.4,104.3 96.6,104.0 97.8,103.6 99.0,103.3 100.2,103.2 101.4,103.0 102.6,102.9 103.9,102.5 105.1,102.1 106.3,101.8 107.5,101.4 108.7,101.3 109.9,101.2 111.1,101.0 112.3,100.8 113.5,100.6 114.8,100.4 116.0,100.3 117.2,100.2 118.4,100.0 119.6,99.8 120.8,99.7 122.0,99.7 123.2,99.3 124.4,99.1 125.7,99.0 126.9,98.9 128.1,98.8 129.3,98.8 130.5,104.9 131.7,104.3 132.9,103.7 134.1,103.2 135.3,101.5 136.5,100.4 137.8,99.1 139.0,98.7 140.2,98.2 141.4,97.3 142.6,96.4 143.8,95.7 145.0,95.5 146.2,95.2 147.4,94.6 148.7,94.1 149.9,93.8 151.1,93.4 152.3,93.2 153.5,93.1 154.7,92.8 155.9,92.2 157.1,91.8 158.3,91.4 159.6,91.0 160.8,90.7 162.0,90.6 163.2,90.2 164.4,89.8 165.6,89.5 166.8,89.2 168.0,89.1 169.2,89.0 170.4,88.8 171.7,88.5 172.9,88.3 174.1,88.1 175.3,87.9 176.5,87.7 177.7,87.6 178.9,87.4 180.1,87.3 181.3,87.1 182.6,86.8 183.8,86.6 185.0,86.3 186.2,86.1 187.4,86.0 188.6,85.8 189.8,85.7 191.0,85.6 192.2,85.1 193.5,84.8 194.7,84.5 195.9,84.3 197.1,84.3 198.3,84.1 199.5,83.9 200.7,83.7 201.9,83.5 203.1,83.2 204.3,83.0 205.6,82.9 206.8,82.8 208.0,82.7 209.2,82.6 210.4,82.4 211.6,82.2 212.8,82.0 214.0,81.9 215.2,81.8 216.5,81.6 217.7,81.6 218.9,81.3 220.1,81.1 221.3,80.9 222.5,80.8 223.7,80.6 224.9,80.4 226.1,80.3 227.4,80.2 228.6,79.9 229.8,79.7 231.0,79.5 232.2,79.3 233.4,79.0 234.6,78.9 235.8,78.8 237.0,78.7 238.3,78.5 239.5,78.4 240.7,78.2 241.9,78.1 243.1,77.9 244.3,77.8 245.5,77.6 246.7,77.5 247.9,77.5 249.1,77.3 250.4,77.0 251.6,76.9 252.8,76.7 254.0,76.7 255.2,76.5 256.4,76.4 257.6,76.3 258.8,76.2 260.0,76.0 261.3,75.8 262.5,75.5 263.7,75.3 264.9,75.2 266.1,75.1 267.3,75.0 268.5,74.9 269.7,74.6 270.9,74.5 272.2,74.4 273.4,74.2 274.6,74.1 275.8,73.9 277.0,73.8 278.2,73.7 279.4,73.5 280.6,73.4 281.8,73.1 283.0,73.0 284.3,72.9 285.5,72.8 286.7,72.8 287.9,72.6 289.1,72.5 290.3,72.3 291.5,72.2 292.7,72.0 293.9,71.9 295.2,71.8 296.4,71.7 297.6,71.6 298.8,71.4 300.0,71.2 301.2,71.0 302.4,70.9 303.6,70.8 304.8,70.7 306.1,70.6 307.3,70.5 308.5,70.4 309.7,70.3 310.9,70.1 312.1,69.9 313.3,69.8 314.5,69.7 315.7,69.6 317.0,69.5 318.2,69.3 319.4,69.2 320.6,69.1 321.8,69.0 323.0,68.8 324.2,68.7 325.4,68.5 326.6,68.4 327.8,68.4 329.1,68.2 330.3,68.1 331.5,68.0 332.7,67.9 333.9,67.9 335.1,67.7 336.3,67.5 337.5,67.3 338.7,71.2 340.0,70.5 341.2,69.0 342.4,68.4 343.6,67.7 344.8,66.8 346.0,66.4 347.2,66.1 348.4,65.5 349.6,64.6 350.9,64.0 352.1,63.8 353.3,63.5 354.5,63.2 355.7,62.8 356.9,62.3 358.1,61.9 359.3,61.6 360.5,61.2 361.7,61.0 363.0,60.7 364.2,60.5 365.4,60.3 366.6,60.0 367.8,59.6 369.0,59.3 370.2,58.9 371.4,58.4 372.6,58.1 373.9,57.9 375.1,57.7 376.3,57.5 377.5,57.2 378.7,56.8 379.9,56.6 381.1,55.8 382.3,55.1 383.5,54.8 384.8,54.7 386.0,54.4 387.2,54.0 388.4,53.6 389.6,53.2 390.8,52.9 392.0,52.6 393.2,52.3 394.4,51.9 395.7,51.7 396.9,51.6 398.1,51.4 399.3,51.2 400.5,51.0 401.7,50.9 402.9,50.6 404.1,50.5 405.3,50.3 406.5,50.1 407.8,49.9 409.0,49.7 410.2,49.6 411.4,49.4 412.6,49.3 413.8,49.1 415.0,49.0 416.2,48.9 417.4,48.8 418.7,48.6 419.9,48.4 421.1,48.3 422.3,48.1 423.5,47.9 424.7,47.8 425.9,47.6 427.1,47.5 428.3,47.4 429.6,47.3 430.8,47.1 432.0,47.0 433.2,46.9 434.4,46.8 435.6,46.6 436.8,46.5 438.0,46.2 439.2,46.0 440.4,45.9 441.7,45.7 442.9,45.5 444.1,45.3 445.3,45.1 446.5,44.9 447.7,44.7 448.9,44.5 450.1,44.3 451.3,44.1 452.6,43.9 453.8,43.6 455.0,43.6 456.2,43.4 457.4,43.3 458.6,43.2 459.8,43.1 461.0,42.9 462.2,42.8 463.5,42.6 464.7,42.4 465.9,42.2 467.1,41.9 468.3,41.7 469.5,41.5 470.7,41.4 471.9,41.2 473.1,41.1 474.3,41.0 475.6,40.8 476.8,40.7 478.0,40.5 479.2,40.4 480.4,40.1 481.6,40.0 482.8,39.8 484.0,39.7 485.2,39.6 486.5,39.5 487.7,39.4 488.9,39.3 490.1,39.1 491.3,39.1 492.5,38.9 493.7,38.7 494.9,38.6 496.1,38.4 497.4,38.3 498.6,38.1 499.8,38.1 501.0,37.9 502.2,37.8 503.4,37.7 504.6,37.5 505.8,37.4 507.0,37.1 508.3,37.0 509.5,36.7 510.7,36.6 511.9,36.5 513.1,36.5 514.3,36.3 515.5,36.3 516.7,36.2 517.9,36.1 519.1,36.0 520.4,35.9 521.6,35.7 522.8,35.6 524.0,35.4 525.2,35.3 526.4,35.2 527.6,35.0 528.8,34.9 530.0,34.8 531.3,34.6 532.5,34.5 533.7,34.4 534.9,34.3 536.1,34.2 537.3,33.9 538.5,33.7 539.7,33.4 540.9,33.3 542.2,33.1 543.4,33.0 544.6,32.9 545.8,32.8 547.0,32.7 548.2,32.6 549.4,32.4 550.6,32.3 551.8,32.1 553.0,31.9 554.3,31.8 555.5,31.6 556.7,31.5 557.9,31.3 559.1,31.2 560.3,31.1 561.5,31.0 562.7,30.9 563.9,30.8 565.2,30.6 566.4,30.5 567.6,30.3 568.8,30.1 570.0,30.0 570.0,30.0,120" />
  
  <!-- Linea principale -->
  <polyline fill="none" stroke="#0366d6" stroke-width="2.5" stroke-linecap="round" stroke-linejoin="round" points="30.0,120.0 31.2,119.5 32.4,119.0 33.6,118.6 34.8,118.4 36.1,118.2 37.3,117.7 38.5,117.3 39.7,117.0 40.9,116.5 42.1,116.2 43.3,115.9 44.5,115.7 45.7,115.5 47.0,115.1 48.2,114.7 49.4,114.4 50.6,114.2 51.8,114.0 53.0,113.8 54.2,113.5 55.4,113.2 56.6,113.1 57.8,112.8 59.1,111.9 60.3,111.7 61.5,111.3 62.7,110.9 63.9,110.6 65.1,110.3 66.3,110.1 67.5,110.0 68.7,109.7 70.0,109.3 71.2,108.9 72.4,108.7 73.6,108.4 74.8,108.3 76.0,108.2 77.2,108.1 78.4,107.8 79.6,107.6 80.9,107.5 82.1,107.2 83.3,106.7 84.5,106.6 85.7,106.5 86.9,106.3 88.1,105.9 89.3,105.7 90.5,105.3 91.7,105.0 93.0,104.6 94.2,104.5 95.4,104.3 96.6,104.0 97.8,103.6 99.0,103.3 100.2,103.2 101.4,103.0 102.6,102.9 103.9,102.5 105.1,102.1 106.3,101.8 107.5,101.4 108.7,101.3 109.9,101.2 111.1,101.0 112.3,100.8 113.5,100.6 114.8,100.4 116.0,100.3 117.2,100.2 118.4,100.0 119.6,99.8 120.8,99.7 122.0,99.7 123.2,99.3 124.4,99.1 125.7,99.0 126.9,98.9 128.1,98.8 129.3,98.8 130.5,104.9 131.7,104.3 132.9,103.7 134.1,103.2 135.3,101.5 136.5,100.4 137.8,99.1 139.0,98.7 140.2,98.2 141.4,97.3 142.6,96.4 143.8,95.7 145.0,95.5 146.2,95.2 147.4,94.6 148.7,94.1 149.9,93.8 151.1,93.4 152.3,93.2 153.5,93.1 154.7,92.8 155.9,92.2 157.1,91.8 158.3,91.4 159.6,91.0 160.8,90.7 162.0,90.6 163.2,90.2 164.4,89.8 165.6,89.5 166.8,89.2 168.0,89.1 169.2,89.0 170.4,88.8 171.7,88.5 172.9,88.3 174.1,88.1 175.3,87.9 176.5,87.7 177.7,87.6 178.9,87.4 180.1,87.3 181.3,87.1 182.6,86.8 183.8,86.6 185.0,86.3 186.2,86.1 187.4,86.0 188.6,85.8 189.8,85.7 191.0,85.6 192.2,85.1 193.5,84.8 194.7,84.5 195.9,84.3 197.1,84.3 198.3,84.1 199.5,83.9 200.7,83.7 201.9,83.5 203.1,83.2 204.3,83.0 205.6,82.9 206.8,82.8 208.0,82.7 209.2,82.6 210.4,82.4 211.6,82.2 212.8,82.0 214.0,81.9 215.2,81.8 216.5,81.6 217.7,81.6 218.9,81.3 220.1,81.1 221.3,80.9 222.5,80.8 223.7,80.6 224.9,80.4 226.1,80.3 227.4,80.2 228.6,79.9 229.8,79.7 231.0,79.5 232.2,79.3 233.4,79.0 234.6,78.9 235.8,78.8 237.0,78.7 238.3,78.5 239.5,78.4 240.7,78.2 241.9,78.1 243.1,77.9 244.3,77.8 245.5,77.6 246.7,77.5 247.9,77.5 249.1,77.3 250.4,77.0 251.6,76.9 252.8,76.7 254.0,76.7 255.2,76.5 256.4,76.4 257.6,76.3 258.8,76.2 260.0,76.0 261.3,75.8 262.5,75.5 263.7,75.3 264.9,75.2 266.1,75.1 267.3,75.0 268.5,74.9 269.7,74.6 270.9,74.5 272.2,74.4 273.4,74.2 274.6,74.1 275.8,73.9 277.0,73.8 278.2,73.7 279.4,73.5 280.6,73.4 281.8,73.1 283.0,73.0 284.3,72.9 285.5,72.8 286.7,72.8 287.9,72.6 289.1,72.5 290.3,72.3 291.5,72.2 292.7,72.0 293.9,71.9 295.2,71.8 296.4,71.7 297.6,71.6 298.8,71.4 300.0,71.2 301.2,71.0 302.4,70.9 303.6,70.8 304.8,70.7 306.1,70.6 307.3,70.5 308.5,70.4 309.7,70.3 310.9,70.1 312.1,69.9 313.3,69.8 314.5,69.7 315.7,69.6 317.0,69.5 318.2,69.3 319.4,69.2 320.6,69.1 321.8,69.0 323.0,68.8 324.2,68.7 325.4,68.5 326.6,68.4 327.8,68.4 329.1,68.2 330.3,68.1 331.5,68.0 332.7,67.9 333.9,67.9 335.1,67.7 336.3,67.5 337.5,67.3 338.7,71.2 340.0,70.5 341.2,69.0 342.4,68.4 343.6,67.7 344.8,66.8 346.0,66.4 347.2,66.1 348.4,65.5 349.6,64.6 350.9,64.0 352.1,63.8 353.3,63.5 354.5,63.2 355.7,62.8 356.9,62.3 358.1,61.9 359.3,61.6 360.5,61.2 361.7,61.0 363.0,60.7 364.2,60.5 365.4,60.3 366.6,60.0 367.8,59.6 369.0,59.3 370.2,58.9 371.4,58.4 372.6,58.1 373.9,57.9 375.1,57.7 376.3,57.5 377.5,57.2 378.7,56.8 379.9,56.6 381.1,55.8 382.3,55.1 383.5,54.8 384.8,54.7 386.0,54.4 387.2,54.0 388.4,53.6 389.6,53.2 390.8,52.9 392.0,52.6 393.2,52.3 394.4,51.9 395.7,51.7 396.9,51.6 398.1,51.4 399.3,51.2 400.5,51.0 401.7,50.9 402.9,50.6 404.1,50.5 405.3,50.3 406.5,50.1 407.8,49.9 409.0,49.7 410.2,49.6 411.4,49.4 412.6,49.3 413.8,49.1 415.0,49.0 416.2,48.9 417.4,48.8 418.7,48.6 419.9,48.4 421.1,48.3 422.3,48.1 423.5,47.9 424.7,47.8 425.9,47.6 427.1,47.5 428.3,47.4 429.6,47.3 430.8,47.1 432.0,47.0 433.2,46.9 434.4,46.8 435.6,46.6 436.8,46.5 438.0,46.2 439.2,46.0 440.4,45.9 441.7,45.7 442.9,45.5 444.1,45.3 445.3,45.1 446.5,44.9 447.7,44.7 448.9,44.5 450.1,44.3 451.3,44.1 452.6,43.9 453.8,43.6 455.0,43.6 456.2,43.4 457.4,43.3 458.6,43.2 459.8,43.1 461.0,42.9 462.2,42.8 463.5,42.6 464.7,42.4 465.9,42.2 467.1,41.9 468.3,41.7 469.5,41.5 470.7,41.4 471.9,41.2 473.1,41.1 474.3,41.0 475.6,40.8 476.8,40.7 478.0,40.5 479.2,40.4 480.4,40.1 481.6,40.0 482.8,39.8 484.0,39.7 485.2,39.6 486.5,39.5 487.7,39.4 488.9,39.3 490.1,39.1 491.3,39.1 492.5,38.9 493.7,38.7 494.9,38.6 496.1,38.4 497.4,38.3 498.6,38.1 499.8,38.1 501.0,37.9 502.2,37.8 503.4,37.7 504.6,37.5 505.8,37.4 507.0,37.1 508.3,37.0 509.5,36.7 510.7,36.6 511.9,36.5 513.1,36.5 514.3,36.3 515.5,36.3 516.7,36.2 517.9,36.1 519.1,36.0 520.4,35.9 521.6,35.7 522.8,35.6 524.0,35.4 525.2,35.3 526.4,35.2 527.6,35.0 528.8,34.9 530.0,34.8 531.3,34.6 532.5,34.5 533.7,34.4 534.9,34.3 536.1,34.2 537.3,33.9 538.5,33.7 539.7,33.4 540.9,33.3 542.2,33.1 543.4,33.0 544.6,32.9 545.8,32.8 547.0,32.7 548.2,32.6 549.4,32.4 550.6,32.3 551.8,32.1 553.0,31.9 554.3,31.8 555.5,31.6 556.7,31.5 557.9,31.3 559.1,31.2 560.3,31.1 561.5,31.0 562.7,30.9 563.9,30.8 565.2,30.6 566.4,30.5 567.6,30.3 568.8,30.1 570.0,30.0" />
  
  <!-- Punto finale luminoso -->
  <circle cx="570.0" cy="30.0" r="4" fill="#ffffff" stroke="#0366d6" stroke-width="2.5" />
</svg>