<svg width="600" height="150" viewBox="0 0 600 150" xmlns="http://www.w3.org/2000/svg">
  <defs>
    <filter id="shadow2" x="-2%" y="-2%" width="104%" height="108%">
      <feDropShadow dx="0" dy="2" stdDeviation="3" flood-opacity="0.1" />
    </filter>
    <linearGradient id="fillGrad" x1="0" y1="0" x2="0" y2="1">
      <stop offset="0%" stop-color="#0366d6" stop-opacity="0.3"/>
      <stop offset="100%" stop-color="#0366d6" stop-opacity="0.02"/>
    </linearGradient>
  </defs>
  <rect width="600" height="150" rx="12" fill="#ffffff" filter="url(#shadow2)" stroke="#e1e4e8" stroke-width="1"/>
  <text x="20" y="24" fill="#2b3137" font-family="-apple-system,BlinkMacSystemFont,'Segoe UI',Helvetica,Arial,sans-serif" font-size="14" font-weight="600">📈 Download Growth (Actual: 83.2k)</text>
  
  <!-- Area sotto la linea -->
  <polygon fill="url(#fillGrad)" points="30.0,120.0,120 30.0,120.0 31.8,119.4 33.5,118.7 35.3,118.1 37.0,118.0 38.8,117.7 40.6,116.9 42.3,116.5 44.1,116.1 45.8,115.4 47.6,115.0 49.3,114.7 51.1,114.4 52.9,114.1 54.6,113.6 56.4,113.1 58.1,112.7 59.9,112.4 61.7,112.2 63.4,111.9 65.2,111.5 66.9,111.1 68.7,111.0 70.5,110.6 72.2,109.5 74.0,109.1 75.7,108.7 77.5,108.2 79.3,107.8 81.0,107.4 82.8,107.2 84.5,107.0 86.3,106.7 88.0,106.1 89.8,105.6 91.6,105.3 93.3,104.9 95.1,104.8 96.8,104.7 98.6,104.5 100.4,104.1 102.1,103.9 103.9,103.7 105.6,103.3 107.4,102.7 109.2,102.5 110.9,102.4 112.7,102.1 114.4,101.7 116.2,101.3 117.9,100.8 119.7,100.4 121.5,100.0 123.2,99.9 125.0,99.6 126.7,99.1 128.5,98.7 130.3,98.3 132.0,98.2 133.8,97.9 135.5,97.7 137.3,97.2 139.1,96.7 140.8,96.3 142.6,95.8 144.3,95.6 146.1,95.5 147.9,95.3 149.6,94.9 151.4,94.7 153.1,94.5 154.9,94.3 156.6,94.2 158.4,93.9 160.2,93.8 161.9,93.6 163.7,93.5 165.4,93.0 167.2,92.8 169.0,92.7 170.7,92.5 172.5,92.4 174.2,92.4 176.0,100.3 177.8,99.5 179.5,98.8 181.3,98.1 183.0,96.0 184.8,94.5 186.5,92.9 188.3,92.3 190.1,91.6 191.8,90.5 193.6,89.3 195.3,88.4 197.1,88.1 198.9,87.7 200.6,86.9 202.4,86.2 204.1,85.8 205.9,85.3 207.7,85.1 209.4,85.0 211.2,84.6 212.9,83.8 214.7,83.3 216.4,82.8 218.2,82.2 220.0,81.9 221.7,81.7 223.5,81.2 225.2,80.7 227.0,80.3 228.8,80.0 230.5,79.8 232.3,79.7 234.0,79.4 235.8,79.0 237.6,78.7 239.3,78.5 241.1,78.2 242.8,78.0 244.6,77.8 246.4,77.6 248.1,77.4 249.9,77.2 251.6,76.8 253.4,76.5 255.1,76.1 256.9,75.9 258.7,75.7 260.4,75.5 262.2,75.4 263.9,75.2 265.7,74.6 267.5,74.2 269.2,73.7 271.0,73.5 272.7,73.5 274.5,73.3 276.3,73.0 278.0,72.7 279.8,72.5 281.5,72.1 283.3,71.9 285.0,71.8 286.8,71.6 288.6,71.4 290.3,71.3 292.1,71.0 293.8,70.8 295.6,70.5 297.4,70.3 299.1,70.2 300.9,70.1 302.6,70.0 304.4,69.7 306.2,69.4 307.9,69.2 309.7,68.9 311.4,68.7 313.2,68.5 315.0,68.4 316.7,68.2 318.5,67.8 320.2,67.5 322.0,67.3 323.7,67.0 325.5,66.6 327.3,66.5 329.0,66.4 330.8,66.2 332.5,66.0 334.3,65.8 336.1,65.6 337.8,65.4 339.6,65.2 341.3,65.1 343.1,64.9 344.9,64.7 346.6,64.6 348.4,64.4 350.1,64.1 351.9,64.0 353.6,63.7 355.4,63.6 357.2,63.4 358.9,63.2 360.7,63.1 362.4,63.0 364.2,62.8 366.0,62.4 367.7,62.1 369.5,61.8 371.2,61.6 373.0,61.6 374.8,61.5 376.5,61.2 378.3,60.9 380.0,60.8 381.8,60.7 383.6,60.4 385.3,60.3 387.1,60.0 388.8,59.9 390.6,59.8 392.3,59.5 394.1,59.3 395.9,59.0 397.6,58.8 399.4,58.7 401.1,58.6 402.9,58.5 404.7,58.3 406.4,58.1 408.2,57.9 409.9,57.8 411.7,57.5 413.5,57.4 415.2,57.3 417.0,57.1 418.7,57.0 420.5,56.7 422.2,56.4 424.0,56.2 425.8,56.0 427.5,55.9 429.3,55.8 431.0,55.7 432.8,55.6 434.6,55.5 436.3,55.3 438.1,55.0 439.8,54.8 441.6,54.7 443.4,54.5 445.1,54.4 446.9,54.2 448.6,54.0 450.4,53.9 452.1,53.7 453.9,53.6 455.7,53.3 457.4,53.2 459.2,53.0 460.9,52.9 462.7,52.8 464.5,52.6 466.2,52.5 468.0,52.3 469.7,52.2 471.5,52.1 473.3,52.0 475.0,51.6 476.8,51.4 478.5,56.5 480.3,55.5 482.1,53.6 483.8,52.8 485.6,51.9 487.3,50.8 489.1,50.2 490.8,49.8 492.6,49.0 494.4,47.9 496.1,47.1 497.9,46.8 499.6,46.4 501.4,46.1 503.2,45.5 504.9,44.9 506.7,44.3 508.4,44.0 510.2,43.5 512.0,43.2 513.7,42.8 515.5,42.5 517.2,42.2 519.0,42.0 520.7,41.4 522.5,41.0 524.3,40.5 526.0,39.8 527.8,39.4 529.5,39.1 531.3,38.9 533.1,38.7 534.8,38.2 536.6,37.8 538.3,37.4 540.1,36.4 541.9,35.6 543.6,35.2 545.4,35.0 547.1,34.6 548.9,34.1 550.7,33.6 552.4,33.0 554.2,32.6 555.9,32.2 557.7,31.9 559.4,31.4 561.2,31.1 563.0,30.9 564.7,30.7 566.5,30.5 568.2,30.2 570.0,30.0 570.0,30.0,120" />
  
  <!-- Linea principale -->
  <polyline fill="none" stroke="#0366d6" stroke-width="2.5" stroke-linecap="round" stroke-linejoin="round" points="30.0,120.0 31.8,119.4 33.5,118.7 35.3,118.1 37.0,118.0 38.8,117.7 40.6,116.9 42.3,116.5 44.1,116.1 45.8,115.4 47.6,115.0 49.3,114.7 51.1,114.4 52.9,114.1 54.6,113.6 56.4,113.1 58.1,112.7 59.9,112.4 61.7,112.2 63.4,111.9 65.2,111.5 66.9,111.1 68.7,111.0 70.5,110.6 72.2,109.5 74.0,109.1 75.7,108.7 77.5,108.2 79.3,107.8 81.0,107.4 82.8,107.2 84.5,107.0 86.3,106.7 88.0,106.1 89.8,105.6 91.6,105.3 93.3,104.9 95.1,104.8 96.8,104.7 98.6,104.5 100.4,104.1 102.1,103.9 103.9,103.7 105.6,103.3 107.4,102.7 109.2,102.5 110.9,102.4 112.7,102.1 114.4,101.7 116.2,101.3 117.9,100.8 119.7,100.4 121.5,100.0 123.2,99.9 125.0,99.6 126.7,99.1 128.5,98.7 130.3,98.3 132.0,98.2 133.8,97.9 135.5,97.7 137.3,97.2 139.1,96.7 140.8,96.3 142.6,95.8 144.3,95.6 146.1,95.5 147.9,95.3 149.6,94.9 151.4,94.7 153.1,94.5 154.9,94.3 156.6,94.2 158.4,93.9 160.2,93.8 161.9,93.6 163.7,93.5 165.4,93.0 167.2,92.8 169.0,92.7 170.7,92.5 172.5,92.4 174.2,92.4 176.0,100.3 177.8,99.5 179.5,98.8 181.3,98.1 183.0,96.0 184.8,94.5 186.5,92.9 188.3,92.3 190.1,91.6 191.8,90.5 193.6,89.3 195.3,88.4 197.1,88.1 198.9,87.7 200.6,86.9 202.4,86.2 204.1,85.8 205.9,85.3 207.7,85.1 209.4,85.0 211.2,84.6 212.9,83.8 214.7,83.3 216.4,82.8 218.2,82.2 220.0,81.9 221.7,81.7 223.5,81.2 225.2,80.7 227.0,80.3 228.8,80.0 230.5,79.8 232.3,79.7 234.0,79.4 235.8,79.0 237.6,78.7 239.3,78.5 241.1,78.2 242.8,78.0 244.6,77.8 246.4,77.6 248.1,77.4 249.9,77.2 251.6,76.8 253.4,76.5 255.1,76.1 256.9,75.9 258.7,75.7 260.4,75.5 262.2,75.4 263.9,75.2 265.7,74.6 267.5,74.2 269.2,73.7 271.0,73.5 272.7,73.5 274.5,73.3 276.3,73.0 278.0,72.7 279.8,72.5 281.5,72.1 283.3,71.9 285.0,71.8 286.8,71.6 288.6,71.4 290.3,71.3 292.1,71.0 293.8,70.8 295.6,70.5 297.4,70.3 299.1,70.2 300.9,70.1 302.6,70.0 304.4,69.7 306.2,69.4 307.9,69.2 309.7,68.9 311.4,68.7 313.2,68.5 315.0,68.4 316.7,68.2 318.5,67.8 320.2,67.5 322.0,67.3 323.7,67.0 325.5,66.6 327.3,66.5 329.0,66.4 330.8,66.2 332.5,66.0 334.3,65.8 336.1,65.6 337.8,65.4 339.6,65.2 341.3,65.1 343.1,64.9 344.9,64.7 346.6,64.6 348.4,64.4 350.1,64.1 351.9,64.0 353.6,63.7 355.4,63.6 357.2,63.4 358.9,63.2 360.7,63.1 362.4,63.0 364.2,62.8 366.0,62.4 367.7,62.1 369.5,61.8 371.2,61.6 373.0,61.6 374.8,61.5 376.5,61.2 378.3,60.9 380.0,60.8 381.8,60.7 383.6,60.4 385.3,60.3 387.1,60.0 388.8,59.9 390.6,59.8 392.3,59.5 394.1,59.3 395.9,59.0 397.6,58.8 399.4,58.7 401.1,58.6 402.9,58.5 404.7,58.3 406.4,58.1 408.2,57.9 409.9,57.8 411.7,57.5 413.5,57.4 415.2,57.3 417.0,57.1 418.7,57.0 420.5,56.7 422.2,56.4 424.0,56.2 425.8,56.0 427.5,55.9 429.3,55.8 431.0,55.7 432.8,55.6 434.6,55.5 436.3,55.3 438.1,55.0 439.8,54.8 441.6,54.7 443.4,54.5 445.1,54.4 446.9,54.2 448.6,54.0 450.4,53.9 452.1,53.7 453.9,53.6 455.7,53.3 457.4,53.2 459.2,53.0 460.9,52.9 462.7,52.8 464.5,52.6 466.2,52.5 468.0,52.3 469.7,52.2 471.5,52.1 473.3,52.0 475.0,51.6 476.8,51.4 478.5,56.5 480.3,55.5 482.1,53.6 483.8,52.8 485.6,51.9 487.3,50.8 489.1,50.2 490.8,49.8 492.6,49.0 494.4,47.9 496.1,47.1 497.9,46.8 499.6,46.4 501.4,46.1 503.2,45.5 504.9,44.9 506.7,44.3 508.4,44.0 510.2,43.5 512.0,43.2 513.7,42.8 515.5,42.5 517.2,42.2 519.0,42.0 520.7,41.4 522.5,41.0 524.3,40.5 526.0,39.8 527.8,39.4 529.5,39.1 531.3,38.9 533.1,38.7 534.8,38.2 536.6,37.8 538.3,37.4 540.1,36.4 541.9,35.6 543.6,35.2 545.4,35.0 547.1,34.6 548.9,34.1 550.7,33.6 552.4,33.0 554.2,32.6 555.9,32.2 557.7,31.9 559.4,31.4 561.2,31.1 563.0,30.9 564.7,30.7 566.5,30.5 568.2,30.2 570.0,30.0" />
  
  <!-- Punto finale luminoso -->
  <circle cx="570.0" cy="30.0" r="4" fill="#ffffff" stroke="#0366d6" stroke-width="2.5" />
</svg>