<svg width="600" height="150" viewBox="0 0 600 150" xmlns="http://www.w3.org/2000/svg">
  <defs>
    <filter id="shadow2" x="-2%" y="-2%" width="104%" height="108%">
      <feDropShadow dx="0" dy="2" stdDeviation="3" flood-opacity="0.1" />
    </filter>
    <linearGradient id="fillGrad" x1="0" y1="0" x2="0" y2="1">
      <stop offset="0%" stop-color="#0366d6" stop-opacity="0.3"/>
      <stop offset="100%" stop-color="#0366d6" stop-opacity="0.02"/>
    </linearGradient>
  </defs>
  <rect width="600" height="150" rx="12" fill="#ffffff" filter="url(#shadow2)" stroke="#e1e4e8" stroke-width="1"/>
  <text x="20" y="24" fill="#2b3137" font-family="-apple-system,BlinkMacSystemFont,'Segoe UI',Helvetica,Arial,sans-serif" font-size="14" font-weight="600">📈 Download Growth (Actual: 85.2k)</text>
  
  <!-- Area sotto la linea -->
  <polygon fill="url(#fillGrad)" points="30.0,120.0,120 30.0,120.0 31.5,119.5 33.0,118.9 34.5,118.3 36.0,118.2 37.5,117.9 39.0,117.3 40.5,116.9 42.0,116.6 43.5,115.9 45.0,115.6 46.5,115.3 48.0,115.1 49.5,114.8 51.0,114.3 52.5,113.9 54.0,113.5 55.5,113.3 57.0,113.1 58.5,112.8 60.0,112.4 61.5,112.1 63.0,112.0 64.5,111.7 66.0,110.7 67.5,110.3 69.0,109.9 70.5,109.5 72.0,109.2 73.5,108.8 75.0,108.6 76.5,108.4 78.0,108.1 79.5,107.6 81.0,107.2 82.5,106.9 84.0,106.6 85.5,106.5 87.0,106.4 88.5,106.2 90.0,105.9 91.5,105.7 93.0,105.5 94.5,105.2 96.0,104.6 97.5,104.5 99.0,104.4 100.5,104.1 102.0,103.7 103.5,103.4 105.0,103.0 106.5,102.6 108.0,102.2 109.5,102.1 111.0,101.9 112.5,101.5 114.0,101.1 115.5,100.7 117.0,100.6 118.5,100.4 120.0,100.2 121.5,99.7 123.0,99.3 124.5,98.9 126.0,98.5 127.5,98.3 129.0,98.2 130.5,98.1 132.0,97.7 133.5,97.5 135.0,97.3 136.5,97.2 138.0,97.1 139.5,96.8 141.0,96.7 142.5,96.6 144.0,96.5 145.5,96.1 147.0,95.8 148.5,95.7 150.0,95.6 151.5,95.5 153.0,95.5 154.5,102.5 156.0,101.8 157.5,101.2 159.0,100.6 160.5,98.6 162.0,97.3 163.5,95.9 165.0,95.4 166.5,94.8 168.0,93.8 169.5,92.7 171.0,91.9 172.5,91.6 174.0,91.3 175.5,90.6 177.0,90.0 178.5,89.7 180.0,89.2 181.5,89.0 183.0,88.9 184.5,88.5 186.0,87.9 187.5,87.4 189.0,86.9 190.5,86.4 192.0,86.2 193.5,86.0 195.0,85.5 196.5,85.1 198.0,84.7 199.5,84.4 201.0,84.3 202.5,84.2 204.0,83.9 205.5,83.6 207.0,83.4 208.5,83.1 210.0,82.9 211.5,82.7 213.0,82.5 214.5,82.3 216.0,82.2 217.5,82.0 219.0,81.6 220.5,81.3 222.0,81.0 223.5,80.8 225.0,80.6 226.5,80.5 228.0,80.3 229.5,80.2 231.0,79.7 232.5,79.3 234.0,78.9 235.5,78.7 237.0,78.7 238.5,78.5 240.0,78.3 241.5,78.0 243.0,77.8 244.5,77.5 246.0,77.3 247.5,77.2 249.0,77.0 250.5,76.9 252.0,76.7 253.5,76.5 255.0,76.3 256.5,76.0 258.0,75.9 259.5,75.8 261.0,75.6 262.5,75.6 264.0,75.3 265.5,75.1 267.0,74.8 268.5,74.6 270.0,74.4 271.5,74.2 273.0,74.1 274.5,74.0 276.0,73.7 277.5,73.4 279.0,73.2 280.5,72.9 282.0,72.6 283.5,72.5 285.0,72.4 286.5,72.2 288.0,72.1 289.5,71.9 291.0,71.7 292.5,71.5 294.0,71.3 295.5,71.2 297.0,71.0 298.5,70.9 300.0,70.8 301.5,70.6 303.0,70.3 304.5,70.2 306.0,70.0 307.5,69.9 309.0,69.7 310.5,69.6 312.0,69.5 313.5,69.3 315.0,69.2 316.5,68.9 318.0,68.5 319.5,68.3 321.0,68.2 322.5,68.1 324.0,68.0 325.5,67.8 327.0,67.5 328.5,67.4 330.0,67.3 331.5,67.1 333.0,66.9 334.5,66.7 336.0,66.6 337.5,66.5 339.0,66.2 340.5,66.1 342.0,65.8 343.5,65.6 345.0,65.5 346.5,65.4 348.0,65.4 349.5,65.2 351.0,65.1 352.5,64.9 354.0,64.7 355.5,64.5 357.0,64.4 358.5,64.3 360.0,64.1 361.5,64.0 363.0,63.8 364.5,63.5 366.0,63.4 367.5,63.2 369.0,63.1 370.5,63.0 372.0,62.9 373.5,62.8 375.0,62.7 376.5,62.5 378.0,62.3 379.5,62.1 381.0,62.0 382.5,61.9 384.0,61.7 385.5,61.6 387.0,61.4 388.5,61.2 390.0,61.1 391.5,61.0 393.0,60.8 394.5,60.6 396.0,60.5 397.5,60.4 399.0,60.3 400.5,60.2 402.0,60.0 403.5,59.9 405.0,59.8 406.5,59.7 408.0,59.6 409.5,59.3 411.0,59.0 412.5,63.6 414.0,62.7 415.5,61.0 417.0,60.3 418.5,59.5 420.0,58.5 421.5,58.0 423.0,57.6 424.5,57.0 426.0,56.0 427.5,55.2 429.0,55.0 430.5,54.6 432.0,54.3 433.5,53.8 435.0,53.3 436.5,52.8 438.0,52.5 439.5,52.0 441.0,51.7 442.5,51.4 444.0,51.2 445.5,50.9 447.0,50.7 448.5,50.2 450.0,49.8 451.5,49.4 453.0,48.7 454.5,48.4 456.0,48.2 457.5,48.0 459.0,47.7 460.5,47.3 462.0,47.0 463.5,46.7 465.0,45.7 466.5,45.0 468.0,44.7 469.5,44.5 471.0,44.2 472.5,43.7 474.0,43.3 475.5,42.7 477.0,42.4 478.5,42.0 480.0,41.7 481.5,41.3 483.0,41.0 484.5,40.9 486.0,40.7 487.5,40.5 489.0,40.2 490.5,40.1 492.0,39.8 493.5,39.6 495.0,39.4 496.5,39.1 498.0,39.0 499.5,38.7 501.0,38.5 502.5,38.3 504.0,38.2 505.5,38.1 507.0,37.9 508.5,37.7 510.0,37.6 511.5,37.4 513.0,37.3 514.5,37.1 516.0,36.8 517.5,36.6 519.0,36.5 520.5,36.3 522.0,36.2 523.5,36.0 525.0,35.9 526.5,35.7 528.0,35.6 529.5,35.5 531.0,35.3 532.5,35.1 534.0,35.0 535.5,34.7 537.0,34.5 538.5,34.3 540.0,34.1 541.5,33.9 543.0,33.7 544.5,33.4 546.0,33.2 547.5,33.0 549.0,32.7 550.5,32.5 552.0,32.2 553.5,32.0 555.0,31.7 556.5,31.6 558.0,31.5 559.5,31.4 561.0,31.2 562.5,31.0 564.0,30.8 565.5,30.7 567.0,30.5 568.5,30.2 570.0,30.0 570.0,30.0,120" />
  
  <!-- Linea principale -->
  <polyline fill="none" stroke="#0366d6" stroke-width="2.5" stroke-linecap="round" stroke-linejoin="round" points="30.0,120.0 31.5,119.5 33.0,118.9 34.5,118.3 36.0,118.2 37.5,117.9 39.0,117.3 40.5,116.9 42.0,116.6 43.5,115.9 45.0,115.6 46.5,115.3 48.0,115.1 49.5,114.8 51.0,114.3 52.5,113.9 54.0,113.5 55.5,113.3 57.0,113.1 58.5,112.8 60.0,112.4 61.5,112.1 63.0,112.0 64.5,111.7 66.0,110.7 67.5,110.3 69.0,109.9 70.5,109.5 72.0,109.2 73.5,108.8 75.0,108.6 76.5,108.4 78.0,108.1 79.5,107.6 81.0,107.2 82.5,106.9 84.0,106.6 85.5,106.5 87.0,106.4 88.5,106.2 90.0,105.9 91.5,105.7 93.0,105.5 94.5,105.2 96.0,104.6 97.5,104.5 99.0,104.4 100.5,104.1 102.0,103.7 103.5,103.4 105.0,103.0 106.5,102.6 108.0,102.2 109.5,102.1 111.0,101.9 112.5,101.5 114.0,101.1 115.5,100.7 117.0,100.6 118.5,100.4 120.0,100.2 121.5,99.7 123.0,99.3 124.5,98.9 126.0,98.5 127.5,98.3 129.0,98.2 130.5,98.1 132.0,97.7 133.5,97.5 135.0,97.3 136.5,97.2 138.0,97.1 139.5,96.8 141.0,96.7 142.5,96.6 144.0,96.5 145.5,96.1 147.0,95.8 148.5,95.7 150.0,95.6 151.5,95.5 153.0,95.5 154.5,102.5 156.0,101.8 157.5,101.2 159.0,100.6 160.5,98.6 162.0,97.3 163.5,95.9 165.0,95.4 166.5,94.8 168.0,93.8 169.5,92.7 171.0,91.9 172.5,91.6 174.0,91.3 175.5,90.6 177.0,90.0 178.5,89.7 180.0,89.2 181.5,89.0 183.0,88.9 184.5,88.5 186.0,87.9 187.5,87.4 189.0,86.9 190.5,86.4 192.0,86.2 193.5,86.0 195.0,85.5 196.5,85.1 198.0,84.7 199.5,84.4 201.0,84.3 202.5,84.2 204.0,83.9 205.5,83.6 207.0,83.4 208.5,83.1 210.0,82.9 211.5,82.7 213.0,82.5 214.5,82.3 216.0,82.2 217.5,82.0 219.0,81.6 220.5,81.3 222.0,81.0 223.5,80.8 225.0,80.6 226.5,80.5 228.0,80.3 229.5,80.2 231.0,79.7 232.5,79.3 234.0,78.9 235.5,78.7 237.0,78.7 238.5,78.5 240.0,78.3 241.5,78.0 243.0,77.8 244.5,77.5 246.0,77.3 247.5,77.2 249.0,77.0 250.5,76.9 252.0,76.7 253.5,76.5 255.0,76.3 256.5,76.0 258.0,75.9 259.5,75.8 261.0,75.6 262.5,75.6 264.0,75.3 265.5,75.1 267.0,74.8 268.5,74.6 270.0,74.4 271.5,74.2 273.0,74.1 274.5,74.0 276.0,73.7 277.5,73.4 279.0,73.2 280.5,72.9 282.0,72.6 283.5,72.5 285.0,72.4 286.5,72.2 288.0,72.1 289.5,71.9 291.0,71.7 292.5,71.5 294.0,71.3 295.5,71.2 297.0,71.0 298.5,70.9 300.0,70.8 301.5,70.6 303.0,70.3 304.5,70.2 306.0,70.0 307.5,69.9 309.0,69.7 310.5,69.6 312.0,69.5 313.5,69.3 315.0,69.2 316.5,68.9 318.0,68.5 319.5,68.3 321.0,68.2 322.5,68.1 324.0,68.0 325.5,67.8 327.0,67.5 328.5,67.4 330.0,67.3 331.5,67.1 333.0,66.9 334.5,66.7 336.0,66.6 337.5,66.5 339.0,66.2 340.5,66.1 342.0,65.8 343.5,65.6 345.0,65.5 346.5,65.4 348.0,65.4 349.5,65.2 351.0,65.1 352.5,64.9 354.0,64.7 355.5,64.5 357.0,64.4 358.5,64.3 360.0,64.1 361.5,64.0 363.0,63.8 364.5,63.5 366.0,63.4 367.5,63.2 369.0,63.1 370.5,63.0 372.0,62.9 373.5,62.8 375.0,62.7 376.5,62.5 378.0,62.3 379.5,62.1 381.0,62.0 382.5,61.9 384.0,61.7 385.5,61.6 387.0,61.4 388.5,61.2 390.0,61.1 391.5,61.0 393.0,60.8 394.5,60.6 396.0,60.5 397.5,60.4 399.0,60.3 400.5,60.2 402.0,60.0 403.5,59.9 405.0,59.8 406.5,59.7 408.0,59.6 409.5,59.3 411.0,59.0 412.5,63.6 414.0,62.7 415.5,61.0 417.0,60.3 418.5,59.5 420.0,58.5 421.5,58.0 423.0,57.6 424.5,57.0 426.0,56.0 427.5,55.2 429.0,55.0 430.5,54.6 432.0,54.3 433.5,53.8 435.0,53.3 436.5,52.8 438.0,52.5 439.5,52.0 441.0,51.7 442.5,51.4 444.0,51.2 445.5,50.9 447.0,50.7 448.5,50.2 450.0,49.8 451.5,49.4 453.0,48.7 454.5,48.4 456.0,48.2 457.5,48.0 459.0,47.7 460.5,47.3 462.0,47.0 463.5,46.7 465.0,45.7 466.5,45.0 468.0,44.7 469.5,44.5 471.0,44.2 472.5,43.7 474.0,43.3 475.5,42.7 477.0,42.4 478.5,42.0 480.0,41.7 481.5,41.3 483.0,41.0 484.5,40.9 486.0,40.7 487.5,40.5 489.0,40.2 490.5,40.1 492.0,39.8 493.5,39.6 495.0,39.4 496.5,39.1 498.0,39.0 499.5,38.7 501.0,38.5 502.5,38.3 504.0,38.2 505.5,38.1 507.0,37.9 508.5,37.7 510.0,37.6 511.5,37.4 513.0,37.3 514.5,37.1 516.0,36.8 517.5,36.6 519.0,36.5 520.5,36.3 522.0,36.2 523.5,36.0 525.0,35.9 526.5,35.7 528.0,35.6 529.5,35.5 531.0,35.3 532.5,35.1 534.0,35.0 535.5,34.7 537.0,34.5 538.5,34.3 540.0,34.1 541.5,33.9 543.0,33.7 544.5,33.4 546.0,33.2 547.5,33.0 549.0,32.7 550.5,32.5 552.0,32.2 553.5,32.0 555.0,31.7 556.5,31.6 558.0,31.5 559.5,31.4 561.0,31.2 562.5,31.0 564.0,30.8 565.5,30.7 567.0,30.5 568.5,30.2 570.0,30.0" />
  
  <!-- Punto finale luminoso -->
  <circle cx="570.0" cy="30.0" r="4" fill="#ffffff" stroke="#0366d6" stroke-width="2.5" />
</svg>