<svg width="600" height="150" viewBox="0 0 600 150" xmlns="http://www.w3.org/2000/svg">
  <defs>
    <filter id="shadow2" x="-2%" y="-2%" width="104%" height="108%">
      <feDropShadow dx="0" dy="2" stdDeviation="3" flood-opacity="0.1" />
    </filter>
    <linearGradient id="fillGrad" x1="0" y1="0" x2="0" y2="1">
      <stop offset="0%" stop-color="#0366d6" stop-opacity="0.3"/>
      <stop offset="100%" stop-color="#0366d6" stop-opacity="0.02"/>
    </linearGradient>
  </defs>
  <rect width="600" height="150" rx="12" fill="#ffffff" filter="url(#shadow2)" stroke="#e1e4e8" stroke-width="1"/>
  <text x="20" y="24" fill="#2b3137" font-family="-apple-system,BlinkMacSystemFont,'Segoe UI',Helvetica,Arial,sans-serif" font-size="14" font-weight="600">📈 Download Growth (Actual: 86.6k)</text>
  
  <!-- Area sotto la linea -->
  <polygon fill="url(#fillGrad)" points="30.0,120.0,120 30.0,120.0 31.4,119.5 32.7,118.9 34.1,118.4 35.4,118.3 36.8,118.1 38.1,117.5 39.5,117.1 40.9,116.8 42.2,116.2 43.6,115.9 44.9,115.6 46.3,115.4 47.6,115.1 49.0,114.7 50.4,114.3 51.7,113.9 53.1,113.7 54.4,113.5 55.8,113.3 57.1,112.9 58.5,112.7 59.8,112.5 61.2,112.3 62.6,111.3 63.9,111.0 65.3,110.6 66.6,110.2 68.0,109.9 69.3,109.6 70.7,109.4 72.1,109.2 73.4,108.9 74.8,108.5 76.1,108.1 77.5,107.8 78.8,107.5 80.2,107.4 81.6,107.3 82.9,107.1 84.3,106.8 85.6,106.6 87.0,106.5 88.3,106.2 89.7,105.6 91.1,105.5 92.4,105.4 93.8,105.2 95.1,104.8 96.5,104.5 97.8,104.1 99.2,103.8 100.6,103.4 101.9,103.3 103.3,103.1 104.6,102.7 106.0,102.3 107.3,102.0 108.7,101.9 110.1,101.7 111.4,101.5 112.8,101.1 114.1,100.7 115.5,100.3 116.8,100.0 118.2,99.8 119.5,99.7 120.9,99.5 122.3,99.2 123.6,99.0 125.0,98.9 126.3,98.7 127.7,98.6 129.0,98.4 130.4,98.3 131.8,98.2 133.1,98.1 134.5,97.7 135.8,97.4 137.2,97.4 138.5,97.2 139.9,97.2 141.3,97.2 142.6,103.7 144.0,103.0 145.3,102.5 146.7,101.9 148.0,100.1 149.4,98.8 150.8,97.5 152.1,97.0 153.5,96.5 154.8,95.5 156.2,94.5 157.5,93.8 158.9,93.5 160.3,93.3 161.6,92.6 163.0,92.0 164.3,91.7 165.7,91.3 167.0,91.1 168.4,91.0 169.7,90.7 171.1,90.0 172.5,89.6 173.8,89.2 175.2,88.7 176.5,88.4 177.9,88.3 179.2,87.9 180.6,87.5 182.0,87.1 183.3,86.8 184.7,86.7 186.0,86.6 187.4,86.4 188.7,86.1 190.1,85.8 191.5,85.6 192.8,85.4 194.2,85.2 195.5,85.0 196.9,84.8 198.2,84.7 199.6,84.5 201.0,84.2 202.3,83.9 203.7,83.7 205.0,83.5 206.4,83.3 207.7,83.2 209.1,83.0 210.5,82.9 211.8,82.4 213.2,82.1 214.5,81.7 215.9,81.5 217.2,81.5 218.6,81.3 219.9,81.1 221.3,80.8 222.7,80.6 224.0,80.3 225.4,80.1 226.7,80.0 228.1,79.9 229.4,79.8 230.8,79.6 232.2,79.4 233.5,79.3 234.9,79.0 236.2,78.9 237.6,78.8 238.9,78.6 240.3,78.5 241.7,78.3 243.0,78.1 244.4,77.9 245.7,77.7 247.1,77.5 248.4,77.3 249.8,77.2 251.2,77.1 252.5,76.8 253.9,76.5 255.2,76.3 256.6,76.1 257.9,75.8 259.3,75.7 260.7,75.6 262.0,75.5 263.4,75.3 264.7,75.1 266.1,74.9 267.4,74.8 268.8,74.6 270.2,74.5 271.5,74.3 272.9,74.2 274.2,74.1 275.6,73.9 276.9,73.7 278.3,73.6 279.6,73.4 281.0,73.3 282.4,73.1 283.7,73.0 285.1,72.9 286.4,72.7 287.8,72.6 289.1,72.3 290.5,72.0 291.9,71.8 293.2,71.6 294.6,71.6 295.9,71.5 297.3,71.3 298.6,71.1 300.0,70.9 301.4,70.8 302.7,70.6 304.1,70.5 305.4,70.3 306.8,70.2 308.1,70.1 309.5,69.9 310.9,69.7 312.2,69.5 313.6,69.3 314.9,69.2 316.3,69.1 317.6,69.1 319.0,68.9 320.4,68.8 321.7,68.6 323.1,68.4 324.4,68.3 325.8,68.1 327.1,68.0 328.5,67.9 329.8,67.8 331.2,67.6 332.6,67.3 333.9,67.2 335.3,67.0 336.6,66.9 338.0,66.8 339.3,66.7 340.7,66.6 342.1,66.5 343.4,66.4 344.8,66.2 346.1,66.0 347.5,65.9 348.8,65.8 350.2,65.6 351.6,65.5 352.9,65.3 354.3,65.2 355.6,65.1 357.0,64.9 358.3,64.8 359.7,64.6 361.1,64.5 362.4,64.4 363.8,64.3 365.1,64.2 366.5,64.1 367.8,63.9 369.2,63.8 370.6,63.8 371.9,63.7 373.3,63.3 374.6,63.1 376.0,67.4 377.3,66.6 378.7,65.0 380.1,64.3 381.4,63.6 382.8,62.7 384.1,62.2 385.5,61.8 386.8,61.2 388.2,60.3 389.5,59.6 390.9,59.4 392.3,59.0 393.6,58.8 395.0,58.3 396.3,57.8 397.7,57.3 399.0,57.1 400.4,56.6 401.8,56.3 403.1,56.0 404.5,55.8 405.8,55.6 407.2,55.3 408.5,54.9 409.9,54.6 411.3,54.1 412.6,53.5 414.0,53.2 415.3,53.0 416.7,52.8 418.0,52.6 419.4,52.2 420.8,51.9 422.1,51.6 423.5,50.7 424.8,50.1 426.2,49.7 427.5,49.6 428.9,49.3 430.3,48.8 431.6,48.4 433.0,47.9 434.3,47.6 435.7,47.3 437.0,47.0 438.4,46.6 439.7,46.4 441.1,46.2 442.5,46.0 443.8,45.9 445.2,45.6 446.5,45.4 447.9,45.2 449.2,45.0 450.6,44.8 452.0,44.6 453.3,44.4 454.7,44.2 456.0,44.0 457.4,43.8 458.7,43.7 460.1,43.6 461.5,43.4 462.8,43.3 464.2,43.2 465.5,43.0 466.9,42.8 468.2,42.6 469.6,42.4 471.0,42.3 472.3,42.1 473.7,41.9 475.0,41.8 476.4,41.7 477.7,41.6 479.1,41.4 480.5,41.3 481.8,41.2 483.2,41.0 484.5,40.8 485.9,40.7 487.2,40.4 488.6,40.2 489.9,40.1 491.3,39.9 492.7,39.7 494.0,39.5 495.4,39.2 496.7,39.0 498.1,38.8 499.4,38.6 500.8,38.4 502.2,38.1 503.5,37.9 504.9,37.7 506.2,37.6 507.6,37.4 508.9,37.3 510.3,37.2 511.7,37.0 513.0,36.8 514.4,36.7 515.7,36.5 517.1,36.3 518.4,36.1 519.8,35.8 521.2,35.6 522.5,35.3 523.9,35.2 525.2,35.0 526.6,34.9 527.9,34.8 529.3,34.6 530.7,34.5 532.0,34.3 533.4,34.1 534.7,33.8 536.1,33.7 537.4,33.5 538.8,33.4 540.2,33.3 541.5,33.2 542.9,33.1 544.2,33.0 545.6,32.8 546.9,32.7 548.3,32.5 549.6,32.4 551.0,32.2 552.4,32.0 553.7,31.9 555.1,31.7 556.4,31.6 557.8,31.5 559.1,31.4 560.5,31.2 561.9,31.1 563.2,30.9 564.6,30.6 565.9,30.5 567.3,30.2 568.6,30.1 570.0,30.0 570.0,30.0,120" />
  
  <!-- Linea principale -->
  <polyline fill="none" stroke="#0366d6" stroke-width="2.5" stroke-linecap="round" stroke-linejoin="round" points="30.0,120.0 31.4,119.5 32.7,118.9 34.1,118.4 35.4,118.3 36.8,118.1 38.1,117.5 39.5,117.1 40.9,116.8 42.2,116.2 43.6,115.9 44.9,115.6 46.3,115.4 47.6,115.1 49.0,114.7 50.4,114.3 51.7,113.9 53.1,113.7 54.4,113.5 55.8,113.3 57.1,112.9 58.5,112.7 59.8,112.5 61.2,112.3 62.6,111.3 63.9,111.0 65.3,110.6 66.6,110.2 68.0,109.9 69.3,109.6 70.7,109.4 72.1,109.2 73.4,108.9 74.8,108.5 76.1,108.1 77.5,107.8 78.8,107.5 80.2,107.4 81.6,107.3 82.9,107.1 84.3,106.8 85.6,106.6 87.0,106.5 88.3,106.2 89.7,105.6 91.1,105.5 92.4,105.4 93.8,105.2 95.1,104.8 96.5,104.5 97.8,104.1 99.2,103.8 100.6,103.4 101.9,103.3 103.3,103.1 104.6,102.7 106.0,102.3 107.3,102.0 108.7,101.9 110.1,101.7 111.4,101.5 112.8,101.1 114.1,100.7 115.5,100.3 116.8,100.0 118.2,99.8 119.5,99.7 120.9,99.5 122.3,99.2 123.6,99.0 125.0,98.9 126.3,98.7 127.7,98.6 129.0,98.4 130.4,98.3 131.8,98.2 133.1,98.1 134.5,97.7 135.8,97.4 137.2,97.4 138.5,97.2 139.9,97.2 141.3,97.2 142.6,103.7 144.0,103.0 145.3,102.5 146.7,101.9 148.0,100.1 149.4,98.8 150.8,97.5 152.1,97.0 153.5,96.5 154.8,95.5 156.2,94.5 157.5,93.8 158.9,93.5 160.3,93.3 161.6,92.6 163.0,92.0 164.3,91.7 165.7,91.3 167.0,91.1 168.4,91.0 169.7,90.7 171.1,90.0 172.5,89.6 173.8,89.2 175.2,88.7 176.5,88.4 177.9,88.3 179.2,87.9 180.6,87.5 182.0,87.1 183.3,86.8 184.7,86.7 186.0,86.6 187.4,86.4 188.7,86.1 190.1,85.8 191.5,85.6 192.8,85.4 194.2,85.2 195.5,85.0 196.9,84.8 198.2,84.7 199.6,84.5 201.0,84.2 202.3,83.9 203.7,83.7 205.0,83.5 206.4,83.3 207.7,83.2 209.1,83.0 210.5,82.9 211.8,82.4 213.2,82.1 214.5,81.7 215.9,81.5 217.2,81.5 218.6,81.3 219.9,81.1 221.3,80.8 222.7,80.6 224.0,80.3 225.4,80.1 226.7,80.0 228.1,79.9 229.4,79.8 230.8,79.6 232.2,79.4 233.5,79.3 234.9,79.0 236.2,78.9 237.6,78.8 238.9,78.6 240.3,78.5 241.7,78.3 243.0,78.1 244.4,77.9 245.7,77.7 247.1,77.5 248.4,77.3 249.8,77.2 251.2,77.1 252.5,76.8 253.9,76.5 255.2,76.3 256.6,76.1 257.9,75.8 259.3,75.7 260.7,75.6 262.0,75.5 263.4,75.3 264.7,75.1 266.1,74.9 267.4,74.8 268.8,74.6 270.2,74.5 271.5,74.3 272.9,74.2 274.2,74.1 275.6,73.9 276.9,73.7 278.3,73.6 279.6,73.4 281.0,73.3 282.4,73.1 283.7,73.0 285.1,72.9 286.4,72.7 287.8,72.6 289.1,72.3 290.5,72.0 291.9,71.8 293.2,71.6 294.6,71.6 295.9,71.5 297.3,71.3 298.6,71.1 300.0,70.9 301.4,70.8 302.7,70.6 304.1,70.5 305.4,70.3 306.8,70.2 308.1,70.1 309.5,69.9 310.9,69.7 312.2,69.5 313.6,69.3 314.9,69.2 316.3,69.1 317.6,69.1 319.0,68.9 320.4,68.8 321.7,68.6 323.1,68.4 324.4,68.3 325.8,68.1 327.1,68.0 328.5,67.9 329.8,67.8 331.2,67.6 332.6,67.3 333.9,67.2 335.3,67.0 336.6,66.9 338.0,66.8 339.3,66.7 340.7,66.6 342.1,66.5 343.4,66.4 344.8,66.2 346.1,66.0 347.5,65.9 348.8,65.8 350.2,65.6 351.6,65.5 352.9,65.3 354.3,65.2 355.6,65.1 357.0,64.9 358.3,64.8 359.7,64.6 361.1,64.5 362.4,64.4 363.8,64.3 365.1,64.2 366.5,64.1 367.8,63.9 369.2,63.8 370.6,63.8 371.9,63.7 373.3,63.3 374.6,63.1 376.0,67.4 377.3,66.6 378.7,65.0 380.1,64.3 381.4,63.6 382.8,62.7 384.1,62.2 385.5,61.8 386.8,61.2 388.2,60.3 389.5,59.6 390.9,59.4 392.3,59.0 393.6,58.8 395.0,58.3 396.3,57.8 397.7,57.3 399.0,57.1 400.4,56.6 401.8,56.3 403.1,56.0 404.5,55.8 405.8,55.6 407.2,55.3 408.5,54.9 409.9,54.6 411.3,54.1 412.6,53.5 414.0,53.2 415.3,53.0 416.7,52.8 418.0,52.6 419.4,52.2 420.8,51.9 422.1,51.6 423.5,50.7 424.8,50.1 426.2,49.7 427.5,49.6 428.9,49.3 430.3,48.8 431.6,48.4 433.0,47.9 434.3,47.6 435.7,47.3 437.0,47.0 438.4,46.6 439.7,46.4 441.1,46.2 442.5,46.0 443.8,45.9 445.2,45.6 446.5,45.4 447.9,45.2 449.2,45.0 450.6,44.8 452.0,44.6 453.3,44.4 454.7,44.2 456.0,44.0 457.4,43.8 458.7,43.7 460.1,43.6 461.5,43.4 462.8,43.3 464.2,43.2 465.5,43.0 466.9,42.8 468.2,42.6 469.6,42.4 471.0,42.3 472.3,42.1 473.7,41.9 475.0,41.8 476.4,41.7 477.7,41.6 479.1,41.4 480.5,41.3 481.8,41.2 483.2,41.0 484.5,40.8 485.9,40.7 487.2,40.4 488.6,40.2 489.9,40.1 491.3,39.9 492.7,39.7 494.0,39.5 495.4,39.2 496.7,39.0 498.1,38.8 499.4,38.6 500.8,38.4 502.2,38.1 503.5,37.9 504.9,37.7 506.2,37.6 507.6,37.4 508.9,37.3 510.3,37.2 511.7,37.0 513.0,36.8 514.4,36.7 515.7,36.5 517.1,36.3 518.4,36.1 519.8,35.8 521.2,35.6 522.5,35.3 523.9,35.2 525.2,35.0 526.6,34.9 527.9,34.8 529.3,34.6 530.7,34.5 532.0,34.3 533.4,34.1 534.7,33.8 536.1,33.7 537.4,33.5 538.8,33.4 540.2,33.3 541.5,33.2 542.9,33.1 544.2,33.0 545.6,32.8 546.9,32.7 548.3,32.5 549.6,32.4 551.0,32.2 552.4,32.0 553.7,31.9 555.1,31.7 556.4,31.6 557.8,31.5 559.1,31.4 560.5,31.2 561.9,31.1 563.2,30.9 564.6,30.6 565.9,30.5 567.3,30.2 568.6,30.1 570.0,30.0" />
  
  <!-- Punto finale luminoso -->
  <circle cx="570.0" cy="30.0" r="4" fill="#ffffff" stroke="#0366d6" stroke-width="2.5" />
</svg>