<svg width="600" height="150" viewBox="0 0 600 150" xmlns="http://www.w3.org/2000/svg">
  <defs>
    <filter id="shadow2" x="-2%" y="-2%" width="104%" height="108%">
      <feDropShadow dx="0" dy="2" stdDeviation="3" flood-opacity="0.1" />
    </filter>
    <linearGradient id="fillGrad" x1="0" y1="0" x2="0" y2="1">
      <stop offset="0%" stop-color="#0366d6" stop-opacity="0.3"/>
      <stop offset="100%" stop-color="#0366d6" stop-opacity="0.02"/>
    </linearGradient>
  </defs>
  <rect width="600" height="150" rx="12" fill="#ffffff" filter="url(#shadow2)" stroke="#e1e4e8" stroke-width="1"/>
  <text x="20" y="24" fill="#2b3137" font-family="-apple-system,BlinkMacSystemFont,'Segoe UI',Helvetica,Arial,sans-serif" font-size="14" font-weight="600">📈 Download Growth (Actual: 85.2k)</text>
  
  <!-- Area sotto la linea -->
  <polygon fill="url(#fillGrad)" points="30.0,120.0,120 30.0,120.0 31.5,119.4 33.0,118.8 34.5,118.3 36.0,118.2 37.5,117.9 39.0,117.3 40.5,116.8 42.0,116.6 43.5,115.9 45.0,115.6 46.5,115.2 48.1,115.1 49.6,114.8 51.1,114.3 52.6,113.8 54.1,113.5 55.6,113.2 57.1,113.1 58.6,112.8 60.1,112.4 61.6,112.1 63.1,112.0 64.6,111.7 66.1,110.6 67.6,110.3 69.1,109.9 70.6,109.5 72.1,109.1 73.6,108.8 75.1,108.6 76.6,108.4 78.1,108.1 79.6,107.6 81.1,107.2 82.6,106.9 84.2,106.5 85.7,106.4 87.2,106.3 88.7,106.2 90.2,105.8 91.7,105.6 93.2,105.5 94.7,105.1 96.2,104.6 97.7,104.4 99.2,104.3 100.7,104.1 102.2,103.7 103.7,103.4 105.2,102.9 106.7,102.6 108.2,102.2 109.7,102.1 111.2,101.8 112.7,101.4 114.2,101.0 115.7,100.7 117.2,100.5 118.7,100.3 120.3,100.1 121.8,99.7 123.3,99.2 124.8,98.9 126.3,98.5 127.8,98.3 129.3,98.2 130.8,98.0 132.3,97.7 133.8,97.5 135.3,97.3 136.8,97.1 138.3,97.0 139.8,96.8 141.3,96.6 142.8,96.5 144.3,96.4 145.8,96.0 147.3,95.8 148.8,95.7 150.3,95.5 151.8,95.4 153.3,95.4 154.8,102.5 156.4,101.8 157.9,101.2 159.4,100.5 160.9,98.6 162.4,97.3 163.9,95.8 165.4,95.3 166.9,94.7 168.4,93.7 169.9,92.6 171.4,91.8 172.9,91.5 174.4,91.3 175.9,90.5 177.4,89.9 178.9,89.6 180.4,89.1 181.9,88.9 183.4,88.9 184.9,88.4 186.4,87.8 187.9,87.3 189.4,86.9 190.9,86.3 192.5,86.1 194.0,85.9 195.5,85.4 197.0,85.0 198.5,84.6 200.0,84.3 201.5,84.2 203.0,84.1 204.5,83.8 206.0,83.5 207.5,83.2 209.0,83.0 210.5,82.8 212.0,82.6 213.5,82.4 215.0,82.2 216.5,82.0 218.0,81.9 219.5,81.5 221.0,81.2 222.5,80.9 224.0,80.7 225.5,80.5 227.0,80.4 228.6,80.2 230.1,80.1 231.6,79.6 233.1,79.2 234.6,78.8 236.1,78.6 237.6,78.6 239.1,78.4 240.6,78.2 242.1,77.9 243.6,77.7 245.1,77.3 246.6,77.1 248.1,77.0 249.6,76.9 251.1,76.7 252.6,76.6 254.1,76.4 255.6,76.2 257.1,75.9 258.6,75.8 260.1,75.7 261.6,75.5 263.1,75.4 264.7,75.2 266.2,75.0 267.7,74.7 269.2,74.5 270.7,74.3 272.2,74.1 273.7,74.0 275.2,73.9 276.7,73.5 278.2,73.3 279.7,73.0 281.2,72.8 282.7,72.4 284.2,72.3 285.7,72.2 287.2,72.1 288.7,71.9 290.2,71.7 291.7,71.5 293.2,71.4 294.7,71.2 296.2,71.1 297.7,70.9 299.2,70.8 300.8,70.7 302.3,70.5 303.8,70.2 305.3,70.1 306.8,69.8 308.3,69.7 309.8,69.6 311.3,69.4 312.8,69.3 314.3,69.2 315.8,69.0 317.3,68.7 318.8,68.4 320.3,68.2 321.8,68.0 323.3,67.9 324.8,67.9 326.3,67.7 327.8,67.4 329.3,67.2 330.8,67.1 332.3,66.9 333.8,66.8 335.3,66.6 336.9,66.5 338.4,66.3 339.9,66.1 341.4,65.9 342.9,65.7 344.4,65.5 345.9,65.4 347.4,65.3 348.9,65.2 350.4,65.1 351.9,64.9 353.4,64.7 354.9,64.6 356.4,64.4 357.9,64.2 359.4,64.1 360.9,64.0 362.4,63.8 363.9,63.6 365.4,63.4 366.9,63.2 368.4,63.0 369.9,62.9 371.4,62.8 373.0,62.7 374.5,62.6 376.0,62.5 377.5,62.4 379.0,62.1 380.5,62.0 382.0,61.8 383.5,61.7 385.0,61.5 386.5,61.4 388.0,61.2 389.5,61.1 391.0,61.0 392.5,60.8 394.0,60.6 395.5,60.5 397.0,60.3 398.5,60.2 400.0,60.1 401.5,60.0 403.0,59.9 404.5,59.7 406.0,59.6 407.5,59.6 409.1,59.4 410.6,59.1 412.1,58.9 413.6,63.4 415.1,62.5 416.6,60.8 418.1,60.2 419.6,59.4 421.1,58.4 422.6,57.8 424.1,57.5 425.6,56.8 427.1,55.8 428.6,55.1 430.1,54.8 431.6,54.5 433.1,54.1 434.6,53.6 436.1,53.1 437.6,52.6 439.1,52.3 440.6,51.8 442.1,51.6 443.6,51.2 445.2,51.0 446.7,50.7 448.2,50.5 449.7,50.0 451.2,49.6 452.7,49.2 454.2,48.6 455.7,48.2 457.2,48.0 458.7,47.8 460.2,47.5 461.7,47.1 463.2,46.8 464.7,46.5 466.2,45.5 467.7,44.8 469.2,44.5 470.7,44.3 472.2,44.0 473.7,43.5 475.2,43.1 476.7,42.5 478.2,42.2 479.7,41.8 481.3,41.5 482.8,41.1 484.3,40.8 485.8,40.7 487.3,40.5 488.8,40.3 490.3,40.0 491.8,39.8 493.3,39.6 494.8,39.4 496.3,39.2 497.8,38.9 499.3,38.7 500.8,38.5 502.3,38.3 503.8,38.1 505.3,38.0 506.8,37.8 508.3,37.7 509.8,37.5 511.3,37.4 512.8,37.2 514.3,37.0 515.8,36.8 517.4,36.6 518.9,36.4 520.4,36.3 521.9,36.1 523.4,35.9 524.9,35.8 526.4,35.7 527.9,35.5 529.4,35.3 530.9,35.3 532.4,35.1 533.9,34.9 535.4,34.7 536.9,34.5 538.4,34.2 539.9,34.1 541.4,33.8 542.9,33.6 544.4,33.4 545.9,33.2 547.4,33.0 548.9,32.7 550.4,32.5 551.9,32.2 553.5,32.0 555.0,31.7 556.5,31.5 558.0,31.4 559.5,31.2 561.0,31.1 562.5,31.0 564.0,30.8 565.5,30.6 567.0,30.4 568.5,30.2 570.0,30.0 570.0,30.0,120" />
  
  <!-- Linea principale -->
  <polyline fill="none" stroke="#0366d6" stroke-width="2.5" stroke-linecap="round" stroke-linejoin="round" points="30.0,120.0 31.5,119.4 33.0,118.8 34.5,118.3 36.0,118.2 37.5,117.9 39.0,117.3 40.5,116.8 42.0,116.6 43.5,115.9 45.0,115.6 46.5,115.2 48.1,115.1 49.6,114.8 51.1,114.3 52.6,113.8 54.1,113.5 55.6,113.2 57.1,113.1 58.6,112.8 60.1,112.4 61.6,112.1 63.1,112.0 64.6,111.7 66.1,110.6 67.6,110.3 69.1,109.9 70.6,109.5 72.1,109.1 73.6,108.8 75.1,108.6 76.6,108.4 78.1,108.1 79.6,107.6 81.1,107.2 82.6,106.9 84.2,106.5 85.7,106.4 87.2,106.3 88.7,106.2 90.2,105.8 91.7,105.6 93.2,105.5 94.7,105.1 96.2,104.6 97.7,104.4 99.2,104.3 100.7,104.1 102.2,103.7 103.7,103.4 105.2,102.9 106.7,102.6 108.2,102.2 109.7,102.1 111.2,101.8 112.7,101.4 114.2,101.0 115.7,100.7 117.2,100.5 118.7,100.3 120.3,100.1 121.8,99.7 123.3,99.2 124.8,98.9 126.3,98.5 127.8,98.3 129.3,98.2 130.8,98.0 132.3,97.7 133.8,97.5 135.3,97.3 136.8,97.1 138.3,97.0 139.8,96.8 141.3,96.6 142.8,96.5 144.3,96.4 145.8,96.0 147.3,95.8 148.8,95.7 150.3,95.5 151.8,95.4 153.3,95.4 154.8,102.5 156.4,101.8 157.9,101.2 159.4,100.5 160.9,98.6 162.4,97.3 163.9,95.8 165.4,95.3 166.9,94.7 168.4,93.7 169.9,92.6 171.4,91.8 172.9,91.5 174.4,91.3 175.9,90.5 177.4,89.9 178.9,89.6 180.4,89.1 181.9,88.9 183.4,88.9 184.9,88.4 186.4,87.8 187.9,87.3 189.4,86.9 190.9,86.3 192.5,86.1 194.0,85.9 195.5,85.4 197.0,85.0 198.5,84.6 200.0,84.3 201.5,84.2 203.0,84.1 204.5,83.8 206.0,83.5 207.5,83.2 209.0,83.0 210.5,82.8 212.0,82.6 213.5,82.4 215.0,82.2 216.5,82.0 218.0,81.9 219.5,81.5 221.0,81.2 222.5,80.9 224.0,80.7 225.5,80.5 227.0,80.4 228.6,80.2 230.1,80.1 231.6,79.6 233.1,79.2 234.6,78.8 236.1,78.6 237.6,78.6 239.1,78.4 240.6,78.2 242.1,77.9 243.6,77.7 245.1,77.3 246.6,77.1 248.1,77.0 249.6,76.9 251.1,76.7 252.6,76.6 254.1,76.4 255.6,76.2 257.1,75.9 258.6,75.8 260.1,75.7 261.6,75.5 263.1,75.4 264.7,75.2 266.2,75.0 267.7,74.7 269.2,74.5 270.7,74.3 272.2,74.1 273.7,74.0 275.2,73.9 276.7,73.5 278.2,73.3 279.7,73.0 281.2,72.8 282.7,72.4 284.2,72.3 285.7,72.2 287.2,72.1 288.7,71.9 290.2,71.7 291.7,71.5 293.2,71.4 294.7,71.2 296.2,71.1 297.7,70.9 299.2,70.8 300.8,70.7 302.3,70.5 303.8,70.2 305.3,70.1 306.8,69.8 308.3,69.7 309.8,69.6 311.3,69.4 312.8,69.3 314.3,69.2 315.8,69.0 317.3,68.7 318.8,68.4 320.3,68.2 321.8,68.0 323.3,67.9 324.8,67.9 326.3,67.7 327.8,67.4 329.3,67.2 330.8,67.1 332.3,66.9 333.8,66.8 335.3,66.6 336.9,66.5 338.4,66.3 339.9,66.1 341.4,65.9 342.9,65.7 344.4,65.5 345.9,65.4 347.4,65.3 348.9,65.2 350.4,65.1 351.9,64.9 353.4,64.7 354.9,64.6 356.4,64.4 357.9,64.2 359.4,64.1 360.9,64.0 362.4,63.8 363.9,63.6 365.4,63.4 366.9,63.2 368.4,63.0 369.9,62.9 371.4,62.8 373.0,62.7 374.5,62.6 376.0,62.5 377.5,62.4 379.0,62.1 380.5,62.0 382.0,61.8 383.5,61.7 385.0,61.5 386.5,61.4 388.0,61.2 389.5,61.1 391.0,61.0 392.5,60.8 394.0,60.6 395.5,60.5 397.0,60.3 398.5,60.2 400.0,60.1 401.5,60.0 403.0,59.9 404.5,59.7 406.0,59.6 407.5,59.6 409.1,59.4 410.6,59.1 412.1,58.9 413.6,63.4 415.1,62.5 416.6,60.8 418.1,60.2 419.6,59.4 421.1,58.4 422.6,57.8 424.1,57.5 425.6,56.8 427.1,55.8 428.6,55.1 430.1,54.8 431.6,54.5 433.1,54.1 434.6,53.6 436.1,53.1 437.6,52.6 439.1,52.3 440.6,51.8 442.1,51.6 443.6,51.2 445.2,51.0 446.7,50.7 448.2,50.5 449.7,50.0 451.2,49.6 452.7,49.2 454.2,48.6 455.7,48.2 457.2,48.0 458.7,47.8 460.2,47.5 461.7,47.1 463.2,46.8 464.7,46.5 466.2,45.5 467.7,44.8 469.2,44.5 470.7,44.3 472.2,44.0 473.7,43.5 475.2,43.1 476.7,42.5 478.2,42.2 479.7,41.8 481.3,41.5 482.8,41.1 484.3,40.8 485.8,40.7 487.3,40.5 488.8,40.3 490.3,40.0 491.8,39.8 493.3,39.6 494.8,39.4 496.3,39.2 497.8,38.9 499.3,38.7 500.8,38.5 502.3,38.3 503.8,38.1 505.3,38.0 506.8,37.8 508.3,37.7 509.8,37.5 511.3,37.4 512.8,37.2 514.3,37.0 515.8,36.8 517.4,36.6 518.9,36.4 520.4,36.3 521.9,36.1 523.4,35.9 524.9,35.8 526.4,35.7 527.9,35.5 529.4,35.3 530.9,35.3 532.4,35.1 533.9,34.9 535.4,34.7 536.9,34.5 538.4,34.2 539.9,34.1 541.4,33.8 542.9,33.6 544.4,33.4 545.9,33.2 547.4,33.0 548.9,32.7 550.4,32.5 551.9,32.2 553.5,32.0 555.0,31.7 556.5,31.5 558.0,31.4 559.5,31.2 561.0,31.1 562.5,31.0 564.0,30.8 565.5,30.6 567.0,30.4 568.5,30.2 570.0,30.0" />
  
  <!-- Punto finale luminoso -->
  <circle cx="570.0" cy="30.0" r="4" fill="#ffffff" stroke="#0366d6" stroke-width="2.5" />
</svg>