<svg width="600" height="150" viewBox="0 0 600 150" xmlns="http://www.w3.org/2000/svg">
  <defs>
    <filter id="shadow2" x="-2%" y="-2%" width="104%" height="108%">
      <feDropShadow dx="0" dy="2" stdDeviation="3" flood-opacity="0.1" />
    </filter>
    <linearGradient id="fillGrad" x1="0" y1="0" x2="0" y2="1">
      <stop offset="0%" stop-color="#0366d6" stop-opacity="0.3"/>
      <stop offset="100%" stop-color="#0366d6" stop-opacity="0.02"/>
    </linearGradient>
  </defs>
  <rect width="600" height="150" rx="12" fill="#ffffff" filter="url(#shadow2)" stroke="#e1e4e8" stroke-width="1"/>
  <text x="20" y="24" fill="#2b3137" font-family="-apple-system,BlinkMacSystemFont,'Segoe UI',Helvetica,Arial,sans-serif" font-size="14" font-weight="600">📈 Download Growth (Actual: 85.5k)</text>
  
  <!-- Area sotto la linea -->
  <polygon fill="url(#fillGrad)" points="30.0,120.0,120 30.0,120.0 31.5,119.5 33.0,118.9 34.4,118.4 35.9,118.2 37.4,118.0 38.9,117.3 40.3,116.9 41.8,116.6 43.3,116.0 44.8,115.6 46.2,115.3 47.7,115.1 49.2,114.8 50.7,114.4 52.1,113.9 53.6,113.6 55.1,113.3 56.6,113.2 58.0,112.9 59.5,112.5 61.0,112.2 62.5,112.1 63.9,111.8 65.4,110.8 66.9,110.5 68.4,110.1 69.8,109.7 71.3,109.3 72.8,109.0 74.3,108.8 75.7,108.6 77.2,108.3 78.7,107.8 80.2,107.4 81.6,107.1 83.1,106.8 84.6,106.7 86.1,106.6 87.5,106.4 89.0,106.1 90.5,105.9 92.0,105.7 93.4,105.4 94.9,104.8 96.4,104.7 97.9,104.6 99.3,104.4 100.8,103.9 102.3,103.6 103.8,103.2 105.2,102.9 106.7,102.5 108.2,102.4 109.7,102.1 111.1,101.7 112.6,101.3 114.1,101.0 115.6,100.9 117.0,100.7 118.5,100.5 120.0,100.0 121.5,99.6 123.0,99.2 124.4,98.8 125.9,98.6 127.4,98.5 128.9,98.4 130.3,98.0 131.8,97.8 133.3,97.7 134.8,97.5 136.2,97.4 137.7,97.1 139.2,97.0 140.7,96.9 142.1,96.8 143.6,96.4 145.1,96.2 146.6,96.1 148.0,95.9 149.5,95.8 151.0,95.8 152.5,102.8 153.9,102.1 155.4,101.5 156.9,100.8 158.4,98.9 159.8,97.6 161.3,96.2 162.8,95.7 164.3,95.1 165.7,94.1 167.2,93.1 168.7,92.3 170.2,92.0 171.6,91.7 173.1,91.0 174.6,90.4 176.1,90.1 177.5,89.6 179.0,89.4 180.5,89.4 182.0,89.0 183.4,88.3 184.9,87.9 186.4,87.4 187.9,86.9 189.3,86.6 190.8,86.5 192.3,86.0 193.8,85.6 195.2,85.2 196.7,84.9 198.2,84.8 199.7,84.7 201.1,84.4 202.6,84.1 204.1,83.9 205.6,83.6 207.0,83.4 208.5,83.2 210.0,83.0 211.5,82.8 213.0,82.7 214.4,82.5 215.9,82.1 217.4,81.9 218.9,81.6 220.3,81.4 221.8,81.2 223.3,81.0 224.8,80.9 226.2,80.7 227.7,80.2 229.2,79.9 230.7,79.5 232.1,79.3 233.6,79.3 235.1,79.1 236.6,78.9 238.0,78.6 239.5,78.4 241.0,78.0 242.5,77.8 243.9,77.7 245.4,77.6 246.9,77.5 248.4,77.3 249.8,77.1 251.3,76.9 252.8,76.6 254.3,76.5 255.7,76.4 257.2,76.3 258.7,76.2 260.2,75.9 261.6,75.7 263.1,75.5 264.6,75.2 266.1,75.0 267.5,74.9 269.0,74.8 270.5,74.6 272.0,74.3 273.4,74.0 274.9,73.8 276.4,73.6 277.9,73.2 279.3,73.1 280.8,73.0 282.3,72.9 283.8,72.7 285.2,72.5 286.7,72.3 288.2,72.2 289.7,72.0 291.1,71.9 292.6,71.7 294.1,71.6 295.6,71.5 297.0,71.3 298.5,71.0 300.0,70.9 301.5,70.7 303.0,70.6 304.4,70.4 305.9,70.3 307.4,70.2 308.9,70.0 310.3,69.9 311.8,69.6 313.3,69.2 314.8,69.0 316.2,68.9 317.7,68.8 319.2,68.7 320.7,68.5 322.1,68.2 323.6,68.1 325.1,68.0 326.6,67.8 328.0,67.7 329.5,67.5 331.0,67.3 332.5,67.2 333.9,67.0 335.4,66.8 336.9,66.6 338.4,66.4 339.8,66.3 341.3,66.2 342.8,66.1 344.3,66.0 345.7,65.8 347.2,65.6 348.7,65.5 350.2,65.3 351.6,65.2 353.1,65.1 354.6,64.9 356.1,64.8 357.5,64.5 359.0,64.3 360.5,64.1 362.0,64.0 363.4,63.9 364.9,63.8 366.4,63.7 367.9,63.6 369.3,63.5 370.8,63.3 372.3,63.1 373.8,62.9 375.2,62.8 376.7,62.7 378.2,62.5 379.7,62.4 381.1,62.2 382.6,62.1 384.1,61.9 385.6,61.8 387.0,61.6 388.5,61.5 390.0,61.3 391.5,61.2 393.0,61.1 394.4,61.0 395.9,60.9 397.4,60.7 398.9,60.6 400.3,60.6 401.8,60.4 403.3,60.1 404.8,59.9 406.2,64.4 407.7,63.5 409.2,61.8 410.7,61.1 412.1,60.4 413.6,59.4 415.1,58.9 416.6,58.5 418.0,57.8 419.5,56.9 421.0,56.1 422.5,55.9 423.9,55.5 425.4,55.2 426.9,54.7 428.4,54.3 429.8,53.7 431.3,53.4 432.8,52.9 434.3,52.7 435.7,52.3 437.2,52.1 438.7,51.9 440.2,51.6 441.6,51.1 443.1,50.8 444.6,50.3 446.1,49.7 447.5,49.4 449.0,49.2 450.5,49.0 452.0,48.7 453.4,48.3 454.9,48.0 456.4,47.7 457.9,46.8 459.3,46.0 460.8,45.7 462.3,45.5 463.8,45.2 465.2,44.7 466.7,44.3 468.2,43.8 469.7,43.4 471.1,43.1 472.6,42.8 474.1,42.4 475.6,42.1 477.0,42.0 478.5,41.8 480.0,41.6 481.5,41.3 483.0,41.2 484.4,40.9 485.9,40.7 487.4,40.5 488.9,40.2 490.3,40.1 491.8,39.9 493.3,39.7 494.8,39.5 496.2,39.3 497.7,39.2 499.2,39.0 500.7,38.9 502.1,38.8 503.6,38.6 505.1,38.4 506.6,38.2 508.0,38.0 509.5,37.8 511.0,37.7 512.5,37.4 513.9,37.3 515.4,37.2 516.9,37.1 518.4,36.9 519.8,36.7 521.3,36.7 522.8,36.5 524.3,36.3 525.7,36.1 527.2,35.9 528.7,35.7 530.2,35.5 531.6,35.3 533.1,35.0 534.6,34.9 536.1,34.6 537.5,34.4 539.0,34.2 540.5,33.9 542.0,33.7 543.4,33.4 544.9,33.2 546.4,32.9 547.9,32.8 549.3,32.7 550.8,32.6 552.3,32.4 553.8,32.3 555.2,32.1 556.7,31.9 558.2,31.7 559.7,31.5 561.1,31.2 562.6,31.0 564.1,30.8 565.6,30.4 567.0,30.3 568.5,30.1 570.0,30.0 570.0,30.0,120" />
  
  <!-- Linea principale -->
  <polyline fill="none" stroke="#0366d6" stroke-width="2.5" stroke-linecap="round" stroke-linejoin="round" points="30.0,120.0 31.5,119.5 33.0,118.9 34.4,118.4 35.9,118.2 37.4,118.0 38.9,117.3 40.3,116.9 41.8,116.6 43.3,116.0 44.8,115.6 46.2,115.3 47.7,115.1 49.2,114.8 50.7,114.4 52.1,113.9 53.6,113.6 55.1,113.3 56.6,113.2 58.0,112.9 59.5,112.5 61.0,112.2 62.5,112.1 63.9,111.8 65.4,110.8 66.9,110.5 68.4,110.1 69.8,109.7 71.3,109.3 72.8,109.0 74.3,108.8 75.7,108.6 77.2,108.3 78.7,107.8 80.2,107.4 81.6,107.1 83.1,106.8 84.6,106.7 86.1,106.6 87.5,106.4 89.0,106.1 90.5,105.9 92.0,105.7 93.4,105.4 94.9,104.8 96.4,104.7 97.9,104.6 99.3,104.4 100.8,103.9 102.3,103.6 103.8,103.2 105.2,102.9 106.7,102.5 108.2,102.4 109.7,102.1 111.1,101.7 112.6,101.3 114.1,101.0 115.6,100.9 117.0,100.7 118.5,100.5 120.0,100.0 121.5,99.6 123.0,99.2 124.4,98.8 125.9,98.6 127.4,98.5 128.9,98.4 130.3,98.0 131.8,97.8 133.3,97.7 134.8,97.5 136.2,97.4 137.7,97.1 139.2,97.0 140.7,96.9 142.1,96.8 143.6,96.4 145.1,96.2 146.6,96.1 148.0,95.9 149.5,95.8 151.0,95.8 152.5,102.8 153.9,102.1 155.4,101.5 156.9,100.8 158.4,98.9 159.8,97.6 161.3,96.2 162.8,95.7 164.3,95.1 165.7,94.1 167.2,93.1 168.7,92.3 170.2,92.0 171.6,91.7 173.1,91.0 174.6,90.4 176.1,90.1 177.5,89.6 179.0,89.4 180.5,89.4 182.0,89.0 183.4,88.3 184.9,87.9 186.4,87.4 187.9,86.9 189.3,86.6 190.8,86.5 192.3,86.0 193.8,85.6 195.2,85.2 196.7,84.9 198.2,84.8 199.7,84.7 201.1,84.4 202.6,84.1 204.1,83.9 205.6,83.6 207.0,83.4 208.5,83.2 210.0,83.0 211.5,82.8 213.0,82.7 214.4,82.5 215.9,82.1 217.4,81.9 218.9,81.6 220.3,81.4 221.8,81.2 223.3,81.0 224.8,80.9 226.2,80.7 227.7,80.2 229.2,79.9 230.7,79.5 232.1,79.3 233.6,79.3 235.1,79.1 236.6,78.9 238.0,78.6 239.5,78.4 241.0,78.0 242.5,77.8 243.9,77.7 245.4,77.6 246.9,77.5 248.4,77.3 249.8,77.1 251.3,76.9 252.8,76.6 254.3,76.5 255.7,76.4 257.2,76.3 258.7,76.2 260.2,75.9 261.6,75.7 263.1,75.5 264.6,75.2 266.1,75.0 267.5,74.9 269.0,74.8 270.5,74.6 272.0,74.3 273.4,74.0 274.9,73.8 276.4,73.6 277.9,73.2 279.3,73.1 280.8,73.0 282.3,72.9 283.8,72.7 285.2,72.5 286.7,72.3 288.2,72.2 289.7,72.0 291.1,71.9 292.6,71.7 294.1,71.6 295.6,71.5 297.0,71.3 298.5,71.0 300.0,70.9 301.5,70.7 303.0,70.6 304.4,70.4 305.9,70.3 307.4,70.2 308.9,70.0 310.3,69.9 311.8,69.6 313.3,69.2 314.8,69.0 316.2,68.9 317.7,68.8 319.2,68.7 320.7,68.5 322.1,68.2 323.6,68.1 325.1,68.0 326.6,67.8 328.0,67.7 329.5,67.5 331.0,67.3 332.5,67.2 333.9,67.0 335.4,66.8 336.9,66.6 338.4,66.4 339.8,66.3 341.3,66.2 342.8,66.1 344.3,66.0 345.7,65.8 347.2,65.6 348.7,65.5 350.2,65.3 351.6,65.2 353.1,65.1 354.6,64.9 356.1,64.8 357.5,64.5 359.0,64.3 360.5,64.1 362.0,64.0 363.4,63.9 364.9,63.8 366.4,63.7 367.9,63.6 369.3,63.5 370.8,63.3 372.3,63.1 373.8,62.9 375.2,62.8 376.7,62.7 378.2,62.5 379.7,62.4 381.1,62.2 382.6,62.1 384.1,61.9 385.6,61.8 387.0,61.6 388.5,61.5 390.0,61.3 391.5,61.2 393.0,61.1 394.4,61.0 395.9,60.9 397.4,60.7 398.9,60.6 400.3,60.6 401.8,60.4 403.3,60.1 404.8,59.9 406.2,64.4 407.7,63.5 409.2,61.8 410.7,61.1 412.1,60.4 413.6,59.4 415.1,58.9 416.6,58.5 418.0,57.8 419.5,56.9 421.0,56.1 422.5,55.9 423.9,55.5 425.4,55.2 426.9,54.7 428.4,54.3 429.8,53.7 431.3,53.4 432.8,52.9 434.3,52.7 435.7,52.3 437.2,52.1 438.7,51.9 440.2,51.6 441.6,51.1 443.1,50.8 444.6,50.3 446.1,49.7 447.5,49.4 449.0,49.2 450.5,49.0 452.0,48.7 453.4,48.3 454.9,48.0 456.4,47.7 457.9,46.8 459.3,46.0 460.8,45.7 462.3,45.5 463.8,45.2 465.2,44.7 466.7,44.3 468.2,43.8 469.7,43.4 471.1,43.1 472.6,42.8 474.1,42.4 475.6,42.1 477.0,42.0 478.5,41.8 480.0,41.6 481.5,41.3 483.0,41.2 484.4,40.9 485.9,40.7 487.4,40.5 488.9,40.2 490.3,40.1 491.8,39.9 493.3,39.7 494.8,39.5 496.2,39.3 497.7,39.2 499.2,39.0 500.7,38.9 502.1,38.8 503.6,38.6 505.1,38.4 506.6,38.2 508.0,38.0 509.5,37.8 511.0,37.7 512.5,37.4 513.9,37.3 515.4,37.2 516.9,37.1 518.4,36.9 519.8,36.7 521.3,36.7 522.8,36.5 524.3,36.3 525.7,36.1 527.2,35.9 528.7,35.7 530.2,35.5 531.6,35.3 533.1,35.0 534.6,34.9 536.1,34.6 537.5,34.4 539.0,34.2 540.5,33.9 542.0,33.7 543.4,33.4 544.9,33.2 546.4,32.9 547.9,32.8 549.3,32.7 550.8,32.6 552.3,32.4 553.8,32.3 555.2,32.1 556.7,31.9 558.2,31.7 559.7,31.5 561.1,31.2 562.6,31.0 564.1,30.8 565.6,30.4 567.0,30.3 568.5,30.1 570.0,30.0" />
  
  <!-- Punto finale luminoso -->
  <circle cx="570.0" cy="30.0" r="4" fill="#ffffff" stroke="#0366d6" stroke-width="2.5" />
</svg>