<svg width="600" height="150" viewBox="0 0 600 150" xmlns="http://www.w3.org/2000/svg">
  <defs>
    <filter id="shadow2" x="-2%" y="-2%" width="104%" height="108%">
      <feDropShadow dx="0" dy="2" stdDeviation="3" flood-opacity="0.1" />
    </filter>
    <linearGradient id="fillGrad" x1="0" y1="0" x2="0" y2="1">
      <stop offset="0%" stop-color="#0366d6" stop-opacity="0.3"/>
      <stop offset="100%" stop-color="#0366d6" stop-opacity="0.02"/>
    </linearGradient>
  </defs>
  <rect width="600" height="150" rx="12" fill="#ffffff" filter="url(#shadow2)" stroke="#e1e4e8" stroke-width="1"/>
  <text x="20" y="24" fill="#2b3137" font-family="-apple-system,BlinkMacSystemFont,'Segoe UI',Helvetica,Arial,sans-serif" font-size="14" font-weight="600">📈 Download Growth (Actual: 82.8k)</text>
  
  <!-- Area sotto la linea -->
  <polygon fill="url(#fillGrad)" points="30.0,120.0,120 30.0,120.0 31.8,119.4 33.6,118.7 35.4,118.1 37.2,117.9 39.0,117.6 40.8,116.9 42.6,116.4 44.4,116.1 46.2,115.3 48.0,114.9 49.8,114.6 51.6,114.3 53.4,114.0 55.2,113.5 57.0,112.9 58.8,112.5 60.6,112.2 62.4,112.0 64.2,111.7 66.0,111.3 67.8,111.0 69.6,110.8 71.4,110.4 73.2,109.3 75.0,108.9 76.8,108.4 78.6,108.0 80.4,107.6 82.2,107.2 84.0,106.9 85.8,106.7 87.6,106.4 89.4,105.8 91.2,105.3 93.0,105.0 94.8,104.6 96.6,104.4 98.4,104.3 100.2,104.1 102.0,103.8 103.8,103.5 105.6,103.4 107.4,102.9 109.2,102.3 111.0,102.1 112.8,102.0 114.6,101.8 116.4,101.3 118.2,100.9 120.0,100.4 121.8,100.0 123.6,99.6 125.4,99.5 127.2,99.2 129.0,98.7 130.8,98.2 132.6,97.9 134.4,97.7 136.2,97.5 138.0,97.2 139.8,96.7 141.6,96.2 143.4,95.8 145.2,95.3 147.0,95.1 148.8,95.0 150.6,94.8 152.4,94.4 154.2,94.2 156.0,94.0 157.8,93.8 159.6,93.6 161.4,93.4 163.2,93.2 165.0,93.1 166.8,93.0 168.6,92.5 170.4,92.2 172.2,92.1 174.0,91.9 175.8,91.8 177.6,91.8 179.4,99.9 181.2,99.1 183.0,98.4 184.8,97.6 186.6,95.5 188.4,93.9 190.2,92.3 192.0,91.7 193.8,91.0 195.6,89.8 197.4,88.6 199.2,87.7 201.0,87.4 202.8,87.1 204.6,86.2 206.4,85.5 208.2,85.1 210.0,84.6 211.8,84.4 213.6,84.3 215.4,83.8 217.2,83.1 219.0,82.5 220.8,82.0 222.6,81.4 224.4,81.1 226.2,80.9 228.0,80.4 229.8,79.9 231.6,79.5 233.4,79.1 235.2,78.9 237.0,78.8 238.8,78.6 240.6,78.2 242.4,77.9 244.2,77.6 246.0,77.3 247.8,77.1 249.6,76.9 251.4,76.7 253.2,76.5 255.0,76.3 256.8,75.9 258.6,75.6 260.4,75.2 262.2,75.0 264.0,74.7 265.8,74.6 267.6,74.4 269.4,74.2 271.2,73.6 273.0,73.2 274.8,72.8 276.6,72.6 278.4,72.5 280.2,72.3 282.0,72.0 283.8,71.7 285.6,71.5 287.4,71.1 289.2,70.9 291.0,70.7 292.8,70.6 294.6,70.4 296.4,70.2 298.2,70.0 300.0,69.8 301.8,69.5 303.6,69.3 305.4,69.2 307.2,69.0 309.0,68.9 310.8,68.6 312.6,68.4 314.4,68.1 316.2,67.8 318.0,67.6 319.8,67.4 321.6,67.3 323.4,67.1 325.2,66.7 327.0,66.4 328.8,66.2 330.6,65.9 332.4,65.5 334.2,65.4 336.0,65.2 337.8,65.1 339.6,64.9 341.4,64.7 343.2,64.4 345.0,64.3 346.8,64.1 348.6,63.9 350.4,63.7 352.2,63.5 354.0,63.5 355.8,63.2 357.6,62.9 359.4,62.8 361.2,62.5 363.0,62.4 364.8,62.2 366.6,62.0 368.4,61.9 370.2,61.8 372.0,61.6 373.8,61.2 375.6,60.8 377.4,60.6 379.2,60.4 381.0,60.3 382.8,60.2 384.6,60.0 386.4,59.7 388.2,59.5 390.0,59.4 391.8,59.2 393.6,59.0 395.4,58.8 397.2,58.6 399.0,58.5 400.8,58.2 402.6,58.0 404.4,57.7 406.2,57.5 408.0,57.4 409.8,57.3 411.6,57.2 413.4,57.0 415.2,56.8 417.0,56.6 418.8,56.4 420.6,56.2 422.4,56.1 424.2,55.9 426.0,55.8 427.8,55.6 429.6,55.4 431.4,55.1 433.2,54.9 435.0,54.7 436.8,54.6 438.6,54.4 440.4,54.3 442.2,54.2 444.0,54.1 445.8,53.9 447.6,53.6 449.4,53.5 451.2,53.3 453.0,53.2 454.8,53.0 456.6,52.8 458.4,52.6 460.2,52.5 462.0,52.3 463.8,52.1 465.6,51.9 467.4,51.8 469.2,51.6 471.0,51.5 472.8,51.4 474.6,51.2 476.4,51.1 478.2,50.9 480.0,50.8 481.8,50.7 483.6,50.5 485.4,50.2 487.2,49.9 489.0,55.2 490.8,54.1 492.6,52.2 494.4,51.4 496.2,50.5 498.0,49.3 499.8,48.7 501.6,48.3 503.4,47.5 505.2,46.4 507.0,45.5 508.8,45.3 510.6,44.9 512.4,44.5 514.2,43.9 516.0,43.4 517.8,42.7 519.6,42.4 521.4,41.8 523.2,41.5 525.0,41.1 526.8,40.9 528.6,40.6 530.4,40.3 532.2,39.7 534.0,39.3 535.8,38.8 537.6,38.1 539.4,37.7 541.2,37.4 543.0,37.2 544.8,36.9 546.6,36.5 548.4,36.0 550.2,35.7 552.0,34.6 553.8,33.8 555.6,33.4 557.4,33.2 559.2,32.8 561.0,32.3 562.8,31.8 564.6,31.1 566.4,30.8 568.2,30.4 570.0,30.0 570.0,30.0,120" />
  
  <!-- Linea principale -->
  <polyline fill="none" stroke="#0366d6" stroke-width="2.5" stroke-linecap="round" stroke-linejoin="round" points="30.0,120.0 31.8,119.4 33.6,118.7 35.4,118.1 37.2,117.9 39.0,117.6 40.8,116.9 42.6,116.4 44.4,116.1 46.2,115.3 48.0,114.9 49.8,114.6 51.6,114.3 53.4,114.0 55.2,113.5 57.0,112.9 58.8,112.5 60.6,112.2 62.4,112.0 64.2,111.7 66.0,111.3 67.8,111.0 69.6,110.8 71.4,110.4 73.2,109.3 75.0,108.9 76.8,108.4 78.6,108.0 80.4,107.6 82.2,107.2 84.0,106.9 85.8,106.7 87.6,106.4 89.4,105.8 91.2,105.3 93.0,105.0 94.8,104.6 96.6,104.4 98.4,104.3 100.2,104.1 102.0,103.8 103.8,103.5 105.6,103.4 107.4,102.9 109.2,102.3 111.0,102.1 112.8,102.0 114.6,101.8 116.4,101.3 118.2,100.9 120.0,100.4 121.8,100.0 123.6,99.6 125.4,99.5 127.2,99.2 129.0,98.7 130.8,98.2 132.6,97.9 134.4,97.7 136.2,97.5 138.0,97.2 139.8,96.7 141.6,96.2 143.4,95.8 145.2,95.3 147.0,95.1 148.8,95.0 150.6,94.8 152.4,94.4 154.2,94.2 156.0,94.0 157.8,93.8 159.6,93.6 161.4,93.4 163.2,93.2 165.0,93.1 166.8,93.0 168.6,92.5 170.4,92.2 172.2,92.1 174.0,91.9 175.8,91.8 177.6,91.8 179.4,99.9 181.2,99.1 183.0,98.4 184.8,97.6 186.6,95.5 188.4,93.9 190.2,92.3 192.0,91.7 193.8,91.0 195.6,89.8 197.4,88.6 199.2,87.7 201.0,87.4 202.8,87.1 204.6,86.2 206.4,85.5 208.2,85.1 210.0,84.6 211.8,84.4 213.6,84.3 215.4,83.8 217.2,83.1 219.0,82.5 220.8,82.0 222.6,81.4 224.4,81.1 226.2,80.9 228.0,80.4 229.8,79.9 231.6,79.5 233.4,79.1 235.2,78.9 237.0,78.8 238.8,78.6 240.6,78.2 242.4,77.9 244.2,77.6 246.0,77.3 247.8,77.1 249.6,76.9 251.4,76.7 253.2,76.5 255.0,76.3 256.8,75.9 258.6,75.6 260.4,75.2 262.2,75.0 264.0,74.7 265.8,74.6 267.6,74.4 269.4,74.2 271.2,73.6 273.0,73.2 274.8,72.8 276.6,72.6 278.4,72.5 280.2,72.3 282.0,72.0 283.8,71.7 285.6,71.5 287.4,71.1 289.2,70.9 291.0,70.7 292.8,70.6 294.6,70.4 296.4,70.2 298.2,70.0 300.0,69.8 301.8,69.5 303.6,69.3 305.4,69.2 307.2,69.0 309.0,68.9 310.8,68.6 312.6,68.4 314.4,68.1 316.2,67.8 318.0,67.6 319.8,67.4 321.6,67.3 323.4,67.1 325.2,66.7 327.0,66.4 328.8,66.2 330.6,65.9 332.4,65.5 334.2,65.4 336.0,65.2 337.8,65.1 339.6,64.9 341.4,64.7 343.2,64.4 345.0,64.3 346.8,64.1 348.6,63.9 350.4,63.7 352.2,63.5 354.0,63.5 355.8,63.2 357.6,62.9 359.4,62.8 361.2,62.5 363.0,62.4 364.8,62.2 366.6,62.0 368.4,61.9 370.2,61.8 372.0,61.6 373.8,61.2 375.6,60.8 377.4,60.6 379.2,60.4 381.0,60.3 382.8,60.2 384.6,60.0 386.4,59.7 388.2,59.5 390.0,59.4 391.8,59.2 393.6,59.0 395.4,58.8 397.2,58.6 399.0,58.5 400.8,58.2 402.6,58.0 404.4,57.7 406.2,57.5 408.0,57.4 409.8,57.3 411.6,57.2 413.4,57.0 415.2,56.8 417.0,56.6 418.8,56.4 420.6,56.2 422.4,56.1 424.2,55.9 426.0,55.8 427.8,55.6 429.6,55.4 431.4,55.1 433.2,54.9 435.0,54.7 436.8,54.6 438.6,54.4 440.4,54.3 442.2,54.2 444.0,54.1 445.8,53.9 447.6,53.6 449.4,53.5 451.2,53.3 453.0,53.2 454.8,53.0 456.6,52.8 458.4,52.6 460.2,52.5 462.0,52.3 463.8,52.1 465.6,51.9 467.4,51.8 469.2,51.6 471.0,51.5 472.8,51.4 474.6,51.2 476.4,51.1 478.2,50.9 480.0,50.8 481.8,50.7 483.6,50.5 485.4,50.2 487.2,49.9 489.0,55.2 490.8,54.1 492.6,52.2 494.4,51.4 496.2,50.5 498.0,49.3 499.8,48.7 501.6,48.3 503.4,47.5 505.2,46.4 507.0,45.5 508.8,45.3 510.6,44.9 512.4,44.5 514.2,43.9 516.0,43.4 517.8,42.7 519.6,42.4 521.4,41.8 523.2,41.5 525.0,41.1 526.8,40.9 528.6,40.6 530.4,40.3 532.2,39.7 534.0,39.3 535.8,38.8 537.6,38.1 539.4,37.7 541.2,37.4 543.0,37.2 544.8,36.9 546.6,36.5 548.4,36.0 550.2,35.7 552.0,34.6 553.8,33.8 555.6,33.4 557.4,33.2 559.2,32.8 561.0,32.3 562.8,31.8 564.6,31.1 566.4,30.8 568.2,30.4 570.0,30.0" />
  
  <!-- Punto finale luminoso -->
  <circle cx="570.0" cy="30.0" r="4" fill="#ffffff" stroke="#0366d6" stroke-width="2.5" />
</svg>