<svg width="600" height="150" viewBox="0 0 600 150" xmlns="http://www.w3.org/2000/svg">
  <defs>
    <filter id="shadow2" x="-2%" y="-2%" width="104%" height="108%">
      <feDropShadow dx="0" dy="2" stdDeviation="3" flood-opacity="0.1" />
    </filter>
    <linearGradient id="fillGrad" x1="0" y1="0" x2="0" y2="1">
      <stop offset="0%" stop-color="#0366d6" stop-opacity="0.3"/>
      <stop offset="100%" stop-color="#0366d6" stop-opacity="0.02"/>
    </linearGradient>
  </defs>
  <rect width="600" height="150" rx="12" fill="#ffffff" filter="url(#shadow2)" stroke="#e1e4e8" stroke-width="1"/>
  <text x="20" y="24" fill="#2b3137" font-family="-apple-system,BlinkMacSystemFont,'Segoe UI',Helvetica,Arial,sans-serif" font-size="14" font-weight="600">📈 Download Growth (Actual: 87.6k)</text>
  
  <!-- Area sotto la linea -->
  <polygon fill="url(#fillGrad)" points="30.0,120.0,120 30.0,120.0 31.3,119.5 32.5,119.0 33.8,118.5 35.0,118.4 36.3,118.2 37.5,117.6 38.8,117.2 40.0,117.0 41.3,116.4 42.5,116.1 43.8,115.8 45.0,115.6 46.3,115.4 47.5,115.0 48.8,114.6 50.0,114.2 51.3,114.0 52.6,113.9 53.8,113.6 55.1,113.3 56.3,113.0 57.6,112.9 58.8,112.6 60.1,111.7 61.3,111.5 62.6,111.1 63.8,110.7 65.1,110.4 66.3,110.1 67.6,109.9 68.8,109.8 70.1,109.5 71.3,109.1 72.6,108.7 73.9,108.4 75.1,108.1 76.4,108.0 77.6,107.9 78.9,107.8 80.1,107.5 81.4,107.3 82.6,107.2 83.9,106.9 85.1,106.4 86.4,106.2 87.6,106.2 88.9,106.0 90.1,105.6 91.4,105.3 92.6,104.9 93.9,104.6 95.2,104.3 96.4,104.2 97.7,104.0 98.9,103.6 100.2,103.2 101.4,102.9 102.7,102.8 103.9,102.6 105.2,102.5 106.4,102.1 107.7,101.7 108.9,101.3 110.2,101.0 111.4,100.8 112.7,100.7 113.9,100.6 115.2,100.3 116.5,100.1 117.7,99.9 119.0,99.8 120.2,99.7 121.5,99.5 122.7,99.4 124.0,99.3 125.2,99.2 126.5,98.8 127.7,98.6 129.0,98.5 130.2,98.4 131.5,98.3 132.7,98.3 134.0,104.5 135.2,103.9 136.5,103.4 137.7,102.8 139.0,101.1 140.3,99.9 141.5,98.6 142.8,98.2 144.0,97.6 145.3,96.8 146.5,95.8 147.8,95.1 149.0,94.9 150.3,94.6 151.5,93.9 152.8,93.5 154.0,93.1 155.3,92.7 156.5,92.6 157.8,92.5 159.0,92.1 160.3,91.6 161.6,91.2 162.8,90.7 164.1,90.3 165.3,90.0 166.6,89.9 167.8,89.5 169.1,89.1 170.3,88.8 171.6,88.5 172.8,88.4 174.1,88.3 175.3,88.1 176.6,87.8 177.8,87.6 179.1,87.3 180.3,87.1 181.6,87.0 182.9,86.8 184.1,86.6 185.4,86.5 186.6,86.3 187.9,86.0 189.1,85.8 190.4,85.5 191.6,85.3 192.9,85.1 194.1,85.0 195.4,84.9 196.6,84.7 197.9,84.3 199.1,84.0 200.4,83.6 201.6,83.5 202.9,83.4 204.2,83.3 205.4,83.1 206.7,82.8 207.9,82.6 209.2,82.3 210.4,82.2 211.7,82.1 212.9,81.9 214.2,81.8 215.4,81.7 216.7,81.5 217.9,81.3 219.2,81.1 220.4,80.9 221.7,80.9 222.9,80.7 224.2,80.6 225.5,80.4 226.7,80.2 228.0,80.0 229.2,79.8 230.5,79.6 231.7,79.5 233.0,79.4 234.2,79.3 235.5,79.0 236.7,78.7 238.0,78.5 239.2,78.3 240.5,78.0 241.7,77.9 243.0,77.8 244.2,77.7 245.5,77.5 246.8,77.4 248.0,77.2 249.3,77.1 250.5,76.9 251.8,76.8 253.0,76.6 254.3,76.5 255.5,76.4 256.8,76.3 258.0,76.0 259.3,75.9 260.5,75.7 261.8,75.6 263.0,75.5 264.3,75.4 265.5,75.3 266.8,75.1 268.1,75.0 269.3,74.7 270.6,74.4 271.8,74.2 273.1,74.1 274.3,74.0 275.6,74.0 276.8,73.8 278.1,73.5 279.3,73.4 280.6,73.3 281.8,73.1 283.1,73.0 284.3,72.8 285.6,72.7 286.8,72.6 288.1,72.4 289.4,72.2 290.6,72.0 291.9,71.8 293.1,71.8 294.4,71.7 295.6,71.6 296.9,71.5 298.1,71.4 299.4,71.2 300.6,71.0 301.9,70.9 303.1,70.8 304.4,70.7 305.6,70.5 306.9,70.4 308.1,70.2 309.4,70.0 310.6,69.9 311.9,69.7 313.2,69.6 314.4,69.5 315.7,69.4 316.9,69.3 318.2,69.2 319.4,69.1 320.7,68.9 321.9,68.8 323.2,68.6 324.4,68.5 325.7,68.4 326.9,68.3 328.2,68.1 329.4,68.0 330.7,67.9 331.9,67.7 333.2,67.6 334.5,67.4 335.7,67.3 337.0,67.2 338.2,67.1 339.5,67.0 340.7,66.9 342.0,66.8 343.2,66.7 344.5,66.6 345.7,66.5 347.0,66.2 348.2,66.0 349.5,70.1 350.7,69.3 352.0,67.7 353.2,67.2 354.5,66.5 355.8,65.6 357.0,65.1 358.3,64.8 359.5,64.2 360.8,63.3 362.0,62.7 363.3,62.5 364.5,62.1 365.8,61.9 367.0,61.4 368.3,61.0 369.5,60.5 370.8,60.2 372.0,59.8 373.3,59.6 374.5,59.3 375.8,59.1 377.1,58.8 378.3,58.6 379.6,58.2 380.8,57.9 382.1,57.5 383.3,56.9 384.6,56.6 385.8,56.4 387.1,56.2 388.3,56.0 389.6,55.7 390.8,55.3 392.1,55.1 393.3,54.2 394.6,53.6 395.8,53.3 397.1,53.1 398.4,52.9 399.6,52.4 400.9,52.1 402.1,51.6 403.4,51.3 404.6,51.0 405.9,50.7 407.1,50.3 408.4,50.1 409.6,49.9 410.9,49.8 412.1,49.6 413.4,49.4 414.6,49.2 415.9,49.0 417.1,48.8 418.4,48.7 419.7,48.4 420.9,48.2 422.2,48.1 423.4,47.9 424.7,47.7 425.9,47.6 427.2,47.4 428.4,47.3 429.7,47.2 430.9,47.1 432.2,46.9 433.4,46.7 434.7,46.6 435.9,46.4 437.2,46.2 438.4,46.1 439.7,45.9 441.0,45.8 442.2,45.7 443.5,45.5 444.7,45.4 446.0,45.3 447.2,45.2 448.5,45.0 449.7,44.8 451.0,44.7 452.2,44.5 453.5,44.3 454.7,44.1 456.0,43.9 457.2,43.7 458.5,43.6 459.7,43.3 461.0,43.1 462.3,43.0 463.5,42.7 464.8,42.5 466.0,42.3 467.3,42.1 468.5,41.8 469.8,41.7 471.0,41.6 472.3,41.5 473.5,41.4 474.8,41.2 476.0,41.1 477.3,40.9 478.5,40.7 479.8,40.5 481.0,40.3 482.3,40.1 483.5,39.9 484.8,39.6 486.1,39.5 487.3,39.3 488.6,39.2 489.8,39.1 491.1,39.0 492.3,38.8 493.6,38.6 494.8,38.5 496.1,38.2 497.3,38.1 498.6,37.9 499.8,37.8 501.1,37.7 502.3,37.6 503.6,37.5 504.8,37.4 506.1,37.2 507.4,37.1 508.6,37.0 509.9,36.8 511.1,36.6 512.4,36.5 513.6,36.4 514.9,36.2 516.1,36.1 517.4,36.0 518.6,35.9 519.9,35.7 521.1,35.6 522.4,35.4 523.6,35.2 524.9,35.0 526.1,34.7 527.4,34.6 528.7,34.6 529.9,34.5 531.2,34.3 532.4,34.3 533.7,34.2 534.9,34.1 536.2,34.0 537.4,33.9 538.7,33.7 539.9,33.6 541.2,33.4 542.4,33.2 543.7,33.1 544.9,33.0 546.2,32.9 547.4,32.7 548.7,32.6 550.0,32.5 551.2,32.4 552.5,32.3 553.7,32.1 555.0,31.8 556.2,31.6 557.5,31.4 558.7,31.3 560.0,31.1 561.2,30.9 562.5,30.8 563.7,30.7 565.0,30.6 566.2,30.5 567.5,30.4 568.7,30.2 570.0,30.0 570.0,30.0,120" />
  
  <!-- Linea principale -->
  <polyline fill="none" stroke="#0366d6" stroke-width="2.5" stroke-linecap="round" stroke-linejoin="round" points="30.0,120.0 31.3,119.5 32.5,119.0 33.8,118.5 35.0,118.4 36.3,118.2 37.5,117.6 38.8,117.2 40.0,117.0 41.3,116.4 42.5,116.1 43.8,115.8 45.0,115.6 46.3,115.4 47.5,115.0 48.8,114.6 50.0,114.2 51.3,114.0 52.6,113.9 53.8,113.6 55.1,113.3 56.3,113.0 57.6,112.9 58.8,112.6 60.1,111.7 61.3,111.5 62.6,111.1 63.8,110.7 65.1,110.4 66.3,110.1 67.6,109.9 68.8,109.8 70.1,109.5 71.3,109.1 72.6,108.7 73.9,108.4 75.1,108.1 76.4,108.0 77.6,107.9 78.9,107.8 80.1,107.5 81.4,107.3 82.6,107.2 83.9,106.9 85.1,106.4 86.4,106.2 87.6,106.2 88.9,106.0 90.1,105.6 91.4,105.3 92.6,104.9 93.9,104.6 95.2,104.3 96.4,104.2 97.7,104.0 98.9,103.6 100.2,103.2 101.4,102.9 102.7,102.8 103.9,102.6 105.2,102.5 106.4,102.1 107.7,101.7 108.9,101.3 110.2,101.0 111.4,100.8 112.7,100.7 113.9,100.6 115.2,100.3 116.5,100.1 117.7,99.9 119.0,99.8 120.2,99.7 121.5,99.5 122.7,99.4 124.0,99.3 125.2,99.2 126.5,98.8 127.7,98.6 129.0,98.5 130.2,98.4 131.5,98.3 132.7,98.3 134.0,104.5 135.2,103.9 136.5,103.4 137.7,102.8 139.0,101.1 140.3,99.9 141.5,98.6 142.8,98.2 144.0,97.6 145.3,96.8 146.5,95.8 147.8,95.1 149.0,94.9 150.3,94.6 151.5,93.9 152.8,93.5 154.0,93.1 155.3,92.7 156.5,92.6 157.8,92.5 159.0,92.1 160.3,91.6 161.6,91.2 162.8,90.7 164.1,90.3 165.3,90.0 166.6,89.9 167.8,89.5 169.1,89.1 170.3,88.8 171.6,88.5 172.8,88.4 174.1,88.3 175.3,88.1 176.6,87.8 177.8,87.6 179.1,87.3 180.3,87.1 181.6,87.0 182.9,86.8 184.1,86.6 185.4,86.5 186.6,86.3 187.9,86.0 189.1,85.8 190.4,85.5 191.6,85.3 192.9,85.1 194.1,85.0 195.4,84.9 196.6,84.7 197.9,84.3 199.1,84.0 200.4,83.6 201.6,83.5 202.9,83.4 204.2,83.3 205.4,83.1 206.7,82.8 207.9,82.6 209.2,82.3 210.4,82.2 211.7,82.1 212.9,81.9 214.2,81.8 215.4,81.7 216.7,81.5 217.9,81.3 219.2,81.1 220.4,80.9 221.7,80.9 222.9,80.7 224.2,80.6 225.5,80.4 226.7,80.2 228.0,80.0 229.2,79.8 230.5,79.6 231.7,79.5 233.0,79.4 234.2,79.3 235.5,79.0 236.7,78.7 238.0,78.5 239.2,78.3 240.5,78.0 241.7,77.9 243.0,77.8 244.2,77.7 245.5,77.5 246.8,77.4 248.0,77.2 249.3,77.1 250.5,76.9 251.8,76.8 253.0,76.6 254.3,76.5 255.5,76.4 256.8,76.3 258.0,76.0 259.3,75.9 260.5,75.7 261.8,75.6 263.0,75.5 264.3,75.4 265.5,75.3 266.8,75.1 268.1,75.0 269.3,74.7 270.6,74.4 271.8,74.2 273.1,74.1 274.3,74.0 275.6,74.0 276.8,73.8 278.1,73.5 279.3,73.4 280.6,73.3 281.8,73.1 283.1,73.0 284.3,72.8 285.6,72.7 286.8,72.6 288.1,72.4 289.4,72.2 290.6,72.0 291.9,71.8 293.1,71.8 294.4,71.7 295.6,71.6 296.9,71.5 298.1,71.4 299.4,71.2 300.6,71.0 301.9,70.9 303.1,70.8 304.4,70.7 305.6,70.5 306.9,70.4 308.1,70.2 309.4,70.0 310.6,69.9 311.9,69.7 313.2,69.6 314.4,69.5 315.7,69.4 316.9,69.3 318.2,69.2 319.4,69.1 320.7,68.9 321.9,68.8 323.2,68.6 324.4,68.5 325.7,68.4 326.9,68.3 328.2,68.1 329.4,68.0 330.7,67.9 331.9,67.7 333.2,67.6 334.5,67.4 335.7,67.3 337.0,67.2 338.2,67.1 339.5,67.0 340.7,66.9 342.0,66.8 343.2,66.7 344.5,66.6 345.7,66.5 347.0,66.2 348.2,66.0 349.5,70.1 350.7,69.3 352.0,67.7 353.2,67.2 354.5,66.5 355.8,65.6 357.0,65.1 358.3,64.8 359.5,64.2 360.8,63.3 362.0,62.7 363.3,62.5 364.5,62.1 365.8,61.9 367.0,61.4 368.3,61.0 369.5,60.5 370.8,60.2 372.0,59.8 373.3,59.6 374.5,59.3 375.8,59.1 377.1,58.8 378.3,58.6 379.6,58.2 380.8,57.9 382.1,57.5 383.3,56.9 384.6,56.6 385.8,56.4 387.1,56.2 388.3,56.0 389.6,55.7 390.8,55.3 392.1,55.1 393.3,54.2 394.6,53.6 395.8,53.3 397.1,53.1 398.4,52.9 399.6,52.4 400.9,52.1 402.1,51.6 403.4,51.3 404.6,51.0 405.9,50.7 407.1,50.3 408.4,50.1 409.6,49.9 410.9,49.8 412.1,49.6 413.4,49.4 414.6,49.2 415.9,49.0 417.1,48.8 418.4,48.7 419.7,48.4 420.9,48.2 422.2,48.1 423.4,47.9 424.7,47.7 425.9,47.6 427.2,47.4 428.4,47.3 429.7,47.2 430.9,47.1 432.2,46.9 433.4,46.7 434.7,46.6 435.9,46.4 437.2,46.2 438.4,46.1 439.7,45.9 441.0,45.8 442.2,45.7 443.5,45.5 444.7,45.4 446.0,45.3 447.2,45.2 448.5,45.0 449.7,44.8 451.0,44.7 452.2,44.5 453.5,44.3 454.7,44.1 456.0,43.9 457.2,43.7 458.5,43.6 459.7,43.3 461.0,43.1 462.3,43.0 463.5,42.7 464.8,42.5 466.0,42.3 467.3,42.1 468.5,41.8 469.8,41.7 471.0,41.6 472.3,41.5 473.5,41.4 474.8,41.2 476.0,41.1 477.3,40.9 478.5,40.7 479.8,40.5 481.0,40.3 482.3,40.1 483.5,39.9 484.8,39.6 486.1,39.5 487.3,39.3 488.6,39.2 489.8,39.1 491.1,39.0 492.3,38.8 493.6,38.6 494.8,38.5 496.1,38.2 497.3,38.1 498.6,37.9 499.8,37.8 501.1,37.7 502.3,37.6 503.6,37.5 504.8,37.4 506.1,37.2 507.4,37.1 508.6,37.0 509.9,36.8 511.1,36.6 512.4,36.5 513.6,36.4 514.9,36.2 516.1,36.1 517.4,36.0 518.6,35.9 519.9,35.7 521.1,35.6 522.4,35.4 523.6,35.2 524.9,35.0 526.1,34.7 527.4,34.6 528.7,34.6 529.9,34.5 531.2,34.3 532.4,34.3 533.7,34.2 534.9,34.1 536.2,34.0 537.4,33.9 538.7,33.7 539.9,33.6 541.2,33.4 542.4,33.2 543.7,33.1 544.9,33.0 546.2,32.9 547.4,32.7 548.7,32.6 550.0,32.5 551.2,32.4 552.5,32.3 553.7,32.1 555.0,31.8 556.2,31.6 557.5,31.4 558.7,31.3 560.0,31.1 561.2,30.9 562.5,30.8 563.7,30.7 565.0,30.6 566.2,30.5 567.5,30.4 568.7,30.2 570.0,30.0" />
  
  <!-- Punto finale luminoso -->
  <circle cx="570.0" cy="30.0" r="4" fill="#ffffff" stroke="#0366d6" stroke-width="2.5" />
</svg>