<svg width="600" height="150" viewBox="0 0 600 150" xmlns="http://www.w3.org/2000/svg">
  <defs>
    <filter id="shadow2" x="-2%" y="-2%" width="104%" height="108%">
      <feDropShadow dx="0" dy="2" stdDeviation="3" flood-opacity="0.1" />
    </filter>
    <linearGradient id="fillGrad" x1="0" y1="0" x2="0" y2="1">
      <stop offset="0%" stop-color="#0366d6" stop-opacity="0.3"/>
      <stop offset="100%" stop-color="#0366d6" stop-opacity="0.02"/>
    </linearGradient>
  </defs>
  <rect width="600" height="150" rx="12" fill="#ffffff" filter="url(#shadow2)" stroke="#e1e4e8" stroke-width="1"/>
  <text x="20" y="24" fill="#2b3137" font-family="-apple-system,BlinkMacSystemFont,'Segoe UI',Helvetica,Arial,sans-serif" font-size="14" font-weight="600">📈 Download Growth (Actual: 83.7k)</text>
  
  <!-- Area sotto la linea -->
  <polygon fill="url(#fillGrad)" points="30.0,120.0,120 30.0,120.0 31.7,119.4 33.4,118.7 35.1,118.2 36.8,118.0 38.5,117.7 40.2,117.0 41.8,116.6 43.5,116.3 45.2,115.5 46.9,115.2 48.6,114.8 50.3,114.6 52.0,114.3 53.7,113.8 55.4,113.3 57.1,112.9 58.8,112.6 60.5,112.4 62.2,112.1 63.9,111.7 65.5,111.4 67.2,111.2 68.9,110.9 70.6,109.8 72.3,109.4 74.0,109.0 75.7,108.6 77.4,108.2 79.1,107.8 80.8,107.5 82.5,107.3 84.2,107.0 85.9,106.5 87.6,106.0 89.2,105.7 90.9,105.3 92.6,105.2 94.3,105.1 96.0,104.9 97.7,104.5 99.4,104.3 101.1,104.2 102.8,103.8 104.5,103.2 106.2,103.0 107.9,102.9 109.6,102.7 111.3,102.2 112.9,101.8 114.6,101.3 116.3,101.0 118.0,100.5 119.7,100.5 121.4,100.2 123.1,99.7 124.8,99.3 126.5,98.9 128.2,98.8 129.9,98.5 131.6,98.3 133.3,97.8 135.0,97.4 136.6,96.9 138.3,96.5 140.0,96.3 141.7,96.2 143.4,96.0 145.1,95.6 146.8,95.4 148.5,95.2 150.2,95.1 151.9,94.9 153.6,94.7 155.3,94.5 157.0,94.4 158.7,94.3 160.3,93.8 162.0,93.5 163.7,93.5 165.4,93.3 167.1,93.2 168.8,93.2 170.5,100.9 172.2,100.1 173.9,99.4 175.6,98.7 177.3,96.6 179.0,95.2 180.7,93.6 182.4,93.0 184.0,92.4 185.7,91.3 187.4,90.1 189.1,89.3 190.8,89.0 192.5,88.6 194.2,87.8 195.9,87.2 197.6,86.8 199.3,86.3 201.0,86.1 202.7,86.0 204.4,85.6 206.1,84.9 207.7,84.4 209.4,83.8 211.1,83.3 212.8,83.0 214.5,82.8 216.2,82.3 217.9,81.8 219.6,81.4 221.3,81.1 223.0,80.9 224.7,80.8 226.4,80.6 228.1,80.2 229.7,79.9 231.4,79.6 233.1,79.4 234.8,79.2 236.5,79.0 238.2,78.8 239.9,78.6 241.6,78.4 243.3,78.0 245.0,77.7 246.7,77.4 248.4,77.2 250.1,76.9 251.8,76.8 253.4,76.6 255.1,76.4 256.8,75.9 258.5,75.5 260.2,75.0 261.9,74.9 263.6,74.8 265.3,74.6 267.0,74.4 268.7,74.1 270.4,73.8 272.1,73.5 273.8,73.2 275.5,73.1 277.1,72.9 278.8,72.8 280.5,72.6 282.2,72.4 283.9,72.2 285.6,71.9 287.3,71.7 289.0,71.6 290.7,71.5 292.4,71.4 294.1,71.1 295.8,70.9 297.5,70.6 299.2,70.4 300.8,70.1 302.5,69.9 304.2,69.8 305.9,69.7 307.6,69.3 309.3,69.0 311.0,68.8 312.7,68.5 314.4,68.1 316.1,68.0 317.8,67.9 319.5,67.8 321.2,67.5 322.9,67.4 324.5,67.1 326.2,67.0 327.9,66.8 329.6,66.6 331.3,66.4 333.0,66.3 334.7,66.2 336.4,66.0 338.1,65.7 339.8,65.5 341.5,65.3 343.2,65.2 344.9,65.0 346.6,64.8 348.2,64.7 349.9,64.6 351.6,64.4 353.3,64.1 355.0,63.7 356.7,63.5 358.4,63.3 360.1,63.2 361.8,63.1 363.5,62.9 365.2,62.6 366.9,62.4 368.6,62.3 370.3,62.1 371.9,61.9 373.6,61.7 375.3,61.6 377.0,61.5 378.7,61.2 380.4,61.0 382.1,60.7 383.8,60.5 385.5,60.4 387.2,60.3 388.9,60.2 390.6,60.1 392.3,59.9 393.9,59.7 395.6,59.5 397.3,59.3 399.0,59.2 400.7,59.0 402.4,58.9 404.1,58.7 405.8,58.5 407.5,58.2 409.2,58.0 410.9,57.8 412.6,57.7 414.3,57.6 416.0,57.5 417.6,57.4 419.3,57.3 421.0,57.1 422.7,56.8 424.4,56.7 426.1,56.5 427.8,56.4 429.5,56.2 431.2,56.1 432.9,55.9 434.6,55.7 436.3,55.6 438.0,55.4 439.7,55.2 441.3,55.0 443.0,54.9 444.7,54.8 446.4,54.7 448.1,54.5 449.8,54.4 451.5,54.2 453.2,54.1 454.9,54.1 456.6,53.9 458.3,53.5 460.0,53.3 461.7,58.3 463.4,57.3 465.0,55.4 466.7,54.7 468.4,53.8 470.1,52.7 471.8,52.2 473.5,51.8 475.2,51.0 476.9,50.0 478.6,49.1 480.3,48.9 482.0,48.5 483.7,48.2 485.4,47.6 487.1,47.1 488.7,46.5 490.4,46.2 492.1,45.6 493.8,45.3 495.5,45.0 497.2,44.7 498.9,44.4 500.6,44.2 502.3,43.6 504.0,43.2 505.7,42.7 507.4,42.0 509.1,41.6 510.8,41.4 512.4,41.2 514.1,40.9 515.8,40.5 517.5,40.1 519.2,39.8 520.9,38.8 522.6,38.0 524.3,37.6 526.0,37.4 527.7,37.0 529.4,36.5 531.1,36.1 532.8,35.4 534.5,35.1 536.1,34.7 537.8,34.3 539.5,33.9 541.2,33.6 542.9,33.4 544.6,33.2 546.3,33.0 548.0,32.7 549.7,32.5 551.4,32.3 553.1,32.0 554.8,31.8 556.5,31.5 558.2,31.3 559.8,31.1 561.5,30.9 563.2,30.7 564.9,30.5 566.6,30.3 568.3,30.2 570.0,30.0 570.0,30.0,120" />
  
  <!-- Linea principale -->
  <polyline fill="none" stroke="#0366d6" stroke-width="2.5" stroke-linecap="round" stroke-linejoin="round" points="30.0,120.0 31.7,119.4 33.4,118.7 35.1,118.2 36.8,118.0 38.5,117.7 40.2,117.0 41.8,116.6 43.5,116.3 45.2,115.5 46.9,115.2 48.6,114.8 50.3,114.6 52.0,114.3 53.7,113.8 55.4,113.3 57.1,112.9 58.8,112.6 60.5,112.4 62.2,112.1 63.9,111.7 65.5,111.4 67.2,111.2 68.9,110.9 70.6,109.8 72.3,109.4 74.0,109.0 75.7,108.6 77.4,108.2 79.1,107.8 80.8,107.5 82.5,107.3 84.2,107.0 85.9,106.5 87.6,106.0 89.2,105.7 90.9,105.3 92.6,105.2 94.3,105.1 96.0,104.9 97.7,104.5 99.4,104.3 101.1,104.2 102.8,103.8 104.5,103.2 106.2,103.0 107.9,102.9 109.6,102.7 111.3,102.2 112.9,101.8 114.6,101.3 116.3,101.0 118.0,100.5 119.7,100.5 121.4,100.2 123.1,99.7 124.8,99.3 126.5,98.9 128.2,98.8 129.9,98.5 131.6,98.3 133.3,97.8 135.0,97.4 136.6,96.9 138.3,96.5 140.0,96.3 141.7,96.2 143.4,96.0 145.1,95.6 146.8,95.4 148.5,95.2 150.2,95.1 151.9,94.9 153.6,94.7 155.3,94.5 157.0,94.4 158.7,94.3 160.3,93.8 162.0,93.5 163.7,93.5 165.4,93.3 167.1,93.2 168.8,93.2 170.5,100.9 172.2,100.1 173.9,99.4 175.6,98.7 177.3,96.6 179.0,95.2 180.7,93.6 182.4,93.0 184.0,92.4 185.7,91.3 187.4,90.1 189.1,89.3 190.8,89.0 192.5,88.6 194.2,87.8 195.9,87.2 197.6,86.8 199.3,86.3 201.0,86.1 202.7,86.0 204.4,85.6 206.1,84.9 207.7,84.4 209.4,83.8 211.1,83.3 212.8,83.0 214.5,82.8 216.2,82.3 217.9,81.8 219.6,81.4 221.3,81.1 223.0,80.9 224.7,80.8 226.4,80.6 228.1,80.2 229.7,79.9 231.4,79.6 233.1,79.4 234.8,79.2 236.5,79.0 238.2,78.8 239.9,78.6 241.6,78.4 243.3,78.0 245.0,77.7 246.7,77.4 248.4,77.2 250.1,76.9 251.8,76.8 253.4,76.6 255.1,76.4 256.8,75.9 258.5,75.5 260.2,75.0 261.9,74.9 263.6,74.8 265.3,74.6 267.0,74.4 268.7,74.1 270.4,73.8 272.1,73.5 273.8,73.2 275.5,73.1 277.1,72.9 278.8,72.8 280.5,72.6 282.2,72.4 283.9,72.2 285.6,71.9 287.3,71.7 289.0,71.6 290.7,71.5 292.4,71.4 294.1,71.1 295.8,70.9 297.5,70.6 299.2,70.4 300.8,70.1 302.5,69.9 304.2,69.8 305.9,69.7 307.6,69.3 309.3,69.0 311.0,68.8 312.7,68.5 314.4,68.1 316.1,68.0 317.8,67.9 319.5,67.8 321.2,67.5 322.9,67.4 324.5,67.1 326.2,67.0 327.9,66.8 329.6,66.6 331.3,66.4 333.0,66.3 334.7,66.2 336.4,66.0 338.1,65.7 339.8,65.5 341.5,65.3 343.2,65.2 344.9,65.0 346.6,64.8 348.2,64.7 349.9,64.6 351.6,64.4 353.3,64.1 355.0,63.7 356.7,63.5 358.4,63.3 360.1,63.2 361.8,63.1 363.5,62.9 365.2,62.6 366.9,62.4 368.6,62.3 370.3,62.1 371.9,61.9 373.6,61.7 375.3,61.6 377.0,61.5 378.7,61.2 380.4,61.0 382.1,60.7 383.8,60.5 385.5,60.4 387.2,60.3 388.9,60.2 390.6,60.1 392.3,59.9 393.9,59.7 395.6,59.5 397.3,59.3 399.0,59.2 400.7,59.0 402.4,58.9 404.1,58.7 405.8,58.5 407.5,58.2 409.2,58.0 410.9,57.8 412.6,57.7 414.3,57.6 416.0,57.5 417.6,57.4 419.3,57.3 421.0,57.1 422.7,56.8 424.4,56.7 426.1,56.5 427.8,56.4 429.5,56.2 431.2,56.1 432.9,55.9 434.6,55.7 436.3,55.6 438.0,55.4 439.7,55.2 441.3,55.0 443.0,54.9 444.7,54.8 446.4,54.7 448.1,54.5 449.8,54.4 451.5,54.2 453.2,54.1 454.9,54.1 456.6,53.9 458.3,53.5 460.0,53.3 461.7,58.3 463.4,57.3 465.0,55.4 466.7,54.7 468.4,53.8 470.1,52.7 471.8,52.2 473.5,51.8 475.2,51.0 476.9,50.0 478.6,49.1 480.3,48.9 482.0,48.5 483.7,48.2 485.4,47.6 487.1,47.1 488.7,46.5 490.4,46.2 492.1,45.6 493.8,45.3 495.5,45.0 497.2,44.7 498.9,44.4 500.6,44.2 502.3,43.6 504.0,43.2 505.7,42.7 507.4,42.0 509.1,41.6 510.8,41.4 512.4,41.2 514.1,40.9 515.8,40.5 517.5,40.1 519.2,39.8 520.9,38.8 522.6,38.0 524.3,37.6 526.0,37.4 527.7,37.0 529.4,36.5 531.1,36.1 532.8,35.4 534.5,35.1 536.1,34.7 537.8,34.3 539.5,33.9 541.2,33.6 542.9,33.4 544.6,33.2 546.3,33.0 548.0,32.7 549.7,32.5 551.4,32.3 553.1,32.0 554.8,31.8 556.5,31.5 558.2,31.3 559.8,31.1 561.5,30.9 563.2,30.7 564.9,30.5 566.6,30.3 568.3,30.2 570.0,30.0" />
  
  <!-- Punto finale luminoso -->
  <circle cx="570.0" cy="30.0" r="4" fill="#ffffff" stroke="#0366d6" stroke-width="2.5" />
</svg>