<svg width="600" height="150" viewBox="0 0 600 150" xmlns="http://www.w3.org/2000/svg">
  <defs>
    <filter id="shadow2" x="-2%" y="-2%" width="104%" height="108%">
      <feDropShadow dx="0" dy="2" stdDeviation="3" flood-opacity="0.1" />
    </filter>
    <linearGradient id="fillGrad" x1="0" y1="0" x2="0" y2="1">
      <stop offset="0%" stop-color="#0366d6" stop-opacity="0.3"/>
      <stop offset="100%" stop-color="#0366d6" stop-opacity="0.02"/>
    </linearGradient>
  </defs>
  <rect width="600" height="150" rx="12" fill="#ffffff" filter="url(#shadow2)" stroke="#e1e4e8" stroke-width="1"/>
  <text x="20" y="24" fill="#2b3137" font-family="-apple-system,BlinkMacSystemFont,'Segoe UI',Helvetica,Arial,sans-serif" font-size="14" font-weight="600">📈 Download Growth (Actual: 84.0k)</text>
  
  <!-- Area sotto la linea -->
  <polygon fill="url(#fillGrad)" points="30.0,120.0,120 30.0,120.0 31.6,119.4 33.3,118.8 34.9,118.2 36.6,118.1 38.2,117.8 39.8,117.1 41.5,116.6 43.1,116.3 44.8,115.6 46.4,115.3 48.1,114.9 49.7,114.7 51.3,114.4 53.0,113.9 54.6,113.4 56.3,113.0 57.9,112.8 59.5,112.6 61.2,112.3 62.8,111.9 64.5,111.6 66.1,111.4 67.8,111.1 69.4,110.0 71.0,109.7 72.7,109.2 74.3,108.8 76.0,108.4 77.6,108.0 79.2,107.8 80.9,107.6 82.5,107.3 84.2,106.8 85.8,106.3 87.4,106.0 89.1,105.6 90.7,105.5 92.4,105.4 94.0,105.2 95.7,104.9 97.3,104.6 98.9,104.5 100.6,104.1 102.2,103.5 103.9,103.3 105.5,103.2 107.1,103.0 108.8,102.5 110.4,102.2 112.1,101.7 113.7,101.4 115.3,100.9 117.0,100.8 118.6,100.6 120.3,100.1 121.9,99.7 123.6,99.4 125.2,99.2 126.8,99.0 128.5,98.8 130.1,98.3 131.8,97.8 133.4,97.4 135.0,97.0 136.7,96.8 138.3,96.7 140.0,96.5 141.6,96.1 143.3,95.9 144.9,95.7 146.5,95.6 148.2,95.4 149.8,95.2 151.5,95.0 153.1,94.9 154.7,94.8 156.4,94.3 158.0,94.1 159.7,94.0 161.3,93.8 162.9,93.7 164.6,93.7 166.2,101.3 167.9,100.5 169.5,99.9 171.2,99.2 172.8,97.1 174.4,95.7 176.1,94.1 177.7,93.6 179.4,92.9 181.0,91.9 182.6,90.7 184.3,89.9 185.9,89.6 187.6,89.3 189.2,88.5 190.9,87.9 192.5,87.5 194.1,87.0 195.8,86.8 197.4,86.7 199.1,86.3 200.7,85.6 202.3,85.1 204.0,84.6 205.6,84.0 207.3,83.7 208.9,83.5 210.5,83.0 212.2,82.6 213.8,82.2 215.5,81.9 217.1,81.7 218.8,81.6 220.4,81.4 222.0,81.0 223.7,80.7 225.3,80.4 227.0,80.2 228.6,80.0 230.2,79.8 231.9,79.6 233.5,79.4 235.2,79.2 236.8,78.8 238.4,78.6 240.1,78.2 241.7,78.0 243.4,77.8 245.0,77.7 246.7,77.5 248.3,77.3 249.9,76.8 251.6,76.4 253.2,75.9 254.9,75.8 256.5,75.7 258.1,75.5 259.8,75.3 261.4,75.0 263.1,74.7 264.7,74.4 266.4,74.2 268.0,74.1 269.6,73.9 271.3,73.7 272.9,73.6 274.6,73.4 276.2,73.2 277.8,72.9 279.5,72.7 281.1,72.6 282.8,72.4 284.4,72.3 286.0,72.1 287.7,71.8 289.3,71.6 291.0,71.4 292.6,71.1 294.3,70.9 295.9,70.8 297.5,70.7 299.2,70.3 300.8,70.0 302.5,69.8 304.1,69.6 305.7,69.1 307.4,69.0 309.0,68.9 310.7,68.8 312.3,68.6 314.0,68.4 315.6,68.2 317.2,68.0 318.9,67.8 320.5,67.7 322.2,67.5 323.8,67.4 325.4,67.3 327.1,67.1 328.7,66.8 330.4,66.6 332.0,66.4 333.6,66.3 335.3,66.1 336.9,65.9 338.6,65.8 340.2,65.7 341.9,65.5 343.5,65.2 345.1,64.8 346.8,64.6 348.4,64.4 350.1,64.3 351.7,64.3 353.3,64.1 355.0,63.7 356.6,63.6 358.3,63.5 359.9,63.3 361.6,63.1 363.2,62.9 364.8,62.8 366.5,62.6 368.1,62.4 369.8,62.2 371.4,61.9 373.0,61.7 374.7,61.6 376.3,61.5 378.0,61.4 379.6,61.3 381.2,61.1 382.9,60.9 384.5,60.7 386.2,60.5 387.8,60.4 389.5,60.3 391.1,60.1 392.7,60.0 394.4,59.7 396.0,59.5 397.7,59.3 399.3,59.1 400.9,59.0 402.6,58.9 404.2,58.8 405.9,58.6 407.5,58.5 409.1,58.4 410.8,58.1 412.4,57.9 414.1,57.8 415.7,57.7 417.4,57.5 419.0,57.3 420.6,57.1 422.3,57.0 423.9,56.9 425.6,56.7 427.2,56.5 428.8,56.4 430.5,56.2 432.1,56.1 433.8,56.0 435.4,55.8 437.1,55.7 438.7,55.6 440.3,55.4 442.0,55.4 443.6,55.2 445.3,54.9 446.9,54.6 448.5,59.5 450.2,58.6 451.8,56.7 453.5,56.0 455.1,55.2 456.7,54.1 458.4,53.5 460.0,53.1 461.7,52.4 463.3,51.4 465.0,50.6 466.6,50.3 468.2,49.9 469.9,49.6 471.5,49.0 473.2,48.5 474.8,47.9 476.4,47.7 478.1,47.1 479.7,46.8 481.4,46.5 483.0,46.2 484.7,45.9 486.3,45.7 487.9,45.1 489.6,44.8 491.2,44.3 492.9,43.6 494.5,43.2 496.1,43.0 497.8,42.8 499.4,42.5 501.1,42.1 502.7,41.7 504.3,41.4 506.0,40.4 507.6,39.6 509.3,39.2 510.9,39.0 512.6,38.7 514.2,38.2 515.8,37.7 517.5,37.1 519.1,36.8 520.8,36.4 522.4,36.1 524.0,35.6 525.7,35.4 527.3,35.2 529.0,35.0 530.6,34.8 532.2,34.5 533.9,34.3 535.5,34.0 537.2,33.8 538.8,33.6 540.5,33.3 542.1,33.1 543.7,32.9 545.4,32.7 547.0,32.5 548.7,32.3 550.3,32.1 551.9,32.0 553.6,31.8 555.2,31.7 556.9,31.5 558.5,31.3 560.2,31.1 561.8,30.9 563.4,30.6 565.1,30.5 566.7,30.3 568.4,30.1 570.0,30.0 570.0,30.0,120" />
  
  <!-- Linea principale -->
  <polyline fill="none" stroke="#0366d6" stroke-width="2.5" stroke-linecap="round" stroke-linejoin="round" points="30.0,120.0 31.6,119.4 33.3,118.8 34.9,118.2 36.6,118.1 38.2,117.8 39.8,117.1 41.5,116.6 43.1,116.3 44.8,115.6 46.4,115.3 48.1,114.9 49.7,114.7 51.3,114.4 53.0,113.9 54.6,113.4 56.3,113.0 57.9,112.8 59.5,112.6 61.2,112.3 62.8,111.9 64.5,111.6 66.1,111.4 67.8,111.1 69.4,110.0 71.0,109.7 72.7,109.2 74.3,108.8 76.0,108.4 77.6,108.0 79.2,107.8 80.9,107.6 82.5,107.3 84.2,106.8 85.8,106.3 87.4,106.0 89.1,105.6 90.7,105.5 92.4,105.4 94.0,105.2 95.7,104.9 97.3,104.6 98.9,104.5 100.6,104.1 102.2,103.5 103.9,103.3 105.5,103.2 107.1,103.0 108.8,102.5 110.4,102.2 112.1,101.7 113.7,101.4 115.3,100.9 117.0,100.8 118.6,100.6 120.3,100.1 121.9,99.7 123.6,99.4 125.2,99.2 126.8,99.0 128.5,98.8 130.1,98.3 131.8,97.8 133.4,97.4 135.0,97.0 136.7,96.8 138.3,96.7 140.0,96.5 141.6,96.1 143.3,95.9 144.9,95.7 146.5,95.6 148.2,95.4 149.8,95.2 151.5,95.0 153.1,94.9 154.7,94.8 156.4,94.3 158.0,94.1 159.7,94.0 161.3,93.8 162.9,93.7 164.6,93.7 166.2,101.3 167.9,100.5 169.5,99.9 171.2,99.2 172.8,97.1 174.4,95.7 176.1,94.1 177.7,93.6 179.4,92.9 181.0,91.9 182.6,90.7 184.3,89.9 185.9,89.6 187.6,89.3 189.2,88.5 190.9,87.9 192.5,87.5 194.1,87.0 195.8,86.8 197.4,86.7 199.1,86.3 200.7,85.6 202.3,85.1 204.0,84.6 205.6,84.0 207.3,83.7 208.9,83.5 210.5,83.0 212.2,82.6 213.8,82.2 215.5,81.9 217.1,81.7 218.8,81.6 220.4,81.4 222.0,81.0 223.7,80.7 225.3,80.4 227.0,80.2 228.6,80.0 230.2,79.8 231.9,79.6 233.5,79.4 235.2,79.2 236.8,78.8 238.4,78.6 240.1,78.2 241.7,78.0 243.4,77.8 245.0,77.7 246.7,77.5 248.3,77.3 249.9,76.8 251.6,76.4 253.2,75.9 254.9,75.8 256.5,75.7 258.1,75.5 259.8,75.3 261.4,75.0 263.1,74.7 264.7,74.4 266.4,74.2 268.0,74.1 269.6,73.9 271.3,73.7 272.9,73.6 274.6,73.4 276.2,73.2 277.8,72.9 279.5,72.7 281.1,72.6 282.8,72.4 284.4,72.3 286.0,72.1 287.7,71.8 289.3,71.6 291.0,71.4 292.6,71.1 294.3,70.9 295.9,70.8 297.5,70.7 299.2,70.3 300.8,70.0 302.5,69.8 304.1,69.6 305.7,69.1 307.4,69.0 309.0,68.9 310.7,68.8 312.3,68.6 314.0,68.4 315.6,68.2 317.2,68.0 318.9,67.8 320.5,67.7 322.2,67.5 323.8,67.4 325.4,67.3 327.1,67.1 328.7,66.8 330.4,66.6 332.0,66.4 333.6,66.3 335.3,66.1 336.9,65.9 338.6,65.8 340.2,65.7 341.9,65.5 343.5,65.2 345.1,64.8 346.8,64.6 348.4,64.4 350.1,64.3 351.7,64.3 353.3,64.1 355.0,63.7 356.6,63.6 358.3,63.5 359.9,63.3 361.6,63.1 363.2,62.9 364.8,62.8 366.5,62.6 368.1,62.4 369.8,62.2 371.4,61.9 373.0,61.7 374.7,61.6 376.3,61.5 378.0,61.4 379.6,61.3 381.2,61.1 382.9,60.9 384.5,60.7 386.2,60.5 387.8,60.4 389.5,60.3 391.1,60.1 392.7,60.0 394.4,59.7 396.0,59.5 397.7,59.3 399.3,59.1 400.9,59.0 402.6,58.9 404.2,58.8 405.9,58.6 407.5,58.5 409.1,58.4 410.8,58.1 412.4,57.9 414.1,57.8 415.7,57.7 417.4,57.5 419.0,57.3 420.6,57.1 422.3,57.0 423.9,56.9 425.6,56.7 427.2,56.5 428.8,56.4 430.5,56.2 432.1,56.1 433.8,56.0 435.4,55.8 437.1,55.7 438.7,55.6 440.3,55.4 442.0,55.4 443.6,55.2 445.3,54.9 446.9,54.6 448.5,59.5 450.2,58.6 451.8,56.7 453.5,56.0 455.1,55.2 456.7,54.1 458.4,53.5 460.0,53.1 461.7,52.4 463.3,51.4 465.0,50.6 466.6,50.3 468.2,49.9 469.9,49.6 471.5,49.0 473.2,48.5 474.8,47.9 476.4,47.7 478.1,47.1 479.7,46.8 481.4,46.5 483.0,46.2 484.7,45.9 486.3,45.7 487.9,45.1 489.6,44.8 491.2,44.3 492.9,43.6 494.5,43.2 496.1,43.0 497.8,42.8 499.4,42.5 501.1,42.1 502.7,41.7 504.3,41.4 506.0,40.4 507.6,39.6 509.3,39.2 510.9,39.0 512.6,38.7 514.2,38.2 515.8,37.7 517.5,37.1 519.1,36.8 520.8,36.4 522.4,36.1 524.0,35.6 525.7,35.4 527.3,35.2 529.0,35.0 530.6,34.8 532.2,34.5 533.9,34.3 535.5,34.0 537.2,33.8 538.8,33.6 540.5,33.3 542.1,33.1 543.7,32.9 545.4,32.7 547.0,32.5 548.7,32.3 550.3,32.1 551.9,32.0 553.6,31.8 555.2,31.7 556.9,31.5 558.5,31.3 560.2,31.1 561.8,30.9 563.4,30.6 565.1,30.5 566.7,30.3 568.4,30.1 570.0,30.0" />
  
  <!-- Punto finale luminoso -->
  <circle cx="570.0" cy="30.0" r="4" fill="#ffffff" stroke="#0366d6" stroke-width="2.5" />
</svg>