<svg width="600" height="150" viewBox="0 0 600 150" xmlns="http://www.w3.org/2000/svg">
  <defs>
    <filter id="shadow2" x="-2%" y="-2%" width="104%" height="108%">
      <feDropShadow dx="0" dy="2" stdDeviation="3" flood-opacity="0.1" />
    </filter>
    <linearGradient id="fillGrad" x1="0" y1="0" x2="0" y2="1">
      <stop offset="0%" stop-color="#0366d6" stop-opacity="0.3"/>
      <stop offset="100%" stop-color="#0366d6" stop-opacity="0.02"/>
    </linearGradient>
  </defs>
  <rect width="600" height="150" rx="12" fill="#ffffff" filter="url(#shadow2)" stroke="#e1e4e8" stroke-width="1"/>
  <text x="20" y="24" fill="#2b3137" font-family="-apple-system,BlinkMacSystemFont,'Segoe UI',Helvetica,Arial,sans-serif" font-size="14" font-weight="600">📈 Download Growth (Actual: 85.0k)</text>
  
  <!-- Area sotto la linea -->
  <polygon fill="url(#fillGrad)" points="30.0,120.0,120 30.0,120.0 31.5,119.4 33.1,118.8 34.6,118.3 36.1,118.2 37.6,117.9 39.2,117.2 40.7,116.8 42.2,116.5 43.8,115.9 45.3,115.5 46.8,115.2 48.4,115.0 49.9,114.7 51.4,114.2 52.9,113.8 54.5,113.4 56.0,113.1 57.5,113.0 59.1,112.7 60.6,112.3 62.1,112.0 63.7,111.9 65.2,111.6 66.7,110.5 68.2,110.2 69.8,109.8 71.3,109.4 72.8,109.0 74.4,108.7 75.9,108.4 77.4,108.3 79.0,108.0 80.5,107.5 82.0,107.0 83.5,106.7 85.1,106.4 86.6,106.3 88.1,106.2 89.7,106.0 91.2,105.7 92.7,105.5 94.2,105.3 95.8,104.9 97.3,104.4 98.8,104.2 100.4,104.1 101.9,103.9 103.4,103.5 105.0,103.2 106.5,102.7 108.0,102.4 109.5,101.9 111.1,101.9 112.6,101.6 114.1,101.2 115.7,100.8 117.2,100.4 118.7,100.3 120.3,100.1 121.8,99.9 123.3,99.4 124.8,99.0 126.4,98.6 127.9,98.2 129.4,98.0 131.0,97.9 132.5,97.7 134.0,97.4 135.6,97.2 137.1,97.0 138.6,96.8 140.1,96.7 141.7,96.5 143.2,96.3 144.7,96.2 146.3,96.1 147.8,95.7 149.3,95.5 150.8,95.4 152.4,95.2 153.9,95.1 155.4,95.1 157.0,102.2 158.5,101.5 160.0,100.9 161.6,100.3 163.1,98.3 164.6,97.0 166.1,95.5 167.7,95.0 169.2,94.4 170.7,93.4 172.3,92.3 173.8,91.5 175.3,91.2 176.9,90.9 178.4,90.1 179.9,89.6 181.4,89.2 183.0,88.7 184.5,88.5 186.0,88.5 187.6,88.1 189.1,87.4 190.6,86.9 192.2,86.4 193.7,85.9 195.2,85.7 196.7,85.5 198.3,85.0 199.8,84.6 201.3,84.2 202.9,83.9 204.4,83.7 205.9,83.6 207.5,83.4 209.0,83.0 210.5,82.8 212.0,82.5 213.6,82.3 215.1,82.1 216.6,81.9 218.2,81.7 219.7,81.6 221.2,81.4 222.7,81.0 224.3,80.8 225.8,80.4 227.3,80.2 228.9,80.0 230.4,79.9 231.9,79.7 233.5,79.6 235.0,79.0 236.5,78.7 238.0,78.3 239.6,78.1 241.1,78.1 242.6,77.9 244.2,77.6 245.7,77.4 247.2,77.1 248.8,76.8 250.3,76.6 251.8,76.5 253.3,76.3 254.9,76.2 256.4,76.1 257.9,75.8 259.5,75.7 261.0,75.4 262.5,75.2 264.1,75.1 265.6,75.0 267.1,74.9 268.6,74.6 270.2,74.4 271.7,74.1 273.2,73.9 274.8,73.7 276.3,73.5 277.8,73.4 279.3,73.3 280.9,73.0 282.4,72.7 283.9,72.5 285.5,72.2 287.0,71.8 288.5,71.7 290.1,71.6 291.6,71.5 293.1,71.3 294.6,71.1 296.2,70.9 297.7,70.8 299.2,70.6 300.8,70.4 302.3,70.3 303.8,70.1 305.4,70.1 306.9,69.9 308.4,69.6 309.9,69.5 311.5,69.2 313.0,69.1 314.5,69.0 316.1,68.8 317.6,68.7 319.1,68.6 320.7,68.4 322.2,68.1 323.7,67.7 325.2,67.5 326.8,67.4 328.3,67.3 329.8,67.2 331.4,67.0 332.9,66.7 334.4,66.6 335.9,66.5 337.5,66.3 339.0,66.1 340.5,65.9 342.1,65.8 343.6,65.7 345.1,65.4 346.7,65.2 348.2,65.0 349.7,64.8 351.2,64.7 352.8,64.6 354.3,64.5 355.8,64.4 357.4,64.2 358.9,64.0 360.4,63.9 362.0,63.7 363.5,63.6 365.0,63.4 366.5,63.3 368.1,63.1 369.6,62.9 371.1,62.7 372.7,62.5 374.2,62.3 375.7,62.2 377.3,62.1 378.8,62.0 380.3,61.9 381.8,61.8 383.4,61.6 384.9,61.4 386.4,61.2 388.0,61.1 389.5,61.0 391.0,60.8 392.5,60.7 394.1,60.5 395.6,60.3 397.1,60.2 398.7,60.1 400.2,59.9 401.7,59.7 403.3,59.6 404.8,59.5 406.3,59.4 407.8,59.2 409.4,59.1 410.9,59.0 412.4,58.8 414.0,58.8 415.5,58.7 417.0,58.3 418.6,58.1 420.1,62.7 421.6,61.8 423.1,60.1 424.7,59.4 426.2,58.6 427.7,57.6 429.3,57.1 430.8,56.7 432.3,56.0 433.9,55.0 435.4,54.2 436.9,54.0 438.4,53.6 440.0,53.3 441.5,52.8 443.0,52.3 444.6,51.7 446.1,51.5 447.6,51.0 449.2,50.7 450.7,50.4 452.2,50.1 453.7,49.9 455.3,49.6 456.8,49.1 458.3,48.8 459.9,48.3 461.4,47.7 462.9,47.3 464.4,47.1 466.0,46.9 467.5,46.6 469.0,46.2 470.6,45.9 472.1,45.5 473.6,44.6 475.2,43.9 476.7,43.5 478.2,43.3 479.7,43.0 481.3,42.5 482.8,42.1 484.3,41.5 485.9,41.2 487.4,40.8 488.9,40.5 490.5,40.1 492.0,39.8 493.5,39.7 495.0,39.5 496.6,39.3 498.1,39.0 499.6,38.8 501.2,38.6 502.7,38.4 504.2,38.2 505.8,37.9 507.3,37.7 508.8,37.5 510.3,37.3 511.9,37.1 513.4,36.9 514.9,36.8 516.5,36.6 518.0,36.5 519.5,36.4 521.0,36.2 522.6,36.0 524.1,35.8 525.6,35.6 527.2,35.4 528.7,35.2 530.2,35.0 531.8,34.9 533.3,34.8 534.8,34.6 536.3,34.4 537.9,34.3 539.4,34.2 540.9,34.0 542.5,33.8 544.0,33.7 545.5,33.4 547.1,33.2 548.6,33.0 550.1,32.8 551.6,32.5 553.2,32.4 554.7,32.1 556.2,31.9 557.8,31.7 559.3,31.4 560.8,31.1 562.4,30.9 563.9,30.6 565.4,30.4 566.9,30.3 568.5,30.1 570.0,30.0 570.0,30.0,120" />
  
  <!-- Linea principale -->
  <polyline fill="none" stroke="#0366d6" stroke-width="2.5" stroke-linecap="round" stroke-linejoin="round" points="30.0,120.0 31.5,119.4 33.1,118.8 34.6,118.3 36.1,118.2 37.6,117.9 39.2,117.2 40.7,116.8 42.2,116.5 43.8,115.9 45.3,115.5 46.8,115.2 48.4,115.0 49.9,114.7 51.4,114.2 52.9,113.8 54.5,113.4 56.0,113.1 57.5,113.0 59.1,112.7 60.6,112.3 62.1,112.0 63.7,111.9 65.2,111.6 66.7,110.5 68.2,110.2 69.8,109.8 71.3,109.4 72.8,109.0 74.4,108.7 75.9,108.4 77.4,108.3 79.0,108.0 80.5,107.5 82.0,107.0 83.5,106.7 85.1,106.4 86.6,106.3 88.1,106.2 89.7,106.0 91.2,105.7 92.7,105.5 94.2,105.3 95.8,104.9 97.3,104.4 98.8,104.2 100.4,104.1 101.9,103.9 103.4,103.5 105.0,103.2 106.5,102.7 108.0,102.4 109.5,101.9 111.1,101.9 112.6,101.6 114.1,101.2 115.7,100.8 117.2,100.4 118.7,100.3 120.3,100.1 121.8,99.9 123.3,99.4 124.8,99.0 126.4,98.6 127.9,98.2 129.4,98.0 131.0,97.9 132.5,97.7 134.0,97.4 135.6,97.2 137.1,97.0 138.6,96.8 140.1,96.7 141.7,96.5 143.2,96.3 144.7,96.2 146.3,96.1 147.8,95.7 149.3,95.5 150.8,95.4 152.4,95.2 153.9,95.1 155.4,95.1 157.0,102.2 158.5,101.5 160.0,100.9 161.6,100.3 163.1,98.3 164.6,97.0 166.1,95.5 167.7,95.0 169.2,94.4 170.7,93.4 172.3,92.3 173.8,91.5 175.3,91.2 176.9,90.9 178.4,90.1 179.9,89.6 181.4,89.2 183.0,88.7 184.5,88.5 186.0,88.5 187.6,88.1 189.1,87.4 190.6,86.9 192.2,86.4 193.7,85.9 195.2,85.7 196.7,85.5 198.3,85.0 199.8,84.6 201.3,84.2 202.9,83.9 204.4,83.7 205.9,83.6 207.5,83.4 209.0,83.0 210.5,82.8 212.0,82.5 213.6,82.3 215.1,82.1 216.6,81.9 218.2,81.7 219.7,81.6 221.2,81.4 222.7,81.0 224.3,80.8 225.8,80.4 227.3,80.2 228.9,80.0 230.4,79.9 231.9,79.7 233.5,79.6 235.0,79.0 236.5,78.7 238.0,78.3 239.6,78.1 241.1,78.1 242.6,77.9 244.2,77.6 245.7,77.4 247.2,77.1 248.8,76.8 250.3,76.6 251.8,76.5 253.3,76.3 254.9,76.2 256.4,76.1 257.9,75.8 259.5,75.7 261.0,75.4 262.5,75.2 264.1,75.1 265.6,75.0 267.1,74.9 268.6,74.6 270.2,74.4 271.7,74.1 273.2,73.9 274.8,73.7 276.3,73.5 277.8,73.4 279.3,73.3 280.9,73.0 282.4,72.7 283.9,72.5 285.5,72.2 287.0,71.8 288.5,71.7 290.1,71.6 291.6,71.5 293.1,71.3 294.6,71.1 296.2,70.9 297.7,70.8 299.2,70.6 300.8,70.4 302.3,70.3 303.8,70.1 305.4,70.1 306.9,69.9 308.4,69.6 309.9,69.5 311.5,69.2 313.0,69.1 314.5,69.0 316.1,68.8 317.6,68.7 319.1,68.6 320.7,68.4 322.2,68.1 323.7,67.7 325.2,67.5 326.8,67.4 328.3,67.3 329.8,67.2 331.4,67.0 332.9,66.7 334.4,66.6 335.9,66.5 337.5,66.3 339.0,66.1 340.5,65.9 342.1,65.8 343.6,65.7 345.1,65.4 346.7,65.2 348.2,65.0 349.7,64.8 351.2,64.7 352.8,64.6 354.3,64.5 355.8,64.4 357.4,64.2 358.9,64.0 360.4,63.9 362.0,63.7 363.5,63.6 365.0,63.4 366.5,63.3 368.1,63.1 369.6,62.9 371.1,62.7 372.7,62.5 374.2,62.3 375.7,62.2 377.3,62.1 378.8,62.0 380.3,61.9 381.8,61.8 383.4,61.6 384.9,61.4 386.4,61.2 388.0,61.1 389.5,61.0 391.0,60.8 392.5,60.7 394.1,60.5 395.6,60.3 397.1,60.2 398.7,60.1 400.2,59.9 401.7,59.7 403.3,59.6 404.8,59.5 406.3,59.4 407.8,59.2 409.4,59.1 410.9,59.0 412.4,58.8 414.0,58.8 415.5,58.7 417.0,58.3 418.6,58.1 420.1,62.7 421.6,61.8 423.1,60.1 424.7,59.4 426.2,58.6 427.7,57.6 429.3,57.1 430.8,56.7 432.3,56.0 433.9,55.0 435.4,54.2 436.9,54.0 438.4,53.6 440.0,53.3 441.5,52.8 443.0,52.3 444.6,51.7 446.1,51.5 447.6,51.0 449.2,50.7 450.7,50.4 452.2,50.1 453.7,49.9 455.3,49.6 456.8,49.1 458.3,48.8 459.9,48.3 461.4,47.7 462.9,47.3 464.4,47.1 466.0,46.9 467.5,46.6 469.0,46.2 470.6,45.9 472.1,45.5 473.6,44.6 475.2,43.9 476.7,43.5 478.2,43.3 479.7,43.0 481.3,42.5 482.8,42.1 484.3,41.5 485.9,41.2 487.4,40.8 488.9,40.5 490.5,40.1 492.0,39.8 493.5,39.7 495.0,39.5 496.6,39.3 498.1,39.0 499.6,38.8 501.2,38.6 502.7,38.4 504.2,38.2 505.8,37.9 507.3,37.7 508.8,37.5 510.3,37.3 511.9,37.1 513.4,36.9 514.9,36.8 516.5,36.6 518.0,36.5 519.5,36.4 521.0,36.2 522.6,36.0 524.1,35.8 525.6,35.6 527.2,35.4 528.7,35.2 530.2,35.0 531.8,34.9 533.3,34.8 534.8,34.6 536.3,34.4 537.9,34.3 539.4,34.2 540.9,34.0 542.5,33.8 544.0,33.7 545.5,33.4 547.1,33.2 548.6,33.0 550.1,32.8 551.6,32.5 553.2,32.4 554.7,32.1 556.2,31.9 557.8,31.7 559.3,31.4 560.8,31.1 562.4,30.9 563.9,30.6 565.4,30.4 566.9,30.3 568.5,30.1 570.0,30.0" />
  
  <!-- Punto finale luminoso -->
  <circle cx="570.0" cy="30.0" r="4" fill="#ffffff" stroke="#0366d6" stroke-width="2.5" />
</svg>