<svg width="600" height="150" viewBox="0 0 600 150" xmlns="http://www.w3.org/2000/svg">
  <defs>
    <filter id="shadow2" x="-2%" y="-2%" width="104%" height="108%">
      <feDropShadow dx="0" dy="2" stdDeviation="3" flood-opacity="0.1" />
    </filter>
    <linearGradient id="fillGrad" x1="0" y1="0" x2="0" y2="1">
      <stop offset="0%" stop-color="#0366d6" stop-opacity="0.3"/>
      <stop offset="100%" stop-color="#0366d6" stop-opacity="0.02"/>
    </linearGradient>
  </defs>
  <rect width="600" height="150" rx="12" fill="#ffffff" filter="url(#shadow2)" stroke="#e1e4e8" stroke-width="1"/>
  <text x="20" y="24" fill="#2b3137" font-family="-apple-system,BlinkMacSystemFont,'Segoe UI',Helvetica,Arial,sans-serif" font-size="14" font-weight="600">📈 Download Growth (Actual: 87.0k)</text>
  
  <!-- Area sotto la linea -->
  <polygon fill="url(#fillGrad)" points="30.0,120.0,120 30.0,120.0 31.3,119.5 32.6,119.0 33.9,118.5 35.2,118.4 36.5,118.1 37.8,117.5 39.1,117.1 40.4,116.9 41.7,116.3 43.0,116.0 44.3,115.7 45.7,115.5 47.0,115.2 48.3,114.8 49.6,114.4 50.9,114.1 52.2,113.8 53.5,113.7 54.8,113.4 56.1,113.1 57.4,112.8 58.7,112.7 60.0,112.4 61.3,111.5 62.6,111.2 63.9,110.8 65.2,110.5 66.5,110.1 67.8,109.8 69.1,109.6 70.4,109.5 71.7,109.2 73.0,108.7 74.3,108.3 75.7,108.1 77.0,107.8 78.3,107.7 79.6,107.6 80.9,107.4 82.2,107.1 83.5,106.9 84.8,106.8 86.1,106.5 87.4,106.0 88.7,105.8 90.0,105.7 91.3,105.5 92.6,105.1 93.9,104.9 95.2,104.5 96.5,104.2 97.8,103.8 99.1,103.7 100.4,103.5 101.7,103.1 103.0,102.7 104.3,102.4 105.7,102.3 107.0,102.1 108.3,102.0 109.6,101.5 110.9,101.1 112.2,100.8 113.5,100.4 114.8,100.3 116.1,100.1 117.4,100.0 118.7,99.7 120.0,99.5 121.3,99.4 122.6,99.2 123.9,99.1 125.2,98.9 126.5,98.7 127.8,98.7 129.1,98.6 130.4,98.2 131.7,98.0 133.0,97.9 134.3,97.8 135.7,97.7 137.0,97.7 138.3,104.1 139.6,103.4 140.9,102.9 142.2,102.3 143.5,100.5 144.8,99.3 146.1,98.0 147.4,97.5 148.7,97.0 150.0,96.1 151.3,95.1 152.6,94.4 153.9,94.1 155.2,93.9 156.5,93.2 157.8,92.7 159.1,92.3 160.4,91.9 161.7,91.8 163.0,91.7 164.3,91.3 165.7,90.7 167.0,90.3 168.3,89.9 169.6,89.4 170.9,89.2 172.2,89.0 173.5,88.6 174.8,88.2 176.1,87.9 177.4,87.6 178.7,87.4 180.0,87.4 181.3,87.1 182.6,86.8 183.9,86.6 185.2,86.4 186.5,86.2 187.8,86.0 189.1,85.8 190.4,85.6 191.7,85.5 193.0,85.3 194.3,85.0 195.7,84.8 197.0,84.5 198.3,84.3 199.6,84.1 200.9,84.0 202.2,83.8 203.5,83.7 204.8,83.2 206.1,82.9 207.4,82.5 208.7,82.4 210.0,82.3 211.3,82.2 212.6,82.0 213.9,81.7 215.2,81.5 216.5,81.2 217.8,81.0 219.1,80.9 220.4,80.8 221.7,80.7 223.0,80.5 224.3,80.4 225.7,80.2 227.0,79.9 228.3,79.8 229.6,79.7 230.9,79.6 232.2,79.5 233.5,79.2 234.8,79.0 236.1,78.8 237.4,78.6 238.7,78.4 240.0,78.3 241.3,78.2 242.6,78.1 243.9,77.8 245.2,77.5 246.5,77.3 247.8,77.1 249.1,76.8 250.4,76.7 251.7,76.6 253.0,76.5 254.3,76.3 255.7,76.1 257.0,75.9 258.3,75.8 259.6,75.6 260.9,75.5 262.2,75.4 263.5,75.2 264.8,75.2 266.1,75.0 267.4,74.7 268.7,74.6 270.0,74.4 271.3,74.3 272.6,74.2 273.9,74.0 275.2,73.9 276.5,73.8 277.8,73.7 279.1,73.4 280.4,73.1 281.7,72.9 283.0,72.7 284.3,72.7 285.7,72.6 287.0,72.4 288.3,72.2 289.6,72.0 290.9,71.9 292.2,71.8 293.5,71.6 294.8,71.4 296.1,71.3 297.4,71.2 298.7,71.0 300.0,70.8 301.3,70.6 302.6,70.4 303.9,70.3 305.2,70.3 306.5,70.2 307.8,70.1 309.1,69.9 310.4,69.8 311.7,69.6 313.0,69.4 314.3,69.3 315.7,69.2 317.0,69.1 318.3,68.9 319.6,68.7 320.9,68.5 322.2,68.4 323.5,68.2 324.8,68.1 326.1,68.0 327.4,67.9 328.7,67.8 330.0,67.7 331.3,67.6 332.6,67.4 333.9,67.2 335.2,67.1 336.5,67.0 337.8,66.9 339.1,66.7 340.4,66.6 341.7,66.4 343.0,66.3 344.3,66.2 345.7,66.0 347.0,65.9 348.3,65.7 349.6,65.7 350.9,65.6 352.2,65.5 353.5,65.3 354.8,65.2 356.1,65.1 357.4,65.1 358.7,64.9 360.0,64.6 361.3,64.4 362.6,68.6 363.9,67.8 365.2,66.2 366.5,65.6 367.8,64.9 369.1,64.0 370.4,63.5 371.7,63.1 373.0,62.5 374.3,61.6 375.7,61.0 377.0,60.8 378.3,60.4 379.6,60.1 380.9,59.7 382.2,59.2 383.5,58.7 384.8,58.5 386.1,58.0 387.4,57.8 388.7,57.5 390.0,57.3 391.3,57.0 392.6,56.8 393.9,56.3 395.2,56.0 396.5,55.6 397.8,55.0 399.1,54.7 400.4,54.5 401.7,54.4 403.0,54.1 404.3,53.8 405.7,53.4 407.0,53.2 408.3,52.3 409.6,51.6 410.9,51.3 412.2,51.2 413.5,50.9 414.8,50.4 416.1,50.1 417.4,49.5 418.7,49.2 420.0,48.9 421.3,48.6 422.6,48.2 423.9,48.0 425.2,47.9 426.5,47.7 427.8,47.5 429.1,47.3 430.4,47.1 431.7,46.9 433.0,46.7 434.3,46.5 435.7,46.3 437.0,46.1 438.3,45.9 439.6,45.7 440.9,45.6 442.2,45.4 443.5,45.3 444.8,45.2 446.1,45.0 447.4,44.9 448.7,44.7 450.0,44.6 451.3,44.4 452.6,44.2 453.9,44.0 455.2,43.9 456.5,43.7 457.8,43.6 459.1,43.5 460.4,43.3 461.7,43.2 463.0,43.0 464.3,43.0 465.7,42.8 467.0,42.6 468.3,42.5 469.6,42.2 470.9,42.0 472.2,41.9 473.5,41.7 474.8,41.5 476.1,41.3 477.4,41.1 478.7,40.9 480.0,40.7 481.3,40.4 482.6,40.2 483.9,40.0 485.2,39.8 486.5,39.5 487.8,39.4 489.1,39.3 490.4,39.2 491.7,39.1 493.0,38.9 494.3,38.7 495.7,38.6 497.0,38.4 498.3,38.2 499.6,38.0 500.9,37.7 502.2,37.5 503.5,37.2 504.8,37.1 506.1,36.9 507.4,36.8 508.7,36.7 510.0,36.6 511.3,36.4 512.6,36.2 513.9,36.1 515.2,35.8 516.5,35.7 517.8,35.5 519.1,35.4 520.4,35.2 521.7,35.1 523.0,35.1 524.3,34.9 525.7,34.8 527.0,34.7 528.3,34.5 529.6,34.3 530.9,34.2 532.2,34.0 533.5,33.9 534.8,33.7 536.1,33.6 537.4,33.5 538.7,33.4 540.0,33.3 541.3,33.1 542.6,32.9 543.9,32.7 545.2,32.5 546.5,32.2 547.8,32.1 549.1,32.0 550.4,32.0 551.7,31.8 553.0,31.7 554.3,31.7 555.7,31.5 557.0,31.4 558.3,31.3 559.6,31.2 560.9,31.0 562.2,30.8 563.5,30.7 564.8,30.6 566.1,30.5 567.4,30.3 568.7,30.2 570.0,30.0 570.0,30.0,120" />
  
  <!-- Linea principale -->
  <polyline fill="none" stroke="#0366d6" stroke-width="2.5" stroke-linecap="round" stroke-linejoin="round" points="30.0,120.0 31.3,119.5 32.6,119.0 33.9,118.5 35.2,118.4 36.5,118.1 37.8,117.5 39.1,117.1 40.4,116.9 41.7,116.3 43.0,116.0 44.3,115.7 45.7,115.5 47.0,115.2 48.3,114.8 49.6,114.4 50.9,114.1 52.2,113.8 53.5,113.7 54.8,113.4 56.1,113.1 57.4,112.8 58.7,112.7 60.0,112.4 61.3,111.5 62.6,111.2 63.9,110.8 65.2,110.5 66.5,110.1 67.8,109.8 69.1,109.6 70.4,109.5 71.7,109.2 73.0,108.7 74.3,108.3 75.7,108.1 77.0,107.8 78.3,107.7 79.6,107.6 80.9,107.4 82.2,107.1 83.5,106.9 84.8,106.8 86.1,106.5 87.4,106.0 88.7,105.8 90.0,105.7 91.3,105.5 92.6,105.1 93.9,104.9 95.2,104.5 96.5,104.2 97.8,103.8 99.1,103.7 100.4,103.5 101.7,103.1 103.0,102.7 104.3,102.4 105.7,102.3 107.0,102.1 108.3,102.0 109.6,101.5 110.9,101.1 112.2,100.8 113.5,100.4 114.8,100.3 116.1,100.1 117.4,100.0 118.7,99.7 120.0,99.5 121.3,99.4 122.6,99.2 123.9,99.1 125.2,98.9 126.5,98.7 127.8,98.7 129.1,98.6 130.4,98.2 131.7,98.0 133.0,97.9 134.3,97.8 135.7,97.7 137.0,97.7 138.3,104.1 139.6,103.4 140.9,102.9 142.2,102.3 143.5,100.5 144.8,99.3 146.1,98.0 147.4,97.5 148.7,97.0 150.0,96.1 151.3,95.1 152.6,94.4 153.9,94.1 155.2,93.9 156.5,93.2 157.8,92.7 159.1,92.3 160.4,91.9 161.7,91.8 163.0,91.7 164.3,91.3 165.7,90.7 167.0,90.3 168.3,89.9 169.6,89.4 170.9,89.2 172.2,89.0 173.5,88.6 174.8,88.2 176.1,87.9 177.4,87.6 178.7,87.4 180.0,87.4 181.3,87.1 182.6,86.8 183.9,86.6 185.2,86.4 186.5,86.2 187.8,86.0 189.1,85.8 190.4,85.6 191.7,85.5 193.0,85.3 194.3,85.0 195.7,84.8 197.0,84.5 198.3,84.3 199.6,84.1 200.9,84.0 202.2,83.8 203.5,83.7 204.8,83.2 206.1,82.9 207.4,82.5 208.7,82.4 210.0,82.3 211.3,82.2 212.6,82.0 213.9,81.7 215.2,81.5 216.5,81.2 217.8,81.0 219.1,80.9 220.4,80.8 221.7,80.7 223.0,80.5 224.3,80.4 225.7,80.2 227.0,79.9 228.3,79.8 229.6,79.7 230.9,79.6 232.2,79.5 233.5,79.2 234.8,79.0 236.1,78.8 237.4,78.6 238.7,78.4 240.0,78.3 241.3,78.2 242.6,78.1 243.9,77.8 245.2,77.5 246.5,77.3 247.8,77.1 249.1,76.8 250.4,76.7 251.7,76.6 253.0,76.5 254.3,76.3 255.7,76.1 257.0,75.9 258.3,75.8 259.6,75.6 260.9,75.5 262.2,75.4 263.5,75.2 264.8,75.2 266.1,75.0 267.4,74.7 268.7,74.6 270.0,74.4 271.3,74.3 272.6,74.2 273.9,74.0 275.2,73.9 276.5,73.8 277.8,73.7 279.1,73.4 280.4,73.1 281.7,72.9 283.0,72.7 284.3,72.7 285.7,72.6 287.0,72.4 288.3,72.2 289.6,72.0 290.9,71.9 292.2,71.8 293.5,71.6 294.8,71.4 296.1,71.3 297.4,71.2 298.7,71.0 300.0,70.8 301.3,70.6 302.6,70.4 303.9,70.3 305.2,70.3 306.5,70.2 307.8,70.1 309.1,69.9 310.4,69.8 311.7,69.6 313.0,69.4 314.3,69.3 315.7,69.2 317.0,69.1 318.3,68.9 319.6,68.7 320.9,68.5 322.2,68.4 323.5,68.2 324.8,68.1 326.1,68.0 327.4,67.9 328.7,67.8 330.0,67.7 331.3,67.6 332.6,67.4 333.9,67.2 335.2,67.1 336.5,67.0 337.8,66.9 339.1,66.7 340.4,66.6 341.7,66.4 343.0,66.3 344.3,66.2 345.7,66.0 347.0,65.9 348.3,65.7 349.6,65.7 350.9,65.6 352.2,65.5 353.5,65.3 354.8,65.2 356.1,65.1 357.4,65.1 358.7,64.9 360.0,64.6 361.3,64.4 362.6,68.6 363.9,67.8 365.2,66.2 366.5,65.6 367.8,64.9 369.1,64.0 370.4,63.5 371.7,63.1 373.0,62.5 374.3,61.6 375.7,61.0 377.0,60.8 378.3,60.4 379.6,60.1 380.9,59.7 382.2,59.2 383.5,58.7 384.8,58.5 386.1,58.0 387.4,57.8 388.7,57.5 390.0,57.3 391.3,57.0 392.6,56.8 393.9,56.3 395.2,56.0 396.5,55.6 397.8,55.0 399.1,54.7 400.4,54.5 401.7,54.4 403.0,54.1 404.3,53.8 405.7,53.4 407.0,53.2 408.3,52.3 409.6,51.6 410.9,51.3 412.2,51.2 413.5,50.9 414.8,50.4 416.1,50.1 417.4,49.5 418.7,49.2 420.0,48.9 421.3,48.6 422.6,48.2 423.9,48.0 425.2,47.9 426.5,47.7 427.8,47.5 429.1,47.3 430.4,47.1 431.7,46.9 433.0,46.7 434.3,46.5 435.7,46.3 437.0,46.1 438.3,45.9 439.6,45.7 440.9,45.6 442.2,45.4 443.5,45.3 444.8,45.2 446.1,45.0 447.4,44.9 448.7,44.7 450.0,44.6 451.3,44.4 452.6,44.2 453.9,44.0 455.2,43.9 456.5,43.7 457.8,43.6 459.1,43.5 460.4,43.3 461.7,43.2 463.0,43.0 464.3,43.0 465.7,42.8 467.0,42.6 468.3,42.5 469.6,42.2 470.9,42.0 472.2,41.9 473.5,41.7 474.8,41.5 476.1,41.3 477.4,41.1 478.7,40.9 480.0,40.7 481.3,40.4 482.6,40.2 483.9,40.0 485.2,39.8 486.5,39.5 487.8,39.4 489.1,39.3 490.4,39.2 491.7,39.1 493.0,38.9 494.3,38.7 495.7,38.6 497.0,38.4 498.3,38.2 499.6,38.0 500.9,37.7 502.2,37.5 503.5,37.2 504.8,37.1 506.1,36.9 507.4,36.8 508.7,36.7 510.0,36.6 511.3,36.4 512.6,36.2 513.9,36.1 515.2,35.8 516.5,35.7 517.8,35.5 519.1,35.4 520.4,35.2 521.7,35.1 523.0,35.1 524.3,34.9 525.7,34.8 527.0,34.7 528.3,34.5 529.6,34.3 530.9,34.2 532.2,34.0 533.5,33.9 534.8,33.7 536.1,33.6 537.4,33.5 538.7,33.4 540.0,33.3 541.3,33.1 542.6,32.9 543.9,32.7 545.2,32.5 546.5,32.2 547.8,32.1 549.1,32.0 550.4,32.0 551.7,31.8 553.0,31.7 554.3,31.7 555.7,31.5 557.0,31.4 558.3,31.3 559.6,31.2 560.9,31.0 562.2,30.8 563.5,30.7 564.8,30.6 566.1,30.5 567.4,30.3 568.7,30.2 570.0,30.0" />
  
  <!-- Punto finale luminoso -->
  <circle cx="570.0" cy="30.0" r="4" fill="#ffffff" stroke="#0366d6" stroke-width="2.5" />
</svg>