<svg width="600" height="150" viewBox="0 0 600 150" xmlns="http://www.w3.org/2000/svg">
  <defs>
    <filter id="shadow2" x="-2%" y="-2%" width="104%" height="108%">
      <feDropShadow dx="0" dy="2" stdDeviation="3" flood-opacity="0.1" />
    </filter>
    <linearGradient id="fillGrad" x1="0" y1="0" x2="0" y2="1">
      <stop offset="0%" stop-color="#0366d6" stop-opacity="0.3"/>
      <stop offset="100%" stop-color="#0366d6" stop-opacity="0.02"/>
    </linearGradient>
  </defs>
  <rect width="600" height="150" rx="12" fill="#ffffff" filter="url(#shadow2)" stroke="#e1e4e8" stroke-width="1"/>
  <text x="20" y="24" fill="#2b3137" font-family="-apple-system,BlinkMacSystemFont,'Segoe UI',Helvetica,Arial,sans-serif" font-size="14" font-weight="600">📈 Download Growth (Actual: 86.4k)</text>
  
  <!-- Area sotto la linea -->
  <polygon fill="url(#fillGrad)" points="30.0,120.0,120 30.0,120.0 31.4,119.5 32.7,118.9 34.1,118.4 35.5,118.3 36.9,118.0 38.2,117.4 39.6,117.0 41.0,116.8 42.4,116.2 43.7,115.8 45.1,115.5 46.5,115.4 47.9,115.1 49.2,114.7 50.6,114.2 52.0,113.9 53.4,113.6 54.7,113.5 56.1,113.2 57.5,112.9 58.9,112.6 60.2,112.4 61.6,112.2 63.0,111.2 64.4,110.9 65.7,110.5 67.1,110.1 68.5,109.8 69.8,109.5 71.2,109.3 72.6,109.1 74.0,108.8 75.3,108.4 76.7,108.0 78.1,107.7 79.5,107.3 80.8,107.3 82.2,107.2 83.6,107.0 85.0,106.7 86.3,106.5 87.7,106.4 89.1,106.0 90.5,105.5 91.8,105.4 93.2,105.3 94.6,105.1 96.0,104.6 97.3,104.4 98.7,103.9 100.1,103.6 101.5,103.2 102.8,103.2 104.2,102.9 105.6,102.5 106.9,102.2 108.3,101.9 109.7,101.7 111.1,101.5 112.4,101.3 113.8,100.9 115.2,100.5 116.6,100.1 117.9,99.8 119.3,99.6 120.7,99.5 122.1,99.3 123.4,99.0 124.8,98.8 126.2,98.7 127.6,98.5 128.9,98.4 130.3,98.2 131.7,98.0 133.1,97.9 134.4,97.8 135.8,97.4 137.2,97.2 138.5,97.1 139.9,97.0 141.3,96.9 142.7,96.9 144.0,103.5 145.4,102.9 146.8,102.3 148.2,101.7 149.5,99.9 150.9,98.6 152.3,97.3 153.7,96.8 155.0,96.2 156.4,95.3 157.8,94.3 159.2,93.5 160.5,93.3 161.9,93.0 163.3,92.3 164.7,91.8 166.0,91.4 167.4,91.0 168.8,90.8 170.2,90.7 171.5,90.4 172.9,89.7 174.3,89.3 175.6,88.9 177.0,88.4 178.4,88.1 179.8,87.9 181.1,87.5 182.5,87.1 183.9,86.8 185.3,86.5 186.6,86.4 188.0,86.3 189.4,86.0 190.8,85.7 192.1,85.5 193.5,85.2 194.9,85.0 196.3,84.9 197.6,84.7 199.0,84.5 200.4,84.3 201.8,84.2 203.1,83.8 204.5,83.6 205.9,83.3 207.3,83.1 208.6,82.9 210.0,82.8 211.4,82.6 212.7,82.5 214.1,82.0 215.5,81.7 216.9,81.3 218.2,81.1 219.6,81.1 221.0,80.9 222.4,80.7 223.7,80.4 225.1,80.2 226.5,79.9 227.9,79.7 229.2,79.6 230.6,79.5 232.0,79.4 233.4,79.2 234.7,79.0 236.1,78.9 237.5,78.6 238.9,78.4 240.2,78.3 241.6,78.2 243.0,78.1 244.4,77.9 245.7,77.7 247.1,77.4 248.5,77.2 249.8,77.0 251.2,76.9 252.6,76.8 254.0,76.6 255.3,76.3 256.7,76.1 258.1,75.9 259.5,75.7 260.8,75.3 262.2,75.2 263.6,75.1 265.0,75.0 266.3,74.8 267.7,74.7 269.1,74.5 270.5,74.3 271.8,74.2 273.2,74.0 274.6,73.9 276.0,73.7 277.3,73.7 278.7,73.5 280.1,73.2 281.5,73.1 282.8,72.9 284.2,72.8 285.6,72.6 286.9,72.5 288.3,72.4 289.7,72.3 291.1,72.1 292.4,71.8 293.8,71.5 295.2,71.3 296.6,71.2 297.9,71.1 299.3,71.0 300.7,70.8 302.1,70.6 303.4,70.4 304.8,70.3 306.2,70.1 307.6,70.0 308.9,69.8 310.3,69.7 311.7,69.6 313.1,69.4 314.4,69.2 315.8,69.0 317.2,68.8 318.5,68.7 319.9,68.6 321.3,68.5 322.7,68.4 324.0,68.2 325.4,68.1 326.8,67.9 328.2,67.7 329.5,67.6 330.9,67.5 332.3,67.4 333.7,67.2 335.0,67.0 336.4,66.8 337.8,66.6 339.2,66.5 340.5,66.4 341.9,66.3 343.3,66.2 344.7,66.1 346.0,66.0 347.4,65.8 348.8,65.6 350.2,65.5 351.5,65.3 352.9,65.2 354.3,65.1 355.6,64.9 357.0,64.8 358.4,64.6 359.8,64.5 361.1,64.4 362.5,64.2 363.9,64.1 365.3,63.9 366.6,63.8 368.0,63.7 369.4,63.6 370.8,63.5 372.1,63.4 373.5,63.3 374.9,63.2 376.3,63.1 377.6,62.8 379.0,62.6 380.4,66.9 381.8,66.0 383.1,64.4 384.5,63.8 385.9,63.0 387.3,62.1 388.6,61.6 390.0,61.2 391.4,60.6 392.7,59.7 394.1,59.0 395.5,58.8 396.9,58.4 398.2,58.1 399.6,57.6 401.0,57.2 402.4,56.7 403.7,56.4 405.1,55.9 406.5,55.7 407.9,55.4 409.2,55.2 410.6,54.9 412.0,54.7 413.4,54.2 414.7,53.9 416.1,53.5 417.5,52.9 418.9,52.5 420.2,52.3 421.6,52.2 423.0,51.9 424.4,51.5 425.7,51.2 427.1,50.9 428.5,50.0 429.8,49.3 431.2,49.0 432.6,48.9 434.0,48.6 435.3,48.1 436.7,47.7 438.1,47.2 439.5,46.9 440.8,46.5 442.2,46.2 443.6,45.8 445.0,45.6 446.3,45.4 447.7,45.3 449.1,45.1 450.5,44.8 451.8,44.7 453.2,44.4 454.6,44.2 456.0,44.1 457.3,43.8 458.7,43.6 460.1,43.4 461.5,43.3 462.8,43.1 464.2,42.9 465.6,42.8 466.9,42.6 468.3,42.5 469.7,42.4 471.1,42.2 472.4,42.0 473.8,41.9 475.2,41.7 476.6,41.5 477.9,41.3 479.3,41.1 480.7,41.0 482.1,40.9 483.4,40.8 484.8,40.6 486.2,40.5 487.6,40.4 488.9,40.2 490.3,40.0 491.7,39.9 493.1,39.6 494.4,39.4 495.8,39.3 497.2,39.1 498.5,38.8 499.9,38.7 501.3,38.4 502.7,38.2 504.0,38.0 505.4,37.8 506.8,37.5 508.2,37.3 509.5,37.1 510.9,36.8 512.3,36.7 513.7,36.6 515.0,36.5 516.4,36.3 517.8,36.2 519.2,36.0 520.5,35.8 521.9,35.6 523.3,35.4 524.7,35.2 526.0,34.9 527.4,34.7 528.8,34.4 530.2,34.3 531.5,34.1 532.9,34.0 534.3,33.9 535.6,33.8 537.0,33.6 538.4,33.4 539.8,33.3 541.1,33.0 542.5,32.8 543.9,32.7 545.3,32.5 546.6,32.4 548.0,32.3 549.4,32.2 550.8,32.1 552.1,31.9 553.5,31.8 554.9,31.6 556.3,31.5 557.6,31.3 559.0,31.1 560.4,31.0 561.8,30.8 563.1,30.7 564.5,30.6 565.9,30.5 567.3,30.3 568.6,30.1 570.0,30.0 570.0,30.0,120" />
  
  <!-- Linea principale -->
  <polyline fill="none" stroke="#0366d6" stroke-width="2.5" stroke-linecap="round" stroke-linejoin="round" points="30.0,120.0 31.4,119.5 32.7,118.9 34.1,118.4 35.5,118.3 36.9,118.0 38.2,117.4 39.6,117.0 41.0,116.8 42.4,116.2 43.7,115.8 45.1,115.5 46.5,115.4 47.9,115.1 49.2,114.7 50.6,114.2 52.0,113.9 53.4,113.6 54.7,113.5 56.1,113.2 57.5,112.9 58.9,112.6 60.2,112.4 61.6,112.2 63.0,111.2 64.4,110.9 65.7,110.5 67.1,110.1 68.5,109.8 69.8,109.5 71.2,109.3 72.6,109.1 74.0,108.8 75.3,108.4 76.7,108.0 78.1,107.7 79.5,107.3 80.8,107.3 82.2,107.2 83.6,107.0 85.0,106.7 86.3,106.5 87.7,106.4 89.1,106.0 90.5,105.5 91.8,105.4 93.2,105.3 94.6,105.1 96.0,104.6 97.3,104.4 98.7,103.9 100.1,103.6 101.5,103.2 102.8,103.2 104.2,102.9 105.6,102.5 106.9,102.2 108.3,101.9 109.7,101.7 111.1,101.5 112.4,101.3 113.8,100.9 115.2,100.5 116.6,100.1 117.9,99.8 119.3,99.6 120.7,99.5 122.1,99.3 123.4,99.0 124.8,98.8 126.2,98.7 127.6,98.5 128.9,98.4 130.3,98.2 131.7,98.0 133.1,97.9 134.4,97.8 135.8,97.4 137.2,97.2 138.5,97.1 139.9,97.0 141.3,96.9 142.7,96.9 144.0,103.5 145.4,102.9 146.8,102.3 148.2,101.7 149.5,99.9 150.9,98.6 152.3,97.3 153.7,96.8 155.0,96.2 156.4,95.3 157.8,94.3 159.2,93.5 160.5,93.3 161.9,93.0 163.3,92.3 164.7,91.8 166.0,91.4 167.4,91.0 168.8,90.8 170.2,90.7 171.5,90.4 172.9,89.7 174.3,89.3 175.6,88.9 177.0,88.4 178.4,88.1 179.8,87.9 181.1,87.5 182.5,87.1 183.9,86.8 185.3,86.5 186.6,86.4 188.0,86.3 189.4,86.0 190.8,85.7 192.1,85.5 193.5,85.2 194.9,85.0 196.3,84.9 197.6,84.7 199.0,84.5 200.4,84.3 201.8,84.2 203.1,83.8 204.5,83.6 205.9,83.3 207.3,83.1 208.6,82.9 210.0,82.8 211.4,82.6 212.7,82.5 214.1,82.0 215.5,81.7 216.9,81.3 218.2,81.1 219.6,81.1 221.0,80.9 222.4,80.7 223.7,80.4 225.1,80.2 226.5,79.9 227.9,79.7 229.2,79.6 230.6,79.5 232.0,79.4 233.4,79.2 234.7,79.0 236.1,78.9 237.5,78.6 238.9,78.4 240.2,78.3 241.6,78.2 243.0,78.1 244.4,77.9 245.7,77.7 247.1,77.4 248.5,77.2 249.8,77.0 251.2,76.9 252.6,76.8 254.0,76.6 255.3,76.3 256.7,76.1 258.1,75.9 259.5,75.7 260.8,75.3 262.2,75.2 263.6,75.1 265.0,75.0 266.3,74.8 267.7,74.7 269.1,74.5 270.5,74.3 271.8,74.2 273.2,74.0 274.6,73.9 276.0,73.7 277.3,73.7 278.7,73.5 280.1,73.2 281.5,73.1 282.8,72.9 284.2,72.8 285.6,72.6 286.9,72.5 288.3,72.4 289.7,72.3 291.1,72.1 292.4,71.8 293.8,71.5 295.2,71.3 296.6,71.2 297.9,71.1 299.3,71.0 300.7,70.8 302.1,70.6 303.4,70.4 304.8,70.3 306.2,70.1 307.6,70.0 308.9,69.8 310.3,69.7 311.7,69.6 313.1,69.4 314.4,69.2 315.8,69.0 317.2,68.8 318.5,68.7 319.9,68.6 321.3,68.5 322.7,68.4 324.0,68.2 325.4,68.1 326.8,67.9 328.2,67.7 329.5,67.6 330.9,67.5 332.3,67.4 333.7,67.2 335.0,67.0 336.4,66.8 337.8,66.6 339.2,66.5 340.5,66.4 341.9,66.3 343.3,66.2 344.7,66.1 346.0,66.0 347.4,65.8 348.8,65.6 350.2,65.5 351.5,65.3 352.9,65.2 354.3,65.1 355.6,64.9 357.0,64.8 358.4,64.6 359.8,64.5 361.1,64.4 362.5,64.2 363.9,64.1 365.3,63.9 366.6,63.8 368.0,63.7 369.4,63.6 370.8,63.5 372.1,63.4 373.5,63.3 374.9,63.2 376.3,63.1 377.6,62.8 379.0,62.6 380.4,66.9 381.8,66.0 383.1,64.4 384.5,63.8 385.9,63.0 387.3,62.1 388.6,61.6 390.0,61.2 391.4,60.6 392.7,59.7 394.1,59.0 395.5,58.8 396.9,58.4 398.2,58.1 399.6,57.6 401.0,57.2 402.4,56.7 403.7,56.4 405.1,55.9 406.5,55.7 407.9,55.4 409.2,55.2 410.6,54.9 412.0,54.7 413.4,54.2 414.7,53.9 416.1,53.5 417.5,52.9 418.9,52.5 420.2,52.3 421.6,52.2 423.0,51.9 424.4,51.5 425.7,51.2 427.1,50.9 428.5,50.0 429.8,49.3 431.2,49.0 432.6,48.9 434.0,48.6 435.3,48.1 436.7,47.7 438.1,47.2 439.5,46.9 440.8,46.5 442.2,46.2 443.6,45.8 445.0,45.6 446.3,45.4 447.7,45.3 449.1,45.1 450.5,44.8 451.8,44.7 453.2,44.4 454.6,44.2 456.0,44.1 457.3,43.8 458.7,43.6 460.1,43.4 461.5,43.3 462.8,43.1 464.2,42.9 465.6,42.8 466.9,42.6 468.3,42.5 469.7,42.4 471.1,42.2 472.4,42.0 473.8,41.9 475.2,41.7 476.6,41.5 477.9,41.3 479.3,41.1 480.7,41.0 482.1,40.9 483.4,40.8 484.8,40.6 486.2,40.5 487.6,40.4 488.9,40.2 490.3,40.0 491.7,39.9 493.1,39.6 494.4,39.4 495.8,39.3 497.2,39.1 498.5,38.8 499.9,38.7 501.3,38.4 502.7,38.2 504.0,38.0 505.4,37.8 506.8,37.5 508.2,37.3 509.5,37.1 510.9,36.8 512.3,36.7 513.7,36.6 515.0,36.5 516.4,36.3 517.8,36.2 519.2,36.0 520.5,35.8 521.9,35.6 523.3,35.4 524.7,35.2 526.0,34.9 527.4,34.7 528.8,34.4 530.2,34.3 531.5,34.1 532.9,34.0 534.3,33.9 535.6,33.8 537.0,33.6 538.4,33.4 539.8,33.3 541.1,33.0 542.5,32.8 543.9,32.7 545.3,32.5 546.6,32.4 548.0,32.3 549.4,32.2 550.8,32.1 552.1,31.9 553.5,31.8 554.9,31.6 556.3,31.5 557.6,31.3 559.0,31.1 560.4,31.0 561.8,30.8 563.1,30.7 564.5,30.6 565.9,30.5 567.3,30.3 568.6,30.1 570.0,30.0" />
  
  <!-- Punto finale luminoso -->
  <circle cx="570.0" cy="30.0" r="4" fill="#ffffff" stroke="#0366d6" stroke-width="2.5" />
</svg>