<svg width="600" height="150" viewBox="0 0 600 150" xmlns="http://www.w3.org/2000/svg">
  <defs>
    <filter id="shadow2" x="-2%" y="-2%" width="104%" height="108%">
      <feDropShadow dx="0" dy="2" stdDeviation="3" flood-opacity="0.1" />
    </filter>
    <linearGradient id="fillGrad" x1="0" y1="0" x2="0" y2="1">
      <stop offset="0%" stop-color="#0366d6" stop-opacity="0.3"/>
      <stop offset="100%" stop-color="#0366d6" stop-opacity="0.02"/>
    </linearGradient>
  </defs>
  <rect width="600" height="150" rx="12" fill="#ffffff" filter="url(#shadow2)" stroke="#e1e4e8" stroke-width="1"/>
  <text x="20" y="24" fill="#2b3137" font-family="-apple-system,BlinkMacSystemFont,'Segoe UI',Helvetica,Arial,sans-serif" font-size="14" font-weight="600">📈 Download Growth (Actual: 87.4k)</text>
  
  <!-- Area sotto la linea -->
  <polygon fill="url(#fillGrad)" points="30.0,120.0,120 30.0,120.0 31.3,119.5 32.6,119.0 33.8,118.5 35.1,118.4 36.4,118.1 37.7,117.6 38.9,117.2 40.2,116.9 41.5,116.3 42.8,116.0 44.0,115.8 45.3,115.6 46.6,115.3 47.9,114.9 49.1,114.5 50.4,114.2 51.7,114.0 53.0,113.8 54.3,113.5 55.5,113.2 56.8,113.0 58.1,112.8 59.4,112.6 60.6,111.6 61.9,111.4 63.2,111.0 64.5,110.6 65.7,110.3 67.0,110.0 68.3,109.8 69.6,109.6 70.9,109.4 72.1,108.9 73.4,108.5 74.7,108.3 76.0,108.0 77.2,107.9 78.5,107.8 79.8,107.6 81.1,107.3 82.3,107.2 83.6,107.0 84.9,106.7 86.2,106.2 87.4,106.1 88.7,106.0 90.0,105.8 91.3,105.4 92.6,105.1 93.8,104.7 95.1,104.4 96.4,104.1 97.7,104.0 98.9,103.8 100.2,103.4 101.5,103.0 102.8,102.7 104.0,102.6 105.3,102.4 106.6,102.3 107.9,101.8 109.1,101.5 110.4,101.1 111.7,100.8 113.0,100.6 114.3,100.5 115.5,100.3 116.8,100.1 118.1,99.9 119.4,99.7 120.6,99.6 121.9,99.4 123.2,99.2 124.5,99.1 125.7,99.0 127.0,98.9 128.3,98.5 129.6,98.3 130.9,98.3 132.1,98.1 133.4,98.1 134.7,98.1 136.0,104.3 137.2,103.7 138.5,103.2 139.8,102.6 141.1,100.9 142.3,99.7 143.6,98.4 144.9,97.9 146.2,97.4 147.4,96.5 148.7,95.5 150.0,94.8 151.3,94.6 152.6,94.3 153.8,93.6 155.1,93.1 156.4,92.8 157.7,92.4 158.9,92.2 160.2,92.2 161.5,91.8 162.8,91.2 164.0,90.8 165.3,90.4 166.6,89.9 167.9,89.7 169.1,89.5 170.4,89.1 171.7,88.7 173.0,88.4 174.3,88.1 175.5,88.0 176.8,87.9 178.1,87.7 179.4,87.4 180.6,87.2 181.9,86.9 183.2,86.7 184.5,86.6 185.7,86.4 187.0,86.2 188.3,86.1 189.6,85.9 190.9,85.6 192.1,85.4 193.4,85.1 194.7,84.9 196.0,84.7 197.2,84.6 198.5,84.5 199.8,84.3 201.1,83.9 202.3,83.6 203.6,83.2 204.9,83.0 206.2,83.0 207.4,82.8 208.7,82.6 210.0,82.4 211.3,82.2 212.6,81.9 213.8,81.7 215.1,81.6 216.4,81.5 217.7,81.3 218.9,81.2 220.2,81.0 221.5,80.9 222.8,80.6 224.0,80.5 225.3,80.4 226.6,80.3 227.9,80.2 229.1,79.9 230.4,79.7 231.7,79.5 233.0,79.3 234.3,79.1 235.5,79.0 236.8,78.9 238.1,78.8 239.4,78.5 240.6,78.2 241.9,78.0 243.2,77.8 244.5,77.5 245.7,77.4 247.0,77.3 248.3,77.2 249.6,77.0 250.9,76.9 252.1,76.7 253.4,76.6 254.7,76.4 256.0,76.3 257.2,76.1 258.5,76.0 259.8,75.9 261.1,75.8 262.3,75.5 263.6,75.4 264.9,75.2 266.2,75.1 267.4,75.0 268.7,74.8 270.0,74.7 271.3,74.6 272.6,74.4 273.8,74.2 275.1,73.9 276.4,73.7 277.7,73.5 278.9,73.5 280.2,73.4 281.5,73.2 282.8,73.0 284.0,72.9 285.3,72.8 286.6,72.6 287.9,72.4 289.1,72.3 290.4,72.2 291.7,72.1 293.0,71.8 294.3,71.7 295.5,71.5 296.8,71.3 298.1,71.2 299.4,71.1 300.6,71.1 301.9,70.9 303.2,70.8 304.5,70.6 305.7,70.5 307.0,70.3 308.3,70.2 309.6,70.1 310.9,69.9 312.1,69.8 313.4,69.6 314.7,69.4 316.0,69.3 317.2,69.1 318.5,69.0 319.8,68.9 321.1,68.8 322.3,68.7 323.6,68.6 324.9,68.5 326.2,68.3 327.4,68.1 328.7,68.0 330.0,67.9 331.3,67.8 332.6,67.6 333.8,67.5 335.1,67.3 336.4,67.2 337.7,67.1 338.9,66.9 340.2,66.8 341.5,66.7 342.8,66.6 344.0,66.5 345.3,66.4 346.6,66.3 347.9,66.1 349.1,66.0 350.4,66.0 351.7,65.9 353.0,65.6 354.3,65.4 355.5,69.5 356.8,68.7 358.1,67.1 359.4,66.5 360.6,65.8 361.9,64.9 363.2,64.4 364.5,64.1 365.7,63.5 367.0,62.6 368.3,62.0 369.6,61.8 370.9,61.4 372.1,61.2 373.4,60.7 374.7,60.3 376.0,59.8 377.2,59.5 378.5,59.1 379.8,58.8 381.1,58.5 382.3,58.3 383.6,58.1 384.9,57.9 386.2,57.4 387.4,57.1 388.7,56.7 390.0,56.2 391.3,55.8 392.6,55.6 393.8,55.5 395.1,55.2 396.4,54.9 397.7,54.6 398.9,54.3 400.2,53.5 401.5,52.8 402.8,52.5 404.0,52.3 405.3,52.0 406.6,51.6 407.9,51.2 409.1,50.7 410.4,50.4 411.7,50.1 413.0,49.8 414.3,49.5 415.5,49.2 416.8,49.1 418.1,48.9 419.4,48.8 420.6,48.5 421.9,48.4 423.2,48.1 424.5,47.9 425.7,47.8 427.0,47.5 428.3,47.4 429.6,47.2 430.9,47.0 432.1,46.8 433.4,46.7 434.7,46.6 436.0,46.4 437.2,46.3 438.5,46.2 439.8,46.0 441.1,45.9 442.3,45.7 443.6,45.5 444.9,45.3 446.2,45.2 447.4,45.0 448.7,44.9 450.0,44.8 451.3,44.6 452.6,44.5 453.8,44.3 455.1,44.3 456.4,44.1 457.7,43.9 458.9,43.8 460.2,43.6 461.5,43.4 462.8,43.2 464.0,43.0 465.3,42.8 466.6,42.6 467.9,42.4 469.1,42.2 470.4,42.0 471.7,41.8 473.0,41.6 474.3,41.3 475.5,41.1 476.8,40.9 478.1,40.8 479.4,40.7 480.6,40.6 481.9,40.4 483.2,40.3 484.5,40.1 485.7,40.0 487.0,39.8 488.3,39.6 489.6,39.4 490.9,39.1 492.1,38.9 493.4,38.6 494.7,38.5 496.0,38.3 497.2,38.2 498.5,38.1 499.8,38.0 501.1,37.8 502.3,37.6 503.6,37.5 504.9,37.2 506.2,37.1 507.4,36.9 508.7,36.8 510.0,36.7 511.3,36.6 512.6,36.5 513.8,36.4 515.1,36.2 516.4,36.1 517.7,36.0 518.9,35.8 520.2,35.6 521.5,35.5 522.8,35.4 524.0,35.2 525.3,35.1 526.6,35.0 527.9,34.8 529.1,34.7 530.4,34.5 531.7,34.4 533.0,34.1 534.3,34.0 535.5,33.7 536.8,33.6 538.1,33.5 539.4,33.4 540.6,33.3 541.9,33.2 543.2,33.2 544.5,33.0 545.7,32.9 547.0,32.9 548.3,32.7 549.6,32.6 550.9,32.3 552.1,32.2 553.4,32.1 554.7,32.0 556.0,31.8 557.2,31.7 558.5,31.5 559.8,31.4 561.1,31.3 562.3,31.2 563.6,31.1 564.9,30.8 566.2,30.6 567.4,30.3 568.7,30.2 570.0,30.0 570.0,30.0,120" />
  
  <!-- Linea principale -->
  <polyline fill="none" stroke="#0366d6" stroke-width="2.5" stroke-linecap="round" stroke-linejoin="round" points="30.0,120.0 31.3,119.5 32.6,119.0 33.8,118.5 35.1,118.4 36.4,118.1 37.7,117.6 38.9,117.2 40.2,116.9 41.5,116.3 42.8,116.0 44.0,115.8 45.3,115.6 46.6,115.3 47.9,114.9 49.1,114.5 50.4,114.2 51.7,114.0 53.0,113.8 54.3,113.5 55.5,113.2 56.8,113.0 58.1,112.8 59.4,112.6 60.6,111.6 61.9,111.4 63.2,111.0 64.5,110.6 65.7,110.3 67.0,110.0 68.3,109.8 69.6,109.6 70.9,109.4 72.1,108.9 73.4,108.5 74.7,108.3 76.0,108.0 77.2,107.9 78.5,107.8 79.8,107.6 81.1,107.3 82.3,107.2 83.6,107.0 84.9,106.7 86.2,106.2 87.4,106.1 88.7,106.0 90.0,105.8 91.3,105.4 92.6,105.1 93.8,104.7 95.1,104.4 96.4,104.1 97.7,104.0 98.9,103.8 100.2,103.4 101.5,103.0 102.8,102.7 104.0,102.6 105.3,102.4 106.6,102.3 107.9,101.8 109.1,101.5 110.4,101.1 111.7,100.8 113.0,100.6 114.3,100.5 115.5,100.3 116.8,100.1 118.1,99.9 119.4,99.7 120.6,99.6 121.9,99.4 123.2,99.2 124.5,99.1 125.7,99.0 127.0,98.9 128.3,98.5 129.6,98.3 130.9,98.3 132.1,98.1 133.4,98.1 134.7,98.1 136.0,104.3 137.2,103.7 138.5,103.2 139.8,102.6 141.1,100.9 142.3,99.7 143.6,98.4 144.9,97.9 146.2,97.4 147.4,96.5 148.7,95.5 150.0,94.8 151.3,94.6 152.6,94.3 153.8,93.6 155.1,93.1 156.4,92.8 157.7,92.4 158.9,92.2 160.2,92.2 161.5,91.8 162.8,91.2 164.0,90.8 165.3,90.4 166.6,89.9 167.9,89.7 169.1,89.5 170.4,89.1 171.7,88.7 173.0,88.4 174.3,88.1 175.5,88.0 176.8,87.9 178.1,87.7 179.4,87.4 180.6,87.2 181.9,86.9 183.2,86.7 184.5,86.6 185.7,86.4 187.0,86.2 188.3,86.1 189.6,85.9 190.9,85.6 192.1,85.4 193.4,85.1 194.7,84.9 196.0,84.7 197.2,84.6 198.5,84.5 199.8,84.3 201.1,83.9 202.3,83.6 203.6,83.2 204.9,83.0 206.2,83.0 207.4,82.8 208.7,82.6 210.0,82.4 211.3,82.2 212.6,81.9 213.8,81.7 215.1,81.6 216.4,81.5 217.7,81.3 218.9,81.2 220.2,81.0 221.5,80.9 222.8,80.6 224.0,80.5 225.3,80.4 226.6,80.3 227.9,80.2 229.1,79.9 230.4,79.7 231.7,79.5 233.0,79.3 234.3,79.1 235.5,79.0 236.8,78.9 238.1,78.8 239.4,78.5 240.6,78.2 241.9,78.0 243.2,77.8 244.5,77.5 245.7,77.4 247.0,77.3 248.3,77.2 249.6,77.0 250.9,76.9 252.1,76.7 253.4,76.6 254.7,76.4 256.0,76.3 257.2,76.1 258.5,76.0 259.8,75.9 261.1,75.8 262.3,75.5 263.6,75.4 264.9,75.2 266.2,75.1 267.4,75.0 268.7,74.8 270.0,74.7 271.3,74.6 272.6,74.4 273.8,74.2 275.1,73.9 276.4,73.7 277.7,73.5 278.9,73.5 280.2,73.4 281.5,73.2 282.8,73.0 284.0,72.9 285.3,72.8 286.6,72.6 287.9,72.4 289.1,72.3 290.4,72.2 291.7,72.1 293.0,71.8 294.3,71.7 295.5,71.5 296.8,71.3 298.1,71.2 299.4,71.1 300.6,71.1 301.9,70.9 303.2,70.8 304.5,70.6 305.7,70.5 307.0,70.3 308.3,70.2 309.6,70.1 310.9,69.9 312.1,69.8 313.4,69.6 314.7,69.4 316.0,69.3 317.2,69.1 318.5,69.0 319.8,68.9 321.1,68.8 322.3,68.7 323.6,68.6 324.9,68.5 326.2,68.3 327.4,68.1 328.7,68.0 330.0,67.9 331.3,67.8 332.6,67.6 333.8,67.5 335.1,67.3 336.4,67.2 337.7,67.1 338.9,66.9 340.2,66.8 341.5,66.7 342.8,66.6 344.0,66.5 345.3,66.4 346.6,66.3 347.9,66.1 349.1,66.0 350.4,66.0 351.7,65.9 353.0,65.6 354.3,65.4 355.5,69.5 356.8,68.7 358.1,67.1 359.4,66.5 360.6,65.8 361.9,64.9 363.2,64.4 364.5,64.1 365.7,63.5 367.0,62.6 368.3,62.0 369.6,61.8 370.9,61.4 372.1,61.2 373.4,60.7 374.7,60.3 376.0,59.8 377.2,59.5 378.5,59.1 379.8,58.8 381.1,58.5 382.3,58.3 383.6,58.1 384.9,57.9 386.2,57.4 387.4,57.1 388.7,56.7 390.0,56.2 391.3,55.8 392.6,55.6 393.8,55.5 395.1,55.2 396.4,54.9 397.7,54.6 398.9,54.3 400.2,53.5 401.5,52.8 402.8,52.5 404.0,52.3 405.3,52.0 406.6,51.6 407.9,51.2 409.1,50.7 410.4,50.4 411.7,50.1 413.0,49.8 414.3,49.5 415.5,49.2 416.8,49.1 418.1,48.9 419.4,48.8 420.6,48.5 421.9,48.4 423.2,48.1 424.5,47.9 425.7,47.8 427.0,47.5 428.3,47.4 429.6,47.2 430.9,47.0 432.1,46.8 433.4,46.7 434.7,46.6 436.0,46.4 437.2,46.3 438.5,46.2 439.8,46.0 441.1,45.9 442.3,45.7 443.6,45.5 444.9,45.3 446.2,45.2 447.4,45.0 448.7,44.9 450.0,44.8 451.3,44.6 452.6,44.5 453.8,44.3 455.1,44.3 456.4,44.1 457.7,43.9 458.9,43.8 460.2,43.6 461.5,43.4 462.8,43.2 464.0,43.0 465.3,42.8 466.6,42.6 467.9,42.4 469.1,42.2 470.4,42.0 471.7,41.8 473.0,41.6 474.3,41.3 475.5,41.1 476.8,40.9 478.1,40.8 479.4,40.7 480.6,40.6 481.9,40.4 483.2,40.3 484.5,40.1 485.7,40.0 487.0,39.8 488.3,39.6 489.6,39.4 490.9,39.1 492.1,38.9 493.4,38.6 494.7,38.5 496.0,38.3 497.2,38.2 498.5,38.1 499.8,38.0 501.1,37.8 502.3,37.6 503.6,37.5 504.9,37.2 506.2,37.1 507.4,36.9 508.7,36.8 510.0,36.7 511.3,36.6 512.6,36.5 513.8,36.4 515.1,36.2 516.4,36.1 517.7,36.0 518.9,35.8 520.2,35.6 521.5,35.5 522.8,35.4 524.0,35.2 525.3,35.1 526.6,35.0 527.9,34.8 529.1,34.7 530.4,34.5 531.7,34.4 533.0,34.1 534.3,34.0 535.5,33.7 536.8,33.6 538.1,33.5 539.4,33.4 540.6,33.3 541.9,33.2 543.2,33.2 544.5,33.0 545.7,32.9 547.0,32.9 548.3,32.7 549.6,32.6 550.9,32.3 552.1,32.2 553.4,32.1 554.7,32.0 556.0,31.8 557.2,31.7 558.5,31.5 559.8,31.4 561.1,31.3 562.3,31.2 563.6,31.1 564.9,30.8 566.2,30.6 567.4,30.3 568.7,30.2 570.0,30.0" />
  
  <!-- Punto finale luminoso -->
  <circle cx="570.0" cy="30.0" r="4" fill="#ffffff" stroke="#0366d6" stroke-width="2.5" />
</svg>