<svg width="600" height="150" viewBox="0 0 600 150" xmlns="http://www.w3.org/2000/svg">
  <defs>
    <filter id="shadow2" x="-2%" y="-2%" width="104%" height="108%">
      <feDropShadow dx="0" dy="2" stdDeviation="3" flood-opacity="0.1" />
    </filter>
    <linearGradient id="fillGrad" x1="0" y1="0" x2="0" y2="1">
      <stop offset="0%" stop-color="#0366d6" stop-opacity="0.3"/>
      <stop offset="100%" stop-color="#0366d6" stop-opacity="0.02"/>
    </linearGradient>
  </defs>
  <rect width="600" height="150" rx="12" fill="#ffffff" filter="url(#shadow2)" stroke="#e1e4e8" stroke-width="1"/>
  <text x="20" y="24" fill="#2b3137" font-family="-apple-system,BlinkMacSystemFont,'Segoe UI',Helvetica,Arial,sans-serif" font-size="14" font-weight="600">📈 Download Growth (Actual: 88.2k)</text>
  
  <!-- Area sotto la linea -->
  <polygon fill="url(#fillGrad)" points="30.0,120.0,120 30.0,120.0 31.2,119.5 32.4,119.0 33.6,118.6 34.8,118.4 36.0,118.2 37.2,117.7 38.4,117.3 39.6,117.1 40.8,116.5 41.9,116.2 43.1,115.9 44.3,115.8 45.5,115.5 46.7,115.1 47.9,114.7 49.1,114.4 50.3,114.2 51.5,114.0 52.7,113.8 53.9,113.5 55.1,113.2 56.3,113.1 57.5,112.8 58.7,112.0 59.9,111.7 61.1,111.3 62.3,111.0 63.5,110.7 64.6,110.4 65.8,110.2 67.0,110.0 68.2,109.8 69.4,109.4 70.6,109.0 71.8,108.7 73.0,108.4 74.2,108.4 75.4,108.3 76.6,108.1 77.8,107.8 79.0,107.7 80.2,107.6 81.4,107.2 82.6,106.7 83.8,106.6 85.0,106.5 86.2,106.4 87.3,106.0 88.5,105.7 89.7,105.3 90.9,105.0 92.1,104.7 93.3,104.6 94.5,104.4 95.7,104.1 96.9,103.7 98.1,103.4 99.3,103.3 100.5,103.1 101.7,103.0 102.9,102.6 104.1,102.2 105.3,101.9 106.5,101.5 107.7,101.4 108.8,101.3 110.0,101.1 111.2,100.8 112.4,100.7 113.6,100.5 114.8,100.4 116.0,100.3 117.2,100.1 118.4,99.9 119.6,99.8 120.8,99.8 122.0,99.4 123.2,99.2 124.4,99.1 125.6,99.0 126.8,98.9 128.0,98.9 129.2,104.9 130.4,104.4 131.5,103.8 132.7,103.3 133.9,101.6 135.1,100.5 136.3,99.2 137.5,98.8 138.7,98.3 139.9,97.4 141.1,96.5 142.3,95.8 143.5,95.6 144.7,95.3 145.9,94.7 147.1,94.2 148.3,93.9 149.5,93.5 150.7,93.3 151.9,93.3 153.1,92.9 154.2,92.4 155.4,92.0 156.6,91.6 157.8,91.1 159.0,90.9 160.2,90.7 161.4,90.3 162.6,90.0 163.8,89.7 165.0,89.4 166.2,89.3 167.4,89.2 168.6,89.0 169.8,88.7 171.0,88.5 172.2,88.2 173.4,88.1 174.6,87.9 175.8,87.7 176.9,87.6 178.1,87.4 179.3,87.3 180.5,87.0 181.7,86.7 182.9,86.5 184.1,86.3 185.3,86.1 186.5,86.0 187.7,85.9 188.9,85.7 190.1,85.3 191.3,85.0 192.5,84.6 193.7,84.5 194.9,84.5 196.1,84.3 197.3,84.1 198.5,83.9 199.6,83.7 200.8,83.4 202.0,83.2 203.2,83.1 204.4,83.0 205.6,82.9 206.8,82.7 208.0,82.6 209.2,82.4 210.4,82.2 211.6,82.0 212.8,82.0 214.0,81.8 215.2,81.7 216.4,81.5 217.6,81.3 218.8,81.1 220.0,80.9 221.2,80.8 222.3,80.6 223.5,80.5 224.7,80.4 225.9,80.1 227.1,79.9 228.3,79.7 229.5,79.5 230.7,79.2 231.9,79.1 233.1,79.0 234.3,78.9 235.5,78.7 236.7,78.6 237.9,78.4 239.1,78.3 240.3,78.1 241.5,78.0 242.7,77.8 243.8,77.7 245.0,77.7 246.2,77.5 247.4,77.3 248.6,77.2 249.8,77.0 251.0,76.9 252.2,76.7 253.4,76.6 254.6,76.5 255.8,76.4 257.0,76.2 258.2,76.0 259.4,75.7 260.6,75.5 261.8,75.4 263.0,75.3 264.2,75.3 265.4,75.1 266.5,74.8 267.7,74.7 268.9,74.6 270.1,74.5 271.3,74.3 272.5,74.1 273.7,74.1 274.9,74.0 276.1,73.7 277.3,73.6 278.5,73.4 279.7,73.2 280.9,73.1 282.1,73.1 283.3,73.0 284.5,72.9 285.7,72.7 286.9,72.6 288.1,72.4 289.2,72.3 290.4,72.2 291.6,72.0 292.8,71.9 294.0,71.8 295.2,71.6 296.4,71.4 297.6,71.3 298.8,71.1 300.0,71.0 301.2,70.9 302.4,70.8 303.6,70.7 304.8,70.7 306.0,70.5 307.2,70.3 308.4,70.2 309.6,70.0 310.8,70.0 311.9,69.8 313.1,69.7 314.3,69.5 315.5,69.4 316.7,69.3 317.9,69.2 319.1,69.0 320.3,68.9 321.5,68.8 322.7,68.7 323.9,68.6 325.1,68.5 326.3,68.4 327.5,68.3 328.7,68.2 329.9,68.1 331.1,68.0 332.3,67.7 333.5,67.5 334.6,71.5 335.8,70.7 337.0,69.2 338.2,68.6 339.4,68.0 340.6,67.1 341.8,66.6 343.0,66.3 344.2,65.8 345.4,64.9 346.6,64.3 347.8,64.1 349.0,63.7 350.2,63.5 351.4,63.0 352.6,62.6 353.8,62.1 355.0,61.9 356.2,61.5 357.3,61.3 358.5,61.0 359.7,60.8 360.9,60.5 362.1,60.3 363.3,59.9 364.5,59.6 365.7,59.2 366.9,58.7 368.1,58.4 369.3,58.2 370.5,58.0 371.7,57.8 372.9,57.5 374.1,57.1 375.3,56.9 376.5,56.1 377.7,55.5 378.8,55.2 380.0,55.0 381.2,54.7 382.4,54.3 383.6,54.0 384.8,53.5 386.0,53.2 387.2,52.9 388.4,52.6 389.6,52.2 390.8,52.0 392.0,51.9 393.2,51.7 394.4,51.6 395.6,51.3 396.8,51.2 398.0,51.0 399.2,50.8 400.4,50.7 401.5,50.4 402.7,50.2 403.9,50.1 405.1,49.9 406.3,49.7 407.5,49.6 408.7,49.5 409.9,49.3 411.1,49.2 412.3,49.1 413.5,48.9 414.7,48.8 415.9,48.6 417.1,48.4 418.3,48.3 419.5,48.1 420.7,48.0 421.9,47.9 423.1,47.8 424.2,47.6 425.4,47.5 426.6,47.3 427.8,47.3 429.0,47.1 430.2,46.9 431.4,46.8 432.6,46.6 433.8,46.4 435.0,46.3 436.2,46.1 437.4,45.9 438.6,45.7 439.8,45.5 441.0,45.3 442.2,45.1 443.4,44.9 444.6,44.7 445.8,44.4 446.9,44.2 448.1,44.0 449.3,43.9 450.5,43.8 451.7,43.7 452.9,43.6 454.1,43.4 455.3,43.3 456.5,43.1 457.7,42.9 458.9,42.8 460.1,42.5 461.3,42.3 462.5,42.1 463.7,41.8 464.9,41.7 466.1,41.6 467.3,41.5 468.5,41.4 469.6,41.2 470.8,41.1 472.0,40.9 473.2,40.8 474.4,40.5 475.6,40.4 476.8,40.2 478.0,40.1 479.2,40.0 480.4,39.9 481.6,39.8 482.8,39.7 484.0,39.5 485.2,39.4 486.4,39.3 487.6,39.1 488.8,39.0 490.0,38.8 491.2,38.7 492.3,38.5 493.5,38.5 494.7,38.3 495.9,38.2 497.1,38.1 498.3,37.9 499.5,37.8 500.7,37.5 501.9,37.4 503.1,37.1 504.3,37.0 505.5,37.0 506.7,36.9 507.9,36.7 509.1,36.7 510.3,36.6 511.5,36.5 512.7,36.4 513.8,36.3 515.0,36.1 516.2,36.0 517.4,35.8 518.6,35.7 519.8,35.6 521.0,35.5 522.2,35.3 523.4,35.2 524.6,35.0 525.8,34.9 527.0,34.8 528.2,34.7 529.4,34.6 530.6,34.3 531.8,34.1 533.0,33.9 534.2,33.7 535.4,33.6 536.5,33.4 537.7,33.3 538.9,33.2 540.1,33.1 541.3,33.0 542.5,32.9 543.7,32.7 544.9,32.5 546.1,32.4 547.3,32.2 548.5,32.1 549.7,31.9 550.9,31.7 552.1,31.6 553.3,31.5 554.5,31.4 555.7,31.4 556.9,31.2 558.1,31.1 559.2,30.9 560.4,30.7 561.6,30.6 562.8,30.4 564.0,30.4 565.2,30.3 566.4,30.2 567.6,30.2 568.8,30.1 570.0,30.0 570.0,30.0,120" />
  
  <!-- Linea principale -->
  <polyline fill="none" stroke="#0366d6" stroke-width="2.5" stroke-linecap="round" stroke-linejoin="round" points="30.0,120.0 31.2,119.5 32.4,119.0 33.6,118.6 34.8,118.4 36.0,118.2 37.2,117.7 38.4,117.3 39.6,117.1 40.8,116.5 41.9,116.2 43.1,115.9 44.3,115.8 45.5,115.5 46.7,115.1 47.9,114.7 49.1,114.4 50.3,114.2 51.5,114.0 52.7,113.8 53.9,113.5 55.1,113.2 56.3,113.1 57.5,112.8 58.7,112.0 59.9,111.7 61.1,111.3 62.3,111.0 63.5,110.7 64.6,110.4 65.8,110.2 67.0,110.0 68.2,109.8 69.4,109.4 70.6,109.0 71.8,108.7 73.0,108.4 74.2,108.4 75.4,108.3 76.6,108.1 77.8,107.8 79.0,107.7 80.2,107.6 81.4,107.2 82.6,106.7 83.8,106.6 85.0,106.5 86.2,106.4 87.3,106.0 88.5,105.7 89.7,105.3 90.9,105.0 92.1,104.7 93.3,104.6 94.5,104.4 95.7,104.1 96.9,103.7 98.1,103.4 99.3,103.3 100.5,103.1 101.7,103.0 102.9,102.6 104.1,102.2 105.3,101.9 106.5,101.5 107.7,101.4 108.8,101.3 110.0,101.1 111.2,100.8 112.4,100.7 113.6,100.5 114.8,100.4 116.0,100.3 117.2,100.1 118.4,99.9 119.6,99.8 120.8,99.8 122.0,99.4 123.2,99.2 124.4,99.1 125.6,99.0 126.8,98.9 128.0,98.9 129.2,104.9 130.4,104.4 131.5,103.8 132.7,103.3 133.9,101.6 135.1,100.5 136.3,99.2 137.5,98.8 138.7,98.3 139.9,97.4 141.1,96.5 142.3,95.8 143.5,95.6 144.7,95.3 145.9,94.7 147.1,94.2 148.3,93.9 149.5,93.5 150.7,93.3 151.9,93.3 153.1,92.9 154.2,92.4 155.4,92.0 156.6,91.6 157.8,91.1 159.0,90.9 160.2,90.7 161.4,90.3 162.6,90.0 163.8,89.7 165.0,89.4 166.2,89.3 167.4,89.2 168.6,89.0 169.8,88.7 171.0,88.5 172.2,88.2 173.4,88.1 174.6,87.9 175.8,87.7 176.9,87.6 178.1,87.4 179.3,87.3 180.5,87.0 181.7,86.7 182.9,86.5 184.1,86.3 185.3,86.1 186.5,86.0 187.7,85.9 188.9,85.7 190.1,85.3 191.3,85.0 192.5,84.6 193.7,84.5 194.9,84.5 196.1,84.3 197.3,84.1 198.5,83.9 199.6,83.7 200.8,83.4 202.0,83.2 203.2,83.1 204.4,83.0 205.6,82.9 206.8,82.7 208.0,82.6 209.2,82.4 210.4,82.2 211.6,82.0 212.8,82.0 214.0,81.8 215.2,81.7 216.4,81.5 217.6,81.3 218.8,81.1 220.0,80.9 221.2,80.8 222.3,80.6 223.5,80.5 224.7,80.4 225.9,80.1 227.1,79.9 228.3,79.7 229.5,79.5 230.7,79.2 231.9,79.1 233.1,79.0 234.3,78.9 235.5,78.7 236.7,78.6 237.9,78.4 239.1,78.3 240.3,78.1 241.5,78.0 242.7,77.8 243.8,77.7 245.0,77.7 246.2,77.5 247.4,77.3 248.6,77.2 249.8,77.0 251.0,76.9 252.2,76.7 253.4,76.6 254.6,76.5 255.8,76.4 257.0,76.2 258.2,76.0 259.4,75.7 260.6,75.5 261.8,75.4 263.0,75.3 264.2,75.3 265.4,75.1 266.5,74.8 267.7,74.7 268.9,74.6 270.1,74.5 271.3,74.3 272.5,74.1 273.7,74.1 274.9,74.0 276.1,73.7 277.3,73.6 278.5,73.4 279.7,73.2 280.9,73.1 282.1,73.1 283.3,73.0 284.5,72.9 285.7,72.7 286.9,72.6 288.1,72.4 289.2,72.3 290.4,72.2 291.6,72.0 292.8,71.9 294.0,71.8 295.2,71.6 296.4,71.4 297.6,71.3 298.8,71.1 300.0,71.0 301.2,70.9 302.4,70.8 303.6,70.7 304.8,70.7 306.0,70.5 307.2,70.3 308.4,70.2 309.6,70.0 310.8,70.0 311.9,69.8 313.1,69.7 314.3,69.5 315.5,69.4 316.7,69.3 317.9,69.2 319.1,69.0 320.3,68.9 321.5,68.8 322.7,68.7 323.9,68.6 325.1,68.5 326.3,68.4 327.5,68.3 328.7,68.2 329.9,68.1 331.1,68.0 332.3,67.7 333.5,67.5 334.6,71.5 335.8,70.7 337.0,69.2 338.2,68.6 339.4,68.0 340.6,67.1 341.8,66.6 343.0,66.3 344.2,65.8 345.4,64.9 346.6,64.3 347.8,64.1 349.0,63.7 350.2,63.5 351.4,63.0 352.6,62.6 353.8,62.1 355.0,61.9 356.2,61.5 357.3,61.3 358.5,61.0 359.7,60.8 360.9,60.5 362.1,60.3 363.3,59.9 364.5,59.6 365.7,59.2 366.9,58.7 368.1,58.4 369.3,58.2 370.5,58.0 371.7,57.8 372.9,57.5 374.1,57.1 375.3,56.9 376.5,56.1 377.7,55.5 378.8,55.2 380.0,55.0 381.2,54.7 382.4,54.3 383.6,54.0 384.8,53.5 386.0,53.2 387.2,52.9 388.4,52.6 389.6,52.2 390.8,52.0 392.0,51.9 393.2,51.7 394.4,51.6 395.6,51.3 396.8,51.2 398.0,51.0 399.2,50.8 400.4,50.7 401.5,50.4 402.7,50.2 403.9,50.1 405.1,49.9 406.3,49.7 407.5,49.6 408.7,49.5 409.9,49.3 411.1,49.2 412.3,49.1 413.5,48.9 414.7,48.8 415.9,48.6 417.1,48.4 418.3,48.3 419.5,48.1 420.7,48.0 421.9,47.9 423.1,47.8 424.2,47.6 425.4,47.5 426.6,47.3 427.8,47.3 429.0,47.1 430.2,46.9 431.4,46.8 432.6,46.6 433.8,46.4 435.0,46.3 436.2,46.1 437.4,45.9 438.6,45.7 439.8,45.5 441.0,45.3 442.2,45.1 443.4,44.9 444.6,44.7 445.8,44.4 446.9,44.2 448.1,44.0 449.3,43.9 450.5,43.8 451.7,43.7 452.9,43.6 454.1,43.4 455.3,43.3 456.5,43.1 457.7,42.9 458.9,42.8 460.1,42.5 461.3,42.3 462.5,42.1 463.7,41.8 464.9,41.7 466.1,41.6 467.3,41.5 468.5,41.4 469.6,41.2 470.8,41.1 472.0,40.9 473.2,40.8 474.4,40.5 475.6,40.4 476.8,40.2 478.0,40.1 479.2,40.0 480.4,39.9 481.6,39.8 482.8,39.7 484.0,39.5 485.2,39.4 486.4,39.3 487.6,39.1 488.8,39.0 490.0,38.8 491.2,38.7 492.3,38.5 493.5,38.5 494.7,38.3 495.9,38.2 497.1,38.1 498.3,37.9 499.5,37.8 500.7,37.5 501.9,37.4 503.1,37.1 504.3,37.0 505.5,37.0 506.7,36.9 507.9,36.7 509.1,36.7 510.3,36.6 511.5,36.5 512.7,36.4 513.8,36.3 515.0,36.1 516.2,36.0 517.4,35.8 518.6,35.7 519.8,35.6 521.0,35.5 522.2,35.3 523.4,35.2 524.6,35.0 525.8,34.9 527.0,34.8 528.2,34.7 529.4,34.6 530.6,34.3 531.8,34.1 533.0,33.9 534.2,33.7 535.4,33.6 536.5,33.4 537.7,33.3 538.9,33.2 540.1,33.1 541.3,33.0 542.5,32.9 543.7,32.7 544.9,32.5 546.1,32.4 547.3,32.2 548.5,32.1 549.7,31.9 550.9,31.7 552.1,31.6 553.3,31.5 554.5,31.4 555.7,31.4 556.9,31.2 558.1,31.1 559.2,30.9 560.4,30.7 561.6,30.6 562.8,30.4 564.0,30.4 565.2,30.3 566.4,30.2 567.6,30.2 568.8,30.1 570.0,30.0" />
  
  <!-- Punto finale luminoso -->
  <circle cx="570.0" cy="30.0" r="4" fill="#ffffff" stroke="#0366d6" stroke-width="2.5" />
</svg>