<svg width="600" height="150" viewBox="0 0 600 150" xmlns="http://www.w3.org/2000/svg">
  <defs>
    <filter id="shadow2" x="-2%" y="-2%" width="104%" height="108%">
      <feDropShadow dx="0" dy="2" stdDeviation="3" flood-opacity="0.1" />
    </filter>
    <linearGradient id="fillGrad" x1="0" y1="0" x2="0" y2="1">
      <stop offset="0%" stop-color="#0366d6" stop-opacity="0.3"/>
      <stop offset="100%" stop-color="#0366d6" stop-opacity="0.02"/>
    </linearGradient>
  </defs>
  <rect width="600" height="150" rx="12" fill="#ffffff" filter="url(#shadow2)" stroke="#e1e4e8" stroke-width="1"/>
  <text x="20" y="24" fill="#2b3137" font-family="-apple-system,BlinkMacSystemFont,'Segoe UI',Helvetica,Arial,sans-serif" font-size="14" font-weight="600">📈 Download Growth (Actual: 84.1k)</text>
  
  <!-- Area sotto la linea -->
  <polygon fill="url(#fillGrad)" points="30.0,120.0,120 30.0,120.0 31.6,119.4 33.3,118.8 34.9,118.2 36.5,118.1 38.2,117.8 39.8,117.1 41.4,116.6 43.1,116.3 44.7,115.6 46.3,115.3 47.9,114.9 49.6,114.7 51.2,114.4 52.8,113.9 54.5,113.4 56.1,113.1 57.7,112.8 59.4,112.6 61.0,112.3 62.6,111.9 64.3,111.6 65.9,111.4 67.5,111.1 69.2,110.0 70.8,109.7 72.4,109.3 74.0,108.8 75.7,108.4 77.3,108.1 78.9,107.8 80.6,107.6 82.2,107.3 83.8,106.8 85.5,106.3 87.1,106.0 88.7,105.7 90.4,105.6 92.0,105.5 93.6,105.3 95.3,104.9 96.9,104.7 98.5,104.6 100.2,104.1 101.8,103.6 103.4,103.4 105.0,103.3 106.7,103.1 108.3,102.6 109.9,102.3 111.6,101.8 113.2,101.4 114.8,101.0 116.5,100.9 118.1,100.7 119.7,100.2 121.4,99.8 123.0,99.4 124.6,99.3 126.3,99.1 127.9,98.9 129.5,98.4 131.1,97.9 132.8,97.5 134.4,97.1 136.0,96.9 137.7,96.7 139.3,96.6 140.9,96.2 142.6,96.0 144.2,95.8 145.8,95.6 147.5,95.5 149.1,95.3 150.7,95.1 152.4,95.0 154.0,94.9 155.6,94.4 157.3,94.2 158.9,94.1 160.5,93.9 162.1,93.8 163.8,93.8 165.4,101.3 167.0,100.6 168.7,99.9 170.3,99.2 171.9,97.2 173.6,95.8 175.2,94.2 176.8,93.7 178.5,93.0 180.1,92.0 181.7,90.8 183.4,90.0 185.0,89.7 186.6,89.4 188.2,88.6 189.9,88.0 191.5,87.6 193.1,87.1 194.8,86.9 196.4,86.8 198.0,86.4 199.7,85.7 201.3,85.2 202.9,84.7 204.6,84.1 206.2,83.9 207.8,83.7 209.5,83.2 211.1,82.8 212.7,82.3 214.4,82.0 216.0,81.9 217.6,81.8 219.2,81.5 220.9,81.1 222.5,80.9 224.1,80.6 225.8,80.4 227.4,80.2 229.0,79.9 230.7,79.7 232.3,79.6 233.9,79.4 235.6,79.0 237.2,78.7 238.8,78.4 240.5,78.2 242.1,78.0 243.7,77.8 245.3,77.6 247.0,77.5 248.6,76.9 250.2,76.6 251.9,76.1 253.5,75.9 255.1,75.9 256.8,75.7 258.4,75.4 260.0,75.2 261.7,74.9 263.3,74.6 264.9,74.3 266.6,74.2 268.2,74.1 269.8,73.9 271.5,73.8 273.1,73.5 274.7,73.4 276.3,73.0 278.0,72.9 279.6,72.8 281.2,72.6 282.9,72.5 284.5,72.2 286.1,72.0 287.8,71.8 289.4,71.5 291.0,71.3 292.7,71.1 294.3,71.0 295.9,70.9 297.6,70.5 299.2,70.2 300.8,70.0 302.4,69.7 304.1,69.3 305.7,69.2 307.3,69.1 309.0,69.0 310.6,68.8 312.2,68.6 313.9,68.4 315.5,68.2 317.1,68.0 318.8,67.9 320.4,67.7 322.0,67.6 323.7,67.5 325.3,67.3 326.9,67.0 328.5,66.8 330.2,66.6 331.8,66.5 333.4,66.3 335.1,66.1 336.7,66.0 338.3,65.9 340.0,65.7 341.6,65.4 343.2,65.0 344.9,64.8 346.5,64.6 348.1,64.6 349.8,64.5 351.4,64.3 353.0,64.0 354.7,63.8 356.3,63.7 357.9,63.5 359.5,63.3 361.2,63.1 362.8,63.0 364.4,62.9 366.1,62.6 367.7,62.4 369.3,62.1 371.0,61.9 372.6,61.8 374.2,61.7 375.9,61.7 377.5,61.5 379.1,61.3 380.8,61.1 382.4,60.9 384.0,60.7 385.6,60.6 387.3,60.5 388.9,60.3 390.5,60.2 392.2,59.9 393.8,59.7 395.4,59.5 397.1,59.3 398.7,59.2 400.3,59.1 402.0,59.0 403.6,58.9 405.2,58.8 406.9,58.6 408.5,58.3 410.1,58.2 411.8,58.0 413.4,57.9 415.0,57.7 416.6,57.6 418.3,57.4 419.9,57.2 421.5,57.1 423.2,57.0 424.8,56.8 426.4,56.6 428.1,56.4 429.7,56.3 431.3,56.2 433.0,56.1 434.6,56.0 436.2,55.8 437.9,55.7 439.5,55.6 441.1,55.5 442.7,55.1 444.4,54.9 446.0,59.8 447.6,58.8 449.3,57.0 450.9,56.3 452.5,55.4 454.2,54.3 455.8,53.8 457.4,53.4 459.1,52.7 460.7,51.6 462.3,50.8 464.0,50.6 465.6,50.2 467.2,49.9 468.9,49.3 470.5,48.8 472.1,48.2 473.7,47.9 475.4,47.4 477.0,47.1 478.6,46.7 480.3,46.5 481.9,46.2 483.5,46.0 485.2,45.4 486.8,45.1 488.4,44.6 490.1,43.9 491.7,43.5 493.3,43.3 495.0,43.1 496.6,42.8 498.2,42.4 499.8,42.0 501.5,41.7 503.1,40.7 504.7,39.9 506.4,39.5 508.0,39.3 509.6,39.0 511.3,38.5 512.9,38.1 514.5,37.4 516.2,37.1 517.8,36.7 519.4,36.4 521.1,35.9 522.7,35.7 524.3,35.5 526.0,35.3 527.6,35.1 529.2,34.8 530.8,34.6 532.5,34.3 534.1,34.1 535.7,33.9 537.4,33.6 539.0,33.4 540.6,33.2 542.3,33.0 543.9,32.8 545.5,32.6 547.2,32.5 548.8,32.3 550.4,32.1 552.1,32.0 553.7,31.8 555.3,31.6 556.9,31.4 558.6,31.2 560.2,31.0 561.8,30.8 563.5,30.6 565.1,30.5 566.7,30.3 568.4,30.2 570.0,30.0 570.0,30.0,120" />
  
  <!-- Linea principale -->
  <polyline fill="none" stroke="#0366d6" stroke-width="2.5" stroke-linecap="round" stroke-linejoin="round" points="30.0,120.0 31.6,119.4 33.3,118.8 34.9,118.2 36.5,118.1 38.2,117.8 39.8,117.1 41.4,116.6 43.1,116.3 44.7,115.6 46.3,115.3 47.9,114.9 49.6,114.7 51.2,114.4 52.8,113.9 54.5,113.4 56.1,113.1 57.7,112.8 59.4,112.6 61.0,112.3 62.6,111.9 64.3,111.6 65.9,111.4 67.5,111.1 69.2,110.0 70.8,109.7 72.4,109.3 74.0,108.8 75.7,108.4 77.3,108.1 78.9,107.8 80.6,107.6 82.2,107.3 83.8,106.8 85.5,106.3 87.1,106.0 88.7,105.7 90.4,105.6 92.0,105.5 93.6,105.3 95.3,104.9 96.9,104.7 98.5,104.6 100.2,104.1 101.8,103.6 103.4,103.4 105.0,103.3 106.7,103.1 108.3,102.6 109.9,102.3 111.6,101.8 113.2,101.4 114.8,101.0 116.5,100.9 118.1,100.7 119.7,100.2 121.4,99.8 123.0,99.4 124.6,99.3 126.3,99.1 127.9,98.9 129.5,98.4 131.1,97.9 132.8,97.5 134.4,97.1 136.0,96.9 137.7,96.7 139.3,96.6 140.9,96.2 142.6,96.0 144.2,95.8 145.8,95.6 147.5,95.5 149.1,95.3 150.7,95.1 152.4,95.0 154.0,94.9 155.6,94.4 157.3,94.2 158.9,94.1 160.5,93.9 162.1,93.8 163.8,93.8 165.4,101.3 167.0,100.6 168.7,99.9 170.3,99.2 171.9,97.2 173.6,95.8 175.2,94.2 176.8,93.7 178.5,93.0 180.1,92.0 181.7,90.8 183.4,90.0 185.0,89.7 186.6,89.4 188.2,88.6 189.9,88.0 191.5,87.6 193.1,87.1 194.8,86.9 196.4,86.8 198.0,86.4 199.7,85.7 201.3,85.2 202.9,84.7 204.6,84.1 206.2,83.9 207.8,83.7 209.5,83.2 211.1,82.8 212.7,82.3 214.4,82.0 216.0,81.9 217.6,81.8 219.2,81.5 220.9,81.1 222.5,80.9 224.1,80.6 225.8,80.4 227.4,80.2 229.0,79.9 230.7,79.7 232.3,79.6 233.9,79.4 235.6,79.0 237.2,78.7 238.8,78.4 240.5,78.2 242.1,78.0 243.7,77.8 245.3,77.6 247.0,77.5 248.6,76.9 250.2,76.6 251.9,76.1 253.5,75.9 255.1,75.9 256.8,75.7 258.4,75.4 260.0,75.2 261.7,74.9 263.3,74.6 264.9,74.3 266.6,74.2 268.2,74.1 269.8,73.9 271.5,73.8 273.1,73.5 274.7,73.4 276.3,73.0 278.0,72.9 279.6,72.8 281.2,72.6 282.9,72.5 284.5,72.2 286.1,72.0 287.8,71.8 289.4,71.5 291.0,71.3 292.7,71.1 294.3,71.0 295.9,70.9 297.6,70.5 299.2,70.2 300.8,70.0 302.4,69.7 304.1,69.3 305.7,69.2 307.3,69.1 309.0,69.0 310.6,68.8 312.2,68.6 313.9,68.4 315.5,68.2 317.1,68.0 318.8,67.9 320.4,67.7 322.0,67.6 323.7,67.5 325.3,67.3 326.9,67.0 328.5,66.8 330.2,66.6 331.8,66.5 333.4,66.3 335.1,66.1 336.7,66.0 338.3,65.9 340.0,65.7 341.6,65.4 343.2,65.0 344.9,64.8 346.5,64.6 348.1,64.6 349.8,64.5 351.4,64.3 353.0,64.0 354.7,63.8 356.3,63.7 357.9,63.5 359.5,63.3 361.2,63.1 362.8,63.0 364.4,62.9 366.1,62.6 367.7,62.4 369.3,62.1 371.0,61.9 372.6,61.8 374.2,61.7 375.9,61.7 377.5,61.5 379.1,61.3 380.8,61.1 382.4,60.9 384.0,60.7 385.6,60.6 387.3,60.5 388.9,60.3 390.5,60.2 392.2,59.9 393.8,59.7 395.4,59.5 397.1,59.3 398.7,59.2 400.3,59.1 402.0,59.0 403.6,58.9 405.2,58.8 406.9,58.6 408.5,58.3 410.1,58.2 411.8,58.0 413.4,57.9 415.0,57.7 416.6,57.6 418.3,57.4 419.9,57.2 421.5,57.1 423.2,57.0 424.8,56.8 426.4,56.6 428.1,56.4 429.7,56.3 431.3,56.2 433.0,56.1 434.6,56.0 436.2,55.8 437.9,55.7 439.5,55.6 441.1,55.5 442.7,55.1 444.4,54.9 446.0,59.8 447.6,58.8 449.3,57.0 450.9,56.3 452.5,55.4 454.2,54.3 455.8,53.8 457.4,53.4 459.1,52.7 460.7,51.6 462.3,50.8 464.0,50.6 465.6,50.2 467.2,49.9 468.9,49.3 470.5,48.8 472.1,48.2 473.7,47.9 475.4,47.4 477.0,47.1 478.6,46.7 480.3,46.5 481.9,46.2 483.5,46.0 485.2,45.4 486.8,45.1 488.4,44.6 490.1,43.9 491.7,43.5 493.3,43.3 495.0,43.1 496.6,42.8 498.2,42.4 499.8,42.0 501.5,41.7 503.1,40.7 504.7,39.9 506.4,39.5 508.0,39.3 509.6,39.0 511.3,38.5 512.9,38.1 514.5,37.4 516.2,37.1 517.8,36.7 519.4,36.4 521.1,35.9 522.7,35.7 524.3,35.5 526.0,35.3 527.6,35.1 529.2,34.8 530.8,34.6 532.5,34.3 534.1,34.1 535.7,33.9 537.4,33.6 539.0,33.4 540.6,33.2 542.3,33.0 543.9,32.8 545.5,32.6 547.2,32.5 548.8,32.3 550.4,32.1 552.1,32.0 553.7,31.8 555.3,31.6 556.9,31.4 558.6,31.2 560.2,31.0 561.8,30.8 563.5,30.6 565.1,30.5 566.7,30.3 568.4,30.2 570.0,30.0" />
  
  <!-- Punto finale luminoso -->
  <circle cx="570.0" cy="30.0" r="4" fill="#ffffff" stroke="#0366d6" stroke-width="2.5" />
</svg>