<svg width="600" height="150" viewBox="0 0 600 150" xmlns="http://www.w3.org/2000/svg">
  <defs>
    <filter id="shadow2" x="-2%" y="-2%" width="104%" height="108%">
      <feDropShadow dx="0" dy="2" stdDeviation="3" flood-opacity="0.1" />
    </filter>
    <linearGradient id="fillGrad" x1="0" y1="0" x2="0" y2="1">
      <stop offset="0%" stop-color="#0366d6" stop-opacity="0.3"/>
      <stop offset="100%" stop-color="#0366d6" stop-opacity="0.02"/>
    </linearGradient>
  </defs>
  <rect width="600" height="150" rx="12" fill="#ffffff" filter="url(#shadow2)" stroke="#e1e4e8" stroke-width="1"/>
  <text x="20" y="24" fill="#2b3137" font-family="-apple-system,BlinkMacSystemFont,'Segoe UI',Helvetica,Arial,sans-serif" font-size="14" font-weight="600">📈 Download Growth (Actual: 87.5k)</text>
  
  <!-- Area sotto la linea -->
  <polygon fill="url(#fillGrad)" points="30.0,120.0,120 30.0,120.0 31.3,119.5 32.5,119.0 33.8,118.5 35.1,118.4 36.3,118.1 37.6,117.6 38.9,117.2 40.1,116.9 41.4,116.4 42.7,116.1 43.9,115.8 45.2,115.6 46.5,115.3 47.7,114.9 49.0,114.5 50.3,114.2 51.5,114.0 52.8,113.8 54.1,113.6 55.4,113.3 56.6,113.0 57.9,112.9 59.2,112.6 60.4,111.7 61.7,111.4 63.0,111.0 64.2,110.7 65.5,110.3 66.8,110.0 68.0,109.8 69.3,109.7 70.6,109.4 71.8,109.0 73.1,108.6 74.4,108.3 75.6,108.0 76.9,107.9 78.2,107.9 79.4,107.7 80.7,107.4 82.0,107.2 83.2,107.1 84.5,106.8 85.8,106.3 87.0,106.1 88.3,106.1 89.6,105.9 90.8,105.5 92.1,105.2 93.4,104.8 94.6,104.5 95.9,104.1 97.2,104.1 98.5,103.8 99.7,103.5 101.0,103.1 102.3,102.8 103.5,102.7 104.8,102.5 106.1,102.3 107.3,101.9 108.6,101.5 109.9,101.2 111.1,100.9 112.4,100.7 113.7,100.6 114.9,100.4 116.2,100.1 117.5,100.0 118.7,99.8 120.0,99.7 121.3,99.5 122.5,99.3 123.8,99.2 125.1,99.1 126.3,99.0 127.6,98.6 128.9,98.4 130.1,98.4 131.4,98.2 132.7,98.2 133.9,98.2 135.2,104.4 136.5,103.8 137.7,103.2 139.0,102.7 140.3,101.0 141.5,99.8 142.8,98.5 144.1,98.0 145.4,97.5 146.6,96.6 147.9,95.6 149.2,94.9 150.4,94.7 151.7,94.4 153.0,93.8 154.2,93.3 155.5,92.9 156.8,92.5 158.0,92.4 159.3,92.3 160.6,91.9 161.8,91.3 163.1,90.9 164.4,90.5 165.6,90.0 166.9,89.8 168.2,89.7 169.4,89.3 170.7,88.9 172.0,88.5 173.2,88.3 174.5,88.1 175.8,88.1 177.0,87.8 178.3,87.5 179.6,87.3 180.8,87.1 182.1,86.9 183.4,86.7 184.6,86.5 185.9,86.4 187.2,86.2 188.5,86.1 189.7,85.8 191.0,85.5 192.3,85.2 193.5,85.1 194.8,84.9 196.1,84.8 197.3,84.6 198.6,84.5 199.9,84.0 201.1,83.7 202.4,83.3 203.7,83.2 204.9,83.2 206.2,83.0 207.5,82.8 208.7,82.5 210.0,82.3 211.3,82.0 212.5,81.9 213.8,81.8 215.1,81.6 216.3,81.5 217.6,81.4 218.9,81.2 220.1,81.0 221.4,80.8 222.7,80.6 223.9,80.6 225.2,80.4 226.5,80.3 227.7,80.1 229.0,79.9 230.3,79.7 231.5,79.5 232.8,79.3 234.1,79.2 235.4,79.1 236.6,78.9 237.9,78.7 239.2,78.4 240.4,78.2 241.7,78.0 243.0,77.7 244.2,77.6 245.5,77.5 246.8,77.4 248.0,77.2 249.3,77.1 250.6,76.9 251.8,76.8 253.1,76.6 254.4,76.5 255.6,76.3 256.9,76.2 258.2,76.1 259.4,75.9 260.7,75.7 262.0,75.6 263.2,75.4 264.5,75.3 265.8,75.2 267.0,75.0 268.3,74.9 269.6,74.8 270.8,74.6 272.1,74.4 273.4,74.1 274.6,73.9 275.9,73.7 277.2,73.7 278.5,73.6 279.7,73.4 281.0,73.2 282.3,73.1 283.5,73.0 284.8,72.8 286.1,72.7 287.3,72.5 288.6,72.4 289.9,72.3 291.1,72.0 292.4,71.9 293.7,71.7 294.9,71.5 296.2,71.4 297.5,71.3 298.7,71.3 300.0,71.1 301.3,71.0 302.5,70.8 303.8,70.7 305.1,70.5 306.3,70.4 307.6,70.3 308.9,70.2 310.1,70.0 311.4,69.8 312.7,69.6 313.9,69.5 315.2,69.3 316.5,69.2 317.7,69.1 319.0,69.0 320.3,68.9 321.5,68.9 322.8,68.7 324.1,68.5 325.4,68.4 326.6,68.2 327.9,68.1 329.2,68.0 330.4,67.9 331.7,67.7 333.0,67.6 334.2,67.5 335.5,67.3 336.8,67.2 338.0,67.0 339.3,66.9 340.6,66.8 341.8,66.7 343.1,66.6 344.4,66.5 345.6,66.4 346.9,66.3 348.2,66.2 349.4,66.1 350.7,65.8 352.0,65.6 353.2,69.7 354.5,68.9 355.8,67.3 357.0,66.8 358.3,66.0 359.6,65.2 360.8,64.7 362.1,64.4 363.4,63.8 364.6,62.9 365.9,62.2 367.2,62.0 368.5,61.7 369.7,61.4 371.0,61.0 372.3,60.5 373.5,60.0 374.8,59.8 376.1,59.3 377.3,59.1 378.6,58.8 379.9,58.6 381.1,58.4 382.4,58.2 383.7,57.7 384.9,57.4 386.2,57.0 387.5,56.4 388.7,56.1 390.0,55.9 391.3,55.8 392.5,55.5 393.8,55.2 395.1,54.9 396.3,54.6 397.6,53.7 398.9,53.1 400.1,52.8 401.4,52.6 402.7,52.4 403.9,51.9 405.2,51.6 406.5,51.1 407.7,50.7 409.0,50.4 410.3,50.2 411.5,49.8 412.8,49.6 414.1,49.4 415.4,49.2 416.6,49.1 417.9,48.8 419.2,48.7 420.4,48.4 421.7,48.3 423.0,48.1 424.2,47.8 425.5,47.7 426.8,47.5 428.0,47.3 429.3,47.2 430.6,47.0 431.8,46.9 433.1,46.8 434.4,46.6 435.6,46.5 436.9,46.3 438.2,46.2 439.4,46.0 440.7,45.8 442.0,45.6 443.2,45.5 444.5,45.3 445.8,45.2 447.0,45.1 448.3,45.0 449.6,44.8 450.8,44.7 452.1,44.6 453.4,44.5 454.6,44.3 455.9,44.1 457.2,43.9 458.5,43.7 459.7,43.6 461.0,43.4 462.3,43.1 463.5,43.0 464.8,42.8 466.1,42.6 467.3,42.4 468.6,42.1 469.9,41.9 471.1,41.7 472.4,41.5 473.7,41.2 474.9,41.1 476.2,41.0 477.5,40.9 478.7,40.8 480.0,40.6 481.3,40.5 482.5,40.3 483.8,40.1 485.1,39.9 486.3,39.7 487.6,39.5 488.9,39.3 490.1,39.0 491.4,38.9 492.7,38.7 493.9,38.6 495.2,38.5 496.5,38.4 497.7,38.2 499.0,38.0 500.3,37.9 501.5,37.6 502.8,37.5 504.1,37.3 505.4,37.2 506.6,37.0 507.9,36.9 509.2,36.9 510.4,36.8 511.7,36.6 513.0,36.5 514.2,36.3 515.5,36.2 516.8,36.0 518.0,35.8 519.3,35.7 520.6,35.6 521.8,35.5 523.1,35.3 524.4,35.2 525.6,35.1 526.9,34.9 528.2,34.8 529.4,34.5 530.7,34.4 532.0,34.1 533.2,34.0 534.5,33.9 535.8,33.8 537.0,33.7 538.3,33.6 539.6,33.6 540.8,33.4 542.1,33.3 543.4,33.2 544.6,33.1 545.9,32.9 547.2,32.7 548.5,32.6 549.7,32.5 551.0,32.4 552.3,32.2 553.5,32.1 554.8,31.9 556.1,31.8 557.3,31.7 558.6,31.6 559.9,31.5 561.1,31.2 562.4,31.0 563.7,30.7 564.9,30.6 566.2,30.4 567.5,30.3 568.7,30.1 570.0,30.0 570.0,30.0,120" />
  
  <!-- Linea principale -->
  <polyline fill="none" stroke="#0366d6" stroke-width="2.5" stroke-linecap="round" stroke-linejoin="round" points="30.0,120.0 31.3,119.5 32.5,119.0 33.8,118.5 35.1,118.4 36.3,118.1 37.6,117.6 38.9,117.2 40.1,116.9 41.4,116.4 42.7,116.1 43.9,115.8 45.2,115.6 46.5,115.3 47.7,114.9 49.0,114.5 50.3,114.2 51.5,114.0 52.8,113.8 54.1,113.6 55.4,113.3 56.6,113.0 57.9,112.9 59.2,112.6 60.4,111.7 61.7,111.4 63.0,111.0 64.2,110.7 65.5,110.3 66.8,110.0 68.0,109.8 69.3,109.7 70.6,109.4 71.8,109.0 73.1,108.6 74.4,108.3 75.6,108.0 76.9,107.9 78.2,107.9 79.4,107.7 80.7,107.4 82.0,107.2 83.2,107.1 84.5,106.8 85.8,106.3 87.0,106.1 88.3,106.1 89.6,105.9 90.8,105.5 92.1,105.2 93.4,104.8 94.6,104.5 95.9,104.1 97.2,104.1 98.5,103.8 99.7,103.5 101.0,103.1 102.3,102.8 103.5,102.7 104.8,102.5 106.1,102.3 107.3,101.9 108.6,101.5 109.9,101.2 111.1,100.9 112.4,100.7 113.7,100.6 114.9,100.4 116.2,100.1 117.5,100.0 118.7,99.8 120.0,99.7 121.3,99.5 122.5,99.3 123.8,99.2 125.1,99.1 126.3,99.0 127.6,98.6 128.9,98.4 130.1,98.4 131.4,98.2 132.7,98.2 133.9,98.2 135.2,104.4 136.5,103.8 137.7,103.2 139.0,102.7 140.3,101.0 141.5,99.8 142.8,98.5 144.1,98.0 145.4,97.5 146.6,96.6 147.9,95.6 149.2,94.9 150.4,94.7 151.7,94.4 153.0,93.8 154.2,93.3 155.5,92.9 156.8,92.5 158.0,92.4 159.3,92.3 160.6,91.9 161.8,91.3 163.1,90.9 164.4,90.5 165.6,90.0 166.9,89.8 168.2,89.7 169.4,89.3 170.7,88.9 172.0,88.5 173.2,88.3 174.5,88.1 175.8,88.1 177.0,87.8 178.3,87.5 179.6,87.3 180.8,87.1 182.1,86.9 183.4,86.7 184.6,86.5 185.9,86.4 187.2,86.2 188.5,86.1 189.7,85.8 191.0,85.5 192.3,85.2 193.5,85.1 194.8,84.9 196.1,84.8 197.3,84.6 198.6,84.5 199.9,84.0 201.1,83.7 202.4,83.3 203.7,83.2 204.9,83.2 206.2,83.0 207.5,82.8 208.7,82.5 210.0,82.3 211.3,82.0 212.5,81.9 213.8,81.8 215.1,81.6 216.3,81.5 217.6,81.4 218.9,81.2 220.1,81.0 221.4,80.8 222.7,80.6 223.9,80.6 225.2,80.4 226.5,80.3 227.7,80.1 229.0,79.9 230.3,79.7 231.5,79.5 232.8,79.3 234.1,79.2 235.4,79.1 236.6,78.9 237.9,78.7 239.2,78.4 240.4,78.2 241.7,78.0 243.0,77.7 244.2,77.6 245.5,77.5 246.8,77.4 248.0,77.2 249.3,77.1 250.6,76.9 251.8,76.8 253.1,76.6 254.4,76.5 255.6,76.3 256.9,76.2 258.2,76.1 259.4,75.9 260.7,75.7 262.0,75.6 263.2,75.4 264.5,75.3 265.8,75.2 267.0,75.0 268.3,74.9 269.6,74.8 270.8,74.6 272.1,74.4 273.4,74.1 274.6,73.9 275.9,73.7 277.2,73.7 278.5,73.6 279.7,73.4 281.0,73.2 282.3,73.1 283.5,73.0 284.8,72.8 286.1,72.7 287.3,72.5 288.6,72.4 289.9,72.3 291.1,72.0 292.4,71.9 293.7,71.7 294.9,71.5 296.2,71.4 297.5,71.3 298.7,71.3 300.0,71.1 301.3,71.0 302.5,70.8 303.8,70.7 305.1,70.5 306.3,70.4 307.6,70.3 308.9,70.2 310.1,70.0 311.4,69.8 312.7,69.6 313.9,69.5 315.2,69.3 316.5,69.2 317.7,69.1 319.0,69.0 320.3,68.9 321.5,68.9 322.8,68.7 324.1,68.5 325.4,68.4 326.6,68.2 327.9,68.1 329.2,68.0 330.4,67.9 331.7,67.7 333.0,67.6 334.2,67.5 335.5,67.3 336.8,67.2 338.0,67.0 339.3,66.9 340.6,66.8 341.8,66.7 343.1,66.6 344.4,66.5 345.6,66.4 346.9,66.3 348.2,66.2 349.4,66.1 350.7,65.8 352.0,65.6 353.2,69.7 354.5,68.9 355.8,67.3 357.0,66.8 358.3,66.0 359.6,65.2 360.8,64.7 362.1,64.4 363.4,63.8 364.6,62.9 365.9,62.2 367.2,62.0 368.5,61.7 369.7,61.4 371.0,61.0 372.3,60.5 373.5,60.0 374.8,59.8 376.1,59.3 377.3,59.1 378.6,58.8 379.9,58.6 381.1,58.4 382.4,58.2 383.7,57.7 384.9,57.4 386.2,57.0 387.5,56.4 388.7,56.1 390.0,55.9 391.3,55.8 392.5,55.5 393.8,55.2 395.1,54.9 396.3,54.6 397.6,53.7 398.9,53.1 400.1,52.8 401.4,52.6 402.7,52.4 403.9,51.9 405.2,51.6 406.5,51.1 407.7,50.7 409.0,50.4 410.3,50.2 411.5,49.8 412.8,49.6 414.1,49.4 415.4,49.2 416.6,49.1 417.9,48.8 419.2,48.7 420.4,48.4 421.7,48.3 423.0,48.1 424.2,47.8 425.5,47.7 426.8,47.5 428.0,47.3 429.3,47.2 430.6,47.0 431.8,46.9 433.1,46.8 434.4,46.6 435.6,46.5 436.9,46.3 438.2,46.2 439.4,46.0 440.7,45.8 442.0,45.6 443.2,45.5 444.5,45.3 445.8,45.2 447.0,45.1 448.3,45.0 449.6,44.8 450.8,44.7 452.1,44.6 453.4,44.5 454.6,44.3 455.9,44.1 457.2,43.9 458.5,43.7 459.7,43.6 461.0,43.4 462.3,43.1 463.5,43.0 464.8,42.8 466.1,42.6 467.3,42.4 468.6,42.1 469.9,41.9 471.1,41.7 472.4,41.5 473.7,41.2 474.9,41.1 476.2,41.0 477.5,40.9 478.7,40.8 480.0,40.6 481.3,40.5 482.5,40.3 483.8,40.1 485.1,39.9 486.3,39.7 487.6,39.5 488.9,39.3 490.1,39.0 491.4,38.9 492.7,38.7 493.9,38.6 495.2,38.5 496.5,38.4 497.7,38.2 499.0,38.0 500.3,37.9 501.5,37.6 502.8,37.5 504.1,37.3 505.4,37.2 506.6,37.0 507.9,36.9 509.2,36.9 510.4,36.8 511.7,36.6 513.0,36.5 514.2,36.3 515.5,36.2 516.8,36.0 518.0,35.8 519.3,35.7 520.6,35.6 521.8,35.5 523.1,35.3 524.4,35.2 525.6,35.1 526.9,34.9 528.2,34.8 529.4,34.5 530.7,34.4 532.0,34.1 533.2,34.0 534.5,33.9 535.8,33.8 537.0,33.7 538.3,33.6 539.6,33.6 540.8,33.4 542.1,33.3 543.4,33.2 544.6,33.1 545.9,32.9 547.2,32.7 548.5,32.6 549.7,32.5 551.0,32.4 552.3,32.2 553.5,32.1 554.8,31.9 556.1,31.8 557.3,31.7 558.6,31.6 559.9,31.5 561.1,31.2 562.4,31.0 563.7,30.7 564.9,30.6 566.2,30.4 567.5,30.3 568.7,30.1 570.0,30.0" />
  
  <!-- Punto finale luminoso -->
  <circle cx="570.0" cy="30.0" r="4" fill="#ffffff" stroke="#0366d6" stroke-width="2.5" />
</svg>