<svg width="600" height="150" viewBox="0 0 600 150" xmlns="http://www.w3.org/2000/svg">
  <defs>
    <filter id="shadow2" x="-2%" y="-2%" width="104%" height="108%">
      <feDropShadow dx="0" dy="2" stdDeviation="3" flood-opacity="0.1" />
    </filter>
    <linearGradient id="fillGrad" x1="0" y1="0" x2="0" y2="1">
      <stop offset="0%" stop-color="#0366d6" stop-opacity="0.3"/>
      <stop offset="100%" stop-color="#0366d6" stop-opacity="0.02"/>
    </linearGradient>
  </defs>
  <rect width="600" height="150" rx="12" fill="#ffffff" filter="url(#shadow2)" stroke="#e1e4e8" stroke-width="1"/>
  <text x="20" y="24" fill="#2b3137" font-family="-apple-system,BlinkMacSystemFont,'Segoe UI',Helvetica,Arial,sans-serif" font-size="14" font-weight="600">📈 Download Growth (Actual: 86.5k)</text>
  
  <!-- Area sotto la linea -->
  <polygon fill="url(#fillGrad)" points="30.0,120.0,120 30.0,120.0 31.4,119.5 32.7,118.9 34.1,118.4 35.5,118.3 36.8,118.1 38.2,117.5 39.5,117.1 40.9,116.8 42.3,116.2 43.6,115.9 45.0,115.6 46.4,115.4 47.7,115.1 49.1,114.7 50.5,114.3 51.8,113.9 53.2,113.7 54.5,113.5 55.9,113.3 57.3,112.9 58.6,112.6 60.0,112.5 61.4,112.2 62.7,111.3 64.1,111.0 65.5,110.6 66.8,110.2 68.2,109.9 69.5,109.6 70.9,109.4 72.3,109.2 73.6,108.9 75.0,108.5 76.4,108.0 77.7,107.8 79.1,107.4 80.5,107.4 81.8,107.3 83.2,107.1 84.5,106.8 85.9,106.6 87.3,106.5 88.6,106.1 90.0,105.6 91.4,105.5 92.7,105.4 94.1,105.2 95.5,104.8 96.8,104.5 98.2,104.1 99.5,103.8 100.9,103.4 102.3,103.3 103.6,103.1 105.0,102.7 106.4,102.3 107.7,102.0 109.1,101.9 110.5,101.7 111.8,101.5 113.2,101.1 114.5,100.7 115.9,100.3 117.3,99.9 118.6,99.8 120.0,99.6 121.4,99.5 122.7,99.2 124.1,99.0 125.5,98.8 126.8,98.7 128.2,98.6 129.5,98.3 130.9,98.2 132.3,98.1 133.6,98.0 135.0,97.6 136.4,97.4 137.7,97.3 139.1,97.2 140.5,97.1 141.8,97.1 143.2,103.7 144.5,103.0 145.9,102.4 147.3,101.8 148.6,100.0 150.0,98.8 151.4,97.5 152.7,97.0 154.1,96.4 155.5,95.5 156.8,94.5 158.2,93.8 159.5,93.5 160.9,93.2 162.3,92.5 163.6,92.0 165.0,91.6 166.4,91.2 167.7,91.1 169.1,91.0 170.5,90.6 171.8,90.0 173.2,89.6 174.5,89.1 175.9,88.6 177.3,88.4 178.6,88.2 180.0,87.8 181.4,87.4 182.7,87.0 184.1,86.8 185.5,86.6 186.8,86.5 188.2,86.3 189.5,86.0 190.9,85.8 192.3,85.5 193.6,85.3 195.0,85.1 196.4,85.0 197.7,84.8 199.1,84.6 200.5,84.5 201.8,84.1 203.2,83.9 204.5,83.6 205.9,83.4 207.3,83.2 208.6,83.1 210.0,82.9 211.4,82.8 212.7,82.3 214.1,82.0 215.5,81.6 216.8,81.4 218.2,81.4 219.5,81.2 220.9,81.0 222.3,80.8 223.6,80.5 225.0,80.2 226.4,80.1 227.7,80.0 229.1,79.8 230.5,79.7 231.8,79.6 233.2,79.4 234.5,79.2 235.9,78.9 237.3,78.8 238.6,78.7 240.0,78.6 241.4,78.5 242.7,78.2 244.1,78.0 245.5,77.8 246.8,77.6 248.2,77.4 249.5,77.2 250.9,77.1 252.3,77.0 253.6,76.7 255.0,76.4 256.4,76.2 257.7,76.0 259.1,75.7 260.5,75.6 261.8,75.5 263.2,75.4 264.5,75.2 265.9,75.0 267.3,74.8 268.6,74.7 270.0,74.5 271.4,74.4 272.7,74.2 274.1,74.1 275.5,74.0 276.8,73.9 278.2,73.6 279.5,73.5 280.9,73.3 282.3,73.2 283.6,73.0 285.0,72.9 286.4,72.8 287.7,72.7 289.1,72.5 290.5,72.2 291.8,71.9 293.2,71.7 294.5,71.6 295.9,71.5 297.3,71.4 298.6,71.2 300.0,71.0 301.4,70.8 302.7,70.7 304.1,70.6 305.5,70.4 306.8,70.2 308.2,70.1 309.5,70.0 310.9,69.8 312.3,69.6 313.6,69.4 315.0,69.2 316.4,69.1 317.7,69.0 319.1,69.0 320.5,68.8 321.8,68.7 323.2,68.5 324.5,68.3 325.9,68.2 327.3,68.0 328.6,67.9 330.0,67.8 331.4,67.7 332.7,67.5 334.1,67.2 335.5,67.1 336.8,66.9 338.2,66.8 339.5,66.7 340.9,66.6 342.3,66.5 343.6,66.4 345.0,66.3 346.4,66.0 347.7,65.9 349.1,65.8 350.5,65.7 351.8,65.5 353.2,65.4 354.5,65.2 355.9,65.1 357.3,65.0 358.6,64.8 360.0,64.7 361.4,64.5 362.7,64.4 364.1,64.3 365.5,64.2 366.8,64.1 368.2,64.0 369.5,63.8 370.9,63.7 372.3,63.7 373.6,63.5 375.0,63.2 376.4,63.0 377.7,67.3 379.1,66.5 380.5,64.8 381.8,64.2 383.2,63.5 384.5,62.6 385.9,62.1 387.3,61.7 388.6,61.1 390.0,60.2 391.4,59.5 392.7,59.3 394.1,58.9 395.5,58.6 396.8,58.2 398.2,57.7 399.5,57.2 400.9,56.9 402.3,56.5 403.6,56.2 405.0,55.9 406.4,55.7 407.7,55.4 409.1,55.2 410.5,54.7 411.8,54.4 413.2,54.0 414.5,53.4 415.9,53.1 417.3,52.9 418.6,52.7 420.0,52.5 421.4,52.1 422.7,51.8 424.1,51.5 425.5,50.6 426.8,49.9 428.2,49.6 429.5,49.4 430.9,49.1 432.3,48.7 433.6,48.3 435.0,47.8 436.4,47.5 437.7,47.1 439.1,46.8 440.5,46.4 441.8,46.2 443.2,46.1 444.5,45.9 445.9,45.7 447.3,45.4 448.6,45.3 450.0,45.1 451.4,44.9 452.7,44.7 454.1,44.4 455.5,44.3 456.8,44.1 458.2,43.9 459.5,43.7 460.9,43.6 462.3,43.4 463.6,43.3 465.0,43.1 466.4,43.0 467.7,42.8 469.1,42.7 470.5,42.5 471.8,42.3 473.2,42.1 474.5,42.0 475.9,41.8 477.3,41.7 478.6,41.6 480.0,41.4 481.4,41.3 482.7,41.1 484.1,41.0 485.5,40.9 486.8,40.7 488.2,40.5 489.5,40.3 490.9,40.1 492.3,39.9 493.6,39.7 495.0,39.5 496.4,39.3 497.7,39.1 499.1,38.9 500.5,38.7 501.8,38.4 503.2,38.2 504.5,38.0 505.9,37.8 507.3,37.5 508.6,37.4 510.0,37.3 511.4,37.2 512.7,37.0 514.1,36.9 515.5,36.7 516.8,36.5 518.2,36.3 519.5,36.1 520.9,35.9 522.3,35.6 523.6,35.4 525.0,35.1 526.4,35.0 527.7,34.9 529.1,34.7 530.5,34.6 531.8,34.5 533.2,34.3 534.5,34.1 535.9,34.0 537.3,33.7 538.6,33.5 540.0,33.4 541.4,33.2 542.7,33.1 544.1,33.0 545.5,32.9 546.8,32.8 548.2,32.6 549.5,32.5 550.9,32.4 552.3,32.2 553.6,32.0 555.0,31.8 556.4,31.7 557.7,31.6 559.1,31.5 560.5,31.3 561.8,31.2 563.2,31.1 564.5,30.9 565.9,30.7 567.3,30.5 568.6,30.3 570.0,30.0 570.0,30.0,120" />
  
  <!-- Linea principale -->
  <polyline fill="none" stroke="#0366d6" stroke-width="2.5" stroke-linecap="round" stroke-linejoin="round" points="30.0,120.0 31.4,119.5 32.7,118.9 34.1,118.4 35.5,118.3 36.8,118.1 38.2,117.5 39.5,117.1 40.9,116.8 42.3,116.2 43.6,115.9 45.0,115.6 46.4,115.4 47.7,115.1 49.1,114.7 50.5,114.3 51.8,113.9 53.2,113.7 54.5,113.5 55.9,113.3 57.3,112.9 58.6,112.6 60.0,112.5 61.4,112.2 62.7,111.3 64.1,111.0 65.5,110.6 66.8,110.2 68.2,109.9 69.5,109.6 70.9,109.4 72.3,109.2 73.6,108.9 75.0,108.5 76.4,108.0 77.7,107.8 79.1,107.4 80.5,107.4 81.8,107.3 83.2,107.1 84.5,106.8 85.9,106.6 87.3,106.5 88.6,106.1 90.0,105.6 91.4,105.5 92.7,105.4 94.1,105.2 95.5,104.8 96.8,104.5 98.2,104.1 99.5,103.8 100.9,103.4 102.3,103.3 103.6,103.1 105.0,102.7 106.4,102.3 107.7,102.0 109.1,101.9 110.5,101.7 111.8,101.5 113.2,101.1 114.5,100.7 115.9,100.3 117.3,99.9 118.6,99.8 120.0,99.6 121.4,99.5 122.7,99.2 124.1,99.0 125.5,98.8 126.8,98.7 128.2,98.6 129.5,98.3 130.9,98.2 132.3,98.1 133.6,98.0 135.0,97.6 136.4,97.4 137.7,97.3 139.1,97.2 140.5,97.1 141.8,97.1 143.2,103.7 144.5,103.0 145.9,102.4 147.3,101.8 148.6,100.0 150.0,98.8 151.4,97.5 152.7,97.0 154.1,96.4 155.5,95.5 156.8,94.5 158.2,93.8 159.5,93.5 160.9,93.2 162.3,92.5 163.6,92.0 165.0,91.6 166.4,91.2 167.7,91.1 169.1,91.0 170.5,90.6 171.8,90.0 173.2,89.6 174.5,89.1 175.9,88.6 177.3,88.4 178.6,88.2 180.0,87.8 181.4,87.4 182.7,87.0 184.1,86.8 185.5,86.6 186.8,86.5 188.2,86.3 189.5,86.0 190.9,85.8 192.3,85.5 193.6,85.3 195.0,85.1 196.4,85.0 197.7,84.8 199.1,84.6 200.5,84.5 201.8,84.1 203.2,83.9 204.5,83.6 205.9,83.4 207.3,83.2 208.6,83.1 210.0,82.9 211.4,82.8 212.7,82.3 214.1,82.0 215.5,81.6 216.8,81.4 218.2,81.4 219.5,81.2 220.9,81.0 222.3,80.8 223.6,80.5 225.0,80.2 226.4,80.1 227.7,80.0 229.1,79.8 230.5,79.7 231.8,79.6 233.2,79.4 234.5,79.2 235.9,78.9 237.3,78.8 238.6,78.7 240.0,78.6 241.4,78.5 242.7,78.2 244.1,78.0 245.5,77.8 246.8,77.6 248.2,77.4 249.5,77.2 250.9,77.1 252.3,77.0 253.6,76.7 255.0,76.4 256.4,76.2 257.7,76.0 259.1,75.7 260.5,75.6 261.8,75.5 263.2,75.4 264.5,75.2 265.9,75.0 267.3,74.8 268.6,74.7 270.0,74.5 271.4,74.4 272.7,74.2 274.1,74.1 275.5,74.0 276.8,73.9 278.2,73.6 279.5,73.5 280.9,73.3 282.3,73.2 283.6,73.0 285.0,72.9 286.4,72.8 287.7,72.7 289.1,72.5 290.5,72.2 291.8,71.9 293.2,71.7 294.5,71.6 295.9,71.5 297.3,71.4 298.6,71.2 300.0,71.0 301.4,70.8 302.7,70.7 304.1,70.6 305.5,70.4 306.8,70.2 308.2,70.1 309.5,70.0 310.9,69.8 312.3,69.6 313.6,69.4 315.0,69.2 316.4,69.1 317.7,69.0 319.1,69.0 320.5,68.8 321.8,68.7 323.2,68.5 324.5,68.3 325.9,68.2 327.3,68.0 328.6,67.9 330.0,67.8 331.4,67.7 332.7,67.5 334.1,67.2 335.5,67.1 336.8,66.9 338.2,66.8 339.5,66.7 340.9,66.6 342.3,66.5 343.6,66.4 345.0,66.3 346.4,66.0 347.7,65.9 349.1,65.8 350.5,65.7 351.8,65.5 353.2,65.4 354.5,65.2 355.9,65.1 357.3,65.0 358.6,64.8 360.0,64.7 361.4,64.5 362.7,64.4 364.1,64.3 365.5,64.2 366.8,64.1 368.2,64.0 369.5,63.8 370.9,63.7 372.3,63.7 373.6,63.5 375.0,63.2 376.4,63.0 377.7,67.3 379.1,66.5 380.5,64.8 381.8,64.2 383.2,63.5 384.5,62.6 385.9,62.1 387.3,61.7 388.6,61.1 390.0,60.2 391.4,59.5 392.7,59.3 394.1,58.9 395.5,58.6 396.8,58.2 398.2,57.7 399.5,57.2 400.9,56.9 402.3,56.5 403.6,56.2 405.0,55.9 406.4,55.7 407.7,55.4 409.1,55.2 410.5,54.7 411.8,54.4 413.2,54.0 414.5,53.4 415.9,53.1 417.3,52.9 418.6,52.7 420.0,52.5 421.4,52.1 422.7,51.8 424.1,51.5 425.5,50.6 426.8,49.9 428.2,49.6 429.5,49.4 430.9,49.1 432.3,48.7 433.6,48.3 435.0,47.8 436.4,47.5 437.7,47.1 439.1,46.8 440.5,46.4 441.8,46.2 443.2,46.1 444.5,45.9 445.9,45.7 447.3,45.4 448.6,45.3 450.0,45.1 451.4,44.9 452.7,44.7 454.1,44.4 455.5,44.3 456.8,44.1 458.2,43.9 459.5,43.7 460.9,43.6 462.3,43.4 463.6,43.3 465.0,43.1 466.4,43.0 467.7,42.8 469.1,42.7 470.5,42.5 471.8,42.3 473.2,42.1 474.5,42.0 475.9,41.8 477.3,41.7 478.6,41.6 480.0,41.4 481.4,41.3 482.7,41.1 484.1,41.0 485.5,40.9 486.8,40.7 488.2,40.5 489.5,40.3 490.9,40.1 492.3,39.9 493.6,39.7 495.0,39.5 496.4,39.3 497.7,39.1 499.1,38.9 500.5,38.7 501.8,38.4 503.2,38.2 504.5,38.0 505.9,37.8 507.3,37.5 508.6,37.4 510.0,37.3 511.4,37.2 512.7,37.0 514.1,36.9 515.5,36.7 516.8,36.5 518.2,36.3 519.5,36.1 520.9,35.9 522.3,35.6 523.6,35.4 525.0,35.1 526.4,35.0 527.7,34.9 529.1,34.7 530.5,34.6 531.8,34.5 533.2,34.3 534.5,34.1 535.9,34.0 537.3,33.7 538.6,33.5 540.0,33.4 541.4,33.2 542.7,33.1 544.1,33.0 545.5,32.9 546.8,32.8 548.2,32.6 549.5,32.5 550.9,32.4 552.3,32.2 553.6,32.0 555.0,31.8 556.4,31.7 557.7,31.6 559.1,31.5 560.5,31.3 561.8,31.2 563.2,31.1 564.5,30.9 565.9,30.7 567.3,30.5 568.6,30.3 570.0,30.0" />
  
  <!-- Punto finale luminoso -->
  <circle cx="570.0" cy="30.0" r="4" fill="#ffffff" stroke="#0366d6" stroke-width="2.5" />
</svg>