<svg width="600" height="150" viewBox="0 0 600 150" xmlns="http://www.w3.org/2000/svg">
  <defs>
    <filter id="shadow2" x="-2%" y="-2%" width="104%" height="108%">
      <feDropShadow dx="0" dy="2" stdDeviation="3" flood-opacity="0.1" />
    </filter>
    <linearGradient id="fillGrad" x1="0" y1="0" x2="0" y2="1">
      <stop offset="0%" stop-color="#0366d6" stop-opacity="0.3"/>
      <stop offset="100%" stop-color="#0366d6" stop-opacity="0.02"/>
    </linearGradient>
  </defs>
  <rect width="600" height="150" rx="12" fill="#ffffff" filter="url(#shadow2)" stroke="#e1e4e8" stroke-width="1"/>
  <text x="20" y="24" fill="#2b3137" font-family="-apple-system,BlinkMacSystemFont,'Segoe UI',Helvetica,Arial,sans-serif" font-size="14" font-weight="600">📈 Download Growth (Actual: 82.9k)</text>
  
  <!-- Area sotto la linea -->
  <polygon fill="url(#fillGrad)" points="30.0,120.0,120 30.0,120.0 31.8,119.4 33.6,118.7 35.4,118.1 37.2,117.9 39.0,117.6 40.8,116.9 42.6,116.4 44.4,116.1 46.1,115.3 47.9,115.0 49.7,114.6 51.5,114.4 53.3,114.0 55.1,113.5 56.9,113.0 58.7,112.6 60.5,112.3 62.3,112.1 64.1,111.8 65.9,111.4 67.7,111.0 69.5,110.8 71.3,110.5 73.1,109.3 74.9,109.0 76.6,108.5 78.4,108.0 80.2,107.6 82.0,107.2 83.8,107.0 85.6,106.8 87.4,106.5 89.2,105.9 91.0,105.4 92.8,105.0 94.6,104.6 96.4,104.5 98.2,104.4 100.0,104.2 101.8,103.9 103.6,103.6 105.3,103.5 107.1,103.0 108.9,102.4 110.7,102.2 112.5,102.1 114.3,101.9 116.1,101.4 117.9,101.0 119.7,100.5 121.5,100.1 123.3,99.7 125.1,99.6 126.9,99.3 128.7,98.8 130.5,98.3 132.3,98.0 134.1,97.8 135.8,97.6 137.6,97.4 139.4,96.8 141.2,96.3 143.0,95.9 144.8,95.5 146.6,95.2 148.4,95.1 150.2,94.9 152.0,94.6 153.8,94.3 155.6,94.1 157.4,93.9 159.2,93.8 161.0,93.5 162.8,93.3 164.6,93.2 166.3,93.1 168.1,92.6 169.9,92.4 171.7,92.3 173.5,92.1 175.3,92.0 177.1,92.0 178.9,100.0 180.7,99.2 182.5,98.5 184.3,97.8 186.1,95.6 187.9,94.1 189.7,92.4 191.5,91.8 193.3,91.1 195.0,90.0 196.8,88.8 198.6,87.9 200.4,87.6 202.2,87.2 204.0,86.4 205.8,85.7 207.6,85.3 209.4,84.8 211.2,84.6 213.0,84.5 214.8,84.0 216.6,83.3 218.4,82.8 220.2,82.2 222.0,81.6 223.8,81.3 225.5,81.1 227.3,80.6 229.1,80.1 230.9,79.7 232.7,79.3 234.5,79.2 236.3,79.1 238.1,78.8 239.9,78.4 241.7,78.1 243.5,77.8 245.3,77.6 247.1,77.4 248.9,77.1 250.7,76.9 252.5,76.7 254.3,76.5 256.0,76.1 257.8,75.8 259.6,75.4 261.4,75.2 263.2,75.0 265.0,74.8 266.8,74.7 268.6,74.5 270.4,73.9 272.2,73.5 274.0,73.0 275.8,72.8 277.6,72.8 279.4,72.6 281.2,72.3 283.0,72.0 284.8,71.7 286.5,71.4 288.3,71.1 290.1,71.0 291.9,70.8 293.7,70.7 295.5,70.5 297.3,70.3 299.1,70.1 300.9,69.7 302.7,69.6 304.5,69.5 306.3,69.3 308.1,69.2 309.9,68.9 311.7,68.6 313.5,68.4 315.2,68.1 317.0,67.9 318.8,67.7 320.6,67.6 322.4,67.4 324.2,67.0 326.0,66.7 327.8,66.5 329.6,66.2 331.4,65.8 333.2,65.7 335.0,65.5 336.8,65.4 338.6,65.2 340.4,65.0 342.2,64.8 344.0,64.6 345.7,64.4 347.5,64.2 349.3,64.0 351.1,63.9 352.9,63.8 354.7,63.5 356.5,63.2 358.3,63.1 360.1,62.8 361.9,62.7 363.7,62.5 365.5,62.4 367.3,62.2 369.1,62.1 370.9,61.9 372.7,61.5 374.5,61.2 376.2,60.9 378.0,60.7 379.8,60.7 381.6,60.6 383.4,60.3 385.2,60.0 387.0,59.9 388.8,59.7 390.6,59.5 392.4,59.3 394.2,59.1 396.0,59.0 397.8,58.8 399.6,58.5 401.4,58.3 403.2,58.1 405.0,57.8 406.7,57.7 408.5,57.6 410.3,57.6 412.1,57.4 413.9,57.2 415.7,57.0 417.5,56.8 419.3,56.6 421.1,56.4 422.9,56.3 424.7,56.1 426.5,56.0 428.3,55.7 430.1,55.5 431.9,55.3 433.7,55.1 435.4,54.9 437.2,54.8 439.0,54.7 440.8,54.6 442.6,54.5 444.4,54.3 446.2,54.0 448.0,53.8 449.8,53.6 451.6,53.5 453.4,53.4 455.2,53.2 457.0,53.0 458.8,52.8 460.6,52.7 462.4,52.5 464.2,52.3 465.9,52.1 467.7,51.9 469.5,51.8 471.3,51.7 473.1,51.6 474.9,51.5 476.7,51.3 478.5,51.1 480.3,51.1 482.1,50.9 483.9,50.6 485.7,50.3 487.5,55.5 489.3,54.5 491.1,52.5 492.9,51.8 494.7,50.9 496.4,49.7 498.2,49.1 500.0,48.7 501.8,47.9 503.6,46.8 505.4,46.0 507.2,45.7 509.0,45.3 510.8,44.9 512.6,44.3 514.4,43.8 516.2,43.1 518.0,42.8 519.8,42.3 521.6,42.0 523.4,41.6 525.1,41.3 526.9,41.0 528.7,40.7 530.5,40.2 532.3,39.8 534.1,39.3 535.9,38.5 537.7,38.1 539.5,37.9 541.3,37.7 543.1,37.4 544.9,36.9 546.7,36.5 548.5,36.2 550.3,35.1 552.1,34.3 553.9,33.9 555.6,33.7 557.4,33.3 559.2,32.8 561.0,32.3 562.8,31.6 564.6,31.3 566.4,30.9 568.2,30.5 570.0,30.0 570.0,30.0,120" />
  
  <!-- Linea principale -->
  <polyline fill="none" stroke="#0366d6" stroke-width="2.5" stroke-linecap="round" stroke-linejoin="round" points="30.0,120.0 31.8,119.4 33.6,118.7 35.4,118.1 37.2,117.9 39.0,117.6 40.8,116.9 42.6,116.4 44.4,116.1 46.1,115.3 47.9,115.0 49.7,114.6 51.5,114.4 53.3,114.0 55.1,113.5 56.9,113.0 58.7,112.6 60.5,112.3 62.3,112.1 64.1,111.8 65.9,111.4 67.7,111.0 69.5,110.8 71.3,110.5 73.1,109.3 74.9,109.0 76.6,108.5 78.4,108.0 80.2,107.6 82.0,107.2 83.8,107.0 85.6,106.8 87.4,106.5 89.2,105.9 91.0,105.4 92.8,105.0 94.6,104.6 96.4,104.5 98.2,104.4 100.0,104.2 101.8,103.9 103.6,103.6 105.3,103.5 107.1,103.0 108.9,102.4 110.7,102.2 112.5,102.1 114.3,101.9 116.1,101.4 117.9,101.0 119.7,100.5 121.5,100.1 123.3,99.7 125.1,99.6 126.9,99.3 128.7,98.8 130.5,98.3 132.3,98.0 134.1,97.8 135.8,97.6 137.6,97.4 139.4,96.8 141.2,96.3 143.0,95.9 144.8,95.5 146.6,95.2 148.4,95.1 150.2,94.9 152.0,94.6 153.8,94.3 155.6,94.1 157.4,93.9 159.2,93.8 161.0,93.5 162.8,93.3 164.6,93.2 166.3,93.1 168.1,92.6 169.9,92.4 171.7,92.3 173.5,92.1 175.3,92.0 177.1,92.0 178.9,100.0 180.7,99.2 182.5,98.5 184.3,97.8 186.1,95.6 187.9,94.1 189.7,92.4 191.5,91.8 193.3,91.1 195.0,90.0 196.8,88.8 198.6,87.9 200.4,87.6 202.2,87.2 204.0,86.4 205.8,85.7 207.6,85.3 209.4,84.8 211.2,84.6 213.0,84.5 214.8,84.0 216.6,83.3 218.4,82.8 220.2,82.2 222.0,81.6 223.8,81.3 225.5,81.1 227.3,80.6 229.1,80.1 230.9,79.7 232.7,79.3 234.5,79.2 236.3,79.1 238.1,78.8 239.9,78.4 241.7,78.1 243.5,77.8 245.3,77.6 247.1,77.4 248.9,77.1 250.7,76.9 252.5,76.7 254.3,76.5 256.0,76.1 257.8,75.8 259.6,75.4 261.4,75.2 263.2,75.0 265.0,74.8 266.8,74.7 268.6,74.5 270.4,73.9 272.2,73.5 274.0,73.0 275.8,72.8 277.6,72.8 279.4,72.6 281.2,72.3 283.0,72.0 284.8,71.7 286.5,71.4 288.3,71.1 290.1,71.0 291.9,70.8 293.7,70.7 295.5,70.5 297.3,70.3 299.1,70.1 300.9,69.7 302.7,69.6 304.5,69.5 306.3,69.3 308.1,69.2 309.9,68.9 311.7,68.6 313.5,68.4 315.2,68.1 317.0,67.9 318.8,67.7 320.6,67.6 322.4,67.4 324.2,67.0 326.0,66.7 327.8,66.5 329.6,66.2 331.4,65.8 333.2,65.7 335.0,65.5 336.8,65.4 338.6,65.2 340.4,65.0 342.2,64.8 344.0,64.6 345.7,64.4 347.5,64.2 349.3,64.0 351.1,63.9 352.9,63.8 354.7,63.5 356.5,63.2 358.3,63.1 360.1,62.8 361.9,62.7 363.7,62.5 365.5,62.4 367.3,62.2 369.1,62.1 370.9,61.9 372.7,61.5 374.5,61.2 376.2,60.9 378.0,60.7 379.8,60.7 381.6,60.6 383.4,60.3 385.2,60.0 387.0,59.9 388.8,59.7 390.6,59.5 392.4,59.3 394.2,59.1 396.0,59.0 397.8,58.8 399.6,58.5 401.4,58.3 403.2,58.1 405.0,57.8 406.7,57.7 408.5,57.6 410.3,57.6 412.1,57.4 413.9,57.2 415.7,57.0 417.5,56.8 419.3,56.6 421.1,56.4 422.9,56.3 424.7,56.1 426.5,56.0 428.3,55.7 430.1,55.5 431.9,55.3 433.7,55.1 435.4,54.9 437.2,54.8 439.0,54.7 440.8,54.6 442.6,54.5 444.4,54.3 446.2,54.0 448.0,53.8 449.8,53.6 451.6,53.5 453.4,53.4 455.2,53.2 457.0,53.0 458.8,52.8 460.6,52.7 462.4,52.5 464.2,52.3 465.9,52.1 467.7,51.9 469.5,51.8 471.3,51.7 473.1,51.6 474.9,51.5 476.7,51.3 478.5,51.1 480.3,51.1 482.1,50.9 483.9,50.6 485.7,50.3 487.5,55.5 489.3,54.5 491.1,52.5 492.9,51.8 494.7,50.9 496.4,49.7 498.2,49.1 500.0,48.7 501.8,47.9 503.6,46.8 505.4,46.0 507.2,45.7 509.0,45.3 510.8,44.9 512.6,44.3 514.4,43.8 516.2,43.1 518.0,42.8 519.8,42.3 521.6,42.0 523.4,41.6 525.1,41.3 526.9,41.0 528.7,40.7 530.5,40.2 532.3,39.8 534.1,39.3 535.9,38.5 537.7,38.1 539.5,37.9 541.3,37.7 543.1,37.4 544.9,36.9 546.7,36.5 548.5,36.2 550.3,35.1 552.1,34.3 553.9,33.9 555.6,33.7 557.4,33.3 559.2,32.8 561.0,32.3 562.8,31.6 564.6,31.3 566.4,30.9 568.2,30.5 570.0,30.0" />
  
  <!-- Punto finale luminoso -->
  <circle cx="570.0" cy="30.0" r="4" fill="#ffffff" stroke="#0366d6" stroke-width="2.5" />
</svg>