<svg width="600" height="150" viewBox="0 0 600 150" xmlns="http://www.w3.org/2000/svg">
  <defs>
    <filter id="shadow2" x="-2%" y="-2%" width="104%" height="108%">
      <feDropShadow dx="0" dy="2" stdDeviation="3" flood-opacity="0.1" />
    </filter>
    <linearGradient id="fillGrad" x1="0" y1="0" x2="0" y2="1">
      <stop offset="0%" stop-color="#0366d6" stop-opacity="0.3"/>
      <stop offset="100%" stop-color="#0366d6" stop-opacity="0.02"/>
    </linearGradient>
  </defs>
  <rect width="600" height="150" rx="12" fill="#ffffff" filter="url(#shadow2)" stroke="#e1e4e8" stroke-width="1"/>
  <text x="20" y="24" fill="#2b3137" font-family="-apple-system,BlinkMacSystemFont,'Segoe UI',Helvetica,Arial,sans-serif" font-size="14" font-weight="600">📈 Download Growth (Actual: 86.1k)</text>
  
  <!-- Area sotto la linea -->
  <polygon fill="url(#fillGrad)" points="30.0,120.0,120 30.0,120.0 31.4,119.5 32.8,118.9 34.2,118.4 35.6,118.3 37.0,118.0 38.4,117.4 39.8,117.0 41.2,116.7 42.6,116.1 44.0,115.8 45.4,115.5 46.8,115.3 48.2,115.0 49.6,114.6 51.0,114.1 52.4,113.8 53.8,113.6 55.2,113.4 56.6,113.1 58.1,112.8 59.5,112.5 60.9,112.4 62.3,112.1 63.7,111.1 65.1,110.8 66.5,110.4 67.9,110.0 69.3,109.7 70.7,109.3 72.1,109.1 73.5,109.0 74.9,108.7 76.3,108.2 77.7,107.8 79.1,107.5 80.5,107.2 81.9,107.1 83.3,107.0 84.7,106.8 86.1,106.5 87.5,106.3 88.9,106.2 90.3,105.8 91.7,105.3 93.1,105.2 94.5,105.1 95.9,104.9 97.3,104.5 98.7,104.2 100.1,103.7 101.5,103.4 102.9,103.0 104.3,103.0 105.7,102.7 107.1,102.3 108.5,101.9 109.9,101.6 111.4,101.5 112.8,101.3 114.2,101.1 115.6,100.7 117.0,100.3 118.4,99.9 119.8,99.5 121.2,99.3 122.6,99.2 124.0,99.1 125.4,98.8 126.8,98.6 128.2,98.4 129.6,98.2 131.0,98.1 132.4,97.9 133.8,97.8 135.2,97.7 136.6,97.6 138.0,97.2 139.4,96.9 140.8,96.9 142.2,96.7 143.6,96.6 145.0,96.6 146.4,103.3 147.8,102.7 149.2,102.1 150.6,101.4 152.0,99.6 153.4,98.4 154.8,97.0 156.2,96.5 157.6,95.9 159.0,95.0 160.4,94.0 161.8,93.2 163.2,92.9 164.6,92.7 166.1,91.9 167.5,91.4 168.9,91.1 170.3,90.6 171.7,90.4 173.1,90.4 174.5,90.0 175.9,89.4 177.3,88.9 178.7,88.5 180.1,88.0 181.5,87.7 182.9,87.5 184.3,87.1 185.7,86.7 187.1,86.4 188.5,86.1 189.9,85.9 191.3,85.8 192.7,85.6 194.1,85.3 195.5,85.0 196.9,84.8 198.3,84.6 199.7,84.4 201.1,84.2 202.5,84.0 203.9,83.9 205.3,83.7 206.7,83.4 208.1,83.1 209.5,82.8 210.9,82.6 212.3,82.4 213.7,82.3 215.1,82.2 216.5,82.0 217.9,81.5 219.4,81.2 220.8,80.8 222.2,80.6 223.6,80.6 225.0,80.4 226.4,80.2 227.8,79.9 229.2,79.7 230.6,79.4 232.0,79.2 233.4,79.1 234.8,79.0 236.2,78.8 237.6,78.7 239.0,78.5 240.4,78.3 241.8,78.1 243.2,77.9 244.6,77.8 246.0,77.7 247.4,77.6 248.8,77.3 250.2,77.1 251.6,76.9 253.0,76.7 254.4,76.5 255.8,76.3 257.2,76.2 258.6,76.1 260.0,75.8 261.4,75.5 262.8,75.3 264.2,75.1 265.6,74.7 267.0,74.7 268.4,74.5 269.8,74.4 271.2,74.3 272.6,74.1 274.1,73.9 275.5,73.8 276.9,73.6 278.3,73.4 279.7,73.3 281.1,73.2 282.5,73.1 283.9,72.9 285.3,72.6 286.7,72.5 288.1,72.3 289.5,72.2 290.9,72.1 292.3,71.9 293.7,71.8 295.1,71.7 296.5,71.5 297.9,71.2 299.3,70.9 300.7,70.7 302.1,70.5 303.5,70.5 304.9,70.4 306.3,70.2 307.7,69.9 309.1,69.8 310.5,69.7 311.9,69.5 313.3,69.4 314.7,69.2 316.1,69.1 317.5,69.0 318.9,68.7 320.3,68.5 321.7,68.3 323.1,68.1 324.5,68.0 325.9,68.0 327.4,67.9 328.8,67.7 330.2,67.6 331.6,67.4 333.0,67.3 334.4,67.1 335.8,67.0 337.2,66.8 338.6,66.7 340.0,66.6 341.4,66.4 342.8,66.1 344.2,66.0 345.6,65.8 347.0,65.7 348.4,65.6 349.8,65.5 351.2,65.4 352.6,65.3 354.0,65.2 355.4,64.9 356.8,64.8 358.2,64.6 359.6,64.5 361.0,64.4 362.4,64.2 363.8,64.1 365.2,63.9 366.6,63.8 368.0,63.7 369.4,63.5 370.8,63.4 372.2,63.2 373.6,63.1 375.0,63.0 376.4,62.9 377.8,62.8 379.2,62.7 380.6,62.5 382.1,62.5 383.5,62.4 384.9,62.0 386.3,61.8 387.7,66.2 389.1,65.3 390.5,63.7 391.9,63.1 393.3,62.3 394.7,61.4 396.1,60.8 397.5,60.5 398.9,59.9 400.3,58.9 401.7,58.2 403.1,58.0 404.5,57.6 405.9,57.4 407.3,56.9 408.7,56.4 410.1,55.9 411.5,55.6 412.9,55.1 414.3,54.9 415.7,54.6 417.1,54.3 418.5,54.1 419.9,53.9 421.3,53.4 422.7,53.1 424.1,52.6 425.5,52.0 426.9,51.7 428.3,51.5 429.7,51.3 431.1,51.1 432.5,50.7 433.9,50.3 435.4,50.0 436.8,49.1 438.2,48.5 439.6,48.1 441.0,48.0 442.4,47.7 443.8,47.2 445.2,46.8 446.6,46.3 448.0,45.9 449.4,45.6 450.8,45.3 452.2,44.9 453.6,44.7 455.0,44.5 456.4,44.3 457.8,44.2 459.2,43.9 460.6,43.7 462.0,43.5 463.4,43.3 464.8,43.1 466.2,42.8 467.6,42.7 469.0,42.5 470.4,42.3 471.8,42.1 473.2,42.0 474.6,41.8 476.0,41.7 477.4,41.5 478.8,41.4 480.2,41.2 481.6,41.1 483.0,40.9 484.4,40.7 485.8,40.5 487.2,40.3 488.6,40.1 490.1,40.0 491.5,39.9 492.9,39.8 494.3,39.6 495.7,39.5 497.1,39.4 498.5,39.2 499.9,39.0 501.3,38.9 502.7,38.6 504.1,38.4 505.5,38.3 506.9,38.0 508.3,37.8 509.7,37.6 511.1,37.4 512.5,37.2 513.9,37.0 515.3,36.7 516.7,36.5 518.1,36.2 519.5,36.0 520.9,35.8 522.3,35.7 523.7,35.5 525.1,35.4 526.5,35.3 527.9,35.1 529.3,34.9 530.7,34.8 532.1,34.6 533.5,34.4 534.9,34.1 536.3,33.9 537.7,33.7 539.1,33.4 540.5,33.2 541.9,33.1 543.4,32.9 544.8,32.8 546.2,32.7 547.6,32.5 549.0,32.3 550.4,32.2 551.8,31.9 553.2,31.7 554.6,31.6 556.0,31.4 557.4,31.3 558.8,31.2 560.2,31.1 561.6,31.0 563.0,30.8 564.4,30.7 565.8,30.5 567.2,30.4 568.6,30.2 570.0,30.0 570.0,30.0,120" />
  
  <!-- Linea principale -->
  <polyline fill="none" stroke="#0366d6" stroke-width="2.5" stroke-linecap="round" stroke-linejoin="round" points="30.0,120.0 31.4,119.5 32.8,118.9 34.2,118.4 35.6,118.3 37.0,118.0 38.4,117.4 39.8,117.0 41.2,116.7 42.6,116.1 44.0,115.8 45.4,115.5 46.8,115.3 48.2,115.0 49.6,114.6 51.0,114.1 52.4,113.8 53.8,113.6 55.2,113.4 56.6,113.1 58.1,112.8 59.5,112.5 60.9,112.4 62.3,112.1 63.7,111.1 65.1,110.8 66.5,110.4 67.9,110.0 69.3,109.7 70.7,109.3 72.1,109.1 73.5,109.0 74.9,108.7 76.3,108.2 77.7,107.8 79.1,107.5 80.5,107.2 81.9,107.1 83.3,107.0 84.7,106.8 86.1,106.5 87.5,106.3 88.9,106.2 90.3,105.8 91.7,105.3 93.1,105.2 94.5,105.1 95.9,104.9 97.3,104.5 98.7,104.2 100.1,103.7 101.5,103.4 102.9,103.0 104.3,103.0 105.7,102.7 107.1,102.3 108.5,101.9 109.9,101.6 111.4,101.5 112.8,101.3 114.2,101.1 115.6,100.7 117.0,100.3 118.4,99.9 119.8,99.5 121.2,99.3 122.6,99.2 124.0,99.1 125.4,98.8 126.8,98.6 128.2,98.4 129.6,98.2 131.0,98.1 132.4,97.9 133.8,97.8 135.2,97.7 136.6,97.6 138.0,97.2 139.4,96.9 140.8,96.9 142.2,96.7 143.6,96.6 145.0,96.6 146.4,103.3 147.8,102.7 149.2,102.1 150.6,101.4 152.0,99.6 153.4,98.4 154.8,97.0 156.2,96.5 157.6,95.9 159.0,95.0 160.4,94.0 161.8,93.2 163.2,92.9 164.6,92.7 166.1,91.9 167.5,91.4 168.9,91.1 170.3,90.6 171.7,90.4 173.1,90.4 174.5,90.0 175.9,89.4 177.3,88.9 178.7,88.5 180.1,88.0 181.5,87.7 182.9,87.5 184.3,87.1 185.7,86.7 187.1,86.4 188.5,86.1 189.9,85.9 191.3,85.8 192.7,85.6 194.1,85.3 195.5,85.0 196.9,84.8 198.3,84.6 199.7,84.4 201.1,84.2 202.5,84.0 203.9,83.9 205.3,83.7 206.7,83.4 208.1,83.1 209.5,82.8 210.9,82.6 212.3,82.4 213.7,82.3 215.1,82.2 216.5,82.0 217.9,81.5 219.4,81.2 220.8,80.8 222.2,80.6 223.6,80.6 225.0,80.4 226.4,80.2 227.8,79.9 229.2,79.7 230.6,79.4 232.0,79.2 233.4,79.1 234.8,79.0 236.2,78.8 237.6,78.7 239.0,78.5 240.4,78.3 241.8,78.1 243.2,77.9 244.6,77.8 246.0,77.7 247.4,77.6 248.8,77.3 250.2,77.1 251.6,76.9 253.0,76.7 254.4,76.5 255.8,76.3 257.2,76.2 258.6,76.1 260.0,75.8 261.4,75.5 262.8,75.3 264.2,75.1 265.6,74.7 267.0,74.7 268.4,74.5 269.8,74.4 271.2,74.3 272.6,74.1 274.1,73.9 275.5,73.8 276.9,73.6 278.3,73.4 279.7,73.3 281.1,73.2 282.5,73.1 283.9,72.9 285.3,72.6 286.7,72.5 288.1,72.3 289.5,72.2 290.9,72.1 292.3,71.9 293.7,71.8 295.1,71.7 296.5,71.5 297.9,71.2 299.3,70.9 300.7,70.7 302.1,70.5 303.5,70.5 304.9,70.4 306.3,70.2 307.7,69.9 309.1,69.8 310.5,69.7 311.9,69.5 313.3,69.4 314.7,69.2 316.1,69.1 317.5,69.0 318.9,68.7 320.3,68.5 321.7,68.3 323.1,68.1 324.5,68.0 325.9,68.0 327.4,67.9 328.8,67.7 330.2,67.6 331.6,67.4 333.0,67.3 334.4,67.1 335.8,67.0 337.2,66.8 338.6,66.7 340.0,66.6 341.4,66.4 342.8,66.1 344.2,66.0 345.6,65.8 347.0,65.7 348.4,65.6 349.8,65.5 351.2,65.4 352.6,65.3 354.0,65.2 355.4,64.9 356.8,64.8 358.2,64.6 359.6,64.5 361.0,64.4 362.4,64.2 363.8,64.1 365.2,63.9 366.6,63.8 368.0,63.7 369.4,63.5 370.8,63.4 372.2,63.2 373.6,63.1 375.0,63.0 376.4,62.9 377.8,62.8 379.2,62.7 380.6,62.5 382.1,62.5 383.5,62.4 384.9,62.0 386.3,61.8 387.7,66.2 389.1,65.3 390.5,63.7 391.9,63.1 393.3,62.3 394.7,61.4 396.1,60.8 397.5,60.5 398.9,59.9 400.3,58.9 401.7,58.2 403.1,58.0 404.5,57.6 405.9,57.4 407.3,56.9 408.7,56.4 410.1,55.9 411.5,55.6 412.9,55.1 414.3,54.9 415.7,54.6 417.1,54.3 418.5,54.1 419.9,53.9 421.3,53.4 422.7,53.1 424.1,52.6 425.5,52.0 426.9,51.7 428.3,51.5 429.7,51.3 431.1,51.1 432.5,50.7 433.9,50.3 435.4,50.0 436.8,49.1 438.2,48.5 439.6,48.1 441.0,48.0 442.4,47.7 443.8,47.2 445.2,46.8 446.6,46.3 448.0,45.9 449.4,45.6 450.8,45.3 452.2,44.9 453.6,44.7 455.0,44.5 456.4,44.3 457.8,44.2 459.2,43.9 460.6,43.7 462.0,43.5 463.4,43.3 464.8,43.1 466.2,42.8 467.6,42.7 469.0,42.5 470.4,42.3 471.8,42.1 473.2,42.0 474.6,41.8 476.0,41.7 477.4,41.5 478.8,41.4 480.2,41.2 481.6,41.1 483.0,40.9 484.4,40.7 485.8,40.5 487.2,40.3 488.6,40.1 490.1,40.0 491.5,39.9 492.9,39.8 494.3,39.6 495.7,39.5 497.1,39.4 498.5,39.2 499.9,39.0 501.3,38.9 502.7,38.6 504.1,38.4 505.5,38.3 506.9,38.0 508.3,37.8 509.7,37.6 511.1,37.4 512.5,37.2 513.9,37.0 515.3,36.7 516.7,36.5 518.1,36.2 519.5,36.0 520.9,35.8 522.3,35.7 523.7,35.5 525.1,35.4 526.5,35.3 527.9,35.1 529.3,34.9 530.7,34.8 532.1,34.6 533.5,34.4 534.9,34.1 536.3,33.9 537.7,33.7 539.1,33.4 540.5,33.2 541.9,33.1 543.4,32.9 544.8,32.8 546.2,32.7 547.6,32.5 549.0,32.3 550.4,32.2 551.8,31.9 553.2,31.7 554.6,31.6 556.0,31.4 557.4,31.3 558.8,31.2 560.2,31.1 561.6,31.0 563.0,30.8 564.4,30.7 565.8,30.5 567.2,30.4 568.6,30.2 570.0,30.0" />
  
  <!-- Punto finale luminoso -->
  <circle cx="570.0" cy="30.0" r="4" fill="#ffffff" stroke="#0366d6" stroke-width="2.5" />
</svg>