<svg width="600" height="150" viewBox="0 0 600 150" xmlns="http://www.w3.org/2000/svg">
  <defs>
    <filter id="shadow2" x="-2%" y="-2%" width="104%" height="108%">
      <feDropShadow dx="0" dy="2" stdDeviation="3" flood-opacity="0.1" />
    </filter>
    <linearGradient id="fillGrad" x1="0" y1="0" x2="0" y2="1">
      <stop offset="0%" stop-color="#0366d6" stop-opacity="0.3"/>
      <stop offset="100%" stop-color="#0366d6" stop-opacity="0.02"/>
    </linearGradient>
  </defs>
  <rect width="600" height="150" rx="12" fill="#ffffff" filter="url(#shadow2)" stroke="#e1e4e8" stroke-width="1"/>
  <text x="20" y="24" fill="#2b3137" font-family="-apple-system,BlinkMacSystemFont,'Segoe UI',Helvetica,Arial,sans-serif" font-size="14" font-weight="600">📈 Download Growth (Actual: 83.5k)</text>
  
  <!-- Area sotto la linea -->
  <polygon fill="url(#fillGrad)" points="30.0,120.0,120 30.0,120.0 31.7,119.4 33.4,118.7 35.1,118.2 36.9,118.0 38.6,117.7 40.3,117.0 42.0,116.5 43.7,116.2 45.4,115.5 47.1,115.1 48.9,114.8 50.6,114.6 52.3,114.2 54.0,113.7 55.7,113.2 57.4,112.8 59.1,112.6 60.9,112.4 62.6,112.0 64.3,111.7 66.0,111.3 67.7,111.2 69.4,110.8 71.1,109.7 72.9,109.4 74.6,108.9 76.3,108.5 78.0,108.1 79.7,107.7 81.4,107.4 83.1,107.3 84.9,106.9 86.6,106.4 88.3,105.9 90.0,105.6 91.7,105.2 93.4,105.1 95.1,105.0 96.9,104.8 98.6,104.4 100.3,104.2 102.0,104.1 103.7,103.6 105.4,103.0 107.1,102.9 108.9,102.8 110.6,102.5 112.3,102.0 114.0,101.7 115.7,101.2 117.4,100.8 119.1,100.4 120.9,100.3 122.6,100.0 124.3,99.6 126.0,99.1 127.7,98.8 129.4,98.6 131.1,98.4 132.9,98.2 134.6,97.7 136.3,97.2 138.0,96.8 139.7,96.3 141.4,96.1 143.1,96.0 144.9,95.8 146.6,95.5 148.3,95.2 150.0,95.0 151.7,94.9 153.4,94.7 155.1,94.5 156.9,94.3 158.6,94.2 160.3,94.1 162.0,93.6 163.7,93.3 165.4,93.3 167.1,93.1 168.9,93.0 170.6,93.0 172.3,100.7 174.0,100.0 175.7,99.3 177.4,98.6 179.1,96.5 180.9,95.0 182.6,93.4 184.3,92.8 186.0,92.2 187.7,91.1 189.4,89.9 191.1,89.0 192.9,88.7 194.6,88.4 196.3,87.6 198.0,87.0 199.7,86.6 201.4,86.1 203.1,85.9 204.9,85.8 206.6,85.3 208.3,84.6 210.0,84.1 211.7,83.6 213.4,83.0 215.1,82.7 216.9,82.5 218.6,82.0 220.3,81.6 222.0,81.1 223.7,80.8 225.4,80.6 227.1,80.5 228.9,80.3 230.6,79.9 232.3,79.6 234.0,79.3 235.7,79.1 237.4,78.9 239.1,78.7 240.9,78.5 242.6,78.3 244.3,78.1 246.0,77.7 247.7,77.4 249.4,77.0 251.1,76.8 252.9,76.6 254.6,76.5 256.3,76.3 258.0,76.1 259.7,75.5 261.4,75.2 263.1,74.7 264.9,74.5 266.6,74.5 268.3,74.3 270.0,74.0 271.7,73.7 273.4,73.5 275.1,73.1 276.9,72.9 278.6,72.8 280.3,72.6 282.0,72.4 283.7,72.3 285.4,72.1 287.1,71.9 288.9,71.5 290.6,71.4 292.3,71.3 294.0,71.1 295.7,71.0 297.4,70.7 299.1,70.5 300.9,70.2 302.6,70.0 304.3,69.7 306.0,69.6 307.7,69.5 309.4,69.3 311.1,68.9 312.9,68.6 314.6,68.4 316.3,68.1 318.0,67.7 319.7,67.6 321.4,67.5 323.1,67.4 324.9,67.2 326.6,67.0 328.3,66.7 330.0,66.6 331.7,66.4 333.4,66.2 335.1,66.0 336.9,65.9 338.6,65.8 340.3,65.6 342.0,65.3 343.7,65.1 345.4,64.9 347.1,64.8 348.9,64.6 350.6,64.4 352.3,64.3 354.0,64.2 355.7,64.0 357.4,63.6 359.1,63.3 360.9,63.0 362.6,62.9 364.3,62.8 366.0,62.7 367.7,62.5 369.4,62.2 371.1,62.0 372.9,61.9 374.6,61.7 376.3,61.5 378.0,61.3 379.7,61.2 381.4,61.0 383.1,60.8 384.9,60.6 386.6,60.3 388.3,60.0 390.0,59.9 391.7,59.9 393.4,59.8 395.1,59.6 396.9,59.4 398.6,59.2 400.3,59.1 402.0,58.8 403.7,58.7 405.4,58.6 407.1,58.4 408.9,58.3 410.6,58.0 412.3,57.8 414.0,57.6 415.7,57.4 417.4,57.3 419.1,57.1 420.9,57.0 422.6,56.9 424.3,56.8 426.0,56.6 427.7,56.4 429.4,56.2 431.1,56.0 432.9,55.9 434.6,55.7 436.3,55.6 438.0,55.4 439.7,55.2 441.4,55.1 443.1,54.9 444.9,54.7 446.6,54.6 448.3,54.4 450.0,54.3 451.7,54.2 453.4,54.0 455.1,53.9 456.9,53.8 458.6,53.6 460.3,53.6 462.0,53.4 463.7,53.0 465.4,52.8 467.1,57.8 468.9,56.9 470.6,54.9 472.3,54.2 474.0,53.3 475.7,52.2 477.4,51.7 479.1,51.3 480.9,50.5 482.6,49.4 484.3,48.6 486.0,48.4 487.7,48.0 489.4,47.6 491.1,47.1 492.9,46.5 494.6,45.9 496.3,45.6 498.0,45.1 499.7,44.8 501.4,44.4 503.1,44.1 504.9,43.9 506.6,43.6 508.3,43.0 510.0,42.7 511.7,42.2 513.4,41.5 515.1,41.1 516.9,40.8 518.6,40.6 520.3,40.4 522.0,39.9 523.7,39.5 525.4,39.2 527.1,38.1 528.9,37.3 530.6,37.0 532.3,36.8 534.0,36.4 535.7,35.9 537.4,35.4 539.1,34.8 540.9,34.4 542.6,34.1 544.3,33.7 546.0,33.2 547.7,33.0 549.4,32.8 551.1,32.6 552.9,32.4 554.6,32.1 556.3,31.9 558.0,31.6 559.7,31.4 561.4,31.2 563.1,30.9 564.9,30.7 566.6,30.4 568.3,30.2 570.0,30.0 570.0,30.0,120" />
  
  <!-- Linea principale -->
  <polyline fill="none" stroke="#0366d6" stroke-width="2.5" stroke-linecap="round" stroke-linejoin="round" points="30.0,120.0 31.7,119.4 33.4,118.7 35.1,118.2 36.9,118.0 38.6,117.7 40.3,117.0 42.0,116.5 43.7,116.2 45.4,115.5 47.1,115.1 48.9,114.8 50.6,114.6 52.3,114.2 54.0,113.7 55.7,113.2 57.4,112.8 59.1,112.6 60.9,112.4 62.6,112.0 64.3,111.7 66.0,111.3 67.7,111.2 69.4,110.8 71.1,109.7 72.9,109.4 74.6,108.9 76.3,108.5 78.0,108.1 79.7,107.7 81.4,107.4 83.1,107.3 84.9,106.9 86.6,106.4 88.3,105.9 90.0,105.6 91.7,105.2 93.4,105.1 95.1,105.0 96.9,104.8 98.6,104.4 100.3,104.2 102.0,104.1 103.7,103.6 105.4,103.0 107.1,102.9 108.9,102.8 110.6,102.5 112.3,102.0 114.0,101.7 115.7,101.2 117.4,100.8 119.1,100.4 120.9,100.3 122.6,100.0 124.3,99.6 126.0,99.1 127.7,98.8 129.4,98.6 131.1,98.4 132.9,98.2 134.6,97.7 136.3,97.2 138.0,96.8 139.7,96.3 141.4,96.1 143.1,96.0 144.9,95.8 146.6,95.5 148.3,95.2 150.0,95.0 151.7,94.9 153.4,94.7 155.1,94.5 156.9,94.3 158.6,94.2 160.3,94.1 162.0,93.6 163.7,93.3 165.4,93.3 167.1,93.1 168.9,93.0 170.6,93.0 172.3,100.7 174.0,100.0 175.7,99.3 177.4,98.6 179.1,96.5 180.9,95.0 182.6,93.4 184.3,92.8 186.0,92.2 187.7,91.1 189.4,89.9 191.1,89.0 192.9,88.7 194.6,88.4 196.3,87.6 198.0,87.0 199.7,86.6 201.4,86.1 203.1,85.9 204.9,85.8 206.6,85.3 208.3,84.6 210.0,84.1 211.7,83.6 213.4,83.0 215.1,82.7 216.9,82.5 218.6,82.0 220.3,81.6 222.0,81.1 223.7,80.8 225.4,80.6 227.1,80.5 228.9,80.3 230.6,79.9 232.3,79.6 234.0,79.3 235.7,79.1 237.4,78.9 239.1,78.7 240.9,78.5 242.6,78.3 244.3,78.1 246.0,77.7 247.7,77.4 249.4,77.0 251.1,76.8 252.9,76.6 254.6,76.5 256.3,76.3 258.0,76.1 259.7,75.5 261.4,75.2 263.1,74.7 264.9,74.5 266.6,74.5 268.3,74.3 270.0,74.0 271.7,73.7 273.4,73.5 275.1,73.1 276.9,72.9 278.6,72.8 280.3,72.6 282.0,72.4 283.7,72.3 285.4,72.1 287.1,71.9 288.9,71.5 290.6,71.4 292.3,71.3 294.0,71.1 295.7,71.0 297.4,70.7 299.1,70.5 300.9,70.2 302.6,70.0 304.3,69.7 306.0,69.6 307.7,69.5 309.4,69.3 311.1,68.9 312.9,68.6 314.6,68.4 316.3,68.1 318.0,67.7 319.7,67.6 321.4,67.5 323.1,67.4 324.9,67.2 326.6,67.0 328.3,66.7 330.0,66.6 331.7,66.4 333.4,66.2 335.1,66.0 336.9,65.9 338.6,65.8 340.3,65.6 342.0,65.3 343.7,65.1 345.4,64.9 347.1,64.8 348.9,64.6 350.6,64.4 352.3,64.3 354.0,64.2 355.7,64.0 357.4,63.6 359.1,63.3 360.9,63.0 362.6,62.9 364.3,62.8 366.0,62.7 367.7,62.5 369.4,62.2 371.1,62.0 372.9,61.9 374.6,61.7 376.3,61.5 378.0,61.3 379.7,61.2 381.4,61.0 383.1,60.8 384.9,60.6 386.6,60.3 388.3,60.0 390.0,59.9 391.7,59.9 393.4,59.8 395.1,59.6 396.9,59.4 398.6,59.2 400.3,59.1 402.0,58.8 403.7,58.7 405.4,58.6 407.1,58.4 408.9,58.3 410.6,58.0 412.3,57.8 414.0,57.6 415.7,57.4 417.4,57.3 419.1,57.1 420.9,57.0 422.6,56.9 424.3,56.8 426.0,56.6 427.7,56.4 429.4,56.2 431.1,56.0 432.9,55.9 434.6,55.7 436.3,55.6 438.0,55.4 439.7,55.2 441.4,55.1 443.1,54.9 444.9,54.7 446.6,54.6 448.3,54.4 450.0,54.3 451.7,54.2 453.4,54.0 455.1,53.9 456.9,53.8 458.6,53.6 460.3,53.6 462.0,53.4 463.7,53.0 465.4,52.8 467.1,57.8 468.9,56.9 470.6,54.9 472.3,54.2 474.0,53.3 475.7,52.2 477.4,51.7 479.1,51.3 480.9,50.5 482.6,49.4 484.3,48.6 486.0,48.4 487.7,48.0 489.4,47.6 491.1,47.1 492.9,46.5 494.6,45.9 496.3,45.6 498.0,45.1 499.7,44.8 501.4,44.4 503.1,44.1 504.9,43.9 506.6,43.6 508.3,43.0 510.0,42.7 511.7,42.2 513.4,41.5 515.1,41.1 516.9,40.8 518.6,40.6 520.3,40.4 522.0,39.9 523.7,39.5 525.4,39.2 527.1,38.1 528.9,37.3 530.6,37.0 532.3,36.8 534.0,36.4 535.7,35.9 537.4,35.4 539.1,34.8 540.9,34.4 542.6,34.1 544.3,33.7 546.0,33.2 547.7,33.0 549.4,32.8 551.1,32.6 552.9,32.4 554.6,32.1 556.3,31.9 558.0,31.6 559.7,31.4 561.4,31.2 563.1,30.9 564.9,30.7 566.6,30.4 568.3,30.2 570.0,30.0" />
  
  <!-- Punto finale luminoso -->
  <circle cx="570.0" cy="30.0" r="4" fill="#ffffff" stroke="#0366d6" stroke-width="2.5" />
</svg>