<svg width="600" height="150" viewBox="0 0 600 150" xmlns="http://www.w3.org/2000/svg">
  <defs>
    <filter id="shadow2" x="-2%" y="-2%" width="104%" height="108%">
      <feDropShadow dx="0" dy="2" stdDeviation="3" flood-opacity="0.1" />
    </filter>
    <linearGradient id="fillGrad" x1="0" y1="0" x2="0" y2="1">
      <stop offset="0%" stop-color="#0366d6" stop-opacity="0.3"/>
      <stop offset="100%" stop-color="#0366d6" stop-opacity="0.02"/>
    </linearGradient>
  </defs>
  <rect width="600" height="150" rx="12" fill="#ffffff" filter="url(#shadow2)" stroke="#e1e4e8" stroke-width="1"/>
  <text x="20" y="24" fill="#2b3137" font-family="-apple-system,BlinkMacSystemFont,'Segoe UI',Helvetica,Arial,sans-serif" font-size="14" font-weight="600">📈 Download Growth (Actual: 88.5k)</text>
  
  <!-- Area sotto la linea -->
  <polygon fill="url(#fillGrad)" points="30.0,120.0,120 30.0,120.0 31.1,119.5 32.3,119.0 33.4,118.6 34.5,118.5 35.7,118.2 36.8,117.7 38.0,117.3 39.1,117.1 40.2,116.5 41.4,116.3 42.5,116.0 43.6,115.8 44.8,115.6 45.9,115.2 47.1,114.8 48.2,114.5 49.3,114.3 50.5,114.1 51.6,113.9 52.7,113.6 53.9,113.3 55.0,113.2 56.1,113.0 57.3,112.1 58.4,111.8 59.6,111.5 60.7,111.1 61.8,110.8 63.0,110.5 64.1,110.3 65.2,110.2 66.4,110.0 67.5,109.5 68.7,109.2 69.8,108.9 70.9,108.6 72.1,108.5 73.2,108.5 74.3,108.3 75.5,108.0 76.6,107.9 77.7,107.7 78.9,107.4 80.0,107.0 81.2,106.8 82.3,106.8 83.4,106.6 84.6,106.2 85.7,105.9 86.8,105.6 88.0,105.3 89.1,104.9 90.3,104.9 91.4,104.7 92.5,104.3 93.7,104.0 94.8,103.7 95.9,103.6 97.1,103.4 98.2,103.2 99.3,102.8 100.5,102.5 101.6,102.1 102.8,101.8 103.9,101.7 105.0,101.6 106.2,101.4 107.3,101.1 108.4,101.0 109.6,100.8 110.7,100.7 111.9,100.6 113.0,100.4 114.1,100.2 115.3,100.2 116.4,100.1 117.5,99.7 118.7,99.5 119.8,99.4 120.9,99.3 122.1,99.3 123.2,99.3 124.4,105.2 125.5,104.6 126.6,104.1 127.8,103.5 128.9,101.9 130.0,100.8 131.2,99.6 132.3,99.1 133.5,98.6 134.6,97.8 135.7,96.9 136.9,96.2 138.0,96.0 139.1,95.7 140.3,95.1 141.4,94.6 142.5,94.3 143.7,93.9 144.8,93.8 146.0,93.7 147.1,93.3 148.2,92.8 149.4,92.4 150.5,92.0 151.6,91.6 152.8,91.3 153.9,91.2 155.1,90.8 156.2,90.5 157.3,90.1 158.5,89.9 159.6,89.7 160.7,89.7 161.9,89.5 163.0,89.2 164.1,89.0 165.3,88.7 166.4,88.6 167.6,88.4 168.7,88.2 169.8,88.1 171.0,87.9 172.1,87.8 173.2,87.5 174.4,87.2 175.5,87.0 176.7,86.8 177.8,86.7 178.9,86.5 180.1,86.4 181.2,86.3 182.3,85.8 183.5,85.5 184.6,85.2 185.7,85.0 186.9,85.0 188.0,84.8 189.2,84.7 190.3,84.4 191.4,84.2 192.6,84.0 193.7,83.8 194.8,83.7 196.0,83.6 197.1,83.5 198.3,83.3 199.4,83.2 200.5,83.0 201.7,82.8 202.8,82.6 203.9,82.5 205.1,82.4 206.2,82.3 207.3,82.1 208.5,81.9 209.6,81.7 210.8,81.6 211.9,81.4 213.0,81.2 214.2,81.1 215.3,81.0 216.4,80.8 217.6,80.5 218.7,80.3 219.9,80.1 221.0,79.8 222.1,79.7 223.3,79.6 224.4,79.5 225.5,79.4 226.7,79.2 227.8,79.1 228.9,78.9 230.1,78.8 231.2,78.7 232.4,78.5 233.5,78.4 234.6,78.3 235.8,78.2 236.9,77.9 238.0,77.8 239.2,77.6 240.3,77.5 241.5,77.4 242.6,77.3 243.7,77.2 244.9,77.1 246.0,76.9 247.1,76.7 248.3,76.4 249.4,76.2 250.5,76.1 251.7,76.0 252.8,76.0 254.0,75.8 255.1,75.5 256.2,75.4 257.4,75.3 258.5,75.2 259.6,75.0 260.8,74.9 261.9,74.8 263.1,74.7 264.2,74.5 265.3,74.3 266.5,74.1 267.6,73.9 268.7,73.8 269.9,73.8 271.0,73.7 272.1,73.6 273.3,73.5 274.4,73.3 275.6,73.2 276.7,73.0 277.8,72.9 279.0,72.8 280.1,72.7 281.2,72.6 282.4,72.4 283.5,72.2 284.7,72.0 285.8,71.9 286.9,71.8 288.1,71.7 289.2,71.6 290.3,71.5 291.5,71.4 292.6,71.3 293.7,71.1 294.9,71.0 296.0,70.8 297.2,70.7 298.3,70.6 299.4,70.5 300.6,70.3 301.7,70.2 302.8,70.1 304.0,70.0 305.1,69.8 306.3,69.7 307.4,69.6 308.5,69.5 309.7,69.4 310.8,69.3 311.9,69.2 313.1,69.1 314.2,69.0 315.3,68.9 316.5,68.8 317.6,68.5 318.8,68.3 319.9,72.2 321.0,71.5 322.2,70.0 323.3,69.4 324.4,68.8 325.6,67.9 326.7,67.5 327.9,67.2 329.0,66.6 330.1,65.8 331.3,65.1 332.4,64.9 333.5,64.6 334.7,64.4 335.8,63.9 336.9,63.5 338.1,63.0 339.2,62.8 340.4,62.4 341.5,62.2 342.6,61.9 343.8,61.7 344.9,61.5 346.0,61.3 347.2,60.8 348.3,60.6 349.5,60.2 350.6,59.6 351.7,59.3 352.9,59.2 354.0,59.0 355.1,58.8 356.3,58.4 357.4,58.1 358.5,57.9 359.7,57.1 360.8,56.5 362.0,56.2 363.1,56.0 364.2,55.8 365.4,55.4 366.5,55.0 367.6,54.5 368.8,54.2 369.9,53.9 371.1,53.7 372.2,53.3 373.3,53.1 374.5,53.0 375.6,52.8 376.7,52.7 377.9,52.4 379.0,52.3 380.1,52.1 381.3,51.9 382.4,51.7 383.6,51.5 384.7,51.3 385.8,51.2 387.0,51.0 388.1,50.8 389.2,50.7 390.4,50.6 391.5,50.4 392.7,50.3 393.8,50.2 394.9,50.0 396.1,49.9 397.2,49.7 398.3,49.6 399.5,49.4 400.6,49.3 401.7,49.1 402.9,49.0 404.0,48.9 405.2,48.7 406.3,48.6 407.4,48.5 408.6,48.4 409.7,48.3 410.8,48.1 412.0,48.0 413.1,47.7 414.3,47.5 415.4,47.4 416.5,47.2 417.7,47.0 418.8,46.9 419.9,46.6 421.1,46.5 422.2,46.3 423.3,46.1 424.5,45.9 425.6,45.6 426.8,45.4 427.9,45.2 429.0,45.1 430.2,45.0 431.3,44.9 432.4,44.8 433.6,44.6 434.7,44.5 435.9,44.3 437.0,44.2 438.1,44.0 439.3,43.8 440.4,43.5 441.5,43.3 442.7,43.1 443.8,43.0 444.9,42.8 446.1,42.7 447.2,42.6 448.4,42.5 449.5,42.3 450.6,42.1 451.8,42.0 452.9,41.7 454.0,41.6 455.2,41.5 456.3,41.4 457.5,41.2 458.6,41.1 459.7,41.1 460.9,40.9 462.0,40.8 463.1,40.7 464.3,40.6 465.4,40.4 466.5,40.2 467.7,40.1 468.8,40.0 470.0,39.8 471.1,39.7 472.2,39.6 473.4,39.5 474.5,39.4 475.6,39.2 476.8,39.1 477.9,38.8 479.1,38.7 480.2,38.4 481.3,38.3 482.5,38.3 483.6,38.2 484.7,38.0 485.9,38.0 487.0,37.9 488.1,37.8 489.3,37.7 490.4,37.6 491.6,37.4 492.7,37.3 493.8,37.1 495.0,37.0 496.1,36.9 497.2,36.8 498.4,36.6 499.5,36.5 500.7,36.4 501.8,36.3 502.9,36.2 504.1,36.1 505.2,35.9 506.3,35.7 507.5,35.5 508.6,35.2 509.7,35.1 510.9,34.9 512.0,34.8 513.2,34.6 514.3,34.5 515.4,34.4 516.6,34.3 517.7,34.2 518.8,34.1 520.0,33.9 521.1,33.7 522.3,33.6 523.4,33.4 524.5,33.3 525.7,33.1 526.8,33.0 527.9,32.9 529.1,32.8 530.2,32.7 531.3,32.6 532.5,32.5 533.6,32.3 534.8,32.1 535.9,32.0 537.0,31.8 538.2,31.8 539.3,31.7 540.4,31.6 541.6,31.6 542.7,31.5 543.9,31.4 545.0,31.3 546.1,31.2 547.3,31.1 548.4,30.9 549.5,30.8 550.7,30.7 551.8,30.5 552.9,30.4 554.1,30.4 555.2,30.3 556.4,30.2 557.5,30.1 558.6,30.0 559.8,42.8 560.9,41.5 562.0,40.4 563.2,39.6 564.3,39.0 565.5,38.5 566.6,38.0 567.7,37.6 568.9,37.2 570.0,36.7 570.0,36.7,120" />
  
  <!-- Linea principale -->
  <polyline fill="none" stroke="#0366d6" stroke-width="2.5" stroke-linecap="round" stroke-linejoin="round" points="30.0,120.0 31.1,119.5 32.3,119.0 33.4,118.6 34.5,118.5 35.7,118.2 36.8,117.7 38.0,117.3 39.1,117.1 40.2,116.5 41.4,116.3 42.5,116.0 43.6,115.8 44.8,115.6 45.9,115.2 47.1,114.8 48.2,114.5 49.3,114.3 50.5,114.1 51.6,113.9 52.7,113.6 53.9,113.3 55.0,113.2 56.1,113.0 57.3,112.1 58.4,111.8 59.6,111.5 60.7,111.1 61.8,110.8 63.0,110.5 64.1,110.3 65.2,110.2 66.4,110.0 67.5,109.5 68.7,109.2 69.8,108.9 70.9,108.6 72.1,108.5 73.2,108.5 74.3,108.3 75.5,108.0 76.6,107.9 77.7,107.7 78.9,107.4 80.0,107.0 81.2,106.8 82.3,106.8 83.4,106.6 84.6,106.2 85.7,105.9 86.8,105.6 88.0,105.3 89.1,104.9 90.3,104.9 91.4,104.7 92.5,104.3 93.7,104.0 94.8,103.7 95.9,103.6 97.1,103.4 98.2,103.2 99.3,102.8 100.5,102.5 101.6,102.1 102.8,101.8 103.9,101.7 105.0,101.6 106.2,101.4 107.3,101.1 108.4,101.0 109.6,100.8 110.7,100.7 111.9,100.6 113.0,100.4 114.1,100.2 115.3,100.2 116.4,100.1 117.5,99.7 118.7,99.5 119.8,99.4 120.9,99.3 122.1,99.3 123.2,99.3 124.4,105.2 125.5,104.6 126.6,104.1 127.8,103.5 128.9,101.9 130.0,100.8 131.2,99.6 132.3,99.1 133.5,98.6 134.6,97.8 135.7,96.9 136.9,96.2 138.0,96.0 139.1,95.7 140.3,95.1 141.4,94.6 142.5,94.3 143.7,93.9 144.8,93.8 146.0,93.7 147.1,93.3 148.2,92.8 149.4,92.4 150.5,92.0 151.6,91.6 152.8,91.3 153.9,91.2 155.1,90.8 156.2,90.5 157.3,90.1 158.5,89.9 159.6,89.7 160.7,89.7 161.9,89.5 163.0,89.2 164.1,89.0 165.3,88.7 166.4,88.6 167.6,88.4 168.7,88.2 169.8,88.1 171.0,87.9 172.1,87.8 173.2,87.5 174.4,87.2 175.5,87.0 176.7,86.8 177.8,86.7 178.9,86.5 180.1,86.4 181.2,86.3 182.3,85.8 183.5,85.5 184.6,85.2 185.7,85.0 186.9,85.0 188.0,84.8 189.2,84.7 190.3,84.4 191.4,84.2 192.6,84.0 193.7,83.8 194.8,83.7 196.0,83.6 197.1,83.5 198.3,83.3 199.4,83.2 200.5,83.0 201.7,82.8 202.8,82.6 203.9,82.5 205.1,82.4 206.2,82.3 207.3,82.1 208.5,81.9 209.6,81.7 210.8,81.6 211.9,81.4 213.0,81.2 214.2,81.1 215.3,81.0 216.4,80.8 217.6,80.5 218.7,80.3 219.9,80.1 221.0,79.8 222.1,79.7 223.3,79.6 224.4,79.5 225.5,79.4 226.7,79.2 227.8,79.1 228.9,78.9 230.1,78.8 231.2,78.7 232.4,78.5 233.5,78.4 234.6,78.3 235.8,78.2 236.9,77.9 238.0,77.8 239.2,77.6 240.3,77.5 241.5,77.4 242.6,77.3 243.7,77.2 244.9,77.1 246.0,76.9 247.1,76.7 248.3,76.4 249.4,76.2 250.5,76.1 251.7,76.0 252.8,76.0 254.0,75.8 255.1,75.5 256.2,75.4 257.4,75.3 258.5,75.2 259.6,75.0 260.8,74.9 261.9,74.8 263.1,74.7 264.2,74.5 265.3,74.3 266.5,74.1 267.6,73.9 268.7,73.8 269.9,73.8 271.0,73.7 272.1,73.6 273.3,73.5 274.4,73.3 275.6,73.2 276.7,73.0 277.8,72.9 279.0,72.8 280.1,72.7 281.2,72.6 282.4,72.4 283.5,72.2 284.7,72.0 285.8,71.9 286.9,71.8 288.1,71.7 289.2,71.6 290.3,71.5 291.5,71.4 292.6,71.3 293.7,71.1 294.9,71.0 296.0,70.8 297.2,70.7 298.3,70.6 299.4,70.5 300.6,70.3 301.7,70.2 302.8,70.1 304.0,70.0 305.1,69.8 306.3,69.7 307.4,69.6 308.5,69.5 309.7,69.4 310.8,69.3 311.9,69.2 313.1,69.1 314.2,69.0 315.3,68.9 316.5,68.8 317.6,68.5 318.8,68.3 319.9,72.2 321.0,71.5 322.2,70.0 323.3,69.4 324.4,68.8 325.6,67.9 326.7,67.5 327.9,67.2 329.0,66.6 330.1,65.8 331.3,65.1 332.4,64.9 333.5,64.6 334.7,64.4 335.8,63.9 336.9,63.5 338.1,63.0 339.2,62.8 340.4,62.4 341.5,62.2 342.6,61.9 343.8,61.7 344.9,61.5 346.0,61.3 347.2,60.8 348.3,60.6 349.5,60.2 350.6,59.6 351.7,59.3 352.9,59.2 354.0,59.0 355.1,58.8 356.3,58.4 357.4,58.1 358.5,57.9 359.7,57.1 360.8,56.5 362.0,56.2 363.1,56.0 364.2,55.8 365.4,55.4 366.5,55.0 367.6,54.5 368.8,54.2 369.9,53.9 371.1,53.7 372.2,53.3 373.3,53.1 374.5,53.0 375.6,52.8 376.7,52.7 377.9,52.4 379.0,52.3 380.1,52.1 381.3,51.9 382.4,51.7 383.6,51.5 384.7,51.3 385.8,51.2 387.0,51.0 388.1,50.8 389.2,50.7 390.4,50.6 391.5,50.4 392.7,50.3 393.8,50.2 394.9,50.0 396.1,49.9 397.2,49.7 398.3,49.6 399.5,49.4 400.6,49.3 401.7,49.1 402.9,49.0 404.0,48.9 405.2,48.7 406.3,48.6 407.4,48.5 408.6,48.4 409.7,48.3 410.8,48.1 412.0,48.0 413.1,47.7 414.3,47.5 415.4,47.4 416.5,47.2 417.7,47.0 418.8,46.9 419.9,46.6 421.1,46.5 422.2,46.3 423.3,46.1 424.5,45.9 425.6,45.6 426.8,45.4 427.9,45.2 429.0,45.1 430.2,45.0 431.3,44.9 432.4,44.8 433.6,44.6 434.7,44.5 435.9,44.3 437.0,44.2 438.1,44.0 439.3,43.8 440.4,43.5 441.5,43.3 442.7,43.1 443.8,43.0 444.9,42.8 446.1,42.7 447.2,42.6 448.4,42.5 449.5,42.3 450.6,42.1 451.8,42.0 452.9,41.7 454.0,41.6 455.2,41.5 456.3,41.4 457.5,41.2 458.6,41.1 459.7,41.1 460.9,40.9 462.0,40.8 463.1,40.7 464.3,40.6 465.4,40.4 466.5,40.2 467.7,40.1 468.8,40.0 470.0,39.8 471.1,39.7 472.2,39.6 473.4,39.5 474.5,39.4 475.6,39.2 476.8,39.1 477.9,38.8 479.1,38.7 480.2,38.4 481.3,38.3 482.5,38.3 483.6,38.2 484.7,38.0 485.9,38.0 487.0,37.9 488.1,37.8 489.3,37.7 490.4,37.6 491.6,37.4 492.7,37.3 493.8,37.1 495.0,37.0 496.1,36.9 497.2,36.8 498.4,36.6 499.5,36.5 500.7,36.4 501.8,36.3 502.9,36.2 504.1,36.1 505.2,35.9 506.3,35.7 507.5,35.5 508.6,35.2 509.7,35.1 510.9,34.9 512.0,34.8 513.2,34.6 514.3,34.5 515.4,34.4 516.6,34.3 517.7,34.2 518.8,34.1 520.0,33.9 521.1,33.7 522.3,33.6 523.4,33.4 524.5,33.3 525.7,33.1 526.8,33.0 527.9,32.9 529.1,32.8 530.2,32.7 531.3,32.6 532.5,32.5 533.6,32.3 534.8,32.1 535.9,32.0 537.0,31.8 538.2,31.8 539.3,31.7 540.4,31.6 541.6,31.6 542.7,31.5 543.9,31.4 545.0,31.3 546.1,31.2 547.3,31.1 548.4,30.9 549.5,30.8 550.7,30.7 551.8,30.5 552.9,30.4 554.1,30.4 555.2,30.3 556.4,30.2 557.5,30.1 558.6,30.0 559.8,42.8 560.9,41.5 562.0,40.4 563.2,39.6 564.3,39.0 565.5,38.5 566.6,38.0 567.7,37.6 568.9,37.2 570.0,36.7" />
  
  <!-- Punto finale luminoso -->
  <circle cx="570.0" cy="36.7" r="4" fill="#ffffff" stroke="#0366d6" stroke-width="2.5" />
</svg>