<svg width="600" height="150" viewBox="0 0 600 150" xmlns="http://www.w3.org/2000/svg">
  <defs>
    <filter id="shadow2" x="-2%" y="-2%" width="104%" height="108%">
      <feDropShadow dx="0" dy="2" stdDeviation="3" flood-opacity="0.1" />
    </filter>
    <linearGradient id="fillGrad" x1="0" y1="0" x2="0" y2="1">
      <stop offset="0%" stop-color="#0366d6" stop-opacity="0.3"/>
      <stop offset="100%" stop-color="#0366d6" stop-opacity="0.02"/>
    </linearGradient>
  </defs>
  <rect width="600" height="150" rx="12" fill="#ffffff" filter="url(#shadow2)" stroke="#e1e4e8" stroke-width="1"/>
  <text x="20" y="24" fill="#2b3137" font-family="-apple-system,BlinkMacSystemFont,'Segoe UI',Helvetica,Arial,sans-serif" font-size="14" font-weight="600">📈 Download Growth (Actual: 86.9k)</text>
  
  <!-- Area sotto la linea -->
  <polygon fill="url(#fillGrad)" points="30.0,120.0,120 30.0,120.0 31.3,119.5 32.6,118.9 33.9,118.5 35.3,118.3 36.6,118.1 37.9,117.5 39.2,117.1 40.5,116.9 41.8,116.3 43.1,116.0 44.5,115.7 45.8,115.5 47.1,115.2 48.4,114.8 49.7,114.4 51.0,114.0 52.3,113.8 53.6,113.7 55.0,113.4 56.3,113.1 57.6,112.8 58.9,112.7 60.2,112.4 61.5,111.4 62.8,111.2 64.2,110.8 65.5,110.4 66.8,110.1 68.1,109.8 69.4,109.6 70.7,109.4 72.0,109.1 73.4,108.7 74.7,108.3 76.0,108.0 77.3,107.7 78.6,107.6 79.9,107.5 81.2,107.4 82.6,107.1 83.9,106.9 85.2,106.7 86.5,106.4 87.8,105.9 89.1,105.8 90.4,105.7 91.8,105.5 93.1,105.1 94.4,104.8 95.7,104.4 97.0,104.1 98.3,103.7 99.6,103.6 100.9,103.4 102.3,103.0 103.6,102.6 104.9,102.4 106.2,102.2 107.5,102.0 108.8,101.9 110.1,101.4 111.5,101.0 112.8,100.7 114.1,100.3 115.4,100.2 116.7,100.0 118.0,99.9 119.3,99.6 120.7,99.4 122.0,99.2 123.3,99.1 124.6,99.0 125.9,98.8 127.2,98.6 128.5,98.5 129.9,98.4 131.2,98.1 132.5,97.8 133.8,97.8 135.1,97.6 136.4,97.6 137.7,97.6 139.1,104.0 140.4,103.3 141.7,102.8 143.0,102.2 144.3,100.4 145.6,99.2 146.9,97.9 148.2,97.4 149.6,96.9 150.9,96.0 152.2,95.0 153.5,94.3 154.8,94.0 156.1,93.7 157.4,93.0 158.8,92.5 160.1,92.2 161.4,91.8 162.7,91.6 164.0,91.5 165.3,91.2 166.6,90.6 168.0,90.1 169.3,89.7 170.6,89.2 171.9,89.0 173.2,88.8 174.5,88.4 175.8,88.0 177.2,87.7 178.5,87.4 179.8,87.3 181.1,87.2 182.4,87.0 183.7,86.7 185.0,86.4 186.4,86.2 187.7,86.0 189.0,85.8 190.3,85.6 191.6,85.5 192.9,85.3 194.2,85.2 195.5,84.8 196.9,84.6 198.2,84.3 199.5,84.1 200.8,83.9 202.1,83.8 203.4,83.7 204.7,83.5 206.1,83.0 207.4,82.7 208.7,82.3 210.0,82.2 211.3,82.2 212.6,82.0 213.9,81.8 215.3,81.5 216.6,81.3 217.9,81.0 219.2,80.8 220.5,80.7 221.8,80.6 223.1,80.5 224.5,80.3 225.8,80.2 227.1,80.0 228.4,79.7 229.7,79.6 231.0,79.5 232.3,79.4 233.6,79.3 235.0,79.0 236.3,78.8 237.6,78.6 238.9,78.4 240.2,78.2 241.5,78.1 242.8,78.0 244.2,77.8 245.5,77.6 246.8,77.3 248.1,77.1 249.4,76.9 250.7,76.5 252.0,76.5 253.4,76.3 254.7,76.2 256.0,76.1 257.3,75.9 258.6,75.7 259.9,75.6 261.2,75.4 262.6,75.3 263.9,75.1 265.2,75.0 266.5,74.9 267.8,74.8 269.1,74.5 270.4,74.4 271.8,74.2 273.1,74.1 274.4,74.0 275.7,73.8 277.0,73.7 278.3,73.6 279.6,73.4 280.9,73.1 282.3,72.8 283.6,72.7 284.9,72.5 286.2,72.4 287.5,72.4 288.8,72.2 290.1,71.9 291.5,71.8 292.8,71.7 294.1,71.5 295.4,71.4 296.7,71.2 298.0,71.1 299.3,71.0 300.7,70.7 302.0,70.6 303.3,70.4 304.6,70.2 305.9,70.1 307.2,70.0 308.5,70.0 309.9,69.8 311.2,69.7 312.5,69.5 313.8,69.3 315.1,69.2 316.4,69.1 317.7,69.0 319.1,68.8 320.4,68.7 321.7,68.5 323.0,68.3 324.3,68.1 325.6,67.9 326.9,67.8 328.2,67.7 329.6,67.7 330.9,67.6 332.2,67.5 333.5,67.3 334.8,67.1 336.1,67.0 337.4,66.8 338.8,66.7 340.1,66.6 341.4,66.4 342.7,66.3 344.0,66.2 345.3,66.1 346.6,65.9 348.0,65.7 349.3,65.6 350.6,65.5 351.9,65.4 353.2,65.3 354.5,65.2 355.8,65.1 357.2,64.9 358.5,64.8 359.8,64.8 361.1,64.6 362.4,64.3 363.7,64.1 365.0,68.3 366.4,67.5 367.7,65.9 369.0,65.3 370.3,64.6 371.6,63.7 372.9,63.2 374.2,62.9 375.5,62.3 376.9,61.3 378.2,60.7 379.5,60.5 380.8,60.1 382.1,59.8 383.4,59.4 384.7,58.9 386.1,58.4 387.4,58.2 388.7,57.7 390.0,57.5 391.3,57.1 392.6,56.9 393.9,56.7 395.3,56.5 396.6,56.0 397.9,55.7 399.2,55.3 400.5,54.7 401.8,54.4 403.1,54.2 404.5,54.0 405.8,53.8 407.1,53.4 408.4,53.1 409.7,52.8 411.0,52.0 412.3,51.3 413.6,51.0 415.0,50.8 416.3,50.5 417.6,50.1 418.9,49.7 420.2,49.2 421.5,48.9 422.8,48.6 424.2,48.3 425.5,47.9 426.8,47.7 428.1,47.5 429.4,47.3 430.7,47.2 432.0,46.9 433.4,46.8 434.7,46.5 436.0,46.3 437.3,46.2 438.6,45.9 439.9,45.7 441.2,45.5 442.6,45.4 443.9,45.2 445.2,45.0 446.5,44.9 447.8,44.8 449.1,44.6 450.4,44.5 451.8,44.3 453.1,44.2 454.4,44.0 455.7,43.8 457.0,43.6 458.3,43.5 459.6,43.3 460.9,43.2 462.3,43.1 463.6,42.9 464.9,42.8 466.2,42.7 467.5,42.6 468.8,42.4 470.1,42.2 471.5,42.1 472.8,41.8 474.1,41.6 475.4,41.5 476.7,41.3 478.0,41.1 479.3,40.9 480.7,40.7 482.0,40.5 483.3,40.3 484.6,40.0 485.9,39.8 487.2,39.6 488.5,39.4 489.9,39.1 491.2,39.0 492.5,38.9 493.8,38.8 495.1,38.6 496.4,38.5 497.7,38.3 499.1,38.2 500.4,38.0 501.7,37.8 503.0,37.5 504.3,37.3 505.6,37.1 506.9,36.8 508.2,36.7 509.6,36.5 510.9,36.4 512.2,36.3 513.5,36.1 514.8,36.0 516.1,35.8 517.4,35.6 518.8,35.4 520.1,35.2 521.4,35.1 522.7,34.9 524.0,34.8 525.3,34.7 526.6,34.6 528.0,34.5 529.3,34.3 530.6,34.2 531.9,34.1 533.2,33.9 534.5,33.7 535.8,33.6 537.2,33.5 538.5,33.3 539.8,33.2 541.1,33.0 542.4,32.9 543.7,32.8 545.0,32.6 546.4,32.5 547.7,32.2 549.0,32.1 550.3,31.8 551.6,31.7 552.9,31.6 554.2,31.5 555.5,31.3 556.9,31.3 558.2,31.2 559.5,31.1 560.8,31.0 562.1,30.9 563.4,30.7 564.7,30.6 566.1,30.4 567.4,30.2 568.7,30.1 570.0,30.0 570.0,30.0,120" />
  
  <!-- Linea principale -->
  <polyline fill="none" stroke="#0366d6" stroke-width="2.5" stroke-linecap="round" stroke-linejoin="round" points="30.0,120.0 31.3,119.5 32.6,118.9 33.9,118.5 35.3,118.3 36.6,118.1 37.9,117.5 39.2,117.1 40.5,116.9 41.8,116.3 43.1,116.0 44.5,115.7 45.8,115.5 47.1,115.2 48.4,114.8 49.7,114.4 51.0,114.0 52.3,113.8 53.6,113.7 55.0,113.4 56.3,113.1 57.6,112.8 58.9,112.7 60.2,112.4 61.5,111.4 62.8,111.2 64.2,110.8 65.5,110.4 66.8,110.1 68.1,109.8 69.4,109.6 70.7,109.4 72.0,109.1 73.4,108.7 74.7,108.3 76.0,108.0 77.3,107.7 78.6,107.6 79.9,107.5 81.2,107.4 82.6,107.1 83.9,106.9 85.2,106.7 86.5,106.4 87.8,105.9 89.1,105.8 90.4,105.7 91.8,105.5 93.1,105.1 94.4,104.8 95.7,104.4 97.0,104.1 98.3,103.7 99.6,103.6 100.9,103.4 102.3,103.0 103.6,102.6 104.9,102.4 106.2,102.2 107.5,102.0 108.8,101.9 110.1,101.4 111.5,101.0 112.8,100.7 114.1,100.3 115.4,100.2 116.7,100.0 118.0,99.9 119.3,99.6 120.7,99.4 122.0,99.2 123.3,99.1 124.6,99.0 125.9,98.8 127.2,98.6 128.5,98.5 129.9,98.4 131.2,98.1 132.5,97.8 133.8,97.8 135.1,97.6 136.4,97.6 137.7,97.6 139.1,104.0 140.4,103.3 141.7,102.8 143.0,102.2 144.3,100.4 145.6,99.2 146.9,97.9 148.2,97.4 149.6,96.9 150.9,96.0 152.2,95.0 153.5,94.3 154.8,94.0 156.1,93.7 157.4,93.0 158.8,92.5 160.1,92.2 161.4,91.8 162.7,91.6 164.0,91.5 165.3,91.2 166.6,90.6 168.0,90.1 169.3,89.7 170.6,89.2 171.9,89.0 173.2,88.8 174.5,88.4 175.8,88.0 177.2,87.7 178.5,87.4 179.8,87.3 181.1,87.2 182.4,87.0 183.7,86.7 185.0,86.4 186.4,86.2 187.7,86.0 189.0,85.8 190.3,85.6 191.6,85.5 192.9,85.3 194.2,85.2 195.5,84.8 196.9,84.6 198.2,84.3 199.5,84.1 200.8,83.9 202.1,83.8 203.4,83.7 204.7,83.5 206.1,83.0 207.4,82.7 208.7,82.3 210.0,82.2 211.3,82.2 212.6,82.0 213.9,81.8 215.3,81.5 216.6,81.3 217.9,81.0 219.2,80.8 220.5,80.7 221.8,80.6 223.1,80.5 224.5,80.3 225.8,80.2 227.1,80.0 228.4,79.7 229.7,79.6 231.0,79.5 232.3,79.4 233.6,79.3 235.0,79.0 236.3,78.8 237.6,78.6 238.9,78.4 240.2,78.2 241.5,78.1 242.8,78.0 244.2,77.8 245.5,77.6 246.8,77.3 248.1,77.1 249.4,76.9 250.7,76.5 252.0,76.5 253.4,76.3 254.7,76.2 256.0,76.1 257.3,75.9 258.6,75.7 259.9,75.6 261.2,75.4 262.6,75.3 263.9,75.1 265.2,75.0 266.5,74.9 267.8,74.8 269.1,74.5 270.4,74.4 271.8,74.2 273.1,74.1 274.4,74.0 275.7,73.8 277.0,73.7 278.3,73.6 279.6,73.4 280.9,73.1 282.3,72.8 283.6,72.7 284.9,72.5 286.2,72.4 287.5,72.4 288.8,72.2 290.1,71.9 291.5,71.8 292.8,71.7 294.1,71.5 295.4,71.4 296.7,71.2 298.0,71.1 299.3,71.0 300.7,70.7 302.0,70.6 303.3,70.4 304.6,70.2 305.9,70.1 307.2,70.0 308.5,70.0 309.9,69.8 311.2,69.7 312.5,69.5 313.8,69.3 315.1,69.2 316.4,69.1 317.7,69.0 319.1,68.8 320.4,68.7 321.7,68.5 323.0,68.3 324.3,68.1 325.6,67.9 326.9,67.8 328.2,67.7 329.6,67.7 330.9,67.6 332.2,67.5 333.5,67.3 334.8,67.1 336.1,67.0 337.4,66.8 338.8,66.7 340.1,66.6 341.4,66.4 342.7,66.3 344.0,66.2 345.3,66.1 346.6,65.9 348.0,65.7 349.3,65.6 350.6,65.5 351.9,65.4 353.2,65.3 354.5,65.2 355.8,65.1 357.2,64.9 358.5,64.8 359.8,64.8 361.1,64.6 362.4,64.3 363.7,64.1 365.0,68.3 366.4,67.5 367.7,65.9 369.0,65.3 370.3,64.6 371.6,63.7 372.9,63.2 374.2,62.9 375.5,62.3 376.9,61.3 378.2,60.7 379.5,60.5 380.8,60.1 382.1,59.8 383.4,59.4 384.7,58.9 386.1,58.4 387.4,58.2 388.7,57.7 390.0,57.5 391.3,57.1 392.6,56.9 393.9,56.7 395.3,56.5 396.6,56.0 397.9,55.7 399.2,55.3 400.5,54.7 401.8,54.4 403.1,54.2 404.5,54.0 405.8,53.8 407.1,53.4 408.4,53.1 409.7,52.8 411.0,52.0 412.3,51.3 413.6,51.0 415.0,50.8 416.3,50.5 417.6,50.1 418.9,49.7 420.2,49.2 421.5,48.9 422.8,48.6 424.2,48.3 425.5,47.9 426.8,47.7 428.1,47.5 429.4,47.3 430.7,47.2 432.0,46.9 433.4,46.8 434.7,46.5 436.0,46.3 437.3,46.2 438.6,45.9 439.9,45.7 441.2,45.5 442.6,45.4 443.9,45.2 445.2,45.0 446.5,44.9 447.8,44.8 449.1,44.6 450.4,44.5 451.8,44.3 453.1,44.2 454.4,44.0 455.7,43.8 457.0,43.6 458.3,43.5 459.6,43.3 460.9,43.2 462.3,43.1 463.6,42.9 464.9,42.8 466.2,42.7 467.5,42.6 468.8,42.4 470.1,42.2 471.5,42.1 472.8,41.8 474.1,41.6 475.4,41.5 476.7,41.3 478.0,41.1 479.3,40.9 480.7,40.7 482.0,40.5 483.3,40.3 484.6,40.0 485.9,39.8 487.2,39.6 488.5,39.4 489.9,39.1 491.2,39.0 492.5,38.9 493.8,38.8 495.1,38.6 496.4,38.5 497.7,38.3 499.1,38.2 500.4,38.0 501.7,37.8 503.0,37.5 504.3,37.3 505.6,37.1 506.9,36.8 508.2,36.7 509.6,36.5 510.9,36.4 512.2,36.3 513.5,36.1 514.8,36.0 516.1,35.8 517.4,35.6 518.8,35.4 520.1,35.2 521.4,35.1 522.7,34.9 524.0,34.8 525.3,34.7 526.6,34.6 528.0,34.5 529.3,34.3 530.6,34.2 531.9,34.1 533.2,33.9 534.5,33.7 535.8,33.6 537.2,33.5 538.5,33.3 539.8,33.2 541.1,33.0 542.4,32.9 543.7,32.8 545.0,32.6 546.4,32.5 547.7,32.2 549.0,32.1 550.3,31.8 551.6,31.7 552.9,31.6 554.2,31.5 555.5,31.3 556.9,31.3 558.2,31.2 559.5,31.1 560.8,31.0 562.1,30.9 563.4,30.7 564.7,30.6 566.1,30.4 567.4,30.2 568.7,30.1 570.0,30.0" />
  
  <!-- Punto finale luminoso -->
  <circle cx="570.0" cy="30.0" r="4" fill="#ffffff" stroke="#0366d6" stroke-width="2.5" />
</svg>