<svg width="600" height="150" viewBox="0 0 600 150" xmlns="http://www.w3.org/2000/svg">
  <defs>
    <filter id="shadow2" x="-2%" y="-2%" width="104%" height="108%">
      <feDropShadow dx="0" dy="2" stdDeviation="3" flood-opacity="0.1" />
    </filter>
    <linearGradient id="fillGrad" x1="0" y1="0" x2="0" y2="1">
      <stop offset="0%" stop-color="#0366d6" stop-opacity="0.3"/>
      <stop offset="100%" stop-color="#0366d6" stop-opacity="0.02"/>
    </linearGradient>
  </defs>
  <rect width="600" height="150" rx="12" fill="#ffffff" filter="url(#shadow2)" stroke="#e1e4e8" stroke-width="1"/>
  <text x="20" y="24" fill="#2b3137" font-family="-apple-system,BlinkMacSystemFont,'Segoe UI',Helvetica,Arial,sans-serif" font-size="14" font-weight="600">📈 Download Growth (Actual: 84.5k)</text>
  
  <!-- Area sotto la linea -->
  <polygon fill="url(#fillGrad)" points="30.0,120.0,120 30.0,120.0 31.6,119.4 33.1,118.8 34.7,118.3 36.3,118.1 37.9,117.8 39.4,117.2 41.0,116.7 42.6,116.4 44.2,115.8 45.7,115.4 47.3,115.1 48.9,114.9 50.5,114.6 52.0,114.1 53.6,113.6 55.2,113.2 56.8,113.0 58.3,112.8 59.9,112.5 61.5,112.1 63.1,111.8 64.6,111.7 66.2,111.4 67.8,110.3 69.4,110.0 70.9,109.5 72.5,109.1 74.1,108.8 75.7,108.4 77.2,108.2 78.8,108.0 80.4,107.7 82.0,107.2 83.5,106.7 85.1,106.4 86.7,106.0 88.3,105.9 89.8,105.8 91.4,105.7 93.0,105.3 94.5,105.1 96.1,105.0 97.7,104.6 99.3,104.0 100.8,103.9 102.4,103.7 104.0,103.5 105.6,103.1 107.1,102.8 108.7,102.3 110.3,101.9 111.9,101.5 113.4,101.4 115.0,101.2 116.6,100.7 118.2,100.3 119.7,100.0 121.3,99.8 122.9,99.6 124.5,99.4 126.0,98.9 127.6,98.5 129.2,98.1 130.8,97.7 132.3,97.5 133.9,97.4 135.5,97.2 137.1,96.9 138.6,96.6 140.2,96.5 141.8,96.3 143.4,96.2 144.9,95.9 146.5,95.8 148.1,95.7 149.7,95.5 151.2,95.1 152.8,94.9 154.4,94.8 155.9,94.6 157.5,94.5 159.1,94.5 160.7,101.8 162.2,101.1 163.8,100.5 165.4,99.8 167.0,97.8 168.5,96.4 170.1,94.9 171.7,94.4 173.3,93.8 174.8,92.7 176.4,91.6 178.0,90.8 179.6,90.5 181.1,90.2 182.7,89.4 184.3,88.8 185.9,88.5 187.4,88.0 189.0,87.8 190.6,87.7 192.2,87.3 193.7,86.6 195.3,86.1 196.9,85.6 198.5,85.1 200.0,84.8 201.6,84.6 203.2,84.2 204.8,83.8 206.3,83.3 207.9,83.0 209.5,82.9 211.0,82.8 212.6,82.5 214.2,82.2 215.8,81.9 217.3,81.6 218.9,81.4 220.5,81.2 222.1,81.0 223.6,80.8 225.2,80.7 226.8,80.5 228.4,80.1 229.9,79.8 231.5,79.5 233.1,79.3 234.7,79.1 236.2,78.9 237.8,78.8 239.4,78.6 241.0,78.1 242.5,77.7 244.1,77.3 245.7,77.1 247.3,77.1 248.8,76.9 250.4,76.6 252.0,76.4 253.6,76.1 255.1,75.8 256.7,75.6 258.3,75.5 259.9,75.3 261.4,75.2 263.0,75.0 264.6,74.8 266.2,74.6 267.7,74.3 269.3,74.2 270.9,74.0 272.4,73.9 274.0,73.8 275.6,73.5 277.2,73.3 278.7,73.1 280.3,72.8 281.9,72.6 283.5,72.4 285.0,72.3 286.6,72.2 288.2,71.8 289.8,71.5 291.3,71.3 292.9,71.1 294.5,70.7 296.1,70.6 297.6,70.5 299.2,70.4 300.8,70.2 302.4,70.0 303.9,69.8 305.5,69.6 307.1,69.4 308.7,69.3 310.2,69.1 311.8,69.0 313.4,68.9 315.0,68.7 316.5,68.4 318.1,68.3 319.7,68.0 321.3,67.9 322.8,67.8 324.4,67.6 326.0,67.5 327.6,67.3 329.1,67.2 330.7,66.8 332.3,66.5 333.8,66.3 335.4,66.1 337.0,66.0 338.6,66.0 340.1,65.8 341.7,65.5 343.3,65.3 344.9,65.2 346.4,65.0 348.0,64.8 349.6,64.6 351.2,64.5 352.7,64.4 354.3,64.1 355.9,63.9 357.5,63.7 359.0,63.5 360.6,63.4 362.2,63.3 363.8,63.2 365.3,63.1 366.9,62.9 368.5,62.7 370.1,62.5 371.6,62.3 373.2,62.2 374.8,62.1 376.4,61.9 377.9,61.8 379.5,61.6 381.1,61.3 382.7,61.1 384.2,61.0 385.8,60.8 387.4,60.7 389.0,60.6 390.5,60.5 392.1,60.4 393.7,60.2 395.2,60.0 396.8,59.8 398.4,59.7 400.0,59.6 401.5,59.4 403.1,59.2 404.7,59.1 406.3,58.9 407.8,58.8 409.4,58.6 411.0,58.5 412.6,58.3 414.1,58.1 415.7,58.0 417.3,57.9 418.9,57.8 420.4,57.7 422.0,57.5 423.6,57.4 425.2,57.3 426.7,57.2 428.3,56.9 429.9,56.6 431.5,61.4 433.0,60.5 434.6,58.7 436.2,58.0 437.8,57.1 439.3,56.1 440.9,55.6 442.5,55.2 444.1,54.5 445.6,53.5 447.2,52.7 448.8,52.4 450.3,52.1 451.9,51.7 453.5,51.2 455.1,50.7 456.6,50.1 458.2,49.9 459.8,49.3 461.4,49.1 462.9,48.7 464.5,48.5 466.1,48.2 467.7,47.9 469.2,47.4 470.8,47.1 472.4,46.6 474.0,45.9 475.5,45.5 477.1,45.3 478.7,45.2 480.3,44.9 481.8,44.5 483.4,44.1 485.0,43.8 486.6,42.8 488.1,42.0 489.7,41.7 491.3,41.5 492.9,41.2 494.4,40.7 496.0,40.3 497.6,39.7 499.2,39.3 500.7,39.0 502.3,38.6 503.9,38.2 505.5,37.9 507.0,37.8 508.6,37.6 510.2,37.4 511.7,37.1 513.3,36.9 514.9,36.6 516.5,36.4 518.0,36.2 519.6,35.9 521.2,35.8 522.8,35.5 524.3,35.3 525.9,35.1 527.5,35.0 529.1,34.8 530.6,34.7 532.2,34.5 533.8,34.4 535.4,34.2 536.9,34.0 538.5,33.8 540.1,33.6 541.7,33.4 543.2,33.2 544.8,33.0 546.4,32.9 548.0,32.7 549.5,32.6 551.1,32.4 552.7,32.3 554.3,32.2 555.8,32.0 557.4,31.8 559.0,31.6 560.6,31.3 562.1,31.1 563.7,30.9 565.3,30.7 566.9,30.5 568.4,30.3 570.0,30.0 570.0,30.0,120" />
  
  <!-- Linea principale -->
  <polyline fill="none" stroke="#0366d6" stroke-width="2.5" stroke-linecap="round" stroke-linejoin="round" points="30.0,120.0 31.6,119.4 33.1,118.8 34.7,118.3 36.3,118.1 37.9,117.8 39.4,117.2 41.0,116.7 42.6,116.4 44.2,115.8 45.7,115.4 47.3,115.1 48.9,114.9 50.5,114.6 52.0,114.1 53.6,113.6 55.2,113.2 56.8,113.0 58.3,112.8 59.9,112.5 61.5,112.1 63.1,111.8 64.6,111.7 66.2,111.4 67.8,110.3 69.4,110.0 70.9,109.5 72.5,109.1 74.1,108.8 75.7,108.4 77.2,108.2 78.8,108.0 80.4,107.7 82.0,107.2 83.5,106.7 85.1,106.4 86.7,106.0 88.3,105.9 89.8,105.8 91.4,105.7 93.0,105.3 94.5,105.1 96.1,105.0 97.7,104.6 99.3,104.0 100.8,103.9 102.4,103.7 104.0,103.5 105.6,103.1 107.1,102.8 108.7,102.3 110.3,101.9 111.9,101.5 113.4,101.4 115.0,101.2 116.6,100.7 118.2,100.3 119.7,100.0 121.3,99.8 122.9,99.6 124.5,99.4 126.0,98.9 127.6,98.5 129.2,98.1 130.8,97.7 132.3,97.5 133.9,97.4 135.5,97.2 137.1,96.9 138.6,96.6 140.2,96.5 141.8,96.3 143.4,96.2 144.9,95.9 146.5,95.8 148.1,95.7 149.7,95.5 151.2,95.1 152.8,94.9 154.4,94.8 155.9,94.6 157.5,94.5 159.1,94.5 160.7,101.8 162.2,101.1 163.8,100.5 165.4,99.8 167.0,97.8 168.5,96.4 170.1,94.9 171.7,94.4 173.3,93.8 174.8,92.7 176.4,91.6 178.0,90.8 179.6,90.5 181.1,90.2 182.7,89.4 184.3,88.8 185.9,88.5 187.4,88.0 189.0,87.8 190.6,87.7 192.2,87.3 193.7,86.6 195.3,86.1 196.9,85.6 198.5,85.1 200.0,84.8 201.6,84.6 203.2,84.2 204.8,83.8 206.3,83.3 207.9,83.0 209.5,82.9 211.0,82.8 212.6,82.5 214.2,82.2 215.8,81.9 217.3,81.6 218.9,81.4 220.5,81.2 222.1,81.0 223.6,80.8 225.2,80.7 226.8,80.5 228.4,80.1 229.9,79.8 231.5,79.5 233.1,79.3 234.7,79.1 236.2,78.9 237.8,78.8 239.4,78.6 241.0,78.1 242.5,77.7 244.1,77.3 245.7,77.1 247.3,77.1 248.8,76.9 250.4,76.6 252.0,76.4 253.6,76.1 255.1,75.8 256.7,75.6 258.3,75.5 259.9,75.3 261.4,75.2 263.0,75.0 264.6,74.8 266.2,74.6 267.7,74.3 269.3,74.2 270.9,74.0 272.4,73.9 274.0,73.8 275.6,73.5 277.2,73.3 278.7,73.1 280.3,72.8 281.9,72.6 283.5,72.4 285.0,72.3 286.6,72.2 288.2,71.8 289.8,71.5 291.3,71.3 292.9,71.1 294.5,70.7 296.1,70.6 297.6,70.5 299.2,70.4 300.8,70.2 302.4,70.0 303.9,69.8 305.5,69.6 307.1,69.4 308.7,69.3 310.2,69.1 311.8,69.0 313.4,68.9 315.0,68.7 316.5,68.4 318.1,68.3 319.7,68.0 321.3,67.9 322.8,67.8 324.4,67.6 326.0,67.5 327.6,67.3 329.1,67.2 330.7,66.8 332.3,66.5 333.8,66.3 335.4,66.1 337.0,66.0 338.6,66.0 340.1,65.8 341.7,65.5 343.3,65.3 344.9,65.2 346.4,65.0 348.0,64.8 349.6,64.6 351.2,64.5 352.7,64.4 354.3,64.1 355.9,63.9 357.5,63.7 359.0,63.5 360.6,63.4 362.2,63.3 363.8,63.2 365.3,63.1 366.9,62.9 368.5,62.7 370.1,62.5 371.6,62.3 373.2,62.2 374.8,62.1 376.4,61.9 377.9,61.8 379.5,61.6 381.1,61.3 382.7,61.1 384.2,61.0 385.8,60.8 387.4,60.7 389.0,60.6 390.5,60.5 392.1,60.4 393.7,60.2 395.2,60.0 396.8,59.8 398.4,59.7 400.0,59.6 401.5,59.4 403.1,59.2 404.7,59.1 406.3,58.9 407.8,58.8 409.4,58.6 411.0,58.5 412.6,58.3 414.1,58.1 415.7,58.0 417.3,57.9 418.9,57.8 420.4,57.7 422.0,57.5 423.6,57.4 425.2,57.3 426.7,57.2 428.3,56.9 429.9,56.6 431.5,61.4 433.0,60.5 434.6,58.7 436.2,58.0 437.8,57.1 439.3,56.1 440.9,55.6 442.5,55.2 444.1,54.5 445.6,53.5 447.2,52.7 448.8,52.4 450.3,52.1 451.9,51.7 453.5,51.2 455.1,50.7 456.6,50.1 458.2,49.9 459.8,49.3 461.4,49.1 462.9,48.7 464.5,48.5 466.1,48.2 467.7,47.9 469.2,47.4 470.8,47.1 472.4,46.6 474.0,45.9 475.5,45.5 477.1,45.3 478.7,45.2 480.3,44.9 481.8,44.5 483.4,44.1 485.0,43.8 486.6,42.8 488.1,42.0 489.7,41.7 491.3,41.5 492.9,41.2 494.4,40.7 496.0,40.3 497.6,39.7 499.2,39.3 500.7,39.0 502.3,38.6 503.9,38.2 505.5,37.9 507.0,37.8 508.6,37.6 510.2,37.4 511.7,37.1 513.3,36.9 514.9,36.6 516.5,36.4 518.0,36.2 519.6,35.9 521.2,35.8 522.8,35.5 524.3,35.3 525.9,35.1 527.5,35.0 529.1,34.8 530.6,34.7 532.2,34.5 533.8,34.4 535.4,34.2 536.9,34.0 538.5,33.8 540.1,33.6 541.7,33.4 543.2,33.2 544.8,33.0 546.4,32.9 548.0,32.7 549.5,32.6 551.1,32.4 552.7,32.3 554.3,32.2 555.8,32.0 557.4,31.8 559.0,31.6 560.6,31.3 562.1,31.1 563.7,30.9 565.3,30.7 566.9,30.5 568.4,30.3 570.0,30.0" />
  
  <!-- Punto finale luminoso -->
  <circle cx="570.0" cy="30.0" r="4" fill="#ffffff" stroke="#0366d6" stroke-width="2.5" />
</svg>