<svg width="600" height="150" viewBox="0 0 600 150" xmlns="http://www.w3.org/2000/svg">
  <defs>
    <filter id="shadow2" x="-2%" y="-2%" width="104%" height="108%">
      <feDropShadow dx="0" dy="2" stdDeviation="3" flood-opacity="0.1" />
    </filter>
    <linearGradient id="fillGrad" x1="0" y1="0" x2="0" y2="1">
      <stop offset="0%" stop-color="#0366d6" stop-opacity="0.3"/>
      <stop offset="100%" stop-color="#0366d6" stop-opacity="0.02"/>
    </linearGradient>
  </defs>
  <rect width="600" height="150" rx="12" fill="#ffffff" filter="url(#shadow2)" stroke="#e1e4e8" stroke-width="1"/>
  <text x="20" y="24" fill="#2b3137" font-family="-apple-system,BlinkMacSystemFont,'Segoe UI',Helvetica,Arial,sans-serif" font-size="14" font-weight="600">📈 Download Growth (Actual: 83.6k)</text>
  
  <!-- Area sotto la linea -->
  <polygon fill="url(#fillGrad)" points="30.0,120.0,120 30.0,120.0 31.7,119.4 33.4,118.7 35.1,118.2 36.8,118.0 38.5,117.7 40.2,117.0 41.9,116.5 43.6,116.2 45.3,115.5 47.0,115.2 48.7,114.8 50.4,114.6 52.1,114.3 53.8,113.8 55.6,113.3 57.3,112.9 59.0,112.6 60.7,112.4 62.4,112.1 64.1,111.7 65.8,111.4 67.5,111.2 69.2,110.9 70.9,109.7 72.6,109.4 74.3,109.0 76.0,108.5 77.7,108.1 79.4,107.7 81.1,107.5 82.8,107.3 84.5,107.0 86.2,106.4 87.9,106.0 89.6,105.6 91.3,105.2 93.0,105.1 94.7,105.0 96.4,104.9 98.1,104.5 99.8,104.3 101.5,104.1 103.2,103.7 105.0,103.1 106.7,102.9 108.4,102.8 110.1,102.6 111.8,102.1 113.5,101.8 115.2,101.3 116.9,100.9 118.6,100.5 120.3,100.4 122.0,100.1 123.7,99.7 125.4,99.2 127.1,98.8 128.8,98.7 130.5,98.5 132.2,98.3 133.9,97.7 135.6,97.3 137.3,96.8 139.0,96.4 140.7,96.2 142.4,96.1 144.1,95.9 145.8,95.6 147.5,95.3 149.2,95.1 150.9,95.0 152.6,94.8 154.4,94.6 156.1,94.4 157.8,94.3 159.5,94.2 161.2,93.7 162.9,93.4 164.6,93.4 166.3,93.2 168.0,93.1 169.7,93.1 171.4,100.8 173.1,100.0 174.8,99.4 176.5,98.6 178.2,96.5 179.9,95.1 181.6,93.5 183.3,92.9 185.0,92.3 186.7,91.2 188.4,90.0 190.1,89.2 191.8,88.8 193.5,88.5 195.2,87.7 196.9,87.1 198.6,86.7 200.3,86.2 202.1,86.0 203.8,85.9 205.5,85.4 207.2,84.7 208.9,84.2 210.6,83.7 212.3,83.1 214.0,82.8 215.7,82.6 217.4,82.1 219.1,81.7 220.8,81.3 222.5,80.9 224.2,80.8 225.9,80.7 227.6,80.4 229.3,80.0 231.0,79.7 232.7,79.5 234.4,79.2 236.1,79.0 237.8,78.8 239.5,78.6 241.2,78.4 242.9,78.2 244.6,77.8 246.3,77.5 248.0,77.2 249.7,77.0 251.5,76.8 253.2,76.6 254.9,76.4 256.6,76.3 258.3,75.7 260.0,75.3 261.7,74.9 263.4,74.7 265.1,74.6 266.8,74.4 268.5,74.2 270.2,73.9 271.9,73.6 273.6,73.3 275.3,73.1 277.0,72.9 278.7,72.8 280.4,72.6 282.1,72.5 283.8,72.2 285.5,72.0 287.2,71.7 288.9,71.6 290.6,71.4 292.3,71.3 294.0,71.2 295.7,70.9 297.4,70.7 299.1,70.4 300.9,70.2 302.6,69.9 304.3,69.7 306.0,69.6 307.7,69.5 309.4,69.1 311.1,68.8 312.8,68.6 314.5,68.3 316.2,67.9 317.9,67.8 319.6,67.7 321.3,67.6 323.0,67.3 324.7,67.2 326.4,66.9 328.1,66.8 329.8,66.6 331.5,66.4 333.2,66.2 334.9,66.1 336.6,66.0 338.3,65.8 340.0,65.5 341.7,65.3 343.4,65.1 345.1,65.0 346.8,64.8 348.5,64.6 350.3,64.5 352.0,64.4 353.7,64.2 355.4,63.8 357.1,63.5 358.8,63.2 360.5,63.1 362.2,63.0 363.9,62.9 365.6,62.7 367.3,62.4 369.0,62.2 370.7,62.1 372.4,61.9 374.1,61.7 375.8,61.5 377.5,61.4 379.2,61.2 380.9,61.0 382.6,60.8 384.3,60.5 386.0,60.3 387.7,60.2 389.4,60.1 391.1,60.0 392.8,59.8 394.5,59.7 396.2,59.5 397.9,59.3 399.7,59.1 401.4,58.9 403.1,58.8 404.8,58.6 406.5,58.5 408.2,58.2 409.9,58.0 411.6,57.8 413.3,57.6 415.0,57.5 416.7,57.4 418.4,57.3 420.1,57.1 421.8,57.0 423.5,56.9 425.2,56.6 426.9,56.4 428.6,56.2 430.3,56.1 432.0,56.0 433.7,55.8 435.4,55.6 437.1,55.5 438.8,55.3 440.5,55.2 442.2,55.0 443.9,54.8 445.6,54.6 447.4,54.5 449.1,54.4 450.8,54.3 452.5,54.2 454.2,54.0 455.9,53.8 457.6,53.8 459.3,53.6 461.0,53.3 462.7,53.0 464.4,58.1 466.1,57.1 467.8,55.2 469.5,54.5 471.2,53.6 472.9,52.5 474.6,51.9 476.3,51.5 478.0,50.8 479.7,49.7 481.4,48.9 483.1,48.6 484.8,48.2 486.5,47.9 488.2,47.3 489.9,46.8 491.6,46.2 493.3,45.9 495.0,45.3 496.8,45.0 498.5,44.7 500.2,44.4 501.9,44.1 503.6,43.9 505.3,43.3 507.0,42.9 508.7,42.4 510.4,41.7 512.1,41.3 513.8,41.1 515.5,40.9 517.2,40.6 518.9,40.2 520.6,39.8 522.3,39.5 524.0,38.4 525.7,37.6 527.4,37.3 529.1,37.1 530.8,36.7 532.5,36.2 534.2,35.7 535.9,35.1 537.6,34.7 539.3,34.4 541.0,34.0 542.7,33.5 544.4,33.3 546.2,33.1 547.9,32.9 549.6,32.7 551.3,32.4 553.0,32.2 554.7,31.9 556.4,31.7 558.1,31.5 559.8,31.2 561.5,31.0 563.2,30.8 564.9,30.5 566.6,30.3 568.3,30.2 570.0,30.0 570.0,30.0,120" />
  
  <!-- Linea principale -->
  <polyline fill="none" stroke="#0366d6" stroke-width="2.5" stroke-linecap="round" stroke-linejoin="round" points="30.0,120.0 31.7,119.4 33.4,118.7 35.1,118.2 36.8,118.0 38.5,117.7 40.2,117.0 41.9,116.5 43.6,116.2 45.3,115.5 47.0,115.2 48.7,114.8 50.4,114.6 52.1,114.3 53.8,113.8 55.6,113.3 57.3,112.9 59.0,112.6 60.7,112.4 62.4,112.1 64.1,111.7 65.8,111.4 67.5,111.2 69.2,110.9 70.9,109.7 72.6,109.4 74.3,109.0 76.0,108.5 77.7,108.1 79.4,107.7 81.1,107.5 82.8,107.3 84.5,107.0 86.2,106.4 87.9,106.0 89.6,105.6 91.3,105.2 93.0,105.1 94.7,105.0 96.4,104.9 98.1,104.5 99.8,104.3 101.5,104.1 103.2,103.7 105.0,103.1 106.7,102.9 108.4,102.8 110.1,102.6 111.8,102.1 113.5,101.8 115.2,101.3 116.9,100.9 118.6,100.5 120.3,100.4 122.0,100.1 123.7,99.7 125.4,99.2 127.1,98.8 128.8,98.7 130.5,98.5 132.2,98.3 133.9,97.7 135.6,97.3 137.3,96.8 139.0,96.4 140.7,96.2 142.4,96.1 144.1,95.9 145.8,95.6 147.5,95.3 149.2,95.1 150.9,95.0 152.6,94.8 154.4,94.6 156.1,94.4 157.8,94.3 159.5,94.2 161.2,93.7 162.9,93.4 164.6,93.4 166.3,93.2 168.0,93.1 169.7,93.1 171.4,100.8 173.1,100.0 174.8,99.4 176.5,98.6 178.2,96.5 179.9,95.1 181.6,93.5 183.3,92.9 185.0,92.3 186.7,91.2 188.4,90.0 190.1,89.2 191.8,88.8 193.5,88.5 195.2,87.7 196.9,87.1 198.6,86.7 200.3,86.2 202.1,86.0 203.8,85.9 205.5,85.4 207.2,84.7 208.9,84.2 210.6,83.7 212.3,83.1 214.0,82.8 215.7,82.6 217.4,82.1 219.1,81.7 220.8,81.3 222.5,80.9 224.2,80.8 225.9,80.7 227.6,80.4 229.3,80.0 231.0,79.7 232.7,79.5 234.4,79.2 236.1,79.0 237.8,78.8 239.5,78.6 241.2,78.4 242.9,78.2 244.6,77.8 246.3,77.5 248.0,77.2 249.7,77.0 251.5,76.8 253.2,76.6 254.9,76.4 256.6,76.3 258.3,75.7 260.0,75.3 261.7,74.9 263.4,74.7 265.1,74.6 266.8,74.4 268.5,74.2 270.2,73.9 271.9,73.6 273.6,73.3 275.3,73.1 277.0,72.9 278.7,72.8 280.4,72.6 282.1,72.5 283.8,72.2 285.5,72.0 287.2,71.7 288.9,71.6 290.6,71.4 292.3,71.3 294.0,71.2 295.7,70.9 297.4,70.7 299.1,70.4 300.9,70.2 302.6,69.9 304.3,69.7 306.0,69.6 307.7,69.5 309.4,69.1 311.1,68.8 312.8,68.6 314.5,68.3 316.2,67.9 317.9,67.8 319.6,67.7 321.3,67.6 323.0,67.3 324.7,67.2 326.4,66.9 328.1,66.8 329.8,66.6 331.5,66.4 333.2,66.2 334.9,66.1 336.6,66.0 338.3,65.8 340.0,65.5 341.7,65.3 343.4,65.1 345.1,65.0 346.8,64.8 348.5,64.6 350.3,64.5 352.0,64.4 353.7,64.2 355.4,63.8 357.1,63.5 358.8,63.2 360.5,63.1 362.2,63.0 363.9,62.9 365.6,62.7 367.3,62.4 369.0,62.2 370.7,62.1 372.4,61.9 374.1,61.7 375.8,61.5 377.5,61.4 379.2,61.2 380.9,61.0 382.6,60.8 384.3,60.5 386.0,60.3 387.7,60.2 389.4,60.1 391.1,60.0 392.8,59.8 394.5,59.7 396.2,59.5 397.9,59.3 399.7,59.1 401.4,58.9 403.1,58.8 404.8,58.6 406.5,58.5 408.2,58.2 409.9,58.0 411.6,57.8 413.3,57.6 415.0,57.5 416.7,57.4 418.4,57.3 420.1,57.1 421.8,57.0 423.5,56.9 425.2,56.6 426.9,56.4 428.6,56.2 430.3,56.1 432.0,56.0 433.7,55.8 435.4,55.6 437.1,55.5 438.8,55.3 440.5,55.2 442.2,55.0 443.9,54.8 445.6,54.6 447.4,54.5 449.1,54.4 450.8,54.3 452.5,54.2 454.2,54.0 455.9,53.8 457.6,53.8 459.3,53.6 461.0,53.3 462.7,53.0 464.4,58.1 466.1,57.1 467.8,55.2 469.5,54.5 471.2,53.6 472.9,52.5 474.6,51.9 476.3,51.5 478.0,50.8 479.7,49.7 481.4,48.9 483.1,48.6 484.8,48.2 486.5,47.9 488.2,47.3 489.9,46.8 491.6,46.2 493.3,45.9 495.0,45.3 496.8,45.0 498.5,44.7 500.2,44.4 501.9,44.1 503.6,43.9 505.3,43.3 507.0,42.9 508.7,42.4 510.4,41.7 512.1,41.3 513.8,41.1 515.5,40.9 517.2,40.6 518.9,40.2 520.6,39.8 522.3,39.5 524.0,38.4 525.7,37.6 527.4,37.3 529.1,37.1 530.8,36.7 532.5,36.2 534.2,35.7 535.9,35.1 537.6,34.7 539.3,34.4 541.0,34.0 542.7,33.5 544.4,33.3 546.2,33.1 547.9,32.9 549.6,32.7 551.3,32.4 553.0,32.2 554.7,31.9 556.4,31.7 558.1,31.5 559.8,31.2 561.5,31.0 563.2,30.8 564.9,30.5 566.6,30.3 568.3,30.2 570.0,30.0" />
  
  <!-- Punto finale luminoso -->
  <circle cx="570.0" cy="30.0" r="4" fill="#ffffff" stroke="#0366d6" stroke-width="2.5" />
</svg>