<svg width="600" height="150" viewBox="0 0 600 150" xmlns="http://www.w3.org/2000/svg">
  <defs>
    <filter id="shadow2" x="-2%" y="-2%" width="104%" height="108%">
      <feDropShadow dx="0" dy="2" stdDeviation="3" flood-opacity="0.1" />
    </filter>
    <linearGradient id="fillGrad" x1="0" y1="0" x2="0" y2="1">
      <stop offset="0%" stop-color="#0366d6" stop-opacity="0.3"/>
      <stop offset="100%" stop-color="#0366d6" stop-opacity="0.02"/>
    </linearGradient>
  </defs>
  <rect width="600" height="150" rx="12" fill="#ffffff" filter="url(#shadow2)" stroke="#e1e4e8" stroke-width="1"/>
  <text x="20" y="24" fill="#2b3137" font-family="-apple-system,BlinkMacSystemFont,'Segoe UI',Helvetica,Arial,sans-serif" font-size="14" font-weight="600">📈 Download Growth (Actual: 87.4k)</text>
  
  <!-- Area sotto la linea -->
  <polygon fill="url(#fillGrad)" points="30.0,120.0,120 30.0,120.0 31.3,119.5 32.5,119.0 33.8,118.5 35.1,118.4 36.4,118.1 37.6,117.6 38.9,117.2 40.2,116.9 41.4,116.4 42.7,116.1 44.0,115.8 45.2,115.6 46.5,115.3 47.8,114.9 49.1,114.5 50.3,114.2 51.6,114.0 52.9,113.8 54.1,113.6 55.4,113.2 56.7,113.0 58.0,112.8 59.2,112.6 60.5,111.7 61.8,111.4 63.0,111.0 64.3,110.7 65.6,110.3 66.8,110.0 68.1,109.8 69.4,109.7 70.7,109.4 71.9,109.0 73.2,108.6 74.5,108.3 75.7,108.0 77.0,107.9 78.3,107.8 79.6,107.7 80.8,107.4 82.1,107.2 83.4,107.1 84.6,106.7 85.9,106.2 87.2,106.1 88.4,106.0 89.7,105.8 91.0,105.4 92.3,105.2 93.5,104.8 94.8,104.5 96.1,104.1 97.3,104.0 98.6,103.8 99.9,103.5 101.2,103.1 102.4,102.8 103.7,102.7 105.0,102.5 106.2,102.3 107.5,101.9 108.8,101.5 110.0,101.2 111.3,100.8 112.6,100.7 113.9,100.5 115.1,100.4 116.4,100.1 117.7,99.9 118.9,99.8 120.2,99.6 121.5,99.5 122.8,99.3 124.0,99.2 125.3,99.1 126.6,99.0 127.8,98.6 129.1,98.4 130.4,98.3 131.6,98.2 132.9,98.1 134.2,98.1 135.5,104.4 136.7,103.8 138.0,103.2 139.3,102.6 140.5,100.9 141.8,99.7 143.1,98.5 144.4,98.0 145.6,97.4 146.9,96.6 148.2,95.6 149.4,94.9 150.7,94.7 152.0,94.4 153.2,93.7 154.5,93.2 155.8,92.9 157.1,92.5 158.3,92.3 159.6,92.3 160.9,91.9 162.1,91.3 163.4,90.9 164.7,90.5 166.0,90.0 167.2,89.8 168.5,89.6 169.8,89.2 171.0,88.9 172.3,88.5 173.6,88.2 174.8,88.1 176.1,88.0 177.4,87.8 178.7,87.5 179.9,87.3 181.2,87.0 182.5,86.9 183.7,86.7 185.0,86.5 186.3,86.3 187.6,86.2 188.8,86.0 190.1,85.7 191.4,85.5 192.6,85.2 193.9,85.0 195.2,84.8 196.4,84.7 197.7,84.6 199.0,84.4 200.3,84.0 201.5,83.7 202.8,83.3 204.1,83.1 205.3,83.1 206.6,82.9 207.9,82.7 209.2,82.5 210.4,82.3 211.7,82.0 213.0,81.8 214.2,81.7 215.5,81.6 216.8,81.5 218.0,81.3 219.3,81.2 220.6,81.0 221.9,80.7 223.1,80.6 224.4,80.5 225.7,80.4 226.9,80.3 228.2,80.1 229.5,79.9 230.8,79.7 232.0,79.5 233.3,79.3 234.6,79.1 235.8,79.0 237.1,78.9 238.4,78.6 239.6,78.4 240.9,78.2 242.2,78.0 243.5,77.6 244.7,77.6 246.0,77.4 247.3,77.4 248.5,77.2 249.8,77.0 251.1,76.8 252.4,76.7 253.6,76.5 254.9,76.4 256.2,76.3 257.4,76.1 258.7,76.1 260.0,75.9 261.2,75.6 262.5,75.5 263.8,75.3 265.1,75.2 266.3,75.1 267.6,75.0 268.9,74.9 270.1,74.7 271.4,74.6 272.7,74.3 274.0,74.0 275.2,73.8 276.5,73.7 277.8,73.6 279.0,73.6 280.3,73.4 281.6,73.1 282.8,73.0 284.1,72.9 285.4,72.7 286.7,72.6 287.9,72.4 289.2,72.3 290.5,72.2 291.7,72.0 293.0,71.8 294.3,71.6 295.6,71.4 296.8,71.3 298.1,71.3 299.4,71.2 300.6,71.1 301.9,70.9 303.2,70.8 304.4,70.6 305.7,70.4 307.0,70.3 308.3,70.2 309.5,70.1 310.8,70.0 312.1,69.8 313.3,69.6 314.6,69.4 315.9,69.3 317.2,69.2 318.4,69.1 319.7,69.0 321.0,68.9 322.2,68.8 323.5,68.7 324.8,68.4 326.0,68.3 327.3,68.2 328.6,68.1 329.9,67.9 331.1,67.8 332.4,67.6 333.7,67.5 334.9,67.4 336.2,67.3 337.5,67.1 338.8,67.0 340.0,66.8 341.3,66.8 342.6,66.7 343.8,66.6 345.1,66.5 346.4,66.3 347.6,66.2 348.9,66.2 350.2,66.0 351.5,65.7 352.7,65.5 354.0,69.6 355.3,68.8 356.5,67.3 357.8,66.7 359.1,66.0 360.4,65.1 361.6,64.6 362.9,64.3 364.2,63.7 365.4,62.8 366.7,62.2 368.0,62.0 369.2,61.6 370.5,61.3 371.8,60.9 373.1,60.5 374.3,60.0 375.6,59.7 376.9,59.3 378.1,59.0 379.4,58.7 380.7,58.5 382.0,58.3 383.2,58.1 384.5,57.6 385.8,57.3 387.0,56.9 388.3,56.4 389.6,56.0 390.8,55.8 392.1,55.7 393.4,55.5 394.7,55.1 395.9,54.8 397.2,54.5 398.5,53.7 399.7,53.0 401.0,52.7 402.3,52.6 403.6,52.3 404.8,51.8 406.1,51.5 407.4,51.0 408.6,50.7 409.9,50.4 411.2,50.1 412.4,49.7 413.7,49.5 415.0,49.3 416.3,49.2 417.5,49.0 418.8,48.7 420.1,48.6 421.3,48.4 422.6,48.2 423.9,48.0 425.2,47.8 426.4,47.6 427.7,47.4 429.0,47.2 430.2,47.1 431.5,46.9 432.8,46.8 434.0,46.7 435.3,46.5 436.6,46.4 437.9,46.2 439.1,46.1 440.4,45.9 441.7,45.7 442.9,45.6 444.2,45.4 445.5,45.2 446.8,45.1 448.0,45.0 449.3,44.9 450.6,44.7 451.8,44.6 453.1,44.5 454.4,44.4 455.6,44.2 456.9,44.0 458.2,43.8 459.5,43.6 460.7,43.5 462.0,43.3 463.3,43.1 464.5,42.9 465.8,42.7 467.1,42.5 468.4,42.3 469.6,42.0 470.9,41.8 472.2,41.6 473.4,41.4 474.7,41.2 476.0,41.1 477.2,40.9 478.5,40.8 479.8,40.7 481.1,40.5 482.3,40.4 483.6,40.2 484.9,40.0 486.1,39.8 487.4,39.6 488.7,39.4 490.0,39.2 491.2,38.9 492.5,38.8 493.8,38.6 495.0,38.5 496.3,38.4 497.6,38.3 498.8,38.1 500.1,37.9 501.4,37.8 502.7,37.5 503.9,37.4 505.2,37.2 506.5,37.1 507.7,36.9 509.0,36.9 510.3,36.8 511.6,36.7 512.8,36.5 514.1,36.4 515.4,36.2 516.6,36.1 517.9,35.9 519.2,35.7 520.4,35.6 521.7,35.5 523.0,35.4 524.3,35.2 525.5,35.1 526.8,35.0 528.1,34.8 529.3,34.7 530.6,34.4 531.9,34.3 533.2,34.0 534.4,33.9 535.7,33.8 537.0,33.7 538.2,33.6 539.5,33.5 540.8,33.5 542.0,33.3 543.3,33.2 544.6,33.1 545.9,33.0 547.1,32.8 548.4,32.6 549.7,32.5 550.9,32.4 552.2,32.3 553.5,32.1 554.8,32.0 556.0,31.8 557.3,31.7 558.6,31.6 559.8,31.5 561.1,31.3 562.4,31.1 563.6,30.9 564.9,30.6 566.2,30.5 567.5,30.3 568.7,30.2 570.0,30.0 570.0,30.0,120" />
  
  <!-- Linea principale -->
  <polyline fill="none" stroke="#0366d6" stroke-width="2.5" stroke-linecap="round" stroke-linejoin="round" points="30.0,120.0 31.3,119.5 32.5,119.0 33.8,118.5 35.1,118.4 36.4,118.1 37.6,117.6 38.9,117.2 40.2,116.9 41.4,116.4 42.7,116.1 44.0,115.8 45.2,115.6 46.5,115.3 47.8,114.9 49.1,114.5 50.3,114.2 51.6,114.0 52.9,113.8 54.1,113.6 55.4,113.2 56.7,113.0 58.0,112.8 59.2,112.6 60.5,111.7 61.8,111.4 63.0,111.0 64.3,110.7 65.6,110.3 66.8,110.0 68.1,109.8 69.4,109.7 70.7,109.4 71.9,109.0 73.2,108.6 74.5,108.3 75.7,108.0 77.0,107.9 78.3,107.8 79.6,107.7 80.8,107.4 82.1,107.2 83.4,107.1 84.6,106.7 85.9,106.2 87.2,106.1 88.4,106.0 89.7,105.8 91.0,105.4 92.3,105.2 93.5,104.8 94.8,104.5 96.1,104.1 97.3,104.0 98.6,103.8 99.9,103.5 101.2,103.1 102.4,102.8 103.7,102.7 105.0,102.5 106.2,102.3 107.5,101.9 108.8,101.5 110.0,101.2 111.3,100.8 112.6,100.7 113.9,100.5 115.1,100.4 116.4,100.1 117.7,99.9 118.9,99.8 120.2,99.6 121.5,99.5 122.8,99.3 124.0,99.2 125.3,99.1 126.6,99.0 127.8,98.6 129.1,98.4 130.4,98.3 131.6,98.2 132.9,98.1 134.2,98.1 135.5,104.4 136.7,103.8 138.0,103.2 139.3,102.6 140.5,100.9 141.8,99.7 143.1,98.5 144.4,98.0 145.6,97.4 146.9,96.6 148.2,95.6 149.4,94.9 150.7,94.7 152.0,94.4 153.2,93.7 154.5,93.2 155.8,92.9 157.1,92.5 158.3,92.3 159.6,92.3 160.9,91.9 162.1,91.3 163.4,90.9 164.7,90.5 166.0,90.0 167.2,89.8 168.5,89.6 169.8,89.2 171.0,88.9 172.3,88.5 173.6,88.2 174.8,88.1 176.1,88.0 177.4,87.8 178.7,87.5 179.9,87.3 181.2,87.0 182.5,86.9 183.7,86.7 185.0,86.5 186.3,86.3 187.6,86.2 188.8,86.0 190.1,85.7 191.4,85.5 192.6,85.2 193.9,85.0 195.2,84.8 196.4,84.7 197.7,84.6 199.0,84.4 200.3,84.0 201.5,83.7 202.8,83.3 204.1,83.1 205.3,83.1 206.6,82.9 207.9,82.7 209.2,82.5 210.4,82.3 211.7,82.0 213.0,81.8 214.2,81.7 215.5,81.6 216.8,81.5 218.0,81.3 219.3,81.2 220.6,81.0 221.9,80.7 223.1,80.6 224.4,80.5 225.7,80.4 226.9,80.3 228.2,80.1 229.5,79.9 230.8,79.7 232.0,79.5 233.3,79.3 234.6,79.1 235.8,79.0 237.1,78.9 238.4,78.6 239.6,78.4 240.9,78.2 242.2,78.0 243.5,77.6 244.7,77.6 246.0,77.4 247.3,77.4 248.5,77.2 249.8,77.0 251.1,76.8 252.4,76.7 253.6,76.5 254.9,76.4 256.2,76.3 257.4,76.1 258.7,76.1 260.0,75.9 261.2,75.6 262.5,75.5 263.8,75.3 265.1,75.2 266.3,75.1 267.6,75.0 268.9,74.9 270.1,74.7 271.4,74.6 272.7,74.3 274.0,74.0 275.2,73.8 276.5,73.7 277.8,73.6 279.0,73.6 280.3,73.4 281.6,73.1 282.8,73.0 284.1,72.9 285.4,72.7 286.7,72.6 287.9,72.4 289.2,72.3 290.5,72.2 291.7,72.0 293.0,71.8 294.3,71.6 295.6,71.4 296.8,71.3 298.1,71.3 299.4,71.2 300.6,71.1 301.9,70.9 303.2,70.8 304.4,70.6 305.7,70.4 307.0,70.3 308.3,70.2 309.5,70.1 310.8,70.0 312.1,69.8 313.3,69.6 314.6,69.4 315.9,69.3 317.2,69.2 318.4,69.1 319.7,69.0 321.0,68.9 322.2,68.8 323.5,68.7 324.8,68.4 326.0,68.3 327.3,68.2 328.6,68.1 329.9,67.9 331.1,67.8 332.4,67.6 333.7,67.5 334.9,67.4 336.2,67.3 337.5,67.1 338.8,67.0 340.0,66.8 341.3,66.8 342.6,66.7 343.8,66.6 345.1,66.5 346.4,66.3 347.6,66.2 348.9,66.2 350.2,66.0 351.5,65.7 352.7,65.5 354.0,69.6 355.3,68.8 356.5,67.3 357.8,66.7 359.1,66.0 360.4,65.1 361.6,64.6 362.9,64.3 364.2,63.7 365.4,62.8 366.7,62.2 368.0,62.0 369.2,61.6 370.5,61.3 371.8,60.9 373.1,60.5 374.3,60.0 375.6,59.7 376.9,59.3 378.1,59.0 379.4,58.7 380.7,58.5 382.0,58.3 383.2,58.1 384.5,57.6 385.8,57.3 387.0,56.9 388.3,56.4 389.6,56.0 390.8,55.8 392.1,55.7 393.4,55.5 394.7,55.1 395.9,54.8 397.2,54.5 398.5,53.7 399.7,53.0 401.0,52.7 402.3,52.6 403.6,52.3 404.8,51.8 406.1,51.5 407.4,51.0 408.6,50.7 409.9,50.4 411.2,50.1 412.4,49.7 413.7,49.5 415.0,49.3 416.3,49.2 417.5,49.0 418.8,48.7 420.1,48.6 421.3,48.4 422.6,48.2 423.9,48.0 425.2,47.8 426.4,47.6 427.7,47.4 429.0,47.2 430.2,47.1 431.5,46.9 432.8,46.8 434.0,46.7 435.3,46.5 436.6,46.4 437.9,46.2 439.1,46.1 440.4,45.9 441.7,45.7 442.9,45.6 444.2,45.4 445.5,45.2 446.8,45.1 448.0,45.0 449.3,44.9 450.6,44.7 451.8,44.6 453.1,44.5 454.4,44.4 455.6,44.2 456.9,44.0 458.2,43.8 459.5,43.6 460.7,43.5 462.0,43.3 463.3,43.1 464.5,42.9 465.8,42.7 467.1,42.5 468.4,42.3 469.6,42.0 470.9,41.8 472.2,41.6 473.4,41.4 474.7,41.2 476.0,41.1 477.2,40.9 478.5,40.8 479.8,40.7 481.1,40.5 482.3,40.4 483.6,40.2 484.9,40.0 486.1,39.8 487.4,39.6 488.7,39.4 490.0,39.2 491.2,38.9 492.5,38.8 493.8,38.6 495.0,38.5 496.3,38.4 497.6,38.3 498.8,38.1 500.1,37.9 501.4,37.8 502.7,37.5 503.9,37.4 505.2,37.2 506.5,37.1 507.7,36.9 509.0,36.9 510.3,36.8 511.6,36.7 512.8,36.5 514.1,36.4 515.4,36.2 516.6,36.1 517.9,35.9 519.2,35.7 520.4,35.6 521.7,35.5 523.0,35.4 524.3,35.2 525.5,35.1 526.8,35.0 528.1,34.8 529.3,34.7 530.6,34.4 531.9,34.3 533.2,34.0 534.4,33.9 535.7,33.8 537.0,33.7 538.2,33.6 539.5,33.5 540.8,33.5 542.0,33.3 543.3,33.2 544.6,33.1 545.9,33.0 547.1,32.8 548.4,32.6 549.7,32.5 550.9,32.4 552.2,32.3 553.5,32.1 554.8,32.0 556.0,31.8 557.3,31.7 558.6,31.6 559.8,31.5 561.1,31.3 562.4,31.1 563.6,30.9 564.9,30.6 566.2,30.5 567.5,30.3 568.7,30.2 570.0,30.0" />
  
  <!-- Punto finale luminoso -->
  <circle cx="570.0" cy="30.0" r="4" fill="#ffffff" stroke="#0366d6" stroke-width="2.5" />
</svg>