<svg width="600" height="150" viewBox="0 0 600 150" xmlns="http://www.w3.org/2000/svg">
  <defs>
    <filter id="shadow2" x="-2%" y="-2%" width="104%" height="108%">
      <feDropShadow dx="0" dy="2" stdDeviation="3" flood-opacity="0.1" />
    </filter>
    <linearGradient id="fillGrad" x1="0" y1="0" x2="0" y2="1">
      <stop offset="0%" stop-color="#0366d6" stop-opacity="0.3"/>
      <stop offset="100%" stop-color="#0366d6" stop-opacity="0.02"/>
    </linearGradient>
  </defs>
  <rect width="600" height="150" rx="12" fill="#ffffff" filter="url(#shadow2)" stroke="#e1e4e8" stroke-width="1"/>
  <text x="20" y="24" fill="#2b3137" font-family="-apple-system,BlinkMacSystemFont,'Segoe UI',Helvetica,Arial,sans-serif" font-size="14" font-weight="600">📈 Download Growth (Actual: 87.7k)</text>
  
  <!-- Area sotto la linea -->
  <polygon fill="url(#fillGrad)" points="30.0,120.0,120 30.0,120.0 31.2,119.5 32.5,119.0 33.7,118.5 35.0,118.4 36.2,118.2 37.5,117.6 38.7,117.2 40.0,117.0 41.2,116.4 42.4,116.1 43.7,115.8 44.9,115.7 46.2,115.4 47.4,115.0 48.7,114.6 49.9,114.3 51.2,114.1 52.4,113.9 53.6,113.6 54.9,113.3 56.1,113.1 57.4,112.9 58.6,112.7 59.9,111.8 61.1,111.5 62.4,111.1 63.6,110.8 64.8,110.5 66.1,110.2 67.3,110.0 68.6,109.8 69.8,109.6 71.1,109.1 72.3,108.7 73.5,108.5 74.8,108.2 76.0,108.1 77.3,108.0 78.5,107.9 79.8,107.6 81.0,107.4 82.3,107.3 83.5,106.9 84.7,106.4 86.0,106.3 87.2,106.2 88.5,106.0 89.7,105.6 91.0,105.4 92.2,105.0 93.5,104.7 94.7,104.3 95.9,104.3 97.2,104.0 98.4,103.7 99.7,103.3 100.9,103.0 102.2,102.9 103.4,102.7 104.7,102.6 105.9,102.2 107.1,101.8 108.4,101.4 109.6,101.1 110.9,100.9 112.1,100.8 113.4,100.7 114.6,100.4 115.9,100.2 117.1,100.1 118.3,99.9 119.6,99.8 120.8,99.6 122.1,99.5 123.3,99.4 124.6,99.3 125.8,98.9 127.1,98.7 128.3,98.6 129.5,98.5 130.8,98.4 132.0,98.4 133.3,104.6 134.5,104.0 135.8,103.4 137.0,102.9 138.2,101.2 139.5,100.0 140.7,98.8 142.0,98.3 143.2,97.8 144.5,96.9 145.7,96.0 147.0,95.3 148.2,95.0 149.4,94.8 150.7,94.1 151.9,93.6 153.2,93.3 154.4,92.9 155.7,92.7 156.9,92.6 158.2,92.3 159.4,91.7 160.6,91.3 161.9,90.9 163.1,90.4 164.4,90.2 165.6,90.0 166.9,89.6 168.1,89.3 169.4,88.9 170.6,88.7 171.8,88.5 173.1,88.5 174.3,88.2 175.6,87.9 176.8,87.7 178.1,87.5 179.3,87.3 180.6,87.1 181.8,87.0 183.0,86.8 184.3,86.7 185.5,86.5 186.8,86.2 188.0,86.0 189.3,85.7 190.5,85.5 191.8,85.3 193.0,85.2 194.2,85.1 195.5,84.9 196.7,84.5 198.0,84.2 199.2,83.8 200.5,83.7 201.7,83.6 202.9,83.4 204.2,83.3 205.4,83.0 206.7,82.8 207.9,82.5 209.2,82.3 210.4,82.3 211.7,82.1 212.9,82.0 214.1,81.9 215.4,81.7 216.6,81.5 217.9,81.3 219.1,81.1 220.4,81.1 221.6,80.9 222.9,80.9 224.1,80.6 225.3,80.4 226.6,80.2 227.8,80.0 229.1,79.8 230.3,79.7 231.6,79.6 232.8,79.5 234.1,79.2 235.3,78.9 236.5,78.8 237.8,78.6 239.0,78.2 240.3,78.1 241.5,78.0 242.8,77.9 244.0,77.8 245.3,77.6 246.5,77.4 247.7,77.3 249.0,77.1 250.2,77.0 251.5,76.9 252.7,76.8 254.0,76.7 255.2,76.5 256.5,76.3 257.7,76.2 258.9,76.0 260.2,75.9 261.4,75.7 262.7,75.6 263.9,75.5 265.2,75.4 266.4,75.2 267.6,75.0 268.9,74.7 270.1,74.5 271.4,74.3 272.6,74.3 273.9,74.2 275.1,74.0 276.4,73.8 277.6,73.7 278.8,73.6 280.1,73.4 281.3,73.3 282.6,73.1 283.8,73.0 285.1,72.9 286.3,72.7 287.6,72.5 288.8,72.3 290.0,72.1 291.3,72.0 292.5,72.0 293.8,71.9 295.0,71.7 296.3,71.6 297.5,71.5 298.8,71.3 300.0,71.1 301.2,71.0 302.5,70.9 303.7,70.8 305.0,70.7 306.2,70.5 307.5,70.3 308.7,70.1 310.0,70.0 311.2,69.9 312.4,69.8 313.7,69.7 314.9,69.6 316.2,69.5 317.4,69.4 318.7,69.1 319.9,69.0 321.2,68.9 322.4,68.8 323.6,68.7 324.9,68.5 326.1,68.4 327.4,68.3 328.6,68.1 329.9,68.0 331.1,67.8 332.4,67.7 333.6,67.6 334.8,67.5 336.1,67.4 337.3,67.3 338.6,67.2 339.8,67.1 341.1,67.0 342.3,66.9 343.5,66.8 344.8,66.5 346.0,66.3 347.3,70.3 348.5,69.5 349.8,68.0 351.0,67.4 352.3,66.7 353.5,65.9 354.7,65.4 356.0,65.1 357.2,64.5 358.5,63.6 359.7,63.0 361.0,62.8 362.2,62.4 363.5,62.2 364.7,61.7 365.9,61.3 367.2,60.8 368.4,60.6 369.7,60.1 370.9,59.9 372.2,59.6 373.4,59.4 374.7,59.2 375.9,58.9 377.1,58.5 378.4,58.2 379.6,57.8 380.9,57.2 382.1,56.9 383.4,56.7 384.6,56.6 385.9,56.4 387.1,56.0 388.3,55.7 389.6,55.4 390.8,54.6 392.1,53.9 393.3,53.6 394.6,53.5 395.8,53.2 397.1,52.8 398.3,52.4 399.5,51.9 400.8,51.6 402.0,51.3 403.3,51.0 404.5,50.7 405.8,50.5 407.0,50.3 408.2,50.1 409.5,50.0 410.7,49.7 412.0,49.6 413.2,49.4 414.5,49.2 415.7,49.0 417.0,48.8 418.2,48.6 419.4,48.4 420.7,48.3 421.9,48.1 423.2,48.0 424.4,47.8 425.7,47.7 426.9,47.5 428.2,47.5 429.4,47.3 430.6,47.1 431.9,47.0 433.1,46.8 434.4,46.6 435.6,46.5 436.9,46.3 438.1,46.2 439.4,46.1 440.6,45.9 441.8,45.8 443.1,45.6 444.3,45.6 445.6,45.4 446.8,45.2 448.1,45.1 449.3,44.9 450.6,44.7 451.8,44.5 453.0,44.3 454.3,44.1 455.5,44.0 456.8,43.7 458.0,43.6 459.3,43.4 460.5,43.1 461.8,42.9 463.0,42.7 464.2,42.5 465.5,42.2 466.7,42.1 468.0,42.0 469.2,41.9 470.5,41.8 471.7,41.6 472.9,41.5 474.2,41.3 475.4,41.1 476.7,41.0 477.9,40.7 479.2,40.5 480.4,40.3 481.7,40.0 482.9,39.9 484.1,39.7 485.4,39.6 486.6,39.5 487.9,39.4 489.1,39.2 490.4,39.0 491.6,38.9 492.9,38.6 494.1,38.5 495.3,38.4 496.6,38.2 497.8,38.1 499.1,38.0 500.3,37.9 501.6,37.8 502.8,37.6 504.1,37.6 505.3,37.4 506.5,37.2 507.8,37.1 509.0,36.9 510.3,36.8 511.5,36.6 512.8,36.6 514.0,36.4 515.3,36.3 516.5,36.2 517.7,36.0 519.0,35.9 520.2,35.6 521.5,35.5 522.7,35.2 524.0,35.1 525.2,35.0 526.5,34.9 527.7,34.8 528.9,34.7 530.2,34.7 531.4,34.5 532.7,34.4 533.9,34.3 535.2,34.2 536.4,34.0 537.6,33.8 538.9,33.7 540.1,33.6 541.4,33.5 542.6,33.3 543.9,33.2 545.1,33.0 546.4,33.0 547.6,32.8 548.8,32.7 550.1,32.6 551.3,32.3 552.6,32.1 553.8,31.8 555.1,31.7 556.3,31.5 557.6,31.4 558.8,31.2 560.0,31.1 561.3,31.0 562.5,30.9 563.8,30.8 565.0,30.7 566.3,30.5 567.5,30.3 568.8,30.2 570.0,30.0 570.0,30.0,120" />
  
  <!-- Linea principale -->
  <polyline fill="none" stroke="#0366d6" stroke-width="2.5" stroke-linecap="round" stroke-linejoin="round" points="30.0,120.0 31.2,119.5 32.5,119.0 33.7,118.5 35.0,118.4 36.2,118.2 37.5,117.6 38.7,117.2 40.0,117.0 41.2,116.4 42.4,116.1 43.7,115.8 44.9,115.7 46.2,115.4 47.4,115.0 48.7,114.6 49.9,114.3 51.2,114.1 52.4,113.9 53.6,113.6 54.9,113.3 56.1,113.1 57.4,112.9 58.6,112.7 59.9,111.8 61.1,111.5 62.4,111.1 63.6,110.8 64.8,110.5 66.1,110.2 67.3,110.0 68.6,109.8 69.8,109.6 71.1,109.1 72.3,108.7 73.5,108.5 74.8,108.2 76.0,108.1 77.3,108.0 78.5,107.9 79.8,107.6 81.0,107.4 82.3,107.3 83.5,106.9 84.7,106.4 86.0,106.3 87.2,106.2 88.5,106.0 89.7,105.6 91.0,105.4 92.2,105.0 93.5,104.7 94.7,104.3 95.9,104.3 97.2,104.0 98.4,103.7 99.7,103.3 100.9,103.0 102.2,102.9 103.4,102.7 104.7,102.6 105.9,102.2 107.1,101.8 108.4,101.4 109.6,101.1 110.9,100.9 112.1,100.8 113.4,100.7 114.6,100.4 115.9,100.2 117.1,100.1 118.3,99.9 119.6,99.8 120.8,99.6 122.1,99.5 123.3,99.4 124.6,99.3 125.8,98.9 127.1,98.7 128.3,98.6 129.5,98.5 130.8,98.4 132.0,98.4 133.3,104.6 134.5,104.0 135.8,103.4 137.0,102.9 138.2,101.2 139.5,100.0 140.7,98.8 142.0,98.3 143.2,97.8 144.5,96.9 145.7,96.0 147.0,95.3 148.2,95.0 149.4,94.8 150.7,94.1 151.9,93.6 153.2,93.3 154.4,92.9 155.7,92.7 156.9,92.6 158.2,92.3 159.4,91.7 160.6,91.3 161.9,90.9 163.1,90.4 164.4,90.2 165.6,90.0 166.9,89.6 168.1,89.3 169.4,88.9 170.6,88.7 171.8,88.5 173.1,88.5 174.3,88.2 175.6,87.9 176.8,87.7 178.1,87.5 179.3,87.3 180.6,87.1 181.8,87.0 183.0,86.8 184.3,86.7 185.5,86.5 186.8,86.2 188.0,86.0 189.3,85.7 190.5,85.5 191.8,85.3 193.0,85.2 194.2,85.1 195.5,84.9 196.7,84.5 198.0,84.2 199.2,83.8 200.5,83.7 201.7,83.6 202.9,83.4 204.2,83.3 205.4,83.0 206.7,82.8 207.9,82.5 209.2,82.3 210.4,82.3 211.7,82.1 212.9,82.0 214.1,81.9 215.4,81.7 216.6,81.5 217.9,81.3 219.1,81.1 220.4,81.1 221.6,80.9 222.9,80.9 224.1,80.6 225.3,80.4 226.6,80.2 227.8,80.0 229.1,79.8 230.3,79.7 231.6,79.6 232.8,79.5 234.1,79.2 235.3,78.9 236.5,78.8 237.8,78.6 239.0,78.2 240.3,78.1 241.5,78.0 242.8,77.9 244.0,77.8 245.3,77.6 246.5,77.4 247.7,77.3 249.0,77.1 250.2,77.0 251.5,76.9 252.7,76.8 254.0,76.7 255.2,76.5 256.5,76.3 257.7,76.2 258.9,76.0 260.2,75.9 261.4,75.7 262.7,75.6 263.9,75.5 265.2,75.4 266.4,75.2 267.6,75.0 268.9,74.7 270.1,74.5 271.4,74.3 272.6,74.3 273.9,74.2 275.1,74.0 276.4,73.8 277.6,73.7 278.8,73.6 280.1,73.4 281.3,73.3 282.6,73.1 283.8,73.0 285.1,72.9 286.3,72.7 287.6,72.5 288.8,72.3 290.0,72.1 291.3,72.0 292.5,72.0 293.8,71.9 295.0,71.7 296.3,71.6 297.5,71.5 298.8,71.3 300.0,71.1 301.2,71.0 302.5,70.9 303.7,70.8 305.0,70.7 306.2,70.5 307.5,70.3 308.7,70.1 310.0,70.0 311.2,69.9 312.4,69.8 313.7,69.7 314.9,69.6 316.2,69.5 317.4,69.4 318.7,69.1 319.9,69.0 321.2,68.9 322.4,68.8 323.6,68.7 324.9,68.5 326.1,68.4 327.4,68.3 328.6,68.1 329.9,68.0 331.1,67.8 332.4,67.7 333.6,67.6 334.8,67.5 336.1,67.4 337.3,67.3 338.6,67.2 339.8,67.1 341.1,67.0 342.3,66.9 343.5,66.8 344.8,66.5 346.0,66.3 347.3,70.3 348.5,69.5 349.8,68.0 351.0,67.4 352.3,66.7 353.5,65.9 354.7,65.4 356.0,65.1 357.2,64.5 358.5,63.6 359.7,63.0 361.0,62.8 362.2,62.4 363.5,62.2 364.7,61.7 365.9,61.3 367.2,60.8 368.4,60.6 369.7,60.1 370.9,59.9 372.2,59.6 373.4,59.4 374.7,59.2 375.9,58.9 377.1,58.5 378.4,58.2 379.6,57.8 380.9,57.2 382.1,56.9 383.4,56.7 384.6,56.6 385.9,56.4 387.1,56.0 388.3,55.7 389.6,55.4 390.8,54.6 392.1,53.9 393.3,53.6 394.6,53.5 395.8,53.2 397.1,52.8 398.3,52.4 399.5,51.9 400.8,51.6 402.0,51.3 403.3,51.0 404.5,50.7 405.8,50.5 407.0,50.3 408.2,50.1 409.5,50.0 410.7,49.7 412.0,49.6 413.2,49.4 414.5,49.2 415.7,49.0 417.0,48.8 418.2,48.6 419.4,48.4 420.7,48.3 421.9,48.1 423.2,48.0 424.4,47.8 425.7,47.7 426.9,47.5 428.2,47.5 429.4,47.3 430.6,47.1 431.9,47.0 433.1,46.8 434.4,46.6 435.6,46.5 436.9,46.3 438.1,46.2 439.4,46.1 440.6,45.9 441.8,45.8 443.1,45.6 444.3,45.6 445.6,45.4 446.8,45.2 448.1,45.1 449.3,44.9 450.6,44.7 451.8,44.5 453.0,44.3 454.3,44.1 455.5,44.0 456.8,43.7 458.0,43.6 459.3,43.4 460.5,43.1 461.8,42.9 463.0,42.7 464.2,42.5 465.5,42.2 466.7,42.1 468.0,42.0 469.2,41.9 470.5,41.8 471.7,41.6 472.9,41.5 474.2,41.3 475.4,41.1 476.7,41.0 477.9,40.7 479.2,40.5 480.4,40.3 481.7,40.0 482.9,39.9 484.1,39.7 485.4,39.6 486.6,39.5 487.9,39.4 489.1,39.2 490.4,39.0 491.6,38.9 492.9,38.6 494.1,38.5 495.3,38.4 496.6,38.2 497.8,38.1 499.1,38.0 500.3,37.9 501.6,37.8 502.8,37.6 504.1,37.6 505.3,37.4 506.5,37.2 507.8,37.1 509.0,36.9 510.3,36.8 511.5,36.6 512.8,36.6 514.0,36.4 515.3,36.3 516.5,36.2 517.7,36.0 519.0,35.9 520.2,35.6 521.5,35.5 522.7,35.2 524.0,35.1 525.2,35.0 526.5,34.9 527.7,34.8 528.9,34.7 530.2,34.7 531.4,34.5 532.7,34.4 533.9,34.3 535.2,34.2 536.4,34.0 537.6,33.8 538.9,33.7 540.1,33.6 541.4,33.5 542.6,33.3 543.9,33.2 545.1,33.0 546.4,33.0 547.6,32.8 548.8,32.7 550.1,32.6 551.3,32.3 552.6,32.1 553.8,31.8 555.1,31.7 556.3,31.5 557.6,31.4 558.8,31.2 560.0,31.1 561.3,31.0 562.5,30.9 563.8,30.8 565.0,30.7 566.3,30.5 567.5,30.3 568.8,30.2 570.0,30.0" />
  
  <!-- Punto finale luminoso -->
  <circle cx="570.0" cy="30.0" r="4" fill="#ffffff" stroke="#0366d6" stroke-width="2.5" />
</svg>