<svg width="600" height="150" viewBox="0 0 600 150" xmlns="http://www.w3.org/2000/svg">
  <defs>
    <filter id="shadow2" x="-2%" y="-2%" width="104%" height="108%">
      <feDropShadow dx="0" dy="2" stdDeviation="3" flood-opacity="0.1" />
    </filter>
    <linearGradient id="fillGrad" x1="0" y1="0" x2="0" y2="1">
      <stop offset="0%" stop-color="#0366d6" stop-opacity="0.3"/>
      <stop offset="100%" stop-color="#0366d6" stop-opacity="0.02"/>
    </linearGradient>
  </defs>
  <rect width="600" height="150" rx="12" fill="#ffffff" filter="url(#shadow2)" stroke="#e1e4e8" stroke-width="1"/>
  <text x="20" y="24" fill="#2b3137" font-family="-apple-system,BlinkMacSystemFont,'Segoe UI',Helvetica,Arial,sans-serif" font-size="14" font-weight="600">📈 Download Growth (Actual: 85.7k)</text>
  
  <!-- Area sotto la linea -->
  <polygon fill="url(#fillGrad)" points="30.0,120.0,120 30.0,120.0 31.4,119.5 32.9,118.9 34.3,118.4 35.8,118.2 37.2,118.0 38.7,117.4 40.1,116.9 41.6,116.7 43.0,116.0 44.5,115.7 45.9,115.4 47.4,115.2 48.8,114.9 50.3,114.5 51.7,114.0 53.2,113.7 54.6,113.4 56.1,113.3 57.5,113.0 59.0,112.6 60.4,112.3 61.8,112.2 63.3,111.9 64.7,110.9 66.2,110.6 67.6,110.2 69.1,109.8 70.5,109.5 72.0,109.1 73.4,108.9 74.9,108.8 76.3,108.5 77.8,108.0 79.2,107.6 80.7,107.3 82.1,106.9 83.6,106.8 85.0,106.8 86.5,106.6 87.9,106.3 89.4,106.1 90.8,105.9 92.3,105.6 93.7,105.0 95.1,104.9 96.6,104.8 98.0,104.6 99.5,104.1 100.9,103.9 102.4,103.4 103.8,103.1 105.3,102.7 106.7,102.6 108.2,102.4 109.6,102.0 111.1,101.6 112.5,101.3 114.0,101.1 115.4,100.9 116.9,100.7 118.3,100.3 119.8,99.9 121.2,99.5 122.7,99.1 124.1,98.9 125.5,98.8 127.0,98.7 128.4,98.3 129.9,98.1 131.3,98.0 132.8,97.8 134.2,97.7 135.7,97.5 137.1,97.3 138.6,97.2 140.0,97.1 141.5,96.7 142.9,96.5 144.4,96.4 145.8,96.3 147.3,96.2 148.7,96.2 150.2,103.0 151.6,102.3 153.1,101.7 154.5,101.1 156.0,99.2 157.4,97.9 158.8,96.5 160.3,96.0 161.7,95.4 163.2,94.5 164.6,93.4 166.1,92.7 167.5,92.4 169.0,92.1 170.4,91.4 171.9,90.8 173.3,90.5 174.8,90.0 176.2,89.9 177.7,89.8 179.1,89.4 180.6,88.8 182.0,88.3 183.5,87.9 184.9,87.3 186.4,87.1 187.8,86.9 189.2,86.5 190.7,86.1 192.1,85.7 193.6,85.4 195.0,85.3 196.5,85.2 197.9,84.9 199.4,84.6 200.8,84.4 202.3,84.1 203.7,83.9 205.2,83.7 206.6,83.5 208.1,83.3 209.5,83.2 211.0,83.0 212.4,82.7 213.9,82.4 215.3,82.1 216.8,81.9 218.2,81.7 219.7,81.6 221.1,81.4 222.5,81.3 224.0,80.8 225.4,80.4 226.9,80.0 228.3,79.9 229.8,79.8 231.2,79.6 232.7,79.4 234.1,79.2 235.6,78.9 237.0,78.6 238.5,78.4 239.9,78.3 241.4,78.2 242.8,78.0 244.3,77.9 245.7,77.7 247.2,77.5 248.6,77.2 250.1,77.1 251.5,77.0 252.9,76.9 254.4,76.8 255.8,76.5 257.3,76.3 258.7,76.1 260.2,75.9 261.6,75.6 263.1,75.5 264.5,75.4 266.0,75.2 267.4,74.9 268.9,74.7 270.3,74.4 271.8,74.2 273.2,73.9 274.7,73.8 276.1,73.7 277.6,73.6 279.0,73.4 280.5,73.2 281.9,73.0 283.4,72.8 284.8,72.7 286.2,72.5 287.7,72.4 289.1,72.2 290.6,72.2 292.0,72.0 293.5,71.7 294.9,71.6 296.4,71.4 297.8,71.3 299.3,71.1 300.7,71.0 302.2,70.8 303.6,70.7 305.1,70.5 306.5,70.3 308.0,69.9 309.4,69.7 310.9,69.6 312.3,69.5 313.8,69.4 315.2,69.2 316.6,69.0 318.1,68.8 319.5,68.7 321.0,68.5 322.4,68.4 323.9,68.2 325.3,68.1 326.8,68.0 328.2,67.7 329.7,67.5 331.1,67.3 332.6,67.1 334.0,67.0 335.5,66.9 336.9,66.9 338.4,66.7 339.8,66.6 341.3,66.4 342.7,66.2 344.2,66.0 345.6,65.9 347.1,65.8 348.5,65.7 349.9,65.5 351.4,65.3 352.8,65.1 354.3,64.9 355.7,64.7 357.2,64.6 358.6,64.5 360.1,64.4 361.5,64.3 363.0,64.2 364.4,64.1 365.9,63.8 367.3,63.7 368.8,63.5 370.2,63.4 371.7,63.3 373.1,63.1 374.6,63.0 376.0,62.8 377.5,62.7 378.9,62.6 380.3,62.4 381.8,62.3 383.2,62.1 384.7,62.0 386.1,61.9 387.6,61.8 389.0,61.7 390.5,61.5 391.9,61.4 393.4,61.4 394.8,61.2 396.3,60.9 397.7,60.7 399.2,65.1 400.6,64.3 402.1,62.6 403.5,61.9 405.0,61.2 406.4,60.2 407.9,59.7 409.3,59.3 410.8,58.7 412.2,57.7 413.6,57.0 415.1,56.8 416.5,56.4 418.0,56.1 419.4,55.6 420.9,55.2 422.3,54.6 423.8,54.4 425.2,53.9 426.7,53.6 428.1,53.3 429.6,53.1 431.0,52.8 432.5,52.6 433.9,52.1 435.4,51.8 436.8,51.3 438.3,50.7 439.7,50.3 441.2,50.1 442.6,50.0 444.0,49.7 445.5,49.3 446.9,49.0 448.4,48.7 449.8,47.8 451.3,47.1 452.7,46.7 454.2,46.5 455.6,46.2 457.1,45.8 458.5,45.4 460.0,44.8 461.4,44.5 462.9,44.2 464.3,43.9 465.8,43.4 467.2,43.2 468.7,43.0 470.1,42.9 471.6,42.7 473.0,42.4 474.5,42.2 475.9,42.0 477.3,41.8 478.8,41.6 480.2,41.3 481.7,41.2 483.1,41.0 484.6,40.8 486.0,40.6 487.5,40.4 488.9,40.3 490.4,40.1 491.8,40.0 493.3,39.9 494.7,39.7 496.2,39.5 497.6,39.3 499.1,39.1 500.5,38.9 502.0,38.8 503.4,38.6 504.9,38.5 506.3,38.3 507.7,38.2 509.2,38.0 510.6,37.9 512.1,37.8 513.5,37.6 515.0,37.4 516.4,37.3 517.9,37.0 519.3,36.8 520.8,36.7 522.2,36.4 523.7,36.2 525.1,36.0 526.6,35.8 528.0,35.6 529.5,35.4 530.9,35.1 532.4,34.9 533.8,34.6 535.3,34.4 536.7,34.1 538.2,34.0 539.6,33.9 541.0,33.8 542.5,33.6 543.9,33.5 545.4,33.3 546.8,33.1 548.3,32.9 549.7,32.7 551.2,32.5 552.6,32.2 554.1,32.0 555.5,31.7 557.0,31.5 558.4,31.4 559.9,31.2 561.3,31.1 562.8,31.0 564.2,30.8 565.7,30.6 567.1,30.4 568.6,30.1 570.0,30.0 570.0,30.0,120" />
  
  <!-- Linea principale -->
  <polyline fill="none" stroke="#0366d6" stroke-width="2.5" stroke-linecap="round" stroke-linejoin="round" points="30.0,120.0 31.4,119.5 32.9,118.9 34.3,118.4 35.8,118.2 37.2,118.0 38.7,117.4 40.1,116.9 41.6,116.7 43.0,116.0 44.5,115.7 45.9,115.4 47.4,115.2 48.8,114.9 50.3,114.5 51.7,114.0 53.2,113.7 54.6,113.4 56.1,113.3 57.5,113.0 59.0,112.6 60.4,112.3 61.8,112.2 63.3,111.9 64.7,110.9 66.2,110.6 67.6,110.2 69.1,109.8 70.5,109.5 72.0,109.1 73.4,108.9 74.9,108.8 76.3,108.5 77.8,108.0 79.2,107.6 80.7,107.3 82.1,106.9 83.6,106.8 85.0,106.8 86.5,106.6 87.9,106.3 89.4,106.1 90.8,105.9 92.3,105.6 93.7,105.0 95.1,104.9 96.6,104.8 98.0,104.6 99.5,104.1 100.9,103.9 102.4,103.4 103.8,103.1 105.3,102.7 106.7,102.6 108.2,102.4 109.6,102.0 111.1,101.6 112.5,101.3 114.0,101.1 115.4,100.9 116.9,100.7 118.3,100.3 119.8,99.9 121.2,99.5 122.7,99.1 124.1,98.9 125.5,98.8 127.0,98.7 128.4,98.3 129.9,98.1 131.3,98.0 132.8,97.8 134.2,97.7 135.7,97.5 137.1,97.3 138.6,97.2 140.0,97.1 141.5,96.7 142.9,96.5 144.4,96.4 145.8,96.3 147.3,96.2 148.7,96.2 150.2,103.0 151.6,102.3 153.1,101.7 154.5,101.1 156.0,99.2 157.4,97.9 158.8,96.5 160.3,96.0 161.7,95.4 163.2,94.5 164.6,93.4 166.1,92.7 167.5,92.4 169.0,92.1 170.4,91.4 171.9,90.8 173.3,90.5 174.8,90.0 176.2,89.9 177.7,89.8 179.1,89.4 180.6,88.8 182.0,88.3 183.5,87.9 184.9,87.3 186.4,87.1 187.8,86.9 189.2,86.5 190.7,86.1 192.1,85.7 193.6,85.4 195.0,85.3 196.5,85.2 197.9,84.9 199.4,84.6 200.8,84.4 202.3,84.1 203.7,83.9 205.2,83.7 206.6,83.5 208.1,83.3 209.5,83.2 211.0,83.0 212.4,82.7 213.9,82.4 215.3,82.1 216.8,81.9 218.2,81.7 219.7,81.6 221.1,81.4 222.5,81.3 224.0,80.8 225.4,80.4 226.9,80.0 228.3,79.9 229.8,79.8 231.2,79.6 232.7,79.4 234.1,79.2 235.6,78.9 237.0,78.6 238.5,78.4 239.9,78.3 241.4,78.2 242.8,78.0 244.3,77.9 245.7,77.7 247.2,77.5 248.6,77.2 250.1,77.1 251.5,77.0 252.9,76.9 254.4,76.8 255.8,76.5 257.3,76.3 258.7,76.1 260.2,75.9 261.6,75.6 263.1,75.5 264.5,75.4 266.0,75.2 267.4,74.9 268.9,74.7 270.3,74.4 271.8,74.2 273.2,73.9 274.7,73.8 276.1,73.7 277.6,73.6 279.0,73.4 280.5,73.2 281.9,73.0 283.4,72.8 284.8,72.7 286.2,72.5 287.7,72.4 289.1,72.2 290.6,72.2 292.0,72.0 293.5,71.7 294.9,71.6 296.4,71.4 297.8,71.3 299.3,71.1 300.7,71.0 302.2,70.8 303.6,70.7 305.1,70.5 306.5,70.3 308.0,69.9 309.4,69.7 310.9,69.6 312.3,69.5 313.8,69.4 315.2,69.2 316.6,69.0 318.1,68.8 319.5,68.7 321.0,68.5 322.4,68.4 323.9,68.2 325.3,68.1 326.8,68.0 328.2,67.7 329.7,67.5 331.1,67.3 332.6,67.1 334.0,67.0 335.5,66.9 336.9,66.9 338.4,66.7 339.8,66.6 341.3,66.4 342.7,66.2 344.2,66.0 345.6,65.9 347.1,65.8 348.5,65.7 349.9,65.5 351.4,65.3 352.8,65.1 354.3,64.9 355.7,64.7 357.2,64.6 358.6,64.5 360.1,64.4 361.5,64.3 363.0,64.2 364.4,64.1 365.9,63.8 367.3,63.7 368.8,63.5 370.2,63.4 371.7,63.3 373.1,63.1 374.6,63.0 376.0,62.8 377.5,62.7 378.9,62.6 380.3,62.4 381.8,62.3 383.2,62.1 384.7,62.0 386.1,61.9 387.6,61.8 389.0,61.7 390.5,61.5 391.9,61.4 393.4,61.4 394.8,61.2 396.3,60.9 397.7,60.7 399.2,65.1 400.6,64.3 402.1,62.6 403.5,61.9 405.0,61.2 406.4,60.2 407.9,59.7 409.3,59.3 410.8,58.7 412.2,57.7 413.6,57.0 415.1,56.8 416.5,56.4 418.0,56.1 419.4,55.6 420.9,55.2 422.3,54.6 423.8,54.4 425.2,53.9 426.7,53.6 428.1,53.3 429.6,53.1 431.0,52.8 432.5,52.6 433.9,52.1 435.4,51.8 436.8,51.3 438.3,50.7 439.7,50.3 441.2,50.1 442.6,50.0 444.0,49.7 445.5,49.3 446.9,49.0 448.4,48.7 449.8,47.8 451.3,47.1 452.7,46.7 454.2,46.5 455.6,46.2 457.1,45.8 458.5,45.4 460.0,44.8 461.4,44.5 462.9,44.2 464.3,43.9 465.8,43.4 467.2,43.2 468.7,43.0 470.1,42.9 471.6,42.7 473.0,42.4 474.5,42.2 475.9,42.0 477.3,41.8 478.8,41.6 480.2,41.3 481.7,41.2 483.1,41.0 484.6,40.8 486.0,40.6 487.5,40.4 488.9,40.3 490.4,40.1 491.8,40.0 493.3,39.9 494.7,39.7 496.2,39.5 497.6,39.3 499.1,39.1 500.5,38.9 502.0,38.8 503.4,38.6 504.9,38.5 506.3,38.3 507.7,38.2 509.2,38.0 510.6,37.9 512.1,37.8 513.5,37.6 515.0,37.4 516.4,37.3 517.9,37.0 519.3,36.8 520.8,36.7 522.2,36.4 523.7,36.2 525.1,36.0 526.6,35.8 528.0,35.6 529.5,35.4 530.9,35.1 532.4,34.9 533.8,34.6 535.3,34.4 536.7,34.1 538.2,34.0 539.6,33.9 541.0,33.8 542.5,33.6 543.9,33.5 545.4,33.3 546.8,33.1 548.3,32.9 549.7,32.7 551.2,32.5 552.6,32.2 554.1,32.0 555.5,31.7 557.0,31.5 558.4,31.4 559.9,31.2 561.3,31.1 562.8,31.0 564.2,30.8 565.7,30.6 567.1,30.4 568.6,30.1 570.0,30.0" />
  
  <!-- Punto finale luminoso -->
  <circle cx="570.0" cy="30.0" r="4" fill="#ffffff" stroke="#0366d6" stroke-width="2.5" />
</svg>