<svg width="600" height="150" viewBox="0 0 600 150" xmlns="http://www.w3.org/2000/svg">
  <defs>
    <filter id="shadow2" x="-2%" y="-2%" width="104%" height="108%">
      <feDropShadow dx="0" dy="2" stdDeviation="3" flood-opacity="0.1" />
    </filter>
    <linearGradient id="fillGrad" x1="0" y1="0" x2="0" y2="1">
      <stop offset="0%" stop-color="#0366d6" stop-opacity="0.3"/>
      <stop offset="100%" stop-color="#0366d6" stop-opacity="0.02"/>
    </linearGradient>
  </defs>
  <rect width="600" height="150" rx="12" fill="#ffffff" filter="url(#shadow2)" stroke="#e1e4e8" stroke-width="1"/>
  <text x="20" y="24" fill="#2b3137" font-family="-apple-system,BlinkMacSystemFont,'Segoe UI',Helvetica,Arial,sans-serif" font-size="14" font-weight="600">📈 Download Growth (Actual: 87.1k)</text>
  
  <!-- Area sotto la linea -->
  <polygon fill="url(#fillGrad)" points="30.0,120.0,120 30.0,120.0 31.3,119.5 32.6,119.0 33.9,118.5 35.2,118.4 36.5,118.1 37.8,117.5 39.0,117.2 40.3,116.9 41.6,116.3 42.9,116.0 44.2,115.7 45.5,115.5 46.8,115.3 48.1,114.9 49.4,114.4 50.7,114.1 52.0,113.9 53.3,113.7 54.5,113.5 55.8,113.1 57.1,112.9 58.4,112.7 59.7,112.5 61.0,111.5 62.3,111.2 63.6,110.9 64.9,110.5 66.2,110.2 67.5,109.9 68.8,109.7 70.0,109.5 71.3,109.3 72.6,108.8 73.9,108.4 75.2,108.1 76.5,107.8 77.8,107.7 79.1,107.7 80.4,107.5 81.7,107.2 83.0,107.0 84.3,106.9 85.6,106.5 86.8,106.0 88.1,105.9 89.4,105.8 90.7,105.6 92.0,105.2 93.3,105.0 94.6,104.5 95.9,104.2 97.2,103.9 98.5,103.8 99.8,103.6 101.1,103.2 102.3,102.8 103.6,102.5 104.9,102.4 106.2,102.2 107.5,102.0 108.8,101.6 110.1,101.2 111.4,100.9 112.7,100.5 114.0,100.4 115.3,100.3 116.6,100.1 117.8,99.8 119.1,99.6 120.4,99.5 121.7,99.3 123.0,99.2 124.3,99.0 125.6,98.9 126.9,98.8 128.2,98.7 129.5,98.3 130.8,98.1 132.1,98.0 133.3,97.9 134.6,97.8 135.9,97.8 137.2,104.1 138.5,103.5 139.8,103.0 141.1,102.4 142.4,100.6 143.7,99.4 145.0,98.1 146.3,97.7 147.6,97.1 148.9,96.2 150.1,95.2 151.4,94.5 152.7,94.3 154.0,94.0 155.3,93.3 156.6,92.8 157.9,92.5 159.2,92.1 160.5,91.9 161.8,91.8 163.1,91.5 164.4,90.9 165.6,90.5 166.9,90.0 168.2,89.6 169.5,89.3 170.8,89.2 172.1,88.7 173.4,88.4 174.7,88.0 176.0,87.7 177.3,87.6 178.6,87.5 179.9,87.3 181.1,87.0 182.4,86.8 183.7,86.5 185.0,86.4 186.3,86.2 187.6,86.0 188.9,85.8 190.2,85.7 191.5,85.5 192.8,85.2 194.1,84.9 195.4,84.7 196.7,84.5 197.9,84.3 199.2,84.2 200.5,84.0 201.8,83.9 203.1,83.4 204.4,83.1 205.7,82.7 207.0,82.6 208.3,82.5 209.6,82.4 210.9,82.2 212.2,81.9 213.4,81.7 214.7,81.4 216.0,81.2 217.3,81.2 218.6,81.0 219.9,80.9 221.2,80.8 222.5,80.6 223.8,80.4 225.1,80.1 226.4,80.0 227.7,79.9 228.9,79.8 230.2,79.7 231.5,79.5 232.8,79.3 234.1,79.0 235.4,78.9 236.7,78.6 238.0,78.5 239.3,78.4 240.6,78.3 241.9,78.0 243.2,77.7 244.4,77.5 245.7,77.3 247.0,77.0 248.3,76.9 249.6,76.8 250.9,76.7 252.2,76.5 253.5,76.4 254.8,76.2 256.1,76.0 257.4,75.9 258.7,75.7 260.0,75.6 261.2,75.5 262.5,75.4 263.8,75.2 265.1,75.0 266.4,74.9 267.7,74.7 269.0,74.6 270.3,74.4 271.6,74.3 272.9,74.2 274.2,74.1 275.5,73.9 276.7,73.6 278.0,73.3 279.3,73.1 280.6,73.0 281.9,72.9 283.2,72.9 284.5,72.7 285.8,72.4 287.1,72.3 288.4,72.2 289.7,72.0 291.0,71.9 292.2,71.7 293.5,71.6 294.8,71.5 296.1,71.3 297.4,71.1 298.7,70.9 300.0,70.7 301.3,70.6 302.6,70.5 303.9,70.5 305.2,70.3 306.5,70.2 307.8,70.0 309.0,69.9 310.3,69.7 311.6,69.6 312.9,69.5 314.2,69.3 315.5,69.2 316.8,69.0 318.1,68.8 319.4,68.6 320.7,68.5 322.0,68.4 323.3,68.3 324.5,68.2 325.8,68.1 327.1,68.0 328.4,67.9 329.7,67.6 331.0,67.5 332.3,67.4 333.6,67.3 334.9,67.1 336.2,67.0 337.5,66.8 338.8,66.7 340.0,66.6 341.3,66.5 342.6,66.3 343.9,66.2 345.2,66.0 346.5,65.9 347.8,65.9 349.1,65.7 350.4,65.6 351.7,65.5 353.0,65.4 354.3,65.3 355.6,65.2 356.8,64.9 358.1,64.7 359.4,68.9 360.7,68.1 362.0,66.5 363.3,65.9 364.6,65.2 365.9,64.3 367.2,63.8 368.5,63.4 369.8,62.9 371.1,62.0 372.3,61.3 373.6,61.1 374.9,60.7 376.2,60.5 377.5,60.0 378.8,59.6 380.1,59.0 381.4,58.8 382.7,58.3 384.0,58.1 385.3,57.8 386.6,57.6 387.8,57.4 389.1,57.1 390.4,56.7 391.7,56.4 393.0,56.0 394.3,55.4 395.6,55.1 396.9,54.9 398.2,54.7 399.5,54.5 400.8,54.1 402.1,53.8 403.3,53.5 404.6,52.7 405.9,52.0 407.2,51.7 408.5,51.5 409.8,51.2 411.1,50.8 412.4,50.4 413.7,49.9 415.0,49.6 416.3,49.3 417.6,49.0 418.9,48.6 420.1,48.4 421.4,48.3 422.7,48.1 424.0,47.9 425.3,47.7 426.6,47.5 427.9,47.3 429.2,47.1 430.5,46.9 431.8,46.7 433.1,46.5 434.4,46.3 435.6,46.1 436.9,46.0 438.2,45.8 439.5,45.7 440.8,45.6 442.1,45.4 443.4,45.3 444.7,45.1 446.0,45.0 447.3,44.8 448.6,44.6 449.9,44.4 451.1,44.3 452.4,44.1 453.7,44.0 455.0,43.9 456.3,43.7 457.6,43.6 458.9,43.5 460.2,43.4 461.5,43.2 462.8,43.0 464.1,42.9 465.4,42.7 466.7,42.5 467.9,42.3 469.2,42.1 470.5,41.9 471.8,41.7 473.1,41.5 474.4,41.3 475.7,41.1 477.0,40.9 478.3,40.6 479.6,40.4 480.9,40.2 482.2,40.0 483.4,39.9 484.7,39.7 486.0,39.6 487.3,39.5 488.6,39.3 489.9,39.2 491.2,39.0 492.5,38.8 493.8,38.6 495.1,38.4 496.4,38.1 497.7,38.0 498.9,37.7 500.2,37.5 501.5,37.4 502.8,37.3 504.1,37.2 505.4,37.0 506.7,36.9 508.0,36.6 509.3,36.5 510.6,36.2 511.9,36.1 513.2,35.9 514.4,35.8 515.7,35.7 517.0,35.6 518.3,35.5 519.6,35.4 520.9,35.2 522.2,35.1 523.5,35.0 524.8,34.8 526.1,34.6 527.4,34.5 528.7,34.4 530.0,34.2 531.2,34.1 532.5,34.0 533.8,33.8 535.1,33.7 536.4,33.5 537.7,33.4 539.0,33.1 540.3,33.0 541.6,32.7 542.9,32.6 544.2,32.5 545.5,32.4 546.7,32.3 548.0,32.2 549.3,32.1 550.6,32.0 551.9,31.9 553.2,31.8 554.5,31.6 555.8,31.5 557.1,31.3 558.4,31.1 559.7,31.0 561.0,30.9 562.2,30.8 563.5,30.6 564.8,30.5 566.1,30.4 567.4,30.3 568.7,30.1 570.0,30.0 570.0,30.0,120" />
  
  <!-- Linea principale -->
  <polyline fill="none" stroke="#0366d6" stroke-width="2.5" stroke-linecap="round" stroke-linejoin="round" points="30.0,120.0 31.3,119.5 32.6,119.0 33.9,118.5 35.2,118.4 36.5,118.1 37.8,117.5 39.0,117.2 40.3,116.9 41.6,116.3 42.9,116.0 44.2,115.7 45.5,115.5 46.8,115.3 48.1,114.9 49.4,114.4 50.7,114.1 52.0,113.9 53.3,113.7 54.5,113.5 55.8,113.1 57.1,112.9 58.4,112.7 59.7,112.5 61.0,111.5 62.3,111.2 63.6,110.9 64.9,110.5 66.2,110.2 67.5,109.9 68.8,109.7 70.0,109.5 71.3,109.3 72.6,108.8 73.9,108.4 75.2,108.1 76.5,107.8 77.8,107.7 79.1,107.7 80.4,107.5 81.7,107.2 83.0,107.0 84.3,106.9 85.6,106.5 86.8,106.0 88.1,105.9 89.4,105.8 90.7,105.6 92.0,105.2 93.3,105.0 94.6,104.5 95.9,104.2 97.2,103.9 98.5,103.8 99.8,103.6 101.1,103.2 102.3,102.8 103.6,102.5 104.9,102.4 106.2,102.2 107.5,102.0 108.8,101.6 110.1,101.2 111.4,100.9 112.7,100.5 114.0,100.4 115.3,100.3 116.6,100.1 117.8,99.8 119.1,99.6 120.4,99.5 121.7,99.3 123.0,99.2 124.3,99.0 125.6,98.9 126.9,98.8 128.2,98.7 129.5,98.3 130.8,98.1 132.1,98.0 133.3,97.9 134.6,97.8 135.9,97.8 137.2,104.1 138.5,103.5 139.8,103.0 141.1,102.4 142.4,100.6 143.7,99.4 145.0,98.1 146.3,97.7 147.6,97.1 148.9,96.2 150.1,95.2 151.4,94.5 152.7,94.3 154.0,94.0 155.3,93.3 156.6,92.8 157.9,92.5 159.2,92.1 160.5,91.9 161.8,91.8 163.1,91.5 164.4,90.9 165.6,90.5 166.9,90.0 168.2,89.6 169.5,89.3 170.8,89.2 172.1,88.7 173.4,88.4 174.7,88.0 176.0,87.7 177.3,87.6 178.6,87.5 179.9,87.3 181.1,87.0 182.4,86.8 183.7,86.5 185.0,86.4 186.3,86.2 187.6,86.0 188.9,85.8 190.2,85.7 191.5,85.5 192.8,85.2 194.1,84.9 195.4,84.7 196.7,84.5 197.9,84.3 199.2,84.2 200.5,84.0 201.8,83.9 203.1,83.4 204.4,83.1 205.7,82.7 207.0,82.6 208.3,82.5 209.6,82.4 210.9,82.2 212.2,81.9 213.4,81.7 214.7,81.4 216.0,81.2 217.3,81.2 218.6,81.0 219.9,80.9 221.2,80.8 222.5,80.6 223.8,80.4 225.1,80.1 226.4,80.0 227.7,79.9 228.9,79.8 230.2,79.7 231.5,79.5 232.8,79.3 234.1,79.0 235.4,78.9 236.7,78.6 238.0,78.5 239.3,78.4 240.6,78.3 241.9,78.0 243.2,77.7 244.4,77.5 245.7,77.3 247.0,77.0 248.3,76.9 249.6,76.8 250.9,76.7 252.2,76.5 253.5,76.4 254.8,76.2 256.1,76.0 257.4,75.9 258.7,75.7 260.0,75.6 261.2,75.5 262.5,75.4 263.8,75.2 265.1,75.0 266.4,74.9 267.7,74.7 269.0,74.6 270.3,74.4 271.6,74.3 272.9,74.2 274.2,74.1 275.5,73.9 276.7,73.6 278.0,73.3 279.3,73.1 280.6,73.0 281.9,72.9 283.2,72.9 284.5,72.7 285.8,72.4 287.1,72.3 288.4,72.2 289.7,72.0 291.0,71.9 292.2,71.7 293.5,71.6 294.8,71.5 296.1,71.3 297.4,71.1 298.7,70.9 300.0,70.7 301.3,70.6 302.6,70.5 303.9,70.5 305.2,70.3 306.5,70.2 307.8,70.0 309.0,69.9 310.3,69.7 311.6,69.6 312.9,69.5 314.2,69.3 315.5,69.2 316.8,69.0 318.1,68.8 319.4,68.6 320.7,68.5 322.0,68.4 323.3,68.3 324.5,68.2 325.8,68.1 327.1,68.0 328.4,67.9 329.7,67.6 331.0,67.5 332.3,67.4 333.6,67.3 334.9,67.1 336.2,67.0 337.5,66.8 338.8,66.7 340.0,66.6 341.3,66.5 342.6,66.3 343.9,66.2 345.2,66.0 346.5,65.9 347.8,65.9 349.1,65.7 350.4,65.6 351.7,65.5 353.0,65.4 354.3,65.3 355.6,65.2 356.8,64.9 358.1,64.7 359.4,68.9 360.7,68.1 362.0,66.5 363.3,65.9 364.6,65.2 365.9,64.3 367.2,63.8 368.5,63.4 369.8,62.9 371.1,62.0 372.3,61.3 373.6,61.1 374.9,60.7 376.2,60.5 377.5,60.0 378.8,59.6 380.1,59.0 381.4,58.8 382.7,58.3 384.0,58.1 385.3,57.8 386.6,57.6 387.8,57.4 389.1,57.1 390.4,56.7 391.7,56.4 393.0,56.0 394.3,55.4 395.6,55.1 396.9,54.9 398.2,54.7 399.5,54.5 400.8,54.1 402.1,53.8 403.3,53.5 404.6,52.7 405.9,52.0 407.2,51.7 408.5,51.5 409.8,51.2 411.1,50.8 412.4,50.4 413.7,49.9 415.0,49.6 416.3,49.3 417.6,49.0 418.9,48.6 420.1,48.4 421.4,48.3 422.7,48.1 424.0,47.9 425.3,47.7 426.6,47.5 427.9,47.3 429.2,47.1 430.5,46.9 431.8,46.7 433.1,46.5 434.4,46.3 435.6,46.1 436.9,46.0 438.2,45.8 439.5,45.7 440.8,45.6 442.1,45.4 443.4,45.3 444.7,45.1 446.0,45.0 447.3,44.8 448.6,44.6 449.9,44.4 451.1,44.3 452.4,44.1 453.7,44.0 455.0,43.9 456.3,43.7 457.6,43.6 458.9,43.5 460.2,43.4 461.5,43.2 462.8,43.0 464.1,42.9 465.4,42.7 466.7,42.5 467.9,42.3 469.2,42.1 470.5,41.9 471.8,41.7 473.1,41.5 474.4,41.3 475.7,41.1 477.0,40.9 478.3,40.6 479.6,40.4 480.9,40.2 482.2,40.0 483.4,39.9 484.7,39.7 486.0,39.6 487.3,39.5 488.6,39.3 489.9,39.2 491.2,39.0 492.5,38.8 493.8,38.6 495.1,38.4 496.4,38.1 497.7,38.0 498.9,37.7 500.2,37.5 501.5,37.4 502.8,37.3 504.1,37.2 505.4,37.0 506.7,36.9 508.0,36.6 509.3,36.5 510.6,36.2 511.9,36.1 513.2,35.9 514.4,35.8 515.7,35.7 517.0,35.6 518.3,35.5 519.6,35.4 520.9,35.2 522.2,35.1 523.5,35.0 524.8,34.8 526.1,34.6 527.4,34.5 528.7,34.4 530.0,34.2 531.2,34.1 532.5,34.0 533.8,33.8 535.1,33.7 536.4,33.5 537.7,33.4 539.0,33.1 540.3,33.0 541.6,32.7 542.9,32.6 544.2,32.5 545.5,32.4 546.7,32.3 548.0,32.2 549.3,32.1 550.6,32.0 551.9,31.9 553.2,31.8 554.5,31.6 555.8,31.5 557.1,31.3 558.4,31.1 559.7,31.0 561.0,30.9 562.2,30.8 563.5,30.6 564.8,30.5 566.1,30.4 567.4,30.3 568.7,30.1 570.0,30.0" />
  
  <!-- Punto finale luminoso -->
  <circle cx="570.0" cy="30.0" r="4" fill="#ffffff" stroke="#0366d6" stroke-width="2.5" />
</svg>