<svg width="600" height="150" viewBox="0 0 600 150" xmlns="http://www.w3.org/2000/svg">
  <defs>
    <filter id="shadow2" x="-2%" y="-2%" width="104%" height="108%">
      <feDropShadow dx="0" dy="2" stdDeviation="3" flood-opacity="0.1" />
    </filter>
    <linearGradient id="fillGrad" x1="0" y1="0" x2="0" y2="1">
      <stop offset="0%" stop-color="#0366d6" stop-opacity="0.3"/>
      <stop offset="100%" stop-color="#0366d6" stop-opacity="0.02"/>
    </linearGradient>
  </defs>
  <rect width="600" height="150" rx="12" fill="#ffffff" filter="url(#shadow2)" stroke="#e1e4e8" stroke-width="1"/>
  <text x="20" y="24" fill="#2b3137" font-family="-apple-system,BlinkMacSystemFont,'Segoe UI',Helvetica,Arial,sans-serif" font-size="14" font-weight="600">📈 Download Growth (Actual: 84.6k)</text>
  
  <!-- Area sotto la linea -->
  <polygon fill="url(#fillGrad)" points="30.0,120.0,120 30.0,120.0 31.6,119.4 33.1,118.8 34.7,118.3 36.3,118.1 37.8,117.8 39.4,117.2 41.0,116.7 42.6,116.4 44.1,115.8 45.7,115.4 47.3,115.1 48.8,114.9 50.4,114.6 52.0,114.1 53.5,113.6 55.1,113.3 56.7,113.0 58.3,112.8 59.8,112.5 61.4,112.2 63.0,111.8 64.5,111.7 66.1,111.4 67.7,110.3 69.2,110.0 70.8,109.6 72.4,109.1 74.0,108.8 75.5,108.4 77.1,108.2 78.7,108.0 80.2,107.7 81.8,107.2 83.4,106.7 84.9,106.4 86.5,106.1 88.1,106.0 89.7,105.9 91.2,105.7 92.8,105.4 94.4,105.1 95.9,105.0 97.5,104.6 99.1,104.0 100.6,103.9 102.2,103.8 103.8,103.6 105.3,103.1 106.9,102.8 108.5,102.3 110.1,102.0 111.6,101.6 113.2,101.5 114.8,101.2 116.3,100.8 117.9,100.4 119.5,100.0 121.0,99.9 122.6,99.7 124.2,99.5 125.8,99.0 127.3,98.5 128.9,98.1 130.5,97.7 132.0,97.5 133.6,97.4 135.2,97.2 136.7,96.9 138.3,96.7 139.9,96.5 141.5,96.4 143.0,96.2 144.6,96.0 146.2,95.8 147.7,95.7 149.3,95.6 150.9,95.2 152.4,94.9 154.0,94.8 155.6,94.7 157.2,94.6 158.7,94.6 160.3,101.9 161.9,101.2 163.4,100.5 165.0,99.8 166.6,97.9 168.1,96.5 169.7,95.0 171.3,94.4 172.8,93.8 174.4,92.8 176.0,91.7 177.6,90.9 179.1,90.6 180.7,90.3 182.3,89.5 183.8,88.9 185.4,88.5 187.0,88.1 188.5,87.9 190.1,87.8 191.7,87.4 193.3,86.7 194.8,86.2 196.4,85.7 198.0,85.2 199.5,84.9 201.1,84.7 202.7,84.3 204.2,83.8 205.8,83.4 207.4,83.1 209.0,83.0 210.5,82.9 212.1,82.6 213.7,82.3 215.2,82.0 216.8,81.7 218.4,81.5 219.9,81.3 221.5,81.1 223.1,80.9 224.7,80.8 226.2,80.6 227.8,80.2 229.4,79.9 230.9,79.6 232.5,79.4 234.1,79.2 235.6,79.0 237.2,78.9 238.8,78.7 240.3,78.2 241.9,77.8 243.5,77.4 245.1,77.2 246.6,77.2 248.2,77.0 249.8,76.7 251.3,76.5 252.9,76.2 254.5,75.9 256.0,75.7 257.6,75.6 259.2,75.4 260.8,75.3 262.3,75.1 263.9,74.9 265.5,74.7 267.0,74.4 268.6,74.3 270.2,74.2 271.7,74.0 273.3,73.9 274.9,73.6 276.5,73.4 278.0,73.2 279.6,72.9 281.2,72.7 282.7,72.6 284.3,72.4 285.9,72.3 287.4,72.0 289.0,71.7 290.6,71.4 292.2,71.2 293.7,70.8 295.3,70.7 296.9,70.6 298.4,70.5 300.0,70.3 301.6,70.1 303.1,69.9 304.7,69.7 306.3,69.5 307.8,69.4 309.4,69.2 311.0,69.1 312.6,69.0 314.1,68.8 315.7,68.5 317.3,68.4 318.8,68.1 320.4,68.0 322.0,67.9 323.5,67.7 325.1,67.6 326.7,67.5 328.3,67.3 329.8,67.0 331.4,66.6 333.0,66.4 334.5,66.2 336.1,66.2 337.7,66.1 339.2,65.9 340.8,65.6 342.4,65.5 344.0,65.3 345.5,65.1 347.1,65.0 348.7,64.8 350.2,64.6 351.8,64.5 353.4,64.3 354.9,64.1 356.5,63.8 358.1,63.6 359.7,63.5 361.2,63.4 362.8,63.4 364.4,63.2 365.9,63.0 367.5,62.8 369.1,62.7 370.6,62.5 372.2,62.3 373.8,62.2 375.3,62.1 376.9,61.9 378.5,61.7 380.1,61.5 381.6,61.3 383.2,61.1 384.8,61.0 386.3,60.9 387.9,60.8 389.5,60.7 391.0,60.6 392.6,60.4 394.2,60.1 395.8,60.0 397.3,59.8 398.9,59.7 400.5,59.6 402.0,59.4 403.6,59.2 405.2,59.1 406.7,58.9 408.3,58.8 409.9,58.6 411.5,58.4 413.0,58.3 414.6,58.2 416.2,58.1 417.7,58.0 419.3,57.8 420.9,57.7 422.4,57.5 424.0,57.5 425.6,57.4 427.2,57.0 428.7,56.8 430.3,61.5 431.9,60.6 433.4,58.8 435.0,58.1 436.6,57.3 438.1,56.3 439.7,55.7 441.3,55.3 442.8,54.6 444.4,53.6 446.0,52.8 447.6,52.6 449.1,52.2 450.7,51.9 452.3,51.4 453.8,50.9 455.4,50.3 457.0,50.0 458.5,49.5 460.1,49.2 461.7,48.9 463.3,48.6 464.8,48.4 466.4,48.1 468.0,47.6 469.5,47.2 471.1,46.8 472.7,46.1 474.2,45.7 475.8,45.5 477.4,45.3 479.0,45.1 480.5,44.7 482.1,44.3 483.7,44.0 485.2,43.0 486.8,42.2 488.4,41.9 489.9,41.7 491.5,41.4 493.1,40.9 494.7,40.4 496.2,39.9 497.8,39.5 499.4,39.1 500.9,38.8 502.5,38.4 504.1,38.1 505.6,38.0 507.2,37.8 508.8,37.6 510.3,37.3 511.9,37.1 513.5,36.8 515.1,36.6 516.6,36.4 518.2,36.1 519.8,36.0 521.3,35.7 522.9,35.5 524.5,35.3 526.0,35.2 527.6,35.0 529.2,34.9 530.8,34.7 532.3,34.6 533.9,34.4 535.5,34.2 537.0,34.0 538.6,33.8 540.2,33.6 541.7,33.4 543.3,33.2 544.9,33.1 546.5,33.0 548.0,32.8 549.6,32.6 551.2,32.5 552.7,32.4 554.3,32.2 555.9,32.0 557.4,31.8 559.0,31.6 560.6,31.3 562.2,31.2 563.7,30.9 565.3,30.7 566.9,30.5 568.4,30.2 570.0,30.0 570.0,30.0,120" />
  
  <!-- Linea principale -->
  <polyline fill="none" stroke="#0366d6" stroke-width="2.5" stroke-linecap="round" stroke-linejoin="round" points="30.0,120.0 31.6,119.4 33.1,118.8 34.7,118.3 36.3,118.1 37.8,117.8 39.4,117.2 41.0,116.7 42.6,116.4 44.1,115.8 45.7,115.4 47.3,115.1 48.8,114.9 50.4,114.6 52.0,114.1 53.5,113.6 55.1,113.3 56.7,113.0 58.3,112.8 59.8,112.5 61.4,112.2 63.0,111.8 64.5,111.7 66.1,111.4 67.7,110.3 69.2,110.0 70.8,109.6 72.4,109.1 74.0,108.8 75.5,108.4 77.1,108.2 78.7,108.0 80.2,107.7 81.8,107.2 83.4,106.7 84.9,106.4 86.5,106.1 88.1,106.0 89.7,105.9 91.2,105.7 92.8,105.4 94.4,105.1 95.9,105.0 97.5,104.6 99.1,104.0 100.6,103.9 102.2,103.8 103.8,103.6 105.3,103.1 106.9,102.8 108.5,102.3 110.1,102.0 111.6,101.6 113.2,101.5 114.8,101.2 116.3,100.8 117.9,100.4 119.5,100.0 121.0,99.9 122.6,99.7 124.2,99.5 125.8,99.0 127.3,98.5 128.9,98.1 130.5,97.7 132.0,97.5 133.6,97.4 135.2,97.2 136.7,96.9 138.3,96.7 139.9,96.5 141.5,96.4 143.0,96.2 144.6,96.0 146.2,95.8 147.7,95.7 149.3,95.6 150.9,95.2 152.4,94.9 154.0,94.8 155.6,94.7 157.2,94.6 158.7,94.6 160.3,101.9 161.9,101.2 163.4,100.5 165.0,99.8 166.6,97.9 168.1,96.5 169.7,95.0 171.3,94.4 172.8,93.8 174.4,92.8 176.0,91.7 177.6,90.9 179.1,90.6 180.7,90.3 182.3,89.5 183.8,88.9 185.4,88.5 187.0,88.1 188.5,87.9 190.1,87.8 191.7,87.4 193.3,86.7 194.8,86.2 196.4,85.7 198.0,85.2 199.5,84.9 201.1,84.7 202.7,84.3 204.2,83.8 205.8,83.4 207.4,83.1 209.0,83.0 210.5,82.9 212.1,82.6 213.7,82.3 215.2,82.0 216.8,81.7 218.4,81.5 219.9,81.3 221.5,81.1 223.1,80.9 224.7,80.8 226.2,80.6 227.8,80.2 229.4,79.9 230.9,79.6 232.5,79.4 234.1,79.2 235.6,79.0 237.2,78.9 238.8,78.7 240.3,78.2 241.9,77.8 243.5,77.4 245.1,77.2 246.6,77.2 248.2,77.0 249.8,76.7 251.3,76.5 252.9,76.2 254.5,75.9 256.0,75.7 257.6,75.6 259.2,75.4 260.8,75.3 262.3,75.1 263.9,74.9 265.5,74.7 267.0,74.4 268.6,74.3 270.2,74.2 271.7,74.0 273.3,73.9 274.9,73.6 276.5,73.4 278.0,73.2 279.6,72.9 281.2,72.7 282.7,72.6 284.3,72.4 285.9,72.3 287.4,72.0 289.0,71.7 290.6,71.4 292.2,71.2 293.7,70.8 295.3,70.7 296.9,70.6 298.4,70.5 300.0,70.3 301.6,70.1 303.1,69.9 304.7,69.7 306.3,69.5 307.8,69.4 309.4,69.2 311.0,69.1 312.6,69.0 314.1,68.8 315.7,68.5 317.3,68.4 318.8,68.1 320.4,68.0 322.0,67.9 323.5,67.7 325.1,67.6 326.7,67.5 328.3,67.3 329.8,67.0 331.4,66.6 333.0,66.4 334.5,66.2 336.1,66.2 337.7,66.1 339.2,65.9 340.8,65.6 342.4,65.5 344.0,65.3 345.5,65.1 347.1,65.0 348.7,64.8 350.2,64.6 351.8,64.5 353.4,64.3 354.9,64.1 356.5,63.8 358.1,63.6 359.7,63.5 361.2,63.4 362.8,63.4 364.4,63.2 365.9,63.0 367.5,62.8 369.1,62.7 370.6,62.5 372.2,62.3 373.8,62.2 375.3,62.1 376.9,61.9 378.5,61.7 380.1,61.5 381.6,61.3 383.2,61.1 384.8,61.0 386.3,60.9 387.9,60.8 389.5,60.7 391.0,60.6 392.6,60.4 394.2,60.1 395.8,60.0 397.3,59.8 398.9,59.7 400.5,59.6 402.0,59.4 403.6,59.2 405.2,59.1 406.7,58.9 408.3,58.8 409.9,58.6 411.5,58.4 413.0,58.3 414.6,58.2 416.2,58.1 417.7,58.0 419.3,57.8 420.9,57.7 422.4,57.5 424.0,57.5 425.6,57.4 427.2,57.0 428.7,56.8 430.3,61.5 431.9,60.6 433.4,58.8 435.0,58.1 436.6,57.3 438.1,56.3 439.7,55.7 441.3,55.3 442.8,54.6 444.4,53.6 446.0,52.8 447.6,52.6 449.1,52.2 450.7,51.9 452.3,51.4 453.8,50.9 455.4,50.3 457.0,50.0 458.5,49.5 460.1,49.2 461.7,48.9 463.3,48.6 464.8,48.4 466.4,48.1 468.0,47.6 469.5,47.2 471.1,46.8 472.7,46.1 474.2,45.7 475.8,45.5 477.4,45.3 479.0,45.1 480.5,44.7 482.1,44.3 483.7,44.0 485.2,43.0 486.8,42.2 488.4,41.9 489.9,41.7 491.5,41.4 493.1,40.9 494.7,40.4 496.2,39.9 497.8,39.5 499.4,39.1 500.9,38.8 502.5,38.4 504.1,38.1 505.6,38.0 507.2,37.8 508.8,37.6 510.3,37.3 511.9,37.1 513.5,36.8 515.1,36.6 516.6,36.4 518.2,36.1 519.8,36.0 521.3,35.7 522.9,35.5 524.5,35.3 526.0,35.2 527.6,35.0 529.2,34.9 530.8,34.7 532.3,34.6 533.9,34.4 535.5,34.2 537.0,34.0 538.6,33.8 540.2,33.6 541.7,33.4 543.3,33.2 544.9,33.1 546.5,33.0 548.0,32.8 549.6,32.6 551.2,32.5 552.7,32.4 554.3,32.2 555.9,32.0 557.4,31.8 559.0,31.6 560.6,31.3 562.2,31.2 563.7,30.9 565.3,30.7 566.9,30.5 568.4,30.2 570.0,30.0" />
  
  <!-- Punto finale luminoso -->
  <circle cx="570.0" cy="30.0" r="4" fill="#ffffff" stroke="#0366d6" stroke-width="2.5" />
</svg>