<svg width="600" height="150" viewBox="0 0 600 150" xmlns="http://www.w3.org/2000/svg">
  <defs>
    <filter id="shadow2" x="-2%" y="-2%" width="104%" height="108%">
      <feDropShadow dx="0" dy="2" stdDeviation="3" flood-opacity="0.1" />
    </filter>
    <linearGradient id="fillGrad" x1="0" y1="0" x2="0" y2="1">
      <stop offset="0%" stop-color="#0366d6" stop-opacity="0.3"/>
      <stop offset="100%" stop-color="#0366d6" stop-opacity="0.02"/>
    </linearGradient>
  </defs>
  <rect width="600" height="150" rx="12" fill="#ffffff" filter="url(#shadow2)" stroke="#e1e4e8" stroke-width="1"/>
  <text x="20" y="24" fill="#2b3137" font-family="-apple-system,BlinkMacSystemFont,'Segoe UI',Helvetica,Arial,sans-serif" font-size="14" font-weight="600">📈 Download Growth (Actual: 87.3k)</text>
  
  <!-- Area sotto la linea -->
  <polygon fill="url(#fillGrad)" points="30.0,120.0,120 30.0,120.0 31.3,119.5 32.6,119.0 33.8,118.5 35.1,118.4 36.4,118.1 37.7,117.6 39.0,117.2 40.3,116.9 41.5,116.3 42.8,116.0 44.1,115.7 45.4,115.6 46.7,115.3 48.0,114.9 49.2,114.5 50.5,114.2 51.8,113.9 53.1,113.8 54.4,113.5 55.7,113.2 56.9,112.9 58.2,112.8 59.5,112.5 60.8,111.6 62.1,111.3 63.3,111.0 64.6,110.6 65.9,110.3 67.2,110.0 68.5,109.8 69.8,109.6 71.0,109.3 72.3,108.9 73.6,108.5 74.9,108.2 76.2,107.9 77.5,107.8 78.7,107.8 80.0,107.6 81.3,107.3 82.6,107.1 83.9,107.0 85.2,106.7 86.4,106.2 87.7,106.0 89.0,105.9 90.3,105.7 91.6,105.3 92.9,105.1 94.1,104.7 95.4,104.4 96.7,104.0 98.0,103.9 99.3,103.7 100.5,103.3 101.8,103.0 103.1,102.7 104.4,102.6 105.7,102.4 107.0,102.2 108.2,101.8 109.5,101.4 110.8,101.0 112.1,100.7 113.4,100.5 114.7,100.4 115.9,100.3 117.2,100.0 118.5,99.8 119.8,99.6 121.1,99.5 122.4,99.4 123.6,99.2 124.9,99.0 126.2,98.9 127.5,98.8 128.8,98.5 130.0,98.3 131.3,98.2 132.6,98.1 133.9,98.0 135.2,98.0 136.5,104.3 137.7,103.7 139.0,103.1 140.3,102.5 141.6,100.8 142.9,99.6 144.2,98.3 145.4,97.8 146.7,97.3 148.0,96.4 149.3,95.5 150.6,94.7 151.9,94.5 153.1,94.2 154.4,93.5 155.7,93.0 157.0,92.7 158.3,92.3 159.5,92.1 160.8,92.1 162.1,91.7 163.4,91.1 164.7,90.7 166.0,90.3 167.2,89.8 168.5,89.6 169.8,89.4 171.1,89.0 172.4,88.6 173.7,88.3 174.9,88.0 176.2,87.9 177.5,87.8 178.8,87.6 180.1,87.3 181.4,87.0 182.6,86.8 183.9,86.6 185.2,86.5 186.5,86.3 187.8,86.1 189.0,86.0 190.3,85.8 191.6,85.5 192.9,85.2 194.2,85.0 195.5,84.8 196.7,84.6 198.0,84.5 199.3,84.3 200.6,84.2 201.9,83.7 203.2,83.4 204.4,83.0 205.7,82.9 207.0,82.9 208.3,82.7 209.6,82.5 210.9,82.2 212.1,82.0 213.4,81.7 214.7,81.6 216.0,81.5 217.3,81.3 218.6,81.2 219.8,81.1 221.1,80.9 222.4,80.7 223.7,80.5 225.0,80.3 226.2,80.2 227.5,80.1 228.8,80.0 230.1,79.8 231.4,79.6 232.7,79.4 233.9,79.2 235.2,79.0 236.5,78.9 237.8,78.8 239.1,78.6 240.4,78.3 241.6,78.1 242.9,77.9 244.2,77.7 245.5,77.3 246.8,77.3 248.1,77.2 249.3,77.1 250.6,76.9 251.9,76.7 253.2,76.5 254.5,76.4 255.7,76.2 257.0,76.1 258.3,76.0 259.6,75.8 260.9,75.8 262.2,75.6 263.4,75.3 264.7,75.2 266.0,75.0 267.3,74.9 268.6,74.8 269.9,74.7 271.1,74.6 272.4,74.4 273.7,74.3 275.0,74.0 276.3,73.7 277.6,73.5 278.8,73.4 280.1,73.3 281.4,73.3 282.7,73.1 284.0,72.8 285.2,72.7 286.5,72.6 287.8,72.4 289.1,72.3 290.4,72.1 291.7,72.0 292.9,71.9 294.2,71.7 295.5,71.5 296.8,71.3 298.1,71.1 299.4,71.0 300.6,70.9 301.9,70.9 303.2,70.7 304.5,70.6 305.8,70.4 307.1,70.3 308.3,70.1 309.6,70.0 310.9,69.9 312.2,69.8 313.5,69.6 314.8,69.4 316.0,69.2 317.3,69.1 318.6,68.9 319.9,68.8 321.2,68.7 322.4,68.6 323.7,68.5 325.0,68.4 326.3,68.3 327.6,68.1 328.9,68.0 330.1,67.8 331.4,67.7 332.7,67.6 334.0,67.4 335.3,67.3 336.6,67.2 337.8,67.1 339.1,66.9 340.4,66.8 341.7,66.6 343.0,66.5 344.3,66.4 345.5,66.3 346.8,66.2 348.1,66.1 349.4,66.0 350.7,65.8 351.9,65.8 353.2,65.7 354.5,65.4 355.8,65.2 357.1,69.3 358.4,68.5 359.6,66.9 360.9,66.3 362.2,65.6 363.5,64.7 364.8,64.3 366.1,63.9 367.3,63.3 368.6,62.4 369.9,61.8 371.2,61.6 372.5,61.2 373.8,61.0 375.0,60.5 376.3,60.1 377.6,59.6 378.9,59.3 380.2,58.9 381.4,58.6 382.7,58.3 384.0,58.1 385.3,57.9 386.6,57.7 387.9,57.2 389.1,56.9 390.4,56.5 391.7,55.9 393.0,55.6 394.3,55.4 395.6,55.3 396.8,55.0 398.1,54.7 399.4,54.3 400.7,54.1 402.0,53.2 403.3,52.6 404.5,52.3 405.8,52.1 407.1,51.8 408.4,51.4 409.7,51.0 411.0,50.5 412.2,50.2 413.5,49.9 414.8,49.6 416.1,49.2 417.4,49.0 418.6,48.9 419.9,48.7 421.2,48.5 422.5,48.3 423.8,48.1 425.1,47.9 426.3,47.7 427.6,47.5 428.9,47.3 430.2,47.1 431.5,46.9 432.8,46.8 434.0,46.6 435.3,46.4 436.6,46.3 437.9,46.2 439.2,46.0 440.5,45.9 441.7,45.7 443.0,45.6 444.3,45.4 445.6,45.2 446.9,45.1 448.1,44.9 449.4,44.7 450.7,44.6 452.0,44.5 453.3,44.4 454.6,44.2 455.8,44.1 457.1,44.0 458.4,43.9 459.7,43.7 461.0,43.5 462.3,43.3 463.5,43.1 464.8,43.0 466.1,42.8 467.4,42.5 468.7,42.4 470.0,42.1 471.2,42.0 472.5,41.8 473.8,41.5 475.1,41.3 476.4,41.1 477.6,40.9 478.9,40.6 480.2,40.5 481.5,40.4 482.8,40.3 484.1,40.2 485.3,40.0 486.6,39.8 487.9,39.7 489.2,39.5 490.5,39.3 491.8,39.1 493.0,38.8 494.3,38.6 495.6,38.3 496.9,38.2 498.2,38.1 499.5,37.9 500.7,37.8 502.0,37.7 503.3,37.5 504.6,37.3 505.9,37.2 507.1,36.9 508.4,36.8 509.7,36.6 511.0,36.5 512.3,36.4 513.6,36.3 514.8,36.2 516.1,36.1 517.4,35.9 518.7,35.8 520.0,35.7 521.3,35.5 522.5,35.3 523.8,35.2 525.1,35.1 526.4,34.9 527.7,34.8 529.0,34.7 530.2,34.5 531.5,34.4 532.8,34.2 534.1,34.1 535.4,33.8 536.7,33.7 537.9,33.4 539.2,33.3 540.5,33.2 541.8,33.2 543.1,33.0 544.3,32.9 545.6,32.9 546.9,32.7 548.2,32.6 549.5,32.6 550.8,32.4 552.0,32.3 553.3,32.0 554.6,31.9 555.9,31.8 557.2,31.7 558.5,31.5 559.7,31.4 561.0,31.2 562.3,31.1 563.6,31.0 564.9,30.9 566.2,30.7 567.4,30.5 568.7,30.3 570.0,30.0 570.0,30.0,120" />
  
  <!-- Linea principale -->
  <polyline fill="none" stroke="#0366d6" stroke-width="2.5" stroke-linecap="round" stroke-linejoin="round" points="30.0,120.0 31.3,119.5 32.6,119.0 33.8,118.5 35.1,118.4 36.4,118.1 37.7,117.6 39.0,117.2 40.3,116.9 41.5,116.3 42.8,116.0 44.1,115.7 45.4,115.6 46.7,115.3 48.0,114.9 49.2,114.5 50.5,114.2 51.8,113.9 53.1,113.8 54.4,113.5 55.7,113.2 56.9,112.9 58.2,112.8 59.5,112.5 60.8,111.6 62.1,111.3 63.3,111.0 64.6,110.6 65.9,110.3 67.2,110.0 68.5,109.8 69.8,109.6 71.0,109.3 72.3,108.9 73.6,108.5 74.9,108.2 76.2,107.9 77.5,107.8 78.7,107.8 80.0,107.6 81.3,107.3 82.6,107.1 83.9,107.0 85.2,106.7 86.4,106.2 87.7,106.0 89.0,105.9 90.3,105.7 91.6,105.3 92.9,105.1 94.1,104.7 95.4,104.4 96.7,104.0 98.0,103.9 99.3,103.7 100.5,103.3 101.8,103.0 103.1,102.7 104.4,102.6 105.7,102.4 107.0,102.2 108.2,101.8 109.5,101.4 110.8,101.0 112.1,100.7 113.4,100.5 114.7,100.4 115.9,100.3 117.2,100.0 118.5,99.8 119.8,99.6 121.1,99.5 122.4,99.4 123.6,99.2 124.9,99.0 126.2,98.9 127.5,98.8 128.8,98.5 130.0,98.3 131.3,98.2 132.6,98.1 133.9,98.0 135.2,98.0 136.5,104.3 137.7,103.7 139.0,103.1 140.3,102.5 141.6,100.8 142.9,99.6 144.2,98.3 145.4,97.8 146.7,97.3 148.0,96.4 149.3,95.5 150.6,94.7 151.9,94.5 153.1,94.2 154.4,93.5 155.7,93.0 157.0,92.7 158.3,92.3 159.5,92.1 160.8,92.1 162.1,91.7 163.4,91.1 164.7,90.7 166.0,90.3 167.2,89.8 168.5,89.6 169.8,89.4 171.1,89.0 172.4,88.6 173.7,88.3 174.9,88.0 176.2,87.9 177.5,87.8 178.8,87.6 180.1,87.3 181.4,87.0 182.6,86.8 183.9,86.6 185.2,86.5 186.5,86.3 187.8,86.1 189.0,86.0 190.3,85.8 191.6,85.5 192.9,85.2 194.2,85.0 195.5,84.8 196.7,84.6 198.0,84.5 199.3,84.3 200.6,84.2 201.9,83.7 203.2,83.4 204.4,83.0 205.7,82.9 207.0,82.9 208.3,82.7 209.6,82.5 210.9,82.2 212.1,82.0 213.4,81.7 214.7,81.6 216.0,81.5 217.3,81.3 218.6,81.2 219.8,81.1 221.1,80.9 222.4,80.7 223.7,80.5 225.0,80.3 226.2,80.2 227.5,80.1 228.8,80.0 230.1,79.8 231.4,79.6 232.7,79.4 233.9,79.2 235.2,79.0 236.5,78.9 237.8,78.8 239.1,78.6 240.4,78.3 241.6,78.1 242.9,77.9 244.2,77.7 245.5,77.3 246.8,77.3 248.1,77.2 249.3,77.1 250.6,76.9 251.9,76.7 253.2,76.5 254.5,76.4 255.7,76.2 257.0,76.1 258.3,76.0 259.6,75.8 260.9,75.8 262.2,75.6 263.4,75.3 264.7,75.2 266.0,75.0 267.3,74.9 268.6,74.8 269.9,74.7 271.1,74.6 272.4,74.4 273.7,74.3 275.0,74.0 276.3,73.7 277.6,73.5 278.8,73.4 280.1,73.3 281.4,73.3 282.7,73.1 284.0,72.8 285.2,72.7 286.5,72.6 287.8,72.4 289.1,72.3 290.4,72.1 291.7,72.0 292.9,71.9 294.2,71.7 295.5,71.5 296.8,71.3 298.1,71.1 299.4,71.0 300.6,70.9 301.9,70.9 303.2,70.7 304.5,70.6 305.8,70.4 307.1,70.3 308.3,70.1 309.6,70.0 310.9,69.9 312.2,69.8 313.5,69.6 314.8,69.4 316.0,69.2 317.3,69.1 318.6,68.9 319.9,68.8 321.2,68.7 322.4,68.6 323.7,68.5 325.0,68.4 326.3,68.3 327.6,68.1 328.9,68.0 330.1,67.8 331.4,67.7 332.7,67.6 334.0,67.4 335.3,67.3 336.6,67.2 337.8,67.1 339.1,66.9 340.4,66.8 341.7,66.6 343.0,66.5 344.3,66.4 345.5,66.3 346.8,66.2 348.1,66.1 349.4,66.0 350.7,65.8 351.9,65.8 353.2,65.7 354.5,65.4 355.8,65.2 357.1,69.3 358.4,68.5 359.6,66.9 360.9,66.3 362.2,65.6 363.5,64.7 364.8,64.3 366.1,63.9 367.3,63.3 368.6,62.4 369.9,61.8 371.2,61.6 372.5,61.2 373.8,61.0 375.0,60.5 376.3,60.1 377.6,59.6 378.9,59.3 380.2,58.9 381.4,58.6 382.7,58.3 384.0,58.1 385.3,57.9 386.6,57.7 387.9,57.2 389.1,56.9 390.4,56.5 391.7,55.9 393.0,55.6 394.3,55.4 395.6,55.3 396.8,55.0 398.1,54.7 399.4,54.3 400.7,54.1 402.0,53.2 403.3,52.6 404.5,52.3 405.8,52.1 407.1,51.8 408.4,51.4 409.7,51.0 411.0,50.5 412.2,50.2 413.5,49.9 414.8,49.6 416.1,49.2 417.4,49.0 418.6,48.9 419.9,48.7 421.2,48.5 422.5,48.3 423.8,48.1 425.1,47.9 426.3,47.7 427.6,47.5 428.9,47.3 430.2,47.1 431.5,46.9 432.8,46.8 434.0,46.6 435.3,46.4 436.6,46.3 437.9,46.2 439.2,46.0 440.5,45.9 441.7,45.7 443.0,45.6 444.3,45.4 445.6,45.2 446.9,45.1 448.1,44.9 449.4,44.7 450.7,44.6 452.0,44.5 453.3,44.4 454.6,44.2 455.8,44.1 457.1,44.0 458.4,43.9 459.7,43.7 461.0,43.5 462.3,43.3 463.5,43.1 464.8,43.0 466.1,42.8 467.4,42.5 468.7,42.4 470.0,42.1 471.2,42.0 472.5,41.8 473.8,41.5 475.1,41.3 476.4,41.1 477.6,40.9 478.9,40.6 480.2,40.5 481.5,40.4 482.8,40.3 484.1,40.2 485.3,40.0 486.6,39.8 487.9,39.7 489.2,39.5 490.5,39.3 491.8,39.1 493.0,38.8 494.3,38.6 495.6,38.3 496.9,38.2 498.2,38.1 499.5,37.9 500.7,37.8 502.0,37.7 503.3,37.5 504.6,37.3 505.9,37.2 507.1,36.9 508.4,36.8 509.7,36.6 511.0,36.5 512.3,36.4 513.6,36.3 514.8,36.2 516.1,36.1 517.4,35.9 518.7,35.8 520.0,35.7 521.3,35.5 522.5,35.3 523.8,35.2 525.1,35.1 526.4,34.9 527.7,34.8 529.0,34.7 530.2,34.5 531.5,34.4 532.8,34.2 534.1,34.1 535.4,33.8 536.7,33.7 537.9,33.4 539.2,33.3 540.5,33.2 541.8,33.2 543.1,33.0 544.3,32.9 545.6,32.9 546.9,32.7 548.2,32.6 549.5,32.6 550.8,32.4 552.0,32.3 553.3,32.0 554.6,31.9 555.9,31.8 557.2,31.7 558.5,31.5 559.7,31.4 561.0,31.2 562.3,31.1 563.6,31.0 564.9,30.9 566.2,30.7 567.4,30.5 568.7,30.3 570.0,30.0" />
  
  <!-- Punto finale luminoso -->
  <circle cx="570.0" cy="30.0" r="4" fill="#ffffff" stroke="#0366d6" stroke-width="2.5" />
</svg>