<svg width="600" height="150" viewBox="0 0 600 150" xmlns="http://www.w3.org/2000/svg">
  <defs>
    <filter id="shadow2" x="-2%" y="-2%" width="104%" height="108%">
      <feDropShadow dx="0" dy="2" stdDeviation="3" flood-opacity="0.1" />
    </filter>
    <linearGradient id="fillGrad" x1="0" y1="0" x2="0" y2="1">
      <stop offset="0%" stop-color="#0366d6" stop-opacity="0.3"/>
      <stop offset="100%" stop-color="#0366d6" stop-opacity="0.02"/>
    </linearGradient>
  </defs>
  <rect width="600" height="150" rx="12" fill="#ffffff" filter="url(#shadow2)" stroke="#e1e4e8" stroke-width="1"/>
  <text x="20" y="24" fill="#2b3137" font-family="-apple-system,BlinkMacSystemFont,'Segoe UI',Helvetica,Arial,sans-serif" font-size="14" font-weight="600">📈 Download Growth (Actual: 86.7k)</text>
  
  <!-- Area sotto la linea -->
  <polygon fill="url(#fillGrad)" points="30.0,120.0,120 30.0,120.0 31.3,119.5 32.7,118.9 34.0,118.5 35.3,118.3 36.7,118.1 38.0,117.5 39.3,117.1 40.7,116.8 42.0,116.2 43.3,115.9 44.7,115.6 46.0,115.4 47.3,115.2 48.7,114.8 50.0,114.3 51.3,114.0 52.7,113.8 54.0,113.6 55.3,113.3 56.7,113.0 58.0,112.7 59.3,112.6 60.7,112.3 62.0,111.4 63.3,111.1 64.7,110.7 66.0,110.3 67.3,110.0 68.7,109.7 70.0,109.5 71.3,109.3 72.7,109.0 74.0,108.6 75.3,108.2 76.7,107.9 78.0,107.6 79.3,107.5 80.7,107.4 82.0,107.2 83.3,106.9 84.7,106.7 86.0,106.6 87.3,106.3 88.7,105.7 90.0,105.6 91.3,105.5 92.7,105.3 94.0,104.9 95.3,104.6 96.7,104.2 98.0,103.9 99.3,103.5 100.7,103.5 102.0,103.2 103.3,102.9 104.7,102.5 106.0,102.2 107.3,102.0 108.7,101.9 110.0,101.7 111.3,101.2 112.7,100.8 114.0,100.5 115.3,100.1 116.7,100.0 118.0,99.8 119.3,99.7 120.7,99.4 122.0,99.2 123.3,99.0 124.7,98.9 126.0,98.8 127.3,98.6 128.7,98.4 130.0,98.3 131.3,98.2 132.7,97.8 134.0,97.6 135.3,97.5 136.7,97.4 138.0,97.3 139.3,97.3 140.7,103.8 142.0,103.2 143.3,102.6 144.7,102.0 146.0,100.2 147.3,99.0 148.7,97.7 150.0,97.2 151.3,96.6 152.7,95.7 154.0,94.7 155.3,94.0 156.7,93.7 158.0,93.5 159.3,92.8 160.7,92.3 162.0,91.9 163.3,91.5 164.7,91.3 166.0,91.3 167.3,90.9 168.7,90.3 170.0,89.8 171.3,89.4 172.7,88.9 174.0,88.7 175.3,88.5 176.7,88.1 178.0,87.7 179.3,87.4 180.7,87.1 182.0,86.9 183.3,86.9 184.7,86.6 186.0,86.3 187.3,86.1 188.7,85.9 190.0,85.7 191.3,85.5 192.7,85.3 194.0,85.1 195.3,85.0 196.7,84.8 198.0,84.5 199.3,84.2 200.7,83.9 202.0,83.8 203.3,83.6 204.7,83.4 206.0,83.3 207.3,83.1 208.7,82.7 210.0,82.4 211.3,82.0 212.7,81.8 214.0,81.8 215.3,81.6 216.7,81.4 218.0,81.1 219.3,80.9 220.7,80.6 222.0,80.4 223.3,80.3 224.7,80.2 226.0,80.1 227.3,79.9 228.7,79.7 230.0,79.6 231.3,79.3 232.7,79.2 234.0,79.1 235.3,79.0 236.7,78.9 238.0,78.6 239.3,78.4 240.7,78.2 242.0,78.0 243.3,77.8 244.7,77.6 246.0,77.6 247.3,77.4 248.7,77.1 250.0,76.9 251.3,76.7 252.7,76.5 254.0,76.1 255.3,76.0 256.7,75.9 258.0,75.8 259.3,75.6 260.7,75.5 262.0,75.3 263.3,75.1 264.7,75.0 266.0,74.8 267.3,74.7 268.7,74.6 270.0,74.5 271.3,74.3 272.7,74.0 274.0,73.9 275.3,73.7 276.7,73.6 278.0,73.5 279.3,73.3 280.7,73.2 282.0,73.1 283.3,72.9 284.7,72.7 286.0,72.4 287.3,72.2 288.7,72.0 290.0,72.0 291.3,71.9 292.7,71.7 294.0,71.4 295.3,71.3 296.7,71.2 298.0,71.0 299.3,70.9 300.7,70.7 302.0,70.6 303.3,70.5 304.7,70.3 306.0,70.1 307.3,69.9 308.7,69.7 310.0,69.6 311.3,69.5 312.7,69.5 314.0,69.3 315.3,69.2 316.7,69.0 318.0,68.8 319.3,68.7 320.7,68.5 322.0,68.4 323.3,68.3 324.7,68.2 326.0,68.0 327.3,67.8 328.7,67.6 330.0,67.4 331.3,67.3 332.7,67.2 334.0,67.1 335.3,67.0 336.7,66.9 338.0,66.8 339.3,66.6 340.7,66.4 342.0,66.3 343.3,66.2 344.7,66.0 346.0,65.9 347.3,65.7 348.7,65.6 350.0,65.5 351.3,65.4 352.7,65.2 354.0,65.1 355.3,64.9 356.7,64.8 358.0,64.7 359.3,64.6 360.7,64.5 362.0,64.4 363.3,64.3 364.7,64.2 366.0,64.1 367.3,63.8 368.7,63.6 370.0,67.8 371.3,67.0 372.7,65.4 374.0,64.8 375.3,64.0 376.7,63.1 378.0,62.6 379.3,62.3 380.7,61.7 382.0,60.8 383.3,60.1 384.7,59.9 386.0,59.5 387.3,59.2 388.7,58.8 390.0,58.3 391.3,57.8 392.7,57.5 394.0,57.1 395.3,56.8 396.7,56.5 398.0,56.3 399.3,56.1 400.7,55.8 402.0,55.4 403.3,55.1 404.7,54.6 406.0,54.1 407.3,53.7 408.7,53.5 410.0,53.4 411.3,53.1 412.7,52.8 414.0,52.4 415.3,52.1 416.7,51.3 418.0,50.6 419.3,50.3 420.7,50.1 422.0,49.8 423.3,49.4 424.7,49.0 426.0,48.5 427.3,48.2 428.7,47.8 430.0,47.5 431.3,47.1 432.7,46.9 434.0,46.8 435.3,46.6 436.7,46.4 438.0,46.2 439.3,46.0 440.7,45.8 442.0,45.6 443.3,45.4 444.7,45.1 446.0,45.0 447.3,44.8 448.7,44.6 450.0,44.4 451.3,44.3 452.7,44.2 454.0,44.0 455.3,43.9 456.7,43.8 458.0,43.6 459.3,43.4 460.7,43.2 462.0,43.0 463.3,42.9 464.7,42.7 466.0,42.5 467.3,42.4 468.7,42.3 470.0,42.2 471.3,42.0 472.7,41.9 474.0,41.8 475.3,41.6 476.7,41.4 478.0,41.3 479.3,41.1 480.7,40.9 482.0,40.7 483.3,40.5 484.7,40.3 486.0,40.1 487.3,39.9 488.7,39.7 490.0,39.5 491.3,39.2 492.7,39.0 494.0,38.8 495.3,38.5 496.7,38.3 498.0,38.2 499.3,38.1 500.7,38.0 502.0,37.8 503.3,37.7 504.7,37.5 506.0,37.3 507.3,37.1 508.7,36.9 510.0,36.7 511.3,36.4 512.7,36.3 514.0,36.0 515.3,35.8 516.7,35.7 518.0,35.5 519.3,35.4 520.7,35.3 522.0,35.1 523.3,34.9 524.7,34.8 526.0,34.5 527.3,34.4 528.7,34.2 530.0,34.1 531.3,33.9 532.7,33.8 534.0,33.8 535.3,33.6 536.7,33.5 538.0,33.4 539.3,33.2 540.7,33.0 542.0,32.9 543.3,32.7 544.7,32.6 546.0,32.4 547.3,32.3 548.7,32.2 550.0,32.0 551.3,31.9 552.7,31.7 554.0,31.6 555.3,31.3 556.7,31.2 558.0,30.9 559.3,30.8 560.7,30.7 562.0,30.6 563.3,30.5 564.7,30.4 566.0,30.3 567.3,30.2 568.7,30.1 570.0,30.0 570.0,30.0,120" />
  
  <!-- Linea principale -->
  <polyline fill="none" stroke="#0366d6" stroke-width="2.5" stroke-linecap="round" stroke-linejoin="round" points="30.0,120.0 31.3,119.5 32.7,118.9 34.0,118.5 35.3,118.3 36.7,118.1 38.0,117.5 39.3,117.1 40.7,116.8 42.0,116.2 43.3,115.9 44.7,115.6 46.0,115.4 47.3,115.2 48.7,114.8 50.0,114.3 51.3,114.0 52.7,113.8 54.0,113.6 55.3,113.3 56.7,113.0 58.0,112.7 59.3,112.6 60.7,112.3 62.0,111.4 63.3,111.1 64.7,110.7 66.0,110.3 67.3,110.0 68.7,109.7 70.0,109.5 71.3,109.3 72.7,109.0 74.0,108.6 75.3,108.2 76.7,107.9 78.0,107.6 79.3,107.5 80.7,107.4 82.0,107.2 83.3,106.9 84.7,106.7 86.0,106.6 87.3,106.3 88.7,105.7 90.0,105.6 91.3,105.5 92.7,105.3 94.0,104.9 95.3,104.6 96.7,104.2 98.0,103.9 99.3,103.5 100.7,103.5 102.0,103.2 103.3,102.9 104.7,102.5 106.0,102.2 107.3,102.0 108.7,101.9 110.0,101.7 111.3,101.2 112.7,100.8 114.0,100.5 115.3,100.1 116.7,100.0 118.0,99.8 119.3,99.7 120.7,99.4 122.0,99.2 123.3,99.0 124.7,98.9 126.0,98.8 127.3,98.6 128.7,98.4 130.0,98.3 131.3,98.2 132.7,97.8 134.0,97.6 135.3,97.5 136.7,97.4 138.0,97.3 139.3,97.3 140.7,103.8 142.0,103.2 143.3,102.6 144.7,102.0 146.0,100.2 147.3,99.0 148.7,97.7 150.0,97.2 151.3,96.6 152.7,95.7 154.0,94.7 155.3,94.0 156.7,93.7 158.0,93.5 159.3,92.8 160.7,92.3 162.0,91.9 163.3,91.5 164.7,91.3 166.0,91.3 167.3,90.9 168.7,90.3 170.0,89.8 171.3,89.4 172.7,88.9 174.0,88.7 175.3,88.5 176.7,88.1 178.0,87.7 179.3,87.4 180.7,87.1 182.0,86.9 183.3,86.9 184.7,86.6 186.0,86.3 187.3,86.1 188.7,85.9 190.0,85.7 191.3,85.5 192.7,85.3 194.0,85.1 195.3,85.0 196.7,84.8 198.0,84.5 199.3,84.2 200.7,83.9 202.0,83.8 203.3,83.6 204.7,83.4 206.0,83.3 207.3,83.1 208.7,82.7 210.0,82.4 211.3,82.0 212.7,81.8 214.0,81.8 215.3,81.6 216.7,81.4 218.0,81.1 219.3,80.9 220.7,80.6 222.0,80.4 223.3,80.3 224.7,80.2 226.0,80.1 227.3,79.9 228.7,79.7 230.0,79.6 231.3,79.3 232.7,79.2 234.0,79.1 235.3,79.0 236.7,78.9 238.0,78.6 239.3,78.4 240.7,78.2 242.0,78.0 243.3,77.8 244.7,77.6 246.0,77.6 247.3,77.4 248.7,77.1 250.0,76.9 251.3,76.7 252.7,76.5 254.0,76.1 255.3,76.0 256.7,75.9 258.0,75.8 259.3,75.6 260.7,75.5 262.0,75.3 263.3,75.1 264.7,75.0 266.0,74.8 267.3,74.7 268.7,74.6 270.0,74.5 271.3,74.3 272.7,74.0 274.0,73.9 275.3,73.7 276.7,73.6 278.0,73.5 279.3,73.3 280.7,73.2 282.0,73.1 283.3,72.9 284.7,72.7 286.0,72.4 287.3,72.2 288.7,72.0 290.0,72.0 291.3,71.9 292.7,71.7 294.0,71.4 295.3,71.3 296.7,71.2 298.0,71.0 299.3,70.9 300.7,70.7 302.0,70.6 303.3,70.5 304.7,70.3 306.0,70.1 307.3,69.9 308.7,69.7 310.0,69.6 311.3,69.5 312.7,69.5 314.0,69.3 315.3,69.2 316.7,69.0 318.0,68.8 319.3,68.7 320.7,68.5 322.0,68.4 323.3,68.3 324.7,68.2 326.0,68.0 327.3,67.8 328.7,67.6 330.0,67.4 331.3,67.3 332.7,67.2 334.0,67.1 335.3,67.0 336.7,66.9 338.0,66.8 339.3,66.6 340.7,66.4 342.0,66.3 343.3,66.2 344.7,66.0 346.0,65.9 347.3,65.7 348.7,65.6 350.0,65.5 351.3,65.4 352.7,65.2 354.0,65.1 355.3,64.9 356.7,64.8 358.0,64.7 359.3,64.6 360.7,64.5 362.0,64.4 363.3,64.3 364.7,64.2 366.0,64.1 367.3,63.8 368.7,63.6 370.0,67.8 371.3,67.0 372.7,65.4 374.0,64.8 375.3,64.0 376.7,63.1 378.0,62.6 379.3,62.3 380.7,61.7 382.0,60.8 383.3,60.1 384.7,59.9 386.0,59.5 387.3,59.2 388.7,58.8 390.0,58.3 391.3,57.8 392.7,57.5 394.0,57.1 395.3,56.8 396.7,56.5 398.0,56.3 399.3,56.1 400.7,55.8 402.0,55.4 403.3,55.1 404.7,54.6 406.0,54.1 407.3,53.7 408.7,53.5 410.0,53.4 411.3,53.1 412.7,52.8 414.0,52.4 415.3,52.1 416.7,51.3 418.0,50.6 419.3,50.3 420.7,50.1 422.0,49.8 423.3,49.4 424.7,49.0 426.0,48.5 427.3,48.2 428.7,47.8 430.0,47.5 431.3,47.1 432.7,46.9 434.0,46.8 435.3,46.6 436.7,46.4 438.0,46.2 439.3,46.0 440.7,45.8 442.0,45.6 443.3,45.4 444.7,45.1 446.0,45.0 447.3,44.8 448.7,44.6 450.0,44.4 451.3,44.3 452.7,44.2 454.0,44.0 455.3,43.9 456.7,43.8 458.0,43.6 459.3,43.4 460.7,43.2 462.0,43.0 463.3,42.9 464.7,42.7 466.0,42.5 467.3,42.4 468.7,42.3 470.0,42.2 471.3,42.0 472.7,41.9 474.0,41.8 475.3,41.6 476.7,41.4 478.0,41.3 479.3,41.1 480.7,40.9 482.0,40.7 483.3,40.5 484.7,40.3 486.0,40.1 487.3,39.9 488.7,39.7 490.0,39.5 491.3,39.2 492.7,39.0 494.0,38.8 495.3,38.5 496.7,38.3 498.0,38.2 499.3,38.1 500.7,38.0 502.0,37.8 503.3,37.7 504.7,37.5 506.0,37.3 507.3,37.1 508.7,36.9 510.0,36.7 511.3,36.4 512.7,36.3 514.0,36.0 515.3,35.8 516.7,35.7 518.0,35.5 519.3,35.4 520.7,35.3 522.0,35.1 523.3,34.9 524.7,34.8 526.0,34.5 527.3,34.4 528.7,34.2 530.0,34.1 531.3,33.9 532.7,33.8 534.0,33.8 535.3,33.6 536.7,33.5 538.0,33.4 539.3,33.2 540.7,33.0 542.0,32.9 543.3,32.7 544.7,32.6 546.0,32.4 547.3,32.3 548.7,32.2 550.0,32.0 551.3,31.9 552.7,31.7 554.0,31.6 555.3,31.3 556.7,31.2 558.0,30.9 559.3,30.8 560.7,30.7 562.0,30.6 563.3,30.5 564.7,30.4 566.0,30.3 567.3,30.2 568.7,30.1 570.0,30.0" />
  
  <!-- Punto finale luminoso -->
  <circle cx="570.0" cy="30.0" r="4" fill="#ffffff" stroke="#0366d6" stroke-width="2.5" />
</svg>