<svg width="600" height="150" viewBox="0 0 600 150" xmlns="http://www.w3.org/2000/svg">
  <defs>
    <filter id="shadow2" x="-2%" y="-2%" width="104%" height="108%">
      <feDropShadow dx="0" dy="2" stdDeviation="3" flood-opacity="0.1" />
    </filter>
    <linearGradient id="fillGrad" x1="0" y1="0" x2="0" y2="1">
      <stop offset="0%" stop-color="#0366d6" stop-opacity="0.3"/>
      <stop offset="100%" stop-color="#0366d6" stop-opacity="0.02"/>
    </linearGradient>
  </defs>
  <rect width="600" height="150" rx="12" fill="#ffffff" filter="url(#shadow2)" stroke="#e1e4e8" stroke-width="1"/>
  <text x="20" y="24" fill="#2b3137" font-family="-apple-system,BlinkMacSystemFont,'Segoe UI',Helvetica,Arial,sans-serif" font-size="14" font-weight="600">📈 Download Growth (Actual: 83.6k)</text>
  
  <!-- Area sotto la linea -->
  <polygon fill="url(#fillGrad)" points="30.0,120.0,120 30.0,120.0 31.7,119.4 33.4,118.7 35.1,118.2 36.8,118.0 38.5,117.7 40.2,117.0 41.9,116.6 43.6,116.2 45.3,115.5 47.0,115.2 48.7,114.8 50.4,114.6 52.1,114.3 53.8,113.8 55.5,113.3 57.2,112.9 58.9,112.6 60.6,112.4 62.3,112.1 64.0,111.7 65.7,111.4 67.4,111.2 69.1,110.9 70.8,109.8 72.5,109.4 74.2,109.0 75.8,108.5 77.5,108.1 79.2,107.8 80.9,107.5 82.6,107.3 84.3,107.0 86.0,106.5 87.7,106.0 89.4,105.7 91.1,105.3 92.8,105.2 94.5,105.1 96.2,104.9 97.9,104.5 99.6,104.3 101.3,104.1 103.0,103.7 104.7,103.1 106.4,103.0 108.1,102.9 109.8,102.6 111.5,102.1 113.2,101.8 114.9,101.3 116.6,101.0 118.3,100.5 120.0,100.4 121.7,100.1 123.4,99.7 125.1,99.2 126.8,98.9 128.5,98.7 130.2,98.5 131.9,98.3 133.6,97.8 135.3,97.3 137.0,96.9 138.7,96.5 140.4,96.3 142.1,96.1 143.8,95.9 145.5,95.6 147.2,95.4 148.9,95.2 150.6,95.0 152.3,94.8 154.0,94.6 155.7,94.4 157.4,94.3 159.1,94.2 160.8,93.8 162.5,93.5 164.2,93.4 165.8,93.2 167.5,93.2 169.2,93.2 170.9,100.8 172.6,100.1 174.3,99.4 176.0,98.7 177.7,96.6 179.4,95.1 181.1,93.6 182.8,93.0 184.5,92.3 186.2,91.3 187.9,90.1 189.6,89.2 191.3,88.9 193.0,88.6 194.7,87.7 196.4,87.1 198.1,86.7 199.8,86.2 201.5,86.0 203.2,86.0 204.9,85.5 206.6,84.8 208.3,84.3 210.0,83.8 211.7,83.2 213.4,82.9 215.1,82.7 216.8,82.2 218.5,81.8 220.2,81.3 221.9,81.0 223.6,80.9 225.3,80.7 227.0,80.5 228.7,80.1 230.4,79.8 232.1,79.6 233.8,79.3 235.5,79.1 237.2,78.9 238.9,78.7 240.6,78.5 242.3,78.3 244.0,77.9 245.7,77.6 247.4,77.3 249.1,77.1 250.8,76.9 252.5,76.7 254.2,76.5 255.8,76.3 257.5,75.8 259.2,75.4 260.9,75.0 262.6,74.8 264.3,74.7 266.0,74.5 267.7,74.3 269.4,74.0 271.1,73.7 272.8,73.4 274.5,73.1 276.2,73.0 277.9,72.9 279.6,72.7 281.3,72.6 283.0,72.3 284.7,72.1 286.4,71.8 288.1,71.7 289.8,71.5 291.5,71.4 293.2,71.3 294.9,71.0 296.6,70.8 298.3,70.5 300.0,70.3 301.7,70.0 303.4,69.8 305.1,69.7 306.8,69.6 308.5,69.2 310.2,68.9 311.9,68.7 313.6,68.4 315.3,68.0 317.0,67.9 318.7,67.8 320.4,67.7 322.1,67.4 323.8,67.3 325.5,67.0 327.2,66.9 328.9,66.7 330.6,66.5 332.3,66.3 334.0,66.2 335.7,66.1 337.4,65.9 339.1,65.6 340.8,65.4 342.5,65.2 344.2,65.1 345.8,64.9 347.5,64.7 349.2,64.6 350.9,64.5 352.6,64.3 354.3,63.9 356.0,63.6 357.7,63.4 359.4,63.2 361.1,63.1 362.8,63.0 364.5,62.8 366.2,62.5 367.9,62.3 369.6,62.2 371.3,62.0 373.0,61.8 374.7,61.6 376.4,61.5 378.1,61.4 379.8,61.1 381.5,60.9 383.2,60.6 384.9,60.4 386.6,60.3 388.3,60.2 390.0,60.1 391.7,59.9 393.4,59.8 395.1,59.6 396.8,59.4 398.5,59.2 400.2,59.1 401.9,58.9 403.6,58.8 405.3,58.6 407.0,58.4 408.7,58.1 410.4,57.9 412.1,57.7 413.8,57.6 415.5,57.5 417.2,57.4 418.9,57.3 420.6,57.2 422.3,57.0 424.0,56.7 425.7,56.6 427.4,56.4 429.1,56.3 430.8,56.1 432.5,55.9 434.2,55.7 435.8,55.6 437.5,55.5 439.2,55.3 440.9,55.1 442.6,54.9 444.3,54.7 446.0,54.7 447.7,54.5 449.4,54.4 451.1,54.3 452.8,54.1 454.5,54.0 456.2,53.9 457.9,53.8 459.6,53.4 461.3,53.2 463.0,58.2 464.7,57.2 466.4,55.3 468.1,54.6 469.8,53.7 471.5,52.6 473.2,52.0 474.9,51.6 476.6,50.9 478.3,49.8 480.0,49.0 481.7,48.8 483.4,48.4 485.1,48.0 486.8,47.5 488.5,46.9 490.2,46.3 491.9,46.0 493.6,45.5 495.3,45.2 497.0,44.8 498.7,44.6 500.4,44.3 502.1,44.0 503.8,43.5 505.5,43.1 507.2,42.6 508.9,41.9 510.6,41.5 512.3,41.3 514.0,41.1 515.7,40.8 517.4,40.4 519.1,40.0 520.8,39.6 522.5,38.6 524.2,37.8 525.8,37.4 527.5,37.2 529.2,36.9 530.9,36.4 532.6,35.9 534.3,35.3 536.0,34.9 537.7,34.5 539.4,34.2 541.1,33.7 542.8,33.5 544.5,33.3 546.2,33.1 547.9,32.9 549.6,32.5 551.3,32.4 553.0,32.1 554.7,31.9 556.4,31.7 558.1,31.3 559.8,31.2 561.5,30.9 563.2,30.7 564.9,30.5 566.6,30.3 568.3,30.2 570.0,30.0 570.0,30.0,120" />
  
  <!-- Linea principale -->
  <polyline fill="none" stroke="#0366d6" stroke-width="2.5" stroke-linecap="round" stroke-linejoin="round" points="30.0,120.0 31.7,119.4 33.4,118.7 35.1,118.2 36.8,118.0 38.5,117.7 40.2,117.0 41.9,116.6 43.6,116.2 45.3,115.5 47.0,115.2 48.7,114.8 50.4,114.6 52.1,114.3 53.8,113.8 55.5,113.3 57.2,112.9 58.9,112.6 60.6,112.4 62.3,112.1 64.0,111.7 65.7,111.4 67.4,111.2 69.1,110.9 70.8,109.8 72.5,109.4 74.2,109.0 75.8,108.5 77.5,108.1 79.2,107.8 80.9,107.5 82.6,107.3 84.3,107.0 86.0,106.5 87.7,106.0 89.4,105.7 91.1,105.3 92.8,105.2 94.5,105.1 96.2,104.9 97.9,104.5 99.6,104.3 101.3,104.1 103.0,103.7 104.7,103.1 106.4,103.0 108.1,102.9 109.8,102.6 111.5,102.1 113.2,101.8 114.9,101.3 116.6,101.0 118.3,100.5 120.0,100.4 121.7,100.1 123.4,99.7 125.1,99.2 126.8,98.9 128.5,98.7 130.2,98.5 131.9,98.3 133.6,97.8 135.3,97.3 137.0,96.9 138.7,96.5 140.4,96.3 142.1,96.1 143.8,95.9 145.5,95.6 147.2,95.4 148.9,95.2 150.6,95.0 152.3,94.8 154.0,94.6 155.7,94.4 157.4,94.3 159.1,94.2 160.8,93.8 162.5,93.5 164.2,93.4 165.8,93.2 167.5,93.2 169.2,93.2 170.9,100.8 172.6,100.1 174.3,99.4 176.0,98.7 177.7,96.6 179.4,95.1 181.1,93.6 182.8,93.0 184.5,92.3 186.2,91.3 187.9,90.1 189.6,89.2 191.3,88.9 193.0,88.6 194.7,87.7 196.4,87.1 198.1,86.7 199.8,86.2 201.5,86.0 203.2,86.0 204.9,85.5 206.6,84.8 208.3,84.3 210.0,83.8 211.7,83.2 213.4,82.9 215.1,82.7 216.8,82.2 218.5,81.8 220.2,81.3 221.9,81.0 223.6,80.9 225.3,80.7 227.0,80.5 228.7,80.1 230.4,79.8 232.1,79.6 233.8,79.3 235.5,79.1 237.2,78.9 238.9,78.7 240.6,78.5 242.3,78.3 244.0,77.9 245.7,77.6 247.4,77.3 249.1,77.1 250.8,76.9 252.5,76.7 254.2,76.5 255.8,76.3 257.5,75.8 259.2,75.4 260.9,75.0 262.6,74.8 264.3,74.7 266.0,74.5 267.7,74.3 269.4,74.0 271.1,73.7 272.8,73.4 274.5,73.1 276.2,73.0 277.9,72.9 279.6,72.7 281.3,72.6 283.0,72.3 284.7,72.1 286.4,71.8 288.1,71.7 289.8,71.5 291.5,71.4 293.2,71.3 294.9,71.0 296.6,70.8 298.3,70.5 300.0,70.3 301.7,70.0 303.4,69.8 305.1,69.7 306.8,69.6 308.5,69.2 310.2,68.9 311.9,68.7 313.6,68.4 315.3,68.0 317.0,67.9 318.7,67.8 320.4,67.7 322.1,67.4 323.8,67.3 325.5,67.0 327.2,66.9 328.9,66.7 330.6,66.5 332.3,66.3 334.0,66.2 335.7,66.1 337.4,65.9 339.1,65.6 340.8,65.4 342.5,65.2 344.2,65.1 345.8,64.9 347.5,64.7 349.2,64.6 350.9,64.5 352.6,64.3 354.3,63.9 356.0,63.6 357.7,63.4 359.4,63.2 361.1,63.1 362.8,63.0 364.5,62.8 366.2,62.5 367.9,62.3 369.6,62.2 371.3,62.0 373.0,61.8 374.7,61.6 376.4,61.5 378.1,61.4 379.8,61.1 381.5,60.9 383.2,60.6 384.9,60.4 386.6,60.3 388.3,60.2 390.0,60.1 391.7,59.9 393.4,59.8 395.1,59.6 396.8,59.4 398.5,59.2 400.2,59.1 401.9,58.9 403.6,58.8 405.3,58.6 407.0,58.4 408.7,58.1 410.4,57.9 412.1,57.7 413.8,57.6 415.5,57.5 417.2,57.4 418.9,57.3 420.6,57.2 422.3,57.0 424.0,56.7 425.7,56.6 427.4,56.4 429.1,56.3 430.8,56.1 432.5,55.9 434.2,55.7 435.8,55.6 437.5,55.5 439.2,55.3 440.9,55.1 442.6,54.9 444.3,54.7 446.0,54.7 447.7,54.5 449.4,54.4 451.1,54.3 452.8,54.1 454.5,54.0 456.2,53.9 457.9,53.8 459.6,53.4 461.3,53.2 463.0,58.2 464.7,57.2 466.4,55.3 468.1,54.6 469.8,53.7 471.5,52.6 473.2,52.0 474.9,51.6 476.6,50.9 478.3,49.8 480.0,49.0 481.7,48.8 483.4,48.4 485.1,48.0 486.8,47.5 488.5,46.9 490.2,46.3 491.9,46.0 493.6,45.5 495.3,45.2 497.0,44.8 498.7,44.6 500.4,44.3 502.1,44.0 503.8,43.5 505.5,43.1 507.2,42.6 508.9,41.9 510.6,41.5 512.3,41.3 514.0,41.1 515.7,40.8 517.4,40.4 519.1,40.0 520.8,39.6 522.5,38.6 524.2,37.8 525.8,37.4 527.5,37.2 529.2,36.9 530.9,36.4 532.6,35.9 534.3,35.3 536.0,34.9 537.7,34.5 539.4,34.2 541.1,33.7 542.8,33.5 544.5,33.3 546.2,33.1 547.9,32.9 549.6,32.5 551.3,32.4 553.0,32.1 554.7,31.9 556.4,31.7 558.1,31.3 559.8,31.2 561.5,30.9 563.2,30.7 564.9,30.5 566.6,30.3 568.3,30.2 570.0,30.0" />
  
  <!-- Punto finale luminoso -->
  <circle cx="570.0" cy="30.0" r="4" fill="#ffffff" stroke="#0366d6" stroke-width="2.5" />
</svg>