<svg width="600" height="150" viewBox="0 0 600 150" xmlns="http://www.w3.org/2000/svg">
  <defs>
    <filter id="shadow2" x="-2%" y="-2%" width="104%" height="108%">
      <feDropShadow dx="0" dy="2" stdDeviation="3" flood-opacity="0.1" />
    </filter>
    <linearGradient id="fillGrad" x1="0" y1="0" x2="0" y2="1">
      <stop offset="0%" stop-color="#0366d6" stop-opacity="0.3"/>
      <stop offset="100%" stop-color="#0366d6" stop-opacity="0.02"/>
    </linearGradient>
  </defs>
  <rect width="600" height="150" rx="12" fill="#ffffff" filter="url(#shadow2)" stroke="#e1e4e8" stroke-width="1"/>
  <text x="20" y="24" fill="#2b3137" font-family="-apple-system,BlinkMacSystemFont,'Segoe UI',Helvetica,Arial,sans-serif" font-size="14" font-weight="600">📈 Download Growth (Actual: 88.2k)</text>
  
  <!-- Area sotto la linea -->
  <polygon fill="url(#fillGrad)" points="30.0,120.0,120 30.0,120.0 31.2,119.5 32.4,119.0 33.6,118.6 34.8,118.4 36.0,118.2 37.2,117.7 38.3,117.3 39.5,117.1 40.7,116.5 41.9,116.2 43.1,115.9 44.3,115.8 45.5,115.5 46.7,115.1 47.9,114.7 49.1,114.4 50.3,114.2 51.5,114.0 52.6,113.8 53.8,113.5 55.0,113.2 56.2,113.1 57.4,112.9 58.6,112.0 59.8,111.7 61.0,111.4 62.2,111.0 63.4,110.7 64.6,110.4 65.8,110.2 67.0,110.1 68.1,109.8 69.3,109.4 70.5,109.0 71.7,108.8 72.9,108.5 74.1,108.4 75.3,108.3 76.5,108.1 77.7,107.9 78.9,107.7 80.1,107.6 81.3,107.2 82.5,106.8 83.6,106.6 84.8,106.6 86.0,106.4 87.2,106.0 88.4,105.7 89.6,105.3 90.8,105.1 92.0,104.7 93.2,104.6 94.4,104.4 95.6,104.1 96.8,103.7 97.9,103.4 99.1,103.3 100.3,103.1 101.5,103.0 102.7,102.6 103.9,102.2 105.1,101.9 106.3,101.5 107.5,101.4 108.7,101.3 109.9,101.1 111.1,100.9 112.3,100.7 113.4,100.5 114.6,100.4 115.8,100.3 117.0,100.1 118.2,100.0 119.4,99.9 120.6,99.8 121.8,99.4 123.0,99.2 124.2,99.1 125.4,99.0 126.6,98.9 127.7,98.9 128.9,105.0 130.1,104.4 131.3,103.8 132.5,103.3 133.7,101.6 134.9,100.5 136.1,99.3 137.3,98.8 138.5,98.3 139.7,97.4 140.9,96.5 142.1,95.9 143.2,95.6 144.4,95.4 145.6,94.7 146.8,94.2 148.0,93.9 149.2,93.5 150.4,93.4 151.6,93.3 152.8,92.9 154.0,92.4 155.2,92.0 156.4,91.6 157.5,91.1 158.7,90.9 159.9,90.8 161.1,90.4 162.3,90.0 163.5,89.7 164.7,89.4 165.9,89.3 167.1,89.2 168.3,89.0 169.5,88.7 170.7,88.5 171.9,88.3 173.0,88.1 174.2,87.9 175.4,87.8 176.6,87.6 177.8,87.5 179.0,87.3 180.2,87.0 181.4,86.8 182.6,86.5 183.8,86.3 185.0,86.2 186.2,86.0 187.4,85.9 188.5,85.8 189.7,85.3 190.9,85.0 192.1,84.7 193.3,84.5 194.5,84.5 195.7,84.3 196.9,84.1 198.1,83.9 199.3,83.7 200.5,83.4 201.7,83.2 202.8,83.2 204.0,83.0 205.2,82.9 206.4,82.8 207.6,82.6 208.8,82.5 210.0,82.2 211.2,82.1 212.4,82.0 213.6,81.9 214.8,81.8 216.0,81.6 217.2,81.4 218.3,81.2 219.5,81.0 220.7,80.8 221.9,80.7 223.1,80.6 224.3,80.4 225.5,80.2 226.7,79.9 227.9,79.7 229.1,79.5 230.3,79.2 231.5,79.1 232.6,79.0 233.8,78.9 235.0,78.8 236.2,78.6 237.4,78.4 238.6,78.3 239.8,78.2 241.0,78.0 242.2,77.9 243.4,77.8 244.6,77.7 245.8,77.5 247.0,77.3 248.1,77.2 249.3,77.0 250.5,76.9 251.7,76.8 252.9,76.6 254.1,76.5 255.3,76.4 256.5,76.3 257.7,76.0 258.9,75.7 260.1,75.6 261.3,75.4 262.5,75.4 263.6,75.3 264.8,75.1 266.0,74.9 267.2,74.8 268.4,74.7 269.6,74.5 270.8,74.4 272.0,74.2 273.2,74.1 274.4,74.0 275.6,73.8 276.8,73.6 277.9,73.4 279.1,73.2 280.3,73.1 281.5,73.1 282.7,73.0 283.9,72.9 285.1,72.8 286.3,72.6 287.5,72.5 288.7,72.3 289.9,72.2 291.1,72.1 292.3,72.0 293.4,71.8 294.6,71.7 295.8,71.5 297.0,71.3 298.2,71.2 299.4,71.0 300.6,71.0 301.8,70.9 303.0,70.8 304.2,70.7 305.4,70.6 306.6,70.4 307.7,70.2 308.9,70.1 310.1,70.0 311.3,69.9 312.5,69.7 313.7,69.6 314.9,69.5 316.1,69.4 317.3,69.2 318.5,69.1 319.7,69.0 320.9,68.8 322.1,68.7 323.2,68.7 324.4,68.5 325.6,68.4 326.8,68.3 328.0,68.2 329.2,68.2 330.4,68.1 331.6,67.8 332.8,67.6 334.0,71.5 335.2,70.7 336.4,69.3 337.5,68.7 338.7,68.0 339.9,67.1 341.1,66.7 342.3,66.4 343.5,65.8 344.7,65.0 345.9,64.3 347.1,64.1 348.3,63.8 349.5,63.5 350.7,63.1 351.9,62.7 353.0,62.2 354.2,62.0 355.4,61.5 356.6,61.3 357.8,61.0 359.0,60.8 360.2,60.6 361.4,60.4 362.6,60.0 363.8,59.7 365.0,59.3 366.2,58.7 367.4,58.4 368.5,58.2 369.7,58.1 370.9,57.9 372.1,57.5 373.3,57.2 374.5,56.9 375.7,56.1 376.9,55.5 378.1,55.2 379.3,55.1 380.5,54.8 381.7,54.4 382.8,54.0 384.0,53.5 385.2,53.3 386.4,53.0 387.6,52.7 388.8,52.3 390.0,52.1 391.2,52.0 392.4,51.8 393.6,51.6 394.8,51.4 396.0,51.3 397.2,51.0 398.3,50.9 399.5,50.7 400.7,50.5 401.9,50.3 403.1,50.1 404.3,50.0 405.5,49.8 406.7,49.7 407.9,49.5 409.1,49.4 410.3,49.3 411.5,49.2 412.6,49.0 413.8,48.9 415.0,48.7 416.2,48.5 417.4,48.3 418.6,48.2 419.8,48.0 421.0,47.9 422.2,47.8 423.4,47.7 424.6,47.5 425.8,47.4 427.0,47.3 428.1,47.2 429.3,47.0 430.5,46.9 431.7,46.7 432.9,46.5 434.1,46.3 435.3,46.1 436.5,45.9 437.7,45.8 438.9,45.5 440.1,45.4 441.3,45.2 442.5,45.0 443.6,44.8 444.8,44.5 446.0,44.3 447.2,44.1 448.4,44.0 449.6,43.9 450.8,43.8 452.0,43.6 453.2,43.5 454.4,43.3 455.6,43.2 456.8,43.0 457.9,42.8 459.1,42.6 460.3,42.4 461.5,42.2 462.7,41.9 463.9,41.8 465.1,41.6 466.3,41.5 467.5,41.4 468.7,41.3 469.9,41.2 471.1,40.9 472.3,40.8 473.4,40.6 474.6,40.4 475.8,40.3 477.0,40.2 478.2,40.0 479.4,40.0 480.6,39.9 481.8,39.8 483.0,39.6 484.2,39.5 485.4,39.4 486.6,39.2 487.7,39.0 488.9,38.9 490.1,38.8 491.3,38.6 492.5,38.5 493.7,38.4 494.9,38.3 496.1,38.2 497.3,38.0 498.5,37.9 499.7,37.6 500.9,37.5 502.1,37.2 503.2,37.1 504.4,37.0 505.6,36.9 506.8,36.8 508.0,36.7 509.2,36.7 510.4,36.6 511.6,36.5 512.8,36.4 514.0,36.2 515.2,36.1 516.4,35.9 517.5,35.7 518.7,35.6 519.9,35.5 521.1,35.4 522.3,35.3 523.5,35.1 524.7,35.0 525.9,34.9 527.1,34.8 528.3,34.7 529.5,34.4 530.7,34.2 531.9,33.9 533.0,33.8 534.2,33.6 535.4,33.5 536.6,33.4 537.8,33.3 539.0,33.2 540.2,33.1 541.4,32.9 542.6,32.8 543.8,32.6 545.0,32.4 546.2,32.3 547.4,32.1 548.5,32.0 549.7,31.8 550.9,31.7 552.1,31.6 553.3,31.5 554.5,31.4 555.7,31.3 556.9,31.2 558.1,31.0 559.3,30.8 560.5,30.7 561.7,30.5 562.8,30.4 564.0,30.4 565.2,30.3 566.4,30.3 567.6,30.2 568.8,30.1 570.0,30.0 570.0,30.0,120" />
  
  <!-- Linea principale -->
  <polyline fill="none" stroke="#0366d6" stroke-width="2.5" stroke-linecap="round" stroke-linejoin="round" points="30.0,120.0 31.2,119.5 32.4,119.0 33.6,118.6 34.8,118.4 36.0,118.2 37.2,117.7 38.3,117.3 39.5,117.1 40.7,116.5 41.9,116.2 43.1,115.9 44.3,115.8 45.5,115.5 46.7,115.1 47.9,114.7 49.1,114.4 50.3,114.2 51.5,114.0 52.6,113.8 53.8,113.5 55.0,113.2 56.2,113.1 57.4,112.9 58.6,112.0 59.8,111.7 61.0,111.4 62.2,111.0 63.4,110.7 64.6,110.4 65.8,110.2 67.0,110.1 68.1,109.8 69.3,109.4 70.5,109.0 71.7,108.8 72.9,108.5 74.1,108.4 75.3,108.3 76.5,108.1 77.7,107.9 78.9,107.7 80.1,107.6 81.3,107.2 82.5,106.8 83.6,106.6 84.8,106.6 86.0,106.4 87.2,106.0 88.4,105.7 89.6,105.3 90.8,105.1 92.0,104.7 93.2,104.6 94.4,104.4 95.6,104.1 96.8,103.7 97.9,103.4 99.1,103.3 100.3,103.1 101.5,103.0 102.7,102.6 103.9,102.2 105.1,101.9 106.3,101.5 107.5,101.4 108.7,101.3 109.9,101.1 111.1,100.9 112.3,100.7 113.4,100.5 114.6,100.4 115.8,100.3 117.0,100.1 118.2,100.0 119.4,99.9 120.6,99.8 121.8,99.4 123.0,99.2 124.2,99.1 125.4,99.0 126.6,98.9 127.7,98.9 128.9,105.0 130.1,104.4 131.3,103.8 132.5,103.3 133.7,101.6 134.9,100.5 136.1,99.3 137.3,98.8 138.5,98.3 139.7,97.4 140.9,96.5 142.1,95.9 143.2,95.6 144.4,95.4 145.6,94.7 146.8,94.2 148.0,93.9 149.2,93.5 150.4,93.4 151.6,93.3 152.8,92.9 154.0,92.4 155.2,92.0 156.4,91.6 157.5,91.1 158.7,90.9 159.9,90.8 161.1,90.4 162.3,90.0 163.5,89.7 164.7,89.4 165.9,89.3 167.1,89.2 168.3,89.0 169.5,88.7 170.7,88.5 171.9,88.3 173.0,88.1 174.2,87.9 175.4,87.8 176.6,87.6 177.8,87.5 179.0,87.3 180.2,87.0 181.4,86.8 182.6,86.5 183.8,86.3 185.0,86.2 186.2,86.0 187.4,85.9 188.5,85.8 189.7,85.3 190.9,85.0 192.1,84.7 193.3,84.5 194.5,84.5 195.7,84.3 196.9,84.1 198.1,83.9 199.3,83.7 200.5,83.4 201.7,83.2 202.8,83.2 204.0,83.0 205.2,82.9 206.4,82.8 207.6,82.6 208.8,82.5 210.0,82.2 211.2,82.1 212.4,82.0 213.6,81.9 214.8,81.8 216.0,81.6 217.2,81.4 218.3,81.2 219.5,81.0 220.7,80.8 221.9,80.7 223.1,80.6 224.3,80.4 225.5,80.2 226.7,79.9 227.9,79.7 229.1,79.5 230.3,79.2 231.5,79.1 232.6,79.0 233.8,78.9 235.0,78.8 236.2,78.6 237.4,78.4 238.6,78.3 239.8,78.2 241.0,78.0 242.2,77.9 243.4,77.8 244.6,77.7 245.8,77.5 247.0,77.3 248.1,77.2 249.3,77.0 250.5,76.9 251.7,76.8 252.9,76.6 254.1,76.5 255.3,76.4 256.5,76.3 257.7,76.0 258.9,75.7 260.1,75.6 261.3,75.4 262.5,75.4 263.6,75.3 264.8,75.1 266.0,74.9 267.2,74.8 268.4,74.7 269.6,74.5 270.8,74.4 272.0,74.2 273.2,74.1 274.4,74.0 275.6,73.8 276.8,73.6 277.9,73.4 279.1,73.2 280.3,73.1 281.5,73.1 282.7,73.0 283.9,72.9 285.1,72.8 286.3,72.6 287.5,72.5 288.7,72.3 289.9,72.2 291.1,72.1 292.3,72.0 293.4,71.8 294.6,71.7 295.8,71.5 297.0,71.3 298.2,71.2 299.4,71.0 300.6,71.0 301.8,70.9 303.0,70.8 304.2,70.7 305.4,70.6 306.6,70.4 307.7,70.2 308.9,70.1 310.1,70.0 311.3,69.9 312.5,69.7 313.7,69.6 314.9,69.5 316.1,69.4 317.3,69.2 318.5,69.1 319.7,69.0 320.9,68.8 322.1,68.7 323.2,68.7 324.4,68.5 325.6,68.4 326.8,68.3 328.0,68.2 329.2,68.2 330.4,68.1 331.6,67.8 332.8,67.6 334.0,71.5 335.2,70.7 336.4,69.3 337.5,68.7 338.7,68.0 339.9,67.1 341.1,66.7 342.3,66.4 343.5,65.8 344.7,65.0 345.9,64.3 347.1,64.1 348.3,63.8 349.5,63.5 350.7,63.1 351.9,62.7 353.0,62.2 354.2,62.0 355.4,61.5 356.6,61.3 357.8,61.0 359.0,60.8 360.2,60.6 361.4,60.4 362.6,60.0 363.8,59.7 365.0,59.3 366.2,58.7 367.4,58.4 368.5,58.2 369.7,58.1 370.9,57.9 372.1,57.5 373.3,57.2 374.5,56.9 375.7,56.1 376.9,55.5 378.1,55.2 379.3,55.1 380.5,54.8 381.7,54.4 382.8,54.0 384.0,53.5 385.2,53.3 386.4,53.0 387.6,52.7 388.8,52.3 390.0,52.1 391.2,52.0 392.4,51.8 393.6,51.6 394.8,51.4 396.0,51.3 397.2,51.0 398.3,50.9 399.5,50.7 400.7,50.5 401.9,50.3 403.1,50.1 404.3,50.0 405.5,49.8 406.7,49.7 407.9,49.5 409.1,49.4 410.3,49.3 411.5,49.2 412.6,49.0 413.8,48.9 415.0,48.7 416.2,48.5 417.4,48.3 418.6,48.2 419.8,48.0 421.0,47.9 422.2,47.8 423.4,47.7 424.6,47.5 425.8,47.4 427.0,47.3 428.1,47.2 429.3,47.0 430.5,46.9 431.7,46.7 432.9,46.5 434.1,46.3 435.3,46.1 436.5,45.9 437.7,45.8 438.9,45.5 440.1,45.4 441.3,45.2 442.5,45.0 443.6,44.8 444.8,44.5 446.0,44.3 447.2,44.1 448.4,44.0 449.6,43.9 450.8,43.8 452.0,43.6 453.2,43.5 454.4,43.3 455.6,43.2 456.8,43.0 457.9,42.8 459.1,42.6 460.3,42.4 461.5,42.2 462.7,41.9 463.9,41.8 465.1,41.6 466.3,41.5 467.5,41.4 468.7,41.3 469.9,41.2 471.1,40.9 472.3,40.8 473.4,40.6 474.6,40.4 475.8,40.3 477.0,40.2 478.2,40.0 479.4,40.0 480.6,39.9 481.8,39.8 483.0,39.6 484.2,39.5 485.4,39.4 486.6,39.2 487.7,39.0 488.9,38.9 490.1,38.8 491.3,38.6 492.5,38.5 493.7,38.4 494.9,38.3 496.1,38.2 497.3,38.0 498.5,37.9 499.7,37.6 500.9,37.5 502.1,37.2 503.2,37.1 504.4,37.0 505.6,36.9 506.8,36.8 508.0,36.7 509.2,36.7 510.4,36.6 511.6,36.5 512.8,36.4 514.0,36.2 515.2,36.1 516.4,35.9 517.5,35.7 518.7,35.6 519.9,35.5 521.1,35.4 522.3,35.3 523.5,35.1 524.7,35.0 525.9,34.9 527.1,34.8 528.3,34.7 529.5,34.4 530.7,34.2 531.9,33.9 533.0,33.8 534.2,33.6 535.4,33.5 536.6,33.4 537.8,33.3 539.0,33.2 540.2,33.1 541.4,32.9 542.6,32.8 543.8,32.6 545.0,32.4 546.2,32.3 547.4,32.1 548.5,32.0 549.7,31.8 550.9,31.7 552.1,31.6 553.3,31.5 554.5,31.4 555.7,31.3 556.9,31.2 558.1,31.0 559.3,30.8 560.5,30.7 561.7,30.5 562.8,30.4 564.0,30.4 565.2,30.3 566.4,30.3 567.6,30.2 568.8,30.1 570.0,30.0" />
  
  <!-- Punto finale luminoso -->
  <circle cx="570.0" cy="30.0" r="4" fill="#ffffff" stroke="#0366d6" stroke-width="2.5" />
</svg>