<svg width="600" height="150" viewBox="0 0 600 150" xmlns="http://www.w3.org/2000/svg">
  <defs>
    <filter id="shadow2" x="-2%" y="-2%" width="104%" height="108%">
      <feDropShadow dx="0" dy="2" stdDeviation="3" flood-opacity="0.1" />
    </filter>
    <linearGradient id="fillGrad" x1="0" y1="0" x2="0" y2="1">
      <stop offset="0%" stop-color="#0366d6" stop-opacity="0.3"/>
      <stop offset="100%" stop-color="#0366d6" stop-opacity="0.02"/>
    </linearGradient>
  </defs>
  <rect width="600" height="150" rx="12" fill="#ffffff" filter="url(#shadow2)" stroke="#e1e4e8" stroke-width="1"/>
  <text x="20" y="24" fill="#2b3137" font-family="-apple-system,BlinkMacSystemFont,'Segoe UI',Helvetica,Arial,sans-serif" font-size="14" font-weight="600">📈 Download Growth (Actual: 85.4k)</text>
  
  <!-- Area sotto la linea -->
  <polygon fill="url(#fillGrad)" points="30.0,120.0,120 30.0,120.0 31.5,119.5 33.0,118.9 34.5,118.3 36.0,118.2 37.4,117.9 38.9,117.3 40.4,116.9 41.9,116.6 43.4,116.0 44.9,115.6 46.4,115.3 47.9,115.1 49.3,114.8 50.8,114.4 52.3,113.9 53.8,113.6 55.3,113.3 56.8,113.1 58.3,112.8 59.8,112.5 61.2,112.2 62.7,112.1 64.2,111.8 65.7,110.7 67.2,110.4 68.7,110.0 70.2,109.6 71.7,109.3 73.1,108.9 74.6,108.7 76.1,108.5 77.6,108.3 79.1,107.8 80.6,107.3 82.1,107.0 83.6,106.7 85.0,106.6 86.5,106.5 88.0,106.3 89.5,106.0 91.0,105.8 92.5,105.7 94.0,105.3 95.5,104.7 96.9,104.6 98.4,104.5 99.9,104.3 101.4,103.8 102.9,103.6 104.4,103.1 105.9,102.8 107.4,102.4 108.8,102.3 110.3,102.1 111.8,101.6 113.3,101.2 114.8,100.9 116.3,100.8 117.8,100.6 119.3,100.4 120.7,99.9 122.2,99.5 123.7,99.1 125.2,98.7 126.7,98.5 128.2,98.4 129.7,98.3 131.2,97.9 132.6,97.7 134.1,97.6 135.6,97.4 137.1,97.3 138.6,97.0 140.1,96.9 141.6,96.8 143.1,96.7 144.5,96.3 146.0,96.0 147.5,96.0 149.0,95.8 150.5,95.7 152.0,95.7 153.5,102.7 155.0,102.0 156.4,101.4 157.9,100.7 159.4,98.8 160.9,97.5 162.4,96.1 163.9,95.6 165.4,95.0 166.9,94.0 168.3,92.9 169.8,92.2 171.3,91.9 172.8,91.6 174.3,90.8 175.8,90.3 177.3,89.9 178.8,89.5 180.2,89.3 181.7,89.2 183.2,88.8 184.7,88.2 186.2,87.7 187.7,87.2 189.2,86.7 190.7,86.5 192.1,86.3 193.6,85.8 195.1,85.4 196.6,85.1 198.1,84.7 199.6,84.6 201.1,84.5 202.6,84.3 204.0,83.9 205.5,83.7 207.0,83.4 208.5,83.2 210.0,83.0 211.5,82.8 213.0,82.6 214.5,82.5 216.0,82.3 217.4,82.0 218.9,81.7 220.4,81.4 221.9,81.2 223.4,81.0 224.9,80.9 226.4,80.7 227.9,80.5 229.3,80.0 230.8,79.7 232.3,79.3 233.8,79.1 235.3,79.1 236.8,78.9 238.3,78.7 239.8,78.4 241.2,78.2 242.7,77.8 244.2,77.6 245.7,77.5 247.2,77.4 248.7,77.2 250.2,77.1 251.7,76.9 253.1,76.7 254.6,76.4 256.1,76.3 257.6,76.2 259.1,76.0 260.6,75.9 262.1,75.7 263.6,75.5 265.0,75.2 266.5,75.0 268.0,74.8 269.5,74.6 271.0,74.6 272.5,74.4 274.0,74.1 275.5,73.8 276.9,73.6 278.4,73.4 279.9,73.0 281.4,72.9 282.9,72.8 284.4,72.7 285.9,72.5 287.4,72.3 288.8,72.1 290.3,72.0 291.8,71.8 293.3,71.6 294.8,71.5 296.3,71.3 297.8,71.3 299.3,71.1 300.7,70.8 302.2,70.7 303.7,70.4 305.2,70.3 306.7,70.2 308.2,70.0 309.7,69.9 311.2,69.8 312.6,69.6 314.1,69.3 315.6,69.0 317.1,68.8 318.6,68.6 320.1,68.6 321.6,68.5 323.1,68.3 324.5,68.0 326.0,67.9 327.5,67.8 329.0,67.6 330.5,67.4 332.0,67.2 333.5,67.1 335.0,67.0 336.4,66.7 337.9,66.5 339.4,66.3 340.9,66.1 342.4,66.0 343.9,65.9 345.4,65.9 346.9,65.7 348.3,65.5 349.8,65.4 351.3,65.2 352.8,65.0 354.3,64.9 355.8,64.8 357.3,64.6 358.8,64.5 360.2,64.3 361.7,64.0 363.2,63.9 364.7,63.7 366.2,63.6 367.7,63.5 369.2,63.4 370.7,63.3 372.1,63.2 373.6,63.0 375.1,62.8 376.6,62.6 378.1,62.5 379.6,62.4 381.1,62.2 382.6,62.1 384.0,61.9 385.5,61.8 387.0,61.6 388.5,61.5 390.0,61.3 391.5,61.2 393.0,61.0 394.5,60.9 396.0,60.8 397.4,60.7 398.9,60.6 400.4,60.4 401.9,60.3 403.4,60.3 404.9,60.1 406.4,59.8 407.9,59.6 409.3,64.1 410.8,63.2 412.3,61.5 413.8,60.9 415.3,60.1 416.8,59.1 418.3,58.6 419.8,58.2 421.2,57.5 422.7,56.6 424.2,55.8 425.7,55.6 427.2,55.2 428.7,54.9 430.2,54.4 431.7,53.9 433.1,53.4 434.6,53.1 436.1,52.6 437.6,52.4 439.1,52.0 440.6,51.8 442.1,51.5 443.6,51.3 445.0,50.8 446.5,50.5 448.0,50.0 449.5,49.4 451.0,49.0 452.5,48.8 454.0,48.6 455.5,48.4 456.9,48.0 458.4,47.6 459.9,47.3 461.4,46.4 462.9,45.7 464.4,45.3 465.9,45.2 467.4,44.9 468.8,44.4 470.3,44.0 471.8,43.4 473.3,43.1 474.8,42.7 476.3,42.4 477.8,42.0 479.3,41.8 480.7,41.6 482.2,41.4 483.7,41.2 485.2,40.9 486.7,40.8 488.2,40.5 489.7,40.3 491.2,40.1 492.6,39.8 494.1,39.7 495.6,39.5 497.1,39.3 498.6,39.1 500.1,38.9 501.6,38.8 503.1,38.6 504.5,38.5 506.0,38.4 507.5,38.2 509.0,38.0 510.5,37.8 512.0,37.6 513.5,37.4 515.0,37.3 516.4,37.0 517.9,36.9 519.4,36.8 520.9,36.6 522.4,36.5 523.9,36.3 525.4,36.2 526.9,36.1 528.3,35.9 529.8,35.7 531.3,35.5 532.8,35.2 534.3,35.1 535.8,34.9 537.3,34.6 538.8,34.4 540.2,34.2 541.7,34.0 543.2,33.8 544.7,33.5 546.2,33.3 547.7,33.0 549.2,32.8 550.7,32.5 552.1,32.4 553.6,32.3 555.1,32.1 556.6,32.0 558.1,31.8 559.6,31.6 561.1,31.5 562.6,31.3 564.0,31.1 565.5,30.8 567.0,30.5 568.5,30.3 570.0,30.0 570.0,30.0,120" />
  
  <!-- Linea principale -->
  <polyline fill="none" stroke="#0366d6" stroke-width="2.5" stroke-linecap="round" stroke-linejoin="round" points="30.0,120.0 31.5,119.5 33.0,118.9 34.5,118.3 36.0,118.2 37.4,117.9 38.9,117.3 40.4,116.9 41.9,116.6 43.4,116.0 44.9,115.6 46.4,115.3 47.9,115.1 49.3,114.8 50.8,114.4 52.3,113.9 53.8,113.6 55.3,113.3 56.8,113.1 58.3,112.8 59.8,112.5 61.2,112.2 62.7,112.1 64.2,111.8 65.7,110.7 67.2,110.4 68.7,110.0 70.2,109.6 71.7,109.3 73.1,108.9 74.6,108.7 76.1,108.5 77.6,108.3 79.1,107.8 80.6,107.3 82.1,107.0 83.6,106.7 85.0,106.6 86.5,106.5 88.0,106.3 89.5,106.0 91.0,105.8 92.5,105.7 94.0,105.3 95.5,104.7 96.9,104.6 98.4,104.5 99.9,104.3 101.4,103.8 102.9,103.6 104.4,103.1 105.9,102.8 107.4,102.4 108.8,102.3 110.3,102.1 111.8,101.6 113.3,101.2 114.8,100.9 116.3,100.8 117.8,100.6 119.3,100.4 120.7,99.9 122.2,99.5 123.7,99.1 125.2,98.7 126.7,98.5 128.2,98.4 129.7,98.3 131.2,97.9 132.6,97.7 134.1,97.6 135.6,97.4 137.1,97.3 138.6,97.0 140.1,96.9 141.6,96.8 143.1,96.7 144.5,96.3 146.0,96.0 147.5,96.0 149.0,95.8 150.5,95.7 152.0,95.7 153.5,102.7 155.0,102.0 156.4,101.4 157.9,100.7 159.4,98.8 160.9,97.5 162.4,96.1 163.9,95.6 165.4,95.0 166.9,94.0 168.3,92.9 169.8,92.2 171.3,91.9 172.8,91.6 174.3,90.8 175.8,90.3 177.3,89.9 178.8,89.5 180.2,89.3 181.7,89.2 183.2,88.8 184.7,88.2 186.2,87.7 187.7,87.2 189.2,86.7 190.7,86.5 192.1,86.3 193.6,85.8 195.1,85.4 196.6,85.1 198.1,84.7 199.6,84.6 201.1,84.5 202.6,84.3 204.0,83.9 205.5,83.7 207.0,83.4 208.5,83.2 210.0,83.0 211.5,82.8 213.0,82.6 214.5,82.5 216.0,82.3 217.4,82.0 218.9,81.7 220.4,81.4 221.9,81.2 223.4,81.0 224.9,80.9 226.4,80.7 227.9,80.5 229.3,80.0 230.8,79.7 232.3,79.3 233.8,79.1 235.3,79.1 236.8,78.9 238.3,78.7 239.8,78.4 241.2,78.2 242.7,77.8 244.2,77.6 245.7,77.5 247.2,77.4 248.7,77.2 250.2,77.1 251.7,76.9 253.1,76.7 254.6,76.4 256.1,76.3 257.6,76.2 259.1,76.0 260.6,75.9 262.1,75.7 263.6,75.5 265.0,75.2 266.5,75.0 268.0,74.8 269.5,74.6 271.0,74.6 272.5,74.4 274.0,74.1 275.5,73.8 276.9,73.6 278.4,73.4 279.9,73.0 281.4,72.9 282.9,72.8 284.4,72.7 285.9,72.5 287.4,72.3 288.8,72.1 290.3,72.0 291.8,71.8 293.3,71.6 294.8,71.5 296.3,71.3 297.8,71.3 299.3,71.1 300.7,70.8 302.2,70.7 303.7,70.4 305.2,70.3 306.7,70.2 308.2,70.0 309.7,69.9 311.2,69.8 312.6,69.6 314.1,69.3 315.6,69.0 317.1,68.8 318.6,68.6 320.1,68.6 321.6,68.5 323.1,68.3 324.5,68.0 326.0,67.9 327.5,67.8 329.0,67.6 330.5,67.4 332.0,67.2 333.5,67.1 335.0,67.0 336.4,66.7 337.9,66.5 339.4,66.3 340.9,66.1 342.4,66.0 343.9,65.9 345.4,65.9 346.9,65.7 348.3,65.5 349.8,65.4 351.3,65.2 352.8,65.0 354.3,64.9 355.8,64.8 357.3,64.6 358.8,64.5 360.2,64.3 361.7,64.0 363.2,63.9 364.7,63.7 366.2,63.6 367.7,63.5 369.2,63.4 370.7,63.3 372.1,63.2 373.6,63.0 375.1,62.8 376.6,62.6 378.1,62.5 379.6,62.4 381.1,62.2 382.6,62.1 384.0,61.9 385.5,61.8 387.0,61.6 388.5,61.5 390.0,61.3 391.5,61.2 393.0,61.0 394.5,60.9 396.0,60.8 397.4,60.7 398.9,60.6 400.4,60.4 401.9,60.3 403.4,60.3 404.9,60.1 406.4,59.8 407.9,59.6 409.3,64.1 410.8,63.2 412.3,61.5 413.8,60.9 415.3,60.1 416.8,59.1 418.3,58.6 419.8,58.2 421.2,57.5 422.7,56.6 424.2,55.8 425.7,55.6 427.2,55.2 428.7,54.9 430.2,54.4 431.7,53.9 433.1,53.4 434.6,53.1 436.1,52.6 437.6,52.4 439.1,52.0 440.6,51.8 442.1,51.5 443.6,51.3 445.0,50.8 446.5,50.5 448.0,50.0 449.5,49.4 451.0,49.0 452.5,48.8 454.0,48.6 455.5,48.4 456.9,48.0 458.4,47.6 459.9,47.3 461.4,46.4 462.9,45.7 464.4,45.3 465.9,45.2 467.4,44.9 468.8,44.4 470.3,44.0 471.8,43.4 473.3,43.1 474.8,42.7 476.3,42.4 477.8,42.0 479.3,41.8 480.7,41.6 482.2,41.4 483.7,41.2 485.2,40.9 486.7,40.8 488.2,40.5 489.7,40.3 491.2,40.1 492.6,39.8 494.1,39.7 495.6,39.5 497.1,39.3 498.6,39.1 500.1,38.9 501.6,38.8 503.1,38.6 504.5,38.5 506.0,38.4 507.5,38.2 509.0,38.0 510.5,37.8 512.0,37.6 513.5,37.4 515.0,37.3 516.4,37.0 517.9,36.9 519.4,36.8 520.9,36.6 522.4,36.5 523.9,36.3 525.4,36.2 526.9,36.1 528.3,35.9 529.8,35.7 531.3,35.5 532.8,35.2 534.3,35.1 535.8,34.9 537.3,34.6 538.8,34.4 540.2,34.2 541.7,34.0 543.2,33.8 544.7,33.5 546.2,33.3 547.7,33.0 549.2,32.8 550.7,32.5 552.1,32.4 553.6,32.3 555.1,32.1 556.6,32.0 558.1,31.8 559.6,31.6 561.1,31.5 562.6,31.3 564.0,31.1 565.5,30.8 567.0,30.5 568.5,30.3 570.0,30.0" />
  
  <!-- Punto finale luminoso -->
  <circle cx="570.0" cy="30.0" r="4" fill="#ffffff" stroke="#0366d6" stroke-width="2.5" />
</svg>