<svg width="600" height="150" viewBox="0 0 600 150" xmlns="http://www.w3.org/2000/svg">
  <defs>
    <filter id="shadow2" x="-2%" y="-2%" width="104%" height="108%">
      <feDropShadow dx="0" dy="2" stdDeviation="3" flood-opacity="0.1" />
    </filter>
    <linearGradient id="fillGrad" x1="0" y1="0" x2="0" y2="1">
      <stop offset="0%" stop-color="#0366d6" stop-opacity="0.3"/>
      <stop offset="100%" stop-color="#0366d6" stop-opacity="0.02"/>
    </linearGradient>
  </defs>
  <rect width="600" height="150" rx="12" fill="#ffffff" filter="url(#shadow2)" stroke="#e1e4e8" stroke-width="1"/>
  <text x="20" y="24" fill="#2b3137" font-family="-apple-system,BlinkMacSystemFont,'Segoe UI',Helvetica,Arial,sans-serif" font-size="14" font-weight="600">📈 Download Growth (Actual: 85.1k)</text>
  
  <!-- Area sotto la linea -->
  <polygon fill="url(#fillGrad)" points="30.0,120.0,120 30.0,120.0 31.5,119.4 33.0,118.8 34.5,118.3 36.0,118.2 37.5,117.9 39.1,117.3 40.6,116.8 42.1,116.6 43.6,115.9 45.1,115.6 46.6,115.2 48.1,115.0 49.6,114.7 51.1,114.3 52.6,113.8 54.1,113.5 55.6,113.2 57.2,113.0 58.7,112.7 60.2,112.4 61.7,112.1 63.2,111.9 64.7,111.6 66.2,110.6 67.7,110.3 69.2,109.9 70.7,109.5 72.2,109.1 73.7,108.8 75.3,108.5 76.8,108.4 78.3,108.1 79.8,107.6 81.3,107.1 82.8,106.8 84.3,106.5 85.8,106.4 87.3,106.3 88.8,106.1 90.3,105.8 91.8,105.6 93.4,105.5 94.9,105.1 96.4,104.5 97.9,104.4 99.4,104.3 100.9,104.1 102.4,103.6 103.9,103.3 105.4,102.9 106.9,102.5 108.4,102.1 109.9,102.0 111.5,101.8 113.0,101.4 114.5,101.0 116.0,100.6 117.5,100.5 119.0,100.3 120.5,100.1 122.0,99.6 123.5,99.2 125.0,98.8 126.5,98.4 128.0,98.2 129.6,98.1 131.1,97.9 132.6,97.6 134.1,97.4 135.6,97.2 137.1,97.1 138.6,96.9 140.1,96.7 141.6,96.6 143.1,96.5 144.6,96.4 146.1,95.9 147.7,95.7 149.2,95.6 150.7,95.5 152.2,95.4 153.7,95.4 155.2,102.4 156.7,101.7 158.2,101.1 159.7,100.5 161.2,98.5 162.7,97.2 164.2,95.8 165.8,95.2 167.3,94.6 168.8,93.6 170.3,92.6 171.8,91.8 173.3,91.5 174.8,91.2 176.3,90.4 177.8,89.9 179.3,89.5 180.8,89.0 182.3,88.9 183.9,88.8 185.4,88.4 186.9,87.7 188.4,87.2 189.9,86.8 191.4,86.2 192.9,86.0 194.4,85.8 195.9,85.4 197.4,84.9 198.9,84.6 200.4,84.2 202.0,84.1 203.5,84.0 205.0,83.8 206.5,83.4 208.0,83.2 209.5,82.9 211.0,82.7 212.5,82.5 214.0,82.3 215.5,82.1 217.0,82.0 218.5,81.8 220.1,81.4 221.6,81.1 223.1,80.8 224.6,80.6 226.1,80.4 227.6,80.3 229.1,80.1 230.6,80.0 232.1,79.5 233.6,79.1 235.1,78.7 236.6,78.5 238.2,78.5 239.7,78.3 241.2,78.1 242.7,77.8 244.2,77.6 245.7,77.2 247.2,77.0 248.7,76.9 250.2,76.8 251.7,76.6 253.2,76.5 254.7,76.3 256.3,76.1 257.8,75.8 259.3,75.7 260.8,75.6 262.3,75.4 263.8,75.3 265.3,75.1 266.8,74.8 268.3,74.6 269.8,74.4 271.3,74.2 272.8,74.0 274.4,73.9 275.9,73.7 277.4,73.4 278.9,73.1 280.4,72.9 281.9,72.7 283.4,72.3 284.9,72.2 286.4,72.1 287.9,72.0 289.4,71.8 290.9,71.6 292.5,71.4 294.0,71.3 295.5,71.1 297.0,70.9 298.5,70.8 300.0,70.6 301.5,70.6 303.0,70.4 304.5,70.1 306.0,70.0 307.5,69.7 309.1,69.6 310.6,69.5 312.1,69.3 313.6,69.2 315.1,69.1 316.6,68.9 318.1,68.6 319.6,68.3 321.1,68.1 322.6,67.9 324.1,67.8 325.6,67.7 327.2,67.5 328.7,67.2 330.2,67.1 331.7,67.0 333.2,66.8 334.7,66.6 336.2,66.4 337.7,66.3 339.2,66.2 340.7,66.0 342.2,65.8 343.7,65.5 345.3,65.3 346.8,65.2 348.3,65.2 349.8,65.1 351.3,64.9 352.8,64.8 354.3,64.6 355.8,64.4 357.3,64.2 358.8,64.1 360.3,64.0 361.8,63.8 363.4,63.7 364.9,63.5 366.4,63.2 367.9,63.1 369.4,62.9 370.9,62.8 372.4,62.7 373.9,62.6 375.4,62.5 376.9,62.4 378.4,62.2 379.9,62.0 381.5,61.8 383.0,61.7 384.5,61.5 386.0,61.4 387.5,61.2 389.0,61.1 390.5,60.9 392.0,60.8 393.5,60.7 395.0,60.5 396.5,60.3 398.0,60.2 399.6,60.1 401.1,60.0 402.6,59.8 404.1,59.7 405.6,59.6 407.1,59.5 408.6,59.4 410.1,59.3 411.6,58.9 413.1,58.7 414.6,63.3 416.1,62.4 417.7,60.7 419.2,60.0 420.7,59.2 422.2,58.2 423.7,57.7 425.2,57.3 426.7,56.6 428.2,55.7 429.7,54.9 431.2,54.7 432.7,54.3 434.2,54.0 435.8,53.5 437.3,53.0 438.8,52.4 440.3,52.2 441.8,51.7 443.3,51.4 444.8,51.0 446.3,50.8 447.8,50.6 449.3,50.3 450.8,49.8 452.3,49.5 453.9,49.0 455.4,48.4 456.9,48.0 458.4,47.8 459.9,47.6 461.4,47.4 462.9,47.0 464.4,46.6 465.9,46.3 467.4,45.3 468.9,44.6 470.4,44.3 472.0,44.1 473.5,43.8 475.0,43.3 476.5,42.9 478.0,42.3 479.5,42.0 481.0,41.6 482.5,41.3 484.0,40.9 485.5,40.6 487.0,40.5 488.5,40.3 490.1,40.1 491.6,39.8 493.1,39.6 494.6,39.4 496.1,39.2 497.6,39.0 499.1,38.7 500.6,38.5 502.1,38.3 503.6,38.1 505.1,37.9 506.6,37.8 508.2,37.6 509.7,37.5 511.2,37.3 512.7,37.2 514.2,37.0 515.7,36.8 517.2,36.6 518.7,36.4 520.2,36.2 521.7,36.1 523.2,35.9 524.7,35.7 526.3,35.6 527.8,35.5 529.3,35.3 530.8,35.1 532.3,35.1 533.8,34.9 535.3,34.7 536.8,34.5 538.3,34.3 539.8,34.0 541.3,33.9 542.8,33.6 544.4,33.4 545.9,33.2 547.4,33.0 548.9,32.7 550.4,32.5 551.9,32.3 553.4,32.0 554.9,31.8 556.4,31.5 557.9,31.3 559.4,31.1 560.9,31.0 562.5,30.9 564.0,30.7 565.5,30.6 567.0,30.4 568.5,30.2 570.0,30.0 570.0,30.0,120" />
  
  <!-- Linea principale -->
  <polyline fill="none" stroke="#0366d6" stroke-width="2.5" stroke-linecap="round" stroke-linejoin="round" points="30.0,120.0 31.5,119.4 33.0,118.8 34.5,118.3 36.0,118.2 37.5,117.9 39.1,117.3 40.6,116.8 42.1,116.6 43.6,115.9 45.1,115.6 46.6,115.2 48.1,115.0 49.6,114.7 51.1,114.3 52.6,113.8 54.1,113.5 55.6,113.2 57.2,113.0 58.7,112.7 60.2,112.4 61.7,112.1 63.2,111.9 64.7,111.6 66.2,110.6 67.7,110.3 69.2,109.9 70.7,109.5 72.2,109.1 73.7,108.8 75.3,108.5 76.8,108.4 78.3,108.1 79.8,107.6 81.3,107.1 82.8,106.8 84.3,106.5 85.8,106.4 87.3,106.3 88.8,106.1 90.3,105.8 91.8,105.6 93.4,105.5 94.9,105.1 96.4,104.5 97.9,104.4 99.4,104.3 100.9,104.1 102.4,103.6 103.9,103.3 105.4,102.9 106.9,102.5 108.4,102.1 109.9,102.0 111.5,101.8 113.0,101.4 114.5,101.0 116.0,100.6 117.5,100.5 119.0,100.3 120.5,100.1 122.0,99.6 123.5,99.2 125.0,98.8 126.5,98.4 128.0,98.2 129.6,98.1 131.1,97.9 132.6,97.6 134.1,97.4 135.6,97.2 137.1,97.1 138.6,96.9 140.1,96.7 141.6,96.6 143.1,96.5 144.6,96.4 146.1,95.9 147.7,95.7 149.2,95.6 150.7,95.5 152.2,95.4 153.7,95.4 155.2,102.4 156.7,101.7 158.2,101.1 159.7,100.5 161.2,98.5 162.7,97.2 164.2,95.8 165.8,95.2 167.3,94.6 168.8,93.6 170.3,92.6 171.8,91.8 173.3,91.5 174.8,91.2 176.3,90.4 177.8,89.9 179.3,89.5 180.8,89.0 182.3,88.9 183.9,88.8 185.4,88.4 186.9,87.7 188.4,87.2 189.9,86.8 191.4,86.2 192.9,86.0 194.4,85.8 195.9,85.4 197.4,84.9 198.9,84.6 200.4,84.2 202.0,84.1 203.5,84.0 205.0,83.8 206.5,83.4 208.0,83.2 209.5,82.9 211.0,82.7 212.5,82.5 214.0,82.3 215.5,82.1 217.0,82.0 218.5,81.8 220.1,81.4 221.6,81.1 223.1,80.8 224.6,80.6 226.1,80.4 227.6,80.3 229.1,80.1 230.6,80.0 232.1,79.5 233.6,79.1 235.1,78.7 236.6,78.5 238.2,78.5 239.7,78.3 241.2,78.1 242.7,77.8 244.2,77.6 245.7,77.2 247.2,77.0 248.7,76.9 250.2,76.8 251.7,76.6 253.2,76.5 254.7,76.3 256.3,76.1 257.8,75.8 259.3,75.7 260.8,75.6 262.3,75.4 263.8,75.3 265.3,75.1 266.8,74.8 268.3,74.6 269.8,74.4 271.3,74.2 272.8,74.0 274.4,73.9 275.9,73.7 277.4,73.4 278.9,73.1 280.4,72.9 281.9,72.7 283.4,72.3 284.9,72.2 286.4,72.1 287.9,72.0 289.4,71.8 290.9,71.6 292.5,71.4 294.0,71.3 295.5,71.1 297.0,70.9 298.5,70.8 300.0,70.6 301.5,70.6 303.0,70.4 304.5,70.1 306.0,70.0 307.5,69.7 309.1,69.6 310.6,69.5 312.1,69.3 313.6,69.2 315.1,69.1 316.6,68.9 318.1,68.6 319.6,68.3 321.1,68.1 322.6,67.9 324.1,67.8 325.6,67.7 327.2,67.5 328.7,67.2 330.2,67.1 331.7,67.0 333.2,66.8 334.7,66.6 336.2,66.4 337.7,66.3 339.2,66.2 340.7,66.0 342.2,65.8 343.7,65.5 345.3,65.3 346.8,65.2 348.3,65.2 349.8,65.1 351.3,64.9 352.8,64.8 354.3,64.6 355.8,64.4 357.3,64.2 358.8,64.1 360.3,64.0 361.8,63.8 363.4,63.7 364.9,63.5 366.4,63.2 367.9,63.1 369.4,62.9 370.9,62.8 372.4,62.7 373.9,62.6 375.4,62.5 376.9,62.4 378.4,62.2 379.9,62.0 381.5,61.8 383.0,61.7 384.5,61.5 386.0,61.4 387.5,61.2 389.0,61.1 390.5,60.9 392.0,60.8 393.5,60.7 395.0,60.5 396.5,60.3 398.0,60.2 399.6,60.1 401.1,60.0 402.6,59.8 404.1,59.7 405.6,59.6 407.1,59.5 408.6,59.4 410.1,59.3 411.6,58.9 413.1,58.7 414.6,63.3 416.1,62.4 417.7,60.7 419.2,60.0 420.7,59.2 422.2,58.2 423.7,57.7 425.2,57.3 426.7,56.6 428.2,55.7 429.7,54.9 431.2,54.7 432.7,54.3 434.2,54.0 435.8,53.5 437.3,53.0 438.8,52.4 440.3,52.2 441.8,51.7 443.3,51.4 444.8,51.0 446.3,50.8 447.8,50.6 449.3,50.3 450.8,49.8 452.3,49.5 453.9,49.0 455.4,48.4 456.9,48.0 458.4,47.8 459.9,47.6 461.4,47.4 462.9,47.0 464.4,46.6 465.9,46.3 467.4,45.3 468.9,44.6 470.4,44.3 472.0,44.1 473.5,43.8 475.0,43.3 476.5,42.9 478.0,42.3 479.5,42.0 481.0,41.6 482.5,41.3 484.0,40.9 485.5,40.6 487.0,40.5 488.5,40.3 490.1,40.1 491.6,39.8 493.1,39.6 494.6,39.4 496.1,39.2 497.6,39.0 499.1,38.7 500.6,38.5 502.1,38.3 503.6,38.1 505.1,37.9 506.6,37.8 508.2,37.6 509.7,37.5 511.2,37.3 512.7,37.2 514.2,37.0 515.7,36.8 517.2,36.6 518.7,36.4 520.2,36.2 521.7,36.1 523.2,35.9 524.7,35.7 526.3,35.6 527.8,35.5 529.3,35.3 530.8,35.1 532.3,35.1 533.8,34.9 535.3,34.7 536.8,34.5 538.3,34.3 539.8,34.0 541.3,33.9 542.8,33.6 544.4,33.4 545.9,33.2 547.4,33.0 548.9,32.7 550.4,32.5 551.9,32.3 553.4,32.0 554.9,31.8 556.4,31.5 557.9,31.3 559.4,31.1 560.9,31.0 562.5,30.9 564.0,30.7 565.5,30.6 567.0,30.4 568.5,30.2 570.0,30.0" />
  
  <!-- Punto finale luminoso -->
  <circle cx="570.0" cy="30.0" r="4" fill="#ffffff" stroke="#0366d6" stroke-width="2.5" />
</svg>