<svg width="600" height="150" viewBox="0 0 600 150" xmlns="http://www.w3.org/2000/svg">
  <defs>
    <filter id="shadow2" x="-2%" y="-2%" width="104%" height="108%">
      <feDropShadow dx="0" dy="2" stdDeviation="3" flood-opacity="0.1" />
    </filter>
    <linearGradient id="fillGrad" x1="0" y1="0" x2="0" y2="1">
      <stop offset="0%" stop-color="#0366d6" stop-opacity="0.3"/>
      <stop offset="100%" stop-color="#0366d6" stop-opacity="0.02"/>
    </linearGradient>
  </defs>
  <rect width="600" height="150" rx="12" fill="#ffffff" filter="url(#shadow2)" stroke="#e1e4e8" stroke-width="1"/>
  <text x="20" y="24" fill="#2b3137" font-family="-apple-system,BlinkMacSystemFont,'Segoe UI',Helvetica,Arial,sans-serif" font-size="14" font-weight="600">📈 Download Growth (Actual: 86.2k)</text>
  
  <!-- Area sotto la linea -->
  <polygon fill="url(#fillGrad)" points="30.0,120.0,120 30.0,120.0 31.4,119.5 32.8,118.9 34.2,118.4 35.6,118.3 37.0,118.0 38.4,117.4 39.7,117.0 41.1,116.7 42.5,116.1 43.9,115.8 45.3,115.5 46.7,115.3 48.1,115.0 49.5,114.6 50.9,114.2 52.3,113.8 53.7,113.6 55.1,113.4 56.4,113.1 57.8,112.8 59.2,112.5 60.6,112.4 62.0,112.1 63.4,111.1 64.8,110.8 66.2,110.4 67.6,110.1 69.0,109.7 70.4,109.4 71.8,109.2 73.1,109.0 74.5,108.7 75.9,108.3 77.3,107.9 78.7,107.6 80.1,107.2 81.5,107.1 82.9,107.1 84.3,106.9 85.7,106.6 87.1,106.4 88.5,106.3 89.8,105.9 91.2,105.4 92.6,105.2 94.0,105.1 95.4,104.9 96.8,104.5 98.2,104.2 99.6,103.8 101.0,103.5 102.4,103.1 103.8,103.0 105.2,102.8 106.5,102.4 107.9,102.0 109.3,101.7 110.7,101.6 112.1,101.4 113.5,101.2 114.9,100.8 116.3,100.3 117.7,100.0 119.1,99.6 120.5,99.4 121.9,99.3 123.2,99.2 124.6,98.9 126.0,98.7 127.4,98.5 128.8,98.3 130.2,98.2 131.6,98.0 133.0,97.9 134.4,97.8 135.8,97.7 137.2,97.3 138.6,97.0 139.9,97.0 141.3,96.8 142.7,96.7 144.1,96.7 145.5,103.4 146.9,102.7 148.3,102.1 149.7,101.5 151.1,99.7 152.5,98.5 153.9,97.1 155.3,96.6 156.6,96.0 158.0,95.1 159.4,94.1 160.8,93.3 162.2,93.0 163.6,92.8 165.0,92.0 166.4,91.5 167.8,91.2 169.2,90.7 170.6,90.6 172.0,90.5 173.4,90.1 174.7,89.5 176.1,89.1 177.5,88.6 178.9,88.1 180.3,87.9 181.7,87.7 183.1,87.3 184.5,86.9 185.9,86.5 187.3,86.2 188.7,86.1 190.1,86.0 191.4,85.8 192.8,85.4 194.2,85.2 195.6,84.9 197.0,84.8 198.4,84.6 199.8,84.4 201.2,84.2 202.6,84.0 204.0,83.9 205.4,83.5 206.8,83.3 208.1,83.0 209.5,82.8 210.9,82.6 212.3,82.5 213.7,82.3 215.1,82.2 216.5,81.7 217.9,81.4 219.3,81.0 220.7,80.8 222.1,80.8 223.5,80.6 224.8,80.4 226.2,80.1 227.6,79.9 229.0,79.6 230.4,79.4 231.8,79.3 233.2,79.1 234.6,79.0 236.0,78.9 237.4,78.7 238.8,78.5 240.2,78.2 241.5,78.1 242.9,78.0 244.3,77.9 245.7,77.8 247.1,77.5 248.5,77.3 249.9,77.1 251.3,76.9 252.7,76.7 254.1,76.5 255.5,76.4 256.9,76.3 258.2,76.0 259.6,75.7 261.0,75.5 262.4,75.3 263.8,74.9 265.2,74.9 266.6,74.7 268.0,74.6 269.4,74.5 270.8,74.3 272.2,74.1 273.6,74.0 274.9,73.8 276.3,73.6 277.7,73.5 279.1,73.4 280.5,73.3 281.9,73.1 283.3,72.8 284.7,72.7 286.1,72.5 287.5,72.4 288.9,72.3 290.3,72.1 291.6,72.0 293.0,71.9 294.4,71.7 295.8,71.4 297.2,71.1 298.6,70.9 300.0,70.8 301.4,70.7 302.8,70.6 304.2,70.4 305.6,70.2 307.0,70.0 308.4,69.9 309.7,69.7 311.1,69.6 312.5,69.4 313.9,69.3 315.3,69.2 316.7,68.9 318.1,68.8 319.5,68.5 320.9,68.3 322.3,68.2 323.7,68.2 325.1,68.1 326.4,68.0 327.8,67.8 329.2,67.6 330.6,67.5 332.0,67.3 333.4,67.2 334.8,67.1 336.2,66.9 337.6,66.8 339.0,66.6 340.4,66.4 341.8,66.2 343.1,66.0 344.5,65.9 345.9,65.8 347.3,65.7 348.7,65.6 350.1,65.5 351.5,65.4 352.9,65.2 354.3,65.0 355.7,64.9 357.1,64.8 358.5,64.6 359.8,64.5 361.2,64.3 362.6,64.2 364.0,64.1 365.4,63.9 366.8,63.8 368.2,63.6 369.6,63.4 371.0,63.4 372.4,63.3 373.8,63.2 375.2,63.0 376.5,62.9 377.9,62.8 379.3,62.7 380.7,62.6 382.1,62.3 383.5,62.1 384.9,66.4 386.3,65.6 387.7,63.9 389.1,63.3 390.5,62.6 391.9,61.6 393.2,61.1 394.6,60.7 396.0,60.1 397.4,59.2 398.8,58.5 400.2,58.3 401.6,57.9 403.0,57.6 404.4,57.1 405.8,56.7 407.2,56.1 408.6,55.9 409.9,55.4 411.3,55.2 412.7,54.8 414.1,54.6 415.5,54.4 416.9,54.1 418.3,53.7 419.7,53.3 421.1,52.9 422.5,52.3 423.9,52.0 425.3,51.8 426.6,51.6 428.0,51.4 429.4,51.0 430.8,50.6 432.2,50.3 433.6,49.5 435.0,48.8 436.4,48.4 437.8,48.3 439.2,48.0 440.6,47.5 442.0,47.1 443.4,46.6 444.7,46.3 446.1,45.9 447.5,45.6 448.9,45.2 450.3,45.0 451.7,44.8 453.1,44.7 454.5,44.5 455.9,44.2 457.3,44.1 458.7,43.8 460.1,43.6 461.4,43.5 462.8,43.2 464.2,43.0 465.6,42.8 467.0,42.6 468.4,42.4 469.8,42.3 471.2,42.2 472.6,42.0 474.0,41.9 475.4,41.8 476.8,41.6 478.1,41.4 479.5,41.2 480.9,41.0 482.3,40.8 483.7,40.7 485.1,40.5 486.5,40.4 487.9,40.3 489.3,40.1 490.7,40.0 492.1,39.8 493.5,39.7 494.8,39.6 496.2,39.4 497.6,39.2 499.0,39.0 500.4,38.8 501.8,38.6 503.2,38.4 504.6,38.2 506.0,38.0 507.4,37.7 508.8,37.5 510.2,37.3 511.5,37.1 512.9,36.9 514.3,36.6 515.7,36.4 517.1,36.1 518.5,36.0 519.9,35.9 521.3,35.8 522.7,35.6 524.1,35.5 525.5,35.3 526.9,35.2 528.2,34.9 529.6,34.7 531.0,34.5 532.4,34.2 533.8,34.0 535.2,33.7 536.6,33.6 538.0,33.4 539.4,33.3 540.8,33.2 542.2,33.1 543.6,32.9 544.9,32.7 546.3,32.5 547.7,32.2 549.1,32.1 550.5,31.9 551.9,31.8 553.3,31.7 554.7,31.6 556.1,31.5 557.5,31.4 558.9,31.2 560.3,31.1 561.6,30.9 563.0,30.7 564.4,30.5 565.8,30.4 567.2,30.3 568.6,30.1 570.0,30.0 570.0,30.0,120" />
  
  <!-- Linea principale -->
  <polyline fill="none" stroke="#0366d6" stroke-width="2.5" stroke-linecap="round" stroke-linejoin="round" points="30.0,120.0 31.4,119.5 32.8,118.9 34.2,118.4 35.6,118.3 37.0,118.0 38.4,117.4 39.7,117.0 41.1,116.7 42.5,116.1 43.9,115.8 45.3,115.5 46.7,115.3 48.1,115.0 49.5,114.6 50.9,114.2 52.3,113.8 53.7,113.6 55.1,113.4 56.4,113.1 57.8,112.8 59.2,112.5 60.6,112.4 62.0,112.1 63.4,111.1 64.8,110.8 66.2,110.4 67.6,110.1 69.0,109.7 70.4,109.4 71.8,109.2 73.1,109.0 74.5,108.7 75.9,108.3 77.3,107.9 78.7,107.6 80.1,107.2 81.5,107.1 82.9,107.1 84.3,106.9 85.7,106.6 87.1,106.4 88.5,106.3 89.8,105.9 91.2,105.4 92.6,105.2 94.0,105.1 95.4,104.9 96.8,104.5 98.2,104.2 99.6,103.8 101.0,103.5 102.4,103.1 103.8,103.0 105.2,102.8 106.5,102.4 107.9,102.0 109.3,101.7 110.7,101.6 112.1,101.4 113.5,101.2 114.9,100.8 116.3,100.3 117.7,100.0 119.1,99.6 120.5,99.4 121.9,99.3 123.2,99.2 124.6,98.9 126.0,98.7 127.4,98.5 128.8,98.3 130.2,98.2 131.6,98.0 133.0,97.9 134.4,97.8 135.8,97.7 137.2,97.3 138.6,97.0 139.9,97.0 141.3,96.8 142.7,96.7 144.1,96.7 145.5,103.4 146.9,102.7 148.3,102.1 149.7,101.5 151.1,99.7 152.5,98.5 153.9,97.1 155.3,96.6 156.6,96.0 158.0,95.1 159.4,94.1 160.8,93.3 162.2,93.0 163.6,92.8 165.0,92.0 166.4,91.5 167.8,91.2 169.2,90.7 170.6,90.6 172.0,90.5 173.4,90.1 174.7,89.5 176.1,89.1 177.5,88.6 178.9,88.1 180.3,87.9 181.7,87.7 183.1,87.3 184.5,86.9 185.9,86.5 187.3,86.2 188.7,86.1 190.1,86.0 191.4,85.8 192.8,85.4 194.2,85.2 195.6,84.9 197.0,84.8 198.4,84.6 199.8,84.4 201.2,84.2 202.6,84.0 204.0,83.9 205.4,83.5 206.8,83.3 208.1,83.0 209.5,82.8 210.9,82.6 212.3,82.5 213.7,82.3 215.1,82.2 216.5,81.7 217.9,81.4 219.3,81.0 220.7,80.8 222.1,80.8 223.5,80.6 224.8,80.4 226.2,80.1 227.6,79.9 229.0,79.6 230.4,79.4 231.8,79.3 233.2,79.1 234.6,79.0 236.0,78.9 237.4,78.7 238.8,78.5 240.2,78.2 241.5,78.1 242.9,78.0 244.3,77.9 245.7,77.8 247.1,77.5 248.5,77.3 249.9,77.1 251.3,76.9 252.7,76.7 254.1,76.5 255.5,76.4 256.9,76.3 258.2,76.0 259.6,75.7 261.0,75.5 262.4,75.3 263.8,74.9 265.2,74.9 266.6,74.7 268.0,74.6 269.4,74.5 270.8,74.3 272.2,74.1 273.6,74.0 274.9,73.8 276.3,73.6 277.7,73.5 279.1,73.4 280.5,73.3 281.9,73.1 283.3,72.8 284.7,72.7 286.1,72.5 287.5,72.4 288.9,72.3 290.3,72.1 291.6,72.0 293.0,71.9 294.4,71.7 295.8,71.4 297.2,71.1 298.6,70.9 300.0,70.8 301.4,70.7 302.8,70.6 304.2,70.4 305.6,70.2 307.0,70.0 308.4,69.9 309.7,69.7 311.1,69.6 312.5,69.4 313.9,69.3 315.3,69.2 316.7,68.9 318.1,68.8 319.5,68.5 320.9,68.3 322.3,68.2 323.7,68.2 325.1,68.1 326.4,68.0 327.8,67.8 329.2,67.6 330.6,67.5 332.0,67.3 333.4,67.2 334.8,67.1 336.2,66.9 337.6,66.8 339.0,66.6 340.4,66.4 341.8,66.2 343.1,66.0 344.5,65.9 345.9,65.8 347.3,65.7 348.7,65.6 350.1,65.5 351.5,65.4 352.9,65.2 354.3,65.0 355.7,64.9 357.1,64.8 358.5,64.6 359.8,64.5 361.2,64.3 362.6,64.2 364.0,64.1 365.4,63.9 366.8,63.8 368.2,63.6 369.6,63.4 371.0,63.4 372.4,63.3 373.8,63.2 375.2,63.0 376.5,62.9 377.9,62.8 379.3,62.7 380.7,62.6 382.1,62.3 383.5,62.1 384.9,66.4 386.3,65.6 387.7,63.9 389.1,63.3 390.5,62.6 391.9,61.6 393.2,61.1 394.6,60.7 396.0,60.1 397.4,59.2 398.8,58.5 400.2,58.3 401.6,57.9 403.0,57.6 404.4,57.1 405.8,56.7 407.2,56.1 408.6,55.9 409.9,55.4 411.3,55.2 412.7,54.8 414.1,54.6 415.5,54.4 416.9,54.1 418.3,53.7 419.7,53.3 421.1,52.9 422.5,52.3 423.9,52.0 425.3,51.8 426.6,51.6 428.0,51.4 429.4,51.0 430.8,50.6 432.2,50.3 433.6,49.5 435.0,48.8 436.4,48.4 437.8,48.3 439.2,48.0 440.6,47.5 442.0,47.1 443.4,46.6 444.7,46.3 446.1,45.9 447.5,45.6 448.9,45.2 450.3,45.0 451.7,44.8 453.1,44.7 454.5,44.5 455.9,44.2 457.3,44.1 458.7,43.8 460.1,43.6 461.4,43.5 462.8,43.2 464.2,43.0 465.6,42.8 467.0,42.6 468.4,42.4 469.8,42.3 471.2,42.2 472.6,42.0 474.0,41.9 475.4,41.8 476.8,41.6 478.1,41.4 479.5,41.2 480.9,41.0 482.3,40.8 483.7,40.7 485.1,40.5 486.5,40.4 487.9,40.3 489.3,40.1 490.7,40.0 492.1,39.8 493.5,39.7 494.8,39.6 496.2,39.4 497.6,39.2 499.0,39.0 500.4,38.8 501.8,38.6 503.2,38.4 504.6,38.2 506.0,38.0 507.4,37.7 508.8,37.5 510.2,37.3 511.5,37.1 512.9,36.9 514.3,36.6 515.7,36.4 517.1,36.1 518.5,36.0 519.9,35.9 521.3,35.8 522.7,35.6 524.1,35.5 525.5,35.3 526.9,35.2 528.2,34.9 529.6,34.7 531.0,34.5 532.4,34.2 533.8,34.0 535.2,33.7 536.6,33.6 538.0,33.4 539.4,33.3 540.8,33.2 542.2,33.1 543.6,32.9 544.9,32.7 546.3,32.5 547.7,32.2 549.1,32.1 550.5,31.9 551.9,31.8 553.3,31.7 554.7,31.6 556.1,31.5 557.5,31.4 558.9,31.2 560.3,31.1 561.6,30.9 563.0,30.7 564.4,30.5 565.8,30.4 567.2,30.3 568.6,30.1 570.0,30.0" />
  
  <!-- Punto finale luminoso -->
  <circle cx="570.0" cy="30.0" r="4" fill="#ffffff" stroke="#0366d6" stroke-width="2.5" />
</svg>