<svg width="600" height="150" viewBox="0 0 600 150" xmlns="http://www.w3.org/2000/svg">
  <defs>
    <filter id="shadow2" x="-2%" y="-2%" width="104%" height="108%">
      <feDropShadow dx="0" dy="2" stdDeviation="3" flood-opacity="0.1" />
    </filter>
    <linearGradient id="fillGrad" x1="0" y1="0" x2="0" y2="1">
      <stop offset="0%" stop-color="#0366d6" stop-opacity="0.3"/>
      <stop offset="100%" stop-color="#0366d6" stop-opacity="0.02"/>
    </linearGradient>
  </defs>
  <rect width="600" height="150" rx="12" fill="#ffffff" filter="url(#shadow2)" stroke="#e1e4e8" stroke-width="1"/>
  <text x="20" y="24" fill="#2b3137" font-family="-apple-system,BlinkMacSystemFont,'Segoe UI',Helvetica,Arial,sans-serif" font-size="14" font-weight="600">📈 Download Growth (Actual: 84.3k)</text>
  
  <!-- Area sotto la linea -->
  <polygon fill="url(#fillGrad)" points="30.0,120.0,120 30.0,120.0 31.6,119.4 33.2,118.8 34.8,118.2 36.4,118.1 38.0,117.8 39.6,117.1 41.2,116.7 42.7,116.4 44.3,115.7 45.9,115.4 47.5,115.0 49.1,114.8 50.7,114.5 52.3,114.0 53.9,113.5 55.5,113.2 57.1,112.9 58.7,112.7 60.3,112.4 61.9,112.1 63.5,111.7 65.0,111.6 66.6,111.3 68.2,110.2 69.8,109.9 71.4,109.4 73.0,109.0 74.6,108.6 76.2,108.3 77.8,108.0 79.4,107.9 81.0,107.5 82.6,107.0 84.2,106.6 85.8,106.3 87.3,105.9 88.9,105.8 90.5,105.7 92.1,105.5 93.7,105.2 95.3,105.0 96.9,104.8 98.5,104.4 100.1,103.8 101.7,103.7 103.3,103.6 104.9,103.3 106.5,102.9 108.1,102.6 109.6,102.1 111.2,101.7 112.8,101.3 114.4,101.2 116.0,101.0 117.6,100.5 119.2,100.1 120.8,99.8 122.4,99.6 124.0,99.4 125.6,99.2 127.2,98.7 128.8,98.3 130.4,97.9 131.9,97.5 133.5,97.2 135.1,97.1 136.7,96.9 138.3,96.6 139.9,96.4 141.5,96.2 143.1,96.0 144.7,95.9 146.3,95.7 147.9,95.5 149.5,95.4 151.1,95.3 152.7,94.8 154.2,94.6 155.8,94.5 157.4,94.4 159.0,94.3 160.6,94.3 162.2,101.6 163.8,100.9 165.4,100.3 167.0,99.6 168.6,97.6 170.2,96.2 171.8,94.7 173.4,94.1 175.0,93.5 176.5,92.4 178.1,91.3 179.7,90.5 181.3,90.2 182.9,89.9 184.5,89.1 186.1,88.5 187.7,88.1 189.3,87.7 190.9,87.5 192.5,87.4 194.1,86.9 195.7,86.3 197.3,85.8 198.8,85.3 200.4,84.7 202.0,84.5 203.6,84.3 205.2,83.8 206.8,83.4 208.4,83.0 210.0,82.6 211.6,82.5 213.2,82.4 214.8,82.1 216.4,81.8 218.0,81.5 219.6,81.2 221.2,81.0 222.7,80.8 224.3,80.6 225.9,80.4 227.5,80.2 229.1,80.1 230.7,79.7 232.3,79.4 233.9,79.1 235.5,78.9 237.1,78.6 238.7,78.5 240.3,78.3 241.9,78.2 243.5,77.6 245.0,77.3 246.6,76.8 248.2,76.7 249.8,76.6 251.4,76.4 253.0,76.2 254.6,75.9 256.2,75.6 257.8,75.3 259.4,75.1 261.0,75.0 262.6,74.8 264.2,74.7 265.8,74.5 267.3,74.3 268.9,74.1 270.5,73.8 272.1,73.7 273.7,73.6 275.3,73.4 276.9,73.3 278.5,73.0 280.1,72.8 281.7,72.6 283.3,72.3 284.9,72.1 286.5,71.9 288.1,71.8 289.6,71.7 291.2,71.3 292.8,71.0 294.4,70.8 296.0,70.6 297.6,70.2 299.2,70.1 300.8,69.9 302.4,69.8 304.0,69.6 305.6,69.5 307.2,69.2 308.8,69.1 310.4,68.9 311.9,68.7 313.5,68.6 315.1,68.4 316.7,68.3 318.3,68.1 319.9,67.8 321.5,67.7 323.1,67.5 324.7,67.4 326.3,67.2 327.9,67.0 329.5,66.9 331.1,66.8 332.7,66.6 334.2,66.3 335.8,65.9 337.4,65.7 339.0,65.5 340.6,65.5 342.2,65.4 343.8,65.2 345.4,64.9 347.0,64.7 348.6,64.6 350.2,64.4 351.8,64.2 353.4,64.0 355.0,63.9 356.5,63.8 358.1,63.5 359.7,63.3 361.3,63.1 362.9,62.9 364.5,62.8 366.1,62.7 367.7,62.6 369.3,62.4 370.9,62.3 372.5,62.1 374.1,61.9 375.7,61.7 377.3,61.6 378.8,61.5 380.4,61.3 382.0,61.2 383.6,60.9 385.2,60.7 386.8,60.5 388.4,60.3 390.0,60.2 391.6,60.1 393.2,60.0 394.8,59.9 396.4,59.8 398.0,59.6 399.6,59.3 401.2,59.2 402.7,59.0 404.3,58.9 405.9,58.8 407.5,58.6 409.1,58.4 410.7,58.3 412.3,58.1 413.9,58.0 415.5,57.8 417.1,57.6 418.7,57.5 420.3,57.4 421.9,57.3 423.5,57.1 425.0,57.0 426.6,56.9 428.2,56.7 429.8,56.7 431.4,56.5 433.0,56.2 434.6,56.0 436.2,60.8 437.8,59.8 439.4,58.0 441.0,57.3 442.6,56.5 444.2,55.4 445.8,54.9 447.3,54.5 448.9,53.8 450.5,52.8 452.1,52.0 453.7,51.7 455.3,51.3 456.9,51.0 458.5,50.5 460.1,50.0 461.7,49.4 463.3,49.1 464.9,48.6 466.5,48.3 468.1,47.9 469.6,47.7 471.2,47.4 472.8,47.2 474.4,46.6 476.0,46.3 477.6,45.8 479.2,45.2 480.8,44.8 482.4,44.5 484.0,44.4 485.6,44.1 487.2,43.7 488.8,43.3 490.4,43.0 491.9,42.0 493.5,41.2 495.1,40.9 496.7,40.7 498.3,40.3 499.9,39.8 501.5,39.4 503.1,38.8 504.7,38.5 506.3,38.1 507.9,37.8 509.5,37.3 511.1,37.1 512.7,36.9 514.2,36.7 515.8,36.5 517.4,36.2 519.0,36.0 520.6,35.7 522.2,35.5 523.8,35.4 525.4,35.0 527.0,34.9 528.6,34.6 530.2,34.4 531.8,34.2 533.4,34.1 535.0,33.9 536.5,33.7 538.1,33.6 539.7,33.5 541.3,33.2 542.9,33.1 544.5,32.9 546.1,32.6 547.7,32.4 549.3,32.3 550.9,32.1 552.5,31.9 554.1,31.8 555.7,31.6 557.3,31.5 558.8,31.3 560.4,31.2 562.0,31.1 563.6,30.8 565.2,30.7 566.8,30.4 568.4,30.2 570.0,30.0 570.0,30.0,120" />
  
  <!-- Linea principale -->
  <polyline fill="none" stroke="#0366d6" stroke-width="2.5" stroke-linecap="round" stroke-linejoin="round" points="30.0,120.0 31.6,119.4 33.2,118.8 34.8,118.2 36.4,118.1 38.0,117.8 39.6,117.1 41.2,116.7 42.7,116.4 44.3,115.7 45.9,115.4 47.5,115.0 49.1,114.8 50.7,114.5 52.3,114.0 53.9,113.5 55.5,113.2 57.1,112.9 58.7,112.7 60.3,112.4 61.9,112.1 63.5,111.7 65.0,111.6 66.6,111.3 68.2,110.2 69.8,109.9 71.4,109.4 73.0,109.0 74.6,108.6 76.2,108.3 77.8,108.0 79.4,107.9 81.0,107.5 82.6,107.0 84.2,106.6 85.8,106.3 87.3,105.9 88.9,105.8 90.5,105.7 92.1,105.5 93.7,105.2 95.3,105.0 96.9,104.8 98.5,104.4 100.1,103.8 101.7,103.7 103.3,103.6 104.9,103.3 106.5,102.9 108.1,102.6 109.6,102.1 111.2,101.7 112.8,101.3 114.4,101.2 116.0,101.0 117.6,100.5 119.2,100.1 120.8,99.8 122.4,99.6 124.0,99.4 125.6,99.2 127.2,98.7 128.8,98.3 130.4,97.9 131.9,97.5 133.5,97.2 135.1,97.1 136.7,96.9 138.3,96.6 139.9,96.4 141.5,96.2 143.1,96.0 144.7,95.9 146.3,95.7 147.9,95.5 149.5,95.4 151.1,95.3 152.7,94.8 154.2,94.6 155.8,94.5 157.4,94.4 159.0,94.3 160.6,94.3 162.2,101.6 163.8,100.9 165.4,100.3 167.0,99.6 168.6,97.6 170.2,96.2 171.8,94.7 173.4,94.1 175.0,93.5 176.5,92.4 178.1,91.3 179.7,90.5 181.3,90.2 182.9,89.9 184.5,89.1 186.1,88.5 187.7,88.1 189.3,87.7 190.9,87.5 192.5,87.4 194.1,86.9 195.7,86.3 197.3,85.8 198.8,85.3 200.4,84.7 202.0,84.5 203.6,84.3 205.2,83.8 206.8,83.4 208.4,83.0 210.0,82.6 211.6,82.5 213.2,82.4 214.8,82.1 216.4,81.8 218.0,81.5 219.6,81.2 221.2,81.0 222.7,80.8 224.3,80.6 225.9,80.4 227.5,80.2 229.1,80.1 230.7,79.7 232.3,79.4 233.9,79.1 235.5,78.9 237.1,78.6 238.7,78.5 240.3,78.3 241.9,78.2 243.5,77.6 245.0,77.3 246.6,76.8 248.2,76.7 249.8,76.6 251.4,76.4 253.0,76.2 254.6,75.9 256.2,75.6 257.8,75.3 259.4,75.1 261.0,75.0 262.6,74.8 264.2,74.7 265.8,74.5 267.3,74.3 268.9,74.1 270.5,73.8 272.1,73.7 273.7,73.6 275.3,73.4 276.9,73.3 278.5,73.0 280.1,72.8 281.7,72.6 283.3,72.3 284.9,72.1 286.5,71.9 288.1,71.8 289.6,71.7 291.2,71.3 292.8,71.0 294.4,70.8 296.0,70.6 297.6,70.2 299.2,70.1 300.8,69.9 302.4,69.8 304.0,69.6 305.6,69.5 307.2,69.2 308.8,69.1 310.4,68.9 311.9,68.7 313.5,68.6 315.1,68.4 316.7,68.3 318.3,68.1 319.9,67.8 321.5,67.7 323.1,67.5 324.7,67.4 326.3,67.2 327.9,67.0 329.5,66.9 331.1,66.8 332.7,66.6 334.2,66.3 335.8,65.9 337.4,65.7 339.0,65.5 340.6,65.5 342.2,65.4 343.8,65.2 345.4,64.9 347.0,64.7 348.6,64.6 350.2,64.4 351.8,64.2 353.4,64.0 355.0,63.9 356.5,63.8 358.1,63.5 359.7,63.3 361.3,63.1 362.9,62.9 364.5,62.8 366.1,62.7 367.7,62.6 369.3,62.4 370.9,62.3 372.5,62.1 374.1,61.9 375.7,61.7 377.3,61.6 378.8,61.5 380.4,61.3 382.0,61.2 383.6,60.9 385.2,60.7 386.8,60.5 388.4,60.3 390.0,60.2 391.6,60.1 393.2,60.0 394.8,59.9 396.4,59.8 398.0,59.6 399.6,59.3 401.2,59.2 402.7,59.0 404.3,58.9 405.9,58.8 407.5,58.6 409.1,58.4 410.7,58.3 412.3,58.1 413.9,58.0 415.5,57.8 417.1,57.6 418.7,57.5 420.3,57.4 421.9,57.3 423.5,57.1 425.0,57.0 426.6,56.9 428.2,56.7 429.8,56.7 431.4,56.5 433.0,56.2 434.6,56.0 436.2,60.8 437.8,59.8 439.4,58.0 441.0,57.3 442.6,56.5 444.2,55.4 445.8,54.9 447.3,54.5 448.9,53.8 450.5,52.8 452.1,52.0 453.7,51.7 455.3,51.3 456.9,51.0 458.5,50.5 460.1,50.0 461.7,49.4 463.3,49.1 464.9,48.6 466.5,48.3 468.1,47.9 469.6,47.7 471.2,47.4 472.8,47.2 474.4,46.6 476.0,46.3 477.6,45.8 479.2,45.2 480.8,44.8 482.4,44.5 484.0,44.4 485.6,44.1 487.2,43.7 488.8,43.3 490.4,43.0 491.9,42.0 493.5,41.2 495.1,40.9 496.7,40.7 498.3,40.3 499.9,39.8 501.5,39.4 503.1,38.8 504.7,38.5 506.3,38.1 507.9,37.8 509.5,37.3 511.1,37.1 512.7,36.9 514.2,36.7 515.8,36.5 517.4,36.2 519.0,36.0 520.6,35.7 522.2,35.5 523.8,35.4 525.4,35.0 527.0,34.9 528.6,34.6 530.2,34.4 531.8,34.2 533.4,34.1 535.0,33.9 536.5,33.7 538.1,33.6 539.7,33.5 541.3,33.2 542.9,33.1 544.5,32.9 546.1,32.6 547.7,32.4 549.3,32.3 550.9,32.1 552.5,31.9 554.1,31.8 555.7,31.6 557.3,31.5 558.8,31.3 560.4,31.2 562.0,31.1 563.6,30.8 565.2,30.7 566.8,30.4 568.4,30.2 570.0,30.0" />
  
  <!-- Punto finale luminoso -->
  <circle cx="570.0" cy="30.0" r="4" fill="#ffffff" stroke="#0366d6" stroke-width="2.5" />
</svg>