<svg width="600" height="150" viewBox="0 0 600 150" xmlns="http://www.w3.org/2000/svg">
  <defs>
    <filter id="shadow2" x="-2%" y="-2%" width="104%" height="108%">
      <feDropShadow dx="0" dy="2" stdDeviation="3" flood-opacity="0.1" />
    </filter>
    <linearGradient id="fillGrad" x1="0" y1="0" x2="0" y2="1">
      <stop offset="0%" stop-color="#0366d6" stop-opacity="0.3"/>
      <stop offset="100%" stop-color="#0366d6" stop-opacity="0.02"/>
    </linearGradient>
  </defs>
  <rect width="600" height="150" rx="12" fill="#ffffff" filter="url(#shadow2)" stroke="#e1e4e8" stroke-width="1"/>
  <text x="20" y="24" fill="#2b3137" font-family="-apple-system,BlinkMacSystemFont,'Segoe UI',Helvetica,Arial,sans-serif" font-size="14" font-weight="600">📈 Download Growth (Actual: 87.7k)</text>
  
  <!-- Area sotto la linea -->
  <polygon fill="url(#fillGrad)" points="30.0,120.0,120 30.0,120.0 31.2,119.5 32.5,119.0 33.7,118.5 35.0,118.4 36.2,118.2 37.4,117.6 38.7,117.2 39.9,117.0 41.2,116.4 42.4,116.1 43.7,115.8 44.9,115.7 46.1,115.4 47.4,115.0 48.6,114.6 49.9,114.3 51.1,114.1 52.3,113.9 53.6,113.7 54.8,113.3 56.1,113.1 57.3,113.0 58.6,112.7 59.8,111.8 61.0,111.5 62.3,111.2 63.5,110.8 64.8,110.5 66.0,110.2 67.2,110.0 68.5,109.8 69.7,109.6 71.0,109.1 72.2,108.8 73.4,108.5 74.7,108.2 75.9,108.1 77.2,108.0 78.4,107.9 79.7,107.6 80.9,107.4 82.1,107.3 83.4,106.9 84.6,106.5 85.9,106.3 87.1,106.2 88.3,106.1 89.6,105.7 90.8,105.4 92.1,105.0 93.3,104.7 94.6,104.4 95.8,104.3 97.0,104.1 98.3,103.7 99.5,103.3 100.8,103.1 102.0,102.9 103.2,102.8 104.5,102.6 105.7,102.2 107.0,101.8 108.2,101.5 109.4,101.1 110.7,101.0 111.9,100.8 113.2,100.7 114.4,100.4 115.7,100.2 116.9,100.1 118.1,99.9 119.4,99.8 120.6,99.6 121.9,99.5 123.1,99.4 124.3,99.3 125.6,98.9 126.8,98.7 128.1,98.7 129.3,98.5 130.6,98.5 131.8,98.5 133.0,104.6 134.3,104.0 135.5,103.5 136.8,102.9 138.0,101.2 139.2,100.1 140.5,98.8 141.7,98.3 143.0,97.8 144.2,96.9 145.4,96.0 146.7,95.3 147.9,95.0 149.2,94.8 150.4,94.1 151.7,93.6 152.9,93.3 154.1,92.9 155.4,92.8 156.6,92.7 157.9,92.3 159.1,91.8 160.3,91.3 161.6,90.9 162.8,90.5 164.1,90.2 165.3,90.1 166.6,89.7 167.8,89.3 169.0,89.0 170.3,88.7 171.5,88.6 172.8,88.5 174.0,88.3 175.2,88.0 176.5,87.8 177.7,87.6 179.0,87.4 180.2,87.2 181.4,87.0 182.7,86.9 183.9,86.7 185.2,86.6 186.4,86.2 187.7,86.0 188.9,85.7 190.1,85.6 191.4,85.4 192.6,85.3 193.9,85.1 195.1,85.0 196.3,84.5 197.6,84.2 198.8,83.9 200.1,83.7 201.3,83.7 202.6,83.5 203.8,83.3 205.0,83.1 206.3,82.9 207.5,82.6 208.8,82.4 210.0,82.3 211.2,82.2 212.5,82.1 213.7,81.9 215.0,81.8 216.2,81.6 217.4,81.3 218.7,81.2 219.9,81.1 221.2,81.0 222.4,80.9 223.7,80.7 224.9,80.5 226.1,80.3 227.4,80.1 228.6,79.9 229.9,79.8 231.1,79.7 232.3,79.5 233.6,79.3 234.8,79.0 236.1,78.8 237.3,78.6 238.6,78.3 239.8,78.2 241.0,78.1 242.3,78.0 243.5,77.8 244.8,77.7 246.0,77.5 247.2,77.4 248.5,77.2 249.7,77.1 251.0,76.9 252.2,76.8 253.4,76.7 254.7,76.6 255.9,76.3 257.2,76.2 258.4,76.0 259.7,75.9 260.9,75.8 262.1,75.7 263.4,75.6 264.6,75.4 265.9,75.3 267.1,75.0 268.3,74.7 269.6,74.6 270.8,74.4 272.1,74.3 273.3,74.3 274.6,74.1 275.8,73.9 277.0,73.7 278.3,73.6 279.5,73.5 280.8,73.3 282.0,73.2 283.2,73.1 284.5,72.9 285.7,72.7 287.0,72.6 288.2,72.4 289.4,72.2 290.7,72.1 291.9,72.0 293.2,72.0 294.4,71.8 295.7,71.7 296.9,71.5 298.1,71.4 299.4,71.2 300.6,71.1 301.9,71.0 303.1,70.9 304.3,70.8 305.6,70.6 306.8,70.4 308.1,70.2 309.3,70.0 310.6,69.9 311.8,69.8 313.0,69.8 314.3,69.7 315.5,69.6 316.8,69.4 318.0,69.2 319.2,69.1 320.5,69.0 321.7,68.9 323.0,68.7 324.2,68.6 325.4,68.4 326.7,68.3 327.9,68.2 329.2,68.1 330.4,67.9 331.7,67.8 332.9,67.6 334.1,67.6 335.4,67.5 336.6,67.4 337.9,67.3 339.1,67.1 340.3,67.0 341.6,67.0 342.8,66.9 344.1,66.6 345.3,66.4 346.6,70.4 347.8,69.6 349.0,68.1 350.3,67.5 351.5,66.8 352.8,65.9 354.0,65.5 355.2,65.2 356.5,64.6 357.7,63.7 359.0,63.0 360.2,62.8 361.4,62.5 362.7,62.3 363.9,61.8 365.2,61.4 366.4,60.9 367.7,60.7 368.9,60.2 370.1,60.0 371.4,59.7 372.6,59.5 373.9,59.2 375.1,59.0 376.3,58.6 377.6,58.3 378.8,57.9 380.1,57.3 381.3,57.0 382.6,56.8 383.8,56.7 385.0,56.5 386.3,56.1 387.5,55.8 388.8,55.5 390.0,54.7 391.2,54.1 392.5,53.8 393.7,53.6 395.0,53.3 396.2,52.9 397.4,52.5 398.7,52.0 399.9,51.7 401.2,51.4 402.4,51.2 403.7,50.8 404.9,50.6 406.1,50.4 407.4,50.3 408.6,50.1 409.9,49.8 411.1,49.7 412.3,49.5 413.6,49.3 414.8,49.1 416.1,48.9 417.3,48.7 418.6,48.5 419.8,48.4 421.0,48.2 422.3,48.1 423.5,47.9 424.8,47.8 426.0,47.7 427.2,47.6 428.5,47.4 429.7,47.2 431.0,47.1 432.2,46.9 433.4,46.7 434.7,46.6 435.9,46.4 437.2,46.3 438.4,46.2 439.7,46.0 440.9,45.9 442.1,45.8 443.4,45.7 444.6,45.5 445.9,45.4 447.1,45.2 448.3,45.0 449.6,44.8 450.8,44.7 452.1,44.5 453.3,44.2 454.6,44.1 455.8,43.9 457.0,43.7 458.3,43.5 459.5,43.2 460.8,43.0 462.0,42.8 463.2,42.6 464.5,42.4 465.7,42.3 467.0,42.1 468.2,42.0 469.4,41.9 470.7,41.8 471.9,41.6 473.2,41.5 474.4,41.3 475.7,41.1 476.9,40.9 478.1,40.6 479.4,40.4 480.6,40.1 481.9,40.0 483.1,39.9 484.3,39.8 485.6,39.7 486.8,39.5 488.1,39.4 489.3,39.2 490.6,39.0 491.8,38.8 493.0,38.6 494.3,38.5 495.5,38.4 496.8,38.2 498.0,38.1 499.2,38.1 500.5,37.9 501.7,37.8 503.0,37.7 504.2,37.5 505.4,37.4 506.7,37.2 507.9,37.0 509.2,36.9 510.4,36.8 511.7,36.7 512.9,36.5 514.1,36.4 515.4,36.3 516.6,36.1 517.9,36.0 519.1,35.7 520.3,35.6 521.6,35.3 522.8,35.2 524.1,35.1 525.3,35.1 526.6,34.9 527.8,34.9 529.0,34.8 530.3,34.7 531.5,34.6 532.8,34.5 534.0,34.3 535.2,34.2 536.5,34.0 537.7,33.8 539.0,33.7 540.2,33.6 541.4,33.4 542.7,33.3 543.9,33.2 545.2,33.1 546.4,33.0 547.7,32.9 548.9,32.7 550.1,32.4 551.4,32.2 552.6,32.0 553.9,31.9 555.1,31.7 556.3,31.5 557.6,31.4 558.8,31.3 560.1,31.2 561.3,31.1 562.6,31.0 563.8,30.8 565.0,30.6 566.3,30.4 567.5,30.3 568.8,30.1 570.0,30.0 570.0,30.0,120" />
  
  <!-- Linea principale -->
  <polyline fill="none" stroke="#0366d6" stroke-width="2.5" stroke-linecap="round" stroke-linejoin="round" points="30.0,120.0 31.2,119.5 32.5,119.0 33.7,118.5 35.0,118.4 36.2,118.2 37.4,117.6 38.7,117.2 39.9,117.0 41.2,116.4 42.4,116.1 43.7,115.8 44.9,115.7 46.1,115.4 47.4,115.0 48.6,114.6 49.9,114.3 51.1,114.1 52.3,113.9 53.6,113.7 54.8,113.3 56.1,113.1 57.3,113.0 58.6,112.7 59.8,111.8 61.0,111.5 62.3,111.2 63.5,110.8 64.8,110.5 66.0,110.2 67.2,110.0 68.5,109.8 69.7,109.6 71.0,109.1 72.2,108.8 73.4,108.5 74.7,108.2 75.9,108.1 77.2,108.0 78.4,107.9 79.7,107.6 80.9,107.4 82.1,107.3 83.4,106.9 84.6,106.5 85.9,106.3 87.1,106.2 88.3,106.1 89.6,105.7 90.8,105.4 92.1,105.0 93.3,104.7 94.6,104.4 95.8,104.3 97.0,104.1 98.3,103.7 99.5,103.3 100.8,103.1 102.0,102.9 103.2,102.8 104.5,102.6 105.7,102.2 107.0,101.8 108.2,101.5 109.4,101.1 110.7,101.0 111.9,100.8 113.2,100.7 114.4,100.4 115.7,100.2 116.9,100.1 118.1,99.9 119.4,99.8 120.6,99.6 121.9,99.5 123.1,99.4 124.3,99.3 125.6,98.9 126.8,98.7 128.1,98.7 129.3,98.5 130.6,98.5 131.8,98.5 133.0,104.6 134.3,104.0 135.5,103.5 136.8,102.9 138.0,101.2 139.2,100.1 140.5,98.8 141.7,98.3 143.0,97.8 144.2,96.9 145.4,96.0 146.7,95.3 147.9,95.0 149.2,94.8 150.4,94.1 151.7,93.6 152.9,93.3 154.1,92.9 155.4,92.8 156.6,92.7 157.9,92.3 159.1,91.8 160.3,91.3 161.6,90.9 162.8,90.5 164.1,90.2 165.3,90.1 166.6,89.7 167.8,89.3 169.0,89.0 170.3,88.7 171.5,88.6 172.8,88.5 174.0,88.3 175.2,88.0 176.5,87.8 177.7,87.6 179.0,87.4 180.2,87.2 181.4,87.0 182.7,86.9 183.9,86.7 185.2,86.6 186.4,86.2 187.7,86.0 188.9,85.7 190.1,85.6 191.4,85.4 192.6,85.3 193.9,85.1 195.1,85.0 196.3,84.5 197.6,84.2 198.8,83.9 200.1,83.7 201.3,83.7 202.6,83.5 203.8,83.3 205.0,83.1 206.3,82.9 207.5,82.6 208.8,82.4 210.0,82.3 211.2,82.2 212.5,82.1 213.7,81.9 215.0,81.8 216.2,81.6 217.4,81.3 218.7,81.2 219.9,81.1 221.2,81.0 222.4,80.9 223.7,80.7 224.9,80.5 226.1,80.3 227.4,80.1 228.6,79.9 229.9,79.8 231.1,79.7 232.3,79.5 233.6,79.3 234.8,79.0 236.1,78.8 237.3,78.6 238.6,78.3 239.8,78.2 241.0,78.1 242.3,78.0 243.5,77.8 244.8,77.7 246.0,77.5 247.2,77.4 248.5,77.2 249.7,77.1 251.0,76.9 252.2,76.8 253.4,76.7 254.7,76.6 255.9,76.3 257.2,76.2 258.4,76.0 259.7,75.9 260.9,75.8 262.1,75.7 263.4,75.6 264.6,75.4 265.9,75.3 267.1,75.0 268.3,74.7 269.6,74.6 270.8,74.4 272.1,74.3 273.3,74.3 274.6,74.1 275.8,73.9 277.0,73.7 278.3,73.6 279.5,73.5 280.8,73.3 282.0,73.2 283.2,73.1 284.5,72.9 285.7,72.7 287.0,72.6 288.2,72.4 289.4,72.2 290.7,72.1 291.9,72.0 293.2,72.0 294.4,71.8 295.7,71.7 296.9,71.5 298.1,71.4 299.4,71.2 300.6,71.1 301.9,71.0 303.1,70.9 304.3,70.8 305.6,70.6 306.8,70.4 308.1,70.2 309.3,70.0 310.6,69.9 311.8,69.8 313.0,69.8 314.3,69.7 315.5,69.6 316.8,69.4 318.0,69.2 319.2,69.1 320.5,69.0 321.7,68.9 323.0,68.7 324.2,68.6 325.4,68.4 326.7,68.3 327.9,68.2 329.2,68.1 330.4,67.9 331.7,67.8 332.9,67.6 334.1,67.6 335.4,67.5 336.6,67.4 337.9,67.3 339.1,67.1 340.3,67.0 341.6,67.0 342.8,66.9 344.1,66.6 345.3,66.4 346.6,70.4 347.8,69.6 349.0,68.1 350.3,67.5 351.5,66.8 352.8,65.9 354.0,65.5 355.2,65.2 356.5,64.6 357.7,63.7 359.0,63.0 360.2,62.8 361.4,62.5 362.7,62.3 363.9,61.8 365.2,61.4 366.4,60.9 367.7,60.7 368.9,60.2 370.1,60.0 371.4,59.7 372.6,59.5 373.9,59.2 375.1,59.0 376.3,58.6 377.6,58.3 378.8,57.9 380.1,57.3 381.3,57.0 382.6,56.8 383.8,56.7 385.0,56.5 386.3,56.1 387.5,55.8 388.8,55.5 390.0,54.7 391.2,54.1 392.5,53.8 393.7,53.6 395.0,53.3 396.2,52.9 397.4,52.5 398.7,52.0 399.9,51.7 401.2,51.4 402.4,51.2 403.7,50.8 404.9,50.6 406.1,50.4 407.4,50.3 408.6,50.1 409.9,49.8 411.1,49.7 412.3,49.5 413.6,49.3 414.8,49.1 416.1,48.9 417.3,48.7 418.6,48.5 419.8,48.4 421.0,48.2 422.3,48.1 423.5,47.9 424.8,47.8 426.0,47.7 427.2,47.6 428.5,47.4 429.7,47.2 431.0,47.1 432.2,46.9 433.4,46.7 434.7,46.6 435.9,46.4 437.2,46.3 438.4,46.2 439.7,46.0 440.9,45.9 442.1,45.8 443.4,45.7 444.6,45.5 445.9,45.4 447.1,45.2 448.3,45.0 449.6,44.8 450.8,44.7 452.1,44.5 453.3,44.2 454.6,44.1 455.8,43.9 457.0,43.7 458.3,43.5 459.5,43.2 460.8,43.0 462.0,42.8 463.2,42.6 464.5,42.4 465.7,42.3 467.0,42.1 468.2,42.0 469.4,41.9 470.7,41.8 471.9,41.6 473.2,41.5 474.4,41.3 475.7,41.1 476.9,40.9 478.1,40.6 479.4,40.4 480.6,40.1 481.9,40.0 483.1,39.9 484.3,39.8 485.6,39.7 486.8,39.5 488.1,39.4 489.3,39.2 490.6,39.0 491.8,38.8 493.0,38.6 494.3,38.5 495.5,38.4 496.8,38.2 498.0,38.1 499.2,38.1 500.5,37.9 501.7,37.8 503.0,37.7 504.2,37.5 505.4,37.4 506.7,37.2 507.9,37.0 509.2,36.9 510.4,36.8 511.7,36.7 512.9,36.5 514.1,36.4 515.4,36.3 516.6,36.1 517.9,36.0 519.1,35.7 520.3,35.6 521.6,35.3 522.8,35.2 524.1,35.1 525.3,35.1 526.6,34.9 527.8,34.9 529.0,34.8 530.3,34.7 531.5,34.6 532.8,34.5 534.0,34.3 535.2,34.2 536.5,34.0 537.7,33.8 539.0,33.7 540.2,33.6 541.4,33.4 542.7,33.3 543.9,33.2 545.2,33.1 546.4,33.0 547.7,32.9 548.9,32.7 550.1,32.4 551.4,32.2 552.6,32.0 553.9,31.9 555.1,31.7 556.3,31.5 557.6,31.4 558.8,31.3 560.1,31.2 561.3,31.1 562.6,31.0 563.8,30.8 565.0,30.6 566.3,30.4 567.5,30.3 568.8,30.1 570.0,30.0" />
  
  <!-- Punto finale luminoso -->
  <circle cx="570.0" cy="30.0" r="4" fill="#ffffff" stroke="#0366d6" stroke-width="2.5" />
</svg>