<svg width="600" height="150" viewBox="0 0 600 150" xmlns="http://www.w3.org/2000/svg">
  <defs>
    <filter id="shadow2" x="-2%" y="-2%" width="104%" height="108%">
      <feDropShadow dx="0" dy="2" stdDeviation="3" flood-opacity="0.1" />
    </filter>
    <linearGradient id="fillGrad" x1="0" y1="0" x2="0" y2="1">
      <stop offset="0%" stop-color="#0366d6" stop-opacity="0.3"/>
      <stop offset="100%" stop-color="#0366d6" stop-opacity="0.02"/>
    </linearGradient>
  </defs>
  <rect width="600" height="150" rx="12" fill="#ffffff" filter="url(#shadow2)" stroke="#e1e4e8" stroke-width="1"/>
  <text x="20" y="24" fill="#2b3137" font-family="-apple-system,BlinkMacSystemFont,'Segoe UI',Helvetica,Arial,sans-serif" font-size="14" font-weight="600">📈 Download Growth (Actual: 88.3k)</text>
  
  <!-- Area sotto la linea -->
  <polygon fill="url(#fillGrad)" points="30.0,120.0,120 30.0,120.0 31.2,119.5 32.4,119.0 33.6,118.6 34.7,118.5 35.9,118.2 37.1,117.7 38.3,117.3 39.5,117.1 40.7,116.5 41.9,116.2 43.1,115.9 44.2,115.8 45.4,115.5 46.6,115.1 47.8,114.7 49.0,114.4 50.2,114.2 51.4,114.1 52.5,113.8 53.7,113.5 54.9,113.3 56.1,113.1 57.3,112.9 58.5,112.0 59.7,111.7 60.9,111.4 62.0,111.0 63.2,110.7 64.4,110.4 65.6,110.2 66.8,110.1 68.0,109.8 69.2,109.4 70.4,109.0 71.5,108.8 72.7,108.5 73.9,108.4 75.1,108.3 76.3,108.2 77.5,107.9 78.7,107.7 79.8,107.6 81.0,107.3 82.2,106.8 83.4,106.7 84.6,106.6 85.8,106.4 87.0,106.0 88.2,105.8 89.3,105.4 90.5,105.1 91.7,104.8 92.9,104.7 94.1,104.5 95.3,104.1 96.5,103.8 97.6,103.5 98.8,103.4 100.0,103.2 101.2,103.0 102.4,102.6 103.6,102.3 104.8,101.9 106.0,101.6 107.1,101.4 108.3,101.3 109.5,101.2 110.7,100.9 111.9,100.7 113.1,100.6 114.3,100.5 115.5,100.3 116.6,100.1 117.8,100.0 119.0,99.9 120.2,99.8 121.4,99.5 122.6,99.3 123.8,99.2 124.9,99.1 126.1,99.0 127.3,99.0 128.5,105.0 129.7,104.4 130.9,103.9 132.1,103.3 133.3,101.7 134.4,100.6 135.6,99.3 136.8,98.9 138.0,98.4 139.2,97.5 140.4,96.6 141.6,95.9 142.7,95.7 143.9,95.4 145.1,94.8 146.3,94.3 147.5,94.0 148.7,93.6 149.9,93.4 151.1,93.4 152.2,93.0 153.4,92.5 154.6,92.1 155.8,91.7 157.0,91.2 158.2,91.0 159.4,90.8 160.5,90.5 161.7,90.1 162.9,89.8 164.1,89.5 165.3,89.4 166.5,89.3 167.7,89.1 168.9,88.8 170.0,88.6 171.2,88.4 172.4,88.2 173.6,88.0 174.8,87.9 176.0,87.7 177.2,87.6 178.4,87.4 179.5,87.1 180.7,86.9 181.9,86.6 183.1,86.4 184.3,86.3 185.5,86.1 186.7,86.0 187.8,85.9 189.0,85.4 190.2,85.1 191.4,84.8 192.6,84.6 193.8,84.6 195.0,84.4 196.2,84.2 197.3,84.0 198.5,83.8 199.7,83.5 200.9,83.4 202.1,83.3 203.3,83.1 204.5,83.0 205.6,82.9 206.8,82.7 208.0,82.6 209.2,82.3 210.4,82.2 211.6,82.1 212.8,82.0 214.0,81.9 215.1,81.7 216.3,81.5 217.5,81.3 218.7,81.1 219.9,80.9 221.1,80.8 222.3,80.7 223.5,80.6 224.6,80.3 225.8,80.0 227.0,79.9 228.2,79.7 229.4,79.3 230.6,79.3 231.8,79.2 232.9,79.1 234.1,78.9 235.3,78.8 236.5,78.6 237.7,78.4 238.9,78.3 240.1,78.2 241.3,78.0 242.4,77.9 243.6,77.8 244.8,77.7 246.0,77.4 247.2,77.3 248.4,77.1 249.6,77.0 250.7,76.9 251.9,76.8 253.1,76.7 254.3,76.6 255.5,76.4 256.7,76.2 257.9,75.9 259.1,75.7 260.2,75.6 261.4,75.5 262.6,75.4 263.8,75.3 265.0,75.0 266.2,74.9 267.4,74.8 268.5,74.6 269.7,74.5 270.9,74.3 272.1,74.2 273.3,74.1 274.5,73.9 275.7,73.8 276.9,73.6 278.0,73.4 279.2,73.3 280.4,73.2 281.6,73.2 282.8,73.0 284.0,72.9 285.2,72.8 286.4,72.6 287.5,72.4 288.7,72.3 289.9,72.2 291.1,72.1 292.3,72.0 293.5,71.8 294.7,71.6 295.8,71.5 297.0,71.3 298.2,71.2 299.4,71.1 300.6,71.0 301.8,70.9 303.0,70.9 304.2,70.7 305.3,70.5 306.5,70.4 307.7,70.2 308.9,70.2 310.1,70.0 311.3,69.9 312.5,69.7 313.6,69.6 314.8,69.5 316.0,69.4 317.2,69.2 318.4,69.1 319.6,69.0 320.8,68.9 322.0,68.8 323.1,68.7 324.3,68.6 325.5,68.5 326.7,68.4 327.9,68.3 329.1,68.2 330.3,67.9 331.5,67.7 332.6,71.7 333.8,70.9 335.0,69.4 336.2,68.8 337.4,68.2 338.6,67.3 339.8,66.9 340.9,66.5 342.1,66.0 343.3,65.1 344.5,64.5 345.7,64.3 346.9,64.0 348.1,63.7 349.3,63.3 350.4,62.9 351.6,62.4 352.8,62.2 354.0,61.7 355.2,61.5 356.4,61.2 357.6,61.0 358.7,60.8 359.9,60.6 361.1,60.1 362.3,59.9 363.5,59.5 364.7,58.9 365.9,58.6 367.1,58.4 368.2,58.3 369.4,58.1 370.6,57.7 371.8,57.4 373.0,57.1 374.2,56.3 375.4,55.7 376.5,55.4 377.7,55.3 378.9,55.0 380.1,54.6 381.3,54.2 382.5,53.8 383.7,53.5 384.9,53.2 386.0,52.9 387.2,52.5 388.4,52.3 389.6,52.2 390.8,52.0 392.0,51.9 393.2,51.6 394.4,51.5 395.5,51.3 396.7,51.1 397.9,50.9 399.1,50.7 400.3,50.5 401.5,50.3 402.7,50.2 403.8,50.0 405.0,49.9 406.2,49.8 407.4,49.6 408.6,49.5 409.8,49.4 411.0,49.2 412.2,49.1 413.3,48.9 414.5,48.7 415.7,48.6 416.9,48.4 418.1,48.2 419.3,48.2 420.5,48.0 421.6,47.9 422.8,47.8 424.0,47.6 425.2,47.6 426.4,47.4 427.6,47.2 428.8,47.1 430.0,46.9 431.1,46.7 432.3,46.6 433.5,46.4 434.7,46.2 435.9,46.0 437.1,45.8 438.3,45.6 439.5,45.4 440.6,45.2 441.8,45.0 443.0,44.8 444.2,44.6 445.4,44.3 446.6,44.2 447.8,44.1 448.9,44.0 450.1,43.9 451.3,43.7 452.5,43.6 453.7,43.4 454.9,43.3 456.1,43.1 457.3,42.9 458.4,42.6 459.6,42.4 460.8,42.2 462.0,42.0 463.2,41.9 464.4,41.8 465.6,41.7 466.7,41.5 467.9,41.4 469.1,41.2 470.3,41.1 471.5,40.8 472.7,40.7 473.9,40.5 475.1,40.4 476.2,40.3 477.4,40.2 478.6,40.1 479.8,40.0 481.0,39.8 482.2,39.8 483.4,39.6 484.5,39.5 485.7,39.3 486.9,39.1 488.1,39.0 489.3,38.9 490.5,38.8 491.7,38.7 492.9,38.5 494.0,38.4 495.2,38.3 496.4,38.1 497.6,37.9 498.8,37.7 500.0,37.4 501.2,37.4 502.4,37.3 503.5,37.2 504.7,37.1 505.9,37.0 507.1,36.9 508.3,36.8 509.5,36.7 510.7,36.6 511.8,36.5 513.0,36.4 514.2,36.1 515.4,36.0 516.6,35.9 517.8,35.8 519.0,35.6 520.2,35.5 521.3,35.4 522.5,35.3 523.7,35.2 524.9,35.1 526.1,34.9 527.3,34.7 528.5,34.5 529.6,34.2 530.8,34.1 532.0,33.9 533.2,33.8 534.4,33.6 535.6,33.5 536.8,33.4 538.0,33.3 539.1,33.2 540.3,33.1 541.5,32.9 542.7,32.7 543.9,32.6 545.1,32.4 546.3,32.3 547.5,32.1 548.6,32.0 549.8,31.9 551.0,31.8 552.2,31.7 553.4,31.6 554.6,31.4 555.8,31.3 556.9,31.1 558.1,30.9 559.3,30.8 560.5,30.7 561.7,30.6 562.9,30.6 564.1,30.5 565.3,30.4 566.4,30.4 567.6,30.3 568.8,30.1 570.0,30.0 570.0,30.0,120" />
  
  <!-- Linea principale -->
  <polyline fill="none" stroke="#0366d6" stroke-width="2.5" stroke-linecap="round" stroke-linejoin="round" points="30.0,120.0 31.2,119.5 32.4,119.0 33.6,118.6 34.7,118.5 35.9,118.2 37.1,117.7 38.3,117.3 39.5,117.1 40.7,116.5 41.9,116.2 43.1,115.9 44.2,115.8 45.4,115.5 46.6,115.1 47.8,114.7 49.0,114.4 50.2,114.2 51.4,114.1 52.5,113.8 53.7,113.5 54.9,113.3 56.1,113.1 57.3,112.9 58.5,112.0 59.7,111.7 60.9,111.4 62.0,111.0 63.2,110.7 64.4,110.4 65.6,110.2 66.8,110.1 68.0,109.8 69.2,109.4 70.4,109.0 71.5,108.8 72.7,108.5 73.9,108.4 75.1,108.3 76.3,108.2 77.5,107.9 78.7,107.7 79.8,107.6 81.0,107.3 82.2,106.8 83.4,106.7 84.6,106.6 85.8,106.4 87.0,106.0 88.2,105.8 89.3,105.4 90.5,105.1 91.7,104.8 92.9,104.7 94.1,104.5 95.3,104.1 96.5,103.8 97.6,103.5 98.8,103.4 100.0,103.2 101.2,103.0 102.4,102.6 103.6,102.3 104.8,101.9 106.0,101.6 107.1,101.4 108.3,101.3 109.5,101.2 110.7,100.9 111.9,100.7 113.1,100.6 114.3,100.5 115.5,100.3 116.6,100.1 117.8,100.0 119.0,99.9 120.2,99.8 121.4,99.5 122.6,99.3 123.8,99.2 124.9,99.1 126.1,99.0 127.3,99.0 128.5,105.0 129.7,104.4 130.9,103.9 132.1,103.3 133.3,101.7 134.4,100.6 135.6,99.3 136.8,98.9 138.0,98.4 139.2,97.5 140.4,96.6 141.6,95.9 142.7,95.7 143.9,95.4 145.1,94.8 146.3,94.3 147.5,94.0 148.7,93.6 149.9,93.4 151.1,93.4 152.2,93.0 153.4,92.5 154.6,92.1 155.8,91.7 157.0,91.2 158.2,91.0 159.4,90.8 160.5,90.5 161.7,90.1 162.9,89.8 164.1,89.5 165.3,89.4 166.5,89.3 167.7,89.1 168.9,88.8 170.0,88.6 171.2,88.4 172.4,88.2 173.6,88.0 174.8,87.9 176.0,87.7 177.2,87.6 178.4,87.4 179.5,87.1 180.7,86.9 181.9,86.6 183.1,86.4 184.3,86.3 185.5,86.1 186.7,86.0 187.8,85.9 189.0,85.4 190.2,85.1 191.4,84.8 192.6,84.6 193.8,84.6 195.0,84.4 196.2,84.2 197.3,84.0 198.5,83.8 199.7,83.5 200.9,83.4 202.1,83.3 203.3,83.1 204.5,83.0 205.6,82.9 206.8,82.7 208.0,82.6 209.2,82.3 210.4,82.2 211.6,82.1 212.8,82.0 214.0,81.9 215.1,81.7 216.3,81.5 217.5,81.3 218.7,81.1 219.9,80.9 221.1,80.8 222.3,80.7 223.5,80.6 224.6,80.3 225.8,80.0 227.0,79.9 228.2,79.7 229.4,79.3 230.6,79.3 231.8,79.2 232.9,79.1 234.1,78.9 235.3,78.8 236.5,78.6 237.7,78.4 238.9,78.3 240.1,78.2 241.3,78.0 242.4,77.9 243.6,77.8 244.8,77.7 246.0,77.4 247.2,77.3 248.4,77.1 249.6,77.0 250.7,76.9 251.9,76.8 253.1,76.7 254.3,76.6 255.5,76.4 256.7,76.2 257.9,75.9 259.1,75.7 260.2,75.6 261.4,75.5 262.6,75.4 263.8,75.3 265.0,75.0 266.2,74.9 267.4,74.8 268.5,74.6 269.7,74.5 270.9,74.3 272.1,74.2 273.3,74.1 274.5,73.9 275.7,73.8 276.9,73.6 278.0,73.4 279.2,73.3 280.4,73.2 281.6,73.2 282.8,73.0 284.0,72.9 285.2,72.8 286.4,72.6 287.5,72.4 288.7,72.3 289.9,72.2 291.1,72.1 292.3,72.0 293.5,71.8 294.7,71.6 295.8,71.5 297.0,71.3 298.2,71.2 299.4,71.1 300.6,71.0 301.8,70.9 303.0,70.9 304.2,70.7 305.3,70.5 306.5,70.4 307.7,70.2 308.9,70.2 310.1,70.0 311.3,69.9 312.5,69.7 313.6,69.6 314.8,69.5 316.0,69.4 317.2,69.2 318.4,69.1 319.6,69.0 320.8,68.9 322.0,68.8 323.1,68.7 324.3,68.6 325.5,68.5 326.7,68.4 327.9,68.3 329.1,68.2 330.3,67.9 331.5,67.7 332.6,71.7 333.8,70.9 335.0,69.4 336.2,68.8 337.4,68.2 338.6,67.3 339.8,66.9 340.9,66.5 342.1,66.0 343.3,65.1 344.5,64.5 345.7,64.3 346.9,64.0 348.1,63.7 349.3,63.3 350.4,62.9 351.6,62.4 352.8,62.2 354.0,61.7 355.2,61.5 356.4,61.2 357.6,61.0 358.7,60.8 359.9,60.6 361.1,60.1 362.3,59.9 363.5,59.5 364.7,58.9 365.9,58.6 367.1,58.4 368.2,58.3 369.4,58.1 370.6,57.7 371.8,57.4 373.0,57.1 374.2,56.3 375.4,55.7 376.5,55.4 377.7,55.3 378.9,55.0 380.1,54.6 381.3,54.2 382.5,53.8 383.7,53.5 384.9,53.2 386.0,52.9 387.2,52.5 388.4,52.3 389.6,52.2 390.8,52.0 392.0,51.9 393.2,51.6 394.4,51.5 395.5,51.3 396.7,51.1 397.9,50.9 399.1,50.7 400.3,50.5 401.5,50.3 402.7,50.2 403.8,50.0 405.0,49.9 406.2,49.8 407.4,49.6 408.6,49.5 409.8,49.4 411.0,49.2 412.2,49.1 413.3,48.9 414.5,48.7 415.7,48.6 416.9,48.4 418.1,48.2 419.3,48.2 420.5,48.0 421.6,47.9 422.8,47.8 424.0,47.6 425.2,47.6 426.4,47.4 427.6,47.2 428.8,47.1 430.0,46.9 431.1,46.7 432.3,46.6 433.5,46.4 434.7,46.2 435.9,46.0 437.1,45.8 438.3,45.6 439.5,45.4 440.6,45.2 441.8,45.0 443.0,44.8 444.2,44.6 445.4,44.3 446.6,44.2 447.8,44.1 448.9,44.0 450.1,43.9 451.3,43.7 452.5,43.6 453.7,43.4 454.9,43.3 456.1,43.1 457.3,42.9 458.4,42.6 459.6,42.4 460.8,42.2 462.0,42.0 463.2,41.9 464.4,41.8 465.6,41.7 466.7,41.5 467.9,41.4 469.1,41.2 470.3,41.1 471.5,40.8 472.7,40.7 473.9,40.5 475.1,40.4 476.2,40.3 477.4,40.2 478.6,40.1 479.8,40.0 481.0,39.8 482.2,39.8 483.4,39.6 484.5,39.5 485.7,39.3 486.9,39.1 488.1,39.0 489.3,38.9 490.5,38.8 491.7,38.7 492.9,38.5 494.0,38.4 495.2,38.3 496.4,38.1 497.6,37.9 498.8,37.7 500.0,37.4 501.2,37.4 502.4,37.3 503.5,37.2 504.7,37.1 505.9,37.0 507.1,36.9 508.3,36.8 509.5,36.7 510.7,36.6 511.8,36.5 513.0,36.4 514.2,36.1 515.4,36.0 516.6,35.9 517.8,35.8 519.0,35.6 520.2,35.5 521.3,35.4 522.5,35.3 523.7,35.2 524.9,35.1 526.1,34.9 527.3,34.7 528.5,34.5 529.6,34.2 530.8,34.1 532.0,33.9 533.2,33.8 534.4,33.6 535.6,33.5 536.8,33.4 538.0,33.3 539.1,33.2 540.3,33.1 541.5,32.9 542.7,32.7 543.9,32.6 545.1,32.4 546.3,32.3 547.5,32.1 548.6,32.0 549.8,31.9 551.0,31.8 552.2,31.7 553.4,31.6 554.6,31.4 555.8,31.3 556.9,31.1 558.1,30.9 559.3,30.8 560.5,30.7 561.7,30.6 562.9,30.6 564.1,30.5 565.3,30.4 566.4,30.4 567.6,30.3 568.8,30.1 570.0,30.0" />
  
  <!-- Punto finale luminoso -->
  <circle cx="570.0" cy="30.0" r="4" fill="#ffffff" stroke="#0366d6" stroke-width="2.5" />
</svg>