<svg width="600" height="150" viewBox="0 0 600 150" xmlns="http://www.w3.org/2000/svg">
  <defs>
    <filter id="shadow2" x="-2%" y="-2%" width="104%" height="108%">
      <feDropShadow dx="0" dy="2" stdDeviation="3" flood-opacity="0.1" />
    </filter>
    <linearGradient id="fillGrad" x1="0" y1="0" x2="0" y2="1">
      <stop offset="0%" stop-color="#0366d6" stop-opacity="0.3"/>
      <stop offset="100%" stop-color="#0366d6" stop-opacity="0.02"/>
    </linearGradient>
  </defs>
  <rect width="600" height="150" rx="12" fill="#ffffff" filter="url(#shadow2)" stroke="#e1e4e8" stroke-width="1"/>
  <text x="20" y="24" fill="#2b3137" font-family="-apple-system,BlinkMacSystemFont,'Segoe UI',Helvetica,Arial,sans-serif" font-size="14" font-weight="600">📈 Download Growth (Actual: 88.3k)</text>
  
  <!-- Area sotto la linea -->
  <polygon fill="url(#fillGrad)" points="30.0,120.0,120 30.0,120.0 31.2,119.5 32.4,119.0 33.6,118.6 34.8,118.5 35.9,118.2 37.1,117.7 38.3,117.3 39.5,117.1 40.7,116.5 41.9,116.2 43.1,115.9 44.3,115.8 45.5,115.5 46.7,115.1 47.8,114.7 49.0,114.4 50.2,114.2 51.4,114.1 52.6,113.8 53.8,113.5 55.0,113.2 56.2,113.1 57.4,112.9 58.5,112.0 59.7,111.7 60.9,111.4 62.1,111.0 63.3,110.7 64.5,110.4 65.7,110.2 66.9,110.1 68.1,109.8 69.3,109.4 70.4,109.0 71.6,108.8 72.8,108.5 74.0,108.4 75.2,108.3 76.4,108.2 77.6,107.9 78.8,107.7 80.0,107.6 81.1,107.3 82.3,106.8 83.5,106.7 84.7,106.6 85.9,106.4 87.1,106.0 88.3,105.8 89.5,105.4 90.7,105.1 91.9,104.7 93.0,104.7 94.2,104.5 95.4,104.1 96.6,103.7 97.8,103.5 99.0,103.3 100.2,103.2 101.4,103.0 102.6,102.6 103.7,102.2 104.9,101.9 106.1,101.6 107.3,101.4 108.5,101.3 109.7,101.2 110.9,100.9 112.1,100.7 113.3,100.6 114.4,100.4 115.6,100.3 116.8,100.1 118.0,100.0 119.2,99.9 120.4,99.8 121.6,99.4 122.8,99.2 124.0,99.2 125.2,99.0 126.3,99.0 127.5,99.0 128.7,105.0 129.9,104.4 131.1,103.9 132.3,103.3 133.5,101.7 134.7,100.5 135.9,99.3 137.0,98.8 138.2,98.3 139.4,97.5 140.6,96.6 141.8,95.9 143.0,95.6 144.2,95.4 145.4,94.7 146.6,94.3 147.8,94.0 148.9,93.6 150.1,93.4 151.3,93.3 152.5,93.0 153.7,92.4 154.9,92.0 156.1,91.6 157.3,91.2 158.5,91.0 159.6,90.8 160.8,90.4 162.0,90.1 163.2,89.7 164.4,89.5 165.6,89.3 166.8,89.3 168.0,89.1 169.2,88.8 170.4,88.5 171.5,88.3 172.7,88.1 173.9,88.0 175.1,87.8 176.3,87.6 177.5,87.5 178.7,87.4 179.9,87.0 181.1,86.8 182.2,86.5 183.4,86.4 184.6,86.2 185.8,86.1 187.0,86.0 188.2,85.8 189.4,85.4 190.6,85.1 191.8,84.7 193.0,84.6 194.1,84.5 195.3,84.4 196.5,84.2 197.7,84.0 198.9,83.7 200.1,83.5 201.3,83.3 202.5,83.2 203.7,83.1 204.8,83.0 206.0,82.8 207.2,82.7 208.4,82.5 209.6,82.3 210.8,82.1 212.0,82.0 213.2,81.9 214.4,81.8 215.6,81.6 216.7,81.4 217.9,81.2 219.1,81.0 220.3,80.8 221.5,80.7 222.7,80.6 223.9,80.5 225.1,80.2 226.3,80.0 227.4,79.8 228.6,79.6 229.8,79.3 231.0,79.2 232.2,79.1 233.4,79.0 234.6,78.8 235.8,78.7 237.0,78.5 238.1,78.4 239.3,78.2 240.5,78.1 241.7,78.0 242.9,77.8 244.1,77.8 245.3,77.6 246.5,77.4 247.7,77.3 248.9,77.1 250.0,77.0 251.2,76.9 252.4,76.7 253.6,76.6 254.8,76.5 256.0,76.4 257.2,76.1 258.4,75.8 259.6,75.6 260.7,75.5 261.9,75.4 263.1,75.4 264.3,75.2 265.5,74.9 266.7,74.8 267.9,74.7 269.1,74.6 270.3,74.4 271.5,74.3 272.6,74.2 273.8,74.1 275.0,73.9 276.2,73.7 277.4,73.5 278.6,73.3 279.8,73.2 281.0,73.2 282.2,73.1 283.3,73.0 284.5,72.8 285.7,72.7 286.9,72.5 288.1,72.4 289.3,72.3 290.5,72.2 291.7,72.0 292.9,71.9 294.1,71.7 295.2,71.5 296.4,71.4 297.6,71.2 298.8,71.1 300.0,71.0 301.2,71.0 302.4,70.9 303.6,70.8 304.8,70.6 305.9,70.4 307.1,70.3 308.3,70.2 309.5,70.1 310.7,70.0 311.9,69.8 313.1,69.7 314.3,69.6 315.5,69.5 316.7,69.3 317.8,69.2 319.0,69.0 320.2,68.9 321.4,68.8 322.6,68.7 323.8,68.6 325.0,68.5 326.2,68.4 327.4,68.3 328.5,68.3 329.7,68.1 330.9,67.9 332.1,67.7 333.3,71.6 334.5,70.8 335.7,69.3 336.9,68.8 338.1,68.1 339.3,67.2 340.4,66.8 341.6,66.5 342.8,65.9 344.0,65.0 345.2,64.4 346.4,64.2 347.6,63.9 348.8,63.6 350.0,63.2 351.1,62.8 352.3,62.3 353.5,62.1 354.7,61.6 355.9,61.4 357.1,61.1 358.3,60.9 359.5,60.7 360.7,60.5 361.9,60.0 363.0,59.8 364.2,59.4 365.4,58.8 366.6,58.5 367.8,58.3 369.0,58.2 370.2,58.0 371.4,57.6 372.6,57.3 373.7,57.0 374.9,56.2 376.1,55.6 377.3,55.3 378.5,55.2 379.7,54.9 380.9,54.5 382.1,54.1 383.3,53.6 384.4,53.4 385.6,53.1 386.8,52.8 388.0,52.4 389.2,52.2 390.4,52.1 391.6,51.9 392.8,51.8 394.0,51.5 395.2,51.4 396.3,51.1 397.5,51.0 398.7,50.8 399.9,50.6 401.1,50.4 402.3,50.2 403.5,50.1 404.7,49.9 405.9,49.8 407.0,49.7 408.2,49.5 409.4,49.4 410.6,49.3 411.8,49.1 413.0,49.0 414.2,48.8 415.4,48.6 416.6,48.4 417.8,48.3 418.9,48.1 420.1,48.0 421.3,47.9 422.5,47.8 423.7,47.7 424.9,47.5 426.1,47.5 427.3,47.3 428.5,47.1 429.6,47.0 430.8,46.8 432.0,46.6 433.2,46.4 434.4,46.2 435.6,46.0 436.8,45.9 438.0,45.7 439.2,45.5 440.4,45.3 441.5,45.1 442.7,44.9 443.9,44.6 445.1,44.4 446.3,44.2 447.5,44.1 448.7,44.0 449.9,43.9 451.1,43.8 452.2,43.6 453.4,43.5 454.6,43.3 455.8,43.1 457.0,43.0 458.2,42.7 459.4,42.5 460.6,42.3 461.8,42.0 463.0,41.9 464.1,41.8 465.3,41.7 466.5,41.6 467.7,41.4 468.9,41.3 470.1,41.1 471.3,41.0 472.5,40.7 473.7,40.6 474.8,40.4 476.0,40.3 477.2,40.2 478.4,40.1 479.6,40.0 480.8,39.9 482.0,39.7 483.2,39.6 484.4,39.5 485.6,39.3 486.7,39.2 487.9,39.0 489.1,38.9 490.3,38.7 491.5,38.7 492.7,38.5 493.9,38.4 495.1,38.3 496.3,38.1 497.4,38.0 498.6,37.7 499.8,37.6 501.0,37.3 502.2,37.2 503.4,37.2 504.6,37.1 505.8,36.9 507.0,36.9 508.1,36.8 509.3,36.7 510.5,36.6 511.7,36.5 512.9,36.3 514.1,36.2 515.3,36.0 516.5,35.9 517.7,35.8 518.9,35.7 520.0,35.5 521.2,35.4 522.4,35.2 523.6,35.2 524.8,35.0 526.0,34.9 527.2,34.8 528.4,34.5 529.6,34.3 530.7,34.1 531.9,34.0 533.1,33.8 534.3,33.6 535.5,33.5 536.7,33.4 537.9,33.3 539.1,33.2 540.3,33.1 541.5,32.9 542.6,32.7 543.8,32.6 545.0,32.4 546.2,32.3 547.4,32.1 548.6,31.9 549.8,31.8 551.0,31.7 552.2,31.6 553.3,31.6 554.5,31.4 555.7,31.3 556.9,31.1 558.1,31.0 559.3,30.8 560.5,30.7 561.7,30.6 562.9,30.5 564.1,30.5 565.2,30.4 566.4,30.3 567.6,30.2 568.8,30.1 570.0,30.0 570.0,30.0,120" />
  
  <!-- Linea principale -->
  <polyline fill="none" stroke="#0366d6" stroke-width="2.5" stroke-linecap="round" stroke-linejoin="round" points="30.0,120.0 31.2,119.5 32.4,119.0 33.6,118.6 34.8,118.5 35.9,118.2 37.1,117.7 38.3,117.3 39.5,117.1 40.7,116.5 41.9,116.2 43.1,115.9 44.3,115.8 45.5,115.5 46.7,115.1 47.8,114.7 49.0,114.4 50.2,114.2 51.4,114.1 52.6,113.8 53.8,113.5 55.0,113.2 56.2,113.1 57.4,112.9 58.5,112.0 59.7,111.7 60.9,111.4 62.1,111.0 63.3,110.7 64.5,110.4 65.7,110.2 66.9,110.1 68.1,109.8 69.3,109.4 70.4,109.0 71.6,108.8 72.8,108.5 74.0,108.4 75.2,108.3 76.4,108.2 77.6,107.9 78.8,107.7 80.0,107.6 81.1,107.3 82.3,106.8 83.5,106.7 84.7,106.6 85.9,106.4 87.1,106.0 88.3,105.8 89.5,105.4 90.7,105.1 91.9,104.7 93.0,104.7 94.2,104.5 95.4,104.1 96.6,103.7 97.8,103.5 99.0,103.3 100.2,103.2 101.4,103.0 102.6,102.6 103.7,102.2 104.9,101.9 106.1,101.6 107.3,101.4 108.5,101.3 109.7,101.2 110.9,100.9 112.1,100.7 113.3,100.6 114.4,100.4 115.6,100.3 116.8,100.1 118.0,100.0 119.2,99.9 120.4,99.8 121.6,99.4 122.8,99.2 124.0,99.2 125.2,99.0 126.3,99.0 127.5,99.0 128.7,105.0 129.9,104.4 131.1,103.9 132.3,103.3 133.5,101.7 134.7,100.5 135.9,99.3 137.0,98.8 138.2,98.3 139.4,97.5 140.6,96.6 141.8,95.9 143.0,95.6 144.2,95.4 145.4,94.7 146.6,94.3 147.8,94.0 148.9,93.6 150.1,93.4 151.3,93.3 152.5,93.0 153.7,92.4 154.9,92.0 156.1,91.6 157.3,91.2 158.5,91.0 159.6,90.8 160.8,90.4 162.0,90.1 163.2,89.7 164.4,89.5 165.6,89.3 166.8,89.3 168.0,89.1 169.2,88.8 170.4,88.5 171.5,88.3 172.7,88.1 173.9,88.0 175.1,87.8 176.3,87.6 177.5,87.5 178.7,87.4 179.9,87.0 181.1,86.8 182.2,86.5 183.4,86.4 184.6,86.2 185.8,86.1 187.0,86.0 188.2,85.8 189.4,85.4 190.6,85.1 191.8,84.7 193.0,84.6 194.1,84.5 195.3,84.4 196.5,84.2 197.7,84.0 198.9,83.7 200.1,83.5 201.3,83.3 202.5,83.2 203.7,83.1 204.8,83.0 206.0,82.8 207.2,82.7 208.4,82.5 209.6,82.3 210.8,82.1 212.0,82.0 213.2,81.9 214.4,81.8 215.6,81.6 216.7,81.4 217.9,81.2 219.1,81.0 220.3,80.8 221.5,80.7 222.7,80.6 223.9,80.5 225.1,80.2 226.3,80.0 227.4,79.8 228.6,79.6 229.8,79.3 231.0,79.2 232.2,79.1 233.4,79.0 234.6,78.8 235.8,78.7 237.0,78.5 238.1,78.4 239.3,78.2 240.5,78.1 241.7,78.0 242.9,77.8 244.1,77.8 245.3,77.6 246.5,77.4 247.7,77.3 248.9,77.1 250.0,77.0 251.2,76.9 252.4,76.7 253.6,76.6 254.8,76.5 256.0,76.4 257.2,76.1 258.4,75.8 259.6,75.6 260.7,75.5 261.9,75.4 263.1,75.4 264.3,75.2 265.5,74.9 266.7,74.8 267.9,74.7 269.1,74.6 270.3,74.4 271.5,74.3 272.6,74.2 273.8,74.1 275.0,73.9 276.2,73.7 277.4,73.5 278.6,73.3 279.8,73.2 281.0,73.2 282.2,73.1 283.3,73.0 284.5,72.8 285.7,72.7 286.9,72.5 288.1,72.4 289.3,72.3 290.5,72.2 291.7,72.0 292.9,71.9 294.1,71.7 295.2,71.5 296.4,71.4 297.6,71.2 298.8,71.1 300.0,71.0 301.2,71.0 302.4,70.9 303.6,70.8 304.8,70.6 305.9,70.4 307.1,70.3 308.3,70.2 309.5,70.1 310.7,70.0 311.9,69.8 313.1,69.7 314.3,69.6 315.5,69.5 316.7,69.3 317.8,69.2 319.0,69.0 320.2,68.9 321.4,68.8 322.6,68.7 323.8,68.6 325.0,68.5 326.2,68.4 327.4,68.3 328.5,68.3 329.7,68.1 330.9,67.9 332.1,67.7 333.3,71.6 334.5,70.8 335.7,69.3 336.9,68.8 338.1,68.1 339.3,67.2 340.4,66.8 341.6,66.5 342.8,65.9 344.0,65.0 345.2,64.4 346.4,64.2 347.6,63.9 348.8,63.6 350.0,63.2 351.1,62.8 352.3,62.3 353.5,62.1 354.7,61.6 355.9,61.4 357.1,61.1 358.3,60.9 359.5,60.7 360.7,60.5 361.9,60.0 363.0,59.8 364.2,59.4 365.4,58.8 366.6,58.5 367.8,58.3 369.0,58.2 370.2,58.0 371.4,57.6 372.6,57.3 373.7,57.0 374.9,56.2 376.1,55.6 377.3,55.3 378.5,55.2 379.7,54.9 380.9,54.5 382.1,54.1 383.3,53.6 384.4,53.4 385.6,53.1 386.8,52.8 388.0,52.4 389.2,52.2 390.4,52.1 391.6,51.9 392.8,51.8 394.0,51.5 395.2,51.4 396.3,51.1 397.5,51.0 398.7,50.8 399.9,50.6 401.1,50.4 402.3,50.2 403.5,50.1 404.7,49.9 405.9,49.8 407.0,49.7 408.2,49.5 409.4,49.4 410.6,49.3 411.8,49.1 413.0,49.0 414.2,48.8 415.4,48.6 416.6,48.4 417.8,48.3 418.9,48.1 420.1,48.0 421.3,47.9 422.5,47.8 423.7,47.7 424.9,47.5 426.1,47.5 427.3,47.3 428.5,47.1 429.6,47.0 430.8,46.8 432.0,46.6 433.2,46.4 434.4,46.2 435.6,46.0 436.8,45.9 438.0,45.7 439.2,45.5 440.4,45.3 441.5,45.1 442.7,44.9 443.9,44.6 445.1,44.4 446.3,44.2 447.5,44.1 448.7,44.0 449.9,43.9 451.1,43.8 452.2,43.6 453.4,43.5 454.6,43.3 455.8,43.1 457.0,43.0 458.2,42.7 459.4,42.5 460.6,42.3 461.8,42.0 463.0,41.9 464.1,41.8 465.3,41.7 466.5,41.6 467.7,41.4 468.9,41.3 470.1,41.1 471.3,41.0 472.5,40.7 473.7,40.6 474.8,40.4 476.0,40.3 477.2,40.2 478.4,40.1 479.6,40.0 480.8,39.9 482.0,39.7 483.2,39.6 484.4,39.5 485.6,39.3 486.7,39.2 487.9,39.0 489.1,38.9 490.3,38.7 491.5,38.7 492.7,38.5 493.9,38.4 495.1,38.3 496.3,38.1 497.4,38.0 498.6,37.7 499.8,37.6 501.0,37.3 502.2,37.2 503.4,37.2 504.6,37.1 505.8,36.9 507.0,36.9 508.1,36.8 509.3,36.7 510.5,36.6 511.7,36.5 512.9,36.3 514.1,36.2 515.3,36.0 516.5,35.9 517.7,35.8 518.9,35.7 520.0,35.5 521.2,35.4 522.4,35.2 523.6,35.2 524.8,35.0 526.0,34.9 527.2,34.8 528.4,34.5 529.6,34.3 530.7,34.1 531.9,34.0 533.1,33.8 534.3,33.6 535.5,33.5 536.7,33.4 537.9,33.3 539.1,33.2 540.3,33.1 541.5,32.9 542.6,32.7 543.8,32.6 545.0,32.4 546.2,32.3 547.4,32.1 548.6,31.9 549.8,31.8 551.0,31.7 552.2,31.6 553.3,31.6 554.5,31.4 555.7,31.3 556.9,31.1 558.1,31.0 559.3,30.8 560.5,30.7 561.7,30.6 562.9,30.5 564.1,30.5 565.2,30.4 566.4,30.3 567.6,30.2 568.8,30.1 570.0,30.0" />
  
  <!-- Punto finale luminoso -->
  <circle cx="570.0" cy="30.0" r="4" fill="#ffffff" stroke="#0366d6" stroke-width="2.5" />
</svg>