<svg width="600" height="150" viewBox="0 0 600 150" xmlns="http://www.w3.org/2000/svg">
  <defs>
    <filter id="shadow2" x="-2%" y="-2%" width="104%" height="108%">
      <feDropShadow dx="0" dy="2" stdDeviation="3" flood-opacity="0.1" />
    </filter>
    <linearGradient id="fillGrad" x1="0" y1="0" x2="0" y2="1">
      <stop offset="0%" stop-color="#0366d6" stop-opacity="0.3"/>
      <stop offset="100%" stop-color="#0366d6" stop-opacity="0.02"/>
    </linearGradient>
  </defs>
  <rect width="600" height="150" rx="12" fill="#ffffff" filter="url(#shadow2)" stroke="#e1e4e8" stroke-width="1"/>
  <text x="20" y="24" fill="#2b3137" font-family="-apple-system,BlinkMacSystemFont,'Segoe UI',Helvetica,Arial,sans-serif" font-size="14" font-weight="600">📈 Download Growth (Actual: 87.9k)</text>
  
  <!-- Area sotto la linea -->
  <polygon fill="url(#fillGrad)" points="30.0,120.0,120 30.0,120.0 31.2,119.5 32.4,119.0 33.7,118.5 34.9,118.4 36.1,118.2 37.3,117.6 38.6,117.3 39.8,117.0 41.0,116.4 42.2,116.2 43.4,115.9 44.7,115.7 45.9,115.4 47.1,115.1 48.3,114.6 49.5,114.3 50.8,114.1 52.0,114.0 53.2,113.7 54.4,113.4 55.7,113.1 56.9,113.0 58.1,112.8 59.3,111.9 60.5,111.6 61.8,111.2 63.0,110.9 64.2,110.6 65.4,110.3 66.7,110.1 67.9,109.9 69.1,109.7 70.3,109.2 71.5,108.9 72.8,108.6 74.0,108.3 75.2,108.2 76.4,108.1 77.6,108.0 78.9,107.7 80.1,107.5 81.3,107.4 82.5,107.1 83.8,106.6 85.0,106.5 86.2,106.4 87.4,106.2 88.6,105.8 89.9,105.5 91.1,105.1 92.3,104.9 93.5,104.5 94.8,104.4 96.0,104.2 97.2,103.9 98.4,103.5 99.6,103.2 100.9,103.1 102.1,102.9 103.3,102.8 104.5,102.3 105.7,102.0 107.0,101.6 108.2,101.3 109.4,101.1 110.6,101.0 111.9,100.9 113.1,100.6 114.3,100.4 115.5,100.3 116.7,100.1 118.0,100.0 119.2,99.8 120.4,99.7 121.6,99.6 122.9,99.5 124.1,99.1 125.3,98.9 126.5,98.9 127.7,98.7 129.0,98.7 130.2,98.7 131.4,104.8 132.6,104.2 133.8,103.6 135.1,103.1 136.3,101.4 137.5,100.2 138.7,99.0 140.0,98.5 141.2,98.0 142.4,97.2 143.6,96.2 144.8,95.5 146.1,95.3 147.3,95.0 148.5,94.4 149.7,93.9 151.0,93.6 152.2,93.2 153.4,93.0 154.6,92.9 155.8,92.6 157.1,92.0 158.3,91.6 159.5,91.2 160.7,90.7 161.9,90.5 163.2,90.4 164.4,90.0 165.6,89.6 166.8,89.3 168.1,89.0 169.3,88.9 170.5,88.8 171.7,88.6 172.9,88.3 174.2,88.1 175.4,87.9 176.6,87.7 177.8,87.5 179.0,87.3 180.3,87.2 181.5,87.0 182.7,86.9 183.9,86.6 185.2,86.3 186.4,86.1 187.6,85.9 188.8,85.7 190.0,85.6 191.3,85.5 192.5,85.3 193.7,84.9 194.9,84.6 196.2,84.2 197.4,84.1 198.6,84.0 199.8,83.8 201.0,83.7 202.3,83.4 203.5,83.2 204.7,82.9 205.9,82.8 207.1,82.7 208.4,82.5 209.6,82.4 210.8,82.3 212.0,82.1 213.3,82.0 214.5,81.7 215.7,81.6 216.9,81.5 218.1,81.4 219.4,81.3 220.6,81.1 221.8,80.9 223.0,80.7 224.3,80.5 225.5,80.3 226.7,80.1 227.9,80.1 229.1,79.9 230.4,79.6 231.6,79.4 232.8,79.2 234.0,79.0 235.2,78.7 236.5,78.6 237.7,78.5 238.9,78.4 240.1,78.2 241.4,78.1 242.6,77.9 243.8,77.8 245.0,77.6 246.2,77.5 247.5,77.3 248.7,77.2 249.9,77.2 251.1,77.0 252.4,76.7 253.6,76.6 254.8,76.4 256.0,76.3 257.2,76.2 258.5,76.1 259.7,76.0 260.9,75.9 262.1,75.7 263.3,75.5 264.6,75.2 265.8,75.0 267.0,74.8 268.2,74.8 269.5,74.7 270.7,74.5 271.9,74.3 273.1,74.2 274.3,74.1 275.6,73.9 276.8,73.8 278.0,73.6 279.2,73.5 280.5,73.4 281.7,73.2 282.9,73.0 284.1,72.8 285.3,72.6 286.6,72.5 287.8,72.5 289.0,72.4 290.2,72.3 291.4,72.1 292.7,72.0 293.9,71.8 295.1,71.7 296.3,71.6 297.6,71.5 298.8,71.3 300.0,71.2 301.2,71.0 302.4,70.8 303.7,70.7 304.9,70.5 306.1,70.4 307.3,70.3 308.6,70.2 309.8,70.1 311.0,70.1 312.2,69.9 313.4,69.7 314.7,69.6 315.9,69.4 317.1,69.3 318.3,69.2 319.5,69.1 320.8,68.9 322.0,68.8 323.2,68.7 324.4,68.6 325.7,68.4 326.9,68.3 328.1,68.1 329.3,68.1 330.5,68.0 331.8,67.9 333.0,67.8 334.2,67.6 335.4,67.5 336.7,67.5 337.9,67.4 339.1,67.1 340.3,66.9 341.5,70.9 342.8,70.1 344.0,68.6 345.2,68.0 346.4,67.3 347.6,66.5 348.9,66.0 350.1,65.7 351.3,65.1 352.5,64.2 353.8,63.6 355.0,63.4 356.2,63.1 357.4,62.8 358.6,62.3 359.9,61.9 361.1,61.4 362.3,61.2 363.5,60.8 364.8,60.5 366.0,60.2 367.2,60.1 368.4,59.8 369.6,59.6 370.9,59.2 372.1,58.9 373.3,58.5 374.5,57.9 375.7,57.6 377.0,57.4 378.2,57.3 379.4,57.1 380.6,56.7 381.9,56.4 383.1,56.1 384.3,55.3 385.5,54.7 386.7,54.4 388.0,54.2 389.2,53.9 390.4,53.5 391.6,53.2 392.9,52.7 394.1,52.4 395.3,52.1 396.5,51.8 397.7,51.4 399.0,51.2 400.2,51.1 401.4,50.9 402.6,50.7 403.8,50.5 405.1,50.4 406.3,50.1 407.5,49.9 408.7,49.8 410.0,49.5 411.2,49.4 412.4,49.2 413.6,49.0 414.8,48.9 416.1,48.7 417.3,48.6 418.5,48.5 419.7,48.3 421.0,48.3 422.2,48.1 423.4,47.9 424.6,47.8 425.8,47.6 427.1,47.4 428.3,47.3 429.5,47.1 430.7,47.0 431.9,46.9 433.2,46.7 434.4,46.6 435.6,46.5 436.8,46.4 438.1,46.2 439.3,46.1 440.5,45.9 441.7,45.7 442.9,45.5 444.2,45.4 445.4,45.2 446.6,45.0 447.8,44.8 449.0,44.6 450.3,44.4 451.5,44.2 452.7,44.0 453.9,43.8 455.2,43.5 456.4,43.3 457.6,43.1 458.8,43.0 460.0,42.9 461.3,42.8 462.5,42.6 463.7,42.5 464.9,42.3 466.2,42.2 467.4,42.0 468.6,41.8 469.8,41.6 471.0,41.4 472.3,41.2 473.5,40.9 474.7,40.8 475.9,40.6 477.1,40.5 478.4,40.4 479.6,40.3 480.8,40.1 482.0,39.9 483.3,39.8 484.5,39.5 485.7,39.4 486.9,39.2 488.1,39.1 489.4,39.0 490.6,38.9 491.8,38.8 493.0,38.7 494.3,38.5 495.5,38.5 496.7,38.3 497.9,38.1 499.1,38.0 500.4,37.8 501.6,37.7 502.8,37.6 504.0,37.5 505.2,37.3 506.5,37.2 507.7,37.1 508.9,36.9 510.1,36.8 511.4,36.5 512.6,36.4 513.8,36.1 515.0,36.0 516.2,35.9 517.5,35.9 518.7,35.7 519.9,35.7 521.1,35.6 522.4,35.5 523.6,35.4 524.8,35.3 526.0,35.1 527.2,35.0 528.5,34.8 529.7,34.6 530.9,34.5 532.1,34.4 533.3,34.3 534.6,34.2 535.8,34.0 537.0,33.9 538.2,33.8 539.5,33.7 540.7,33.5 541.9,33.3 543.1,33.1 544.3,32.8 545.6,32.7 546.8,32.5 548.0,32.4 549.2,32.2 550.5,32.1 551.7,32.0 552.9,31.9 554.1,31.8 555.3,31.6 556.6,31.5 557.8,31.3 559.0,31.1 560.2,31.0 561.4,30.8 562.7,30.6 563.9,30.5 565.1,30.4 566.3,30.3 567.6,30.3 568.8,30.1 570.0,30.0 570.0,30.0,120" />
  
  <!-- Linea principale -->
  <polyline fill="none" stroke="#0366d6" stroke-width="2.5" stroke-linecap="round" stroke-linejoin="round" points="30.0,120.0 31.2,119.5 32.4,119.0 33.7,118.5 34.9,118.4 36.1,118.2 37.3,117.6 38.6,117.3 39.8,117.0 41.0,116.4 42.2,116.2 43.4,115.9 44.7,115.7 45.9,115.4 47.1,115.1 48.3,114.6 49.5,114.3 50.8,114.1 52.0,114.0 53.2,113.7 54.4,113.4 55.7,113.1 56.9,113.0 58.1,112.8 59.3,111.9 60.5,111.6 61.8,111.2 63.0,110.9 64.2,110.6 65.4,110.3 66.7,110.1 67.9,109.9 69.1,109.7 70.3,109.2 71.5,108.9 72.8,108.6 74.0,108.3 75.2,108.2 76.4,108.1 77.6,108.0 78.9,107.7 80.1,107.5 81.3,107.4 82.5,107.1 83.8,106.6 85.0,106.5 86.2,106.4 87.4,106.2 88.6,105.8 89.9,105.5 91.1,105.1 92.3,104.9 93.5,104.5 94.8,104.4 96.0,104.2 97.2,103.9 98.4,103.5 99.6,103.2 100.9,103.1 102.1,102.9 103.3,102.8 104.5,102.3 105.7,102.0 107.0,101.6 108.2,101.3 109.4,101.1 110.6,101.0 111.9,100.9 113.1,100.6 114.3,100.4 115.5,100.3 116.7,100.1 118.0,100.0 119.2,99.8 120.4,99.7 121.6,99.6 122.9,99.5 124.1,99.1 125.3,98.9 126.5,98.9 127.7,98.7 129.0,98.7 130.2,98.7 131.4,104.8 132.6,104.2 133.8,103.6 135.1,103.1 136.3,101.4 137.5,100.2 138.7,99.0 140.0,98.5 141.2,98.0 142.4,97.2 143.6,96.2 144.8,95.5 146.1,95.3 147.3,95.0 148.5,94.4 149.7,93.9 151.0,93.6 152.2,93.2 153.4,93.0 154.6,92.9 155.8,92.6 157.1,92.0 158.3,91.6 159.5,91.2 160.7,90.7 161.9,90.5 163.2,90.4 164.4,90.0 165.6,89.6 166.8,89.3 168.1,89.0 169.3,88.9 170.5,88.8 171.7,88.6 172.9,88.3 174.2,88.1 175.4,87.9 176.6,87.7 177.8,87.5 179.0,87.3 180.3,87.2 181.5,87.0 182.7,86.9 183.9,86.6 185.2,86.3 186.4,86.1 187.6,85.9 188.8,85.7 190.0,85.6 191.3,85.5 192.5,85.3 193.7,84.9 194.9,84.6 196.2,84.2 197.4,84.1 198.6,84.0 199.8,83.8 201.0,83.7 202.3,83.4 203.5,83.2 204.7,82.9 205.9,82.8 207.1,82.7 208.4,82.5 209.6,82.4 210.8,82.3 212.0,82.1 213.3,82.0 214.5,81.7 215.7,81.6 216.9,81.5 218.1,81.4 219.4,81.3 220.6,81.1 221.8,80.9 223.0,80.7 224.3,80.5 225.5,80.3 226.7,80.1 227.9,80.1 229.1,79.9 230.4,79.6 231.6,79.4 232.8,79.2 234.0,79.0 235.2,78.7 236.5,78.6 237.7,78.5 238.9,78.4 240.1,78.2 241.4,78.1 242.6,77.9 243.8,77.8 245.0,77.6 246.2,77.5 247.5,77.3 248.7,77.2 249.9,77.2 251.1,77.0 252.4,76.7 253.6,76.6 254.8,76.4 256.0,76.3 257.2,76.2 258.5,76.1 259.7,76.0 260.9,75.9 262.1,75.7 263.3,75.5 264.6,75.2 265.8,75.0 267.0,74.8 268.2,74.8 269.5,74.7 270.7,74.5 271.9,74.3 273.1,74.2 274.3,74.1 275.6,73.9 276.8,73.8 278.0,73.6 279.2,73.5 280.5,73.4 281.7,73.2 282.9,73.0 284.1,72.8 285.3,72.6 286.6,72.5 287.8,72.5 289.0,72.4 290.2,72.3 291.4,72.1 292.7,72.0 293.9,71.8 295.1,71.7 296.3,71.6 297.6,71.5 298.8,71.3 300.0,71.2 301.2,71.0 302.4,70.8 303.7,70.7 304.9,70.5 306.1,70.4 307.3,70.3 308.6,70.2 309.8,70.1 311.0,70.1 312.2,69.9 313.4,69.7 314.7,69.6 315.9,69.4 317.1,69.3 318.3,69.2 319.5,69.1 320.8,68.9 322.0,68.8 323.2,68.7 324.4,68.6 325.7,68.4 326.9,68.3 328.1,68.1 329.3,68.1 330.5,68.0 331.8,67.9 333.0,67.8 334.2,67.6 335.4,67.5 336.7,67.5 337.9,67.4 339.1,67.1 340.3,66.9 341.5,70.9 342.8,70.1 344.0,68.6 345.2,68.0 346.4,67.3 347.6,66.5 348.9,66.0 350.1,65.7 351.3,65.1 352.5,64.2 353.8,63.6 355.0,63.4 356.2,63.1 357.4,62.8 358.6,62.3 359.9,61.9 361.1,61.4 362.3,61.2 363.5,60.8 364.8,60.5 366.0,60.2 367.2,60.1 368.4,59.8 369.6,59.6 370.9,59.2 372.1,58.9 373.3,58.5 374.5,57.9 375.7,57.6 377.0,57.4 378.2,57.3 379.4,57.1 380.6,56.7 381.9,56.4 383.1,56.1 384.3,55.3 385.5,54.7 386.7,54.4 388.0,54.2 389.2,53.9 390.4,53.5 391.6,53.2 392.9,52.7 394.1,52.4 395.3,52.1 396.5,51.8 397.7,51.4 399.0,51.2 400.2,51.1 401.4,50.9 402.6,50.7 403.8,50.5 405.1,50.4 406.3,50.1 407.5,49.9 408.7,49.8 410.0,49.5 411.2,49.4 412.4,49.2 413.6,49.0 414.8,48.9 416.1,48.7 417.3,48.6 418.5,48.5 419.7,48.3 421.0,48.3 422.2,48.1 423.4,47.9 424.6,47.8 425.8,47.6 427.1,47.4 428.3,47.3 429.5,47.1 430.7,47.0 431.9,46.9 433.2,46.7 434.4,46.6 435.6,46.5 436.8,46.4 438.1,46.2 439.3,46.1 440.5,45.9 441.7,45.7 442.9,45.5 444.2,45.4 445.4,45.2 446.6,45.0 447.8,44.8 449.0,44.6 450.3,44.4 451.5,44.2 452.7,44.0 453.9,43.8 455.2,43.5 456.4,43.3 457.6,43.1 458.8,43.0 460.0,42.9 461.3,42.8 462.5,42.6 463.7,42.5 464.9,42.3 466.2,42.2 467.4,42.0 468.6,41.8 469.8,41.6 471.0,41.4 472.3,41.2 473.5,40.9 474.7,40.8 475.9,40.6 477.1,40.5 478.4,40.4 479.6,40.3 480.8,40.1 482.0,39.9 483.3,39.8 484.5,39.5 485.7,39.4 486.9,39.2 488.1,39.1 489.4,39.0 490.6,38.9 491.8,38.8 493.0,38.7 494.3,38.5 495.5,38.5 496.7,38.3 497.9,38.1 499.1,38.0 500.4,37.8 501.6,37.7 502.8,37.6 504.0,37.5 505.2,37.3 506.5,37.2 507.7,37.1 508.9,36.9 510.1,36.8 511.4,36.5 512.6,36.4 513.8,36.1 515.0,36.0 516.2,35.9 517.5,35.9 518.7,35.7 519.9,35.7 521.1,35.6 522.4,35.5 523.6,35.4 524.8,35.3 526.0,35.1 527.2,35.0 528.5,34.8 529.7,34.6 530.9,34.5 532.1,34.4 533.3,34.3 534.6,34.2 535.8,34.0 537.0,33.9 538.2,33.8 539.5,33.7 540.7,33.5 541.9,33.3 543.1,33.1 544.3,32.8 545.6,32.7 546.8,32.5 548.0,32.4 549.2,32.2 550.5,32.1 551.7,32.0 552.9,31.9 554.1,31.8 555.3,31.6 556.6,31.5 557.8,31.3 559.0,31.1 560.2,31.0 561.4,30.8 562.7,30.6 563.9,30.5 565.1,30.4 566.3,30.3 567.6,30.3 568.8,30.1 570.0,30.0" />
  
  <!-- Punto finale luminoso -->
  <circle cx="570.0" cy="30.0" r="4" fill="#ffffff" stroke="#0366d6" stroke-width="2.5" />
</svg>