<svg width="600" height="150" viewBox="0 0 600 150" xmlns="http://www.w3.org/2000/svg">
  <defs>
    <filter id="shadow2" x="-2%" y="-2%" width="104%" height="108%">
      <feDropShadow dx="0" dy="2" stdDeviation="3" flood-opacity="0.1" />
    </filter>
    <linearGradient id="fillGrad" x1="0" y1="0" x2="0" y2="1">
      <stop offset="0%" stop-color="#0366d6" stop-opacity="0.3"/>
      <stop offset="100%" stop-color="#0366d6" stop-opacity="0.02"/>
    </linearGradient>
  </defs>
  <rect width="600" height="150" rx="12" fill="#ffffff" filter="url(#shadow2)" stroke="#e1e4e8" stroke-width="1"/>
  <text x="20" y="24" fill="#2b3137" font-family="-apple-system,BlinkMacSystemFont,'Segoe UI',Helvetica,Arial,sans-serif" font-size="14" font-weight="600">📈 Download Growth (Actual: 85.6k)</text>
  
  <!-- Area sotto la linea -->
  <polygon fill="url(#fillGrad)" points="30.0,120.0,120 30.0,120.0 31.5,119.5 32.9,118.9 34.4,118.4 35.8,118.2 37.3,118.0 38.8,117.3 40.2,116.9 41.7,116.6 43.1,116.0 44.6,115.7 46.1,115.4 47.5,115.2 49.0,114.9 50.4,114.4 51.9,114.0 53.4,113.6 54.8,113.4 56.3,113.2 57.7,112.9 59.2,112.6 60.6,112.3 62.1,112.2 63.6,111.9 65.0,110.9 66.5,110.6 67.9,110.2 69.4,109.8 70.9,109.4 72.3,109.1 73.8,108.8 75.2,108.7 76.7,108.4 78.2,107.9 79.6,107.5 81.1,107.2 82.5,106.9 84.0,106.8 85.5,106.7 86.9,106.5 88.4,106.2 89.8,106.0 91.3,105.8 92.8,105.5 94.2,104.9 95.7,104.8 97.1,104.7 98.6,104.5 100.1,104.0 101.5,103.8 103.0,103.3 104.4,103.0 105.9,102.6 107.4,102.5 108.8,102.3 110.3,101.9 111.7,101.5 113.2,101.1 114.6,101.0 116.1,100.8 117.6,100.6 119.0,100.2 120.5,99.7 121.9,99.4 123.4,99.0 124.9,98.8 126.3,98.7 127.8,98.5 129.2,98.2 130.7,98.0 132.2,97.8 133.6,97.7 135.1,97.5 136.5,97.3 138.0,97.2 139.5,97.1 140.9,97.0 142.4,96.6 143.8,96.3 145.3,96.3 146.8,96.1 148.2,96.0 149.7,96.0 151.1,102.9 152.6,102.2 154.1,101.6 155.5,101.0 157.0,99.1 158.4,97.8 159.9,96.4 161.4,95.9 162.8,95.3 164.3,94.3 165.7,93.3 167.2,92.5 168.6,92.2 170.1,91.9 171.6,91.2 173.0,90.6 174.5,90.3 175.9,89.9 177.4,89.7 178.9,89.6 180.3,89.2 181.8,88.6 183.2,88.1 184.7,87.6 186.2,87.1 187.6,86.9 189.1,86.7 190.5,86.3 192.0,85.9 193.5,85.5 194.9,85.2 196.4,85.0 197.8,84.9 199.3,84.7 200.8,84.4 202.2,84.1 203.7,83.9 205.1,83.7 206.6,83.5 208.1,83.3 209.5,83.1 211.0,83.0 212.4,82.8 213.9,82.4 215.4,82.2 216.8,81.8 218.3,81.7 219.7,81.5 221.2,81.3 222.6,81.2 224.1,81.0 225.6,80.5 227.0,80.2 228.5,79.8 229.9,79.6 231.4,79.6 232.9,79.4 234.3,79.2 235.8,78.9 237.2,78.7 238.7,78.4 240.2,78.2 241.6,78.1 243.1,77.9 244.5,77.8 246.0,77.6 247.5,77.4 248.9,77.3 250.4,77.0 251.8,76.8 253.3,76.7 254.8,76.6 256.2,76.5 257.7,76.2 259.1,76.0 260.6,75.8 262.1,75.6 263.5,75.4 265.0,75.2 266.4,75.1 267.9,75.0 269.4,74.6 270.8,74.4 272.3,74.2 273.7,73.9 275.2,73.6 276.6,73.5 278.1,73.4 279.6,73.3 281.0,73.1 282.5,72.9 283.9,72.7 285.4,72.5 286.9,72.4 288.3,72.2 289.8,72.1 291.2,71.9 292.7,71.8 294.2,71.7 295.6,71.4 297.1,71.3 298.5,71.0 300.0,70.9 301.5,70.8 302.9,70.6 304.4,70.5 305.8,70.4 307.3,70.2 308.8,69.9 310.2,69.6 311.7,69.4 313.1,69.2 314.6,69.2 316.1,69.1 317.5,68.9 319.0,68.6 320.4,68.5 321.9,68.4 323.4,68.2 324.8,68.0 326.3,67.8 327.7,67.7 329.2,67.6 330.6,67.4 332.1,67.2 333.6,67.0 335.0,66.8 336.5,66.7 337.9,66.6 339.4,66.5 340.9,66.4 342.3,66.2 343.8,66.0 345.2,65.9 346.7,65.7 348.2,65.6 349.6,65.5 351.1,65.3 352.5,65.2 354.0,65.0 355.5,64.7 356.9,64.6 358.4,64.4 359.8,64.3 361.3,64.2 362.8,64.1 364.2,64.0 365.7,63.9 367.1,63.7 368.6,63.5 370.1,63.3 371.5,63.2 373.0,63.1 374.4,62.9 375.9,62.8 377.4,62.6 378.8,62.5 380.3,62.4 381.7,62.2 383.2,62.0 384.6,61.9 386.1,61.7 387.6,61.6 389.0,61.5 390.5,61.4 391.9,61.3 393.4,61.2 394.9,61.0 396.3,61.0 397.8,60.9 399.2,60.5 400.7,60.3 402.2,64.8 403.6,63.9 405.1,62.2 406.5,61.6 408.0,60.8 409.5,59.8 410.9,59.3 412.4,58.9 413.8,58.3 415.3,57.3 416.8,56.6 418.2,56.4 419.7,56.0 421.1,55.7 422.6,55.2 424.1,54.7 425.5,54.2 427.0,53.9 428.4,53.4 429.9,53.2 431.4,52.8 432.8,52.6 434.3,52.4 435.7,52.1 437.2,51.6 438.6,51.3 440.1,50.9 441.6,50.3 443.0,49.9 444.5,49.7 445.9,49.5 447.4,49.3 448.9,48.9 450.3,48.5 451.8,48.2 453.2,47.3 454.7,46.6 456.2,46.3 457.6,46.1 459.1,45.8 460.5,45.3 462.0,44.9 463.5,44.3 464.9,44.0 466.4,43.7 467.8,43.4 469.3,42.9 470.8,42.7 472.2,42.5 473.7,42.4 475.1,42.2 476.6,41.9 478.1,41.7 479.5,41.5 481.0,41.3 482.4,41.1 483.9,40.8 485.4,40.7 486.8,40.5 488.3,40.3 489.7,40.1 491.2,39.9 492.6,39.8 494.1,39.6 495.6,39.5 497.0,39.4 498.5,39.2 499.9,39.0 501.4,38.8 502.9,38.6 504.3,38.4 505.8,38.3 507.2,38.1 508.7,37.9 510.2,37.8 511.6,37.7 513.1,37.5 514.5,37.4 516.0,37.3 517.5,37.1 518.9,36.9 520.4,36.8 521.8,36.5 523.3,36.3 524.8,36.1 526.2,35.9 527.7,35.7 529.1,35.5 530.6,35.2 532.1,35.0 533.5,34.8 535.0,34.6 536.4,34.3 537.9,34.1 539.4,33.8 540.8,33.6 542.3,33.5 543.7,33.3 545.2,33.2 546.6,33.1 548.1,32.9 549.6,32.7 551.0,32.6 552.5,32.4 553.9,32.1 555.4,31.9 556.9,31.6 558.3,31.4 559.8,31.1 561.2,31.0 562.7,30.8 564.2,30.7 565.6,30.6 567.1,30.4 568.5,30.2 570.0,30.0 570.0,30.0,120" />
  
  <!-- Linea principale -->
  <polyline fill="none" stroke="#0366d6" stroke-width="2.5" stroke-linecap="round" stroke-linejoin="round" points="30.0,120.0 31.5,119.5 32.9,118.9 34.4,118.4 35.8,118.2 37.3,118.0 38.8,117.3 40.2,116.9 41.7,116.6 43.1,116.0 44.6,115.7 46.1,115.4 47.5,115.2 49.0,114.9 50.4,114.4 51.9,114.0 53.4,113.6 54.8,113.4 56.3,113.2 57.7,112.9 59.2,112.6 60.6,112.3 62.1,112.2 63.6,111.9 65.0,110.9 66.5,110.6 67.9,110.2 69.4,109.8 70.9,109.4 72.3,109.1 73.8,108.8 75.2,108.7 76.7,108.4 78.2,107.9 79.6,107.5 81.1,107.2 82.5,106.9 84.0,106.8 85.5,106.7 86.9,106.5 88.4,106.2 89.8,106.0 91.3,105.8 92.8,105.5 94.2,104.9 95.7,104.8 97.1,104.7 98.6,104.5 100.1,104.0 101.5,103.8 103.0,103.3 104.4,103.0 105.9,102.6 107.4,102.5 108.8,102.3 110.3,101.9 111.7,101.5 113.2,101.1 114.6,101.0 116.1,100.8 117.6,100.6 119.0,100.2 120.5,99.7 121.9,99.4 123.4,99.0 124.9,98.8 126.3,98.7 127.8,98.5 129.2,98.2 130.7,98.0 132.2,97.8 133.6,97.7 135.1,97.5 136.5,97.3 138.0,97.2 139.5,97.1 140.9,97.0 142.4,96.6 143.8,96.3 145.3,96.3 146.8,96.1 148.2,96.0 149.7,96.0 151.1,102.9 152.6,102.2 154.1,101.6 155.5,101.0 157.0,99.1 158.4,97.8 159.9,96.4 161.4,95.9 162.8,95.3 164.3,94.3 165.7,93.3 167.2,92.5 168.6,92.2 170.1,91.9 171.6,91.2 173.0,90.6 174.5,90.3 175.9,89.9 177.4,89.7 178.9,89.6 180.3,89.2 181.8,88.6 183.2,88.1 184.7,87.6 186.2,87.1 187.6,86.9 189.1,86.7 190.5,86.3 192.0,85.9 193.5,85.5 194.9,85.2 196.4,85.0 197.8,84.9 199.3,84.7 200.8,84.4 202.2,84.1 203.7,83.9 205.1,83.7 206.6,83.5 208.1,83.3 209.5,83.1 211.0,83.0 212.4,82.8 213.9,82.4 215.4,82.2 216.8,81.8 218.3,81.7 219.7,81.5 221.2,81.3 222.6,81.2 224.1,81.0 225.6,80.5 227.0,80.2 228.5,79.8 229.9,79.6 231.4,79.6 232.9,79.4 234.3,79.2 235.8,78.9 237.2,78.7 238.7,78.4 240.2,78.2 241.6,78.1 243.1,77.9 244.5,77.8 246.0,77.6 247.5,77.4 248.9,77.3 250.4,77.0 251.8,76.8 253.3,76.7 254.8,76.6 256.2,76.5 257.7,76.2 259.1,76.0 260.6,75.8 262.1,75.6 263.5,75.4 265.0,75.2 266.4,75.1 267.9,75.0 269.4,74.6 270.8,74.4 272.3,74.2 273.7,73.9 275.2,73.6 276.6,73.5 278.1,73.4 279.6,73.3 281.0,73.1 282.5,72.9 283.9,72.7 285.4,72.5 286.9,72.4 288.3,72.2 289.8,72.1 291.2,71.9 292.7,71.8 294.2,71.7 295.6,71.4 297.1,71.3 298.5,71.0 300.0,70.9 301.5,70.8 302.9,70.6 304.4,70.5 305.8,70.4 307.3,70.2 308.8,69.9 310.2,69.6 311.7,69.4 313.1,69.2 314.6,69.2 316.1,69.1 317.5,68.9 319.0,68.6 320.4,68.5 321.9,68.4 323.4,68.2 324.8,68.0 326.3,67.8 327.7,67.7 329.2,67.6 330.6,67.4 332.1,67.2 333.6,67.0 335.0,66.8 336.5,66.7 337.9,66.6 339.4,66.5 340.9,66.4 342.3,66.2 343.8,66.0 345.2,65.9 346.7,65.7 348.2,65.6 349.6,65.5 351.1,65.3 352.5,65.2 354.0,65.0 355.5,64.7 356.9,64.6 358.4,64.4 359.8,64.3 361.3,64.2 362.8,64.1 364.2,64.0 365.7,63.9 367.1,63.7 368.6,63.5 370.1,63.3 371.5,63.2 373.0,63.1 374.4,62.9 375.9,62.8 377.4,62.6 378.8,62.5 380.3,62.4 381.7,62.2 383.2,62.0 384.6,61.9 386.1,61.7 387.6,61.6 389.0,61.5 390.5,61.4 391.9,61.3 393.4,61.2 394.9,61.0 396.3,61.0 397.8,60.9 399.2,60.5 400.7,60.3 402.2,64.8 403.6,63.9 405.1,62.2 406.5,61.6 408.0,60.8 409.5,59.8 410.9,59.3 412.4,58.9 413.8,58.3 415.3,57.3 416.8,56.6 418.2,56.4 419.7,56.0 421.1,55.7 422.6,55.2 424.1,54.7 425.5,54.2 427.0,53.9 428.4,53.4 429.9,53.2 431.4,52.8 432.8,52.6 434.3,52.4 435.7,52.1 437.2,51.6 438.6,51.3 440.1,50.9 441.6,50.3 443.0,49.9 444.5,49.7 445.9,49.5 447.4,49.3 448.9,48.9 450.3,48.5 451.8,48.2 453.2,47.3 454.7,46.6 456.2,46.3 457.6,46.1 459.1,45.8 460.5,45.3 462.0,44.9 463.5,44.3 464.9,44.0 466.4,43.7 467.8,43.4 469.3,42.9 470.8,42.7 472.2,42.5 473.7,42.4 475.1,42.2 476.6,41.9 478.1,41.7 479.5,41.5 481.0,41.3 482.4,41.1 483.9,40.8 485.4,40.7 486.8,40.5 488.3,40.3 489.7,40.1 491.2,39.9 492.6,39.8 494.1,39.6 495.6,39.5 497.0,39.4 498.5,39.2 499.9,39.0 501.4,38.8 502.9,38.6 504.3,38.4 505.8,38.3 507.2,38.1 508.7,37.9 510.2,37.8 511.6,37.7 513.1,37.5 514.5,37.4 516.0,37.3 517.5,37.1 518.9,36.9 520.4,36.8 521.8,36.5 523.3,36.3 524.8,36.1 526.2,35.9 527.7,35.7 529.1,35.5 530.6,35.2 532.1,35.0 533.5,34.8 535.0,34.6 536.4,34.3 537.9,34.1 539.4,33.8 540.8,33.6 542.3,33.5 543.7,33.3 545.2,33.2 546.6,33.1 548.1,32.9 549.6,32.7 551.0,32.6 552.5,32.4 553.9,32.1 555.4,31.9 556.9,31.6 558.3,31.4 559.8,31.1 561.2,31.0 562.7,30.8 564.2,30.7 565.6,30.6 567.1,30.4 568.5,30.2 570.0,30.0" />
  
  <!-- Punto finale luminoso -->
  <circle cx="570.0" cy="30.0" r="4" fill="#ffffff" stroke="#0366d6" stroke-width="2.5" />
</svg>