<svg width="600" height="150" viewBox="0 0 600 150" xmlns="http://www.w3.org/2000/svg">
  <defs>
    <filter id="shadow2" x="-2%" y="-2%" width="104%" height="108%">
      <feDropShadow dx="0" dy="2" stdDeviation="3" flood-opacity="0.1" />
    </filter>
    <linearGradient id="fillGrad" x1="0" y1="0" x2="0" y2="1">
      <stop offset="0%" stop-color="#0366d6" stop-opacity="0.3"/>
      <stop offset="100%" stop-color="#0366d6" stop-opacity="0.02"/>
    </linearGradient>
  </defs>
  <rect width="600" height="150" rx="12" fill="#ffffff" filter="url(#shadow2)" stroke="#e1e4e8" stroke-width="1"/>
  <text x="20" y="24" fill="#2b3137" font-family="-apple-system,BlinkMacSystemFont,'Segoe UI',Helvetica,Arial,sans-serif" font-size="14" font-weight="600">📈 Download Growth (Actual: 86.3k)</text>
  
  <!-- Area sotto la linea -->
  <polygon fill="url(#fillGrad)" points="30.0,120.0,120 30.0,120.0 31.4,119.5 32.8,118.9 34.1,118.4 35.5,118.3 36.9,118.0 38.3,117.4 39.6,117.0 41.0,116.8 42.4,116.1 43.8,115.8 45.2,115.5 46.5,115.3 47.9,115.1 49.3,114.6 50.7,114.2 52.0,113.9 53.4,113.6 54.8,113.5 56.2,113.2 57.6,112.9 58.9,112.6 60.3,112.4 61.7,112.2 63.1,111.2 64.4,110.9 65.8,110.5 67.2,110.1 68.6,109.8 69.9,109.5 71.3,109.2 72.7,109.1 74.1,108.8 75.5,108.3 76.8,107.9 78.2,107.7 79.6,107.3 81.0,107.2 82.3,107.1 83.7,107.0 85.1,106.7 86.5,106.5 87.9,106.3 89.2,106.0 90.6,105.5 92.0,105.3 93.4,105.2 94.7,105.0 96.1,104.6 97.5,104.3 98.9,103.9 100.3,103.6 101.6,103.2 103.0,103.1 104.4,102.9 105.8,102.5 107.1,102.1 108.5,101.8 109.9,101.7 111.3,101.5 112.7,101.3 114.0,100.9 115.4,100.5 116.8,100.1 118.2,99.7 119.5,99.6 120.9,99.4 122.3,99.3 123.7,99.0 125.1,98.8 126.4,98.6 127.8,98.5 129.2,98.3 130.6,98.1 131.9,98.0 133.3,97.9 134.7,97.8 136.1,97.4 137.4,97.2 138.8,97.1 140.2,97.0 141.6,96.9 143.0,96.9 144.3,103.5 145.7,102.8 147.1,102.3 148.5,101.6 149.8,99.8 151.2,98.6 152.6,97.2 154.0,96.7 155.4,96.2 156.7,95.2 158.1,94.2 159.5,93.5 160.9,93.2 162.2,93.0 163.6,92.2 165.0,91.7 166.4,91.4 167.8,90.9 169.1,90.8 170.5,90.7 171.9,90.3 173.3,89.7 174.6,89.3 176.0,88.8 177.4,88.3 178.8,88.1 180.2,87.9 181.5,87.5 182.9,87.1 184.3,86.7 185.7,86.4 187.0,86.3 188.4,86.2 189.8,86.0 191.2,85.7 192.6,85.4 193.9,85.2 195.3,85.0 196.7,84.8 198.1,84.6 199.4,84.4 200.8,84.3 202.2,84.1 203.6,83.8 204.9,83.5 206.3,83.2 207.7,83.0 209.1,82.9 210.5,82.7 211.8,82.6 213.2,82.4 214.6,81.9 216.0,81.6 217.3,81.2 218.7,81.1 220.1,81.0 221.5,80.8 222.9,80.6 224.2,80.4 225.6,80.1 227.0,79.9 228.4,79.7 229.7,79.6 231.1,79.4 232.5,79.3 233.9,79.1 235.3,79.0 236.6,78.8 238.0,78.5 239.4,78.4 240.8,78.3 242.1,78.1 243.5,78.1 244.9,77.8 246.3,77.6 247.7,77.4 249.0,77.2 250.4,77.0 251.8,76.8 253.2,76.7 254.5,76.6 255.9,76.3 257.3,76.0 258.7,75.8 260.1,75.6 261.4,75.2 262.8,75.1 264.2,75.0 265.6,74.9 266.9,74.8 268.3,74.6 269.7,74.4 271.1,74.3 272.4,74.1 273.8,73.9 275.2,73.8 276.6,73.7 278.0,73.6 279.3,73.4 280.7,73.1 282.1,73.0 283.5,72.8 284.8,72.7 286.2,72.6 287.6,72.4 289.0,72.3 290.4,72.2 291.7,72.0 293.1,71.7 294.5,71.4 295.9,71.2 297.2,71.1 298.6,71.0 300.0,70.9 301.4,70.7 302.8,70.5 304.1,70.4 305.5,70.3 306.9,70.1 308.3,69.9 309.6,69.7 311.0,69.6 312.4,69.5 313.8,69.3 315.2,69.1 316.5,68.9 317.9,68.7 319.3,68.6 320.7,68.5 322.0,68.5 323.4,68.3 324.8,68.1 326.2,68.0 327.6,67.8 328.9,67.6 330.3,67.5 331.7,67.4 333.1,67.3 334.4,67.1 335.8,66.9 337.2,66.7 338.6,66.6 339.9,66.4 341.3,66.3 342.7,66.2 344.1,66.1 345.5,66.0 346.8,65.9 348.2,65.7 349.6,65.5 351.0,65.4 352.3,65.2 353.7,65.1 355.1,65.0 356.5,64.8 357.9,64.7 359.2,64.6 360.6,64.4 362.0,64.3 363.4,64.1 364.7,64.0 366.1,63.8 367.5,63.7 368.9,63.6 370.3,63.5 371.6,63.4 373.0,63.3 374.4,63.2 375.8,63.1 377.1,63.0 378.5,62.7 379.9,62.5 381.3,66.8 382.7,65.9 384.0,64.3 385.4,63.7 386.8,62.9 388.2,62.0 389.5,61.5 390.9,61.1 392.3,60.5 393.7,59.6 395.1,58.9 396.4,58.7 397.8,58.3 399.2,58.0 400.6,57.5 401.9,57.1 403.3,56.6 404.7,56.3 406.1,55.8 407.4,55.6 408.8,55.3 410.2,55.1 411.6,54.8 413.0,54.6 414.3,54.1 415.7,53.8 417.1,53.3 418.5,52.8 419.8,52.4 421.2,52.2 422.6,52.0 424.0,51.8 425.4,51.4 426.7,51.1 428.1,50.8 429.5,49.9 430.9,49.2 432.2,48.9 433.6,48.7 435.0,48.4 436.4,48.0 437.8,47.6 439.1,47.1 440.5,46.7 441.9,46.4 443.3,46.1 444.6,45.7 446.0,45.5 447.4,45.3 448.8,45.2 450.2,45.0 451.5,44.7 452.9,44.6 454.3,44.3 455.7,44.1 457.0,44.0 458.4,43.7 459.8,43.5 461.2,43.3 462.6,43.1 463.9,42.9 465.3,42.8 466.7,42.7 468.1,42.5 469.4,42.4 470.8,42.3 472.2,42.1 473.6,41.9 474.9,41.7 476.3,41.5 477.7,41.3 479.1,41.2 480.5,41.0 481.8,40.9 483.2,40.8 484.6,40.6 486.0,40.5 487.3,40.3 488.7,40.2 490.1,40.1 491.5,39.9 492.9,39.7 494.2,39.5 495.6,39.3 497.0,39.1 498.4,38.9 499.7,38.7 501.1,38.5 502.5,38.3 503.9,38.1 505.3,37.9 506.6,37.6 508.0,37.4 509.4,37.2 510.8,36.9 512.1,36.7 513.5,36.6 514.9,36.4 516.3,36.3 517.7,36.2 519.0,36.0 520.4,35.9 521.8,35.7 523.2,35.5 524.5,35.3 525.9,35.1 527.3,34.8 528.7,34.6 530.1,34.3 531.4,34.2 532.8,34.0 534.2,33.9 535.6,33.8 536.9,33.6 538.3,33.5 539.7,33.2 541.1,33.1 542.4,32.8 543.8,32.7 545.2,32.5 546.6,32.4 548.0,32.2 549.3,32.1 550.7,32.1 552.1,31.9 553.5,31.8 554.8,31.7 556.2,31.5 557.6,31.3 559.0,31.1 560.4,31.0 561.7,30.9 563.1,30.7 564.5,30.6 565.9,30.4 567.2,30.3 568.6,30.2 570.0,30.0 570.0,30.0,120" />
  
  <!-- Linea principale -->
  <polyline fill="none" stroke="#0366d6" stroke-width="2.5" stroke-linecap="round" stroke-linejoin="round" points="30.0,120.0 31.4,119.5 32.8,118.9 34.1,118.4 35.5,118.3 36.9,118.0 38.3,117.4 39.6,117.0 41.0,116.8 42.4,116.1 43.8,115.8 45.2,115.5 46.5,115.3 47.9,115.1 49.3,114.6 50.7,114.2 52.0,113.9 53.4,113.6 54.8,113.5 56.2,113.2 57.6,112.9 58.9,112.6 60.3,112.4 61.7,112.2 63.1,111.2 64.4,110.9 65.8,110.5 67.2,110.1 68.6,109.8 69.9,109.5 71.3,109.2 72.7,109.1 74.1,108.8 75.5,108.3 76.8,107.9 78.2,107.7 79.6,107.3 81.0,107.2 82.3,107.1 83.7,107.0 85.1,106.7 86.5,106.5 87.9,106.3 89.2,106.0 90.6,105.5 92.0,105.3 93.4,105.2 94.7,105.0 96.1,104.6 97.5,104.3 98.9,103.9 100.3,103.6 101.6,103.2 103.0,103.1 104.4,102.9 105.8,102.5 107.1,102.1 108.5,101.8 109.9,101.7 111.3,101.5 112.7,101.3 114.0,100.9 115.4,100.5 116.8,100.1 118.2,99.7 119.5,99.6 120.9,99.4 122.3,99.3 123.7,99.0 125.1,98.8 126.4,98.6 127.8,98.5 129.2,98.3 130.6,98.1 131.9,98.0 133.3,97.9 134.7,97.8 136.1,97.4 137.4,97.2 138.8,97.1 140.2,97.0 141.6,96.9 143.0,96.9 144.3,103.5 145.7,102.8 147.1,102.3 148.5,101.6 149.8,99.8 151.2,98.6 152.6,97.2 154.0,96.7 155.4,96.2 156.7,95.2 158.1,94.2 159.5,93.5 160.9,93.2 162.2,93.0 163.6,92.2 165.0,91.7 166.4,91.4 167.8,90.9 169.1,90.8 170.5,90.7 171.9,90.3 173.3,89.7 174.6,89.3 176.0,88.8 177.4,88.3 178.8,88.1 180.2,87.9 181.5,87.5 182.9,87.1 184.3,86.7 185.7,86.4 187.0,86.3 188.4,86.2 189.8,86.0 191.2,85.7 192.6,85.4 193.9,85.2 195.3,85.0 196.7,84.8 198.1,84.6 199.4,84.4 200.8,84.3 202.2,84.1 203.6,83.8 204.9,83.5 206.3,83.2 207.7,83.0 209.1,82.9 210.5,82.7 211.8,82.6 213.2,82.4 214.6,81.9 216.0,81.6 217.3,81.2 218.7,81.1 220.1,81.0 221.5,80.8 222.9,80.6 224.2,80.4 225.6,80.1 227.0,79.9 228.4,79.7 229.7,79.6 231.1,79.4 232.5,79.3 233.9,79.1 235.3,79.0 236.6,78.8 238.0,78.5 239.4,78.4 240.8,78.3 242.1,78.1 243.5,78.1 244.9,77.8 246.3,77.6 247.7,77.4 249.0,77.2 250.4,77.0 251.8,76.8 253.2,76.7 254.5,76.6 255.9,76.3 257.3,76.0 258.7,75.8 260.1,75.6 261.4,75.2 262.8,75.1 264.2,75.0 265.6,74.9 266.9,74.8 268.3,74.6 269.7,74.4 271.1,74.3 272.4,74.1 273.8,73.9 275.2,73.8 276.6,73.7 278.0,73.6 279.3,73.4 280.7,73.1 282.1,73.0 283.5,72.8 284.8,72.7 286.2,72.6 287.6,72.4 289.0,72.3 290.4,72.2 291.7,72.0 293.1,71.7 294.5,71.4 295.9,71.2 297.2,71.1 298.6,71.0 300.0,70.9 301.4,70.7 302.8,70.5 304.1,70.4 305.5,70.3 306.9,70.1 308.3,69.9 309.6,69.7 311.0,69.6 312.4,69.5 313.8,69.3 315.2,69.1 316.5,68.9 317.9,68.7 319.3,68.6 320.7,68.5 322.0,68.5 323.4,68.3 324.8,68.1 326.2,68.0 327.6,67.8 328.9,67.6 330.3,67.5 331.7,67.4 333.1,67.3 334.4,67.1 335.8,66.9 337.2,66.7 338.6,66.6 339.9,66.4 341.3,66.3 342.7,66.2 344.1,66.1 345.5,66.0 346.8,65.9 348.2,65.7 349.6,65.5 351.0,65.4 352.3,65.2 353.7,65.1 355.1,65.0 356.5,64.8 357.9,64.7 359.2,64.6 360.6,64.4 362.0,64.3 363.4,64.1 364.7,64.0 366.1,63.8 367.5,63.7 368.9,63.6 370.3,63.5 371.6,63.4 373.0,63.3 374.4,63.2 375.8,63.1 377.1,63.0 378.5,62.7 379.9,62.5 381.3,66.8 382.7,65.9 384.0,64.3 385.4,63.7 386.8,62.9 388.2,62.0 389.5,61.5 390.9,61.1 392.3,60.5 393.7,59.6 395.1,58.9 396.4,58.7 397.8,58.3 399.2,58.0 400.6,57.5 401.9,57.1 403.3,56.6 404.7,56.3 406.1,55.8 407.4,55.6 408.8,55.3 410.2,55.1 411.6,54.8 413.0,54.6 414.3,54.1 415.7,53.8 417.1,53.3 418.5,52.8 419.8,52.4 421.2,52.2 422.6,52.0 424.0,51.8 425.4,51.4 426.7,51.1 428.1,50.8 429.5,49.9 430.9,49.2 432.2,48.9 433.6,48.7 435.0,48.4 436.4,48.0 437.8,47.6 439.1,47.1 440.5,46.7 441.9,46.4 443.3,46.1 444.6,45.7 446.0,45.5 447.4,45.3 448.8,45.2 450.2,45.0 451.5,44.7 452.9,44.6 454.3,44.3 455.7,44.1 457.0,44.0 458.4,43.7 459.8,43.5 461.2,43.3 462.6,43.1 463.9,42.9 465.3,42.8 466.7,42.7 468.1,42.5 469.4,42.4 470.8,42.3 472.2,42.1 473.6,41.9 474.9,41.7 476.3,41.5 477.7,41.3 479.1,41.2 480.5,41.0 481.8,40.9 483.2,40.8 484.6,40.6 486.0,40.5 487.3,40.3 488.7,40.2 490.1,40.1 491.5,39.9 492.9,39.7 494.2,39.5 495.6,39.3 497.0,39.1 498.4,38.9 499.7,38.7 501.1,38.5 502.5,38.3 503.9,38.1 505.3,37.9 506.6,37.6 508.0,37.4 509.4,37.2 510.8,36.9 512.1,36.7 513.5,36.6 514.9,36.4 516.3,36.3 517.7,36.2 519.0,36.0 520.4,35.9 521.8,35.7 523.2,35.5 524.5,35.3 525.9,35.1 527.3,34.8 528.7,34.6 530.1,34.3 531.4,34.2 532.8,34.0 534.2,33.9 535.6,33.8 536.9,33.6 538.3,33.5 539.7,33.2 541.1,33.1 542.4,32.8 543.8,32.7 545.2,32.5 546.6,32.4 548.0,32.2 549.3,32.1 550.7,32.1 552.1,31.9 553.5,31.8 554.8,31.7 556.2,31.5 557.6,31.3 559.0,31.1 560.4,31.0 561.7,30.9 563.1,30.7 564.5,30.6 565.9,30.4 567.2,30.3 568.6,30.2 570.0,30.0" />
  
  <!-- Punto finale luminoso -->
  <circle cx="570.0" cy="30.0" r="4" fill="#ffffff" stroke="#0366d6" stroke-width="2.5" />
</svg>