<svg width="600" height="150" viewBox="0 0 600 150" xmlns="http://www.w3.org/2000/svg">
  <defs>
    <filter id="shadow2" x="-2%" y="-2%" width="104%" height="108%">
      <feDropShadow dx="0" dy="2" stdDeviation="3" flood-opacity="0.1" />
    </filter>
    <linearGradient id="fillGrad" x1="0" y1="0" x2="0" y2="1">
      <stop offset="0%" stop-color="#0366d6" stop-opacity="0.3"/>
      <stop offset="100%" stop-color="#0366d6" stop-opacity="0.02"/>
    </linearGradient>
  </defs>
  <rect width="600" height="150" rx="12" fill="#ffffff" filter="url(#shadow2)" stroke="#e1e4e8" stroke-width="1"/>
  <text x="20" y="24" fill="#2b3137" font-family="-apple-system,BlinkMacSystemFont,'Segoe UI',Helvetica,Arial,sans-serif" font-size="14" font-weight="600">📈 Download Growth (Actual: 87.8k)</text>
  
  <!-- Area sotto la linea -->
  <polygon fill="url(#fillGrad)" points="30.0,120.0,120 30.0,120.0 31.2,119.5 32.5,119.0 33.7,118.5 34.9,118.4 36.2,118.2 37.4,117.6 38.6,117.2 39.9,117.0 41.1,116.4 42.3,116.1 43.6,115.9 44.8,115.7 46.0,115.4 47.3,115.0 48.5,114.6 49.7,114.3 51.0,114.1 52.2,113.9 53.4,113.7 54.7,113.4 55.9,113.1 57.1,113.0 58.4,112.7 59.6,111.8 60.8,111.6 62.1,111.2 63.3,110.8 64.5,110.5 65.8,110.2 67.0,110.0 68.2,109.9 69.5,109.6 70.7,109.2 71.9,108.8 73.2,108.5 74.4,108.2 75.6,108.2 76.8,108.1 78.1,107.9 79.3,107.6 80.5,107.5 81.8,107.3 83.0,107.0 84.2,106.5 85.5,106.4 86.7,106.3 87.9,106.1 89.2,105.7 90.4,105.5 91.6,105.1 92.9,104.8 94.1,104.4 95.3,104.4 96.6,104.1 97.8,103.8 99.0,103.4 100.3,103.1 101.5,103.0 102.7,102.8 104.0,102.7 105.2,102.3 106.4,101.9 107.7,101.5 108.9,101.2 110.1,101.0 111.4,100.9 112.6,100.8 113.8,100.5 115.1,100.3 116.3,100.2 117.5,100.0 118.8,99.9 120.0,99.7 121.2,99.6 122.5,99.5 123.7,99.4 124.9,99.0 126.2,98.8 127.4,98.8 128.6,98.6 129.9,98.6 131.1,98.6 132.3,104.7 133.6,104.1 134.8,103.5 136.0,103.0 137.3,101.3 138.5,100.1 139.7,98.9 141.0,98.4 142.2,97.9 143.4,97.0 144.7,96.1 145.9,95.4 147.1,95.2 148.4,94.9 149.6,94.2 150.8,93.8 152.1,93.4 153.3,93.0 154.5,92.9 155.8,92.8 157.0,92.5 158.2,91.9 159.5,91.5 160.7,91.1 161.9,90.6 163.2,90.4 164.4,90.2 165.6,89.8 166.8,89.5 168.1,89.1 169.3,88.9 170.5,88.7 171.8,88.6 173.0,88.4 174.2,88.1 175.5,87.9 176.7,87.7 177.9,87.5 179.2,87.3 180.4,87.2 181.6,87.0 182.9,86.9 184.1,86.7 185.3,86.4 186.6,86.2 187.8,85.9 189.0,85.7 190.3,85.5 191.5,85.4 192.7,85.3 194.0,85.1 195.2,84.7 196.4,84.4 197.7,84.0 198.9,83.9 200.1,83.8 201.4,83.7 202.6,83.5 203.8,83.2 205.1,83.0 206.3,82.8 207.5,82.6 208.8,82.5 210.0,82.3 211.2,82.2 212.5,82.1 213.7,81.9 214.9,81.8 216.2,81.5 217.4,81.4 218.6,81.3 219.9,81.2 221.1,81.1 222.3,80.9 223.6,80.7 224.8,80.5 226.0,80.3 227.3,80.1 228.5,79.9 229.7,79.9 231.0,79.7 232.2,79.4 233.4,79.2 234.7,79.0 235.9,78.8 237.1,78.5 238.4,78.4 239.6,78.3 240.8,78.2 242.1,78.0 243.3,77.9 244.5,77.7 245.8,77.6 247.0,77.4 248.2,77.3 249.5,77.1 250.7,77.0 251.9,76.9 253.2,76.8 254.4,76.5 255.6,76.4 256.8,76.2 258.1,76.1 259.3,76.0 260.5,75.9 261.8,75.8 263.0,75.6 264.2,75.5 265.5,75.2 266.7,74.9 267.9,74.8 269.2,74.6 270.4,74.6 271.6,74.5 272.9,74.3 274.1,74.1 275.3,73.9 276.6,73.9 277.8,73.7 279.0,73.5 280.3,73.4 281.5,73.3 282.7,73.2 284.0,72.9 285.2,72.8 286.4,72.6 287.7,72.4 288.9,72.3 290.1,72.2 291.4,72.2 292.6,72.0 293.8,71.9 295.1,71.7 296.3,71.6 297.5,71.4 298.8,71.3 300.0,71.2 301.2,71.1 302.5,71.0 303.7,70.8 304.9,70.6 306.2,70.4 307.4,70.3 308.6,70.2 309.9,70.1 311.1,70.0 312.3,69.9 313.6,69.8 314.8,69.7 316.0,69.5 317.3,69.3 318.5,69.2 319.7,69.1 321.0,69.0 322.2,68.8 323.4,68.7 324.7,68.6 325.9,68.5 327.1,68.3 328.4,68.2 329.6,68.0 330.8,67.9 332.1,67.8 333.3,67.7 334.5,67.6 335.8,67.5 337.0,67.4 338.2,67.3 339.5,67.2 340.7,67.1 341.9,66.8 343.2,66.6 344.4,70.6 345.6,69.8 346.8,68.3 348.1,67.7 349.3,67.1 350.5,66.2 351.8,65.7 353.0,65.4 354.2,64.8 355.5,64.0 356.7,63.3 357.9,63.1 359.2,62.8 360.4,62.5 361.6,62.1 362.9,61.6 364.1,61.1 365.3,60.9 366.6,60.5 367.8,60.2 369.0,59.9 370.3,59.8 371.5,59.5 372.7,59.3 374.0,58.9 375.2,58.6 376.4,58.2 377.7,57.6 378.9,57.3 380.1,57.1 381.4,57.0 382.6,56.7 383.8,56.4 385.1,56.1 386.3,55.8 387.5,55.0 388.8,54.3 390.0,54.0 391.2,53.9 392.5,53.6 393.7,53.2 394.9,52.8 396.2,52.3 397.4,52.0 398.6,51.7 399.9,51.5 401.1,51.1 402.3,50.9 403.6,50.7 404.8,50.6 406.0,50.4 407.3,50.2 408.5,50.0 409.7,49.8 411.0,49.6 412.2,49.5 413.4,49.2 414.7,49.0 415.9,48.9 417.1,48.7 418.4,48.5 419.6,48.4 420.8,48.3 422.1,48.1 423.3,48.0 424.5,47.9 425.8,47.7 427.0,47.6 428.2,47.4 429.5,47.2 430.7,47.0 431.9,46.9 433.2,46.7 434.4,46.6 435.6,46.5 436.8,46.4 438.1,46.2 439.3,46.1 440.5,46.0 441.8,45.9 443.0,45.7 444.2,45.6 445.5,45.3 446.7,45.1 447.9,45.0 449.2,44.8 450.4,44.6 451.6,44.4 452.9,44.2 454.1,44.0 455.3,43.8 456.6,43.6 457.8,43.4 459.0,43.1 460.3,42.9 461.5,42.7 462.7,42.6 464.0,42.5 465.2,42.4 466.4,42.3 467.7,42.1 468.9,41.9 470.1,41.8 471.4,41.6 472.6,41.4 473.8,41.2 475.1,41.0 476.3,40.8 477.5,40.5 478.8,40.4 480.0,40.2 481.2,40.1 482.5,40.0 483.7,39.9 484.9,39.7 486.2,39.5 487.4,39.4 488.6,39.1 489.9,39.0 491.1,38.8 492.3,38.7 493.6,38.6 494.8,38.5 496.0,38.4 497.3,38.3 498.5,38.1 499.7,38.1 501.0,37.9 502.2,37.7 503.4,37.6 504.7,37.4 505.9,37.3 507.1,37.1 508.4,37.1 509.6,36.9 510.8,36.8 512.1,36.7 513.3,36.5 514.5,36.4 515.8,36.1 517.0,36.0 518.2,35.7 519.5,35.6 520.7,35.5 521.9,35.4 523.2,35.3 524.4,35.2 525.6,35.2 526.8,35.0 528.1,34.9 529.3,34.9 530.5,34.7 531.8,34.6 533.0,34.4 534.2,34.2 535.5,34.1 536.7,34.0 537.9,33.8 539.2,33.7 540.4,33.6 541.6,33.5 542.9,33.4 544.1,33.2 545.3,33.1 546.6,32.8 547.8,32.6 549.0,32.4 550.3,32.2 551.5,32.1 552.7,31.9 554.0,31.8 555.2,31.7 556.4,31.6 557.7,31.5 558.9,31.4 560.1,31.2 561.4,31.0 562.6,30.8 563.8,30.7 565.1,30.5 566.3,30.4 567.5,30.2 568.8,30.1 570.0,30.0 570.0,30.0,120" />
  
  <!-- Linea principale -->
  <polyline fill="none" stroke="#0366d6" stroke-width="2.5" stroke-linecap="round" stroke-linejoin="round" points="30.0,120.0 31.2,119.5 32.5,119.0 33.7,118.5 34.9,118.4 36.2,118.2 37.4,117.6 38.6,117.2 39.9,117.0 41.1,116.4 42.3,116.1 43.6,115.9 44.8,115.7 46.0,115.4 47.3,115.0 48.5,114.6 49.7,114.3 51.0,114.1 52.2,113.9 53.4,113.7 54.7,113.4 55.9,113.1 57.1,113.0 58.4,112.7 59.6,111.8 60.8,111.6 62.1,111.2 63.3,110.8 64.5,110.5 65.8,110.2 67.0,110.0 68.2,109.9 69.5,109.6 70.7,109.2 71.9,108.8 73.2,108.5 74.4,108.2 75.6,108.2 76.8,108.1 78.1,107.9 79.3,107.6 80.5,107.5 81.8,107.3 83.0,107.0 84.2,106.5 85.5,106.4 86.7,106.3 87.9,106.1 89.2,105.7 90.4,105.5 91.6,105.1 92.9,104.8 94.1,104.4 95.3,104.4 96.6,104.1 97.8,103.8 99.0,103.4 100.3,103.1 101.5,103.0 102.7,102.8 104.0,102.7 105.2,102.3 106.4,101.9 107.7,101.5 108.9,101.2 110.1,101.0 111.4,100.9 112.6,100.8 113.8,100.5 115.1,100.3 116.3,100.2 117.5,100.0 118.8,99.9 120.0,99.7 121.2,99.6 122.5,99.5 123.7,99.4 124.9,99.0 126.2,98.8 127.4,98.8 128.6,98.6 129.9,98.6 131.1,98.6 132.3,104.7 133.6,104.1 134.8,103.5 136.0,103.0 137.3,101.3 138.5,100.1 139.7,98.9 141.0,98.4 142.2,97.9 143.4,97.0 144.7,96.1 145.9,95.4 147.1,95.2 148.4,94.9 149.6,94.2 150.8,93.8 152.1,93.4 153.3,93.0 154.5,92.9 155.8,92.8 157.0,92.5 158.2,91.9 159.5,91.5 160.7,91.1 161.9,90.6 163.2,90.4 164.4,90.2 165.6,89.8 166.8,89.5 168.1,89.1 169.3,88.9 170.5,88.7 171.8,88.6 173.0,88.4 174.2,88.1 175.5,87.9 176.7,87.7 177.9,87.5 179.2,87.3 180.4,87.2 181.6,87.0 182.9,86.9 184.1,86.7 185.3,86.4 186.6,86.2 187.8,85.9 189.0,85.7 190.3,85.5 191.5,85.4 192.7,85.3 194.0,85.1 195.2,84.7 196.4,84.4 197.7,84.0 198.9,83.9 200.1,83.8 201.4,83.7 202.6,83.5 203.8,83.2 205.1,83.0 206.3,82.8 207.5,82.6 208.8,82.5 210.0,82.3 211.2,82.2 212.5,82.1 213.7,81.9 214.9,81.8 216.2,81.5 217.4,81.4 218.6,81.3 219.9,81.2 221.1,81.1 222.3,80.9 223.6,80.7 224.8,80.5 226.0,80.3 227.3,80.1 228.5,79.9 229.7,79.9 231.0,79.7 232.2,79.4 233.4,79.2 234.7,79.0 235.9,78.8 237.1,78.5 238.4,78.4 239.6,78.3 240.8,78.2 242.1,78.0 243.3,77.9 244.5,77.7 245.8,77.6 247.0,77.4 248.2,77.3 249.5,77.1 250.7,77.0 251.9,76.9 253.2,76.8 254.4,76.5 255.6,76.4 256.8,76.2 258.1,76.1 259.3,76.0 260.5,75.9 261.8,75.8 263.0,75.6 264.2,75.5 265.5,75.2 266.7,74.9 267.9,74.8 269.2,74.6 270.4,74.6 271.6,74.5 272.9,74.3 274.1,74.1 275.3,73.9 276.6,73.9 277.8,73.7 279.0,73.5 280.3,73.4 281.5,73.3 282.7,73.2 284.0,72.9 285.2,72.8 286.4,72.6 287.7,72.4 288.9,72.3 290.1,72.2 291.4,72.2 292.6,72.0 293.8,71.9 295.1,71.7 296.3,71.6 297.5,71.4 298.8,71.3 300.0,71.2 301.2,71.1 302.5,71.0 303.7,70.8 304.9,70.6 306.2,70.4 307.4,70.3 308.6,70.2 309.9,70.1 311.1,70.0 312.3,69.9 313.6,69.8 314.8,69.7 316.0,69.5 317.3,69.3 318.5,69.2 319.7,69.1 321.0,69.0 322.2,68.8 323.4,68.7 324.7,68.6 325.9,68.5 327.1,68.3 328.4,68.2 329.6,68.0 330.8,67.9 332.1,67.8 333.3,67.7 334.5,67.6 335.8,67.5 337.0,67.4 338.2,67.3 339.5,67.2 340.7,67.1 341.9,66.8 343.2,66.6 344.4,70.6 345.6,69.8 346.8,68.3 348.1,67.7 349.3,67.1 350.5,66.2 351.8,65.7 353.0,65.4 354.2,64.8 355.5,64.0 356.7,63.3 357.9,63.1 359.2,62.8 360.4,62.5 361.6,62.1 362.9,61.6 364.1,61.1 365.3,60.9 366.6,60.5 367.8,60.2 369.0,59.9 370.3,59.8 371.5,59.5 372.7,59.3 374.0,58.9 375.2,58.6 376.4,58.2 377.7,57.6 378.9,57.3 380.1,57.1 381.4,57.0 382.6,56.7 383.8,56.4 385.1,56.1 386.3,55.8 387.5,55.0 388.8,54.3 390.0,54.0 391.2,53.9 392.5,53.6 393.7,53.2 394.9,52.8 396.2,52.3 397.4,52.0 398.6,51.7 399.9,51.5 401.1,51.1 402.3,50.9 403.6,50.7 404.8,50.6 406.0,50.4 407.3,50.2 408.5,50.0 409.7,49.8 411.0,49.6 412.2,49.5 413.4,49.2 414.7,49.0 415.9,48.9 417.1,48.7 418.4,48.5 419.6,48.4 420.8,48.3 422.1,48.1 423.3,48.0 424.5,47.9 425.8,47.7 427.0,47.6 428.2,47.4 429.5,47.2 430.7,47.0 431.9,46.9 433.2,46.7 434.4,46.6 435.6,46.5 436.8,46.4 438.1,46.2 439.3,46.1 440.5,46.0 441.8,45.9 443.0,45.7 444.2,45.6 445.5,45.3 446.7,45.1 447.9,45.0 449.2,44.8 450.4,44.6 451.6,44.4 452.9,44.2 454.1,44.0 455.3,43.8 456.6,43.6 457.8,43.4 459.0,43.1 460.3,42.9 461.5,42.7 462.7,42.6 464.0,42.5 465.2,42.4 466.4,42.3 467.7,42.1 468.9,41.9 470.1,41.8 471.4,41.6 472.6,41.4 473.8,41.2 475.1,41.0 476.3,40.8 477.5,40.5 478.8,40.4 480.0,40.2 481.2,40.1 482.5,40.0 483.7,39.9 484.9,39.7 486.2,39.5 487.4,39.4 488.6,39.1 489.9,39.0 491.1,38.8 492.3,38.7 493.6,38.6 494.8,38.5 496.0,38.4 497.3,38.3 498.5,38.1 499.7,38.1 501.0,37.9 502.2,37.7 503.4,37.6 504.7,37.4 505.9,37.3 507.1,37.1 508.4,37.1 509.6,36.9 510.8,36.8 512.1,36.7 513.3,36.5 514.5,36.4 515.8,36.1 517.0,36.0 518.2,35.7 519.5,35.6 520.7,35.5 521.9,35.4 523.2,35.3 524.4,35.2 525.6,35.2 526.8,35.0 528.1,34.9 529.3,34.9 530.5,34.7 531.8,34.6 533.0,34.4 534.2,34.2 535.5,34.1 536.7,34.0 537.9,33.8 539.2,33.7 540.4,33.6 541.6,33.5 542.9,33.4 544.1,33.2 545.3,33.1 546.6,32.8 547.8,32.6 549.0,32.4 550.3,32.2 551.5,32.1 552.7,31.9 554.0,31.8 555.2,31.7 556.4,31.6 557.7,31.5 558.9,31.4 560.1,31.2 561.4,31.0 562.6,30.8 563.8,30.7 565.1,30.5 566.3,30.4 567.5,30.2 568.8,30.1 570.0,30.0" />
  
  <!-- Punto finale luminoso -->
  <circle cx="570.0" cy="30.0" r="4" fill="#ffffff" stroke="#0366d6" stroke-width="2.5" />
</svg>