<svg width="600" height="150" viewBox="0 0 600 150" xmlns="http://www.w3.org/2000/svg">
  <defs>
    <filter id="shadow2" x="-2%" y="-2%" width="104%" height="108%">
      <feDropShadow dx="0" dy="2" stdDeviation="3" flood-opacity="0.1" />
    </filter>
    <linearGradient id="fillGrad" x1="0" y1="0" x2="0" y2="1">
      <stop offset="0%" stop-color="#0366d6" stop-opacity="0.3"/>
      <stop offset="100%" stop-color="#0366d6" stop-opacity="0.02"/>
    </linearGradient>
  </defs>
  <rect width="600" height="150" rx="12" fill="#ffffff" filter="url(#shadow2)" stroke="#e1e4e8" stroke-width="1"/>
  <text x="20" y="24" fill="#2b3137" font-family="-apple-system,BlinkMacSystemFont,'Segoe UI',Helvetica,Arial,sans-serif" font-size="14" font-weight="600">📈 Download Growth (Actual: 87.7k)</text>
  
  <!-- Area sotto la linea -->
  <polygon fill="url(#fillGrad)" points="30.0,120.0,120 30.0,120.0 31.2,119.5 32.5,119.0 33.7,118.5 35.0,118.4 36.2,118.2 37.5,117.6 38.7,117.2 40.0,117.0 41.2,116.4 42.5,116.1 43.7,115.8 45.0,115.6 46.2,115.4 47.5,115.0 48.7,114.6 50.0,114.3 51.2,114.0 52.4,113.9 53.7,113.6 54.9,113.3 56.2,113.1 57.4,112.9 58.7,112.7 59.9,111.8 61.2,111.5 62.4,111.1 63.7,110.8 64.9,110.5 66.2,110.1 67.4,109.9 68.7,109.8 69.9,109.5 71.2,109.1 72.4,108.7 73.6,108.5 74.9,108.1 76.1,108.1 77.4,108.0 78.6,107.8 79.9,107.5 81.1,107.4 82.4,107.2 83.6,106.9 84.9,106.4 86.1,106.3 87.4,106.2 88.6,106.0 89.9,105.6 91.1,105.4 92.4,105.0 93.6,104.7 94.8,104.3 96.1,104.2 97.3,104.0 98.6,103.7 99.8,103.3 101.1,103.0 102.3,102.9 103.6,102.7 104.8,102.5 106.1,102.1 107.3,101.7 108.6,101.4 109.8,101.1 111.1,100.9 112.3,100.8 113.6,100.6 114.8,100.4 116.1,100.2 117.3,100.0 118.5,99.9 119.8,99.8 121.0,99.6 122.3,99.4 123.5,99.3 124.8,99.2 126.0,98.9 127.3,98.7 128.5,98.6 129.8,98.5 131.0,98.4 132.3,98.4 133.5,104.6 134.8,104.0 136.0,103.4 137.3,102.8 138.5,101.2 139.7,100.0 141.0,98.7 142.2,98.3 143.5,97.7 144.7,96.9 146.0,95.9 147.2,95.2 148.5,95.0 149.7,94.7 151.0,94.0 152.2,93.5 153.5,93.2 154.7,92.8 156.0,92.7 157.2,92.6 158.5,92.2 159.7,91.7 160.9,91.3 162.2,90.8 163.4,90.4 164.7,90.1 165.9,90.0 167.2,89.6 168.4,89.2 169.7,88.9 170.9,88.6 172.2,88.5 173.4,88.4 174.7,88.2 175.9,87.9 177.2,87.7 178.4,87.4 179.7,87.3 180.9,87.1 182.1,86.9 183.4,86.7 184.6,86.6 185.9,86.4 187.1,86.1 188.4,85.9 189.6,85.6 190.9,85.5 192.1,85.3 193.4,85.1 194.6,85.0 195.9,84.9 197.1,84.4 198.4,84.1 199.6,83.7 200.9,83.6 202.1,83.6 203.3,83.4 204.6,83.2 205.8,83.0 207.1,82.7 208.3,82.5 209.6,82.3 210.8,82.2 212.1,82.1 213.3,81.9 214.6,81.8 215.8,81.6 217.1,81.5 218.3,81.2 219.6,81.1 220.8,81.0 222.1,80.9 223.3,80.8 224.5,80.5 225.8,80.4 227.0,80.1 228.3,80.0 229.5,79.8 230.8,79.6 232.0,79.5 233.3,79.4 234.5,79.1 235.8,78.9 237.0,78.7 238.3,78.5 239.5,78.1 240.8,78.1 242.0,78.0 243.3,77.9 244.5,77.7 245.8,77.5 247.0,77.4 248.2,77.2 249.5,77.1 250.7,76.9 252.0,76.8 253.2,76.7 254.5,76.6 255.7,76.4 257.0,76.2 258.2,76.1 259.5,75.9 260.7,75.8 262.0,75.7 263.2,75.5 264.5,75.4 265.7,75.3 267.0,75.1 268.2,74.9 269.4,74.6 270.7,74.4 271.9,74.3 273.2,74.2 274.4,74.1 275.7,74.0 276.9,73.7 278.2,73.6 279.4,73.5 280.7,73.3 281.9,73.2 283.2,73.0 284.4,72.9 285.7,72.8 286.9,72.6 288.2,72.4 289.4,72.2 290.6,72.0 291.9,71.9 293.1,71.9 294.4,71.8 295.6,71.7 296.9,71.5 298.1,71.4 299.4,71.2 300.6,71.0 301.9,70.9 303.1,70.8 304.4,70.7 305.6,70.6 306.9,70.4 308.1,70.2 309.4,70.0 310.6,69.9 311.8,69.8 313.1,69.7 314.3,69.6 315.6,69.5 316.8,69.4 318.1,69.3 319.3,69.1 320.6,68.9 321.8,68.8 323.1,68.7 324.3,68.6 325.6,68.4 326.8,68.3 328.1,68.2 329.3,68.0 330.6,67.9 331.8,67.8 333.0,67.6 334.3,67.5 335.5,67.4 336.8,67.3 338.0,67.2 339.3,67.1 340.5,67.0 341.8,66.9 343.0,66.8 344.3,66.7 345.5,66.4 346.8,66.2 348.0,70.2 349.3,69.4 350.5,67.9 351.8,67.3 353.0,66.6 354.2,65.8 355.5,65.3 356.7,65.0 358.0,64.4 359.2,63.5 360.5,62.9 361.7,62.7 363.0,62.3 364.2,62.1 365.5,61.6 366.7,61.2 368.0,60.7 369.2,60.5 370.5,60.0 371.7,59.8 373.0,59.5 374.2,59.3 375.5,59.0 376.7,58.8 377.9,58.4 379.2,58.1 380.4,57.7 381.7,57.1 382.9,56.8 384.2,56.6 385.4,56.5 386.7,56.2 387.9,55.9 389.2,55.6 390.4,55.3 391.7,54.5 392.9,53.8 394.2,53.5 395.4,53.4 396.7,53.1 397.9,52.7 399.1,52.3 400.4,51.8 401.6,51.5 402.9,51.2 404.1,50.9 405.4,50.5 406.6,50.3 407.9,50.2 409.1,50.0 410.4,49.9 411.6,49.6 412.9,49.5 414.1,49.2 415.4,49.0 416.6,48.9 417.9,48.6 419.1,48.5 420.3,48.3 421.6,48.1 422.8,47.9 424.1,47.8 425.3,47.7 426.6,47.6 427.8,47.4 429.1,47.3 430.3,47.1 431.6,47.0 432.8,46.8 434.1,46.6 435.3,46.5 436.6,46.3 437.8,46.1 439.1,46.0 440.3,45.9 441.5,45.8 442.8,45.6 444.0,45.5 445.3,45.4 446.5,45.3 447.8,45.1 449.0,45.0 450.3,44.7 451.5,44.5 452.8,44.4 454.0,44.2 455.3,44.0 456.5,43.8 457.8,43.6 459.0,43.4 460.3,43.2 461.5,43.0 462.7,42.8 464.0,42.5 465.2,42.3 466.5,42.1 467.7,42.0 469.0,41.9 470.2,41.8 471.5,41.6 472.7,41.5 474.0,41.3 475.2,41.2 476.5,41.0 477.7,40.8 479.0,40.6 480.2,40.3 481.5,40.2 482.7,39.9 483.9,39.8 485.2,39.6 486.4,39.5 487.7,39.4 488.9,39.2 490.2,39.1 491.4,38.9 492.7,38.8 493.9,38.5 495.2,38.4 496.4,38.2 497.7,38.1 498.9,37.9 500.2,37.9 501.4,37.8 502.7,37.7 503.9,37.5 505.2,37.4 506.4,37.2 507.6,37.1 508.9,36.9 510.1,36.8 511.4,36.7 512.6,36.5 513.9,36.4 515.1,36.3 516.4,36.1 517.6,36.0 518.9,35.9 520.1,35.7 521.4,35.5 522.6,35.3 523.9,35.0 525.1,34.9 526.4,34.9 527.6,34.8 528.8,34.6 530.1,34.6 531.3,34.5 532.6,34.4 533.8,34.3 535.1,34.2 536.3,34.0 537.6,33.9 538.8,33.7 540.1,33.5 541.3,33.4 542.6,33.3 543.8,33.1 545.1,33.0 546.3,32.9 547.6,32.8 548.8,32.7 550.0,32.6 551.3,32.4 552.5,32.1 553.8,31.9 555.0,31.7 556.3,31.6 557.5,31.4 558.8,31.2 560.0,31.1 561.3,31.0 562.5,30.9 563.8,30.8 565.0,30.7 566.3,30.5 567.5,30.3 568.8,30.1 570.0,30.0 570.0,30.0,120" />
  
  <!-- Linea principale -->
  <polyline fill="none" stroke="#0366d6" stroke-width="2.5" stroke-linecap="round" stroke-linejoin="round" points="30.0,120.0 31.2,119.5 32.5,119.0 33.7,118.5 35.0,118.4 36.2,118.2 37.5,117.6 38.7,117.2 40.0,117.0 41.2,116.4 42.5,116.1 43.7,115.8 45.0,115.6 46.2,115.4 47.5,115.0 48.7,114.6 50.0,114.3 51.2,114.0 52.4,113.9 53.7,113.6 54.9,113.3 56.2,113.1 57.4,112.9 58.7,112.7 59.9,111.8 61.2,111.5 62.4,111.1 63.7,110.8 64.9,110.5 66.2,110.1 67.4,109.9 68.7,109.8 69.9,109.5 71.2,109.1 72.4,108.7 73.6,108.5 74.9,108.1 76.1,108.1 77.4,108.0 78.6,107.8 79.9,107.5 81.1,107.4 82.4,107.2 83.6,106.9 84.9,106.4 86.1,106.3 87.4,106.2 88.6,106.0 89.9,105.6 91.1,105.4 92.4,105.0 93.6,104.7 94.8,104.3 96.1,104.2 97.3,104.0 98.6,103.7 99.8,103.3 101.1,103.0 102.3,102.9 103.6,102.7 104.8,102.5 106.1,102.1 107.3,101.7 108.6,101.4 109.8,101.1 111.1,100.9 112.3,100.8 113.6,100.6 114.8,100.4 116.1,100.2 117.3,100.0 118.5,99.9 119.8,99.8 121.0,99.6 122.3,99.4 123.5,99.3 124.8,99.2 126.0,98.9 127.3,98.7 128.5,98.6 129.8,98.5 131.0,98.4 132.3,98.4 133.5,104.6 134.8,104.0 136.0,103.4 137.3,102.8 138.5,101.2 139.7,100.0 141.0,98.7 142.2,98.3 143.5,97.7 144.7,96.9 146.0,95.9 147.2,95.2 148.5,95.0 149.7,94.7 151.0,94.0 152.2,93.5 153.5,93.2 154.7,92.8 156.0,92.7 157.2,92.6 158.5,92.2 159.7,91.7 160.9,91.3 162.2,90.8 163.4,90.4 164.7,90.1 165.9,90.0 167.2,89.6 168.4,89.2 169.7,88.9 170.9,88.6 172.2,88.5 173.4,88.4 174.7,88.2 175.9,87.9 177.2,87.7 178.4,87.4 179.7,87.3 180.9,87.1 182.1,86.9 183.4,86.7 184.6,86.6 185.9,86.4 187.1,86.1 188.4,85.9 189.6,85.6 190.9,85.5 192.1,85.3 193.4,85.1 194.6,85.0 195.9,84.9 197.1,84.4 198.4,84.1 199.6,83.7 200.9,83.6 202.1,83.6 203.3,83.4 204.6,83.2 205.8,83.0 207.1,82.7 208.3,82.5 209.6,82.3 210.8,82.2 212.1,82.1 213.3,81.9 214.6,81.8 215.8,81.6 217.1,81.5 218.3,81.2 219.6,81.1 220.8,81.0 222.1,80.9 223.3,80.8 224.5,80.5 225.8,80.4 227.0,80.1 228.3,80.0 229.5,79.8 230.8,79.6 232.0,79.5 233.3,79.4 234.5,79.1 235.8,78.9 237.0,78.7 238.3,78.5 239.5,78.1 240.8,78.1 242.0,78.0 243.3,77.9 244.5,77.7 245.8,77.5 247.0,77.4 248.2,77.2 249.5,77.1 250.7,76.9 252.0,76.8 253.2,76.7 254.5,76.6 255.7,76.4 257.0,76.2 258.2,76.1 259.5,75.9 260.7,75.8 262.0,75.7 263.2,75.5 264.5,75.4 265.7,75.3 267.0,75.1 268.2,74.9 269.4,74.6 270.7,74.4 271.9,74.3 273.2,74.2 274.4,74.1 275.7,74.0 276.9,73.7 278.2,73.6 279.4,73.5 280.7,73.3 281.9,73.2 283.2,73.0 284.4,72.9 285.7,72.8 286.9,72.6 288.2,72.4 289.4,72.2 290.6,72.0 291.9,71.9 293.1,71.9 294.4,71.8 295.6,71.7 296.9,71.5 298.1,71.4 299.4,71.2 300.6,71.0 301.9,70.9 303.1,70.8 304.4,70.7 305.6,70.6 306.9,70.4 308.1,70.2 309.4,70.0 310.6,69.9 311.8,69.8 313.1,69.7 314.3,69.6 315.6,69.5 316.8,69.4 318.1,69.3 319.3,69.1 320.6,68.9 321.8,68.8 323.1,68.7 324.3,68.6 325.6,68.4 326.8,68.3 328.1,68.2 329.3,68.0 330.6,67.9 331.8,67.8 333.0,67.6 334.3,67.5 335.5,67.4 336.8,67.3 338.0,67.2 339.3,67.1 340.5,67.0 341.8,66.9 343.0,66.8 344.3,66.7 345.5,66.4 346.8,66.2 348.0,70.2 349.3,69.4 350.5,67.9 351.8,67.3 353.0,66.6 354.2,65.8 355.5,65.3 356.7,65.0 358.0,64.4 359.2,63.5 360.5,62.9 361.7,62.7 363.0,62.3 364.2,62.1 365.5,61.6 366.7,61.2 368.0,60.7 369.2,60.5 370.5,60.0 371.7,59.8 373.0,59.5 374.2,59.3 375.5,59.0 376.7,58.8 377.9,58.4 379.2,58.1 380.4,57.7 381.7,57.1 382.9,56.8 384.2,56.6 385.4,56.5 386.7,56.2 387.9,55.9 389.2,55.6 390.4,55.3 391.7,54.5 392.9,53.8 394.2,53.5 395.4,53.4 396.7,53.1 397.9,52.7 399.1,52.3 400.4,51.8 401.6,51.5 402.9,51.2 404.1,50.9 405.4,50.5 406.6,50.3 407.9,50.2 409.1,50.0 410.4,49.9 411.6,49.6 412.9,49.5 414.1,49.2 415.4,49.0 416.6,48.9 417.9,48.6 419.1,48.5 420.3,48.3 421.6,48.1 422.8,47.9 424.1,47.8 425.3,47.7 426.6,47.6 427.8,47.4 429.1,47.3 430.3,47.1 431.6,47.0 432.8,46.8 434.1,46.6 435.3,46.5 436.6,46.3 437.8,46.1 439.1,46.0 440.3,45.9 441.5,45.8 442.8,45.6 444.0,45.5 445.3,45.4 446.5,45.3 447.8,45.1 449.0,45.0 450.3,44.7 451.5,44.5 452.8,44.4 454.0,44.2 455.3,44.0 456.5,43.8 457.8,43.6 459.0,43.4 460.3,43.2 461.5,43.0 462.7,42.8 464.0,42.5 465.2,42.3 466.5,42.1 467.7,42.0 469.0,41.9 470.2,41.8 471.5,41.6 472.7,41.5 474.0,41.3 475.2,41.2 476.5,41.0 477.7,40.8 479.0,40.6 480.2,40.3 481.5,40.2 482.7,39.9 483.9,39.8 485.2,39.6 486.4,39.5 487.7,39.4 488.9,39.2 490.2,39.1 491.4,38.9 492.7,38.8 493.9,38.5 495.2,38.4 496.4,38.2 497.7,38.1 498.9,37.9 500.2,37.9 501.4,37.8 502.7,37.7 503.9,37.5 505.2,37.4 506.4,37.2 507.6,37.1 508.9,36.9 510.1,36.8 511.4,36.7 512.6,36.5 513.9,36.4 515.1,36.3 516.4,36.1 517.6,36.0 518.9,35.9 520.1,35.7 521.4,35.5 522.6,35.3 523.9,35.0 525.1,34.9 526.4,34.9 527.6,34.8 528.8,34.6 530.1,34.6 531.3,34.5 532.6,34.4 533.8,34.3 535.1,34.2 536.3,34.0 537.6,33.9 538.8,33.7 540.1,33.5 541.3,33.4 542.6,33.3 543.8,33.1 545.1,33.0 546.3,32.9 547.6,32.8 548.8,32.7 550.0,32.6 551.3,32.4 552.5,32.1 553.8,31.9 555.0,31.7 556.3,31.6 557.5,31.4 558.8,31.2 560.0,31.1 561.3,31.0 562.5,30.9 563.8,30.8 565.0,30.7 566.3,30.5 567.5,30.3 568.8,30.1 570.0,30.0" />
  
  <!-- Punto finale luminoso -->
  <circle cx="570.0" cy="30.0" r="4" fill="#ffffff" stroke="#0366d6" stroke-width="2.5" />
</svg>