<svg width="600" height="150" viewBox="0 0 600 150" xmlns="http://www.w3.org/2000/svg">
  <defs>
    <filter id="shadow2" x="-2%" y="-2%" width="104%" height="108%">
      <feDropShadow dx="0" dy="2" stdDeviation="3" flood-opacity="0.1" />
    </filter>
    <linearGradient id="fillGrad" x1="0" y1="0" x2="0" y2="1">
      <stop offset="0%" stop-color="#0366d6" stop-opacity="0.3"/>
      <stop offset="100%" stop-color="#0366d6" stop-opacity="0.02"/>
    </linearGradient>
  </defs>
  <rect width="600" height="150" rx="12" fill="#ffffff" filter="url(#shadow2)" stroke="#e1e4e8" stroke-width="1"/>
  <text x="20" y="24" fill="#2b3137" font-family="-apple-system,BlinkMacSystemFont,'Segoe UI',Helvetica,Arial,sans-serif" font-size="14" font-weight="600">📈 Download Growth (Actual: 83.1k)</text>
  
  <!-- Area sotto la linea -->
  <polygon fill="url(#fillGrad)" points="30.0,120.0,120 30.0,120.0 31.8,119.4 33.5,118.7 35.3,118.1 37.1,118.0 38.9,117.6 40.6,116.9 42.4,116.4 44.2,116.1 45.9,115.4 47.7,115.0 49.5,114.6 51.2,114.4 53.0,114.1 54.8,113.6 56.6,113.0 58.3,112.6 60.1,112.4 61.9,112.2 63.6,111.8 65.4,111.4 67.2,111.1 69.0,110.9 70.7,110.6 72.5,109.4 74.3,109.1 76.0,108.6 77.8,108.2 79.6,107.7 81.3,107.4 83.1,107.1 84.9,106.9 86.7,106.6 88.4,106.0 90.2,105.5 92.0,105.2 93.7,104.8 95.5,104.7 97.3,104.6 99.0,104.4 100.8,104.0 102.6,103.8 104.4,103.6 106.1,103.2 107.9,102.6 109.7,102.4 111.4,102.3 113.2,102.0 115.0,101.5 116.8,101.2 118.5,100.7 120.3,100.3 122.1,99.9 123.8,99.8 125.6,99.5 127.4,99.0 129.1,98.6 130.9,98.2 132.7,98.0 134.5,97.8 136.2,97.6 138.0,97.1 139.8,96.6 141.5,96.1 143.3,95.7 145.1,95.5 146.9,95.3 148.6,95.2 150.4,94.8 152.2,94.6 153.9,94.4 155.7,94.2 157.5,94.0 159.2,93.8 161.0,93.6 162.8,93.5 164.6,93.4 166.3,92.9 168.1,92.6 169.9,92.5 171.6,92.4 173.4,92.3 175.2,92.3 177.0,100.2 178.7,99.4 180.5,98.7 182.3,98.0 184.0,95.8 185.8,94.3 187.6,92.7 189.3,92.1 191.1,91.4 192.9,90.3 194.7,89.1 196.4,88.2 198.2,87.9 200.0,87.6 201.7,86.7 203.5,86.1 205.3,85.7 207.0,85.1 208.8,84.9 210.6,84.8 212.4,84.4 214.1,83.6 215.9,83.1 217.7,82.6 219.4,82.0 221.2,81.7 223.0,81.5 224.8,81.0 226.5,80.5 228.3,80.1 230.1,79.7 231.8,79.6 233.6,79.5 235.4,79.2 237.1,78.8 238.9,78.5 240.7,78.2 242.5,78.0 244.2,77.8 246.0,77.5 247.8,77.3 249.5,77.2 251.3,77.0 253.1,76.5 254.9,76.2 256.6,75.9 258.4,75.7 260.2,75.4 261.9,75.3 263.7,75.1 265.5,74.9 267.2,74.3 269.0,74.0 270.8,73.5 272.6,73.3 274.3,73.2 276.1,73.0 277.9,72.8 279.6,72.5 281.4,72.2 283.2,71.8 285.0,71.6 286.7,71.5 288.5,71.3 290.3,71.2 292.0,71.0 293.8,70.8 295.6,70.6 297.3,70.2 299.1,70.1 300.9,70.0 302.7,69.8 304.4,69.7 306.2,69.4 308.0,69.1 309.7,68.9 311.5,68.6 313.3,68.4 315.0,68.2 316.8,68.1 318.6,67.9 320.4,67.6 322.1,67.2 323.9,67.0 325.7,66.7 327.4,66.3 329.2,66.2 331.0,66.1 332.8,65.9 334.5,65.7 336.3,65.5 338.1,65.3 339.8,65.1 341.6,64.9 343.4,64.7 345.1,64.6 346.9,64.4 348.7,64.3 350.5,64.1 352.2,63.8 354.0,63.6 355.8,63.4 357.5,63.3 359.3,63.1 361.1,62.9 362.9,62.8 364.6,62.6 366.4,62.4 368.2,62.1 369.9,61.7 371.7,61.5 373.5,61.3 375.2,61.2 377.0,61.1 378.8,60.9 380.6,60.6 382.3,60.4 384.1,60.3 385.9,60.1 387.6,59.9 389.4,59.7 391.2,59.6 393.0,59.4 394.7,59.1 396.5,58.9 398.3,58.7 400.0,58.4 401.8,58.3 403.6,58.2 405.3,58.2 407.1,58.0 408.9,57.8 410.7,57.6 412.4,57.4 414.2,57.2 416.0,57.1 417.7,56.9 419.5,56.8 421.3,56.6 423.0,56.3 424.8,56.1 426.6,55.9 428.4,55.7 430.1,55.5 431.9,55.4 433.7,55.3 435.4,55.2 437.2,55.1 439.0,54.9 440.8,54.6 442.5,54.5 444.3,54.3 446.1,54.2 447.8,54.0 449.6,53.8 451.4,53.6 453.1,53.5 454.9,53.3 456.7,53.2 458.5,53.0 460.2,52.8 462.0,52.6 463.8,52.5 465.5,52.4 467.3,52.3 469.1,52.1 470.9,52.0 472.6,51.8 474.4,51.8 476.2,51.6 477.9,51.2 479.7,51.0 481.5,56.2 483.2,55.1 485.0,53.2 486.8,52.4 488.6,51.5 490.3,50.4 492.1,49.8 493.9,49.4 495.6,48.7 497.4,47.5 499.2,46.7 501.0,46.4 502.7,46.0 504.5,45.7 506.3,45.1 508.0,44.5 509.8,43.9 511.6,43.6 513.3,43.0 515.1,42.7 516.9,42.3 518.7,42.1 520.4,41.8 522.2,41.5 524.0,40.9 525.7,40.6 527.5,40.0 529.3,39.3 531.0,38.9 532.8,38.7 534.6,38.5 536.4,38.2 538.1,37.7 539.9,37.3 541.7,37.0 543.4,35.9 545.2,35.1 547.0,34.7 548.8,34.5 550.5,34.2 552.3,33.6 554.1,33.1 555.8,32.5 557.6,32.1 559.4,31.7 561.1,31.4 562.9,30.9 564.7,30.6 566.5,30.4 568.2,30.2 570.0,30.0 570.0,30.0,120" />
  
  <!-- Linea principale -->
  <polyline fill="none" stroke="#0366d6" stroke-width="2.5" stroke-linecap="round" stroke-linejoin="round" points="30.0,120.0 31.8,119.4 33.5,118.7 35.3,118.1 37.1,118.0 38.9,117.6 40.6,116.9 42.4,116.4 44.2,116.1 45.9,115.4 47.7,115.0 49.5,114.6 51.2,114.4 53.0,114.1 54.8,113.6 56.6,113.0 58.3,112.6 60.1,112.4 61.9,112.2 63.6,111.8 65.4,111.4 67.2,111.1 69.0,110.9 70.7,110.6 72.5,109.4 74.3,109.1 76.0,108.6 77.8,108.2 79.6,107.7 81.3,107.4 83.1,107.1 84.9,106.9 86.7,106.6 88.4,106.0 90.2,105.5 92.0,105.2 93.7,104.8 95.5,104.7 97.3,104.6 99.0,104.4 100.8,104.0 102.6,103.8 104.4,103.6 106.1,103.2 107.9,102.6 109.7,102.4 111.4,102.3 113.2,102.0 115.0,101.5 116.8,101.2 118.5,100.7 120.3,100.3 122.1,99.9 123.8,99.8 125.6,99.5 127.4,99.0 129.1,98.6 130.9,98.2 132.7,98.0 134.5,97.8 136.2,97.6 138.0,97.1 139.8,96.6 141.5,96.1 143.3,95.7 145.1,95.5 146.9,95.3 148.6,95.2 150.4,94.8 152.2,94.6 153.9,94.4 155.7,94.2 157.5,94.0 159.2,93.8 161.0,93.6 162.8,93.5 164.6,93.4 166.3,92.9 168.1,92.6 169.9,92.5 171.6,92.4 173.4,92.3 175.2,92.3 177.0,100.2 178.7,99.4 180.5,98.7 182.3,98.0 184.0,95.8 185.8,94.3 187.6,92.7 189.3,92.1 191.1,91.4 192.9,90.3 194.7,89.1 196.4,88.2 198.2,87.9 200.0,87.6 201.7,86.7 203.5,86.1 205.3,85.7 207.0,85.1 208.8,84.9 210.6,84.8 212.4,84.4 214.1,83.6 215.9,83.1 217.7,82.6 219.4,82.0 221.2,81.7 223.0,81.5 224.8,81.0 226.5,80.5 228.3,80.1 230.1,79.7 231.8,79.6 233.6,79.5 235.4,79.2 237.1,78.8 238.9,78.5 240.7,78.2 242.5,78.0 244.2,77.8 246.0,77.5 247.8,77.3 249.5,77.2 251.3,77.0 253.1,76.5 254.9,76.2 256.6,75.9 258.4,75.7 260.2,75.4 261.9,75.3 263.7,75.1 265.5,74.9 267.2,74.3 269.0,74.0 270.8,73.5 272.6,73.3 274.3,73.2 276.1,73.0 277.9,72.8 279.6,72.5 281.4,72.2 283.2,71.8 285.0,71.6 286.7,71.5 288.5,71.3 290.3,71.2 292.0,71.0 293.8,70.8 295.6,70.6 297.3,70.2 299.1,70.1 300.9,70.0 302.7,69.8 304.4,69.7 306.2,69.4 308.0,69.1 309.7,68.9 311.5,68.6 313.3,68.4 315.0,68.2 316.8,68.1 318.6,67.9 320.4,67.6 322.1,67.2 323.9,67.0 325.7,66.7 327.4,66.3 329.2,66.2 331.0,66.1 332.8,65.9 334.5,65.7 336.3,65.5 338.1,65.3 339.8,65.1 341.6,64.9 343.4,64.7 345.1,64.6 346.9,64.4 348.7,64.3 350.5,64.1 352.2,63.8 354.0,63.6 355.8,63.4 357.5,63.3 359.3,63.1 361.1,62.9 362.9,62.8 364.6,62.6 366.4,62.4 368.2,62.1 369.9,61.7 371.7,61.5 373.5,61.3 375.2,61.2 377.0,61.1 378.8,60.9 380.6,60.6 382.3,60.4 384.1,60.3 385.9,60.1 387.6,59.9 389.4,59.7 391.2,59.6 393.0,59.4 394.7,59.1 396.5,58.9 398.3,58.7 400.0,58.4 401.8,58.3 403.6,58.2 405.3,58.2 407.1,58.0 408.9,57.8 410.7,57.6 412.4,57.4 414.2,57.2 416.0,57.1 417.7,56.9 419.5,56.8 421.3,56.6 423.0,56.3 424.8,56.1 426.6,55.9 428.4,55.7 430.1,55.5 431.9,55.4 433.7,55.3 435.4,55.2 437.2,55.1 439.0,54.9 440.8,54.6 442.5,54.5 444.3,54.3 446.1,54.2 447.8,54.0 449.6,53.8 451.4,53.6 453.1,53.5 454.9,53.3 456.7,53.2 458.5,53.0 460.2,52.8 462.0,52.6 463.8,52.5 465.5,52.4 467.3,52.3 469.1,52.1 470.9,52.0 472.6,51.8 474.4,51.8 476.2,51.6 477.9,51.2 479.7,51.0 481.5,56.2 483.2,55.1 485.0,53.2 486.8,52.4 488.6,51.5 490.3,50.4 492.1,49.8 493.9,49.4 495.6,48.7 497.4,47.5 499.2,46.7 501.0,46.4 502.7,46.0 504.5,45.7 506.3,45.1 508.0,44.5 509.8,43.9 511.6,43.6 513.3,43.0 515.1,42.7 516.9,42.3 518.7,42.1 520.4,41.8 522.2,41.5 524.0,40.9 525.7,40.6 527.5,40.0 529.3,39.3 531.0,38.9 532.8,38.7 534.6,38.5 536.4,38.2 538.1,37.7 539.9,37.3 541.7,37.0 543.4,35.9 545.2,35.1 547.0,34.7 548.8,34.5 550.5,34.2 552.3,33.6 554.1,33.1 555.8,32.5 557.6,32.1 559.4,31.7 561.1,31.4 562.9,30.9 564.7,30.6 566.5,30.4 568.2,30.2 570.0,30.0" />
  
  <!-- Punto finale luminoso -->
  <circle cx="570.0" cy="30.0" r="4" fill="#ffffff" stroke="#0366d6" stroke-width="2.5" />
</svg>