<svg width="600" height="150" viewBox="0 0 600 150" xmlns="http://www.w3.org/2000/svg">
  <defs>
    <filter id="shadow2" x="-2%" y="-2%" width="104%" height="108%">
      <feDropShadow dx="0" dy="2" stdDeviation="3" flood-opacity="0.1" />
    </filter>
    <linearGradient id="fillGrad" x1="0" y1="0" x2="0" y2="1">
      <stop offset="0%" stop-color="#0366d6" stop-opacity="0.3"/>
      <stop offset="100%" stop-color="#0366d6" stop-opacity="0.02"/>
    </linearGradient>
  </defs>
  <rect width="600" height="150" rx="12" fill="#ffffff" filter="url(#shadow2)" stroke="#e1e4e8" stroke-width="1"/>
  <text x="20" y="24" fill="#2b3137" font-family="-apple-system,BlinkMacSystemFont,'Segoe UI',Helvetica,Arial,sans-serif" font-size="14" font-weight="600">📈 Download Growth (Actual: 88.1k)</text>
  
  <!-- Area sotto la linea -->
  <polygon fill="url(#fillGrad)" points="30.0,120.0,120 30.0,120.0 31.2,119.5 32.4,119.0 33.6,118.6 34.8,118.4 36.0,118.2 37.2,117.7 38.4,117.3 39.6,117.0 40.8,116.5 42.1,116.2 43.3,115.9 44.5,115.7 45.7,115.5 46.9,115.1 48.1,114.7 49.3,114.4 50.5,114.2 51.7,114.0 52.9,113.8 54.1,113.5 55.3,113.2 56.5,113.1 57.7,112.8 58.9,111.9 60.1,111.7 61.3,111.3 62.5,111.0 63.8,110.7 65.0,110.4 66.2,110.2 67.4,110.0 68.6,109.8 69.8,109.3 71.0,109.0 72.2,108.7 73.4,108.4 74.6,108.3 75.8,108.2 77.0,108.1 78.2,107.8 79.4,107.6 80.6,107.5 81.8,107.2 83.0,106.7 84.2,106.6 85.4,106.5 86.7,106.3 87.9,105.9 89.1,105.7 90.3,105.3 91.5,105.0 92.7,104.6 93.9,104.6 95.1,104.4 96.3,104.0 97.5,103.6 98.7,103.4 99.9,103.3 101.1,103.1 102.3,102.9 103.5,102.5 104.7,102.1 105.9,101.8 107.1,101.5 108.3,101.3 109.6,101.2 110.8,101.1 112.0,100.8 113.2,100.6 114.4,100.4 115.6,100.3 116.8,100.2 118.0,100.0 119.2,99.9 120.4,99.8 121.6,99.7 122.8,99.3 124.0,99.1 125.2,99.1 126.4,98.9 127.6,98.9 128.8,98.9 130.0,104.9 131.2,104.3 132.5,103.8 133.7,103.2 134.9,101.6 136.1,100.4 137.3,99.2 138.5,98.7 139.7,98.2 140.9,97.4 142.1,96.4 143.3,95.8 144.5,95.5 145.7,95.3 146.9,94.6 148.1,94.1 149.3,93.8 150.5,93.4 151.7,93.3 152.9,93.2 154.2,92.8 155.4,92.3 156.6,91.9 157.8,91.5 159.0,91.0 160.2,90.8 161.4,90.6 162.6,90.2 163.8,89.9 165.0,89.6 166.2,89.3 167.4,89.2 168.6,89.1 169.8,88.9 171.0,88.6 172.2,88.4 173.4,88.1 174.6,88.0 175.8,87.8 177.1,87.6 178.3,87.5 179.5,87.3 180.7,87.2 181.9,86.9 183.1,86.6 184.3,86.4 185.5,86.2 186.7,86.0 187.9,85.9 189.1,85.8 190.3,85.6 191.5,85.2 192.7,84.9 193.9,84.5 195.1,84.4 196.3,84.3 197.5,84.2 198.8,84.0 200.0,83.7 201.2,83.5 202.4,83.3 203.6,83.1 204.8,83.0 206.0,82.9 207.2,82.8 208.4,82.6 209.6,82.5 210.8,82.3 212.0,82.0 213.2,81.9 214.4,81.8 215.6,81.7 216.8,81.6 218.0,81.4 219.2,81.2 220.4,81.0 221.7,80.8 222.9,80.6 224.1,80.5 225.3,80.4 226.5,80.3 227.7,80.0 228.9,79.8 230.1,79.6 231.3,79.4 232.5,79.0 233.7,79.0 234.9,78.9 236.1,78.8 237.3,78.6 238.5,78.5 239.7,78.3 240.9,78.1 242.1,78.0 243.3,77.9 244.6,77.7 245.8,77.6 247.0,77.5 248.2,77.4 249.4,77.1 250.6,77.0 251.8,76.8 253.0,76.7 254.2,76.6 255.4,76.5 256.6,76.4 257.8,76.3 259.0,76.1 260.2,75.8 261.4,75.6 262.6,75.4 263.8,75.2 265.0,75.2 266.2,75.1 267.5,74.9 268.7,74.7 269.9,74.6 271.1,74.5 272.3,74.3 273.5,74.2 274.7,74.0 275.9,73.9 277.1,73.8 278.3,73.6 279.5,73.4 280.7,73.2 281.9,73.0 283.1,73.0 284.3,72.9 285.5,72.8 286.7,72.7 287.9,72.6 289.2,72.4 290.4,72.3 291.6,72.1 292.8,72.0 294.0,71.9 295.2,71.8 296.4,71.7 297.6,71.5 298.8,71.3 300.0,71.1 301.2,71.0 302.4,70.8 303.6,70.8 304.8,70.7 306.0,70.6 307.2,70.5 308.4,70.4 309.6,70.2 310.8,70.0 312.1,69.9 313.3,69.8 314.5,69.7 315.7,69.5 316.9,69.4 318.1,69.3 319.3,69.2 320.5,69.0 321.7,68.9 322.9,68.7 324.1,68.6 325.3,68.5 326.5,68.4 327.7,68.3 328.9,68.2 330.1,68.1 331.3,68.0 332.5,68.0 333.8,67.8 335.0,67.6 336.2,67.4 337.4,71.3 338.6,70.5 339.8,69.0 341.0,68.5 342.2,67.8 343.4,66.9 344.6,66.5 345.8,66.1 347.0,65.6 348.2,64.7 349.4,64.1 350.6,63.9 351.8,63.6 353.0,63.3 354.2,62.9 355.4,62.4 356.7,62.0 357.9,61.7 359.1,61.3 360.3,61.1 361.5,60.8 362.7,60.6 363.9,60.4 365.1,60.1 366.3,59.7 367.5,59.4 368.7,59.0 369.9,58.5 371.1,58.2 372.3,58.0 373.5,57.8 374.7,57.6 375.9,57.3 377.1,56.9 378.3,56.7 379.6,55.9 380.8,55.3 382.0,55.0 383.2,54.8 384.4,54.5 385.6,54.1 386.8,53.8 388.0,53.3 389.2,53.0 390.4,52.7 391.6,52.4 392.8,52.0 394.0,51.8 395.2,51.7 396.4,51.5 397.6,51.4 398.8,51.1 400.0,51.0 401.2,50.8 402.5,50.6 403.7,50.4 404.9,50.2 406.1,50.0 407.3,49.8 408.5,49.7 409.7,49.5 410.9,49.4 412.1,49.3 413.3,49.1 414.5,49.0 415.7,48.9 416.9,48.7 418.1,48.6 419.3,48.4 420.5,48.2 421.7,48.0 422.9,47.9 424.2,47.7 425.4,47.6 426.6,47.5 427.8,47.4 429.0,47.2 430.2,47.1 431.4,47.0 432.6,46.9 433.8,46.7 435.0,46.6 436.2,46.4 437.4,46.2 438.6,46.0 439.8,45.8 441.0,45.6 442.2,45.5 443.4,45.2 444.6,45.1 445.8,44.9 447.1,44.6 448.3,44.4 449.5,44.2 450.7,44.0 451.9,43.8 453.1,43.7 454.3,43.6 455.5,43.5 456.7,43.3 457.9,43.2 459.1,43.0 460.3,42.9 461.5,42.7 462.7,42.5 463.9,42.3 465.1,42.1 466.3,41.9 467.5,41.6 468.8,41.5 470.0,41.3 471.2,41.2 472.4,41.1 473.6,41.0 474.8,40.8 476.0,40.6 477.2,40.5 478.4,40.2 479.6,40.1 480.8,40.0 482.0,39.8 483.2,39.7 484.4,39.6 485.6,39.6 486.8,39.4 488.0,39.3 489.2,39.2 490.4,39.0 491.7,38.9 492.9,38.7 494.1,38.6 495.3,38.4 496.5,38.3 497.7,38.2 498.9,38.1 500.1,37.9 501.3,37.8 502.5,37.7 503.7,37.5 504.9,37.3 506.1,37.1 507.3,36.8 508.5,36.8 509.7,36.7 510.9,36.6 512.1,36.5 513.3,36.4 514.6,36.3 515.8,36.2 517.0,36.1 518.2,36.0 519.4,35.9 520.6,35.7 521.8,35.5 523.0,35.4 524.2,35.3 525.4,35.2 526.6,35.0 527.8,34.9 529.0,34.8 530.2,34.7 531.4,34.6 532.6,34.4 533.8,34.3 535.0,34.0 536.2,33.8 537.5,33.6 538.7,33.5 539.9,33.3 541.1,33.2 542.3,33.0 543.5,32.9 544.7,32.8 545.9,32.7 547.1,32.6 548.3,32.4 549.5,32.2 550.7,32.1 551.9,31.9 553.1,31.8 554.3,31.6 555.5,31.4 556.7,31.3 557.9,31.2 559.2,31.1 560.4,31.1 561.6,30.9 562.8,30.8 564.0,30.6 565.2,30.5 566.4,30.3 567.6,30.2 568.8,30.1 570.0,30.0 570.0,30.0,120" />
  
  <!-- Linea principale -->
  <polyline fill="none" stroke="#0366d6" stroke-width="2.5" stroke-linecap="round" stroke-linejoin="round" points="30.0,120.0 31.2,119.5 32.4,119.0 33.6,118.6 34.8,118.4 36.0,118.2 37.2,117.7 38.4,117.3 39.6,117.0 40.8,116.5 42.1,116.2 43.3,115.9 44.5,115.7 45.7,115.5 46.9,115.1 48.1,114.7 49.3,114.4 50.5,114.2 51.7,114.0 52.9,113.8 54.1,113.5 55.3,113.2 56.5,113.1 57.7,112.8 58.9,111.9 60.1,111.7 61.3,111.3 62.5,111.0 63.8,110.7 65.0,110.4 66.2,110.2 67.4,110.0 68.6,109.8 69.8,109.3 71.0,109.0 72.2,108.7 73.4,108.4 74.6,108.3 75.8,108.2 77.0,108.1 78.2,107.8 79.4,107.6 80.6,107.5 81.8,107.2 83.0,106.7 84.2,106.6 85.4,106.5 86.7,106.3 87.9,105.9 89.1,105.7 90.3,105.3 91.5,105.0 92.7,104.6 93.9,104.6 95.1,104.4 96.3,104.0 97.5,103.6 98.7,103.4 99.9,103.3 101.1,103.1 102.3,102.9 103.5,102.5 104.7,102.1 105.9,101.8 107.1,101.5 108.3,101.3 109.6,101.2 110.8,101.1 112.0,100.8 113.2,100.6 114.4,100.4 115.6,100.3 116.8,100.2 118.0,100.0 119.2,99.9 120.4,99.8 121.6,99.7 122.8,99.3 124.0,99.1 125.2,99.1 126.4,98.9 127.6,98.9 128.8,98.9 130.0,104.9 131.2,104.3 132.5,103.8 133.7,103.2 134.9,101.6 136.1,100.4 137.3,99.2 138.5,98.7 139.7,98.2 140.9,97.4 142.1,96.4 143.3,95.8 144.5,95.5 145.7,95.3 146.9,94.6 148.1,94.1 149.3,93.8 150.5,93.4 151.7,93.3 152.9,93.2 154.2,92.8 155.4,92.3 156.6,91.9 157.8,91.5 159.0,91.0 160.2,90.8 161.4,90.6 162.6,90.2 163.8,89.9 165.0,89.6 166.2,89.3 167.4,89.2 168.6,89.1 169.8,88.9 171.0,88.6 172.2,88.4 173.4,88.1 174.6,88.0 175.8,87.8 177.1,87.6 178.3,87.5 179.5,87.3 180.7,87.2 181.9,86.9 183.1,86.6 184.3,86.4 185.5,86.2 186.7,86.0 187.9,85.9 189.1,85.8 190.3,85.6 191.5,85.2 192.7,84.9 193.9,84.5 195.1,84.4 196.3,84.3 197.5,84.2 198.8,84.0 200.0,83.7 201.2,83.5 202.4,83.3 203.6,83.1 204.8,83.0 206.0,82.9 207.2,82.8 208.4,82.6 209.6,82.5 210.8,82.3 212.0,82.0 213.2,81.9 214.4,81.8 215.6,81.7 216.8,81.6 218.0,81.4 219.2,81.2 220.4,81.0 221.7,80.8 222.9,80.6 224.1,80.5 225.3,80.4 226.5,80.3 227.7,80.0 228.9,79.8 230.1,79.6 231.3,79.4 232.5,79.0 233.7,79.0 234.9,78.9 236.1,78.8 237.3,78.6 238.5,78.5 239.7,78.3 240.9,78.1 242.1,78.0 243.3,77.9 244.6,77.7 245.8,77.6 247.0,77.5 248.2,77.4 249.4,77.1 250.6,77.0 251.8,76.8 253.0,76.7 254.2,76.6 255.4,76.5 256.6,76.4 257.8,76.3 259.0,76.1 260.2,75.8 261.4,75.6 262.6,75.4 263.8,75.2 265.0,75.2 266.2,75.1 267.5,74.9 268.7,74.7 269.9,74.6 271.1,74.5 272.3,74.3 273.5,74.2 274.7,74.0 275.9,73.9 277.1,73.8 278.3,73.6 279.5,73.4 280.7,73.2 281.9,73.0 283.1,73.0 284.3,72.9 285.5,72.8 286.7,72.7 287.9,72.6 289.2,72.4 290.4,72.3 291.6,72.1 292.8,72.0 294.0,71.9 295.2,71.8 296.4,71.7 297.6,71.5 298.8,71.3 300.0,71.1 301.2,71.0 302.4,70.8 303.6,70.8 304.8,70.7 306.0,70.6 307.2,70.5 308.4,70.4 309.6,70.2 310.8,70.0 312.1,69.9 313.3,69.8 314.5,69.7 315.7,69.5 316.9,69.4 318.1,69.3 319.3,69.2 320.5,69.0 321.7,68.9 322.9,68.7 324.1,68.6 325.3,68.5 326.5,68.4 327.7,68.3 328.9,68.2 330.1,68.1 331.3,68.0 332.5,68.0 333.8,67.8 335.0,67.6 336.2,67.4 337.4,71.3 338.6,70.5 339.8,69.0 341.0,68.5 342.2,67.8 343.4,66.9 344.6,66.5 345.8,66.1 347.0,65.6 348.2,64.7 349.4,64.1 350.6,63.9 351.8,63.6 353.0,63.3 354.2,62.9 355.4,62.4 356.7,62.0 357.9,61.7 359.1,61.3 360.3,61.1 361.5,60.8 362.7,60.6 363.9,60.4 365.1,60.1 366.3,59.7 367.5,59.4 368.7,59.0 369.9,58.5 371.1,58.2 372.3,58.0 373.5,57.8 374.7,57.6 375.9,57.3 377.1,56.9 378.3,56.7 379.6,55.9 380.8,55.3 382.0,55.0 383.2,54.8 384.4,54.5 385.6,54.1 386.8,53.8 388.0,53.3 389.2,53.0 390.4,52.7 391.6,52.4 392.8,52.0 394.0,51.8 395.2,51.7 396.4,51.5 397.6,51.4 398.8,51.1 400.0,51.0 401.2,50.8 402.5,50.6 403.7,50.4 404.9,50.2 406.1,50.0 407.3,49.8 408.5,49.7 409.7,49.5 410.9,49.4 412.1,49.3 413.3,49.1 414.5,49.0 415.7,48.9 416.9,48.7 418.1,48.6 419.3,48.4 420.5,48.2 421.7,48.0 422.9,47.9 424.2,47.7 425.4,47.6 426.6,47.5 427.8,47.4 429.0,47.2 430.2,47.1 431.4,47.0 432.6,46.9 433.8,46.7 435.0,46.6 436.2,46.4 437.4,46.2 438.6,46.0 439.8,45.8 441.0,45.6 442.2,45.5 443.4,45.2 444.6,45.1 445.8,44.9 447.1,44.6 448.3,44.4 449.5,44.2 450.7,44.0 451.9,43.8 453.1,43.7 454.3,43.6 455.5,43.5 456.7,43.3 457.9,43.2 459.1,43.0 460.3,42.9 461.5,42.7 462.7,42.5 463.9,42.3 465.1,42.1 466.3,41.9 467.5,41.6 468.8,41.5 470.0,41.3 471.2,41.2 472.4,41.1 473.6,41.0 474.8,40.8 476.0,40.6 477.2,40.5 478.4,40.2 479.6,40.1 480.8,40.0 482.0,39.8 483.2,39.7 484.4,39.6 485.6,39.6 486.8,39.4 488.0,39.3 489.2,39.2 490.4,39.0 491.7,38.9 492.9,38.7 494.1,38.6 495.3,38.4 496.5,38.3 497.7,38.2 498.9,38.1 500.1,37.9 501.3,37.8 502.5,37.7 503.7,37.5 504.9,37.3 506.1,37.1 507.3,36.8 508.5,36.8 509.7,36.7 510.9,36.6 512.1,36.5 513.3,36.4 514.6,36.3 515.8,36.2 517.0,36.1 518.2,36.0 519.4,35.9 520.6,35.7 521.8,35.5 523.0,35.4 524.2,35.3 525.4,35.2 526.6,35.0 527.8,34.9 529.0,34.8 530.2,34.7 531.4,34.6 532.6,34.4 533.8,34.3 535.0,34.0 536.2,33.8 537.5,33.6 538.7,33.5 539.9,33.3 541.1,33.2 542.3,33.0 543.5,32.9 544.7,32.8 545.9,32.7 547.1,32.6 548.3,32.4 549.5,32.2 550.7,32.1 551.9,31.9 553.1,31.8 554.3,31.6 555.5,31.4 556.7,31.3 557.9,31.2 559.2,31.1 560.4,31.1 561.6,30.9 562.8,30.8 564.0,30.6 565.2,30.5 566.4,30.3 567.6,30.2 568.8,30.1 570.0,30.0" />
  
  <!-- Punto finale luminoso -->
  <circle cx="570.0" cy="30.0" r="4" fill="#ffffff" stroke="#0366d6" stroke-width="2.5" />
</svg>