<svg width="600" height="150" viewBox="0 0 600 150" xmlns="http://www.w3.org/2000/svg">
  <defs>
    <filter id="shadow2" x="-2%" y="-2%" width="104%" height="108%">
      <feDropShadow dx="0" dy="2" stdDeviation="3" flood-opacity="0.1" />
    </filter>
    <linearGradient id="fillGrad" x1="0" y1="0" x2="0" y2="1">
      <stop offset="0%" stop-color="#0366d6" stop-opacity="0.3"/>
      <stop offset="100%" stop-color="#0366d6" stop-opacity="0.02"/>
    </linearGradient>
  </defs>
  <rect width="600" height="150" rx="12" fill="#ffffff" filter="url(#shadow2)" stroke="#e1e4e8" stroke-width="1"/>
  <text x="20" y="24" fill="#2b3137" font-family="-apple-system,BlinkMacSystemFont,'Segoe UI',Helvetica,Arial,sans-serif" font-size="14" font-weight="600">📈 Download Growth (Actual: 87.9k)</text>
  
  <!-- Area sotto la linea -->
  <polygon fill="url(#fillGrad)" points="30.0,120.0,120 30.0,120.0 31.2,119.5 32.5,119.0 33.7,118.5 34.9,118.4 36.1,118.2 37.4,117.6 38.6,117.3 39.8,117.0 41.0,116.4 42.3,116.1 43.5,115.9 44.7,115.7 46.0,115.4 47.2,115.0 48.4,114.6 49.6,114.3 50.9,114.1 52.1,114.0 53.3,113.7 54.5,113.4 55.8,113.1 57.0,113.0 58.2,112.7 59.5,111.8 60.7,111.6 61.9,111.2 63.1,110.9 64.4,110.5 65.6,110.2 66.8,110.0 68.0,109.9 69.3,109.6 70.5,109.2 71.7,108.8 73.0,108.6 74.2,108.3 75.4,108.2 76.6,108.1 77.9,107.9 79.1,107.7 80.3,107.5 81.5,107.4 82.8,107.0 84.0,106.5 85.2,106.4 86.5,106.3 87.7,106.1 88.9,105.8 90.1,105.5 91.4,105.1 92.6,104.8 93.8,104.5 95.0,104.4 96.3,104.2 97.5,103.8 98.7,103.4 100.0,103.2 101.2,103.0 102.4,102.9 103.6,102.7 104.9,102.3 106.1,101.9 107.3,101.6 108.5,101.2 109.8,101.1 111.0,101.0 112.2,100.8 113.5,100.5 114.7,100.4 115.9,100.2 117.1,100.1 118.4,100.0 119.6,99.8 120.8,99.6 122.0,99.5 123.3,99.4 124.5,99.1 125.7,98.9 127.0,98.8 128.2,98.7 129.4,98.6 130.6,98.6 131.9,104.7 133.1,104.1 134.3,103.6 135.5,103.0 136.8,101.3 138.0,100.2 139.2,98.9 140.5,98.5 141.7,97.9 142.9,97.1 144.1,96.1 145.4,95.5 146.6,95.2 147.8,95.0 149.0,94.3 150.3,93.8 151.5,93.5 152.7,93.1 154.0,92.9 155.2,92.9 156.4,92.5 157.6,91.9 158.9,91.5 160.1,91.1 161.3,90.7 162.5,90.4 163.8,90.3 165.0,89.9 166.2,89.5 167.5,89.2 168.7,88.9 169.9,88.8 171.1,88.7 172.4,88.5 173.6,88.2 174.8,88.0 176.0,87.8 177.3,87.6 178.5,87.4 179.7,87.2 181.0,87.1 182.2,86.9 183.4,86.8 184.6,86.5 185.9,86.2 187.1,85.9 188.3,85.8 189.5,85.6 190.8,85.5 192.0,85.3 193.2,85.2 194.5,84.8 195.7,84.5 196.9,84.1 198.1,83.9 199.4,83.9 200.6,83.7 201.8,83.5 203.0,83.3 204.3,83.1 205.5,82.8 206.7,82.6 208.0,82.6 209.2,82.4 210.4,82.3 211.6,82.2 212.9,82.0 214.1,81.8 215.3,81.6 216.5,81.5 217.8,81.4 219.0,81.2 220.2,81.2 221.5,80.9 222.7,80.7 223.9,80.5 225.1,80.3 226.4,80.1 227.6,80.0 228.8,79.9 230.0,79.8 231.3,79.5 232.5,79.3 233.7,79.1 235.0,78.9 236.2,78.5 237.4,78.5 238.6,78.4 239.9,78.3 241.1,78.1 242.3,78.0 243.5,77.8 244.8,77.6 246.0,77.5 247.2,77.4 248.5,77.2 249.7,77.1 250.9,77.0 252.1,76.9 253.4,76.6 254.6,76.5 255.8,76.3 257.0,76.2 258.3,76.1 259.5,75.9 260.7,75.8 262.0,75.7 263.2,75.6 264.4,75.3 265.6,75.0 266.9,74.8 268.1,74.7 269.3,74.6 270.5,74.6 271.8,74.4 273.0,74.1 274.2,74.0 275.5,73.9 276.7,73.8 277.9,73.6 279.1,73.4 280.4,73.3 281.6,73.2 282.8,73.0 284.0,72.9 285.3,72.7 286.5,72.5 287.7,72.4 289.0,72.3 290.2,72.3 291.4,72.1 292.6,72.0 293.9,71.8 295.1,71.7 296.3,71.5 297.5,71.4 298.8,71.3 300.0,71.2 301.2,71.1 302.5,70.9 303.7,70.7 304.9,70.5 306.1,70.4 307.4,70.2 308.6,70.2 309.8,70.1 311.0,70.0 312.3,69.9 313.5,69.8 314.7,69.5 316.0,69.4 317.2,69.3 318.4,69.2 319.6,69.1 320.9,68.9 322.1,68.8 323.3,68.7 324.5,68.5 325.8,68.4 327.0,68.3 328.2,68.1 329.5,68.0 330.7,67.9 331.9,67.8 333.1,67.7 334.4,67.6 335.6,67.5 336.8,67.4 338.0,67.3 339.3,67.2 340.5,66.9 341.7,66.7 343.0,70.7 344.2,69.9 345.4,68.4 346.6,67.8 347.9,67.2 349.1,66.3 350.3,65.8 351.5,65.5 352.8,64.9 354.0,64.1 355.2,63.4 356.5,63.2 357.7,62.9 358.9,62.6 360.1,62.2 361.4,61.7 362.6,61.3 363.8,61.0 365.0,60.6 366.3,60.4 367.5,60.1 368.7,59.9 370.0,59.6 371.2,59.4 372.4,59.0 373.6,58.7 374.9,58.3 376.1,57.7 377.3,57.4 378.5,57.2 379.8,57.1 381.0,56.9 382.2,56.5 383.5,56.2 384.7,55.9 385.9,55.1 387.1,54.5 388.4,54.2 389.6,54.0 390.8,53.7 392.0,53.3 393.3,53.0 394.5,52.5 395.7,52.2 397.0,51.9 398.2,51.6 399.4,51.2 400.6,51.0 401.9,50.9 403.1,50.7 404.3,50.5 405.5,50.3 406.8,50.1 408.0,49.9 409.2,49.7 410.5,49.6 411.7,49.3 412.9,49.2 414.1,49.0 415.4,48.8 416.6,48.6 417.8,48.5 419.0,48.4 420.3,48.3 421.5,48.1 422.7,48.0 424.0,47.8 425.2,47.7 426.4,47.5 427.6,47.3 428.9,47.2 430.1,47.0 431.3,46.9 432.5,46.8 433.8,46.6 435.0,46.5 436.2,46.4 437.5,46.2 438.7,46.2 439.9,46.0 441.1,45.8 442.4,45.7 443.6,45.5 444.8,45.3 446.0,45.1 447.3,44.9 448.5,44.7 449.7,44.6 451.0,44.3 452.2,44.2 453.4,44.0 454.6,43.7 455.9,43.5 457.1,43.3 458.3,43.1 459.5,42.9 460.8,42.8 462.0,42.6 463.2,42.5 464.5,42.4 465.7,42.3 466.9,42.1 468.1,42.0 469.4,41.8 470.6,41.6 471.8,41.4 473.0,41.1 474.3,40.9 475.5,40.6 476.7,40.5 478.0,40.4 479.2,40.3 480.4,40.2 481.6,40.0 482.9,39.9 484.1,39.7 485.3,39.5 486.5,39.3 487.8,39.1 489.0,39.0 490.2,38.9 491.5,38.7 492.7,38.6 493.9,38.6 495.1,38.5 496.4,38.3 497.6,38.2 498.8,38.0 500.0,37.9 501.3,37.7 502.5,37.6 503.7,37.5 505.0,37.3 506.2,37.2 507.4,37.1 508.6,37.0 509.9,36.8 511.1,36.7 512.3,36.5 513.5,36.3 514.8,36.1 516.0,35.8 517.2,35.8 518.5,35.7 519.7,35.6 520.9,35.4 522.1,35.4 523.4,35.3 524.6,35.2 525.8,35.1 527.0,35.0 528.3,34.8 529.5,34.7 530.7,34.5 532.0,34.4 533.2,34.3 534.4,34.2 535.6,34.0 536.9,33.9 538.1,33.7 539.3,33.6 540.5,33.5 541.8,33.4 543.0,33.3 544.2,33.0 545.5,32.8 546.7,32.5 547.9,32.4 549.1,32.2 550.4,32.1 551.6,31.9 552.8,31.8 554.0,31.7 555.3,31.6 556.5,31.5 557.7,31.4 559.0,31.2 560.2,31.0 561.4,30.9 562.6,30.7 563.9,30.6 565.1,30.4 566.3,30.3 567.5,30.2 568.8,30.1 570.0,30.0 570.0,30.0,120" />
  
  <!-- Linea principale -->
  <polyline fill="none" stroke="#0366d6" stroke-width="2.5" stroke-linecap="round" stroke-linejoin="round" points="30.0,120.0 31.2,119.5 32.5,119.0 33.7,118.5 34.9,118.4 36.1,118.2 37.4,117.6 38.6,117.3 39.8,117.0 41.0,116.4 42.3,116.1 43.5,115.9 44.7,115.7 46.0,115.4 47.2,115.0 48.4,114.6 49.6,114.3 50.9,114.1 52.1,114.0 53.3,113.7 54.5,113.4 55.8,113.1 57.0,113.0 58.2,112.7 59.5,111.8 60.7,111.6 61.9,111.2 63.1,110.9 64.4,110.5 65.6,110.2 66.8,110.0 68.0,109.9 69.3,109.6 70.5,109.2 71.7,108.8 73.0,108.6 74.2,108.3 75.4,108.2 76.6,108.1 77.9,107.9 79.1,107.7 80.3,107.5 81.5,107.4 82.8,107.0 84.0,106.5 85.2,106.4 86.5,106.3 87.7,106.1 88.9,105.8 90.1,105.5 91.4,105.1 92.6,104.8 93.8,104.5 95.0,104.4 96.3,104.2 97.5,103.8 98.7,103.4 100.0,103.2 101.2,103.0 102.4,102.9 103.6,102.7 104.9,102.3 106.1,101.9 107.3,101.6 108.5,101.2 109.8,101.1 111.0,101.0 112.2,100.8 113.5,100.5 114.7,100.4 115.9,100.2 117.1,100.1 118.4,100.0 119.6,99.8 120.8,99.6 122.0,99.5 123.3,99.4 124.5,99.1 125.7,98.9 127.0,98.8 128.2,98.7 129.4,98.6 130.6,98.6 131.9,104.7 133.1,104.1 134.3,103.6 135.5,103.0 136.8,101.3 138.0,100.2 139.2,98.9 140.5,98.5 141.7,97.9 142.9,97.1 144.1,96.1 145.4,95.5 146.6,95.2 147.8,95.0 149.0,94.3 150.3,93.8 151.5,93.5 152.7,93.1 154.0,92.9 155.2,92.9 156.4,92.5 157.6,91.9 158.9,91.5 160.1,91.1 161.3,90.7 162.5,90.4 163.8,90.3 165.0,89.9 166.2,89.5 167.5,89.2 168.7,88.9 169.9,88.8 171.1,88.7 172.4,88.5 173.6,88.2 174.8,88.0 176.0,87.8 177.3,87.6 178.5,87.4 179.7,87.2 181.0,87.1 182.2,86.9 183.4,86.8 184.6,86.5 185.9,86.2 187.1,85.9 188.3,85.8 189.5,85.6 190.8,85.5 192.0,85.3 193.2,85.2 194.5,84.8 195.7,84.5 196.9,84.1 198.1,83.9 199.4,83.9 200.6,83.7 201.8,83.5 203.0,83.3 204.3,83.1 205.5,82.8 206.7,82.6 208.0,82.6 209.2,82.4 210.4,82.3 211.6,82.2 212.9,82.0 214.1,81.8 215.3,81.6 216.5,81.5 217.8,81.4 219.0,81.2 220.2,81.2 221.5,80.9 222.7,80.7 223.9,80.5 225.1,80.3 226.4,80.1 227.6,80.0 228.8,79.9 230.0,79.8 231.3,79.5 232.5,79.3 233.7,79.1 235.0,78.9 236.2,78.5 237.4,78.5 238.6,78.4 239.9,78.3 241.1,78.1 242.3,78.0 243.5,77.8 244.8,77.6 246.0,77.5 247.2,77.4 248.5,77.2 249.7,77.1 250.9,77.0 252.1,76.9 253.4,76.6 254.6,76.5 255.8,76.3 257.0,76.2 258.3,76.1 259.5,75.9 260.7,75.8 262.0,75.7 263.2,75.6 264.4,75.3 265.6,75.0 266.9,74.8 268.1,74.7 269.3,74.6 270.5,74.6 271.8,74.4 273.0,74.1 274.2,74.0 275.5,73.9 276.7,73.8 277.9,73.6 279.1,73.4 280.4,73.3 281.6,73.2 282.8,73.0 284.0,72.9 285.3,72.7 286.5,72.5 287.7,72.4 289.0,72.3 290.2,72.3 291.4,72.1 292.6,72.0 293.9,71.8 295.1,71.7 296.3,71.5 297.5,71.4 298.8,71.3 300.0,71.2 301.2,71.1 302.5,70.9 303.7,70.7 304.9,70.5 306.1,70.4 307.4,70.2 308.6,70.2 309.8,70.1 311.0,70.0 312.3,69.9 313.5,69.8 314.7,69.5 316.0,69.4 317.2,69.3 318.4,69.2 319.6,69.1 320.9,68.9 322.1,68.8 323.3,68.7 324.5,68.5 325.8,68.4 327.0,68.3 328.2,68.1 329.5,68.0 330.7,67.9 331.9,67.8 333.1,67.7 334.4,67.6 335.6,67.5 336.8,67.4 338.0,67.3 339.3,67.2 340.5,66.9 341.7,66.7 343.0,70.7 344.2,69.9 345.4,68.4 346.6,67.8 347.9,67.2 349.1,66.3 350.3,65.8 351.5,65.5 352.8,64.9 354.0,64.1 355.2,63.4 356.5,63.2 357.7,62.9 358.9,62.6 360.1,62.2 361.4,61.7 362.6,61.3 363.8,61.0 365.0,60.6 366.3,60.4 367.5,60.1 368.7,59.9 370.0,59.6 371.2,59.4 372.4,59.0 373.6,58.7 374.9,58.3 376.1,57.7 377.3,57.4 378.5,57.2 379.8,57.1 381.0,56.9 382.2,56.5 383.5,56.2 384.7,55.9 385.9,55.1 387.1,54.5 388.4,54.2 389.6,54.0 390.8,53.7 392.0,53.3 393.3,53.0 394.5,52.5 395.7,52.2 397.0,51.9 398.2,51.6 399.4,51.2 400.6,51.0 401.9,50.9 403.1,50.7 404.3,50.5 405.5,50.3 406.8,50.1 408.0,49.9 409.2,49.7 410.5,49.6 411.7,49.3 412.9,49.2 414.1,49.0 415.4,48.8 416.6,48.6 417.8,48.5 419.0,48.4 420.3,48.3 421.5,48.1 422.7,48.0 424.0,47.8 425.2,47.7 426.4,47.5 427.6,47.3 428.9,47.2 430.1,47.0 431.3,46.9 432.5,46.8 433.8,46.6 435.0,46.5 436.2,46.4 437.5,46.2 438.7,46.2 439.9,46.0 441.1,45.8 442.4,45.7 443.6,45.5 444.8,45.3 446.0,45.1 447.3,44.9 448.5,44.7 449.7,44.6 451.0,44.3 452.2,44.2 453.4,44.0 454.6,43.7 455.9,43.5 457.1,43.3 458.3,43.1 459.5,42.9 460.8,42.8 462.0,42.6 463.2,42.5 464.5,42.4 465.7,42.3 466.9,42.1 468.1,42.0 469.4,41.8 470.6,41.6 471.8,41.4 473.0,41.1 474.3,40.9 475.5,40.6 476.7,40.5 478.0,40.4 479.2,40.3 480.4,40.2 481.6,40.0 482.9,39.9 484.1,39.7 485.3,39.5 486.5,39.3 487.8,39.1 489.0,39.0 490.2,38.9 491.5,38.7 492.7,38.6 493.9,38.6 495.1,38.5 496.4,38.3 497.6,38.2 498.8,38.0 500.0,37.9 501.3,37.7 502.5,37.6 503.7,37.5 505.0,37.3 506.2,37.2 507.4,37.1 508.6,37.0 509.9,36.8 511.1,36.7 512.3,36.5 513.5,36.3 514.8,36.1 516.0,35.8 517.2,35.8 518.5,35.7 519.7,35.6 520.9,35.4 522.1,35.4 523.4,35.3 524.6,35.2 525.8,35.1 527.0,35.0 528.3,34.8 529.5,34.7 530.7,34.5 532.0,34.4 533.2,34.3 534.4,34.2 535.6,34.0 536.9,33.9 538.1,33.7 539.3,33.6 540.5,33.5 541.8,33.4 543.0,33.3 544.2,33.0 545.5,32.8 546.7,32.5 547.9,32.4 549.1,32.2 550.4,32.1 551.6,31.9 552.8,31.8 554.0,31.7 555.3,31.6 556.5,31.5 557.7,31.4 559.0,31.2 560.2,31.0 561.4,30.9 562.6,30.7 563.9,30.6 565.1,30.4 566.3,30.3 567.5,30.2 568.8,30.1 570.0,30.0" />
  
  <!-- Punto finale luminoso -->
  <circle cx="570.0" cy="30.0" r="4" fill="#ffffff" stroke="#0366d6" stroke-width="2.5" />
</svg>