<svg width="600" height="150" viewBox="0 0 600 150" xmlns="http://www.w3.org/2000/svg">
  <defs>
    <filter id="shadow2" x="-2%" y="-2%" width="104%" height="108%">
      <feDropShadow dx="0" dy="2" stdDeviation="3" flood-opacity="0.1" />
    </filter>
    <linearGradient id="fillGrad" x1="0" y1="0" x2="0" y2="1">
      <stop offset="0%" stop-color="#0366d6" stop-opacity="0.3"/>
      <stop offset="100%" stop-color="#0366d6" stop-opacity="0.02"/>
    </linearGradient>
  </defs>
  <rect width="600" height="150" rx="12" fill="#ffffff" filter="url(#shadow2)" stroke="#e1e4e8" stroke-width="1"/>
  <text x="20" y="24" fill="#2b3137" font-family="-apple-system,BlinkMacSystemFont,'Segoe UI',Helvetica,Arial,sans-serif" font-size="14" font-weight="600">📈 Download Growth (Actual: 85.1k)</text>
  
  <!-- Area sotto la linea -->
  <polygon fill="url(#fillGrad)" points="30.0,120.0,120 30.0,120.0 31.5,119.4 33.0,118.8 34.6,118.3 36.1,118.2 37.6,117.9 39.1,117.3 40.6,116.8 42.1,116.5 43.7,115.9 45.2,115.5 46.7,115.2 48.2,115.0 49.7,114.7 51.2,114.3 52.8,113.8 54.3,113.4 55.8,113.2 57.3,113.0 58.8,112.7 60.3,112.4 61.9,112.1 63.4,111.9 64.9,111.6 66.4,110.6 67.9,110.3 69.4,109.8 71.0,109.4 72.5,109.1 74.0,108.7 75.5,108.5 77.0,108.3 78.5,108.0 80.1,107.5 81.6,107.1 83.1,106.8 84.6,106.4 86.1,106.3 87.6,106.3 89.2,106.1 90.7,105.7 92.2,105.5 93.7,105.4 95.2,105.0 96.7,104.5 98.3,104.3 99.8,104.2 101.3,104.0 102.8,103.5 104.3,103.3 105.8,102.8 107.4,102.5 108.9,102.1 110.4,102.0 111.9,101.7 113.4,101.3 114.9,100.9 116.5,100.6 118.0,100.4 119.5,100.2 121.0,100.0 122.5,99.5 124.0,99.1 125.6,98.7 127.1,98.3 128.6,98.1 130.1,98.0 131.6,97.9 133.1,97.5 134.7,97.3 136.2,97.1 137.7,97.0 139.2,96.8 140.7,96.6 142.2,96.5 143.8,96.4 145.3,96.3 146.8,95.8 148.3,95.6 149.8,95.5 151.3,95.4 152.9,95.3 154.4,95.3 155.9,102.3 157.4,101.7 158.9,101.0 160.4,100.4 162.0,98.4 163.5,97.1 165.0,95.7 166.5,95.1 168.0,94.5 169.6,93.5 171.1,92.4 172.6,91.7 174.1,91.4 175.6,91.1 177.1,90.3 178.7,89.7 180.2,89.4 181.7,88.9 183.2,88.7 184.7,88.7 186.2,88.2 187.8,87.6 189.3,87.1 190.8,86.6 192.3,86.1 193.8,85.9 195.3,85.7 196.9,85.2 198.4,84.8 199.9,84.4 201.4,84.1 202.9,84.0 204.4,83.9 206.0,83.6 207.5,83.3 209.0,83.0 210.5,82.8 212.0,82.5 213.5,82.3 215.1,82.1 216.6,82.0 218.1,81.8 219.6,81.6 221.1,81.3 222.6,81.0 224.2,80.7 225.7,80.5 227.2,80.3 228.7,80.1 230.2,80.0 231.7,79.8 233.3,79.3 234.8,78.9 236.3,78.5 237.8,78.4 239.3,78.3 240.8,78.1 242.4,77.9 243.9,77.6 245.4,77.4 246.9,77.1 248.4,76.9 249.9,76.8 251.5,76.6 253.0,76.5 254.5,76.3 256.0,76.1 257.5,75.9 259.0,75.6 260.6,75.5 262.1,75.4 263.6,75.2 265.1,75.1 266.6,74.9 268.1,74.7 269.7,74.4 271.2,74.2 272.7,74.0 274.2,73.8 275.7,73.7 277.2,73.6 278.8,73.2 280.3,72.9 281.8,72.7 283.3,72.5 284.8,72.1 286.3,72.0 287.9,71.9 289.4,71.8 290.9,71.6 292.4,71.4 293.9,71.2 295.4,71.1 297.0,70.9 298.5,70.7 300.0,70.6 301.5,70.4 303.0,70.4 304.6,70.2 306.1,69.9 307.6,69.7 309.1,69.5 310.6,69.4 312.1,69.3 313.7,69.1 315.2,69.0 316.7,68.9 318.2,68.7 319.7,68.4 321.2,68.0 322.8,67.8 324.3,67.7 325.8,67.6 327.3,67.5 328.8,67.3 330.3,67.0 331.9,66.9 333.4,66.8 334.9,66.6 336.4,66.4 337.9,66.2 339.4,66.1 341.0,66.0 342.5,65.7 344.0,65.6 345.5,65.3 347.0,65.1 348.5,65.0 350.1,64.9 351.6,64.9 353.1,64.7 354.6,64.5 356.1,64.4 357.6,64.2 359.2,64.0 360.7,63.9 362.2,63.8 363.7,63.6 365.2,63.5 366.7,63.2 368.3,63.0 369.8,62.8 371.3,62.7 372.8,62.5 374.3,62.4 375.8,62.3 377.4,62.2 378.9,62.1 380.4,62.0 381.9,61.7 383.4,61.6 384.9,61.4 386.5,61.3 388.0,61.2 389.5,61.0 391.0,60.8 392.5,60.7 394.0,60.6 395.6,60.4 397.1,60.2 398.6,60.1 400.1,59.9 401.6,59.8 403.1,59.7 404.7,59.6 406.2,59.5 407.7,59.3 409.2,59.2 410.7,59.2 412.2,59.0 413.8,58.7 415.3,58.5 416.8,63.1 418.3,62.2 419.8,60.4 421.3,59.8 422.9,59.0 424.4,58.0 425.9,57.4 427.4,57.0 428.9,56.4 430.4,55.4 432.0,54.6 433.5,54.4 435.0,54.0 436.5,53.7 438.0,53.2 439.6,52.7 441.1,52.1 442.6,51.9 444.1,51.4 445.6,51.1 447.1,50.8 448.7,50.5 450.2,50.3 451.7,50.0 453.2,49.5 454.7,49.2 456.2,48.7 457.8,48.1 459.3,47.7 460.8,47.5 462.3,47.3 463.8,47.1 465.3,46.7 466.9,46.3 468.4,46.0 469.9,45.0 471.4,44.3 472.9,44.0 474.4,43.8 476.0,43.5 477.5,43.0 479.0,42.6 480.5,42.0 482.0,41.6 483.5,41.3 485.1,41.0 486.6,40.5 488.1,40.3 489.6,40.1 491.1,39.9 492.6,39.8 494.2,39.5 495.7,39.3 497.2,39.0 498.7,38.8 500.2,38.7 501.7,38.4 503.3,38.2 504.8,38.0 506.3,37.8 507.8,37.6 509.3,37.4 510.8,37.3 512.4,37.1 513.9,37.0 515.4,36.9 516.9,36.6 518.4,36.5 519.9,36.3 521.5,36.1 523.0,35.9 524.5,35.7 526.0,35.5 527.5,35.4 529.0,35.3 530.6,35.1 532.1,34.9 533.6,34.8 535.1,34.7 536.6,34.5 538.1,34.3 539.7,34.2 541.2,33.9 542.7,33.7 544.2,33.5 545.7,33.3 547.2,33.0 548.8,32.9 550.3,32.6 551.8,32.4 553.3,32.2 554.8,31.9 556.3,31.7 557.9,31.4 559.4,31.2 560.9,30.9 562.4,30.8 563.9,30.6 565.4,30.5 567.0,30.4 568.5,30.2 570.0,30.0 570.0,30.0,120" />
  
  <!-- Linea principale -->
  <polyline fill="none" stroke="#0366d6" stroke-width="2.5" stroke-linecap="round" stroke-linejoin="round" points="30.0,120.0 31.5,119.4 33.0,118.8 34.6,118.3 36.1,118.2 37.6,117.9 39.1,117.3 40.6,116.8 42.1,116.5 43.7,115.9 45.2,115.5 46.7,115.2 48.2,115.0 49.7,114.7 51.2,114.3 52.8,113.8 54.3,113.4 55.8,113.2 57.3,113.0 58.8,112.7 60.3,112.4 61.9,112.1 63.4,111.9 64.9,111.6 66.4,110.6 67.9,110.3 69.4,109.8 71.0,109.4 72.5,109.1 74.0,108.7 75.5,108.5 77.0,108.3 78.5,108.0 80.1,107.5 81.6,107.1 83.1,106.8 84.6,106.4 86.1,106.3 87.6,106.3 89.2,106.1 90.7,105.7 92.2,105.5 93.7,105.4 95.2,105.0 96.7,104.5 98.3,104.3 99.8,104.2 101.3,104.0 102.8,103.5 104.3,103.3 105.8,102.8 107.4,102.5 108.9,102.1 110.4,102.0 111.9,101.7 113.4,101.3 114.9,100.9 116.5,100.6 118.0,100.4 119.5,100.2 121.0,100.0 122.5,99.5 124.0,99.1 125.6,98.7 127.1,98.3 128.6,98.1 130.1,98.0 131.6,97.9 133.1,97.5 134.7,97.3 136.2,97.1 137.7,97.0 139.2,96.8 140.7,96.6 142.2,96.5 143.8,96.4 145.3,96.3 146.8,95.8 148.3,95.6 149.8,95.5 151.3,95.4 152.9,95.3 154.4,95.3 155.9,102.3 157.4,101.7 158.9,101.0 160.4,100.4 162.0,98.4 163.5,97.1 165.0,95.7 166.5,95.1 168.0,94.5 169.6,93.5 171.1,92.4 172.6,91.7 174.1,91.4 175.6,91.1 177.1,90.3 178.7,89.7 180.2,89.4 181.7,88.9 183.2,88.7 184.7,88.7 186.2,88.2 187.8,87.6 189.3,87.1 190.8,86.6 192.3,86.1 193.8,85.9 195.3,85.7 196.9,85.2 198.4,84.8 199.9,84.4 201.4,84.1 202.9,84.0 204.4,83.9 206.0,83.6 207.5,83.3 209.0,83.0 210.5,82.8 212.0,82.5 213.5,82.3 215.1,82.1 216.6,82.0 218.1,81.8 219.6,81.6 221.1,81.3 222.6,81.0 224.2,80.7 225.7,80.5 227.2,80.3 228.7,80.1 230.2,80.0 231.7,79.8 233.3,79.3 234.8,78.9 236.3,78.5 237.8,78.4 239.3,78.3 240.8,78.1 242.4,77.9 243.9,77.6 245.4,77.4 246.9,77.1 248.4,76.9 249.9,76.8 251.5,76.6 253.0,76.5 254.5,76.3 256.0,76.1 257.5,75.9 259.0,75.6 260.6,75.5 262.1,75.4 263.6,75.2 265.1,75.1 266.6,74.9 268.1,74.7 269.7,74.4 271.2,74.2 272.7,74.0 274.2,73.8 275.7,73.7 277.2,73.6 278.8,73.2 280.3,72.9 281.8,72.7 283.3,72.5 284.8,72.1 286.3,72.0 287.9,71.9 289.4,71.8 290.9,71.6 292.4,71.4 293.9,71.2 295.4,71.1 297.0,70.9 298.5,70.7 300.0,70.6 301.5,70.4 303.0,70.4 304.6,70.2 306.1,69.9 307.6,69.7 309.1,69.5 310.6,69.4 312.1,69.3 313.7,69.1 315.2,69.0 316.7,68.9 318.2,68.7 319.7,68.4 321.2,68.0 322.8,67.8 324.3,67.7 325.8,67.6 327.3,67.5 328.8,67.3 330.3,67.0 331.9,66.9 333.4,66.8 334.9,66.6 336.4,66.4 337.9,66.2 339.4,66.1 341.0,66.0 342.5,65.7 344.0,65.6 345.5,65.3 347.0,65.1 348.5,65.0 350.1,64.9 351.6,64.9 353.1,64.7 354.6,64.5 356.1,64.4 357.6,64.2 359.2,64.0 360.7,63.9 362.2,63.8 363.7,63.6 365.2,63.5 366.7,63.2 368.3,63.0 369.8,62.8 371.3,62.7 372.8,62.5 374.3,62.4 375.8,62.3 377.4,62.2 378.9,62.1 380.4,62.0 381.9,61.7 383.4,61.6 384.9,61.4 386.5,61.3 388.0,61.2 389.5,61.0 391.0,60.8 392.5,60.7 394.0,60.6 395.6,60.4 397.1,60.2 398.6,60.1 400.1,59.9 401.6,59.8 403.1,59.7 404.7,59.6 406.2,59.5 407.7,59.3 409.2,59.2 410.7,59.2 412.2,59.0 413.8,58.7 415.3,58.5 416.8,63.1 418.3,62.2 419.8,60.4 421.3,59.8 422.9,59.0 424.4,58.0 425.9,57.4 427.4,57.0 428.9,56.4 430.4,55.4 432.0,54.6 433.5,54.4 435.0,54.0 436.5,53.7 438.0,53.2 439.6,52.7 441.1,52.1 442.6,51.9 444.1,51.4 445.6,51.1 447.1,50.8 448.7,50.5 450.2,50.3 451.7,50.0 453.2,49.5 454.7,49.2 456.2,48.7 457.8,48.1 459.3,47.7 460.8,47.5 462.3,47.3 463.8,47.1 465.3,46.7 466.9,46.3 468.4,46.0 469.9,45.0 471.4,44.3 472.9,44.0 474.4,43.8 476.0,43.5 477.5,43.0 479.0,42.6 480.5,42.0 482.0,41.6 483.5,41.3 485.1,41.0 486.6,40.5 488.1,40.3 489.6,40.1 491.1,39.9 492.6,39.8 494.2,39.5 495.7,39.3 497.2,39.0 498.7,38.8 500.2,38.7 501.7,38.4 503.3,38.2 504.8,38.0 506.3,37.8 507.8,37.6 509.3,37.4 510.8,37.3 512.4,37.1 513.9,37.0 515.4,36.9 516.9,36.6 518.4,36.5 519.9,36.3 521.5,36.1 523.0,35.9 524.5,35.7 526.0,35.5 527.5,35.4 529.0,35.3 530.6,35.1 532.1,34.9 533.6,34.8 535.1,34.7 536.6,34.5 538.1,34.3 539.7,34.2 541.2,33.9 542.7,33.7 544.2,33.5 545.7,33.3 547.2,33.0 548.8,32.9 550.3,32.6 551.8,32.4 553.3,32.2 554.8,31.9 556.3,31.7 557.9,31.4 559.4,31.2 560.9,30.9 562.4,30.8 563.9,30.6 565.4,30.5 567.0,30.4 568.5,30.2 570.0,30.0" />
  
  <!-- Punto finale luminoso -->
  <circle cx="570.0" cy="30.0" r="4" fill="#ffffff" stroke="#0366d6" stroke-width="2.5" />
</svg>