<svg width="600" height="150" viewBox="0 0 600 150" xmlns="http://www.w3.org/2000/svg">
  <defs>
    <filter id="shadow2" x="-2%" y="-2%" width="104%" height="108%">
      <feDropShadow dx="0" dy="2" stdDeviation="3" flood-opacity="0.1" />
    </filter>
    <linearGradient id="fillGrad" x1="0" y1="0" x2="0" y2="1">
      <stop offset="0%" stop-color="#0366d6" stop-opacity="0.3"/>
      <stop offset="100%" stop-color="#0366d6" stop-opacity="0.02"/>
    </linearGradient>
  </defs>
  <rect width="600" height="150" rx="12" fill="#ffffff" filter="url(#shadow2)" stroke="#e1e4e8" stroke-width="1"/>
  <text x="20" y="24" fill="#2b3137" font-family="-apple-system,BlinkMacSystemFont,'Segoe UI',Helvetica,Arial,sans-serif" font-size="14" font-weight="600">📈 Download Growth (Actual: 85.9k)</text>
  
  <!-- Area sotto la linea -->
  <polygon fill="url(#fillGrad)" points="30.0,120.0,120 30.0,120.0 31.4,119.5 32.8,118.9 34.3,118.4 35.7,118.3 37.1,118.0 38.5,117.4 40.0,117.0 41.4,116.7 42.8,116.1 44.2,115.7 45.7,115.4 47.1,115.2 48.5,115.0 49.9,114.5 51.4,114.1 52.8,113.7 54.2,113.5 55.6,113.3 57.1,113.0 58.5,112.7 59.9,112.4 61.3,112.3 62.8,112.0 64.2,111.0 65.6,110.7 67.0,110.3 68.5,109.9 69.9,109.6 71.3,109.2 72.7,109.0 74.2,108.8 75.6,108.6 77.0,108.1 78.4,107.7 79.9,107.4 81.3,107.0 82.7,107.0 84.1,106.9 85.6,106.7 87.0,106.4 88.4,106.2 89.8,106.0 91.3,105.7 92.7,105.1 94.1,105.0 95.5,104.9 97.0,104.7 98.4,104.3 99.8,104.0 101.2,103.6 102.7,103.2 104.1,102.8 105.5,102.8 106.9,102.5 108.4,102.1 109.8,101.7 111.2,101.4 112.6,101.3 114.1,101.1 115.5,100.9 116.9,100.5 118.3,100.0 119.8,99.7 121.2,99.3 122.6,99.1 124.0,99.0 125.5,98.8 126.9,98.5 128.3,98.3 129.7,98.2 131.2,98.0 132.6,97.9 134.0,97.7 135.4,97.5 136.9,97.4 138.3,97.3 139.7,96.9 141.1,96.7 142.6,96.6 144.0,96.5 145.4,96.4 146.8,96.4 148.3,103.1 149.7,102.5 151.1,101.9 152.5,101.2 154.0,99.4 155.4,98.1 156.8,96.7 158.2,96.2 159.7,95.6 161.1,94.7 162.5,93.7 163.9,92.9 165.4,92.6 166.8,92.4 168.2,91.6 169.6,91.1 171.1,90.7 172.5,90.3 173.9,90.1 175.3,90.0 176.8,89.7 178.2,89.0 179.6,88.6 181.0,88.1 182.5,87.6 183.9,87.4 185.3,87.2 186.7,86.8 188.2,86.4 189.6,86.0 191.0,85.7 192.4,85.6 193.9,85.5 195.3,85.2 196.7,84.9 198.1,84.7 199.6,84.4 201.0,84.2 202.4,84.0 203.8,83.8 205.3,83.6 206.7,83.5 208.1,83.3 209.5,83.0 210.9,82.7 212.4,82.4 213.8,82.2 215.2,82.0 216.6,81.9 218.1,81.7 219.5,81.6 220.9,81.1 222.3,80.8 223.8,80.4 225.2,80.2 226.6,80.2 228.0,80.0 229.5,79.8 230.9,79.5 232.3,79.3 233.7,79.0 235.2,78.8 236.6,78.7 238.0,78.5 239.4,78.4 240.9,78.3 242.3,78.1 243.7,77.9 245.1,77.6 246.6,77.5 248.0,77.4 249.4,77.2 250.8,77.1 252.3,76.9 253.7,76.7 255.1,76.4 256.5,76.2 258.0,76.0 259.4,75.9 260.8,75.8 262.2,75.6 263.7,75.3 265.1,75.0 266.5,74.8 267.9,74.6 269.4,74.2 270.8,74.2 272.2,74.0 273.6,73.9 275.1,73.8 276.5,73.6 277.9,73.4 279.3,73.2 280.8,73.1 282.2,72.9 283.6,72.8 285.0,72.6 286.5,72.6 287.9,72.4 289.3,72.1 290.7,72.0 292.2,71.8 293.6,71.7 295.0,71.5 296.4,71.4 297.9,71.3 299.3,71.1 300.7,71.0 302.1,70.7 303.6,70.4 305.0,70.2 306.4,70.0 307.8,69.9 309.3,69.9 310.7,69.7 312.1,69.4 313.5,69.3 315.0,69.2 316.4,69.0 317.8,68.8 319.2,68.6 320.7,68.5 322.1,68.4 323.5,68.2 324.9,68.0 326.4,67.7 327.8,67.5 329.2,67.4 330.6,67.4 332.1,67.3 333.5,67.2 334.9,67.0 336.3,66.8 337.8,66.7 339.2,66.5 340.6,66.4 342.0,66.3 343.5,66.1 344.9,66.0 346.3,65.8 347.7,65.5 349.2,65.4 350.6,65.2 352.0,65.1 353.4,65.0 354.9,64.9 356.3,64.8 357.7,64.7 359.1,64.6 360.6,64.3 362.0,64.2 363.4,64.0 364.8,63.9 366.3,63.8 367.7,63.6 369.1,63.4 370.5,63.3 372.0,63.2 373.4,63.1 374.8,62.9 376.2,62.7 377.7,62.6 379.1,62.5 380.5,62.4 381.9,62.3 383.4,62.2 384.8,62.0 386.2,61.9 387.6,61.9 389.1,61.7 390.5,61.4 391.9,61.2 393.3,65.6 394.7,64.7 396.2,63.1 397.6,62.4 399.0,61.7 400.4,60.7 401.9,60.2 403.3,59.8 404.7,59.2 406.1,58.3 407.6,57.5 409.0,57.3 410.4,57.0 411.8,56.7 413.3,56.2 414.7,55.7 416.1,55.2 417.5,54.9 419.0,54.4 420.4,54.2 421.8,53.8 423.2,53.6 424.7,53.4 426.1,53.1 427.5,52.6 428.9,52.3 430.4,51.9 431.8,51.3 433.2,50.9 434.6,50.7 436.1,50.5 437.5,50.3 438.9,49.9 440.3,49.6 441.8,49.3 443.2,48.4 444.6,47.7 446.0,47.3 447.5,47.2 448.9,46.9 450.3,46.4 451.7,46.0 453.2,45.5 454.6,45.1 456.0,44.8 457.4,44.5 458.9,44.1 460.3,43.8 461.7,43.7 463.1,43.5 464.6,43.3 466.0,43.0 467.4,42.9 468.8,42.6 470.3,42.4 471.7,42.3 473.1,42.0 474.5,41.8 476.0,41.6 477.4,41.4 478.8,41.2 480.2,41.1 481.7,41.0 483.1,40.8 484.5,40.7 485.9,40.6 487.4,40.3 488.8,40.2 490.2,40.0 491.6,39.8 493.1,39.6 494.5,39.5 495.9,39.3 497.3,39.2 498.8,39.0 500.2,38.9 501.6,38.7 503.0,38.6 504.5,38.5 505.9,38.3 507.3,38.1 508.7,38.0 510.2,37.7 511.6,37.5 513.0,37.4 514.4,37.1 515.9,36.9 517.3,36.7 518.7,36.5 520.1,36.3 521.6,36.1 523.0,35.8 524.4,35.6 525.8,35.3 527.3,35.1 528.7,34.9 530.1,34.7 531.5,34.6 533.0,34.5 534.4,34.4 535.8,34.2 537.2,34.0 538.7,33.9 540.1,33.6 541.5,33.4 542.9,33.2 544.4,32.9 545.8,32.7 547.2,32.4 548.6,32.3 550.1,32.1 551.5,32.0 552.9,31.9 554.3,31.7 555.8,31.6 557.2,31.3 558.6,31.2 560.0,30.9 561.5,30.8 562.9,30.6 564.3,30.5 565.7,30.3 567.2,30.2 568.6,30.1 570.0,30.0 570.0,30.0,120" />
  
  <!-- Linea principale -->
  <polyline fill="none" stroke="#0366d6" stroke-width="2.5" stroke-linecap="round" stroke-linejoin="round" points="30.0,120.0 31.4,119.5 32.8,118.9 34.3,118.4 35.7,118.3 37.1,118.0 38.5,117.4 40.0,117.0 41.4,116.7 42.8,116.1 44.2,115.7 45.7,115.4 47.1,115.2 48.5,115.0 49.9,114.5 51.4,114.1 52.8,113.7 54.2,113.5 55.6,113.3 57.1,113.0 58.5,112.7 59.9,112.4 61.3,112.3 62.8,112.0 64.2,111.0 65.6,110.7 67.0,110.3 68.5,109.9 69.9,109.6 71.3,109.2 72.7,109.0 74.2,108.8 75.6,108.6 77.0,108.1 78.4,107.7 79.9,107.4 81.3,107.0 82.7,107.0 84.1,106.9 85.6,106.7 87.0,106.4 88.4,106.2 89.8,106.0 91.3,105.7 92.7,105.1 94.1,105.0 95.5,104.9 97.0,104.7 98.4,104.3 99.8,104.0 101.2,103.6 102.7,103.2 104.1,102.8 105.5,102.8 106.9,102.5 108.4,102.1 109.8,101.7 111.2,101.4 112.6,101.3 114.1,101.1 115.5,100.9 116.9,100.5 118.3,100.0 119.8,99.7 121.2,99.3 122.6,99.1 124.0,99.0 125.5,98.8 126.9,98.5 128.3,98.3 129.7,98.2 131.2,98.0 132.6,97.9 134.0,97.7 135.4,97.5 136.9,97.4 138.3,97.3 139.7,96.9 141.1,96.7 142.6,96.6 144.0,96.5 145.4,96.4 146.8,96.4 148.3,103.1 149.7,102.5 151.1,101.9 152.5,101.2 154.0,99.4 155.4,98.1 156.8,96.7 158.2,96.2 159.7,95.6 161.1,94.7 162.5,93.7 163.9,92.9 165.4,92.6 166.8,92.4 168.2,91.6 169.6,91.1 171.1,90.7 172.5,90.3 173.9,90.1 175.3,90.0 176.8,89.7 178.2,89.0 179.6,88.6 181.0,88.1 182.5,87.6 183.9,87.4 185.3,87.2 186.7,86.8 188.2,86.4 189.6,86.0 191.0,85.7 192.4,85.6 193.9,85.5 195.3,85.2 196.7,84.9 198.1,84.7 199.6,84.4 201.0,84.2 202.4,84.0 203.8,83.8 205.3,83.6 206.7,83.5 208.1,83.3 209.5,83.0 210.9,82.7 212.4,82.4 213.8,82.2 215.2,82.0 216.6,81.9 218.1,81.7 219.5,81.6 220.9,81.1 222.3,80.8 223.8,80.4 225.2,80.2 226.6,80.2 228.0,80.0 229.5,79.8 230.9,79.5 232.3,79.3 233.7,79.0 235.2,78.8 236.6,78.7 238.0,78.5 239.4,78.4 240.9,78.3 242.3,78.1 243.7,77.9 245.1,77.6 246.6,77.5 248.0,77.4 249.4,77.2 250.8,77.1 252.3,76.9 253.7,76.7 255.1,76.4 256.5,76.2 258.0,76.0 259.4,75.9 260.8,75.8 262.2,75.6 263.7,75.3 265.1,75.0 266.5,74.8 267.9,74.6 269.4,74.2 270.8,74.2 272.2,74.0 273.6,73.9 275.1,73.8 276.5,73.6 277.9,73.4 279.3,73.2 280.8,73.1 282.2,72.9 283.6,72.8 285.0,72.6 286.5,72.6 287.9,72.4 289.3,72.1 290.7,72.0 292.2,71.8 293.6,71.7 295.0,71.5 296.4,71.4 297.9,71.3 299.3,71.1 300.7,71.0 302.1,70.7 303.6,70.4 305.0,70.2 306.4,70.0 307.8,69.9 309.3,69.9 310.7,69.7 312.1,69.4 313.5,69.3 315.0,69.2 316.4,69.0 317.8,68.8 319.2,68.6 320.7,68.5 322.1,68.4 323.5,68.2 324.9,68.0 326.4,67.7 327.8,67.5 329.2,67.4 330.6,67.4 332.1,67.3 333.5,67.2 334.9,67.0 336.3,66.8 337.8,66.7 339.2,66.5 340.6,66.4 342.0,66.3 343.5,66.1 344.9,66.0 346.3,65.8 347.7,65.5 349.2,65.4 350.6,65.2 352.0,65.1 353.4,65.0 354.9,64.9 356.3,64.8 357.7,64.7 359.1,64.6 360.6,64.3 362.0,64.2 363.4,64.0 364.8,63.9 366.3,63.8 367.7,63.6 369.1,63.4 370.5,63.3 372.0,63.2 373.4,63.1 374.8,62.9 376.2,62.7 377.7,62.6 379.1,62.5 380.5,62.4 381.9,62.3 383.4,62.2 384.8,62.0 386.2,61.9 387.6,61.9 389.1,61.7 390.5,61.4 391.9,61.2 393.3,65.6 394.7,64.7 396.2,63.1 397.6,62.4 399.0,61.7 400.4,60.7 401.9,60.2 403.3,59.8 404.7,59.2 406.1,58.3 407.6,57.5 409.0,57.3 410.4,57.0 411.8,56.7 413.3,56.2 414.7,55.7 416.1,55.2 417.5,54.9 419.0,54.4 420.4,54.2 421.8,53.8 423.2,53.6 424.7,53.4 426.1,53.1 427.5,52.6 428.9,52.3 430.4,51.9 431.8,51.3 433.2,50.9 434.6,50.7 436.1,50.5 437.5,50.3 438.9,49.9 440.3,49.6 441.8,49.3 443.2,48.4 444.6,47.7 446.0,47.3 447.5,47.2 448.9,46.9 450.3,46.4 451.7,46.0 453.2,45.5 454.6,45.1 456.0,44.8 457.4,44.5 458.9,44.1 460.3,43.8 461.7,43.7 463.1,43.5 464.6,43.3 466.0,43.0 467.4,42.9 468.8,42.6 470.3,42.4 471.7,42.3 473.1,42.0 474.5,41.8 476.0,41.6 477.4,41.4 478.8,41.2 480.2,41.1 481.7,41.0 483.1,40.8 484.5,40.7 485.9,40.6 487.4,40.3 488.8,40.2 490.2,40.0 491.6,39.8 493.1,39.6 494.5,39.5 495.9,39.3 497.3,39.2 498.8,39.0 500.2,38.9 501.6,38.7 503.0,38.6 504.5,38.5 505.9,38.3 507.3,38.1 508.7,38.0 510.2,37.7 511.6,37.5 513.0,37.4 514.4,37.1 515.9,36.9 517.3,36.7 518.7,36.5 520.1,36.3 521.6,36.1 523.0,35.8 524.4,35.6 525.8,35.3 527.3,35.1 528.7,34.9 530.1,34.7 531.5,34.6 533.0,34.5 534.4,34.4 535.8,34.2 537.2,34.0 538.7,33.9 540.1,33.6 541.5,33.4 542.9,33.2 544.4,32.9 545.8,32.7 547.2,32.4 548.6,32.3 550.1,32.1 551.5,32.0 552.9,31.9 554.3,31.7 555.8,31.6 557.2,31.3 558.6,31.2 560.0,30.9 561.5,30.8 562.9,30.6 564.3,30.5 565.7,30.3 567.2,30.2 568.6,30.1 570.0,30.0" />
  
  <!-- Punto finale luminoso -->
  <circle cx="570.0" cy="30.0" r="4" fill="#ffffff" stroke="#0366d6" stroke-width="2.5" />
</svg>