<svg width="600" height="150" viewBox="0 0 600 150" xmlns="http://www.w3.org/2000/svg">
  <defs>
    <filter id="shadow2" x="-2%" y="-2%" width="104%" height="108%">
      <feDropShadow dx="0" dy="2" stdDeviation="3" flood-opacity="0.1" />
    </filter>
    <linearGradient id="fillGrad" x1="0" y1="0" x2="0" y2="1">
      <stop offset="0%" stop-color="#0366d6" stop-opacity="0.3"/>
      <stop offset="100%" stop-color="#0366d6" stop-opacity="0.02"/>
    </linearGradient>
  </defs>
  <rect width="600" height="150" rx="12" fill="#ffffff" filter="url(#shadow2)" stroke="#e1e4e8" stroke-width="1"/>
  <text x="20" y="24" fill="#2b3137" font-family="-apple-system,BlinkMacSystemFont,'Segoe UI',Helvetica,Arial,sans-serif" font-size="14" font-weight="600">📈 Download Growth (Actual: 86.6k)</text>
  
  <!-- Area sotto la linea -->
  <polygon fill="url(#fillGrad)" points="30.0,120.0,120 30.0,120.0 31.3,119.5 32.7,118.9 34.0,118.5 35.4,118.3 36.7,118.1 38.1,117.5 39.4,117.1 40.7,116.8 42.1,116.2 43.4,115.9 44.8,115.6 46.1,115.4 47.5,115.1 48.8,114.7 50.1,114.3 51.5,114.0 52.8,113.7 54.2,113.6 55.5,113.3 56.9,113.0 58.2,112.7 59.6,112.6 60.9,112.3 62.2,111.3 63.6,111.0 64.9,110.7 66.3,110.3 67.6,109.9 69.0,109.6 70.3,109.4 71.6,109.3 73.0,109.0 74.3,108.5 75.7,108.1 77.0,107.8 78.4,107.5 79.7,107.4 81.0,107.4 82.4,107.2 83.7,106.9 85.1,106.7 86.4,106.6 87.8,106.2 89.1,105.7 90.4,105.6 91.8,105.5 93.1,105.3 94.5,104.9 95.8,104.6 97.2,104.2 98.5,103.9 99.9,103.5 101.2,103.4 102.5,103.2 103.9,102.8 105.2,102.4 106.6,102.1 107.9,102.0 109.3,101.8 110.6,101.6 111.9,101.2 113.3,100.8 114.6,100.4 116.0,100.1 117.3,99.9 118.7,99.8 120.0,99.6 121.3,99.3 122.7,99.1 124.0,99.0 125.4,98.8 126.7,98.7 128.1,98.5 129.4,98.3 130.7,98.3 132.1,98.2 133.4,97.8 134.8,97.5 136.1,97.5 137.5,97.3 138.8,97.3 140.1,97.3 141.5,103.8 142.8,103.1 144.2,102.5 145.5,101.9 146.9,100.2 148.2,98.9 149.6,97.6 150.9,97.1 152.2,96.5 153.6,95.6 154.9,94.6 156.3,93.9 157.6,93.6 159.0,93.4 160.3,92.7 161.6,92.2 163.0,91.8 164.3,91.4 165.7,91.2 167.0,91.2 168.4,90.8 169.7,90.2 171.0,89.7 172.4,89.3 173.7,88.8 175.1,88.6 176.4,88.4 177.8,88.0 179.1,87.6 180.4,87.2 181.8,87.0 183.1,86.8 184.5,86.7 185.8,86.5 187.2,86.2 188.5,86.0 189.9,85.7 191.2,85.5 192.5,85.3 193.9,85.2 195.2,85.0 196.6,84.8 197.9,84.7 199.3,84.3 200.6,84.1 201.9,83.8 203.3,83.6 204.6,83.4 206.0,83.3 207.3,83.2 208.7,83.0 210.0,82.5 211.3,82.2 212.7,81.8 214.0,81.7 215.4,81.6 216.7,81.5 218.1,81.2 219.4,81.0 220.7,80.8 222.1,80.5 223.4,80.3 224.8,80.2 226.1,80.1 227.5,79.9 228.8,79.8 230.1,79.6 231.5,79.4 232.8,79.2 234.2,79.0 235.5,78.9 236.9,78.8 238.2,78.7 239.6,78.5 240.9,78.3 242.2,78.0 243.6,77.9 244.9,77.6 246.3,77.5 247.6,77.4 249.0,77.3 250.3,77.0 251.6,76.7 253.0,76.5 254.3,76.3 255.7,75.9 257.0,75.9 258.4,75.7 259.7,75.6 261.0,75.5 262.4,75.3 263.7,75.1 265.1,75.0 266.4,74.8 267.8,74.7 269.1,74.5 270.4,74.4 271.8,74.3 273.1,74.1 274.5,73.9 275.8,73.8 277.2,73.5 278.5,73.4 279.9,73.3 281.2,73.2 282.5,73.1 283.9,72.9 285.2,72.8 286.6,72.5 287.9,72.2 289.3,72.0 290.6,71.8 291.9,71.8 293.3,71.7 294.6,71.5 296.0,71.3 297.3,71.1 298.7,71.0 300.0,70.8 301.3,70.7 302.7,70.5 304.0,70.4 305.4,70.3 306.7,70.1 308.1,69.9 309.4,69.7 310.7,69.5 312.1,69.4 313.4,69.3 314.8,69.3 316.1,69.1 317.5,69.0 318.8,68.8 320.1,68.6 321.5,68.5 322.8,68.4 324.2,68.2 325.5,68.1 326.9,68.0 328.2,67.8 329.6,67.6 330.9,67.4 332.2,67.2 333.6,67.1 334.9,67.0 336.3,66.9 337.6,66.8 339.0,66.7 340.3,66.6 341.6,66.4 343.0,66.2 344.3,66.1 345.7,66.0 347.0,65.9 348.4,65.7 349.7,65.5 351.0,65.4 352.4,65.3 353.7,65.2 355.1,65.0 356.4,64.9 357.8,64.7 359.1,64.6 360.4,64.5 361.8,64.4 363.1,64.3 364.5,64.2 365.8,64.1 367.2,64.0 368.5,63.9 369.9,63.6 371.2,63.4 372.5,67.6 373.9,66.8 375.2,65.2 376.6,64.6 377.9,63.8 379.3,62.9 380.6,62.4 381.9,62.1 383.3,61.5 384.6,60.5 386.0,59.8 387.3,59.6 388.7,59.3 390.0,59.0 391.3,58.5 392.7,58.1 394.0,57.6 395.4,57.3 396.7,56.8 398.1,56.6 399.4,56.3 400.7,56.1 402.1,55.8 403.4,55.6 404.8,55.1 406.1,54.8 407.5,54.4 408.8,53.8 410.1,53.5 411.5,53.3 412.8,53.1 414.2,52.9 415.5,52.5 416.9,52.2 418.2,51.9 419.6,51.0 420.9,50.3 422.2,50.0 423.6,49.9 424.9,49.6 426.3,49.1 427.6,48.7 429.0,48.2 430.3,47.9 431.6,47.6 433.0,47.3 434.3,46.9 435.7,46.7 437.0,46.5 438.4,46.3 439.7,46.2 441.0,45.9 442.4,45.7 443.7,45.5 445.1,45.3 446.4,45.2 447.8,44.9 449.1,44.7 450.4,44.5 451.8,44.3 453.1,44.2 454.5,44.0 455.8,43.9 457.2,43.7 458.5,43.6 459.9,43.5 461.2,43.3 462.5,43.2 463.9,43.0 465.2,42.8 466.6,42.6 467.9,42.4 469.3,42.2 470.6,42.1 471.9,42.0 473.3,41.9 474.6,41.7 476.0,41.6 477.3,41.5 478.7,41.4 480.0,41.2 481.3,41.0 482.7,40.8 484.0,40.6 485.4,40.4 486.7,40.2 488.1,40.0 489.4,39.8 490.7,39.6 492.1,39.4 493.4,39.2 494.8,38.9 496.1,38.7 497.5,38.5 498.8,38.2 500.1,38.0 501.5,37.9 502.8,37.8 504.2,37.7 505.5,37.5 506.9,37.4 508.2,37.2 509.6,37.0 510.9,36.8 512.2,36.6 513.6,36.4 514.9,36.1 516.3,36.0 517.6,35.7 519.0,35.5 520.3,35.4 521.6,35.2 523.0,35.1 524.3,35.0 525.7,34.8 527.0,34.6 528.4,34.5 529.7,34.2 531.0,34.1 532.4,33.9 533.7,33.8 535.1,33.6 536.4,33.5 537.8,33.5 539.1,33.3 540.4,33.1 541.8,33.1 543.1,32.9 544.5,32.7 545.8,32.5 547.2,32.4 548.5,32.3 549.9,32.1 551.2,32.0 552.5,31.9 553.9,31.7 555.2,31.6 556.6,31.4 557.9,31.3 559.3,31.0 560.6,30.9 561.9,30.5 563.3,30.5 564.6,30.4 566.0,30.3 567.3,30.1 568.7,30.1 570.0,30.0 570.0,30.0,120" />
  
  <!-- Linea principale -->
  <polyline fill="none" stroke="#0366d6" stroke-width="2.5" stroke-linecap="round" stroke-linejoin="round" points="30.0,120.0 31.3,119.5 32.7,118.9 34.0,118.5 35.4,118.3 36.7,118.1 38.1,117.5 39.4,117.1 40.7,116.8 42.1,116.2 43.4,115.9 44.8,115.6 46.1,115.4 47.5,115.1 48.8,114.7 50.1,114.3 51.5,114.0 52.8,113.7 54.2,113.6 55.5,113.3 56.9,113.0 58.2,112.7 59.6,112.6 60.9,112.3 62.2,111.3 63.6,111.0 64.9,110.7 66.3,110.3 67.6,109.9 69.0,109.6 70.3,109.4 71.6,109.3 73.0,109.0 74.3,108.5 75.7,108.1 77.0,107.8 78.4,107.5 79.7,107.4 81.0,107.4 82.4,107.2 83.7,106.9 85.1,106.7 86.4,106.6 87.8,106.2 89.1,105.7 90.4,105.6 91.8,105.5 93.1,105.3 94.5,104.9 95.8,104.6 97.2,104.2 98.5,103.9 99.9,103.5 101.2,103.4 102.5,103.2 103.9,102.8 105.2,102.4 106.6,102.1 107.9,102.0 109.3,101.8 110.6,101.6 111.9,101.2 113.3,100.8 114.6,100.4 116.0,100.1 117.3,99.9 118.7,99.8 120.0,99.6 121.3,99.3 122.7,99.1 124.0,99.0 125.4,98.8 126.7,98.7 128.1,98.5 129.4,98.3 130.7,98.3 132.1,98.2 133.4,97.8 134.8,97.5 136.1,97.5 137.5,97.3 138.8,97.3 140.1,97.3 141.5,103.8 142.8,103.1 144.2,102.5 145.5,101.9 146.9,100.2 148.2,98.9 149.6,97.6 150.9,97.1 152.2,96.5 153.6,95.6 154.9,94.6 156.3,93.9 157.6,93.6 159.0,93.4 160.3,92.7 161.6,92.2 163.0,91.8 164.3,91.4 165.7,91.2 167.0,91.2 168.4,90.8 169.7,90.2 171.0,89.7 172.4,89.3 173.7,88.8 175.1,88.6 176.4,88.4 177.8,88.0 179.1,87.6 180.4,87.2 181.8,87.0 183.1,86.8 184.5,86.7 185.8,86.5 187.2,86.2 188.5,86.0 189.9,85.7 191.2,85.5 192.5,85.3 193.9,85.2 195.2,85.0 196.6,84.8 197.9,84.7 199.3,84.3 200.6,84.1 201.9,83.8 203.3,83.6 204.6,83.4 206.0,83.3 207.3,83.2 208.7,83.0 210.0,82.5 211.3,82.2 212.7,81.8 214.0,81.7 215.4,81.6 216.7,81.5 218.1,81.2 219.4,81.0 220.7,80.8 222.1,80.5 223.4,80.3 224.8,80.2 226.1,80.1 227.5,79.9 228.8,79.8 230.1,79.6 231.5,79.4 232.8,79.2 234.2,79.0 235.5,78.9 236.9,78.8 238.2,78.7 239.6,78.5 240.9,78.3 242.2,78.0 243.6,77.9 244.9,77.6 246.3,77.5 247.6,77.4 249.0,77.3 250.3,77.0 251.6,76.7 253.0,76.5 254.3,76.3 255.7,75.9 257.0,75.9 258.4,75.7 259.7,75.6 261.0,75.5 262.4,75.3 263.7,75.1 265.1,75.0 266.4,74.8 267.8,74.7 269.1,74.5 270.4,74.4 271.8,74.3 273.1,74.1 274.5,73.9 275.8,73.8 277.2,73.5 278.5,73.4 279.9,73.3 281.2,73.2 282.5,73.1 283.9,72.9 285.2,72.8 286.6,72.5 287.9,72.2 289.3,72.0 290.6,71.8 291.9,71.8 293.3,71.7 294.6,71.5 296.0,71.3 297.3,71.1 298.7,71.0 300.0,70.8 301.3,70.7 302.7,70.5 304.0,70.4 305.4,70.3 306.7,70.1 308.1,69.9 309.4,69.7 310.7,69.5 312.1,69.4 313.4,69.3 314.8,69.3 316.1,69.1 317.5,69.0 318.8,68.8 320.1,68.6 321.5,68.5 322.8,68.4 324.2,68.2 325.5,68.1 326.9,68.0 328.2,67.8 329.6,67.6 330.9,67.4 332.2,67.2 333.6,67.1 334.9,67.0 336.3,66.9 337.6,66.8 339.0,66.7 340.3,66.6 341.6,66.4 343.0,66.2 344.3,66.1 345.7,66.0 347.0,65.9 348.4,65.7 349.7,65.5 351.0,65.4 352.4,65.3 353.7,65.2 355.1,65.0 356.4,64.9 357.8,64.7 359.1,64.6 360.4,64.5 361.8,64.4 363.1,64.3 364.5,64.2 365.8,64.1 367.2,64.0 368.5,63.9 369.9,63.6 371.2,63.4 372.5,67.6 373.9,66.8 375.2,65.2 376.6,64.6 377.9,63.8 379.3,62.9 380.6,62.4 381.9,62.1 383.3,61.5 384.6,60.5 386.0,59.8 387.3,59.6 388.7,59.3 390.0,59.0 391.3,58.5 392.7,58.1 394.0,57.6 395.4,57.3 396.7,56.8 398.1,56.6 399.4,56.3 400.7,56.1 402.1,55.8 403.4,55.6 404.8,55.1 406.1,54.8 407.5,54.4 408.8,53.8 410.1,53.5 411.5,53.3 412.8,53.1 414.2,52.9 415.5,52.5 416.9,52.2 418.2,51.9 419.6,51.0 420.9,50.3 422.2,50.0 423.6,49.9 424.9,49.6 426.3,49.1 427.6,48.7 429.0,48.2 430.3,47.9 431.6,47.6 433.0,47.3 434.3,46.9 435.7,46.7 437.0,46.5 438.4,46.3 439.7,46.2 441.0,45.9 442.4,45.7 443.7,45.5 445.1,45.3 446.4,45.2 447.8,44.9 449.1,44.7 450.4,44.5 451.8,44.3 453.1,44.2 454.5,44.0 455.8,43.9 457.2,43.7 458.5,43.6 459.9,43.5 461.2,43.3 462.5,43.2 463.9,43.0 465.2,42.8 466.6,42.6 467.9,42.4 469.3,42.2 470.6,42.1 471.9,42.0 473.3,41.9 474.6,41.7 476.0,41.6 477.3,41.5 478.7,41.4 480.0,41.2 481.3,41.0 482.7,40.8 484.0,40.6 485.4,40.4 486.7,40.2 488.1,40.0 489.4,39.8 490.7,39.6 492.1,39.4 493.4,39.2 494.8,38.9 496.1,38.7 497.5,38.5 498.8,38.2 500.1,38.0 501.5,37.9 502.8,37.8 504.2,37.7 505.5,37.5 506.9,37.4 508.2,37.2 509.6,37.0 510.9,36.8 512.2,36.6 513.6,36.4 514.9,36.1 516.3,36.0 517.6,35.7 519.0,35.5 520.3,35.4 521.6,35.2 523.0,35.1 524.3,35.0 525.7,34.8 527.0,34.6 528.4,34.5 529.7,34.2 531.0,34.1 532.4,33.9 533.7,33.8 535.1,33.6 536.4,33.5 537.8,33.5 539.1,33.3 540.4,33.1 541.8,33.1 543.1,32.9 544.5,32.7 545.8,32.5 547.2,32.4 548.5,32.3 549.9,32.1 551.2,32.0 552.5,31.9 553.9,31.7 555.2,31.6 556.6,31.4 557.9,31.3 559.3,31.0 560.6,30.9 561.9,30.5 563.3,30.5 564.6,30.4 566.0,30.3 567.3,30.1 568.7,30.1 570.0,30.0" />
  
  <!-- Punto finale luminoso -->
  <circle cx="570.0" cy="30.0" r="4" fill="#ffffff" stroke="#0366d6" stroke-width="2.5" />
</svg>