<svg width="600" height="150" viewBox="0 0 600 150" xmlns="http://www.w3.org/2000/svg">
  <defs>
    <filter id="shadow2" x="-2%" y="-2%" width="104%" height="108%">
      <feDropShadow dx="0" dy="2" stdDeviation="3" flood-opacity="0.1" />
    </filter>
    <linearGradient id="fillGrad" x1="0" y1="0" x2="0" y2="1">
      <stop offset="0%" stop-color="#0366d6" stop-opacity="0.3"/>
      <stop offset="100%" stop-color="#0366d6" stop-opacity="0.02"/>
    </linearGradient>
  </defs>
  <rect width="600" height="150" rx="12" fill="#ffffff" filter="url(#shadow2)" stroke="#e1e4e8" stroke-width="1"/>
  <text x="20" y="24" fill="#2b3137" font-family="-apple-system,BlinkMacSystemFont,'Segoe UI',Helvetica,Arial,sans-serif" font-size="14" font-weight="600">📈 Download Growth (Actual: 83.8k)</text>
  
  <!-- Area sotto la linea -->
  <polygon fill="url(#fillGrad)" points="30.0,120.0,120 30.0,120.0 31.7,119.4 33.3,118.8 35.0,118.2 36.7,118.0 38.3,117.8 40.0,117.1 41.7,116.6 43.3,116.3 45.0,115.6 46.7,115.2 48.3,114.9 50.0,114.7 51.7,114.3 53.3,113.9 55.0,113.4 56.7,113.0 58.3,112.7 60.0,112.5 61.7,112.2 63.3,111.8 65.0,111.5 66.7,111.3 68.3,111.0 70.0,109.9 71.7,109.6 73.3,109.1 75.0,108.7 76.7,108.3 78.3,107.9 80.0,107.7 81.7,107.5 83.3,107.2 85.0,106.6 86.7,106.2 88.3,105.8 90.0,105.5 91.7,105.4 93.3,105.3 95.0,105.1 96.7,104.7 98.3,104.5 100.0,104.3 101.7,103.9 103.3,103.3 105.0,103.2 106.7,103.1 108.3,102.8 110.0,102.4 111.7,102.0 113.3,101.5 115.0,101.2 116.7,100.8 118.3,100.7 120.0,100.4 121.7,100.0 123.3,99.5 125.0,99.2 126.7,99.0 128.3,98.8 130.0,98.6 131.7,98.1 133.3,97.6 135.0,97.2 136.7,96.8 138.3,96.6 140.0,96.4 141.7,96.2 143.3,95.9 145.0,95.7 146.7,95.5 148.3,95.3 150.0,95.2 151.7,94.9 153.3,94.8 155.0,94.7 156.7,94.5 158.3,94.1 160.0,93.8 161.7,93.7 163.3,93.6 165.0,93.5 166.7,93.5 168.3,101.1 170.0,100.3 171.7,99.7 173.3,99.0 175.0,96.9 176.7,95.4 178.3,93.9 180.0,93.3 181.7,92.7 183.3,91.6 185.0,90.5 186.7,89.6 188.3,89.3 190.0,89.0 191.7,88.2 193.3,87.5 195.0,87.2 196.7,86.7 198.3,86.5 200.0,86.4 201.7,85.9 203.3,85.2 205.0,84.7 206.7,84.2 208.3,83.7 210.0,83.4 211.7,83.2 213.3,82.7 215.0,82.3 216.7,81.8 218.3,81.5 220.0,81.3 221.7,81.2 223.3,81.0 225.0,80.6 226.7,80.3 228.3,80.1 230.0,79.8 231.7,79.6 233.3,79.4 235.0,79.2 236.7,79.0 238.3,78.8 240.0,78.5 241.7,78.2 243.3,77.8 245.0,77.6 246.7,77.4 248.3,77.3 250.0,77.1 251.7,76.9 253.3,76.3 255.0,76.0 256.7,75.5 258.3,75.3 260.0,75.3 261.7,75.1 263.3,74.8 265.0,74.6 266.7,74.3 268.3,74.0 270.0,73.7 271.7,73.6 273.3,73.5 275.0,73.3 276.7,73.2 278.3,72.9 280.0,72.7 281.7,72.4 283.3,72.3 285.0,72.2 286.7,72.0 288.3,71.9 290.0,71.6 291.7,71.4 293.3,71.1 295.0,70.9 296.7,70.6 298.3,70.5 300.0,70.4 301.7,70.2 303.3,69.9 305.0,69.5 306.7,69.3 308.3,69.1 310.0,68.7 311.7,68.6 313.3,68.4 315.0,68.3 316.7,68.1 318.3,67.9 320.0,67.7 321.7,67.5 323.3,67.3 325.0,67.2 326.7,67.0 328.3,66.9 330.0,66.8 331.7,66.6 333.3,66.2 335.0,66.1 336.7,65.9 338.3,65.8 340.0,65.6 341.7,65.4 343.3,65.3 345.0,65.2 346.7,65.0 348.3,64.7 350.0,64.3 351.7,64.1 353.3,63.9 355.0,63.8 356.7,63.7 358.3,63.5 360.0,63.2 361.7,63.1 363.3,62.9 365.0,62.7 366.7,62.6 368.3,62.3 370.0,62.2 371.7,62.1 373.3,61.8 375.0,61.6 376.7,61.4 378.3,61.1 380.0,61.0 381.7,61.0 383.3,60.9 385.0,60.7 386.7,60.5 388.3,60.3 390.0,60.2 391.7,60.0 393.3,59.8 395.0,59.7 396.7,59.5 398.3,59.4 400.0,59.1 401.7,58.9 403.3,58.7 405.0,58.5 406.7,58.4 408.3,58.3 410.0,58.2 411.7,58.1 413.3,57.9 415.0,57.8 416.7,57.5 418.3,57.4 420.0,57.2 421.7,57.1 423.3,56.9 425.0,56.7 426.7,56.5 428.3,56.4 430.0,56.3 431.7,56.1 433.3,55.9 435.0,55.7 436.7,55.6 438.3,55.5 440.0,55.4 441.7,55.2 443.3,55.1 445.0,54.9 446.7,54.8 448.3,54.8 450.0,54.6 451.7,54.3 453.3,54.0 455.0,59.0 456.7,58.0 458.3,56.1 460.0,55.4 461.7,54.5 463.3,53.5 465.0,52.9 466.7,52.5 468.3,51.8 470.0,50.7 471.7,49.9 473.3,49.7 475.0,49.3 476.7,48.9 478.3,48.4 480.0,47.8 481.7,47.2 483.3,47.0 485.0,46.4 486.7,46.1 488.3,45.8 490.0,45.5 491.7,45.2 493.3,45.0 495.0,44.4 496.7,44.1 498.3,43.6 500.0,42.9 501.7,42.5 503.3,42.3 505.0,42.1 506.7,41.8 508.3,41.4 510.0,41.0 511.7,40.6 513.3,39.6 515.0,38.8 516.7,38.5 518.3,38.3 520.0,37.9 521.7,37.4 523.3,37.0 525.0,36.4 526.7,36.0 528.3,35.6 530.0,35.3 531.7,34.8 533.3,34.5 535.0,34.4 536.7,34.2 538.3,34.0 540.0,33.6 541.7,33.5 543.3,33.2 545.0,33.0 546.7,32.8 548.3,32.5 550.0,32.3 551.7,32.1 553.3,31.8 555.0,31.6 556.7,31.5 558.3,31.3 560.0,31.1 561.7,31.0 563.3,30.9 565.0,30.6 566.7,30.5 568.3,30.2 570.0,30.0 570.0,30.0,120" />
  
  <!-- Linea principale -->
  <polyline fill="none" stroke="#0366d6" stroke-width="2.5" stroke-linecap="round" stroke-linejoin="round" points="30.0,120.0 31.7,119.4 33.3,118.8 35.0,118.2 36.7,118.0 38.3,117.8 40.0,117.1 41.7,116.6 43.3,116.3 45.0,115.6 46.7,115.2 48.3,114.9 50.0,114.7 51.7,114.3 53.3,113.9 55.0,113.4 56.7,113.0 58.3,112.7 60.0,112.5 61.7,112.2 63.3,111.8 65.0,111.5 66.7,111.3 68.3,111.0 70.0,109.9 71.7,109.6 73.3,109.1 75.0,108.7 76.7,108.3 78.3,107.9 80.0,107.7 81.7,107.5 83.3,107.2 85.0,106.6 86.7,106.2 88.3,105.8 90.0,105.5 91.7,105.4 93.3,105.3 95.0,105.1 96.7,104.7 98.3,104.5 100.0,104.3 101.7,103.9 103.3,103.3 105.0,103.2 106.7,103.1 108.3,102.8 110.0,102.4 111.7,102.0 113.3,101.5 115.0,101.2 116.7,100.8 118.3,100.7 120.0,100.4 121.7,100.0 123.3,99.5 125.0,99.2 126.7,99.0 128.3,98.8 130.0,98.6 131.7,98.1 133.3,97.6 135.0,97.2 136.7,96.8 138.3,96.6 140.0,96.4 141.7,96.2 143.3,95.9 145.0,95.7 146.7,95.5 148.3,95.3 150.0,95.2 151.7,94.9 153.3,94.8 155.0,94.7 156.7,94.5 158.3,94.1 160.0,93.8 161.7,93.7 163.3,93.6 165.0,93.5 166.7,93.5 168.3,101.1 170.0,100.3 171.7,99.7 173.3,99.0 175.0,96.9 176.7,95.4 178.3,93.9 180.0,93.3 181.7,92.7 183.3,91.6 185.0,90.5 186.7,89.6 188.3,89.3 190.0,89.0 191.7,88.2 193.3,87.5 195.0,87.2 196.7,86.7 198.3,86.5 200.0,86.4 201.7,85.9 203.3,85.2 205.0,84.7 206.7,84.2 208.3,83.7 210.0,83.4 211.7,83.2 213.3,82.7 215.0,82.3 216.7,81.8 218.3,81.5 220.0,81.3 221.7,81.2 223.3,81.0 225.0,80.6 226.7,80.3 228.3,80.1 230.0,79.8 231.7,79.6 233.3,79.4 235.0,79.2 236.7,79.0 238.3,78.8 240.0,78.5 241.7,78.2 243.3,77.8 245.0,77.6 246.7,77.4 248.3,77.3 250.0,77.1 251.7,76.9 253.3,76.3 255.0,76.0 256.7,75.5 258.3,75.3 260.0,75.3 261.7,75.1 263.3,74.8 265.0,74.6 266.7,74.3 268.3,74.0 270.0,73.7 271.7,73.6 273.3,73.5 275.0,73.3 276.7,73.2 278.3,72.9 280.0,72.7 281.7,72.4 283.3,72.3 285.0,72.2 286.7,72.0 288.3,71.9 290.0,71.6 291.7,71.4 293.3,71.1 295.0,70.9 296.7,70.6 298.3,70.5 300.0,70.4 301.7,70.2 303.3,69.9 305.0,69.5 306.7,69.3 308.3,69.1 310.0,68.7 311.7,68.6 313.3,68.4 315.0,68.3 316.7,68.1 318.3,67.9 320.0,67.7 321.7,67.5 323.3,67.3 325.0,67.2 326.7,67.0 328.3,66.9 330.0,66.8 331.7,66.6 333.3,66.2 335.0,66.1 336.7,65.9 338.3,65.8 340.0,65.6 341.7,65.4 343.3,65.3 345.0,65.2 346.7,65.0 348.3,64.7 350.0,64.3 351.7,64.1 353.3,63.9 355.0,63.8 356.7,63.7 358.3,63.5 360.0,63.2 361.7,63.1 363.3,62.9 365.0,62.7 366.7,62.6 368.3,62.3 370.0,62.2 371.7,62.1 373.3,61.8 375.0,61.6 376.7,61.4 378.3,61.1 380.0,61.0 381.7,61.0 383.3,60.9 385.0,60.7 386.7,60.5 388.3,60.3 390.0,60.2 391.7,60.0 393.3,59.8 395.0,59.7 396.7,59.5 398.3,59.4 400.0,59.1 401.7,58.9 403.3,58.7 405.0,58.5 406.7,58.4 408.3,58.3 410.0,58.2 411.7,58.1 413.3,57.9 415.0,57.8 416.7,57.5 418.3,57.4 420.0,57.2 421.7,57.1 423.3,56.9 425.0,56.7 426.7,56.5 428.3,56.4 430.0,56.3 431.7,56.1 433.3,55.9 435.0,55.7 436.7,55.6 438.3,55.5 440.0,55.4 441.7,55.2 443.3,55.1 445.0,54.9 446.7,54.8 448.3,54.8 450.0,54.6 451.7,54.3 453.3,54.0 455.0,59.0 456.7,58.0 458.3,56.1 460.0,55.4 461.7,54.5 463.3,53.5 465.0,52.9 466.7,52.5 468.3,51.8 470.0,50.7 471.7,49.9 473.3,49.7 475.0,49.3 476.7,48.9 478.3,48.4 480.0,47.8 481.7,47.2 483.3,47.0 485.0,46.4 486.7,46.1 488.3,45.8 490.0,45.5 491.7,45.2 493.3,45.0 495.0,44.4 496.7,44.1 498.3,43.6 500.0,42.9 501.7,42.5 503.3,42.3 505.0,42.1 506.7,41.8 508.3,41.4 510.0,41.0 511.7,40.6 513.3,39.6 515.0,38.8 516.7,38.5 518.3,38.3 520.0,37.9 521.7,37.4 523.3,37.0 525.0,36.4 526.7,36.0 528.3,35.6 530.0,35.3 531.7,34.8 533.3,34.5 535.0,34.4 536.7,34.2 538.3,34.0 540.0,33.6 541.7,33.5 543.3,33.2 545.0,33.0 546.7,32.8 548.3,32.5 550.0,32.3 551.7,32.1 553.3,31.8 555.0,31.6 556.7,31.5 558.3,31.3 560.0,31.1 561.7,31.0 563.3,30.9 565.0,30.6 566.7,30.5 568.3,30.2 570.0,30.0" />
  
  <!-- Punto finale luminoso -->
  <circle cx="570.0" cy="30.0" r="4" fill="#ffffff" stroke="#0366d6" stroke-width="2.5" />
</svg>