<svg width="600" height="150" viewBox="0 0 600 150" xmlns="http://www.w3.org/2000/svg">
  <defs>
    <filter id="shadow2" x="-2%" y="-2%" width="104%" height="108%">
      <feDropShadow dx="0" dy="2" stdDeviation="3" flood-opacity="0.1" />
    </filter>
    <linearGradient id="fillGrad" x1="0" y1="0" x2="0" y2="1">
      <stop offset="0%" stop-color="#0366d6" stop-opacity="0.3"/>
      <stop offset="100%" stop-color="#0366d6" stop-opacity="0.02"/>
    </linearGradient>
  </defs>
  <rect width="600" height="150" rx="12" fill="#ffffff" filter="url(#shadow2)" stroke="#e1e4e8" stroke-width="1"/>
  <text x="20" y="24" fill="#2b3137" font-family="-apple-system,BlinkMacSystemFont,'Segoe UI',Helvetica,Arial,sans-serif" font-size="14" font-weight="600">📈 Download Growth (Actual: 83.7k)</text>
  
  <!-- Area sotto la linea -->
  <polygon fill="url(#fillGrad)" points="30.0,120.0,120 30.0,120.0 31.7,119.4 33.4,118.7 35.1,118.2 36.8,118.0 38.4,117.7 40.1,117.0 41.8,116.6 43.5,116.3 45.2,115.5 46.9,115.2 48.6,114.8 50.2,114.6 51.9,114.3 53.6,113.8 55.3,113.3 57.0,112.9 58.7,112.6 60.4,112.4 62.1,112.1 63.8,111.7 65.4,111.4 67.1,111.2 68.8,110.9 70.5,109.8 72.2,109.5 73.9,109.0 75.6,108.6 77.2,108.2 78.9,107.8 80.6,107.6 82.3,107.4 84.0,107.0 85.7,106.5 87.4,106.0 89.1,105.7 90.8,105.3 92.4,105.2 94.1,105.1 95.8,104.9 97.5,104.6 99.2,104.3 100.9,104.2 102.6,103.8 104.2,103.2 105.9,103.0 107.6,102.9 109.3,102.7 111.0,102.2 112.7,101.9 114.4,101.4 116.1,101.0 117.8,100.6 119.4,100.5 121.1,100.2 122.8,99.8 124.5,99.3 126.2,99.0 127.9,98.8 129.6,98.6 131.2,98.4 132.9,97.9 134.6,97.4 136.3,97.0 138.0,96.5 139.7,96.3 141.4,96.2 143.1,96.0 144.8,95.7 146.4,95.4 148.1,95.2 149.8,95.1 151.5,94.9 153.2,94.7 154.9,94.5 156.6,94.4 158.2,94.3 159.9,93.8 161.6,93.6 163.3,93.5 165.0,93.3 166.7,93.2 168.4,93.2 170.1,100.9 171.8,100.1 173.4,99.5 175.1,98.8 176.8,96.7 178.5,95.2 180.2,93.6 181.9,93.1 183.6,92.4 185.2,91.3 186.9,90.2 188.6,89.3 190.3,89.0 192.0,88.7 193.7,87.8 195.4,87.2 197.1,86.8 198.8,86.4 200.4,86.1 202.1,86.1 203.8,85.6 205.5,84.9 207.2,84.4 208.9,83.9 210.6,83.3 212.2,83.0 213.9,82.8 215.6,82.3 217.3,81.9 219.0,81.5 220.7,81.1 222.4,81.0 224.1,80.9 225.8,80.6 227.4,80.2 229.1,80.0 230.8,79.7 232.5,79.5 234.2,79.2 235.9,79.0 237.6,78.8 239.2,78.6 240.9,78.4 242.6,78.1 244.3,77.8 246.0,77.4 247.7,77.2 249.4,77.0 251.1,76.8 252.8,76.7 254.4,76.5 256.1,75.9 257.8,75.6 259.5,75.1 261.2,74.9 262.9,74.9 264.6,74.6 266.2,74.4 267.9,74.1 269.6,73.9 271.3,73.5 273.0,73.3 274.7,73.2 276.4,73.0 278.1,72.9 279.8,72.7 281.4,72.5 283.1,72.3 284.8,72.0 286.5,71.8 288.2,71.7 289.9,71.5 291.6,71.4 293.2,71.1 294.9,70.9 296.6,70.6 298.3,70.4 300.0,70.2 301.7,70.0 303.4,69.9 305.1,69.7 306.8,69.4 308.4,69.1 310.1,68.8 311.8,68.6 313.5,68.2 315.2,68.1 316.9,67.9 318.6,67.8 320.2,67.6 321.9,67.4 323.6,67.2 325.3,67.0 327.0,66.8 328.7,66.7 330.4,66.5 332.1,66.3 333.8,66.3 335.4,66.0 337.1,65.7 338.8,65.6 340.5,65.4 342.2,65.2 343.9,65.1 345.6,64.9 347.2,64.8 348.9,64.6 350.6,64.4 352.3,64.1 354.0,63.8 355.7,63.5 357.4,63.3 359.1,63.3 360.8,63.2 362.4,63.0 364.1,62.7 365.8,62.5 367.5,62.4 369.2,62.2 370.9,62.0 372.6,61.8 374.2,61.7 375.9,61.5 377.6,61.3 379.3,61.1 381.0,60.8 382.7,60.6 384.4,60.5 386.1,60.4 387.8,60.3 389.4,60.1 391.1,60.0 392.8,59.8 394.5,59.6 396.2,59.4 397.9,59.2 399.6,59.1 401.2,59.0 402.9,58.8 404.6,58.6 406.3,58.3 408.0,58.1 409.7,57.9 411.4,57.8 413.1,57.7 414.8,57.6 416.4,57.5 418.1,57.3 419.8,57.2 421.5,56.9 423.2,56.7 424.9,56.6 426.6,56.5 428.2,56.3 429.9,56.1 431.6,55.9 433.3,55.8 435.0,55.7 436.7,55.5 438.4,55.3 440.1,55.1 441.8,54.9 443.4,54.9 445.1,54.8 446.8,54.6 448.5,54.5 450.2,54.3 451.9,54.2 453.6,54.1 455.2,54.0 456.9,53.6 458.6,53.4 460.3,58.4 462.0,57.4 463.7,55.5 465.4,54.8 467.1,53.9 468.8,52.8 470.4,52.2 472.1,51.8 473.8,51.1 475.5,50.0 477.2,49.2 478.9,49.0 480.6,48.6 482.2,48.2 483.9,47.7 485.6,47.2 487.3,46.5 489.0,46.3 490.7,45.7 492.4,45.4 494.1,45.0 495.8,44.8 497.4,44.5 499.1,44.2 500.8,43.7 502.5,43.3 504.2,42.8 505.9,42.1 507.6,41.7 509.2,41.5 510.9,41.3 512.6,41.0 514.3,40.6 516.0,40.2 517.7,39.9 519.4,38.8 521.1,38.1 522.8,37.7 524.4,37.5 526.1,37.1 527.8,36.6 529.5,36.2 531.2,35.5 532.9,35.2 534.6,34.8 536.2,34.5 537.9,34.0 539.6,33.7 541.3,33.5 543.0,33.3 544.7,33.1 546.4,32.8 548.1,32.6 549.8,32.4 551.4,32.1 553.1,31.9 554.8,31.6 556.5,31.4 558.2,31.2 559.9,31.0 561.6,30.8 563.2,30.6 564.9,30.5 566.6,30.3 568.3,30.1 570.0,30.0 570.0,30.0,120" />
  
  <!-- Linea principale -->
  <polyline fill="none" stroke="#0366d6" stroke-width="2.5" stroke-linecap="round" stroke-linejoin="round" points="30.0,120.0 31.7,119.4 33.4,118.7 35.1,118.2 36.8,118.0 38.4,117.7 40.1,117.0 41.8,116.6 43.5,116.3 45.2,115.5 46.9,115.2 48.6,114.8 50.2,114.6 51.9,114.3 53.6,113.8 55.3,113.3 57.0,112.9 58.7,112.6 60.4,112.4 62.1,112.1 63.8,111.7 65.4,111.4 67.1,111.2 68.8,110.9 70.5,109.8 72.2,109.5 73.9,109.0 75.6,108.6 77.2,108.2 78.9,107.8 80.6,107.6 82.3,107.4 84.0,107.0 85.7,106.5 87.4,106.0 89.1,105.7 90.8,105.3 92.4,105.2 94.1,105.1 95.8,104.9 97.5,104.6 99.2,104.3 100.9,104.2 102.6,103.8 104.2,103.2 105.9,103.0 107.6,102.9 109.3,102.7 111.0,102.2 112.7,101.9 114.4,101.4 116.1,101.0 117.8,100.6 119.4,100.5 121.1,100.2 122.8,99.8 124.5,99.3 126.2,99.0 127.9,98.8 129.6,98.6 131.2,98.4 132.9,97.9 134.6,97.4 136.3,97.0 138.0,96.5 139.7,96.3 141.4,96.2 143.1,96.0 144.8,95.7 146.4,95.4 148.1,95.2 149.8,95.1 151.5,94.9 153.2,94.7 154.9,94.5 156.6,94.4 158.2,94.3 159.9,93.8 161.6,93.6 163.3,93.5 165.0,93.3 166.7,93.2 168.4,93.2 170.1,100.9 171.8,100.1 173.4,99.5 175.1,98.8 176.8,96.7 178.5,95.2 180.2,93.6 181.9,93.1 183.6,92.4 185.2,91.3 186.9,90.2 188.6,89.3 190.3,89.0 192.0,88.7 193.7,87.8 195.4,87.2 197.1,86.8 198.8,86.4 200.4,86.1 202.1,86.1 203.8,85.6 205.5,84.9 207.2,84.4 208.9,83.9 210.6,83.3 212.2,83.0 213.9,82.8 215.6,82.3 217.3,81.9 219.0,81.5 220.7,81.1 222.4,81.0 224.1,80.9 225.8,80.6 227.4,80.2 229.1,80.0 230.8,79.7 232.5,79.5 234.2,79.2 235.9,79.0 237.6,78.8 239.2,78.6 240.9,78.4 242.6,78.1 244.3,77.8 246.0,77.4 247.7,77.2 249.4,77.0 251.1,76.8 252.8,76.7 254.4,76.5 256.1,75.9 257.8,75.6 259.5,75.1 261.2,74.9 262.9,74.9 264.6,74.6 266.2,74.4 267.9,74.1 269.6,73.9 271.3,73.5 273.0,73.3 274.7,73.2 276.4,73.0 278.1,72.9 279.8,72.7 281.4,72.5 283.1,72.3 284.8,72.0 286.5,71.8 288.2,71.7 289.9,71.5 291.6,71.4 293.2,71.1 294.9,70.9 296.6,70.6 298.3,70.4 300.0,70.2 301.7,70.0 303.4,69.9 305.1,69.7 306.8,69.4 308.4,69.1 310.1,68.8 311.8,68.6 313.5,68.2 315.2,68.1 316.9,67.9 318.6,67.8 320.2,67.6 321.9,67.4 323.6,67.2 325.3,67.0 327.0,66.8 328.7,66.7 330.4,66.5 332.1,66.3 333.8,66.3 335.4,66.0 337.1,65.7 338.8,65.6 340.5,65.4 342.2,65.2 343.9,65.1 345.6,64.9 347.2,64.8 348.9,64.6 350.6,64.4 352.3,64.1 354.0,63.8 355.7,63.5 357.4,63.3 359.1,63.3 360.8,63.2 362.4,63.0 364.1,62.7 365.8,62.5 367.5,62.4 369.2,62.2 370.9,62.0 372.6,61.8 374.2,61.7 375.9,61.5 377.6,61.3 379.3,61.1 381.0,60.8 382.7,60.6 384.4,60.5 386.1,60.4 387.8,60.3 389.4,60.1 391.1,60.0 392.8,59.8 394.5,59.6 396.2,59.4 397.9,59.2 399.6,59.1 401.2,59.0 402.9,58.8 404.6,58.6 406.3,58.3 408.0,58.1 409.7,57.9 411.4,57.8 413.1,57.7 414.8,57.6 416.4,57.5 418.1,57.3 419.8,57.2 421.5,56.9 423.2,56.7 424.9,56.6 426.6,56.5 428.2,56.3 429.9,56.1 431.6,55.9 433.3,55.8 435.0,55.7 436.7,55.5 438.4,55.3 440.1,55.1 441.8,54.9 443.4,54.9 445.1,54.8 446.8,54.6 448.5,54.5 450.2,54.3 451.9,54.2 453.6,54.1 455.2,54.0 456.9,53.6 458.6,53.4 460.3,58.4 462.0,57.4 463.7,55.5 465.4,54.8 467.1,53.9 468.8,52.8 470.4,52.2 472.1,51.8 473.8,51.1 475.5,50.0 477.2,49.2 478.9,49.0 480.6,48.6 482.2,48.2 483.9,47.7 485.6,47.2 487.3,46.5 489.0,46.3 490.7,45.7 492.4,45.4 494.1,45.0 495.8,44.8 497.4,44.5 499.1,44.2 500.8,43.7 502.5,43.3 504.2,42.8 505.9,42.1 507.6,41.7 509.2,41.5 510.9,41.3 512.6,41.0 514.3,40.6 516.0,40.2 517.7,39.9 519.4,38.8 521.1,38.1 522.8,37.7 524.4,37.5 526.1,37.1 527.8,36.6 529.5,36.2 531.2,35.5 532.9,35.2 534.6,34.8 536.2,34.5 537.9,34.0 539.6,33.7 541.3,33.5 543.0,33.3 544.7,33.1 546.4,32.8 548.1,32.6 549.8,32.4 551.4,32.1 553.1,31.9 554.8,31.6 556.5,31.4 558.2,31.2 559.9,31.0 561.6,30.8 563.2,30.6 564.9,30.5 566.6,30.3 568.3,30.1 570.0,30.0" />
  
  <!-- Punto finale luminoso -->
  <circle cx="570.0" cy="30.0" r="4" fill="#ffffff" stroke="#0366d6" stroke-width="2.5" />
</svg>