<svg width="600" height="150" viewBox="0 0 600 150" xmlns="http://www.w3.org/2000/svg">
  <defs>
    <filter id="shadow2" x="-2%" y="-2%" width="104%" height="108%">
      <feDropShadow dx="0" dy="2" stdDeviation="3" flood-opacity="0.1" />
    </filter>
    <linearGradient id="fillGrad" x1="0" y1="0" x2="0" y2="1">
      <stop offset="0%" stop-color="#0366d6" stop-opacity="0.3"/>
      <stop offset="100%" stop-color="#0366d6" stop-opacity="0.02"/>
    </linearGradient>
  </defs>
  <rect width="600" height="150" rx="12" fill="#ffffff" filter="url(#shadow2)" stroke="#e1e4e8" stroke-width="1"/>
  <text x="20" y="24" fill="#2b3137" font-family="-apple-system,BlinkMacSystemFont,'Segoe UI',Helvetica,Arial,sans-serif" font-size="14" font-weight="600">📈 Download Growth (Actual: 86.4k)</text>
  
  <!-- Area sotto la linea -->
  <polygon fill="url(#fillGrad)" points="30.0,120.0,120 30.0,120.0 31.4,119.5 32.7,118.9 34.1,118.4 35.5,118.3 36.9,118.0 38.2,117.4 39.6,117.0 41.0,116.8 42.3,116.2 43.7,115.9 45.1,115.5 46.4,115.4 47.8,115.1 49.2,114.7 50.6,114.2 51.9,113.9 53.3,113.7 54.7,113.5 56.0,113.2 57.4,112.9 58.8,112.6 60.2,112.5 61.5,112.2 62.9,111.2 64.3,110.9 65.6,110.6 67.0,110.2 68.4,109.8 69.7,109.5 71.1,109.3 72.5,109.1 73.9,108.9 75.2,108.4 76.6,108.0 78.0,107.7 79.3,107.4 80.7,107.3 82.1,107.2 83.5,107.0 84.8,106.7 86.2,106.5 87.6,106.4 88.9,106.1 90.3,105.5 91.7,105.4 93.0,105.3 94.4,105.1 95.8,104.7 97.2,104.4 98.5,104.0 99.9,103.7 101.3,103.3 102.6,103.2 104.0,103.0 105.4,102.6 106.8,102.2 108.1,101.9 109.5,101.8 110.9,101.6 112.2,101.4 113.6,101.0 115.0,100.6 116.3,100.2 117.7,99.8 119.1,99.7 120.5,99.5 121.8,99.4 123.2,99.1 124.6,98.9 125.9,98.7 127.3,98.6 128.7,98.4 130.1,98.2 131.4,98.1 132.8,98.0 134.2,97.9 135.5,97.5 136.9,97.3 138.3,97.2 139.6,97.1 141.0,97.0 142.4,97.0 143.8,103.6 145.1,102.9 146.5,102.3 147.9,101.7 149.2,99.9 150.6,98.7 152.0,97.3 153.4,96.9 154.7,96.3 156.1,95.4 157.5,94.4 158.8,93.6 160.2,93.3 161.6,93.1 162.9,92.4 164.3,91.8 165.7,91.5 167.1,91.1 168.4,90.9 169.8,90.8 171.2,90.4 172.5,89.8 173.9,89.4 175.3,89.0 176.6,88.5 178.0,88.2 179.4,88.0 180.8,87.6 182.1,87.2 183.5,86.9 184.9,86.6 186.2,86.5 187.6,86.4 189.0,86.1 190.4,85.8 191.7,85.6 193.1,85.3 194.5,85.1 195.8,85.0 197.2,84.8 198.6,84.6 199.9,84.5 201.3,84.3 202.7,83.9 204.1,83.7 205.4,83.4 206.8,83.2 208.2,83.0 209.5,82.9 210.9,82.7 212.3,82.6 213.7,82.1 215.0,81.8 216.4,81.4 217.8,81.2 219.1,81.2 220.5,81.0 221.9,80.8 223.2,80.6 224.6,80.3 226.0,80.0 227.4,79.8 228.7,79.8 230.1,79.6 231.5,79.5 232.8,79.3 234.2,79.1 235.6,79.0 237.0,78.7 238.3,78.6 239.7,78.5 241.1,78.3 242.4,78.3 243.8,78.0 245.2,77.8 246.5,77.6 247.9,77.4 249.3,77.2 250.7,77.0 252.0,76.9 253.4,76.8 254.8,76.5 256.1,76.2 257.5,76.0 258.9,75.8 260.3,75.4 261.6,75.4 263.0,75.2 264.4,75.1 265.7,75.0 267.1,74.8 268.5,74.6 269.8,74.5 271.2,74.3 272.6,74.2 274.0,74.0 275.3,73.9 276.7,73.8 278.1,73.6 279.4,73.4 280.8,73.2 282.2,73.0 283.6,72.9 284.9,72.8 286.3,72.6 287.7,72.5 289.0,72.4 290.4,72.2 291.8,72.0 293.1,71.7 294.5,71.5 295.9,71.3 297.3,71.2 298.6,71.2 300.0,71.0 301.4,70.7 302.7,70.6 304.1,70.5 305.5,70.3 306.9,70.1 308.2,70.0 309.6,69.9 311.0,69.7 312.3,69.5 313.7,69.3 315.1,69.1 316.4,68.9 317.8,68.8 319.2,68.8 320.6,68.7 321.9,68.5 323.3,68.4 324.7,68.2 326.0,68.1 327.4,67.9 328.8,67.8 330.2,67.7 331.5,67.5 332.9,67.4 334.3,67.2 335.6,67.0 337.0,66.8 338.4,66.6 339.7,66.5 341.1,66.4 342.5,66.3 343.9,66.2 345.2,66.1 346.6,66.0 348.0,65.8 349.3,65.6 350.7,65.5 352.1,65.4 353.5,65.2 354.8,65.1 356.2,64.9 357.6,64.8 358.9,64.7 360.3,64.6 361.7,64.4 363.0,64.2 364.4,64.1 365.8,64.0 367.2,63.9 368.5,63.8 369.9,63.7 371.3,63.5 372.6,63.4 374.0,63.4 375.4,63.3 376.8,62.9 378.1,62.7 379.5,67.0 380.9,66.2 382.2,64.6 383.6,63.9 385.0,63.2 386.3,62.3 387.7,61.8 389.1,61.4 390.5,60.8 391.8,59.9 393.2,59.2 394.6,59.0 395.9,58.6 397.3,58.3 398.7,57.8 400.1,57.4 401.4,56.9 402.8,56.6 404.2,56.1 405.5,55.9 406.9,55.6 408.3,55.4 409.6,55.1 411.0,54.9 412.4,54.4 413.8,54.1 415.1,53.7 416.5,53.1 417.9,52.7 419.2,52.5 420.6,52.4 422.0,52.1 423.4,51.7 424.7,51.4 426.1,51.1 427.5,50.2 428.8,49.6 430.2,49.2 431.6,49.1 432.9,48.8 434.3,48.3 435.7,47.9 437.1,47.4 438.4,47.1 439.8,46.8 441.2,46.5 442.5,46.1 443.9,45.8 445.3,45.7 446.6,45.5 448.0,45.3 449.4,45.1 450.8,44.9 452.1,44.7 453.5,44.5 454.9,44.3 456.2,44.0 457.6,43.9 459.0,43.7 460.4,43.5 461.7,43.3 463.1,43.2 464.5,43.0 465.8,42.9 467.2,42.7 468.6,42.6 469.9,42.4 471.3,42.3 472.7,42.1 474.1,41.9 475.4,41.7 476.8,41.6 478.2,41.4 479.5,41.3 480.9,41.1 482.3,41.0 483.7,40.9 485.0,40.7 486.4,40.6 487.8,40.5 489.1,40.3 490.5,40.1 491.9,39.9 493.2,39.7 494.6,39.5 496.0,39.3 497.4,39.1 498.7,38.9 500.1,38.7 501.5,38.5 502.8,38.3 504.2,38.0 505.6,37.8 507.0,37.5 508.3,37.3 509.7,37.1 511.1,37.0 512.4,36.8 513.8,36.7 515.2,36.6 516.5,36.4 517.9,36.2 519.3,36.1 520.7,35.9 522.0,35.7 523.4,35.5 524.8,35.2 526.1,35.0 527.5,34.7 528.9,34.6 530.3,34.4 531.6,34.3 533.0,34.2 534.4,34.0 535.7,33.9 537.1,33.6 538.5,33.5 539.8,33.2 541.2,33.1 542.6,32.9 544.0,32.8 545.3,32.6 546.7,32.6 548.1,32.5 549.4,32.4 550.8,32.2 552.2,32.1 553.6,31.9 554.9,31.7 556.3,31.6 557.7,31.4 559.0,31.3 560.4,31.1 561.8,31.0 563.1,30.9 564.5,30.7 565.9,30.6 567.3,30.4 568.6,30.3 570.0,30.0 570.0,30.0,120" />
  
  <!-- Linea principale -->
  <polyline fill="none" stroke="#0366d6" stroke-width="2.5" stroke-linecap="round" stroke-linejoin="round" points="30.0,120.0 31.4,119.5 32.7,118.9 34.1,118.4 35.5,118.3 36.9,118.0 38.2,117.4 39.6,117.0 41.0,116.8 42.3,116.2 43.7,115.9 45.1,115.5 46.4,115.4 47.8,115.1 49.2,114.7 50.6,114.2 51.9,113.9 53.3,113.7 54.7,113.5 56.0,113.2 57.4,112.9 58.8,112.6 60.2,112.5 61.5,112.2 62.9,111.2 64.3,110.9 65.6,110.6 67.0,110.2 68.4,109.8 69.7,109.5 71.1,109.3 72.5,109.1 73.9,108.9 75.2,108.4 76.6,108.0 78.0,107.7 79.3,107.4 80.7,107.3 82.1,107.2 83.5,107.0 84.8,106.7 86.2,106.5 87.6,106.4 88.9,106.1 90.3,105.5 91.7,105.4 93.0,105.3 94.4,105.1 95.8,104.7 97.2,104.4 98.5,104.0 99.9,103.7 101.3,103.3 102.6,103.2 104.0,103.0 105.4,102.6 106.8,102.2 108.1,101.9 109.5,101.8 110.9,101.6 112.2,101.4 113.6,101.0 115.0,100.6 116.3,100.2 117.7,99.8 119.1,99.7 120.5,99.5 121.8,99.4 123.2,99.1 124.6,98.9 125.9,98.7 127.3,98.6 128.7,98.4 130.1,98.2 131.4,98.1 132.8,98.0 134.2,97.9 135.5,97.5 136.9,97.3 138.3,97.2 139.6,97.1 141.0,97.0 142.4,97.0 143.8,103.6 145.1,102.9 146.5,102.3 147.9,101.7 149.2,99.9 150.6,98.7 152.0,97.3 153.4,96.9 154.7,96.3 156.1,95.4 157.5,94.4 158.8,93.6 160.2,93.3 161.6,93.1 162.9,92.4 164.3,91.8 165.7,91.5 167.1,91.1 168.4,90.9 169.8,90.8 171.2,90.4 172.5,89.8 173.9,89.4 175.3,89.0 176.6,88.5 178.0,88.2 179.4,88.0 180.8,87.6 182.1,87.2 183.5,86.9 184.9,86.6 186.2,86.5 187.6,86.4 189.0,86.1 190.4,85.8 191.7,85.6 193.1,85.3 194.5,85.1 195.8,85.0 197.2,84.8 198.6,84.6 199.9,84.5 201.3,84.3 202.7,83.9 204.1,83.7 205.4,83.4 206.8,83.2 208.2,83.0 209.5,82.9 210.9,82.7 212.3,82.6 213.7,82.1 215.0,81.8 216.4,81.4 217.8,81.2 219.1,81.2 220.5,81.0 221.9,80.8 223.2,80.6 224.6,80.3 226.0,80.0 227.4,79.8 228.7,79.8 230.1,79.6 231.5,79.5 232.8,79.3 234.2,79.1 235.6,79.0 237.0,78.7 238.3,78.6 239.7,78.5 241.1,78.3 242.4,78.3 243.8,78.0 245.2,77.8 246.5,77.6 247.9,77.4 249.3,77.2 250.7,77.0 252.0,76.9 253.4,76.8 254.8,76.5 256.1,76.2 257.5,76.0 258.9,75.8 260.3,75.4 261.6,75.4 263.0,75.2 264.4,75.1 265.7,75.0 267.1,74.8 268.5,74.6 269.8,74.5 271.2,74.3 272.6,74.2 274.0,74.0 275.3,73.9 276.7,73.8 278.1,73.6 279.4,73.4 280.8,73.2 282.2,73.0 283.6,72.9 284.9,72.8 286.3,72.6 287.7,72.5 289.0,72.4 290.4,72.2 291.8,72.0 293.1,71.7 294.5,71.5 295.9,71.3 297.3,71.2 298.6,71.2 300.0,71.0 301.4,70.7 302.7,70.6 304.1,70.5 305.5,70.3 306.9,70.1 308.2,70.0 309.6,69.9 311.0,69.7 312.3,69.5 313.7,69.3 315.1,69.1 316.4,68.9 317.8,68.8 319.2,68.8 320.6,68.7 321.9,68.5 323.3,68.4 324.7,68.2 326.0,68.1 327.4,67.9 328.8,67.8 330.2,67.7 331.5,67.5 332.9,67.4 334.3,67.2 335.6,67.0 337.0,66.8 338.4,66.6 339.7,66.5 341.1,66.4 342.5,66.3 343.9,66.2 345.2,66.1 346.6,66.0 348.0,65.8 349.3,65.6 350.7,65.5 352.1,65.4 353.5,65.2 354.8,65.1 356.2,64.9 357.6,64.8 358.9,64.7 360.3,64.6 361.7,64.4 363.0,64.2 364.4,64.1 365.8,64.0 367.2,63.9 368.5,63.8 369.9,63.7 371.3,63.5 372.6,63.4 374.0,63.4 375.4,63.3 376.8,62.9 378.1,62.7 379.5,67.0 380.9,66.2 382.2,64.6 383.6,63.9 385.0,63.2 386.3,62.3 387.7,61.8 389.1,61.4 390.5,60.8 391.8,59.9 393.2,59.2 394.6,59.0 395.9,58.6 397.3,58.3 398.7,57.8 400.1,57.4 401.4,56.9 402.8,56.6 404.2,56.1 405.5,55.9 406.9,55.6 408.3,55.4 409.6,55.1 411.0,54.9 412.4,54.4 413.8,54.1 415.1,53.7 416.5,53.1 417.9,52.7 419.2,52.5 420.6,52.4 422.0,52.1 423.4,51.7 424.7,51.4 426.1,51.1 427.5,50.2 428.8,49.6 430.2,49.2 431.6,49.1 432.9,48.8 434.3,48.3 435.7,47.9 437.1,47.4 438.4,47.1 439.8,46.8 441.2,46.5 442.5,46.1 443.9,45.8 445.3,45.7 446.6,45.5 448.0,45.3 449.4,45.1 450.8,44.9 452.1,44.7 453.5,44.5 454.9,44.3 456.2,44.0 457.6,43.9 459.0,43.7 460.4,43.5 461.7,43.3 463.1,43.2 464.5,43.0 465.8,42.9 467.2,42.7 468.6,42.6 469.9,42.4 471.3,42.3 472.7,42.1 474.1,41.9 475.4,41.7 476.8,41.6 478.2,41.4 479.5,41.3 480.9,41.1 482.3,41.0 483.7,40.9 485.0,40.7 486.4,40.6 487.8,40.5 489.1,40.3 490.5,40.1 491.9,39.9 493.2,39.7 494.6,39.5 496.0,39.3 497.4,39.1 498.7,38.9 500.1,38.7 501.5,38.5 502.8,38.3 504.2,38.0 505.6,37.8 507.0,37.5 508.3,37.3 509.7,37.1 511.1,37.0 512.4,36.8 513.8,36.7 515.2,36.6 516.5,36.4 517.9,36.2 519.3,36.1 520.7,35.9 522.0,35.7 523.4,35.5 524.8,35.2 526.1,35.0 527.5,34.7 528.9,34.6 530.3,34.4 531.6,34.3 533.0,34.2 534.4,34.0 535.7,33.9 537.1,33.6 538.5,33.5 539.8,33.2 541.2,33.1 542.6,32.9 544.0,32.8 545.3,32.6 546.7,32.6 548.1,32.5 549.4,32.4 550.8,32.2 552.2,32.1 553.6,31.9 554.9,31.7 556.3,31.6 557.7,31.4 559.0,31.3 560.4,31.1 561.8,31.0 563.1,30.9 564.5,30.7 565.9,30.6 567.3,30.4 568.6,30.3 570.0,30.0" />
  
  <!-- Punto finale luminoso -->
  <circle cx="570.0" cy="30.0" r="4" fill="#ffffff" stroke="#0366d6" stroke-width="2.5" />
</svg>