<svg width="600" height="150" viewBox="0 0 600 150" xmlns="http://www.w3.org/2000/svg">
  <defs>
    <filter id="shadow2" x="-2%" y="-2%" width="104%" height="108%">
      <feDropShadow dx="0" dy="2" stdDeviation="3" flood-opacity="0.1" />
    </filter>
    <linearGradient id="fillGrad" x1="0" y1="0" x2="0" y2="1">
      <stop offset="0%" stop-color="#0366d6" stop-opacity="0.3"/>
      <stop offset="100%" stop-color="#0366d6" stop-opacity="0.02"/>
    </linearGradient>
  </defs>
  <rect width="600" height="150" rx="12" fill="#ffffff" filter="url(#shadow2)" stroke="#e1e4e8" stroke-width="1"/>
  <text x="20" y="24" fill="#2b3137" font-family="-apple-system,BlinkMacSystemFont,'Segoe UI',Helvetica,Arial,sans-serif" font-size="14" font-weight="600">📈 Download Growth (Actual: 88.0k)</text>
  
  <!-- Area sotto la linea -->
  <polygon fill="url(#fillGrad)" points="30.0,120.0,120 30.0,120.0 31.2,119.5 32.4,119.0 33.6,118.6 34.9,118.4 36.1,118.2 37.3,117.6 38.5,117.3 39.7,117.0 40.9,116.5 42.2,116.2 43.4,115.9 44.6,115.7 45.8,115.5 47.0,115.1 48.2,114.7 49.5,114.4 50.7,114.1 51.9,114.0 53.1,113.7 54.3,113.4 55.5,113.2 56.8,113.0 58.0,112.8 59.2,111.9 60.4,111.6 61.6,111.3 62.8,110.9 64.1,110.6 65.3,110.3 66.5,110.1 67.7,110.0 68.9,109.7 70.1,109.3 71.4,108.9 72.6,108.6 73.8,108.3 75.0,108.3 76.2,108.2 77.4,108.0 78.6,107.7 79.9,107.6 81.1,107.4 82.3,107.1 83.5,106.6 84.7,106.5 85.9,106.4 87.2,106.2 88.4,105.9 89.6,105.6 90.8,105.2 92.0,104.9 93.2,104.6 94.5,104.5 95.7,104.3 96.9,103.9 98.1,103.6 99.3,103.3 100.5,103.2 101.8,103.0 103.0,102.8 104.2,102.4 105.4,102.0 106.6,101.7 107.8,101.4 109.1,101.2 110.3,101.1 111.5,101.0 112.7,100.7 113.9,100.5 115.1,100.3 116.4,100.2 117.6,100.1 118.8,99.9 120.0,99.8 121.2,99.7 122.4,99.6 123.6,99.2 124.9,99.0 126.1,99.0 127.3,98.8 128.5,98.8 129.7,98.8 130.9,104.8 132.2,104.2 133.4,103.7 134.6,103.1 135.8,101.5 137.0,100.3 138.2,99.1 139.5,98.6 140.7,98.1 141.9,97.2 143.1,96.3 144.3,95.6 145.5,95.4 146.8,95.1 148.0,94.5 149.2,94.0 150.4,93.7 151.6,93.3 152.8,93.1 154.1,93.1 155.3,92.7 156.5,92.1 157.7,91.7 158.9,91.3 160.1,90.9 161.4,90.6 162.6,90.5 163.8,90.1 165.0,89.7 166.2,89.4 167.4,89.1 168.6,89.0 169.9,88.9 171.1,88.7 172.3,88.4 173.5,88.2 174.7,88.0 175.9,87.8 177.2,87.6 178.4,87.5 179.6,87.3 180.8,87.2 182.0,87.0 183.2,86.7 184.5,86.5 185.7,86.2 186.9,86.0 188.1,85.8 189.3,85.7 190.5,85.6 191.8,85.4 193.0,85.0 194.2,84.7 195.4,84.3 196.6,84.2 197.8,84.2 199.1,84.0 200.3,83.8 201.5,83.6 202.7,83.4 203.9,83.1 205.1,82.9 206.4,82.8 207.6,82.7 208.8,82.6 210.0,82.4 211.2,82.3 212.4,82.1 213.6,81.8 214.9,81.7 216.1,81.6 217.3,81.5 218.5,81.4 219.7,81.2 220.9,81.0 222.2,80.8 223.4,80.6 224.6,80.4 225.8,80.3 227.0,80.2 228.2,80.1 229.5,79.8 230.7,79.5 231.9,79.4 233.1,79.2 234.3,78.8 235.5,78.8 236.8,78.7 238.0,78.6 239.2,78.4 240.4,78.2 241.6,78.1 242.8,77.9 244.1,77.8 245.3,77.6 246.5,77.5 247.7,77.4 248.9,77.3 250.1,77.2 251.4,76.9 252.6,76.8 253.8,76.6 255.0,76.5 256.2,76.4 257.4,76.2 258.6,76.1 259.9,76.0 261.1,75.9 262.3,75.6 263.5,75.3 264.7,75.2 265.9,75.0 267.2,75.0 268.4,74.9 269.6,74.7 270.8,74.5 272.0,74.4 273.2,74.3 274.5,74.1 275.7,73.9 276.9,73.8 278.1,73.7 279.3,73.6 280.5,73.4 281.8,73.2 283.0,73.0 284.2,72.8 285.4,72.7 286.6,72.7 287.8,72.6 289.1,72.5 290.3,72.3 291.5,72.2 292.7,72.0 293.9,71.9 295.1,71.8 296.4,71.7 297.6,71.5 298.8,71.4 300.0,71.2 301.2,71.0 302.4,70.9 303.6,70.7 304.9,70.6 306.1,70.5 307.3,70.4 308.5,70.3 309.7,70.2 310.9,70.1 312.2,69.9 313.4,69.8 314.6,69.6 315.8,69.5 317.0,69.4 318.2,69.3 319.5,69.1 320.7,69.0 321.9,68.9 323.1,68.8 324.3,68.6 325.5,68.5 326.8,68.3 328.0,68.3 329.2,68.2 330.4,68.1 331.6,68.0 332.8,67.8 334.1,67.7 335.3,67.7 336.5,67.6 337.7,67.3 338.9,67.1 340.1,71.1 341.4,70.3 342.6,68.8 343.8,68.2 345.0,67.5 346.2,66.7 347.4,66.2 348.6,65.9 349.9,65.3 351.1,64.5 352.3,63.8 353.5,63.6 354.7,63.3 355.9,63.0 357.2,62.6 358.4,62.2 359.6,61.7 360.8,61.4 362.0,61.0 363.2,60.8 364.5,60.5 365.7,60.3 366.9,60.1 368.1,59.8 369.3,59.4 370.5,59.1 371.8,58.7 373.0,58.2 374.2,57.8 375.4,57.7 376.6,57.5 377.8,57.3 379.1,56.9 380.3,56.6 381.5,56.4 382.7,55.6 383.9,54.9 385.1,54.6 386.4,54.5 387.6,54.2 388.8,53.8 390.0,53.4 391.2,52.9 392.4,52.6 393.6,52.3 394.9,52.1 396.1,51.7 397.3,51.5 398.5,51.3 399.7,51.2 400.9,51.0 402.2,50.8 403.4,50.6 404.6,50.4 405.8,50.2 407.0,50.1 408.2,49.8 409.5,49.7 410.7,49.5 411.9,49.3 413.1,49.1 414.3,49.0 415.5,48.9 416.8,48.8 418.0,48.6 419.2,48.5 420.4,48.3 421.6,48.2 422.8,48.0 424.1,47.8 425.3,47.7 426.5,47.5 427.7,47.4 428.9,47.3 430.1,47.2 431.4,47.0 432.6,46.9 433.8,46.7 435.0,46.7 436.2,46.5 437.4,46.3 438.6,46.2 439.9,46.0 441.1,45.8 442.3,45.7 443.5,45.5 444.7,45.2 445.9,45.1 447.2,44.9 448.4,44.7 449.6,44.5 450.8,44.3 452.0,44.1 453.2,43.8 454.5,43.6 455.7,43.4 456.9,43.3 458.1,43.2 459.3,43.1 460.5,42.9 461.8,42.8 463.0,42.6 464.2,42.5 465.4,42.3 466.6,42.1 467.8,41.9 469.1,41.7 470.3,41.5 471.5,41.2 472.7,41.1 473.9,40.9 475.1,40.8 476.4,40.7 477.6,40.6 478.8,40.4 480.0,40.2 481.2,40.1 482.4,39.8 483.6,39.7 484.9,39.6 486.1,39.4 487.3,39.3 488.5,39.2 489.7,39.1 490.9,39.0 492.2,38.9 493.4,38.8 494.6,38.6 495.8,38.5 497.0,38.3 498.2,38.1 499.5,38.0 500.7,37.9 501.9,37.8 503.1,37.7 504.3,37.5 505.5,37.4 506.8,37.2 508.0,37.1 509.2,36.9 510.4,36.7 511.6,36.4 512.8,36.3 514.1,36.3 515.3,36.2 516.5,36.0 517.7,36.0 518.9,35.9 520.1,35.8 521.4,35.7 522.6,35.6 523.8,35.4 525.0,35.3 526.2,35.1 527.4,35.0 528.6,34.9 529.9,34.8 531.1,34.6 532.3,34.5 533.5,34.3 534.7,34.2 535.9,34.1 537.2,34.0 538.4,33.9 539.6,33.6 540.8,33.4 542.0,33.1 543.2,33.0 544.5,32.8 545.7,32.7 546.9,32.6 548.1,32.5 549.3,32.4 550.5,32.3 551.8,32.1 553.0,32.0 554.2,31.8 555.4,31.6 556.6,31.5 557.8,31.3 559.1,31.2 560.3,31.0 561.5,30.9 562.7,30.8 563.9,30.7 565.1,30.6 566.4,30.5 567.6,30.3 568.8,30.2 570.0,30.0 570.0,30.0,120" />
  
  <!-- Linea principale -->
  <polyline fill="none" stroke="#0366d6" stroke-width="2.5" stroke-linecap="round" stroke-linejoin="round" points="30.0,120.0 31.2,119.5 32.4,119.0 33.6,118.6 34.9,118.4 36.1,118.2 37.3,117.6 38.5,117.3 39.7,117.0 40.9,116.5 42.2,116.2 43.4,115.9 44.6,115.7 45.8,115.5 47.0,115.1 48.2,114.7 49.5,114.4 50.7,114.1 51.9,114.0 53.1,113.7 54.3,113.4 55.5,113.2 56.8,113.0 58.0,112.8 59.2,111.9 60.4,111.6 61.6,111.3 62.8,110.9 64.1,110.6 65.3,110.3 66.5,110.1 67.7,110.0 68.9,109.7 70.1,109.3 71.4,108.9 72.6,108.6 73.8,108.3 75.0,108.3 76.2,108.2 77.4,108.0 78.6,107.7 79.9,107.6 81.1,107.4 82.3,107.1 83.5,106.6 84.7,106.5 85.9,106.4 87.2,106.2 88.4,105.9 89.6,105.6 90.8,105.2 92.0,104.9 93.2,104.6 94.5,104.5 95.7,104.3 96.9,103.9 98.1,103.6 99.3,103.3 100.5,103.2 101.8,103.0 103.0,102.8 104.2,102.4 105.4,102.0 106.6,101.7 107.8,101.4 109.1,101.2 110.3,101.1 111.5,101.0 112.7,100.7 113.9,100.5 115.1,100.3 116.4,100.2 117.6,100.1 118.8,99.9 120.0,99.8 121.2,99.7 122.4,99.6 123.6,99.2 124.9,99.0 126.1,99.0 127.3,98.8 128.5,98.8 129.7,98.8 130.9,104.8 132.2,104.2 133.4,103.7 134.6,103.1 135.8,101.5 137.0,100.3 138.2,99.1 139.5,98.6 140.7,98.1 141.9,97.2 143.1,96.3 144.3,95.6 145.5,95.4 146.8,95.1 148.0,94.5 149.2,94.0 150.4,93.7 151.6,93.3 152.8,93.1 154.1,93.1 155.3,92.7 156.5,92.1 157.7,91.7 158.9,91.3 160.1,90.9 161.4,90.6 162.6,90.5 163.8,90.1 165.0,89.7 166.2,89.4 167.4,89.1 168.6,89.0 169.9,88.9 171.1,88.7 172.3,88.4 173.5,88.2 174.7,88.0 175.9,87.8 177.2,87.6 178.4,87.5 179.6,87.3 180.8,87.2 182.0,87.0 183.2,86.7 184.5,86.5 185.7,86.2 186.9,86.0 188.1,85.8 189.3,85.7 190.5,85.6 191.8,85.4 193.0,85.0 194.2,84.7 195.4,84.3 196.6,84.2 197.8,84.2 199.1,84.0 200.3,83.8 201.5,83.6 202.7,83.4 203.9,83.1 205.1,82.9 206.4,82.8 207.6,82.7 208.8,82.6 210.0,82.4 211.2,82.3 212.4,82.1 213.6,81.8 214.9,81.7 216.1,81.6 217.3,81.5 218.5,81.4 219.7,81.2 220.9,81.0 222.2,80.8 223.4,80.6 224.6,80.4 225.8,80.3 227.0,80.2 228.2,80.1 229.5,79.8 230.7,79.5 231.9,79.4 233.1,79.2 234.3,78.8 235.5,78.8 236.8,78.7 238.0,78.6 239.2,78.4 240.4,78.2 241.6,78.1 242.8,77.9 244.1,77.8 245.3,77.6 246.5,77.5 247.7,77.4 248.9,77.3 250.1,77.2 251.4,76.9 252.6,76.8 253.8,76.6 255.0,76.5 256.2,76.4 257.4,76.2 258.6,76.1 259.9,76.0 261.1,75.9 262.3,75.6 263.5,75.3 264.7,75.2 265.9,75.0 267.2,75.0 268.4,74.9 269.6,74.7 270.8,74.5 272.0,74.4 273.2,74.3 274.5,74.1 275.7,73.9 276.9,73.8 278.1,73.7 279.3,73.6 280.5,73.4 281.8,73.2 283.0,73.0 284.2,72.8 285.4,72.7 286.6,72.7 287.8,72.6 289.1,72.5 290.3,72.3 291.5,72.2 292.7,72.0 293.9,71.9 295.1,71.8 296.4,71.7 297.6,71.5 298.8,71.4 300.0,71.2 301.2,71.0 302.4,70.9 303.6,70.7 304.9,70.6 306.1,70.5 307.3,70.4 308.5,70.3 309.7,70.2 310.9,70.1 312.2,69.9 313.4,69.8 314.6,69.6 315.8,69.5 317.0,69.4 318.2,69.3 319.5,69.1 320.7,69.0 321.9,68.9 323.1,68.8 324.3,68.6 325.5,68.5 326.8,68.3 328.0,68.3 329.2,68.2 330.4,68.1 331.6,68.0 332.8,67.8 334.1,67.7 335.3,67.7 336.5,67.6 337.7,67.3 338.9,67.1 340.1,71.1 341.4,70.3 342.6,68.8 343.8,68.2 345.0,67.5 346.2,66.7 347.4,66.2 348.6,65.9 349.9,65.3 351.1,64.5 352.3,63.8 353.5,63.6 354.7,63.3 355.9,63.0 357.2,62.6 358.4,62.2 359.6,61.7 360.8,61.4 362.0,61.0 363.2,60.8 364.5,60.5 365.7,60.3 366.9,60.1 368.1,59.8 369.3,59.4 370.5,59.1 371.8,58.7 373.0,58.2 374.2,57.8 375.4,57.7 376.6,57.5 377.8,57.3 379.1,56.9 380.3,56.6 381.5,56.4 382.7,55.6 383.9,54.9 385.1,54.6 386.4,54.5 387.6,54.2 388.8,53.8 390.0,53.4 391.2,52.9 392.4,52.6 393.6,52.3 394.9,52.1 396.1,51.7 397.3,51.5 398.5,51.3 399.7,51.2 400.9,51.0 402.2,50.8 403.4,50.6 404.6,50.4 405.8,50.2 407.0,50.1 408.2,49.8 409.5,49.7 410.7,49.5 411.9,49.3 413.1,49.1 414.3,49.0 415.5,48.9 416.8,48.8 418.0,48.6 419.2,48.5 420.4,48.3 421.6,48.2 422.8,48.0 424.1,47.8 425.3,47.7 426.5,47.5 427.7,47.4 428.9,47.3 430.1,47.2 431.4,47.0 432.6,46.9 433.8,46.7 435.0,46.7 436.2,46.5 437.4,46.3 438.6,46.2 439.9,46.0 441.1,45.8 442.3,45.7 443.5,45.5 444.7,45.2 445.9,45.1 447.2,44.9 448.4,44.7 449.6,44.5 450.8,44.3 452.0,44.1 453.2,43.8 454.5,43.6 455.7,43.4 456.9,43.3 458.1,43.2 459.3,43.1 460.5,42.9 461.8,42.8 463.0,42.6 464.2,42.5 465.4,42.3 466.6,42.1 467.8,41.9 469.1,41.7 470.3,41.5 471.5,41.2 472.7,41.1 473.9,40.9 475.1,40.8 476.4,40.7 477.6,40.6 478.8,40.4 480.0,40.2 481.2,40.1 482.4,39.8 483.6,39.7 484.9,39.6 486.1,39.4 487.3,39.3 488.5,39.2 489.7,39.1 490.9,39.0 492.2,38.9 493.4,38.8 494.6,38.6 495.8,38.5 497.0,38.3 498.2,38.1 499.5,38.0 500.7,37.9 501.9,37.8 503.1,37.7 504.3,37.5 505.5,37.4 506.8,37.2 508.0,37.1 509.2,36.9 510.4,36.7 511.6,36.4 512.8,36.3 514.1,36.3 515.3,36.2 516.5,36.0 517.7,36.0 518.9,35.9 520.1,35.8 521.4,35.7 522.6,35.6 523.8,35.4 525.0,35.3 526.2,35.1 527.4,35.0 528.6,34.9 529.9,34.8 531.1,34.6 532.3,34.5 533.5,34.3 534.7,34.2 535.9,34.1 537.2,34.0 538.4,33.9 539.6,33.6 540.8,33.4 542.0,33.1 543.2,33.0 544.5,32.8 545.7,32.7 546.9,32.6 548.1,32.5 549.3,32.4 550.5,32.3 551.8,32.1 553.0,32.0 554.2,31.8 555.4,31.6 556.6,31.5 557.8,31.3 559.1,31.2 560.3,31.0 561.5,30.9 562.7,30.8 563.9,30.7 565.1,30.6 566.4,30.5 567.6,30.3 568.8,30.2 570.0,30.0" />
  
  <!-- Punto finale luminoso -->
  <circle cx="570.0" cy="30.0" r="4" fill="#ffffff" stroke="#0366d6" stroke-width="2.5" />
</svg>