<svg width="600" height="150" viewBox="0 0 600 150" xmlns="http://www.w3.org/2000/svg">
  <defs>
    <filter id="shadow2" x="-2%" y="-2%" width="104%" height="108%">
      <feDropShadow dx="0" dy="2" stdDeviation="3" flood-opacity="0.1" />
    </filter>
    <linearGradient id="fillGrad" x1="0" y1="0" x2="0" y2="1">
      <stop offset="0%" stop-color="#0366d6" stop-opacity="0.3"/>
      <stop offset="100%" stop-color="#0366d6" stop-opacity="0.02"/>
    </linearGradient>
  </defs>
  <rect width="600" height="150" rx="12" fill="#ffffff" filter="url(#shadow2)" stroke="#e1e4e8" stroke-width="1"/>
  <text x="20" y="24" fill="#2b3137" font-family="-apple-system,BlinkMacSystemFont,'Segoe UI',Helvetica,Arial,sans-serif" font-size="14" font-weight="600">📈 Download Growth (Actual: 87.4k)</text>
  
  <!-- Area sotto la linea -->
  <polygon fill="url(#fillGrad)" points="30.0,120.0,120 30.0,120.0 31.3,119.5 32.5,119.0 33.8,118.5 35.1,118.4 36.4,118.1 37.6,117.6 38.9,117.2 40.2,116.9 41.5,116.3 42.7,116.1 44.0,115.8 45.3,115.6 46.6,115.3 47.8,114.9 49.1,114.5 50.4,114.2 51.7,114.0 52.9,113.8 54.2,113.5 55.5,113.2 56.7,113.0 58.0,112.8 59.3,112.6 60.6,111.6 61.8,111.4 63.1,111.0 64.4,110.6 65.7,110.3 66.9,110.0 68.2,109.8 69.5,109.7 70.8,109.4 72.0,108.9 73.3,108.6 74.6,108.3 75.8,108.0 77.1,107.9 78.4,107.8 79.7,107.7 80.9,107.4 82.2,107.2 83.5,107.1 84.8,106.7 86.0,106.2 87.3,106.1 88.6,106.0 89.9,105.8 91.1,105.4 92.4,105.2 93.7,104.7 95.0,104.5 96.2,104.1 97.5,104.0 98.8,103.8 100.0,103.4 101.3,103.0 102.6,102.8 103.9,102.6 105.1,102.5 106.4,102.3 107.7,101.9 109.0,101.5 110.2,101.1 111.5,100.8 112.8,100.6 114.1,100.5 115.3,100.4 116.6,100.1 117.9,99.9 119.2,99.7 120.4,99.6 121.7,99.5 123.0,99.3 124.2,99.1 125.5,99.0 126.8,99.0 128.1,98.6 129.3,98.4 130.6,98.3 131.9,98.2 133.2,98.1 134.4,98.1 135.7,104.4 137.0,103.7 138.3,103.2 139.5,102.6 140.8,100.9 142.1,99.7 143.3,98.4 144.6,97.9 145.9,97.4 147.2,96.5 148.4,95.6 149.7,94.9 151.0,94.6 152.3,94.4 153.5,93.7 154.8,93.2 156.1,92.9 157.4,92.4 158.6,92.3 159.9,92.2 161.2,91.8 162.5,91.3 163.7,90.8 165.0,90.4 166.3,90.0 167.5,89.7 168.8,89.6 170.1,89.2 171.4,88.8 172.6,88.4 173.9,88.2 175.2,88.0 176.5,88.0 177.7,87.7 179.0,87.4 180.3,87.2 181.6,87.0 182.8,86.8 184.1,86.6 185.4,86.4 186.7,86.3 187.9,86.1 189.2,86.0 190.5,85.7 191.7,85.4 193.0,85.1 194.3,85.0 195.6,84.8 196.8,84.7 198.1,84.5 199.4,84.4 200.7,83.9 201.9,83.6 203.2,83.2 204.5,83.1 205.8,83.0 207.0,82.9 208.3,82.7 209.6,82.4 210.8,82.2 212.1,81.9 213.4,81.8 214.7,81.7 215.9,81.5 217.2,81.4 218.5,81.3 219.8,81.1 221.0,80.9 222.3,80.7 223.6,80.5 224.9,80.4 226.1,80.3 227.4,80.2 228.7,80.0 230.0,79.8 231.2,79.6 232.5,79.4 233.8,79.2 235.0,79.1 236.3,79.0 237.6,78.8 238.9,78.5 240.1,78.3 241.4,78.1 242.7,77.9 244.0,77.6 245.2,77.5 246.5,77.4 247.8,77.3 249.1,77.1 250.3,76.9 251.6,76.8 252.9,76.6 254.2,76.5 255.4,76.3 256.7,76.2 258.0,76.1 259.2,76.0 260.5,75.8 261.8,75.6 263.1,75.5 264.3,75.3 265.6,75.2 266.9,75.0 268.2,74.9 269.4,74.8 270.7,74.7 272.0,74.5 273.3,74.2 274.5,73.9 275.8,73.8 277.1,73.6 278.3,73.6 279.6,73.5 280.9,73.3 282.2,73.0 283.4,72.9 284.7,72.8 286.0,72.7 287.3,72.5 288.5,72.3 289.8,72.2 291.1,72.1 292.4,71.9 293.6,71.7 294.9,71.5 296.2,71.3 297.5,71.2 298.7,71.2 300.0,71.1 301.3,71.0 302.5,70.8 303.8,70.7 305.1,70.5 306.4,70.4 307.6,70.3 308.9,70.1 310.2,70.0 311.5,69.9 312.7,69.7 314.0,69.5 315.3,69.3 316.6,69.2 317.8,69.1 319.1,69.0 320.4,68.9 321.7,68.8 322.9,68.7 324.2,68.6 325.5,68.3 326.7,68.2 328.0,68.1 329.3,68.0 330.6,67.8 331.8,67.7 333.1,67.5 334.4,67.4 335.7,67.3 336.9,67.2 338.2,67.0 339.5,66.9 340.8,66.7 342.0,66.7 343.3,66.6 344.6,66.5 345.8,66.4 347.1,66.2 348.4,66.1 349.7,66.1 350.9,65.9 352.2,65.6 353.5,65.4 354.8,69.5 356.0,68.7 357.3,67.2 358.6,66.6 359.9,65.9 361.1,65.0 362.4,64.5 363.7,64.2 365.0,63.6 366.2,62.7 367.5,62.1 368.8,61.8 370.0,61.5 371.3,61.2 372.6,60.8 373.9,60.3 375.1,59.8 376.4,59.6 377.7,59.2 379.0,58.9 380.2,58.6 381.5,58.4 382.8,58.2 384.1,58.0 385.3,57.5 386.6,57.2 387.9,56.8 389.2,56.2 390.4,55.9 391.7,55.7 393.0,55.6 394.2,55.3 395.5,55.0 396.8,54.7 398.1,54.4 399.3,53.6 400.6,52.9 401.9,52.6 403.2,52.4 404.4,52.2 405.7,51.7 407.0,51.3 408.3,50.8 409.5,50.5 410.8,50.2 412.1,50.0 413.3,49.6 414.6,49.4 415.9,49.2 417.2,49.0 418.4,48.9 419.7,48.6 421.0,48.5 422.3,48.2 423.5,48.0 424.8,47.9 426.1,47.6 427.4,47.5 428.6,47.3 429.9,47.1 431.2,46.9 432.5,46.8 433.7,46.7 435.0,46.5 436.3,46.4 437.5,46.3 438.8,46.1 440.1,46.0 441.4,45.8 442.6,45.6 443.9,45.4 445.2,45.3 446.5,45.1 447.7,45.0 449.0,44.9 450.3,44.7 451.6,44.6 452.8,44.5 454.1,44.4 455.4,44.2 456.7,44.0 457.9,43.9 459.2,43.7 460.5,43.5 461.7,43.3 463.0,43.1 464.3,42.9 465.6,42.8 466.8,42.5 468.1,42.3 469.4,42.1 470.7,41.9 471.9,41.7 473.2,41.5 474.5,41.2 475.8,41.0 477.0,40.9 478.3,40.8 479.6,40.7 480.8,40.5 482.1,40.4 483.4,40.2 484.7,40.1 485.9,39.9 487.2,39.7 488.5,39.5 489.8,39.2 491.0,39.0 492.3,38.7 493.6,38.6 494.9,38.5 496.1,38.3 497.4,38.3 498.7,38.1 500.0,38.0 501.2,37.7 502.5,37.6 503.8,37.3 505.0,37.2 506.3,37.1 507.6,36.9 508.9,36.8 510.1,36.7 511.4,36.6 512.7,36.5 514.0,36.3 515.2,36.2 516.5,36.1 517.8,35.9 519.1,35.7 520.3,35.6 521.6,35.5 522.9,35.3 524.2,35.2 525.4,35.1 526.7,35.0 528.0,34.9 529.2,34.7 530.5,34.5 531.8,34.3 533.1,34.1 534.3,33.8 535.6,33.7 536.9,33.7 538.2,33.6 539.4,33.4 540.7,33.4 542.0,33.3 543.3,33.2 544.5,33.1 545.8,33.0 547.1,32.8 548.3,32.7 549.6,32.5 550.9,32.3 552.2,32.2 553.4,32.1 554.7,31.9 556.0,31.8 557.3,31.7 558.5,31.6 559.8,31.5 561.1,31.3 562.4,31.2 563.6,30.9 564.9,30.7 566.2,30.4 567.5,30.3 568.7,30.1 570.0,30.0 570.0,30.0,120" />
  
  <!-- Linea principale -->
  <polyline fill="none" stroke="#0366d6" stroke-width="2.5" stroke-linecap="round" stroke-linejoin="round" points="30.0,120.0 31.3,119.5 32.5,119.0 33.8,118.5 35.1,118.4 36.4,118.1 37.6,117.6 38.9,117.2 40.2,116.9 41.5,116.3 42.7,116.1 44.0,115.8 45.3,115.6 46.6,115.3 47.8,114.9 49.1,114.5 50.4,114.2 51.7,114.0 52.9,113.8 54.2,113.5 55.5,113.2 56.7,113.0 58.0,112.8 59.3,112.6 60.6,111.6 61.8,111.4 63.1,111.0 64.4,110.6 65.7,110.3 66.9,110.0 68.2,109.8 69.5,109.7 70.8,109.4 72.0,108.9 73.3,108.6 74.6,108.3 75.8,108.0 77.1,107.9 78.4,107.8 79.7,107.7 80.9,107.4 82.2,107.2 83.5,107.1 84.8,106.7 86.0,106.2 87.3,106.1 88.6,106.0 89.9,105.8 91.1,105.4 92.4,105.2 93.7,104.7 95.0,104.5 96.2,104.1 97.5,104.0 98.8,103.8 100.0,103.4 101.3,103.0 102.6,102.8 103.9,102.6 105.1,102.5 106.4,102.3 107.7,101.9 109.0,101.5 110.2,101.1 111.5,100.8 112.8,100.6 114.1,100.5 115.3,100.4 116.6,100.1 117.9,99.9 119.2,99.7 120.4,99.6 121.7,99.5 123.0,99.3 124.2,99.1 125.5,99.0 126.8,99.0 128.1,98.6 129.3,98.4 130.6,98.3 131.9,98.2 133.2,98.1 134.4,98.1 135.7,104.4 137.0,103.7 138.3,103.2 139.5,102.6 140.8,100.9 142.1,99.7 143.3,98.4 144.6,97.9 145.9,97.4 147.2,96.5 148.4,95.6 149.7,94.9 151.0,94.6 152.3,94.4 153.5,93.7 154.8,93.2 156.1,92.9 157.4,92.4 158.6,92.3 159.9,92.2 161.2,91.8 162.5,91.3 163.7,90.8 165.0,90.4 166.3,90.0 167.5,89.7 168.8,89.6 170.1,89.2 171.4,88.8 172.6,88.4 173.9,88.2 175.2,88.0 176.5,88.0 177.7,87.7 179.0,87.4 180.3,87.2 181.6,87.0 182.8,86.8 184.1,86.6 185.4,86.4 186.7,86.3 187.9,86.1 189.2,86.0 190.5,85.7 191.7,85.4 193.0,85.1 194.3,85.0 195.6,84.8 196.8,84.7 198.1,84.5 199.4,84.4 200.7,83.9 201.9,83.6 203.2,83.2 204.5,83.1 205.8,83.0 207.0,82.9 208.3,82.7 209.6,82.4 210.8,82.2 212.1,81.9 213.4,81.8 214.7,81.7 215.9,81.5 217.2,81.4 218.5,81.3 219.8,81.1 221.0,80.9 222.3,80.7 223.6,80.5 224.9,80.4 226.1,80.3 227.4,80.2 228.7,80.0 230.0,79.8 231.2,79.6 232.5,79.4 233.8,79.2 235.0,79.1 236.3,79.0 237.6,78.8 238.9,78.5 240.1,78.3 241.4,78.1 242.7,77.9 244.0,77.6 245.2,77.5 246.5,77.4 247.8,77.3 249.1,77.1 250.3,76.9 251.6,76.8 252.9,76.6 254.2,76.5 255.4,76.3 256.7,76.2 258.0,76.1 259.2,76.0 260.5,75.8 261.8,75.6 263.1,75.5 264.3,75.3 265.6,75.2 266.9,75.0 268.2,74.9 269.4,74.8 270.7,74.7 272.0,74.5 273.3,74.2 274.5,73.9 275.8,73.8 277.1,73.6 278.3,73.6 279.6,73.5 280.9,73.3 282.2,73.0 283.4,72.9 284.7,72.8 286.0,72.7 287.3,72.5 288.5,72.3 289.8,72.2 291.1,72.1 292.4,71.9 293.6,71.7 294.9,71.5 296.2,71.3 297.5,71.2 298.7,71.2 300.0,71.1 301.3,71.0 302.5,70.8 303.8,70.7 305.1,70.5 306.4,70.4 307.6,70.3 308.9,70.1 310.2,70.0 311.5,69.9 312.7,69.7 314.0,69.5 315.3,69.3 316.6,69.2 317.8,69.1 319.1,69.0 320.4,68.9 321.7,68.8 322.9,68.7 324.2,68.6 325.5,68.3 326.7,68.2 328.0,68.1 329.3,68.0 330.6,67.8 331.8,67.7 333.1,67.5 334.4,67.4 335.7,67.3 336.9,67.2 338.2,67.0 339.5,66.9 340.8,66.7 342.0,66.7 343.3,66.6 344.6,66.5 345.8,66.4 347.1,66.2 348.4,66.1 349.7,66.1 350.9,65.9 352.2,65.6 353.5,65.4 354.8,69.5 356.0,68.7 357.3,67.2 358.6,66.6 359.9,65.9 361.1,65.0 362.4,64.5 363.7,64.2 365.0,63.6 366.2,62.7 367.5,62.1 368.8,61.8 370.0,61.5 371.3,61.2 372.6,60.8 373.9,60.3 375.1,59.8 376.4,59.6 377.7,59.2 379.0,58.9 380.2,58.6 381.5,58.4 382.8,58.2 384.1,58.0 385.3,57.5 386.6,57.2 387.9,56.8 389.2,56.2 390.4,55.9 391.7,55.7 393.0,55.6 394.2,55.3 395.5,55.0 396.8,54.7 398.1,54.4 399.3,53.6 400.6,52.9 401.9,52.6 403.2,52.4 404.4,52.2 405.7,51.7 407.0,51.3 408.3,50.8 409.5,50.5 410.8,50.2 412.1,50.0 413.3,49.6 414.6,49.4 415.9,49.2 417.2,49.0 418.4,48.9 419.7,48.6 421.0,48.5 422.3,48.2 423.5,48.0 424.8,47.9 426.1,47.6 427.4,47.5 428.6,47.3 429.9,47.1 431.2,46.9 432.5,46.8 433.7,46.7 435.0,46.5 436.3,46.4 437.5,46.3 438.8,46.1 440.1,46.0 441.4,45.8 442.6,45.6 443.9,45.4 445.2,45.3 446.5,45.1 447.7,45.0 449.0,44.9 450.3,44.7 451.6,44.6 452.8,44.5 454.1,44.4 455.4,44.2 456.7,44.0 457.9,43.9 459.2,43.7 460.5,43.5 461.7,43.3 463.0,43.1 464.3,42.9 465.6,42.8 466.8,42.5 468.1,42.3 469.4,42.1 470.7,41.9 471.9,41.7 473.2,41.5 474.5,41.2 475.8,41.0 477.0,40.9 478.3,40.8 479.6,40.7 480.8,40.5 482.1,40.4 483.4,40.2 484.7,40.1 485.9,39.9 487.2,39.7 488.5,39.5 489.8,39.2 491.0,39.0 492.3,38.7 493.6,38.6 494.9,38.5 496.1,38.3 497.4,38.3 498.7,38.1 500.0,38.0 501.2,37.7 502.5,37.6 503.8,37.3 505.0,37.2 506.3,37.1 507.6,36.9 508.9,36.8 510.1,36.7 511.4,36.6 512.7,36.5 514.0,36.3 515.2,36.2 516.5,36.1 517.8,35.9 519.1,35.7 520.3,35.6 521.6,35.5 522.9,35.3 524.2,35.2 525.4,35.1 526.7,35.0 528.0,34.9 529.2,34.7 530.5,34.5 531.8,34.3 533.1,34.1 534.3,33.8 535.6,33.7 536.9,33.7 538.2,33.6 539.4,33.4 540.7,33.4 542.0,33.3 543.3,33.2 544.5,33.1 545.8,33.0 547.1,32.8 548.3,32.7 549.6,32.5 550.9,32.3 552.2,32.2 553.4,32.1 554.7,31.9 556.0,31.8 557.3,31.7 558.5,31.6 559.8,31.5 561.1,31.3 562.4,31.2 563.6,30.9 564.9,30.7 566.2,30.4 567.5,30.3 568.7,30.1 570.0,30.0" />
  
  <!-- Punto finale luminoso -->
  <circle cx="570.0" cy="30.0" r="4" fill="#ffffff" stroke="#0366d6" stroke-width="2.5" />
</svg>