<svg width="600" height="150" viewBox="0 0 600 150" xmlns="http://www.w3.org/2000/svg">
  <defs>
    <filter id="shadow2" x="-2%" y="-2%" width="104%" height="108%">
      <feDropShadow dx="0" dy="2" stdDeviation="3" flood-opacity="0.1" />
    </filter>
    <linearGradient id="fillGrad" x1="0" y1="0" x2="0" y2="1">
      <stop offset="0%" stop-color="#0366d6" stop-opacity="0.3"/>
      <stop offset="100%" stop-color="#0366d6" stop-opacity="0.02"/>
    </linearGradient>
  </defs>
  <rect width="600" height="150" rx="12" fill="#ffffff" filter="url(#shadow2)" stroke="#e1e4e8" stroke-width="1"/>
  <text x="20" y="24" fill="#2b3137" font-family="-apple-system,BlinkMacSystemFont,'Segoe UI',Helvetica,Arial,sans-serif" font-size="14" font-weight="600">📈 Download Growth (Actual: 88.4k)</text>
  
  <!-- Area sotto la linea -->
  <polygon fill="url(#fillGrad)" points="30.0,120.0,120 30.0,120.0 31.2,119.5 32.3,119.0 33.5,118.6 34.7,118.5 35.9,118.2 37.0,117.7 38.2,117.3 39.4,117.1 40.6,116.5 41.7,116.2 42.9,116.0 44.1,115.8 45.3,115.5 46.4,115.2 47.6,114.8 48.8,114.5 50.0,114.3 51.1,114.1 52.3,113.9 53.5,113.6 54.7,113.3 55.8,113.2 57.0,112.9 58.2,112.0 59.3,111.8 60.5,111.4 61.7,111.1 62.9,110.8 64.0,110.5 65.2,110.3 66.4,110.2 67.6,109.9 68.7,109.5 69.9,109.1 71.1,108.9 72.3,108.6 73.4,108.5 74.6,108.4 75.8,108.3 77.0,108.0 78.1,107.8 79.3,107.7 80.5,107.4 81.7,106.9 82.8,106.8 84.0,106.7 85.2,106.5 86.3,106.1 87.5,105.9 88.7,105.5 89.9,105.2 91.0,104.9 92.2,104.8 93.4,104.6 94.6,104.2 95.7,103.9 96.9,103.6 98.1,103.5 99.3,103.3 100.4,103.1 101.6,102.7 102.8,102.4 104.0,102.1 105.1,101.7 106.3,101.6 107.5,101.5 108.7,101.3 109.8,101.1 111.0,100.9 112.2,100.7 113.3,100.6 114.5,100.5 115.7,100.3 116.9,100.1 118.0,100.1 119.2,100.0 120.4,99.6 121.6,99.4 122.7,99.3 123.9,99.2 125.1,99.2 126.3,99.2 127.4,105.1 128.6,104.5 129.8,104.0 131.0,103.4 132.1,101.8 133.3,100.7 134.5,99.5 135.7,99.0 136.8,98.5 138.0,97.7 139.2,96.8 140.3,96.1 141.5,95.8 142.7,95.6 143.9,94.9 145.0,94.5 146.2,94.2 147.4,93.8 148.6,93.6 149.7,93.6 150.9,93.2 152.1,92.7 153.3,92.3 154.4,91.9 155.6,91.4 156.8,91.2 158.0,91.0 159.1,90.7 160.3,90.3 161.5,90.0 162.7,89.7 163.8,89.6 165.0,89.5 166.2,89.3 167.3,89.0 168.5,88.8 169.7,88.6 170.9,88.4 172.0,88.2 173.2,88.1 174.4,87.9 175.6,87.8 176.7,87.6 177.9,87.3 179.1,87.1 180.3,86.8 181.4,86.7 182.6,86.5 183.8,86.4 185.0,86.2 186.1,86.1 187.3,85.7 188.5,85.4 189.7,85.0 190.8,84.9 192.0,84.8 193.2,84.7 194.3,84.5 195.5,84.3 196.7,84.0 197.9,83.8 199.0,83.6 200.2,83.5 201.4,83.4 202.6,83.3 203.7,83.1 204.9,83.0 206.1,82.8 207.3,82.6 208.4,82.4 209.6,82.4 210.8,82.2 212.0,82.2 213.1,81.9 214.3,81.8 215.5,81.5 216.7,81.4 217.8,81.2 219.0,81.0 220.2,81.0 221.3,80.8 222.5,80.6 223.7,80.3 224.9,80.1 226.0,79.9 227.2,79.6 228.4,79.5 229.6,79.4 230.7,79.3 231.9,79.2 233.1,79.0 234.3,78.9 235.4,78.7 236.6,78.6 237.8,78.4 239.0,78.3 240.1,78.2 241.3,78.1 242.5,78.0 243.7,77.7 244.8,77.6 246.0,77.4 247.2,77.3 248.3,77.2 249.5,77.1 250.7,77.0 251.9,76.9 253.0,76.7 254.2,76.5 255.4,76.2 256.6,76.0 257.7,75.9 258.9,75.8 260.1,75.7 261.3,75.6 262.4,75.3 263.6,75.2 264.8,75.1 266.0,74.9 267.1,74.8 268.3,74.6 269.5,74.5 270.7,74.4 271.8,74.2 273.0,74.1 274.2,73.9 275.3,73.7 276.5,73.6 277.7,73.6 278.9,73.5 280.0,73.4 281.2,73.2 282.4,73.1 283.6,72.9 284.7,72.8 285.9,72.7 287.1,72.6 288.3,72.4 289.4,72.3 290.6,72.1 291.8,71.9 293.0,71.8 294.1,71.6 295.3,71.5 296.5,71.4 297.7,71.4 298.8,71.3 300.0,71.2 301.2,71.1 302.3,70.8 303.5,70.7 304.7,70.6 305.9,70.5 307.0,70.4 308.2,70.2 309.4,70.1 310.6,70.0 311.7,69.9 312.9,69.7 314.1,69.6 315.3,69.5 316.4,69.3 317.6,69.2 318.8,69.2 320.0,69.1 321.1,69.0 322.3,68.8 323.5,68.7 324.7,68.7 325.8,68.6 327.0,68.3 328.2,68.1 329.3,72.0 330.5,71.2 331.7,69.8 332.9,69.2 334.0,68.5 335.2,67.7 336.4,67.2 337.6,66.9 338.7,66.3 339.9,65.5 341.1,64.9 342.3,64.7 343.4,64.4 344.6,64.1 345.8,63.7 347.0,63.2 348.1,62.8 349.3,62.5 350.5,62.1 351.7,61.9 352.8,61.6 354.0,61.4 355.2,61.2 356.3,61.0 357.5,60.5 358.7,60.3 359.9,59.9 361.0,59.3 362.2,59.0 363.4,58.8 364.6,58.7 365.7,58.5 366.9,58.1 368.1,57.8 369.3,57.6 370.4,56.8 371.6,56.2 372.8,55.9 374.0,55.7 375.1,55.4 376.3,55.0 377.5,54.7 378.7,54.2 379.8,53.9 381.0,53.6 382.2,53.3 383.3,53.0 384.5,52.8 385.7,52.6 386.9,52.5 388.0,52.3 389.2,52.1 390.4,51.9 391.6,51.7 392.7,51.5 393.9,51.4 395.1,51.1 396.3,51.0 397.4,50.8 398.6,50.7 399.8,50.5 401.0,50.4 402.1,50.2 403.3,50.1 404.5,50.0 405.7,49.9 406.8,49.7 408.0,49.6 409.2,49.4 410.3,49.2 411.5,49.0 412.7,48.9 413.9,48.7 415.0,48.6 416.2,48.5 417.4,48.4 418.6,48.3 419.7,48.1 420.9,48.1 422.1,47.9 423.3,47.7 424.4,47.6 425.6,47.4 426.8,47.2 428.0,47.1 429.1,46.9 430.3,46.7 431.5,46.5 432.7,46.3 433.8,46.1 435.0,45.9 436.2,45.7 437.3,45.5 438.5,45.3 439.7,45.1 440.9,44.8 442.0,44.7 443.2,44.6 444.4,44.5 445.6,44.4 446.7,44.3 447.9,44.1 449.1,44.0 450.3,43.8 451.4,43.6 452.6,43.4 453.8,43.1 455.0,43.0 456.1,42.7 457.3,42.6 458.5,42.4 459.7,42.3 460.8,42.2 462.0,42.1 463.2,41.9 464.3,41.7 465.5,41.6 466.7,41.4 467.9,41.2 469.0,41.1 470.2,41.0 471.4,40.8 472.6,40.7 473.7,40.7 474.9,40.6 476.1,40.4 477.3,40.3 478.4,40.2 479.6,40.0 480.8,39.8 482.0,39.7 483.1,39.6 484.3,39.4 485.5,39.3 486.7,39.2 487.8,39.1 489.0,39.0 490.2,38.8 491.3,38.7 492.5,38.4 493.7,38.3 494.9,38.0 496.0,37.9 497.2,37.8 498.4,37.8 499.6,37.6 500.7,37.6 501.9,37.5 503.1,37.4 504.3,37.3 505.4,37.2 506.6,37.0 507.8,36.9 509.0,36.7 510.1,36.6 511.3,36.5 512.5,36.4 513.7,36.2 514.8,36.1 516.0,35.9 517.2,35.9 518.3,35.8 519.5,35.6 520.7,35.5 521.9,35.2 523.0,35.0 524.2,34.8 525.4,34.7 526.6,34.5 527.7,34.4 528.9,34.2 530.1,34.1 531.3,34.0 532.4,33.9 533.6,33.8 534.8,33.7 536.0,33.5 537.1,33.3 538.3,33.2 539.5,33.0 540.7,32.9 541.8,32.7 543.0,32.6 544.2,32.5 545.3,32.4 546.5,32.3 547.7,32.2 548.9,32.0 550.0,31.9 551.2,31.7 552.4,31.5 553.6,31.4 554.7,31.3 555.9,31.3 557.1,31.2 558.3,31.1 559.4,31.0 560.6,31.0 561.8,30.9 563.0,30.7 564.1,30.6 565.3,30.4 566.5,30.3 567.7,30.2 568.8,30.1 570.0,30.0 570.0,30.0,120" />
  
  <!-- Linea principale -->
  <polyline fill="none" stroke="#0366d6" stroke-width="2.5" stroke-linecap="round" stroke-linejoin="round" points="30.0,120.0 31.2,119.5 32.3,119.0 33.5,118.6 34.7,118.5 35.9,118.2 37.0,117.7 38.2,117.3 39.4,117.1 40.6,116.5 41.7,116.2 42.9,116.0 44.1,115.8 45.3,115.5 46.4,115.2 47.6,114.8 48.8,114.5 50.0,114.3 51.1,114.1 52.3,113.9 53.5,113.6 54.7,113.3 55.8,113.2 57.0,112.9 58.2,112.0 59.3,111.8 60.5,111.4 61.7,111.1 62.9,110.8 64.0,110.5 65.2,110.3 66.4,110.2 67.6,109.9 68.7,109.5 69.9,109.1 71.1,108.9 72.3,108.6 73.4,108.5 74.6,108.4 75.8,108.3 77.0,108.0 78.1,107.8 79.3,107.7 80.5,107.4 81.7,106.9 82.8,106.8 84.0,106.7 85.2,106.5 86.3,106.1 87.5,105.9 88.7,105.5 89.9,105.2 91.0,104.9 92.2,104.8 93.4,104.6 94.6,104.2 95.7,103.9 96.9,103.6 98.1,103.5 99.3,103.3 100.4,103.1 101.6,102.7 102.8,102.4 104.0,102.1 105.1,101.7 106.3,101.6 107.5,101.5 108.7,101.3 109.8,101.1 111.0,100.9 112.2,100.7 113.3,100.6 114.5,100.5 115.7,100.3 116.9,100.1 118.0,100.1 119.2,100.0 120.4,99.6 121.6,99.4 122.7,99.3 123.9,99.2 125.1,99.2 126.3,99.2 127.4,105.1 128.6,104.5 129.8,104.0 131.0,103.4 132.1,101.8 133.3,100.7 134.5,99.5 135.7,99.0 136.8,98.5 138.0,97.7 139.2,96.8 140.3,96.1 141.5,95.8 142.7,95.6 143.9,94.9 145.0,94.5 146.2,94.2 147.4,93.8 148.6,93.6 149.7,93.6 150.9,93.2 152.1,92.7 153.3,92.3 154.4,91.9 155.6,91.4 156.8,91.2 158.0,91.0 159.1,90.7 160.3,90.3 161.5,90.0 162.7,89.7 163.8,89.6 165.0,89.5 166.2,89.3 167.3,89.0 168.5,88.8 169.7,88.6 170.9,88.4 172.0,88.2 173.2,88.1 174.4,87.9 175.6,87.8 176.7,87.6 177.9,87.3 179.1,87.1 180.3,86.8 181.4,86.7 182.6,86.5 183.8,86.4 185.0,86.2 186.1,86.1 187.3,85.7 188.5,85.4 189.7,85.0 190.8,84.9 192.0,84.8 193.2,84.7 194.3,84.5 195.5,84.3 196.7,84.0 197.9,83.8 199.0,83.6 200.2,83.5 201.4,83.4 202.6,83.3 203.7,83.1 204.9,83.0 206.1,82.8 207.3,82.6 208.4,82.4 209.6,82.4 210.8,82.2 212.0,82.2 213.1,81.9 214.3,81.8 215.5,81.5 216.7,81.4 217.8,81.2 219.0,81.0 220.2,81.0 221.3,80.8 222.5,80.6 223.7,80.3 224.9,80.1 226.0,79.9 227.2,79.6 228.4,79.5 229.6,79.4 230.7,79.3 231.9,79.2 233.1,79.0 234.3,78.9 235.4,78.7 236.6,78.6 237.8,78.4 239.0,78.3 240.1,78.2 241.3,78.1 242.5,78.0 243.7,77.7 244.8,77.6 246.0,77.4 247.2,77.3 248.3,77.2 249.5,77.1 250.7,77.0 251.9,76.9 253.0,76.7 254.2,76.5 255.4,76.2 256.6,76.0 257.7,75.9 258.9,75.8 260.1,75.7 261.3,75.6 262.4,75.3 263.6,75.2 264.8,75.1 266.0,74.9 267.1,74.8 268.3,74.6 269.5,74.5 270.7,74.4 271.8,74.2 273.0,74.1 274.2,73.9 275.3,73.7 276.5,73.6 277.7,73.6 278.9,73.5 280.0,73.4 281.2,73.2 282.4,73.1 283.6,72.9 284.7,72.8 285.9,72.7 287.1,72.6 288.3,72.4 289.4,72.3 290.6,72.1 291.8,71.9 293.0,71.8 294.1,71.6 295.3,71.5 296.5,71.4 297.7,71.4 298.8,71.3 300.0,71.2 301.2,71.1 302.3,70.8 303.5,70.7 304.7,70.6 305.9,70.5 307.0,70.4 308.2,70.2 309.4,70.1 310.6,70.0 311.7,69.9 312.9,69.7 314.1,69.6 315.3,69.5 316.4,69.3 317.6,69.2 318.8,69.2 320.0,69.1 321.1,69.0 322.3,68.8 323.5,68.7 324.7,68.7 325.8,68.6 327.0,68.3 328.2,68.1 329.3,72.0 330.5,71.2 331.7,69.8 332.9,69.2 334.0,68.5 335.2,67.7 336.4,67.2 337.6,66.9 338.7,66.3 339.9,65.5 341.1,64.9 342.3,64.7 343.4,64.4 344.6,64.1 345.8,63.7 347.0,63.2 348.1,62.8 349.3,62.5 350.5,62.1 351.7,61.9 352.8,61.6 354.0,61.4 355.2,61.2 356.3,61.0 357.5,60.5 358.7,60.3 359.9,59.9 361.0,59.3 362.2,59.0 363.4,58.8 364.6,58.7 365.7,58.5 366.9,58.1 368.1,57.8 369.3,57.6 370.4,56.8 371.6,56.2 372.8,55.9 374.0,55.7 375.1,55.4 376.3,55.0 377.5,54.7 378.7,54.2 379.8,53.9 381.0,53.6 382.2,53.3 383.3,53.0 384.5,52.8 385.7,52.6 386.9,52.5 388.0,52.3 389.2,52.1 390.4,51.9 391.6,51.7 392.7,51.5 393.9,51.4 395.1,51.1 396.3,51.0 397.4,50.8 398.6,50.7 399.8,50.5 401.0,50.4 402.1,50.2 403.3,50.1 404.5,50.0 405.7,49.9 406.8,49.7 408.0,49.6 409.2,49.4 410.3,49.2 411.5,49.0 412.7,48.9 413.9,48.7 415.0,48.6 416.2,48.5 417.4,48.4 418.6,48.3 419.7,48.1 420.9,48.1 422.1,47.9 423.3,47.7 424.4,47.6 425.6,47.4 426.8,47.2 428.0,47.1 429.1,46.9 430.3,46.7 431.5,46.5 432.7,46.3 433.8,46.1 435.0,45.9 436.2,45.7 437.3,45.5 438.5,45.3 439.7,45.1 440.9,44.8 442.0,44.7 443.2,44.6 444.4,44.5 445.6,44.4 446.7,44.3 447.9,44.1 449.1,44.0 450.3,43.8 451.4,43.6 452.6,43.4 453.8,43.1 455.0,43.0 456.1,42.7 457.3,42.6 458.5,42.4 459.7,42.3 460.8,42.2 462.0,42.1 463.2,41.9 464.3,41.7 465.5,41.6 466.7,41.4 467.9,41.2 469.0,41.1 470.2,41.0 471.4,40.8 472.6,40.7 473.7,40.7 474.9,40.6 476.1,40.4 477.3,40.3 478.4,40.2 479.6,40.0 480.8,39.8 482.0,39.7 483.1,39.6 484.3,39.4 485.5,39.3 486.7,39.2 487.8,39.1 489.0,39.0 490.2,38.8 491.3,38.7 492.5,38.4 493.7,38.3 494.9,38.0 496.0,37.9 497.2,37.8 498.4,37.8 499.6,37.6 500.7,37.6 501.9,37.5 503.1,37.4 504.3,37.3 505.4,37.2 506.6,37.0 507.8,36.9 509.0,36.7 510.1,36.6 511.3,36.5 512.5,36.4 513.7,36.2 514.8,36.1 516.0,35.9 517.2,35.9 518.3,35.8 519.5,35.6 520.7,35.5 521.9,35.2 523.0,35.0 524.2,34.8 525.4,34.7 526.6,34.5 527.7,34.4 528.9,34.2 530.1,34.1 531.3,34.0 532.4,33.9 533.6,33.8 534.8,33.7 536.0,33.5 537.1,33.3 538.3,33.2 539.5,33.0 540.7,32.9 541.8,32.7 543.0,32.6 544.2,32.5 545.3,32.4 546.5,32.3 547.7,32.2 548.9,32.0 550.0,31.9 551.2,31.7 552.4,31.5 553.6,31.4 554.7,31.3 555.9,31.3 557.1,31.2 558.3,31.1 559.4,31.0 560.6,31.0 561.8,30.9 563.0,30.7 564.1,30.6 565.3,30.4 566.5,30.3 567.7,30.2 568.8,30.1 570.0,30.0" />
  
  <!-- Punto finale luminoso -->
  <circle cx="570.0" cy="30.0" r="4" fill="#ffffff" stroke="#0366d6" stroke-width="2.5" />
</svg>