<svg width="600" height="150" viewBox="0 0 600 150" xmlns="http://www.w3.org/2000/svg">
  <defs>
    <filter id="shadow2" x="-2%" y="-2%" width="104%" height="108%">
      <feDropShadow dx="0" dy="2" stdDeviation="3" flood-opacity="0.1" />
    </filter>
    <linearGradient id="fillGrad" x1="0" y1="0" x2="0" y2="1">
      <stop offset="0%" stop-color="#0366d6" stop-opacity="0.3"/>
      <stop offset="100%" stop-color="#0366d6" stop-opacity="0.02"/>
    </linearGradient>
  </defs>
  <rect width="600" height="150" rx="12" fill="#ffffff" filter="url(#shadow2)" stroke="#e1e4e8" stroke-width="1"/>
  <text x="20" y="24" fill="#2b3137" font-family="-apple-system,BlinkMacSystemFont,'Segoe UI',Helvetica,Arial,sans-serif" font-size="14" font-weight="600">📈 Download Growth (Actual: 85.9k)</text>
  
  <!-- Area sotto la linea -->
  <polygon fill="url(#fillGrad)" points="30.0,120.0,120 30.0,120.0 31.4,119.5 32.9,118.9 34.3,118.4 35.7,118.3 37.2,118.0 38.6,117.4 40.0,117.0 41.5,116.7 42.9,116.1 44.3,115.7 45.8,115.4 47.2,115.2 48.6,114.9 50.1,114.5 51.5,114.1 52.9,113.7 54.4,113.5 55.8,113.3 57.2,113.0 58.6,112.7 60.1,112.4 61.5,112.3 62.9,112.0 64.4,111.0 65.8,110.7 67.2,110.3 68.7,109.9 70.1,109.5 71.5,109.2 73.0,109.0 74.4,108.8 75.8,108.5 77.3,108.1 78.7,107.6 80.1,107.4 81.6,107.0 83.0,106.9 84.4,106.8 85.9,106.7 87.3,106.3 88.7,106.2 90.2,106.0 91.6,105.7 93.0,105.1 94.5,105.0 95.9,104.9 97.3,104.7 98.8,104.2 100.2,104.0 101.6,103.5 103.1,103.2 104.5,102.8 105.9,102.7 107.3,102.5 108.8,102.1 110.2,101.7 111.6,101.4 113.1,101.2 114.5,101.0 115.9,100.9 117.4,100.4 118.8,100.0 120.2,99.6 121.7,99.2 123.1,99.1 124.5,98.9 126.0,98.8 127.4,98.5 128.8,98.3 130.3,98.1 131.7,98.0 133.1,97.8 134.6,97.6 136.0,97.5 137.4,97.4 138.9,97.3 140.3,96.9 141.7,96.6 143.2,96.5 144.6,96.4 146.0,96.3 147.5,96.3 148.9,103.1 150.3,102.4 151.8,101.8 153.2,101.2 154.6,99.4 156.0,98.1 157.5,96.7 158.9,96.2 160.3,95.6 161.8,94.6 163.2,93.6 164.6,92.9 166.1,92.6 167.5,92.3 168.9,91.6 170.4,91.0 171.8,90.7 173.2,90.2 174.7,90.1 176.1,90.0 177.5,89.6 179.0,89.0 180.4,88.5 181.8,88.0 183.3,87.5 184.7,87.3 186.1,87.1 187.6,86.7 189.0,86.3 190.4,85.9 191.9,85.6 193.3,85.5 194.7,85.4 196.2,85.1 197.6,84.8 199.0,84.6 200.5,84.3 201.9,84.1 203.3,83.9 204.7,83.7 206.2,83.6 207.6,83.4 209.0,83.2 210.5,82.9 211.9,82.6 213.3,82.3 214.8,82.1 216.2,81.9 217.6,81.8 219.1,81.7 220.5,81.5 221.9,81.0 223.4,80.7 224.8,80.3 226.2,80.1 227.7,80.1 229.1,79.9 230.5,79.7 232.0,79.4 233.4,79.2 234.8,78.9 236.3,78.7 237.7,78.6 239.1,78.4 240.6,78.3 242.0,78.2 243.4,78.0 244.9,77.8 246.3,77.5 247.7,77.4 249.2,77.3 250.6,77.1 252.0,77.0 253.4,76.8 254.9,76.6 256.3,76.3 257.7,76.1 259.2,75.9 260.6,75.8 262.0,75.7 263.5,75.5 264.9,75.2 266.3,74.9 267.8,74.7 269.2,74.5 270.6,74.1 272.1,74.1 273.5,73.9 274.9,73.8 276.4,73.6 277.8,73.5 279.2,73.3 280.7,73.1 282.1,73.0 283.5,72.8 285.0,72.7 286.4,72.5 287.8,72.4 289.3,72.3 290.7,72.0 292.1,71.9 293.6,71.7 295.0,71.5 296.4,71.4 297.9,71.3 299.3,71.1 300.7,71.0 302.1,70.9 303.6,70.6 305.0,70.2 306.4,70.0 307.9,69.9 309.3,69.8 310.7,69.7 312.2,69.5 313.6,69.3 315.0,69.1 316.5,69.0 317.9,68.8 319.3,68.7 320.8,68.5 322.2,68.4 323.6,68.3 325.1,68.0 326.5,67.9 327.9,67.6 329.4,67.4 330.8,67.3 332.2,67.3 333.7,67.2 335.1,67.0 336.5,66.9 338.0,66.7 339.4,66.5 340.8,66.4 342.3,66.3 343.7,66.1 345.1,66.0 346.6,65.9 348.0,65.6 349.4,65.4 350.8,65.3 352.3,65.1 353.7,65.0 355.1,64.9 356.6,64.8 358.0,64.7 359.4,64.6 360.9,64.4 362.3,64.2 363.7,64.0 365.2,63.9 366.6,63.8 368.0,63.6 369.5,63.5 370.9,63.3 372.3,63.2 373.8,63.1 375.2,62.9 376.6,62.8 378.1,62.6 379.5,62.4 380.9,62.4 382.4,62.3 383.8,62.2 385.2,62.0 386.7,61.9 388.1,61.8 389.5,61.7 391.0,61.6 392.4,61.3 393.8,61.1 395.3,65.5 396.7,64.6 398.1,62.9 399.5,62.3 401.0,61.5 402.4,60.6 403.8,60.1 405.3,59.7 406.7,59.1 408.1,58.1 409.6,57.4 411.0,57.2 412.4,56.8 413.9,56.5 415.3,56.0 416.7,55.6 418.2,55.0 419.6,54.8 421.0,54.3 422.5,54.0 423.9,53.7 425.3,53.5 426.8,53.2 428.2,53.0 429.6,52.5 431.1,52.2 432.5,51.7 433.9,51.1 435.4,50.8 436.8,50.6 438.2,50.4 439.7,50.1 441.1,49.8 442.5,49.4 444.0,49.1 445.4,48.2 446.8,47.5 448.2,47.2 449.7,47.0 451.1,46.7 452.5,46.2 454.0,45.8 455.4,45.3 456.8,45.0 458.3,44.6 459.7,44.3 461.1,43.9 462.6,43.7 464.0,43.5 465.4,43.3 466.9,43.1 468.3,42.9 469.7,42.7 471.2,42.5 472.6,42.3 474.0,42.1 475.5,41.8 476.9,41.6 478.3,41.4 479.8,41.3 481.2,41.1 482.6,40.9 484.1,40.8 485.5,40.6 486.9,40.5 488.4,40.4 489.8,40.2 491.2,40.0 492.7,39.8 494.1,39.6 495.5,39.4 496.9,39.3 498.4,39.1 499.8,39.0 501.2,38.8 502.7,38.7 504.1,38.5 505.5,38.4 507.0,38.3 508.4,38.1 509.8,37.9 511.3,37.8 512.7,37.5 514.1,37.3 515.6,37.2 517.0,36.9 518.4,36.7 519.9,36.5 521.3,36.3 522.7,36.1 524.2,35.9 525.6,35.6 527.0,35.4 528.5,35.1 529.9,34.9 531.3,34.7 532.8,34.5 534.2,34.4 535.6,34.3 537.1,34.2 538.5,34.0 539.9,33.8 541.4,33.7 542.8,33.4 544.2,33.2 545.6,33.0 547.1,32.7 548.5,32.5 549.9,32.2 551.4,32.1 552.8,31.9 554.2,31.8 555.7,31.7 557.1,31.5 558.5,31.4 560.0,31.1 561.4,31.0 562.8,30.7 564.3,30.5 565.7,30.4 567.1,30.3 568.6,30.1 570.0,30.0 570.0,30.0,120" />
  
  <!-- Linea principale -->
  <polyline fill="none" stroke="#0366d6" stroke-width="2.5" stroke-linecap="round" stroke-linejoin="round" points="30.0,120.0 31.4,119.5 32.9,118.9 34.3,118.4 35.7,118.3 37.2,118.0 38.6,117.4 40.0,117.0 41.5,116.7 42.9,116.1 44.3,115.7 45.8,115.4 47.2,115.2 48.6,114.9 50.1,114.5 51.5,114.1 52.9,113.7 54.4,113.5 55.8,113.3 57.2,113.0 58.6,112.7 60.1,112.4 61.5,112.3 62.9,112.0 64.4,111.0 65.8,110.7 67.2,110.3 68.7,109.9 70.1,109.5 71.5,109.2 73.0,109.0 74.4,108.8 75.8,108.5 77.3,108.1 78.7,107.6 80.1,107.4 81.6,107.0 83.0,106.9 84.4,106.8 85.9,106.7 87.3,106.3 88.7,106.2 90.2,106.0 91.6,105.7 93.0,105.1 94.5,105.0 95.9,104.9 97.3,104.7 98.8,104.2 100.2,104.0 101.6,103.5 103.1,103.2 104.5,102.8 105.9,102.7 107.3,102.5 108.8,102.1 110.2,101.7 111.6,101.4 113.1,101.2 114.5,101.0 115.9,100.9 117.4,100.4 118.8,100.0 120.2,99.6 121.7,99.2 123.1,99.1 124.5,98.9 126.0,98.8 127.4,98.5 128.8,98.3 130.3,98.1 131.7,98.0 133.1,97.8 134.6,97.6 136.0,97.5 137.4,97.4 138.9,97.3 140.3,96.9 141.7,96.6 143.2,96.5 144.6,96.4 146.0,96.3 147.5,96.3 148.9,103.1 150.3,102.4 151.8,101.8 153.2,101.2 154.6,99.4 156.0,98.1 157.5,96.7 158.9,96.2 160.3,95.6 161.8,94.6 163.2,93.6 164.6,92.9 166.1,92.6 167.5,92.3 168.9,91.6 170.4,91.0 171.8,90.7 173.2,90.2 174.7,90.1 176.1,90.0 177.5,89.6 179.0,89.0 180.4,88.5 181.8,88.0 183.3,87.5 184.7,87.3 186.1,87.1 187.6,86.7 189.0,86.3 190.4,85.9 191.9,85.6 193.3,85.5 194.7,85.4 196.2,85.1 197.6,84.8 199.0,84.6 200.5,84.3 201.9,84.1 203.3,83.9 204.7,83.7 206.2,83.6 207.6,83.4 209.0,83.2 210.5,82.9 211.9,82.6 213.3,82.3 214.8,82.1 216.2,81.9 217.6,81.8 219.1,81.7 220.5,81.5 221.9,81.0 223.4,80.7 224.8,80.3 226.2,80.1 227.7,80.1 229.1,79.9 230.5,79.7 232.0,79.4 233.4,79.2 234.8,78.9 236.3,78.7 237.7,78.6 239.1,78.4 240.6,78.3 242.0,78.2 243.4,78.0 244.9,77.8 246.3,77.5 247.7,77.4 249.2,77.3 250.6,77.1 252.0,77.0 253.4,76.8 254.9,76.6 256.3,76.3 257.7,76.1 259.2,75.9 260.6,75.8 262.0,75.7 263.5,75.5 264.9,75.2 266.3,74.9 267.8,74.7 269.2,74.5 270.6,74.1 272.1,74.1 273.5,73.9 274.9,73.8 276.4,73.6 277.8,73.5 279.2,73.3 280.7,73.1 282.1,73.0 283.5,72.8 285.0,72.7 286.4,72.5 287.8,72.4 289.3,72.3 290.7,72.0 292.1,71.9 293.6,71.7 295.0,71.5 296.4,71.4 297.9,71.3 299.3,71.1 300.7,71.0 302.1,70.9 303.6,70.6 305.0,70.2 306.4,70.0 307.9,69.9 309.3,69.8 310.7,69.7 312.2,69.5 313.6,69.3 315.0,69.1 316.5,69.0 317.9,68.8 319.3,68.7 320.8,68.5 322.2,68.4 323.6,68.3 325.1,68.0 326.5,67.9 327.9,67.6 329.4,67.4 330.8,67.3 332.2,67.3 333.7,67.2 335.1,67.0 336.5,66.9 338.0,66.7 339.4,66.5 340.8,66.4 342.3,66.3 343.7,66.1 345.1,66.0 346.6,65.9 348.0,65.6 349.4,65.4 350.8,65.3 352.3,65.1 353.7,65.0 355.1,64.9 356.6,64.8 358.0,64.7 359.4,64.6 360.9,64.4 362.3,64.2 363.7,64.0 365.2,63.9 366.6,63.8 368.0,63.6 369.5,63.5 370.9,63.3 372.3,63.2 373.8,63.1 375.2,62.9 376.6,62.8 378.1,62.6 379.5,62.4 380.9,62.4 382.4,62.3 383.8,62.2 385.2,62.0 386.7,61.9 388.1,61.8 389.5,61.7 391.0,61.6 392.4,61.3 393.8,61.1 395.3,65.5 396.7,64.6 398.1,62.9 399.5,62.3 401.0,61.5 402.4,60.6 403.8,60.1 405.3,59.7 406.7,59.1 408.1,58.1 409.6,57.4 411.0,57.2 412.4,56.8 413.9,56.5 415.3,56.0 416.7,55.6 418.2,55.0 419.6,54.8 421.0,54.3 422.5,54.0 423.9,53.7 425.3,53.5 426.8,53.2 428.2,53.0 429.6,52.5 431.1,52.2 432.5,51.7 433.9,51.1 435.4,50.8 436.8,50.6 438.2,50.4 439.7,50.1 441.1,49.8 442.5,49.4 444.0,49.1 445.4,48.2 446.8,47.5 448.2,47.2 449.7,47.0 451.1,46.7 452.5,46.2 454.0,45.8 455.4,45.3 456.8,45.0 458.3,44.6 459.7,44.3 461.1,43.9 462.6,43.7 464.0,43.5 465.4,43.3 466.9,43.1 468.3,42.9 469.7,42.7 471.2,42.5 472.6,42.3 474.0,42.1 475.5,41.8 476.9,41.6 478.3,41.4 479.8,41.3 481.2,41.1 482.6,40.9 484.1,40.8 485.5,40.6 486.9,40.5 488.4,40.4 489.8,40.2 491.2,40.0 492.7,39.8 494.1,39.6 495.5,39.4 496.9,39.3 498.4,39.1 499.8,39.0 501.2,38.8 502.7,38.7 504.1,38.5 505.5,38.4 507.0,38.3 508.4,38.1 509.8,37.9 511.3,37.8 512.7,37.5 514.1,37.3 515.6,37.2 517.0,36.9 518.4,36.7 519.9,36.5 521.3,36.3 522.7,36.1 524.2,35.9 525.6,35.6 527.0,35.4 528.5,35.1 529.9,34.9 531.3,34.7 532.8,34.5 534.2,34.4 535.6,34.3 537.1,34.2 538.5,34.0 539.9,33.8 541.4,33.7 542.8,33.4 544.2,33.2 545.6,33.0 547.1,32.7 548.5,32.5 549.9,32.2 551.4,32.1 552.8,31.9 554.2,31.8 555.7,31.7 557.1,31.5 558.5,31.4 560.0,31.1 561.4,31.0 562.8,30.7 564.3,30.5 565.7,30.4 567.1,30.3 568.6,30.1 570.0,30.0" />
  
  <!-- Punto finale luminoso -->
  <circle cx="570.0" cy="30.0" r="4" fill="#ffffff" stroke="#0366d6" stroke-width="2.5" />
</svg>