<svg width="600" height="150" viewBox="0 0 600 150" xmlns="http://www.w3.org/2000/svg">
  <defs>
    <filter id="shadow2" x="-2%" y="-2%" width="104%" height="108%">
      <feDropShadow dx="0" dy="2" stdDeviation="3" flood-opacity="0.1" />
    </filter>
    <linearGradient id="fillGrad" x1="0" y1="0" x2="0" y2="1">
      <stop offset="0%" stop-color="#0366d6" stop-opacity="0.3"/>
      <stop offset="100%" stop-color="#0366d6" stop-opacity="0.02"/>
    </linearGradient>
  </defs>
  <rect width="600" height="150" rx="12" fill="#ffffff" filter="url(#shadow2)" stroke="#e1e4e8" stroke-width="1"/>
  <text x="20" y="24" fill="#2b3137" font-family="-apple-system,BlinkMacSystemFont,'Segoe UI',Helvetica,Arial,sans-serif" font-size="14" font-weight="600">📈 Download Growth (Actual: 86.8k)</text>
  
  <!-- Area sotto la linea -->
  <polygon fill="url(#fillGrad)" points="30.0,120.0,120 30.0,120.0 31.3,119.5 32.6,118.9 34.0,118.5 35.3,118.3 36.6,118.1 37.9,117.5 39.3,117.1 40.6,116.8 41.9,116.2 43.2,115.9 44.6,115.6 45.9,115.5 47.2,115.2 48.5,114.8 49.9,114.3 51.2,114.0 52.5,113.8 53.8,113.6 55.1,113.4 56.5,113.0 57.8,112.8 59.1,112.6 60.4,112.4 61.8,111.4 63.1,111.1 64.4,110.7 65.7,110.4 67.1,110.0 68.4,109.7 69.7,109.5 71.0,109.4 72.4,109.1 73.7,108.6 75.0,108.2 76.3,108.0 77.6,107.6 79.0,107.6 80.3,107.5 81.6,107.3 82.9,107.0 84.3,106.8 85.6,106.7 86.9,106.3 88.2,105.8 89.6,105.7 90.9,105.6 92.2,105.4 93.5,105.0 94.9,104.7 96.2,104.3 97.5,104.0 98.8,103.6 100.1,103.6 101.5,103.3 102.8,103.0 104.1,102.6 105.4,102.3 106.8,102.2 108.1,102.0 109.4,101.8 110.7,101.4 112.1,101.0 113.4,100.6 114.7,100.3 116.0,100.1 117.4,100.0 118.7,99.8 120.0,99.5 121.3,99.3 122.6,99.2 124.0,99.0 125.3,98.9 126.6,98.7 127.9,98.5 129.3,98.5 130.6,98.4 131.9,98.0 133.2,97.8 134.6,97.7 135.9,97.5 137.2,97.5 138.5,97.5 139.9,103.9 141.2,103.3 142.5,102.7 143.8,102.1 145.1,100.4 146.5,99.1 147.8,97.8 149.1,97.3 150.4,96.8 151.8,95.9 153.1,94.9 154.4,94.2 155.7,93.9 157.1,93.6 158.4,92.9 159.7,92.4 161.0,92.1 162.4,91.7 163.7,91.5 165.0,91.4 166.3,91.1 167.6,90.5 169.0,90.0 170.3,89.6 171.6,89.1 172.9,88.9 174.3,88.7 175.6,88.3 176.9,87.9 178.2,87.6 179.6,87.3 180.9,87.1 182.2,87.1 183.5,86.8 184.9,86.5 186.2,86.3 187.5,86.1 188.8,85.9 190.1,85.7 191.5,85.5 192.8,85.3 194.1,85.2 195.4,85.0 196.8,84.7 198.1,84.4 199.4,84.1 200.7,84.0 202.1,83.8 203.4,83.7 204.7,83.5 206.0,83.4 207.4,82.9 208.7,82.6 210.0,82.2 211.3,82.0 212.6,82.0 214.0,81.8 215.3,81.6 216.6,81.4 217.9,81.2 219.3,80.9 220.6,80.7 221.9,80.6 223.2,80.4 224.6,80.3 225.9,80.2 227.2,80.0 228.5,79.8 229.9,79.6 231.2,79.4 232.5,79.3 233.8,79.2 235.1,79.1 236.5,78.9 237.8,78.7 239.1,78.4 240.4,78.3 241.8,78.0 243.1,77.9 244.4,77.8 245.7,77.7 247.1,77.4 248.4,77.1 249.7,76.9 251.0,76.7 252.4,76.4 253.7,76.3 255.0,76.2 256.3,76.1 257.6,75.9 259.0,75.7 260.3,75.5 261.6,75.4 262.9,75.2 264.3,75.1 265.6,74.9 266.9,74.8 268.2,74.7 269.6,74.6 270.9,74.3 272.2,74.2 273.5,74.0 274.9,73.9 276.2,73.8 277.5,73.6 278.8,73.5 280.1,73.4 281.5,73.2 282.8,73.0 284.1,72.6 285.4,72.5 286.8,72.3 288.1,72.2 289.4,72.2 290.7,72.0 292.1,71.7 293.4,71.6 294.7,71.5 296.0,71.3 297.4,71.2 298.7,71.0 300.0,70.9 301.3,70.8 302.6,70.5 304.0,70.4 305.3,70.2 306.6,70.0 307.9,69.9 309.3,69.8 310.6,69.8 311.9,69.6 313.2,69.5 314.6,69.3 315.9,69.1 317.2,69.0 318.5,68.9 319.9,68.7 321.2,68.6 322.5,68.5 323.8,68.3 325.1,68.1 326.5,67.9 327.8,67.7 329.1,67.6 330.4,67.5 331.8,67.4 333.1,67.4 334.4,67.3 335.7,67.1 337.1,66.9 338.4,66.8 339.7,66.6 341.0,66.5 342.4,66.4 343.7,66.2 345.0,66.1 346.3,65.9 347.6,65.8 349.0,65.7 350.3,65.5 351.6,65.4 352.9,65.2 354.3,65.2 355.6,65.1 356.9,65.0 358.2,64.8 359.6,64.7 360.9,64.6 362.2,64.5 363.5,64.4 364.9,64.1 366.2,63.9 367.5,68.1 368.8,67.3 370.1,65.7 371.5,65.1 372.8,64.4 374.1,63.4 375.4,63.0 376.8,62.6 378.1,62.0 379.4,61.1 380.7,60.4 382.1,60.2 383.4,59.9 384.7,59.6 386.0,59.1 387.4,58.7 388.7,58.2 390.0,57.9 391.3,57.4 392.6,57.2 394.0,56.9 395.3,56.7 396.6,56.4 397.9,56.2 399.3,55.8 400.6,55.5 401.9,55.0 403.2,54.5 404.6,54.1 405.9,53.9 407.2,53.8 408.5,53.5 409.9,53.2 411.2,52.8 412.5,52.5 413.8,51.7 415.1,51.0 416.5,50.7 417.8,50.5 419.1,50.2 420.4,49.8 421.8,49.4 423.1,48.9 424.4,48.6 425.7,48.3 427.1,48.0 428.4,47.6 429.7,47.4 431.0,47.2 432.4,47.0 433.7,46.9 435.0,46.6 436.3,46.5 437.6,46.2 439.0,46.0 440.3,45.9 441.6,45.6 442.9,45.4 444.3,45.2 445.6,45.1 446.9,44.9 448.2,44.7 449.6,44.6 450.9,44.5 452.2,44.3 453.5,44.2 454.9,44.0 456.2,43.9 457.5,43.7 458.8,43.5 460.1,43.3 461.5,43.2 462.8,43.0 464.1,42.9 465.4,42.8 466.8,42.6 468.1,42.5 469.4,42.3 470.7,42.3 472.1,42.1 473.4,41.9 474.7,41.8 476.0,41.5 477.4,41.3 478.7,41.2 480.0,41.0 481.3,40.8 482.6,40.6 484.0,40.3 485.3,40.2 486.6,39.9 487.9,39.7 489.3,39.5 490.6,39.2 491.9,39.0 493.2,38.8 494.6,38.7 495.9,38.6 497.2,38.5 498.5,38.3 499.9,38.2 501.2,38.0 502.5,37.8 503.8,37.6 505.1,37.4 506.5,37.2 507.8,36.9 509.1,36.8 510.4,36.5 511.8,36.3 513.1,36.2 514.4,36.0 515.7,36.0 517.1,35.8 518.4,35.6 519.7,35.4 521.0,35.3 522.4,35.0 523.7,34.9 525.0,34.7 526.3,34.6 527.6,34.4 529.0,34.4 530.3,34.3 531.6,34.2 532.9,34.0 534.3,33.9 535.6,33.7 536.9,33.6 538.2,33.4 539.6,33.2 540.9,33.1 542.2,32.9 543.5,32.8 544.9,32.7 546.2,32.6 547.5,32.5 548.8,32.3 550.1,32.1 551.5,31.9 552.8,31.7 554.1,31.4 555.4,31.3 556.8,31.2 558.1,31.1 559.4,31.0 560.7,30.9 562.1,30.9 563.4,30.7 564.7,30.6 566.0,30.5 567.4,30.4 568.7,30.2 570.0,30.0 570.0,30.0,120" />
  
  <!-- Linea principale -->
  <polyline fill="none" stroke="#0366d6" stroke-width="2.5" stroke-linecap="round" stroke-linejoin="round" points="30.0,120.0 31.3,119.5 32.6,118.9 34.0,118.5 35.3,118.3 36.6,118.1 37.9,117.5 39.3,117.1 40.6,116.8 41.9,116.2 43.2,115.9 44.6,115.6 45.9,115.5 47.2,115.2 48.5,114.8 49.9,114.3 51.2,114.0 52.5,113.8 53.8,113.6 55.1,113.4 56.5,113.0 57.8,112.8 59.1,112.6 60.4,112.4 61.8,111.4 63.1,111.1 64.4,110.7 65.7,110.4 67.1,110.0 68.4,109.7 69.7,109.5 71.0,109.4 72.4,109.1 73.7,108.6 75.0,108.2 76.3,108.0 77.6,107.6 79.0,107.6 80.3,107.5 81.6,107.3 82.9,107.0 84.3,106.8 85.6,106.7 86.9,106.3 88.2,105.8 89.6,105.7 90.9,105.6 92.2,105.4 93.5,105.0 94.9,104.7 96.2,104.3 97.5,104.0 98.8,103.6 100.1,103.6 101.5,103.3 102.8,103.0 104.1,102.6 105.4,102.3 106.8,102.2 108.1,102.0 109.4,101.8 110.7,101.4 112.1,101.0 113.4,100.6 114.7,100.3 116.0,100.1 117.4,100.0 118.7,99.8 120.0,99.5 121.3,99.3 122.6,99.2 124.0,99.0 125.3,98.9 126.6,98.7 127.9,98.5 129.3,98.5 130.6,98.4 131.9,98.0 133.2,97.8 134.6,97.7 135.9,97.5 137.2,97.5 138.5,97.5 139.9,103.9 141.2,103.3 142.5,102.7 143.8,102.1 145.1,100.4 146.5,99.1 147.8,97.8 149.1,97.3 150.4,96.8 151.8,95.9 153.1,94.9 154.4,94.2 155.7,93.9 157.1,93.6 158.4,92.9 159.7,92.4 161.0,92.1 162.4,91.7 163.7,91.5 165.0,91.4 166.3,91.1 167.6,90.5 169.0,90.0 170.3,89.6 171.6,89.1 172.9,88.9 174.3,88.7 175.6,88.3 176.9,87.9 178.2,87.6 179.6,87.3 180.9,87.1 182.2,87.1 183.5,86.8 184.9,86.5 186.2,86.3 187.5,86.1 188.8,85.9 190.1,85.7 191.5,85.5 192.8,85.3 194.1,85.2 195.4,85.0 196.8,84.7 198.1,84.4 199.4,84.1 200.7,84.0 202.1,83.8 203.4,83.7 204.7,83.5 206.0,83.4 207.4,82.9 208.7,82.6 210.0,82.2 211.3,82.0 212.6,82.0 214.0,81.8 215.3,81.6 216.6,81.4 217.9,81.2 219.3,80.9 220.6,80.7 221.9,80.6 223.2,80.4 224.6,80.3 225.9,80.2 227.2,80.0 228.5,79.8 229.9,79.6 231.2,79.4 232.5,79.3 233.8,79.2 235.1,79.1 236.5,78.9 237.8,78.7 239.1,78.4 240.4,78.3 241.8,78.0 243.1,77.9 244.4,77.8 245.7,77.7 247.1,77.4 248.4,77.1 249.7,76.9 251.0,76.7 252.4,76.4 253.7,76.3 255.0,76.2 256.3,76.1 257.6,75.9 259.0,75.7 260.3,75.5 261.6,75.4 262.9,75.2 264.3,75.1 265.6,74.9 266.9,74.8 268.2,74.7 269.6,74.6 270.9,74.3 272.2,74.2 273.5,74.0 274.9,73.9 276.2,73.8 277.5,73.6 278.8,73.5 280.1,73.4 281.5,73.2 282.8,73.0 284.1,72.6 285.4,72.5 286.8,72.3 288.1,72.2 289.4,72.2 290.7,72.0 292.1,71.7 293.4,71.6 294.7,71.5 296.0,71.3 297.4,71.2 298.7,71.0 300.0,70.9 301.3,70.8 302.6,70.5 304.0,70.4 305.3,70.2 306.6,70.0 307.9,69.9 309.3,69.8 310.6,69.8 311.9,69.6 313.2,69.5 314.6,69.3 315.9,69.1 317.2,69.0 318.5,68.9 319.9,68.7 321.2,68.6 322.5,68.5 323.8,68.3 325.1,68.1 326.5,67.9 327.8,67.7 329.1,67.6 330.4,67.5 331.8,67.4 333.1,67.4 334.4,67.3 335.7,67.1 337.1,66.9 338.4,66.8 339.7,66.6 341.0,66.5 342.4,66.4 343.7,66.2 345.0,66.1 346.3,65.9 347.6,65.8 349.0,65.7 350.3,65.5 351.6,65.4 352.9,65.2 354.3,65.2 355.6,65.1 356.9,65.0 358.2,64.8 359.6,64.7 360.9,64.6 362.2,64.5 363.5,64.4 364.9,64.1 366.2,63.9 367.5,68.1 368.8,67.3 370.1,65.7 371.5,65.1 372.8,64.4 374.1,63.4 375.4,63.0 376.8,62.6 378.1,62.0 379.4,61.1 380.7,60.4 382.1,60.2 383.4,59.9 384.7,59.6 386.0,59.1 387.4,58.7 388.7,58.2 390.0,57.9 391.3,57.4 392.6,57.2 394.0,56.9 395.3,56.7 396.6,56.4 397.9,56.2 399.3,55.8 400.6,55.5 401.9,55.0 403.2,54.5 404.6,54.1 405.9,53.9 407.2,53.8 408.5,53.5 409.9,53.2 411.2,52.8 412.5,52.5 413.8,51.7 415.1,51.0 416.5,50.7 417.8,50.5 419.1,50.2 420.4,49.8 421.8,49.4 423.1,48.9 424.4,48.6 425.7,48.3 427.1,48.0 428.4,47.6 429.7,47.4 431.0,47.2 432.4,47.0 433.7,46.9 435.0,46.6 436.3,46.5 437.6,46.2 439.0,46.0 440.3,45.9 441.6,45.6 442.9,45.4 444.3,45.2 445.6,45.1 446.9,44.9 448.2,44.7 449.6,44.6 450.9,44.5 452.2,44.3 453.5,44.2 454.9,44.0 456.2,43.9 457.5,43.7 458.8,43.5 460.1,43.3 461.5,43.2 462.8,43.0 464.1,42.9 465.4,42.8 466.8,42.6 468.1,42.5 469.4,42.3 470.7,42.3 472.1,42.1 473.4,41.9 474.7,41.8 476.0,41.5 477.4,41.3 478.7,41.2 480.0,41.0 481.3,40.8 482.6,40.6 484.0,40.3 485.3,40.2 486.6,39.9 487.9,39.7 489.3,39.5 490.6,39.2 491.9,39.0 493.2,38.8 494.6,38.7 495.9,38.6 497.2,38.5 498.5,38.3 499.9,38.2 501.2,38.0 502.5,37.8 503.8,37.6 505.1,37.4 506.5,37.2 507.8,36.9 509.1,36.8 510.4,36.5 511.8,36.3 513.1,36.2 514.4,36.0 515.7,36.0 517.1,35.8 518.4,35.6 519.7,35.4 521.0,35.3 522.4,35.0 523.7,34.9 525.0,34.7 526.3,34.6 527.6,34.4 529.0,34.4 530.3,34.3 531.6,34.2 532.9,34.0 534.3,33.9 535.6,33.7 536.9,33.6 538.2,33.4 539.6,33.2 540.9,33.1 542.2,32.9 543.5,32.8 544.9,32.7 546.2,32.6 547.5,32.5 548.8,32.3 550.1,32.1 551.5,31.9 552.8,31.7 554.1,31.4 555.4,31.3 556.8,31.2 558.1,31.1 559.4,31.0 560.7,30.9 562.1,30.9 563.4,30.7 564.7,30.6 566.0,30.5 567.4,30.4 568.7,30.2 570.0,30.0" />
  
  <!-- Punto finale luminoso -->
  <circle cx="570.0" cy="30.0" r="4" fill="#ffffff" stroke="#0366d6" stroke-width="2.5" />
</svg>