<svg width="600" height="150" viewBox="0 0 600 150" xmlns="http://www.w3.org/2000/svg">
  <defs>
    <filter id="shadow2" x="-2%" y="-2%" width="104%" height="108%">
      <feDropShadow dx="0" dy="2" stdDeviation="3" flood-opacity="0.1" />
    </filter>
    <linearGradient id="fillGrad" x1="0" y1="0" x2="0" y2="1">
      <stop offset="0%" stop-color="#0366d6" stop-opacity="0.3"/>
      <stop offset="100%" stop-color="#0366d6" stop-opacity="0.02"/>
    </linearGradient>
  </defs>
  <rect width="600" height="150" rx="12" fill="#ffffff" filter="url(#shadow2)" stroke="#e1e4e8" stroke-width="1"/>
  <text x="20" y="24" fill="#2b3137" font-family="-apple-system,BlinkMacSystemFont,'Segoe UI',Helvetica,Arial,sans-serif" font-size="14" font-weight="600">📈 Download Growth (Actual: 83.9k)</text>
  
  <!-- Area sotto la linea -->
  <polygon fill="url(#fillGrad)" points="30.0,120.0,120 30.0,120.0 31.7,119.4 33.3,118.8 35.0,118.2 36.6,118.1 38.3,117.8 39.9,117.1 41.6,116.6 43.2,116.3 44.9,115.6 46.5,115.3 48.2,114.9 49.8,114.7 51.5,114.4 53.1,113.9 54.8,113.4 56.4,113.0 58.1,112.7 59.7,112.6 61.4,112.2 63.0,111.9 64.7,111.5 66.3,111.4 68.0,111.1 69.6,110.0 71.3,109.6 72.9,109.2 74.6,108.7 76.2,108.4 77.9,108.0 79.5,107.8 81.2,107.6 82.8,107.3 84.5,106.7 86.1,106.3 87.8,105.9 89.4,105.6 91.1,105.5 92.8,105.4 94.4,105.2 96.1,104.8 97.7,104.6 99.4,104.4 101.0,104.0 102.7,103.4 104.3,103.3 106.0,103.2 107.6,103.0 109.3,102.5 110.9,102.2 112.6,101.7 114.2,101.3 115.9,100.9 117.5,100.8 119.2,100.5 120.8,100.1 122.5,99.6 124.1,99.3 125.8,99.1 127.4,98.9 129.1,98.7 130.7,98.2 132.4,97.8 134.0,97.3 135.7,96.9 137.3,96.7 139.0,96.6 140.6,96.4 142.3,96.1 143.9,95.8 145.6,95.6 147.2,95.5 148.9,95.3 150.6,95.1 152.2,94.9 153.9,94.8 155.5,94.7 157.2,94.3 158.8,94.0 160.5,93.9 162.1,93.8 163.8,93.7 165.4,93.7 167.1,101.2 168.7,100.5 170.4,99.8 172.0,99.1 173.7,97.0 175.3,95.6 177.0,94.1 178.6,93.5 180.3,92.9 181.9,91.8 183.6,90.7 185.2,89.8 186.9,89.5 188.5,89.2 190.2,88.4 191.8,87.8 193.5,87.4 195.1,86.9 196.8,86.7 198.4,86.6 200.1,86.2 201.7,85.5 203.4,85.0 205.0,84.5 206.7,83.9 208.3,83.6 210.0,83.4 211.7,82.9 213.3,82.5 215.0,82.1 216.6,81.8 218.3,81.6 219.9,81.5 221.6,81.2 223.2,80.9 224.9,80.6 226.5,80.3 228.2,80.1 229.8,79.9 231.5,79.7 233.1,79.5 234.8,79.3 236.4,79.1 238.1,78.7 239.7,78.4 241.4,78.1 243.0,77.9 244.7,77.7 246.3,77.5 248.0,77.4 249.6,77.2 251.3,76.6 252.9,76.3 254.6,75.8 256.2,75.6 257.9,75.6 259.5,75.4 261.2,75.1 262.8,74.9 264.5,74.6 266.1,74.3 267.8,74.0 269.4,73.9 271.1,73.8 272.8,73.6 274.4,73.5 276.1,73.2 277.7,73.1 279.4,72.7 281.0,72.6 282.7,72.5 284.3,72.3 286.0,72.2 287.6,71.9 289.3,71.7 290.9,71.4 292.6,71.2 294.2,71.0 295.9,70.8 297.5,70.7 299.2,70.5 300.8,70.2 302.5,69.9 304.1,69.7 305.8,69.4 307.4,69.0 309.1,68.9 310.7,68.8 312.4,68.7 314.0,68.4 315.7,68.3 317.3,68.0 319.0,67.9 320.6,67.7 322.3,67.5 323.9,67.3 325.6,67.2 327.2,67.1 328.9,66.9 330.6,66.6 332.2,66.5 333.9,66.2 335.5,66.1 337.2,66.0 338.8,65.8 340.5,65.7 342.1,65.5 343.8,65.3 345.4,65.0 347.1,64.7 348.7,64.4 350.4,64.3 352.0,64.2 353.7,64.1 355.3,63.9 357.0,63.6 358.6,63.4 360.3,63.3 361.9,63.1 363.6,62.9 365.2,62.7 366.9,62.6 368.5,62.5 370.2,62.2 371.8,62.0 373.5,61.8 375.1,61.5 376.8,61.4 378.4,61.4 380.1,61.3 381.7,61.1 383.4,60.9 385.0,60.7 386.7,60.6 388.3,60.3 390.0,60.2 391.7,60.1 393.3,59.9 395.0,59.8 396.6,59.5 398.3,59.3 399.9,59.1 401.6,58.9 403.2,58.8 404.9,58.7 406.5,58.6 408.2,58.5 409.8,58.4 411.5,58.2 413.1,57.9 414.8,57.8 416.4,57.6 418.1,57.5 419.7,57.3 421.4,57.2 423.0,57.0 424.7,56.8 426.3,56.7 428.0,56.5 429.6,56.3 431.3,56.2 432.9,56.0 434.6,55.9 436.2,55.8 437.9,55.7 439.5,55.5 441.2,55.4 442.8,55.2 444.5,55.2 446.1,55.0 447.8,54.7 449.4,54.4 451.1,59.4 452.8,58.4 454.4,56.5 456.1,55.8 457.7,55.0 459.4,53.9 461.0,53.3 462.7,52.9 464.3,52.2 466.0,51.2 467.6,50.4 469.3,50.1 470.9,49.7 472.6,49.4 474.2,48.8 475.9,48.3 477.5,47.7 479.2,47.4 480.8,46.9 482.5,46.6 484.1,46.2 485.8,46.0 487.4,45.7 489.1,45.5 490.7,44.9 492.4,44.6 494.0,44.1 495.7,43.4 497.3,43.0 499.0,42.8 500.6,42.6 502.3,42.3 503.9,41.9 505.6,41.5 507.2,41.2 508.9,40.2 510.6,39.4 512.2,39.0 513.9,38.8 515.5,38.5 517.2,38.0 518.8,37.5 520.5,36.9 522.1,36.5 523.8,36.2 525.4,35.8 527.1,35.4 528.7,35.1 530.4,34.9 532.0,34.7 533.7,34.5 535.3,34.2 537.0,34.0 538.6,33.8 540.3,33.5 541.9,33.4 543.6,33.0 545.2,32.9 546.9,32.6 548.5,32.4 550.2,32.2 551.8,32.1 553.5,31.9 555.1,31.7 556.8,31.6 558.4,31.4 560.1,31.2 561.7,31.0 563.4,30.8 565.0,30.6 566.7,30.4 568.3,30.2 570.0,30.0 570.0,30.0,120" />
  
  <!-- Linea principale -->
  <polyline fill="none" stroke="#0366d6" stroke-width="2.5" stroke-linecap="round" stroke-linejoin="round" points="30.0,120.0 31.7,119.4 33.3,118.8 35.0,118.2 36.6,118.1 38.3,117.8 39.9,117.1 41.6,116.6 43.2,116.3 44.9,115.6 46.5,115.3 48.2,114.9 49.8,114.7 51.5,114.4 53.1,113.9 54.8,113.4 56.4,113.0 58.1,112.7 59.7,112.6 61.4,112.2 63.0,111.9 64.7,111.5 66.3,111.4 68.0,111.1 69.6,110.0 71.3,109.6 72.9,109.2 74.6,108.7 76.2,108.4 77.9,108.0 79.5,107.8 81.2,107.6 82.8,107.3 84.5,106.7 86.1,106.3 87.8,105.9 89.4,105.6 91.1,105.5 92.8,105.4 94.4,105.2 96.1,104.8 97.7,104.6 99.4,104.4 101.0,104.0 102.7,103.4 104.3,103.3 106.0,103.2 107.6,103.0 109.3,102.5 110.9,102.2 112.6,101.7 114.2,101.3 115.9,100.9 117.5,100.8 119.2,100.5 120.8,100.1 122.5,99.6 124.1,99.3 125.8,99.1 127.4,98.9 129.1,98.7 130.7,98.2 132.4,97.8 134.0,97.3 135.7,96.9 137.3,96.7 139.0,96.6 140.6,96.4 142.3,96.1 143.9,95.8 145.6,95.6 147.2,95.5 148.9,95.3 150.6,95.1 152.2,94.9 153.9,94.8 155.5,94.7 157.2,94.3 158.8,94.0 160.5,93.9 162.1,93.8 163.8,93.7 165.4,93.7 167.1,101.2 168.7,100.5 170.4,99.8 172.0,99.1 173.7,97.0 175.3,95.6 177.0,94.1 178.6,93.5 180.3,92.9 181.9,91.8 183.6,90.7 185.2,89.8 186.9,89.5 188.5,89.2 190.2,88.4 191.8,87.8 193.5,87.4 195.1,86.9 196.8,86.7 198.4,86.6 200.1,86.2 201.7,85.5 203.4,85.0 205.0,84.5 206.7,83.9 208.3,83.6 210.0,83.4 211.7,82.9 213.3,82.5 215.0,82.1 216.6,81.8 218.3,81.6 219.9,81.5 221.6,81.2 223.2,80.9 224.9,80.6 226.5,80.3 228.2,80.1 229.8,79.9 231.5,79.7 233.1,79.5 234.8,79.3 236.4,79.1 238.1,78.7 239.7,78.4 241.4,78.1 243.0,77.9 244.7,77.7 246.3,77.5 248.0,77.4 249.6,77.2 251.3,76.6 252.9,76.3 254.6,75.8 256.2,75.6 257.9,75.6 259.5,75.4 261.2,75.1 262.8,74.9 264.5,74.6 266.1,74.3 267.8,74.0 269.4,73.9 271.1,73.8 272.8,73.6 274.4,73.5 276.1,73.2 277.7,73.1 279.4,72.7 281.0,72.6 282.7,72.5 284.3,72.3 286.0,72.2 287.6,71.9 289.3,71.7 290.9,71.4 292.6,71.2 294.2,71.0 295.9,70.8 297.5,70.7 299.2,70.5 300.8,70.2 302.5,69.9 304.1,69.7 305.8,69.4 307.4,69.0 309.1,68.9 310.7,68.8 312.4,68.7 314.0,68.4 315.7,68.3 317.3,68.0 319.0,67.9 320.6,67.7 322.3,67.5 323.9,67.3 325.6,67.2 327.2,67.1 328.9,66.9 330.6,66.6 332.2,66.5 333.9,66.2 335.5,66.1 337.2,66.0 338.8,65.8 340.5,65.7 342.1,65.5 343.8,65.3 345.4,65.0 347.1,64.7 348.7,64.4 350.4,64.3 352.0,64.2 353.7,64.1 355.3,63.9 357.0,63.6 358.6,63.4 360.3,63.3 361.9,63.1 363.6,62.9 365.2,62.7 366.9,62.6 368.5,62.5 370.2,62.2 371.8,62.0 373.5,61.8 375.1,61.5 376.8,61.4 378.4,61.4 380.1,61.3 381.7,61.1 383.4,60.9 385.0,60.7 386.7,60.6 388.3,60.3 390.0,60.2 391.7,60.1 393.3,59.9 395.0,59.8 396.6,59.5 398.3,59.3 399.9,59.1 401.6,58.9 403.2,58.8 404.9,58.7 406.5,58.6 408.2,58.5 409.8,58.4 411.5,58.2 413.1,57.9 414.8,57.8 416.4,57.6 418.1,57.5 419.7,57.3 421.4,57.2 423.0,57.0 424.7,56.8 426.3,56.7 428.0,56.5 429.6,56.3 431.3,56.2 432.9,56.0 434.6,55.9 436.2,55.8 437.9,55.7 439.5,55.5 441.2,55.4 442.8,55.2 444.5,55.2 446.1,55.0 447.8,54.7 449.4,54.4 451.1,59.4 452.8,58.4 454.4,56.5 456.1,55.8 457.7,55.0 459.4,53.9 461.0,53.3 462.7,52.9 464.3,52.2 466.0,51.2 467.6,50.4 469.3,50.1 470.9,49.7 472.6,49.4 474.2,48.8 475.9,48.3 477.5,47.7 479.2,47.4 480.8,46.9 482.5,46.6 484.1,46.2 485.8,46.0 487.4,45.7 489.1,45.5 490.7,44.9 492.4,44.6 494.0,44.1 495.7,43.4 497.3,43.0 499.0,42.8 500.6,42.6 502.3,42.3 503.9,41.9 505.6,41.5 507.2,41.2 508.9,40.2 510.6,39.4 512.2,39.0 513.9,38.8 515.5,38.5 517.2,38.0 518.8,37.5 520.5,36.9 522.1,36.5 523.8,36.2 525.4,35.8 527.1,35.4 528.7,35.1 530.4,34.9 532.0,34.7 533.7,34.5 535.3,34.2 537.0,34.0 538.6,33.8 540.3,33.5 541.9,33.4 543.6,33.0 545.2,32.9 546.9,32.6 548.5,32.4 550.2,32.2 551.8,32.1 553.5,31.9 555.1,31.7 556.8,31.6 558.4,31.4 560.1,31.2 561.7,31.0 563.4,30.8 565.0,30.6 566.7,30.4 568.3,30.2 570.0,30.0" />
  
  <!-- Punto finale luminoso -->
  <circle cx="570.0" cy="30.0" r="4" fill="#ffffff" stroke="#0366d6" stroke-width="2.5" />
</svg>