<svg width="600" height="150" viewBox="0 0 600 150" xmlns="http://www.w3.org/2000/svg">
  <defs>
    <filter id="shadow2" x="-2%" y="-2%" width="104%" height="108%">
      <feDropShadow dx="0" dy="2" stdDeviation="3" flood-opacity="0.1" />
    </filter>
    <linearGradient id="fillGrad" x1="0" y1="0" x2="0" y2="1">
      <stop offset="0%" stop-color="#0366d6" stop-opacity="0.3"/>
      <stop offset="100%" stop-color="#0366d6" stop-opacity="0.02"/>
    </linearGradient>
  </defs>
  <rect width="600" height="150" rx="12" fill="#ffffff" filter="url(#shadow2)" stroke="#e1e4e8" stroke-width="1"/>
  <text x="20" y="24" fill="#2b3137" font-family="-apple-system,BlinkMacSystemFont,'Segoe UI',Helvetica,Arial,sans-serif" font-size="14" font-weight="600">📈 Download Growth (Actual: 85.7k)</text>
  
  <!-- Area sotto la linea -->
  <polygon fill="url(#fillGrad)" points="30.0,120.0,120 30.0,120.0 31.5,119.5 32.9,118.9 34.4,118.4 35.8,118.2 37.3,118.0 38.7,117.3 40.2,116.9 41.6,116.7 43.1,116.0 44.6,115.7 46.0,115.4 47.5,115.2 48.9,114.9 50.4,114.5 51.8,114.0 53.3,113.6 54.7,113.4 56.2,113.2 57.7,112.9 59.1,112.6 60.6,112.3 62.0,112.2 63.5,111.9 64.9,110.9 66.4,110.6 67.8,110.2 69.3,109.8 70.8,109.4 72.2,109.1 73.7,108.9 75.1,108.7 76.6,108.4 78.0,107.9 79.5,107.5 80.9,107.2 82.4,106.9 83.9,106.8 85.3,106.7 86.8,106.5 88.2,106.2 89.7,106.0 91.1,105.9 92.6,105.5 94.0,104.9 95.5,104.8 97.0,104.7 98.4,104.5 99.9,104.1 101.3,103.8 102.8,103.3 104.2,103.0 105.7,102.6 107.1,102.5 108.6,102.3 110.1,101.9 111.5,101.5 113.0,101.2 114.4,101.0 115.9,100.8 117.3,100.6 118.8,100.2 120.2,99.8 121.7,99.4 123.2,99.0 124.6,98.8 126.1,98.7 127.5,98.5 129.0,98.2 130.4,98.0 131.9,97.9 133.3,97.7 134.8,97.6 136.3,97.4 137.7,97.2 139.2,97.1 140.6,97.0 142.1,96.6 143.5,96.4 145.0,96.3 146.4,96.1 147.9,96.1 149.4,96.1 150.8,102.9 152.3,102.2 153.7,101.6 155.2,101.0 156.6,99.1 158.1,97.8 159.5,96.4 161.0,95.9 162.5,95.3 163.9,94.4 165.4,93.3 166.8,92.6 168.3,92.3 169.7,92.0 171.2,91.2 172.6,90.7 174.1,90.3 175.6,89.9 177.0,89.7 178.5,89.6 179.9,89.2 181.4,88.6 182.8,88.2 184.3,87.7 185.7,87.2 187.2,86.9 188.7,86.7 190.1,86.3 191.6,85.9 193.0,85.5 194.5,85.2 195.9,85.1 197.4,85.0 198.8,84.8 200.3,84.4 201.8,84.2 203.2,83.9 204.7,83.7 206.1,83.5 207.6,83.3 209.0,83.2 210.5,83.0 211.9,82.8 213.4,82.5 214.9,82.2 216.3,81.9 217.8,81.7 219.2,81.5 220.7,81.4 222.1,81.2 223.6,81.1 225.0,80.6 226.5,80.2 228.0,79.8 229.4,79.7 230.9,79.6 232.3,79.4 233.8,79.2 235.2,79.0 236.7,78.7 238.1,78.4 239.6,78.2 241.1,78.1 242.5,78.0 244.0,77.8 245.4,77.7 246.9,77.5 248.3,77.3 249.8,77.0 251.2,76.9 252.7,76.8 254.2,76.6 255.6,76.6 257.1,76.3 258.5,76.1 260.0,75.8 261.4,75.6 262.9,75.4 264.3,75.3 265.8,75.2 267.3,75.0 268.7,74.7 270.2,74.4 271.6,74.2 273.1,74.0 274.5,73.6 276.0,73.5 277.4,73.4 278.9,73.3 280.4,73.1 281.8,73.0 283.3,72.8 284.7,72.6 286.2,72.4 287.6,72.3 289.1,72.1 290.5,72.0 292.0,71.9 293.5,71.7 294.9,71.5 296.4,71.3 297.8,71.1 299.3,71.0 300.7,70.9 302.2,70.7 303.6,70.6 305.1,70.5 306.5,70.3 308.0,70.0 309.5,69.7 310.9,69.5 312.4,69.3 313.8,69.3 315.3,69.2 316.7,69.0 318.2,68.7 319.6,68.6 321.1,68.5 322.6,68.3 324.0,68.1 325.5,67.9 326.9,67.8 328.4,67.7 329.8,67.5 331.3,67.3 332.7,67.0 334.2,66.8 335.7,66.7 337.1,66.7 338.6,66.6 340.0,66.4 341.5,66.3 342.9,66.1 344.4,66.0 345.8,65.8 347.3,65.7 348.8,65.5 350.2,65.4 351.7,65.3 353.1,65.0 354.6,64.8 356.0,64.6 357.5,64.5 358.9,64.3 360.4,64.3 361.9,64.2 363.3,64.1 364.8,64.0 366.2,63.8 367.7,63.6 369.1,63.4 370.6,63.3 372.0,63.2 373.5,63.0 375.0,62.9 376.4,62.7 377.9,62.6 379.3,62.4 380.8,62.3 382.2,62.1 383.7,62.0 385.1,61.8 386.6,61.7 388.1,61.6 389.5,61.5 391.0,61.4 392.4,61.2 393.9,61.1 395.3,61.1 396.8,60.9 398.2,60.6 399.7,60.4 401.2,64.9 402.6,64.0 404.1,62.3 405.5,61.7 407.0,60.9 408.4,59.9 409.9,59.4 411.3,59.0 412.8,58.4 414.3,57.4 415.7,56.7 417.2,56.5 418.6,56.1 420.1,55.8 421.5,55.3 423.0,54.8 424.4,54.3 425.9,54.0 427.4,53.5 428.8,53.3 430.3,52.9 431.7,52.7 433.2,52.5 434.6,52.2 436.1,51.7 437.5,51.4 439.0,51.0 440.5,50.4 441.9,50.0 443.4,49.8 444.8,49.6 446.3,49.4 447.7,49.0 449.2,48.6 450.6,48.3 452.1,47.4 453.6,46.7 455.0,46.4 456.5,46.2 457.9,45.9 459.4,45.4 460.8,45.0 462.3,44.5 463.7,44.1 465.2,43.8 466.7,43.5 468.1,43.0 469.6,42.8 471.0,42.7 472.5,42.5 473.9,42.3 475.4,42.0 476.8,41.9 478.3,41.6 479.8,41.4 481.2,41.2 482.7,40.9 484.1,40.8 485.6,40.6 487.0,40.4 488.5,40.2 489.9,40.0 491.4,39.9 492.9,39.7 494.3,39.6 495.8,39.5 497.2,39.3 498.7,39.1 500.1,38.9 501.6,38.7 503.0,38.5 504.5,38.4 506.0,38.2 507.4,38.1 508.9,37.9 510.3,37.8 511.8,37.6 513.2,37.5 514.7,37.4 516.1,37.2 517.6,37.0 519.1,36.9 520.5,36.6 522.0,36.4 523.4,36.3 524.9,36.0 526.3,35.8 527.8,35.6 529.2,35.4 530.7,35.2 532.2,34.9 533.6,34.7 535.1,34.5 536.5,34.2 538.0,34.0 539.4,33.7 540.9,33.6 542.3,33.5 543.8,33.3 545.3,33.2 546.7,33.0 548.2,32.8 549.6,32.7 551.1,32.5 552.5,32.3 554.0,32.0 555.4,31.7 556.9,31.6 558.4,31.2 559.8,31.1 561.3,30.9 562.7,30.8 564.2,30.7 565.6,30.5 567.1,30.4 568.5,30.1 570.0,30.0 570.0,30.0,120" />
  
  <!-- Linea principale -->
  <polyline fill="none" stroke="#0366d6" stroke-width="2.5" stroke-linecap="round" stroke-linejoin="round" points="30.0,120.0 31.5,119.5 32.9,118.9 34.4,118.4 35.8,118.2 37.3,118.0 38.7,117.3 40.2,116.9 41.6,116.7 43.1,116.0 44.6,115.7 46.0,115.4 47.5,115.2 48.9,114.9 50.4,114.5 51.8,114.0 53.3,113.6 54.7,113.4 56.2,113.2 57.7,112.9 59.1,112.6 60.6,112.3 62.0,112.2 63.5,111.9 64.9,110.9 66.4,110.6 67.8,110.2 69.3,109.8 70.8,109.4 72.2,109.1 73.7,108.9 75.1,108.7 76.6,108.4 78.0,107.9 79.5,107.5 80.9,107.2 82.4,106.9 83.9,106.8 85.3,106.7 86.8,106.5 88.2,106.2 89.7,106.0 91.1,105.9 92.6,105.5 94.0,104.9 95.5,104.8 97.0,104.7 98.4,104.5 99.9,104.1 101.3,103.8 102.8,103.3 104.2,103.0 105.7,102.6 107.1,102.5 108.6,102.3 110.1,101.9 111.5,101.5 113.0,101.2 114.4,101.0 115.9,100.8 117.3,100.6 118.8,100.2 120.2,99.8 121.7,99.4 123.2,99.0 124.6,98.8 126.1,98.7 127.5,98.5 129.0,98.2 130.4,98.0 131.9,97.9 133.3,97.7 134.8,97.6 136.3,97.4 137.7,97.2 139.2,97.1 140.6,97.0 142.1,96.6 143.5,96.4 145.0,96.3 146.4,96.1 147.9,96.1 149.4,96.1 150.8,102.9 152.3,102.2 153.7,101.6 155.2,101.0 156.6,99.1 158.1,97.8 159.5,96.4 161.0,95.9 162.5,95.3 163.9,94.4 165.4,93.3 166.8,92.6 168.3,92.3 169.7,92.0 171.2,91.2 172.6,90.7 174.1,90.3 175.6,89.9 177.0,89.7 178.5,89.6 179.9,89.2 181.4,88.6 182.8,88.2 184.3,87.7 185.7,87.2 187.2,86.9 188.7,86.7 190.1,86.3 191.6,85.9 193.0,85.5 194.5,85.2 195.9,85.1 197.4,85.0 198.8,84.8 200.3,84.4 201.8,84.2 203.2,83.9 204.7,83.7 206.1,83.5 207.6,83.3 209.0,83.2 210.5,83.0 211.9,82.8 213.4,82.5 214.9,82.2 216.3,81.9 217.8,81.7 219.2,81.5 220.7,81.4 222.1,81.2 223.6,81.1 225.0,80.6 226.5,80.2 228.0,79.8 229.4,79.7 230.9,79.6 232.3,79.4 233.8,79.2 235.2,79.0 236.7,78.7 238.1,78.4 239.6,78.2 241.1,78.1 242.5,78.0 244.0,77.8 245.4,77.7 246.9,77.5 248.3,77.3 249.8,77.0 251.2,76.9 252.7,76.8 254.2,76.6 255.6,76.6 257.1,76.3 258.5,76.1 260.0,75.8 261.4,75.6 262.9,75.4 264.3,75.3 265.8,75.2 267.3,75.0 268.7,74.7 270.2,74.4 271.6,74.2 273.1,74.0 274.5,73.6 276.0,73.5 277.4,73.4 278.9,73.3 280.4,73.1 281.8,73.0 283.3,72.8 284.7,72.6 286.2,72.4 287.6,72.3 289.1,72.1 290.5,72.0 292.0,71.9 293.5,71.7 294.9,71.5 296.4,71.3 297.8,71.1 299.3,71.0 300.7,70.9 302.2,70.7 303.6,70.6 305.1,70.5 306.5,70.3 308.0,70.0 309.5,69.7 310.9,69.5 312.4,69.3 313.8,69.3 315.3,69.2 316.7,69.0 318.2,68.7 319.6,68.6 321.1,68.5 322.6,68.3 324.0,68.1 325.5,67.9 326.9,67.8 328.4,67.7 329.8,67.5 331.3,67.3 332.7,67.0 334.2,66.8 335.7,66.7 337.1,66.7 338.6,66.6 340.0,66.4 341.5,66.3 342.9,66.1 344.4,66.0 345.8,65.8 347.3,65.7 348.8,65.5 350.2,65.4 351.7,65.3 353.1,65.0 354.6,64.8 356.0,64.6 357.5,64.5 358.9,64.3 360.4,64.3 361.9,64.2 363.3,64.1 364.8,64.0 366.2,63.8 367.7,63.6 369.1,63.4 370.6,63.3 372.0,63.2 373.5,63.0 375.0,62.9 376.4,62.7 377.9,62.6 379.3,62.4 380.8,62.3 382.2,62.1 383.7,62.0 385.1,61.8 386.6,61.7 388.1,61.6 389.5,61.5 391.0,61.4 392.4,61.2 393.9,61.1 395.3,61.1 396.8,60.9 398.2,60.6 399.7,60.4 401.2,64.9 402.6,64.0 404.1,62.3 405.5,61.7 407.0,60.9 408.4,59.9 409.9,59.4 411.3,59.0 412.8,58.4 414.3,57.4 415.7,56.7 417.2,56.5 418.6,56.1 420.1,55.8 421.5,55.3 423.0,54.8 424.4,54.3 425.9,54.0 427.4,53.5 428.8,53.3 430.3,52.9 431.7,52.7 433.2,52.5 434.6,52.2 436.1,51.7 437.5,51.4 439.0,51.0 440.5,50.4 441.9,50.0 443.4,49.8 444.8,49.6 446.3,49.4 447.7,49.0 449.2,48.6 450.6,48.3 452.1,47.4 453.6,46.7 455.0,46.4 456.5,46.2 457.9,45.9 459.4,45.4 460.8,45.0 462.3,44.5 463.7,44.1 465.2,43.8 466.7,43.5 468.1,43.0 469.6,42.8 471.0,42.7 472.5,42.5 473.9,42.3 475.4,42.0 476.8,41.9 478.3,41.6 479.8,41.4 481.2,41.2 482.7,40.9 484.1,40.8 485.6,40.6 487.0,40.4 488.5,40.2 489.9,40.0 491.4,39.9 492.9,39.7 494.3,39.6 495.8,39.5 497.2,39.3 498.7,39.1 500.1,38.9 501.6,38.7 503.0,38.5 504.5,38.4 506.0,38.2 507.4,38.1 508.9,37.9 510.3,37.8 511.8,37.6 513.2,37.5 514.7,37.4 516.1,37.2 517.6,37.0 519.1,36.9 520.5,36.6 522.0,36.4 523.4,36.3 524.9,36.0 526.3,35.8 527.8,35.6 529.2,35.4 530.7,35.2 532.2,34.9 533.6,34.7 535.1,34.5 536.5,34.2 538.0,34.0 539.4,33.7 540.9,33.6 542.3,33.5 543.8,33.3 545.3,33.2 546.7,33.0 548.2,32.8 549.6,32.7 551.1,32.5 552.5,32.3 554.0,32.0 555.4,31.7 556.9,31.6 558.4,31.2 559.8,31.1 561.3,30.9 562.7,30.8 564.2,30.7 565.6,30.5 567.1,30.4 568.5,30.1 570.0,30.0" />
  
  <!-- Punto finale luminoso -->
  <circle cx="570.0" cy="30.0" r="4" fill="#ffffff" stroke="#0366d6" stroke-width="2.5" />
</svg>