<svg width="600" height="150" viewBox="0 0 600 150" xmlns="http://www.w3.org/2000/svg">
  <defs>
    <filter id="shadow2" x="-2%" y="-2%" width="104%" height="108%">
      <feDropShadow dx="0" dy="2" stdDeviation="3" flood-opacity="0.1" />
    </filter>
    <linearGradient id="fillGrad" x1="0" y1="0" x2="0" y2="1">
      <stop offset="0%" stop-color="#0366d6" stop-opacity="0.3"/>
      <stop offset="100%" stop-color="#0366d6" stop-opacity="0.02"/>
    </linearGradient>
  </defs>
  <rect width="600" height="150" rx="12" fill="#ffffff" filter="url(#shadow2)" stroke="#e1e4e8" stroke-width="1"/>
  <text x="20" y="24" fill="#2b3137" font-family="-apple-system,BlinkMacSystemFont,'Segoe UI',Helvetica,Arial,sans-serif" font-size="14" font-weight="600">📈 Download Growth (Actual: 88.2k)</text>
  
  <!-- Area sotto la linea -->
  <polygon fill="url(#fillGrad)" points="30.0,120.0,120 30.0,120.0 31.2,119.5 32.4,119.0 33.6,118.6 34.8,118.4 36.0,118.2 37.2,117.7 38.4,117.3 39.6,117.0 40.8,116.5 42.0,116.2 43.2,115.9 44.4,115.7 45.6,115.5 46.8,115.1 48.0,114.7 49.2,114.4 50.4,114.2 51.6,114.0 52.8,113.8 54.0,113.5 55.2,113.2 56.4,113.1 57.6,112.8 58.8,111.9 60.0,111.7 61.2,111.3 62.4,111.0 63.6,110.7 64.8,110.4 66.0,110.2 67.2,110.0 68.4,109.8 69.6,109.3 70.8,109.0 72.0,108.7 73.2,108.4 74.4,108.3 75.6,108.3 76.8,108.1 78.0,107.8 79.2,107.7 80.4,107.5 81.6,107.2 82.8,106.7 84.0,106.6 85.2,106.5 86.4,106.3 87.6,105.9 88.8,105.7 90.0,105.3 91.2,105.0 92.4,104.7 93.6,104.6 94.8,104.4 96.0,104.0 97.2,103.7 98.4,103.4 99.6,103.3 100.8,103.1 102.0,102.9 103.2,102.5 104.4,102.2 105.6,101.8 106.8,101.5 108.0,101.3 109.2,101.2 110.4,101.1 111.6,100.8 112.8,100.6 114.0,100.5 115.2,100.3 116.4,100.2 117.6,100.0 118.8,99.9 120.0,99.8 121.2,99.7 122.4,99.4 123.6,99.2 124.8,99.1 126.0,99.0 127.2,98.9 128.4,98.9 129.6,104.9 130.8,104.3 132.0,103.8 133.2,103.2 134.4,101.6 135.6,100.4 136.8,99.2 138.0,98.7 139.2,98.2 140.4,97.4 141.6,96.5 142.8,95.8 144.0,95.5 145.2,95.3 146.4,94.6 147.6,94.1 148.8,93.8 150.0,93.4 151.2,93.3 152.4,93.2 153.6,92.9 154.8,92.3 156.0,91.9 157.2,91.5 158.4,91.0 159.6,90.8 160.8,90.7 162.0,90.3 163.2,89.9 164.4,89.6 165.6,89.3 166.8,89.2 168.0,89.1 169.2,88.9 170.4,88.6 171.6,88.4 172.8,88.2 174.0,88.0 175.2,87.8 176.4,87.7 177.6,87.5 178.8,87.4 180.0,87.2 181.2,86.9 182.4,86.7 183.6,86.4 184.8,86.2 186.0,86.1 187.2,85.9 188.4,85.8 189.6,85.7 190.8,85.2 192.0,84.9 193.2,84.6 194.4,84.4 195.6,84.4 196.8,84.2 198.0,84.0 199.2,83.8 200.4,83.6 201.6,83.3 202.8,83.1 204.0,83.1 205.2,82.9 206.4,82.8 207.6,82.7 208.8,82.5 210.0,82.3 211.2,82.1 212.4,82.0 213.6,81.9 214.8,81.8 216.0,81.7 217.2,81.4 218.4,81.3 219.6,81.1 220.8,80.9 222.0,80.7 223.2,80.5 224.4,80.5 225.6,80.3 226.8,80.1 228.0,79.8 229.2,79.6 230.4,79.4 231.6,79.1 232.8,79.0 234.0,78.9 235.2,78.8 236.4,78.7 237.6,78.5 238.8,78.3 240.0,78.2 241.2,78.0 242.4,77.9 243.6,77.8 244.8,77.7 246.0,77.6 247.2,77.4 248.4,77.2 249.6,77.1 250.8,76.9 252.0,76.8 253.2,76.7 254.4,76.5 255.6,76.4 256.8,76.3 258.0,76.2 259.2,75.9 260.4,75.6 261.6,75.4 262.8,75.3 264.0,75.2 265.2,75.2 266.4,75.0 267.6,74.8 268.8,74.6 270.0,74.5 271.2,74.4 272.4,74.2 273.6,74.1 274.8,74.0 276.0,73.9 277.2,73.6 278.4,73.5 279.6,73.3 280.8,73.1 282.0,73.0 283.2,73.0 284.4,72.9 285.6,72.8 286.8,72.6 288.0,72.5 289.2,72.3 290.4,72.2 291.6,72.1 292.8,72.0 294.0,71.8 295.2,71.7 296.4,71.5 297.6,71.3 298.8,71.2 300.0,71.0 301.2,70.9 302.4,70.8 303.6,70.7 304.8,70.7 306.0,70.6 307.2,70.4 308.4,70.2 309.6,70.1 310.8,69.9 312.0,69.9 313.2,69.7 314.4,69.6 315.6,69.4 316.8,69.3 318.0,69.2 319.2,69.1 320.4,68.9 321.6,68.8 322.8,68.7 324.0,68.6 325.2,68.5 326.4,68.4 327.6,68.3 328.8,68.2 330.0,68.1 331.2,68.0 332.4,67.9 333.6,67.6 334.8,67.4 336.0,71.4 337.2,70.6 338.4,69.1 339.6,68.5 340.8,67.9 342.0,67.0 343.2,66.5 344.4,66.2 345.6,65.7 346.8,64.8 348.0,64.2 349.2,64.0 350.4,63.6 351.6,63.4 352.8,62.9 354.0,62.5 355.2,62.0 356.4,61.8 357.6,61.4 358.8,61.1 360.0,60.8 361.2,60.7 362.4,60.4 363.6,60.2 364.8,59.8 366.0,59.5 367.2,59.1 368.4,58.6 369.6,58.2 370.8,58.1 372.0,57.9 373.2,57.7 374.4,57.3 375.6,57.0 376.8,56.8 378.0,56.0 379.2,55.3 380.4,55.0 381.6,54.9 382.8,54.6 384.0,54.2 385.2,53.8 386.4,53.4 387.6,53.1 388.8,52.8 390.0,52.5 391.2,52.1 392.4,51.9 393.6,51.8 394.8,51.6 396.0,51.4 397.2,51.2 398.4,51.1 399.6,50.8 400.8,50.7 402.0,50.5 403.2,50.3 404.4,50.1 405.6,49.9 406.8,49.8 408.0,49.6 409.2,49.5 410.4,49.3 411.6,49.2 412.8,49.1 414.0,49.0 415.2,48.8 416.4,48.7 417.6,48.5 418.8,48.3 420.0,48.1 421.2,48.0 422.4,47.8 423.6,47.7 424.8,47.6 426.0,47.5 427.2,47.3 428.4,47.2 429.6,47.1 430.8,47.0 432.0,46.8 433.2,46.7 434.4,46.4 435.6,46.3 436.8,46.1 438.0,45.9 439.2,45.7 440.4,45.6 441.6,45.3 442.8,45.2 444.0,45.0 445.2,44.7 446.4,44.5 447.6,44.3 448.8,44.1 450.0,43.9 451.2,43.8 452.4,43.7 453.6,43.6 454.8,43.4 456.0,43.3 457.2,43.1 458.4,43.0 459.6,42.8 460.8,42.6 462.0,42.4 463.2,42.2 464.4,42.0 465.6,41.7 466.8,41.6 468.0,41.4 469.2,41.3 470.4,41.2 471.6,41.1 472.8,40.9 474.0,40.7 475.2,40.6 476.4,40.3 477.6,40.2 478.8,40.1 480.0,39.9 481.2,39.8 482.4,39.7 483.6,39.7 484.8,39.5 486.0,39.4 487.2,39.3 488.4,39.1 489.6,39.0 490.8,38.8 492.0,38.7 493.2,38.6 494.4,38.4 495.6,38.3 496.8,38.2 498.0,38.1 499.2,37.9 500.4,37.8 501.6,37.6 502.8,37.4 504.0,37.2 505.2,37.0 506.4,36.9 507.6,36.8 508.8,36.7 510.0,36.6 511.2,36.5 512.4,36.4 513.6,36.3 514.8,36.2 516.0,36.1 517.2,36.0 518.4,35.9 519.6,35.6 520.8,35.5 522.0,35.4 523.2,35.3 524.4,35.1 525.6,35.0 526.8,34.9 528.0,34.8 529.2,34.7 530.4,34.6 531.6,34.4 532.8,34.1 534.0,34.0 535.2,33.7 536.4,33.6 537.6,33.4 538.8,33.3 540.0,33.1 541.2,33.0 542.4,32.9 543.6,32.8 544.8,32.7 546.0,32.5 547.2,32.3 548.4,32.2 549.6,32.0 550.8,31.9 552.0,31.7 553.2,31.5 554.4,31.4 555.6,31.4 556.8,31.2 558.0,31.2 559.2,31.0 560.4,30.9 561.6,30.7 562.8,30.6 564.0,30.4 565.2,30.3 566.4,30.2 567.6,30.1 568.8,30.1 570.0,30.0 570.0,30.0,120" />
  
  <!-- Linea principale -->
  <polyline fill="none" stroke="#0366d6" stroke-width="2.5" stroke-linecap="round" stroke-linejoin="round" points="30.0,120.0 31.2,119.5 32.4,119.0 33.6,118.6 34.8,118.4 36.0,118.2 37.2,117.7 38.4,117.3 39.6,117.0 40.8,116.5 42.0,116.2 43.2,115.9 44.4,115.7 45.6,115.5 46.8,115.1 48.0,114.7 49.2,114.4 50.4,114.2 51.6,114.0 52.8,113.8 54.0,113.5 55.2,113.2 56.4,113.1 57.6,112.8 58.8,111.9 60.0,111.7 61.2,111.3 62.4,111.0 63.6,110.7 64.8,110.4 66.0,110.2 67.2,110.0 68.4,109.8 69.6,109.3 70.8,109.0 72.0,108.7 73.2,108.4 74.4,108.3 75.6,108.3 76.8,108.1 78.0,107.8 79.2,107.7 80.4,107.5 81.6,107.2 82.8,106.7 84.0,106.6 85.2,106.5 86.4,106.3 87.6,105.9 88.8,105.7 90.0,105.3 91.2,105.0 92.4,104.7 93.6,104.6 94.8,104.4 96.0,104.0 97.2,103.7 98.4,103.4 99.6,103.3 100.8,103.1 102.0,102.9 103.2,102.5 104.4,102.2 105.6,101.8 106.8,101.5 108.0,101.3 109.2,101.2 110.4,101.1 111.6,100.8 112.8,100.6 114.0,100.5 115.2,100.3 116.4,100.2 117.6,100.0 118.8,99.9 120.0,99.8 121.2,99.7 122.4,99.4 123.6,99.2 124.8,99.1 126.0,99.0 127.2,98.9 128.4,98.9 129.6,104.9 130.8,104.3 132.0,103.8 133.2,103.2 134.4,101.6 135.6,100.4 136.8,99.2 138.0,98.7 139.2,98.2 140.4,97.4 141.6,96.5 142.8,95.8 144.0,95.5 145.2,95.3 146.4,94.6 147.6,94.1 148.8,93.8 150.0,93.4 151.2,93.3 152.4,93.2 153.6,92.9 154.8,92.3 156.0,91.9 157.2,91.5 158.4,91.0 159.6,90.8 160.8,90.7 162.0,90.3 163.2,89.9 164.4,89.6 165.6,89.3 166.8,89.2 168.0,89.1 169.2,88.9 170.4,88.6 171.6,88.4 172.8,88.2 174.0,88.0 175.2,87.8 176.4,87.7 177.6,87.5 178.8,87.4 180.0,87.2 181.2,86.9 182.4,86.7 183.6,86.4 184.8,86.2 186.0,86.1 187.2,85.9 188.4,85.8 189.6,85.7 190.8,85.2 192.0,84.9 193.2,84.6 194.4,84.4 195.6,84.4 196.8,84.2 198.0,84.0 199.2,83.8 200.4,83.6 201.6,83.3 202.8,83.1 204.0,83.1 205.2,82.9 206.4,82.8 207.6,82.7 208.8,82.5 210.0,82.3 211.2,82.1 212.4,82.0 213.6,81.9 214.8,81.8 216.0,81.7 217.2,81.4 218.4,81.3 219.6,81.1 220.8,80.9 222.0,80.7 223.2,80.5 224.4,80.5 225.6,80.3 226.8,80.1 228.0,79.8 229.2,79.6 230.4,79.4 231.6,79.1 232.8,79.0 234.0,78.9 235.2,78.8 236.4,78.7 237.6,78.5 238.8,78.3 240.0,78.2 241.2,78.0 242.4,77.9 243.6,77.8 244.8,77.7 246.0,77.6 247.2,77.4 248.4,77.2 249.6,77.1 250.8,76.9 252.0,76.8 253.2,76.7 254.4,76.5 255.6,76.4 256.8,76.3 258.0,76.2 259.2,75.9 260.4,75.6 261.6,75.4 262.8,75.3 264.0,75.2 265.2,75.2 266.4,75.0 267.6,74.8 268.8,74.6 270.0,74.5 271.2,74.4 272.4,74.2 273.6,74.1 274.8,74.0 276.0,73.9 277.2,73.6 278.4,73.5 279.6,73.3 280.8,73.1 282.0,73.0 283.2,73.0 284.4,72.9 285.6,72.8 286.8,72.6 288.0,72.5 289.2,72.3 290.4,72.2 291.6,72.1 292.8,72.0 294.0,71.8 295.2,71.7 296.4,71.5 297.6,71.3 298.8,71.2 300.0,71.0 301.2,70.9 302.4,70.8 303.6,70.7 304.8,70.7 306.0,70.6 307.2,70.4 308.4,70.2 309.6,70.1 310.8,69.9 312.0,69.9 313.2,69.7 314.4,69.6 315.6,69.4 316.8,69.3 318.0,69.2 319.2,69.1 320.4,68.9 321.6,68.8 322.8,68.7 324.0,68.6 325.2,68.5 326.4,68.4 327.6,68.3 328.8,68.2 330.0,68.1 331.2,68.0 332.4,67.9 333.6,67.6 334.8,67.4 336.0,71.4 337.2,70.6 338.4,69.1 339.6,68.5 340.8,67.9 342.0,67.0 343.2,66.5 344.4,66.2 345.6,65.7 346.8,64.8 348.0,64.2 349.2,64.0 350.4,63.6 351.6,63.4 352.8,62.9 354.0,62.5 355.2,62.0 356.4,61.8 357.6,61.4 358.8,61.1 360.0,60.8 361.2,60.7 362.4,60.4 363.6,60.2 364.8,59.8 366.0,59.5 367.2,59.1 368.4,58.6 369.6,58.2 370.8,58.1 372.0,57.9 373.2,57.7 374.4,57.3 375.6,57.0 376.8,56.8 378.0,56.0 379.2,55.3 380.4,55.0 381.6,54.9 382.8,54.6 384.0,54.2 385.2,53.8 386.4,53.4 387.6,53.1 388.8,52.8 390.0,52.5 391.2,52.1 392.4,51.9 393.6,51.8 394.8,51.6 396.0,51.4 397.2,51.2 398.4,51.1 399.6,50.8 400.8,50.7 402.0,50.5 403.2,50.3 404.4,50.1 405.6,49.9 406.8,49.8 408.0,49.6 409.2,49.5 410.4,49.3 411.6,49.2 412.8,49.1 414.0,49.0 415.2,48.8 416.4,48.7 417.6,48.5 418.8,48.3 420.0,48.1 421.2,48.0 422.4,47.8 423.6,47.7 424.8,47.6 426.0,47.5 427.2,47.3 428.4,47.2 429.6,47.1 430.8,47.0 432.0,46.8 433.2,46.7 434.4,46.4 435.6,46.3 436.8,46.1 438.0,45.9 439.2,45.7 440.4,45.6 441.6,45.3 442.8,45.2 444.0,45.0 445.2,44.7 446.4,44.5 447.6,44.3 448.8,44.1 450.0,43.9 451.2,43.8 452.4,43.7 453.6,43.6 454.8,43.4 456.0,43.3 457.2,43.1 458.4,43.0 459.6,42.8 460.8,42.6 462.0,42.4 463.2,42.2 464.4,42.0 465.6,41.7 466.8,41.6 468.0,41.4 469.2,41.3 470.4,41.2 471.6,41.1 472.8,40.9 474.0,40.7 475.2,40.6 476.4,40.3 477.6,40.2 478.8,40.1 480.0,39.9 481.2,39.8 482.4,39.7 483.6,39.7 484.8,39.5 486.0,39.4 487.2,39.3 488.4,39.1 489.6,39.0 490.8,38.8 492.0,38.7 493.2,38.6 494.4,38.4 495.6,38.3 496.8,38.2 498.0,38.1 499.2,37.9 500.4,37.8 501.6,37.6 502.8,37.4 504.0,37.2 505.2,37.0 506.4,36.9 507.6,36.8 508.8,36.7 510.0,36.6 511.2,36.5 512.4,36.4 513.6,36.3 514.8,36.2 516.0,36.1 517.2,36.0 518.4,35.9 519.6,35.6 520.8,35.5 522.0,35.4 523.2,35.3 524.4,35.1 525.6,35.0 526.8,34.9 528.0,34.8 529.2,34.7 530.4,34.6 531.6,34.4 532.8,34.1 534.0,34.0 535.2,33.7 536.4,33.6 537.6,33.4 538.8,33.3 540.0,33.1 541.2,33.0 542.4,32.9 543.6,32.8 544.8,32.7 546.0,32.5 547.2,32.3 548.4,32.2 549.6,32.0 550.8,31.9 552.0,31.7 553.2,31.5 554.4,31.4 555.6,31.4 556.8,31.2 558.0,31.2 559.2,31.0 560.4,30.9 561.6,30.7 562.8,30.6 564.0,30.4 565.2,30.3 566.4,30.2 567.6,30.1 568.8,30.1 570.0,30.0" />
  
  <!-- Punto finale luminoso -->
  <circle cx="570.0" cy="30.0" r="4" fill="#ffffff" stroke="#0366d6" stroke-width="2.5" />
</svg>