<svg width="600" height="150" viewBox="0 0 600 150" xmlns="http://www.w3.org/2000/svg">
  <defs>
    <filter id="shadow2" x="-2%" y="-2%" width="104%" height="108%">
      <feDropShadow dx="0" dy="2" stdDeviation="3" flood-opacity="0.1" />
    </filter>
    <linearGradient id="fillGrad" x1="0" y1="0" x2="0" y2="1">
      <stop offset="0%" stop-color="#0366d6" stop-opacity="0.3"/>
      <stop offset="100%" stop-color="#0366d6" stop-opacity="0.02"/>
    </linearGradient>
  </defs>
  <rect width="600" height="150" rx="12" fill="#ffffff" filter="url(#shadow2)" stroke="#e1e4e8" stroke-width="1"/>
  <text x="20" y="24" fill="#2b3137" font-family="-apple-system,BlinkMacSystemFont,'Segoe UI',Helvetica,Arial,sans-serif" font-size="14" font-weight="600">📈 Download Growth (Actual: 85.9k)</text>
  
  <!-- Area sotto la linea -->
  <polygon fill="url(#fillGrad)" points="30.0,120.0,120 30.0,120.0 31.4,119.5 32.8,118.9 34.3,118.4 35.7,118.3 37.1,118.0 38.5,117.4 39.9,117.0 41.4,116.7 42.8,116.1 44.2,115.8 45.6,115.4 47.1,115.3 48.5,115.0 49.9,114.5 51.3,114.1 52.7,113.7 54.2,113.5 55.6,113.3 57.0,113.1 58.4,112.7 59.8,112.4 61.3,112.3 62.7,112.0 64.1,111.0 65.5,110.7 66.9,110.3 68.4,109.9 69.8,109.6 71.2,109.3 72.6,109.0 74.1,108.9 75.5,108.6 76.9,108.1 78.3,107.7 79.7,107.4 81.2,107.1 82.6,107.0 84.0,106.9 85.4,106.7 86.8,106.4 88.3,106.2 89.7,106.1 91.1,105.7 92.5,105.2 93.9,105.0 95.4,105.0 96.8,104.7 98.2,104.3 99.6,104.0 101.1,103.6 102.5,103.3 103.9,102.9 105.3,102.8 106.7,102.6 108.2,102.2 109.6,101.8 111.0,101.5 112.4,101.3 113.8,101.1 115.3,100.9 116.7,100.5 118.1,100.1 119.5,99.7 120.9,99.3 122.4,99.2 123.8,99.0 125.2,98.9 126.6,98.6 128.1,98.4 129.5,98.2 130.9,98.1 132.3,97.9 133.7,97.7 135.2,97.6 136.6,97.5 138.0,97.4 139.4,97.0 140.8,96.7 142.3,96.7 143.7,96.5 145.1,96.4 146.5,96.4 147.9,103.2 149.4,102.5 150.8,101.9 152.2,101.3 153.6,99.4 155.1,98.2 156.5,96.8 157.9,96.3 159.3,95.7 160.7,94.8 162.2,93.7 163.6,93.0 165.0,92.7 166.4,92.4 167.8,91.7 169.3,91.1 170.7,90.8 172.1,90.4 173.5,90.2 174.9,90.1 176.4,89.7 177.8,89.1 179.2,88.6 180.6,88.2 182.1,87.7 183.5,87.4 184.9,87.3 186.3,86.8 187.7,86.4 189.2,86.1 190.6,85.8 192.0,85.6 193.4,85.5 194.8,85.3 196.3,85.0 197.7,84.7 199.1,84.5 200.5,84.3 201.9,84.1 203.4,83.9 204.8,83.7 206.2,83.6 207.6,83.4 209.1,83.1 210.5,82.8 211.9,82.5 213.3,82.3 214.7,82.1 216.2,82.0 217.6,81.8 219.0,81.7 220.4,81.2 221.8,80.9 223.3,80.4 224.7,80.3 226.1,80.2 227.5,80.1 228.9,79.8 230.4,79.6 231.8,79.4 233.2,79.1 234.6,78.9 236.1,78.8 237.5,78.6 238.9,78.5 240.3,78.3 241.7,78.1 243.2,78.0 244.6,77.7 246.0,77.5 247.4,77.5 248.8,77.3 250.3,77.2 251.7,77.0 253.1,76.8 254.5,76.5 255.9,76.3 257.4,76.1 258.8,76.0 260.2,75.9 261.6,75.7 263.1,75.4 264.5,75.1 265.9,74.9 267.3,74.7 268.7,74.3 270.2,74.3 271.6,74.1 273.0,74.0 274.4,73.9 275.8,73.7 277.3,73.5 278.7,73.3 280.1,73.2 281.5,73.0 282.9,72.9 284.4,72.7 285.8,72.7 287.2,72.5 288.6,72.2 290.1,72.1 291.5,71.9 292.9,71.8 294.3,71.6 295.7,71.5 297.2,71.4 298.6,71.2 300.0,71.1 301.4,70.8 302.8,70.5 304.3,70.3 305.7,70.1 307.1,70.0 308.5,70.0 309.9,69.8 311.4,69.5 312.8,69.4 314.2,69.3 315.6,69.1 317.1,68.9 318.5,68.7 319.9,68.6 321.3,68.5 322.7,68.3 324.2,68.1 325.6,67.9 327.0,67.6 328.4,67.6 329.8,67.5 331.3,67.4 332.7,67.3 334.1,67.1 335.5,66.9 336.9,66.8 338.4,66.6 339.8,66.5 341.2,66.4 342.6,66.2 344.1,66.1 345.5,65.9 346.9,65.7 348.3,65.5 349.7,65.3 351.2,65.2 352.6,65.1 354.0,65.0 355.4,64.9 356.8,64.8 358.3,64.7 359.7,64.4 361.1,64.3 362.5,64.1 363.9,64.0 365.4,63.9 366.8,63.7 368.2,63.6 369.6,63.4 371.1,63.3 372.5,63.2 373.9,63.0 375.3,62.9 376.7,62.7 378.2,62.6 379.6,62.5 381.0,62.4 382.4,62.3 383.8,62.2 385.3,62.0 386.7,62.0 388.1,61.8 389.5,61.5 390.9,61.3 392.4,65.7 393.8,64.9 395.2,63.2 396.6,62.6 398.1,61.8 399.5,60.8 400.9,60.3 402.3,60.0 403.7,59.3 405.2,58.4 406.6,57.7 408.0,57.4 409.4,57.1 410.8,56.8 412.3,56.3 413.7,55.8 415.1,55.3 416.5,55.0 417.9,54.6 419.4,54.3 420.8,54.0 422.2,53.8 423.6,53.5 425.1,53.3 426.5,52.8 427.9,52.5 429.3,52.0 430.7,51.4 432.2,51.1 433.6,50.9 435.0,50.7 436.4,50.5 437.8,50.1 439.3,49.7 440.7,49.4 442.1,48.5 443.5,47.8 444.9,47.5 446.4,47.3 447.8,47.0 449.2,46.5 450.6,46.2 452.1,45.6 453.5,45.3 454.9,45.0 456.3,44.6 457.7,44.2 459.2,44.0 460.6,43.8 462.0,43.7 463.4,43.5 464.8,43.2 466.3,43.1 467.7,42.8 469.1,42.6 470.5,42.4 471.9,42.2 473.4,42.0 474.8,41.8 476.2,41.6 477.6,41.4 479.1,41.3 480.5,41.1 481.9,41.0 483.3,40.8 484.7,40.7 486.2,40.5 487.6,40.4 489.0,40.2 490.4,40.0 491.8,39.8 493.3,39.6 494.7,39.4 496.1,39.3 497.5,39.2 498.9,39.0 500.4,38.9 501.8,38.7 503.2,38.7 504.6,38.5 506.1,38.3 507.5,38.2 508.9,37.9 510.3,37.7 511.7,37.5 513.2,37.3 514.6,37.1 516.0,36.9 517.4,36.7 518.8,36.5 520.3,36.2 521.7,36.0 523.1,35.8 524.5,35.5 525.9,35.3 527.4,35.0 528.8,34.9 530.2,34.8 531.6,34.7 533.1,34.5 534.5,34.4 535.9,34.2 537.3,34.0 538.7,33.8 540.2,33.6 541.6,33.4 543.0,33.1 544.4,32.9 545.8,32.6 547.3,32.5 548.7,32.3 550.1,32.2 551.5,32.1 552.9,31.9 554.4,31.7 555.8,31.5 557.2,31.4 558.6,31.1 560.1,30.9 561.5,30.8 562.9,30.6 564.3,30.5 565.7,30.4 567.2,30.3 568.6,30.2 570.0,30.0 570.0,30.0,120" />
  
  <!-- Linea principale -->
  <polyline fill="none" stroke="#0366d6" stroke-width="2.5" stroke-linecap="round" stroke-linejoin="round" points="30.0,120.0 31.4,119.5 32.8,118.9 34.3,118.4 35.7,118.3 37.1,118.0 38.5,117.4 39.9,117.0 41.4,116.7 42.8,116.1 44.2,115.8 45.6,115.4 47.1,115.3 48.5,115.0 49.9,114.5 51.3,114.1 52.7,113.7 54.2,113.5 55.6,113.3 57.0,113.1 58.4,112.7 59.8,112.4 61.3,112.3 62.7,112.0 64.1,111.0 65.5,110.7 66.9,110.3 68.4,109.9 69.8,109.6 71.2,109.3 72.6,109.0 74.1,108.9 75.5,108.6 76.9,108.1 78.3,107.7 79.7,107.4 81.2,107.1 82.6,107.0 84.0,106.9 85.4,106.7 86.8,106.4 88.3,106.2 89.7,106.1 91.1,105.7 92.5,105.2 93.9,105.0 95.4,105.0 96.8,104.7 98.2,104.3 99.6,104.0 101.1,103.6 102.5,103.3 103.9,102.9 105.3,102.8 106.7,102.6 108.2,102.2 109.6,101.8 111.0,101.5 112.4,101.3 113.8,101.1 115.3,100.9 116.7,100.5 118.1,100.1 119.5,99.7 120.9,99.3 122.4,99.2 123.8,99.0 125.2,98.9 126.6,98.6 128.1,98.4 129.5,98.2 130.9,98.1 132.3,97.9 133.7,97.7 135.2,97.6 136.6,97.5 138.0,97.4 139.4,97.0 140.8,96.7 142.3,96.7 143.7,96.5 145.1,96.4 146.5,96.4 147.9,103.2 149.4,102.5 150.8,101.9 152.2,101.3 153.6,99.4 155.1,98.2 156.5,96.8 157.9,96.3 159.3,95.7 160.7,94.8 162.2,93.7 163.6,93.0 165.0,92.7 166.4,92.4 167.8,91.7 169.3,91.1 170.7,90.8 172.1,90.4 173.5,90.2 174.9,90.1 176.4,89.7 177.8,89.1 179.2,88.6 180.6,88.2 182.1,87.7 183.5,87.4 184.9,87.3 186.3,86.8 187.7,86.4 189.2,86.1 190.6,85.8 192.0,85.6 193.4,85.5 194.8,85.3 196.3,85.0 197.7,84.7 199.1,84.5 200.5,84.3 201.9,84.1 203.4,83.9 204.8,83.7 206.2,83.6 207.6,83.4 209.1,83.1 210.5,82.8 211.9,82.5 213.3,82.3 214.7,82.1 216.2,82.0 217.6,81.8 219.0,81.7 220.4,81.2 221.8,80.9 223.3,80.4 224.7,80.3 226.1,80.2 227.5,80.1 228.9,79.8 230.4,79.6 231.8,79.4 233.2,79.1 234.6,78.9 236.1,78.8 237.5,78.6 238.9,78.5 240.3,78.3 241.7,78.1 243.2,78.0 244.6,77.7 246.0,77.5 247.4,77.5 248.8,77.3 250.3,77.2 251.7,77.0 253.1,76.8 254.5,76.5 255.9,76.3 257.4,76.1 258.8,76.0 260.2,75.9 261.6,75.7 263.1,75.4 264.5,75.1 265.9,74.9 267.3,74.7 268.7,74.3 270.2,74.3 271.6,74.1 273.0,74.0 274.4,73.9 275.8,73.7 277.3,73.5 278.7,73.3 280.1,73.2 281.5,73.0 282.9,72.9 284.4,72.7 285.8,72.7 287.2,72.5 288.6,72.2 290.1,72.1 291.5,71.9 292.9,71.8 294.3,71.6 295.7,71.5 297.2,71.4 298.6,71.2 300.0,71.1 301.4,70.8 302.8,70.5 304.3,70.3 305.7,70.1 307.1,70.0 308.5,70.0 309.9,69.8 311.4,69.5 312.8,69.4 314.2,69.3 315.6,69.1 317.1,68.9 318.5,68.7 319.9,68.6 321.3,68.5 322.7,68.3 324.2,68.1 325.6,67.9 327.0,67.6 328.4,67.6 329.8,67.5 331.3,67.4 332.7,67.3 334.1,67.1 335.5,66.9 336.9,66.8 338.4,66.6 339.8,66.5 341.2,66.4 342.6,66.2 344.1,66.1 345.5,65.9 346.9,65.7 348.3,65.5 349.7,65.3 351.2,65.2 352.6,65.1 354.0,65.0 355.4,64.9 356.8,64.8 358.3,64.7 359.7,64.4 361.1,64.3 362.5,64.1 363.9,64.0 365.4,63.9 366.8,63.7 368.2,63.6 369.6,63.4 371.1,63.3 372.5,63.2 373.9,63.0 375.3,62.9 376.7,62.7 378.2,62.6 379.6,62.5 381.0,62.4 382.4,62.3 383.8,62.2 385.3,62.0 386.7,62.0 388.1,61.8 389.5,61.5 390.9,61.3 392.4,65.7 393.8,64.9 395.2,63.2 396.6,62.6 398.1,61.8 399.5,60.8 400.9,60.3 402.3,60.0 403.7,59.3 405.2,58.4 406.6,57.7 408.0,57.4 409.4,57.1 410.8,56.8 412.3,56.3 413.7,55.8 415.1,55.3 416.5,55.0 417.9,54.6 419.4,54.3 420.8,54.0 422.2,53.8 423.6,53.5 425.1,53.3 426.5,52.8 427.9,52.5 429.3,52.0 430.7,51.4 432.2,51.1 433.6,50.9 435.0,50.7 436.4,50.5 437.8,50.1 439.3,49.7 440.7,49.4 442.1,48.5 443.5,47.8 444.9,47.5 446.4,47.3 447.8,47.0 449.2,46.5 450.6,46.2 452.1,45.6 453.5,45.3 454.9,45.0 456.3,44.6 457.7,44.2 459.2,44.0 460.6,43.8 462.0,43.7 463.4,43.5 464.8,43.2 466.3,43.1 467.7,42.8 469.1,42.6 470.5,42.4 471.9,42.2 473.4,42.0 474.8,41.8 476.2,41.6 477.6,41.4 479.1,41.3 480.5,41.1 481.9,41.0 483.3,40.8 484.7,40.7 486.2,40.5 487.6,40.4 489.0,40.2 490.4,40.0 491.8,39.8 493.3,39.6 494.7,39.4 496.1,39.3 497.5,39.2 498.9,39.0 500.4,38.9 501.8,38.7 503.2,38.7 504.6,38.5 506.1,38.3 507.5,38.2 508.9,37.9 510.3,37.7 511.7,37.5 513.2,37.3 514.6,37.1 516.0,36.9 517.4,36.7 518.8,36.5 520.3,36.2 521.7,36.0 523.1,35.8 524.5,35.5 525.9,35.3 527.4,35.0 528.8,34.9 530.2,34.8 531.6,34.7 533.1,34.5 534.5,34.4 535.9,34.2 537.3,34.0 538.7,33.8 540.2,33.6 541.6,33.4 543.0,33.1 544.4,32.9 545.8,32.6 547.3,32.5 548.7,32.3 550.1,32.2 551.5,32.1 552.9,31.9 554.4,31.7 555.8,31.5 557.2,31.4 558.6,31.1 560.1,30.9 561.5,30.8 562.9,30.6 564.3,30.5 565.7,30.4 567.2,30.3 568.6,30.2 570.0,30.0" />
  
  <!-- Punto finale luminoso -->
  <circle cx="570.0" cy="30.0" r="4" fill="#ffffff" stroke="#0366d6" stroke-width="2.5" />
</svg>