<svg width="600" height="150" viewBox="0 0 600 150" xmlns="http://www.w3.org/2000/svg">
  <defs>
    <filter id="shadow2" x="-2%" y="-2%" width="104%" height="108%">
      <feDropShadow dx="0" dy="2" stdDeviation="3" flood-opacity="0.1" />
    </filter>
    <linearGradient id="fillGrad" x1="0" y1="0" x2="0" y2="1">
      <stop offset="0%" stop-color="#0366d6" stop-opacity="0.3"/>
      <stop offset="100%" stop-color="#0366d6" stop-opacity="0.02"/>
    </linearGradient>
  </defs>
  <rect width="600" height="150" rx="12" fill="#ffffff" filter="url(#shadow2)" stroke="#e1e4e8" stroke-width="1"/>
  <text x="20" y="24" fill="#2b3137" font-family="-apple-system,BlinkMacSystemFont,'Segoe UI',Helvetica,Arial,sans-serif" font-size="14" font-weight="600">📈 Download Growth (Actual: 84.0k)</text>
  
  <!-- Area sotto la linea -->
  <polygon fill="url(#fillGrad)" points="30.0,120.0,120 30.0,120.0 31.6,119.4 33.3,118.8 34.9,118.2 36.6,118.1 38.2,117.8 39.9,117.1 41.5,116.6 43.2,116.3 44.8,115.6 46.5,115.3 48.1,114.9 49.8,114.7 51.4,114.4 53.0,113.9 54.7,113.4 56.3,113.0 58.0,112.8 59.6,112.6 61.3,112.3 62.9,111.9 64.6,111.6 66.2,111.4 67.9,111.1 69.5,110.0 71.2,109.6 72.8,109.2 74.5,108.8 76.1,108.4 77.7,108.0 79.4,107.8 81.0,107.6 82.7,107.3 84.3,106.7 86.0,106.3 87.6,106.0 89.3,105.6 90.9,105.5 92.6,105.4 94.2,105.2 95.9,104.8 97.5,104.6 99.1,104.5 100.8,104.1 102.4,103.5 104.1,103.3 105.7,103.2 107.4,103.0 109.0,102.5 110.7,102.2 112.3,101.7 114.0,101.3 115.6,100.9 117.3,100.8 118.9,100.6 120.5,100.1 122.2,99.7 123.8,99.3 125.5,99.2 127.1,98.9 128.8,98.7 130.4,98.2 132.1,97.8 133.7,97.4 135.4,97.0 137.0,96.7 138.7,96.6 140.3,96.4 142.0,96.1 143.6,95.9 145.2,95.7 146.9,95.5 148.5,95.4 150.2,95.1 151.8,95.0 153.5,94.9 155.1,94.7 156.8,94.3 158.4,94.0 160.1,94.0 161.7,93.8 163.4,93.7 165.0,93.7 166.6,101.2 168.3,100.5 169.9,99.8 171.6,99.1 173.2,97.1 174.9,95.6 176.5,94.1 178.2,93.5 179.8,92.9 181.5,91.8 183.1,90.7 184.8,89.8 186.4,89.5 188.0,89.2 189.7,88.4 191.3,87.8 193.0,87.4 194.6,86.9 196.3,86.7 197.9,86.7 199.6,86.2 201.2,85.5 202.9,85.0 204.5,84.5 206.2,83.9 207.8,83.7 209.5,83.5 211.1,83.0 212.7,82.6 214.4,82.1 216.0,81.8 217.7,81.7 219.3,81.5 221.0,81.3 222.6,80.9 224.3,80.6 225.9,80.4 227.6,80.2 229.2,79.9 230.9,79.7 232.5,79.5 234.1,79.4 235.8,79.2 237.4,78.8 239.1,78.5 240.7,78.2 242.4,78.0 244.0,77.7 245.7,77.6 247.3,77.4 249.0,77.2 250.6,76.7 252.3,76.3 253.9,75.9 255.5,75.7 257.2,75.6 258.8,75.4 260.5,75.2 262.1,74.9 263.8,74.7 265.4,74.3 267.1,74.1 268.7,74.0 270.4,73.8 272.0,73.7 273.7,73.5 275.3,73.3 277.0,73.1 278.6,72.8 280.2,72.6 281.9,72.5 283.5,72.4 285.2,72.3 286.8,72.0 288.5,71.8 290.1,71.5 291.8,71.3 293.4,71.0 295.1,70.9 296.7,70.8 298.4,70.6 300.0,70.3 301.6,69.9 303.3,69.7 304.9,69.5 306.6,69.1 308.2,69.0 309.9,68.8 311.5,68.7 313.2,68.5 314.8,68.3 316.5,68.1 318.1,68.0 319.8,67.8 321.4,67.6 323.0,67.4 324.7,67.3 326.3,67.2 328.0,67.0 329.6,66.7 331.3,66.5 332.9,66.3 334.6,66.2 336.2,66.0 337.9,65.9 339.5,65.7 341.2,65.6 342.8,65.4 344.5,65.1 346.1,64.7 347.7,64.5 349.4,64.3 351.0,64.3 352.7,64.2 354.3,64.0 356.0,63.7 357.6,63.5 359.3,63.4 360.9,63.2 362.6,63.0 364.2,62.8 365.9,62.7 367.5,62.6 369.1,62.3 370.8,62.1 372.4,61.8 374.1,61.6 375.7,61.5 377.4,61.4 379.0,61.4 380.7,61.2 382.3,61.0 384.0,60.8 385.6,60.6 387.3,60.4 388.9,60.3 390.5,60.2 392.2,60.0 393.8,59.9 395.5,59.6 397.1,59.4 398.8,59.2 400.4,59.0 402.1,58.9 403.7,58.8 405.4,58.7 407.0,58.6 408.7,58.4 410.3,58.3 412.0,58.0 413.6,57.9 415.2,57.7 416.9,57.6 418.5,57.4 420.2,57.2 421.8,57.0 423.5,56.9 425.1,56.8 426.8,56.6 428.4,56.4 430.1,56.3 431.7,56.1 433.4,56.0 435.0,55.9 436.6,55.8 438.3,55.6 439.9,55.5 441.6,55.3 443.2,55.3 444.9,55.1 446.5,54.8 448.2,54.5 449.8,59.5 451.5,58.5 453.1,56.6 454.8,55.9 456.4,55.1 458.0,54.0 459.7,53.4 461.3,53.0 463.0,52.3 464.6,51.3 466.3,50.5 467.9,50.2 469.6,49.8 471.2,49.5 472.9,48.9 474.5,48.4 476.2,47.8 477.8,47.5 479.5,47.0 481.1,46.7 482.7,46.3 484.4,46.1 486.0,45.8 487.7,45.6 489.3,45.0 491.0,44.7 492.6,44.2 494.3,43.5 495.9,43.1 497.6,42.9 499.2,42.7 500.9,42.4 502.5,42.0 504.1,41.6 505.8,41.3 507.4,40.3 509.1,39.5 510.7,39.1 512.4,38.9 514.0,38.6 515.7,38.1 517.3,37.6 519.0,37.0 520.6,36.7 522.3,36.3 523.9,35.9 525.5,35.5 527.2,35.2 528.8,35.0 530.5,34.8 532.1,34.6 533.8,34.3 535.4,34.2 537.1,33.9 538.7,33.7 540.4,33.5 542.0,33.2 543.7,33.0 545.3,32.8 547.0,32.5 548.6,32.3 550.2,32.2 551.9,32.0 553.5,31.8 555.2,31.7 556.8,31.6 558.5,31.3 560.1,31.2 561.8,31.0 563.4,30.7 565.1,30.5 566.7,30.4 568.4,30.1 570.0,30.0 570.0,30.0,120" />
  
  <!-- Linea principale -->
  <polyline fill="none" stroke="#0366d6" stroke-width="2.5" stroke-linecap="round" stroke-linejoin="round" points="30.0,120.0 31.6,119.4 33.3,118.8 34.9,118.2 36.6,118.1 38.2,117.8 39.9,117.1 41.5,116.6 43.2,116.3 44.8,115.6 46.5,115.3 48.1,114.9 49.8,114.7 51.4,114.4 53.0,113.9 54.7,113.4 56.3,113.0 58.0,112.8 59.6,112.6 61.3,112.3 62.9,111.9 64.6,111.6 66.2,111.4 67.9,111.1 69.5,110.0 71.2,109.6 72.8,109.2 74.5,108.8 76.1,108.4 77.7,108.0 79.4,107.8 81.0,107.6 82.7,107.3 84.3,106.7 86.0,106.3 87.6,106.0 89.3,105.6 90.9,105.5 92.6,105.4 94.2,105.2 95.9,104.8 97.5,104.6 99.1,104.5 100.8,104.1 102.4,103.5 104.1,103.3 105.7,103.2 107.4,103.0 109.0,102.5 110.7,102.2 112.3,101.7 114.0,101.3 115.6,100.9 117.3,100.8 118.9,100.6 120.5,100.1 122.2,99.7 123.8,99.3 125.5,99.2 127.1,98.9 128.8,98.7 130.4,98.2 132.1,97.8 133.7,97.4 135.4,97.0 137.0,96.7 138.7,96.6 140.3,96.4 142.0,96.1 143.6,95.9 145.2,95.7 146.9,95.5 148.5,95.4 150.2,95.1 151.8,95.0 153.5,94.9 155.1,94.7 156.8,94.3 158.4,94.0 160.1,94.0 161.7,93.8 163.4,93.7 165.0,93.7 166.6,101.2 168.3,100.5 169.9,99.8 171.6,99.1 173.2,97.1 174.9,95.6 176.5,94.1 178.2,93.5 179.8,92.9 181.5,91.8 183.1,90.7 184.8,89.8 186.4,89.5 188.0,89.2 189.7,88.4 191.3,87.8 193.0,87.4 194.6,86.9 196.3,86.7 197.9,86.7 199.6,86.2 201.2,85.5 202.9,85.0 204.5,84.5 206.2,83.9 207.8,83.7 209.5,83.5 211.1,83.0 212.7,82.6 214.4,82.1 216.0,81.8 217.7,81.7 219.3,81.5 221.0,81.3 222.6,80.9 224.3,80.6 225.9,80.4 227.6,80.2 229.2,79.9 230.9,79.7 232.5,79.5 234.1,79.4 235.8,79.2 237.4,78.8 239.1,78.5 240.7,78.2 242.4,78.0 244.0,77.7 245.7,77.6 247.3,77.4 249.0,77.2 250.6,76.7 252.3,76.3 253.9,75.9 255.5,75.7 257.2,75.6 258.8,75.4 260.5,75.2 262.1,74.9 263.8,74.7 265.4,74.3 267.1,74.1 268.7,74.0 270.4,73.8 272.0,73.7 273.7,73.5 275.3,73.3 277.0,73.1 278.6,72.8 280.2,72.6 281.9,72.5 283.5,72.4 285.2,72.3 286.8,72.0 288.5,71.8 290.1,71.5 291.8,71.3 293.4,71.0 295.1,70.9 296.7,70.8 298.4,70.6 300.0,70.3 301.6,69.9 303.3,69.7 304.9,69.5 306.6,69.1 308.2,69.0 309.9,68.8 311.5,68.7 313.2,68.5 314.8,68.3 316.5,68.1 318.1,68.0 319.8,67.8 321.4,67.6 323.0,67.4 324.7,67.3 326.3,67.2 328.0,67.0 329.6,66.7 331.3,66.5 332.9,66.3 334.6,66.2 336.2,66.0 337.9,65.9 339.5,65.7 341.2,65.6 342.8,65.4 344.5,65.1 346.1,64.7 347.7,64.5 349.4,64.3 351.0,64.3 352.7,64.2 354.3,64.0 356.0,63.7 357.6,63.5 359.3,63.4 360.9,63.2 362.6,63.0 364.2,62.8 365.9,62.7 367.5,62.6 369.1,62.3 370.8,62.1 372.4,61.8 374.1,61.6 375.7,61.5 377.4,61.4 379.0,61.4 380.7,61.2 382.3,61.0 384.0,60.8 385.6,60.6 387.3,60.4 388.9,60.3 390.5,60.2 392.2,60.0 393.8,59.9 395.5,59.6 397.1,59.4 398.8,59.2 400.4,59.0 402.1,58.9 403.7,58.8 405.4,58.7 407.0,58.6 408.7,58.4 410.3,58.3 412.0,58.0 413.6,57.9 415.2,57.7 416.9,57.6 418.5,57.4 420.2,57.2 421.8,57.0 423.5,56.9 425.1,56.8 426.8,56.6 428.4,56.4 430.1,56.3 431.7,56.1 433.4,56.0 435.0,55.9 436.6,55.8 438.3,55.6 439.9,55.5 441.6,55.3 443.2,55.3 444.9,55.1 446.5,54.8 448.2,54.5 449.8,59.5 451.5,58.5 453.1,56.6 454.8,55.9 456.4,55.1 458.0,54.0 459.7,53.4 461.3,53.0 463.0,52.3 464.6,51.3 466.3,50.5 467.9,50.2 469.6,49.8 471.2,49.5 472.9,48.9 474.5,48.4 476.2,47.8 477.8,47.5 479.5,47.0 481.1,46.7 482.7,46.3 484.4,46.1 486.0,45.8 487.7,45.6 489.3,45.0 491.0,44.7 492.6,44.2 494.3,43.5 495.9,43.1 497.6,42.9 499.2,42.7 500.9,42.4 502.5,42.0 504.1,41.6 505.8,41.3 507.4,40.3 509.1,39.5 510.7,39.1 512.4,38.9 514.0,38.6 515.7,38.1 517.3,37.6 519.0,37.0 520.6,36.7 522.3,36.3 523.9,35.9 525.5,35.5 527.2,35.2 528.8,35.0 530.5,34.8 532.1,34.6 533.8,34.3 535.4,34.2 537.1,33.9 538.7,33.7 540.4,33.5 542.0,33.2 543.7,33.0 545.3,32.8 547.0,32.5 548.6,32.3 550.2,32.2 551.9,32.0 553.5,31.8 555.2,31.7 556.8,31.6 558.5,31.3 560.1,31.2 561.8,31.0 563.4,30.7 565.1,30.5 566.7,30.4 568.4,30.1 570.0,30.0" />
  
  <!-- Punto finale luminoso -->
  <circle cx="570.0" cy="30.0" r="4" fill="#ffffff" stroke="#0366d6" stroke-width="2.5" />
</svg>