<svg width="600" height="150" viewBox="0 0 600 150" xmlns="http://www.w3.org/2000/svg">
  <defs>
    <filter id="shadow2" x="-2%" y="-2%" width="104%" height="108%">
      <feDropShadow dx="0" dy="2" stdDeviation="3" flood-opacity="0.1" />
    </filter>
    <linearGradient id="fillGrad" x1="0" y1="0" x2="0" y2="1">
      <stop offset="0%" stop-color="#0366d6" stop-opacity="0.3"/>
      <stop offset="100%" stop-color="#0366d6" stop-opacity="0.02"/>
    </linearGradient>
  </defs>
  <rect width="600" height="150" rx="12" fill="#ffffff" filter="url(#shadow2)" stroke="#e1e4e8" stroke-width="1"/>
  <text x="20" y="24" fill="#2b3137" font-family="-apple-system,BlinkMacSystemFont,'Segoe UI',Helvetica,Arial,sans-serif" font-size="14" font-weight="600">📈 Download Growth (Actual: 86.6k)</text>
  
  <!-- Area sotto la linea -->
  <polygon fill="url(#fillGrad)" points="30.0,120.0,120 30.0,120.0 31.4,119.5 32.7,118.9 34.1,118.4 35.4,118.3 36.8,118.1 38.1,117.5 39.5,117.1 40.8,116.8 42.2,116.2 43.5,115.9 44.9,115.6 46.2,115.4 47.6,115.1 48.9,114.7 50.3,114.3 51.7,113.9 53.0,113.7 54.4,113.6 55.7,113.3 57.1,113.0 58.4,112.7 59.8,112.5 61.1,112.3 62.5,111.3 63.8,111.0 65.2,110.6 66.5,110.2 67.9,109.9 69.2,109.6 70.6,109.4 72.0,109.2 73.3,109.0 74.7,108.5 76.0,108.1 77.4,107.8 78.7,107.5 80.1,107.4 81.4,107.3 82.8,107.1 84.1,106.8 85.5,106.7 86.8,106.5 88.2,106.2 89.5,105.6 90.9,105.5 92.3,105.4 93.6,105.2 95.0,104.8 96.3,104.5 97.7,104.1 99.0,103.8 100.4,103.4 101.7,103.4 103.1,103.1 104.4,102.7 105.8,102.3 107.1,102.1 108.5,101.9 109.8,101.7 111.2,101.6 112.6,101.1 113.9,100.7 115.3,100.4 116.6,100.0 118.0,99.8 119.3,99.7 120.7,99.6 122.0,99.3 123.4,99.1 124.7,98.9 126.1,98.8 127.4,98.6 128.8,98.4 130.2,98.3 131.5,98.2 132.9,98.1 134.2,97.7 135.6,97.5 136.9,97.4 138.3,97.3 139.6,97.2 141.0,97.2 142.3,103.7 143.7,103.1 145.0,102.5 146.4,101.9 147.7,100.1 149.1,98.9 150.5,97.5 151.8,97.0 153.2,96.5 154.5,95.6 155.9,94.6 157.2,93.8 158.6,93.6 159.9,93.3 161.3,92.6 162.6,92.1 164.0,91.7 165.3,91.3 166.7,91.1 168.0,91.1 169.4,90.7 170.8,90.1 172.1,89.6 173.5,89.2 174.8,88.7 176.2,88.5 177.5,88.3 178.9,87.9 180.2,87.5 181.6,87.1 182.9,86.9 184.3,86.7 185.6,86.6 187.0,86.4 188.3,86.1 189.7,85.8 191.1,85.6 192.4,85.4 193.8,85.2 195.1,85.1 196.5,84.9 197.8,84.7 199.2,84.6 200.5,84.2 201.9,84.0 203.2,83.7 204.6,83.5 205.9,83.3 207.3,83.2 208.6,83.0 210.0,82.9 211.4,82.4 212.7,82.1 214.1,81.7 215.4,81.6 216.8,81.5 218.1,81.3 219.5,81.1 220.8,80.9 222.2,80.7 223.5,80.4 224.9,80.2 226.2,80.1 227.6,79.9 228.9,79.8 230.3,79.7 231.7,79.5 233.0,79.3 234.4,79.0 235.7,78.9 237.1,78.8 238.4,78.7 239.8,78.6 241.1,78.3 242.5,78.1 243.8,77.9 245.2,77.7 246.5,77.5 247.9,77.4 249.2,77.3 250.6,77.1 252.0,76.8 253.3,76.6 254.7,76.4 256.0,76.2 257.4,75.8 258.7,75.7 260.1,75.6 261.4,75.5 262.8,75.3 264.1,75.2 265.5,75.0 266.8,74.8 268.2,74.7 269.5,74.5 270.9,74.4 272.3,74.2 273.6,74.2 275.0,74.0 276.3,73.7 277.7,73.6 279.0,73.4 280.4,73.3 281.7,73.2 283.1,73.0 284.4,72.9 285.8,72.8 287.1,72.6 288.5,72.3 289.8,72.0 291.2,71.9 292.6,71.7 293.9,71.6 295.3,71.6 296.6,71.4 298.0,71.1 299.3,71.0 300.7,70.9 302.0,70.7 303.4,70.5 304.7,70.4 306.1,70.3 307.4,70.1 308.8,69.9 310.2,69.7 311.5,69.5 312.9,69.3 314.2,69.2 315.6,69.2 316.9,69.1 318.3,69.0 319.6,68.8 321.0,68.6 322.3,68.5 323.7,68.3 325.0,68.2 326.4,68.1 327.7,67.9 329.1,67.8 330.5,67.6 331.8,67.4 333.2,67.2 334.5,67.1 335.9,67.0 337.2,66.9 338.6,66.8 339.9,66.7 341.3,66.6 342.6,66.4 344.0,66.2 345.3,66.1 346.7,65.9 348.0,65.8 349.4,65.7 350.8,65.5 352.1,65.4 353.5,65.3 354.8,65.1 356.2,65.0 357.5,64.8 358.9,64.7 360.2,64.5 361.6,64.4 362.9,64.4 364.3,64.2 365.6,64.1 367.0,64.0 368.3,63.9 369.7,63.8 371.1,63.7 372.4,63.4 373.8,63.2 375.1,67.5 376.5,66.6 377.8,65.0 379.2,64.4 380.5,63.6 381.9,62.7 383.2,62.2 384.6,61.9 385.9,61.3 387.3,60.4 388.6,59.7 390.0,59.4 391.4,59.1 392.7,58.8 394.1,58.3 395.4,57.9 396.8,57.4 398.1,57.1 399.5,56.6 400.8,56.4 402.2,56.1 403.5,55.9 404.9,55.6 406.2,55.4 407.6,54.9 408.9,54.6 410.3,54.2 411.7,53.6 413.0,53.3 414.4,53.1 415.7,52.9 417.1,52.7 418.4,52.3 419.8,52.0 421.1,51.7 422.5,50.8 423.8,50.1 425.2,49.8 426.5,49.6 427.9,49.3 429.2,48.9 430.6,48.5 432.0,48.0 433.3,47.7 434.7,47.3 436.0,47.0 437.4,46.6 438.7,46.4 440.1,46.3 441.4,46.1 442.8,45.9 444.1,45.7 445.5,45.5 446.8,45.3 448.2,45.1 449.5,44.9 450.9,44.6 452.3,44.5 453.6,44.3 455.0,44.1 456.3,43.9 457.7,43.8 459.0,43.6 460.4,43.5 461.7,43.3 463.1,43.3 464.4,43.0 465.8,42.9 467.1,42.7 468.5,42.5 469.8,42.3 471.2,42.2 472.6,42.0 473.9,41.9 475.3,41.8 476.6,41.6 478.0,41.5 479.3,41.3 480.7,41.3 482.0,41.1 483.4,40.9 484.7,40.8 486.1,40.5 487.4,40.3 488.8,40.2 490.2,39.9 491.5,39.7 492.9,39.6 494.2,39.3 495.6,39.1 496.9,38.9 498.3,38.7 499.6,38.5 501.0,38.2 502.3,38.0 503.7,37.7 505.0,37.6 506.4,37.5 507.7,37.4 509.1,37.3 510.5,37.1 511.8,36.9 513.2,36.8 514.5,36.6 515.9,36.4 517.2,36.1 518.6,35.9 519.9,35.7 521.3,35.4 522.6,35.3 524.0,35.1 525.3,35.0 526.7,34.9 528.0,34.7 529.4,34.6 530.8,34.3 532.1,34.2 533.5,33.9 534.8,33.8 536.2,33.6 537.5,33.5 538.9,33.3 540.2,33.3 541.6,33.2 542.9,33.1 544.3,32.9 545.6,32.8 547.0,32.6 548.3,32.4 549.7,32.3 551.1,32.1 552.4,32.0 553.8,31.8 555.1,31.7 556.5,31.6 557.8,31.4 559.2,31.3 560.5,31.1 561.9,31.0 563.2,30.7 564.6,30.6 565.9,30.3 567.3,30.2 568.6,30.1 570.0,30.0 570.0,30.0,120" />
  
  <!-- Linea principale -->
  <polyline fill="none" stroke="#0366d6" stroke-width="2.5" stroke-linecap="round" stroke-linejoin="round" points="30.0,120.0 31.4,119.5 32.7,118.9 34.1,118.4 35.4,118.3 36.8,118.1 38.1,117.5 39.5,117.1 40.8,116.8 42.2,116.2 43.5,115.9 44.9,115.6 46.2,115.4 47.6,115.1 48.9,114.7 50.3,114.3 51.7,113.9 53.0,113.7 54.4,113.6 55.7,113.3 57.1,113.0 58.4,112.7 59.8,112.5 61.1,112.3 62.5,111.3 63.8,111.0 65.2,110.6 66.5,110.2 67.9,109.9 69.2,109.6 70.6,109.4 72.0,109.2 73.3,109.0 74.7,108.5 76.0,108.1 77.4,107.8 78.7,107.5 80.1,107.4 81.4,107.3 82.8,107.1 84.1,106.8 85.5,106.7 86.8,106.5 88.2,106.2 89.5,105.6 90.9,105.5 92.3,105.4 93.6,105.2 95.0,104.8 96.3,104.5 97.7,104.1 99.0,103.8 100.4,103.4 101.7,103.4 103.1,103.1 104.4,102.7 105.8,102.3 107.1,102.1 108.5,101.9 109.8,101.7 111.2,101.6 112.6,101.1 113.9,100.7 115.3,100.4 116.6,100.0 118.0,99.8 119.3,99.7 120.7,99.6 122.0,99.3 123.4,99.1 124.7,98.9 126.1,98.8 127.4,98.6 128.8,98.4 130.2,98.3 131.5,98.2 132.9,98.1 134.2,97.7 135.6,97.5 136.9,97.4 138.3,97.3 139.6,97.2 141.0,97.2 142.3,103.7 143.7,103.1 145.0,102.5 146.4,101.9 147.7,100.1 149.1,98.9 150.5,97.5 151.8,97.0 153.2,96.5 154.5,95.6 155.9,94.6 157.2,93.8 158.6,93.6 159.9,93.3 161.3,92.6 162.6,92.1 164.0,91.7 165.3,91.3 166.7,91.1 168.0,91.1 169.4,90.7 170.8,90.1 172.1,89.6 173.5,89.2 174.8,88.7 176.2,88.5 177.5,88.3 178.9,87.9 180.2,87.5 181.6,87.1 182.9,86.9 184.3,86.7 185.6,86.6 187.0,86.4 188.3,86.1 189.7,85.8 191.1,85.6 192.4,85.4 193.8,85.2 195.1,85.1 196.5,84.9 197.8,84.7 199.2,84.6 200.5,84.2 201.9,84.0 203.2,83.7 204.6,83.5 205.9,83.3 207.3,83.2 208.6,83.0 210.0,82.9 211.4,82.4 212.7,82.1 214.1,81.7 215.4,81.6 216.8,81.5 218.1,81.3 219.5,81.1 220.8,80.9 222.2,80.7 223.5,80.4 224.9,80.2 226.2,80.1 227.6,79.9 228.9,79.8 230.3,79.7 231.7,79.5 233.0,79.3 234.4,79.0 235.7,78.9 237.1,78.8 238.4,78.7 239.8,78.6 241.1,78.3 242.5,78.1 243.8,77.9 245.2,77.7 246.5,77.5 247.9,77.4 249.2,77.3 250.6,77.1 252.0,76.8 253.3,76.6 254.7,76.4 256.0,76.2 257.4,75.8 258.7,75.7 260.1,75.6 261.4,75.5 262.8,75.3 264.1,75.2 265.5,75.0 266.8,74.8 268.2,74.7 269.5,74.5 270.9,74.4 272.3,74.2 273.6,74.2 275.0,74.0 276.3,73.7 277.7,73.6 279.0,73.4 280.4,73.3 281.7,73.2 283.1,73.0 284.4,72.9 285.8,72.8 287.1,72.6 288.5,72.3 289.8,72.0 291.2,71.9 292.6,71.7 293.9,71.6 295.3,71.6 296.6,71.4 298.0,71.1 299.3,71.0 300.7,70.9 302.0,70.7 303.4,70.5 304.7,70.4 306.1,70.3 307.4,70.1 308.8,69.9 310.2,69.7 311.5,69.5 312.9,69.3 314.2,69.2 315.6,69.2 316.9,69.1 318.3,69.0 319.6,68.8 321.0,68.6 322.3,68.5 323.7,68.3 325.0,68.2 326.4,68.1 327.7,67.9 329.1,67.8 330.5,67.6 331.8,67.4 333.2,67.2 334.5,67.1 335.9,67.0 337.2,66.9 338.6,66.8 339.9,66.7 341.3,66.6 342.6,66.4 344.0,66.2 345.3,66.1 346.7,65.9 348.0,65.8 349.4,65.7 350.8,65.5 352.1,65.4 353.5,65.3 354.8,65.1 356.2,65.0 357.5,64.8 358.9,64.7 360.2,64.5 361.6,64.4 362.9,64.4 364.3,64.2 365.6,64.1 367.0,64.0 368.3,63.9 369.7,63.8 371.1,63.7 372.4,63.4 373.8,63.2 375.1,67.5 376.5,66.6 377.8,65.0 379.2,64.4 380.5,63.6 381.9,62.7 383.2,62.2 384.6,61.9 385.9,61.3 387.3,60.4 388.6,59.7 390.0,59.4 391.4,59.1 392.7,58.8 394.1,58.3 395.4,57.9 396.8,57.4 398.1,57.1 399.5,56.6 400.8,56.4 402.2,56.1 403.5,55.9 404.9,55.6 406.2,55.4 407.6,54.9 408.9,54.6 410.3,54.2 411.7,53.6 413.0,53.3 414.4,53.1 415.7,52.9 417.1,52.7 418.4,52.3 419.8,52.0 421.1,51.7 422.5,50.8 423.8,50.1 425.2,49.8 426.5,49.6 427.9,49.3 429.2,48.9 430.6,48.5 432.0,48.0 433.3,47.7 434.7,47.3 436.0,47.0 437.4,46.6 438.7,46.4 440.1,46.3 441.4,46.1 442.8,45.9 444.1,45.7 445.5,45.5 446.8,45.3 448.2,45.1 449.5,44.9 450.9,44.6 452.3,44.5 453.6,44.3 455.0,44.1 456.3,43.9 457.7,43.8 459.0,43.6 460.4,43.5 461.7,43.3 463.1,43.3 464.4,43.0 465.8,42.9 467.1,42.7 468.5,42.5 469.8,42.3 471.2,42.2 472.6,42.0 473.9,41.9 475.3,41.8 476.6,41.6 478.0,41.5 479.3,41.3 480.7,41.3 482.0,41.1 483.4,40.9 484.7,40.8 486.1,40.5 487.4,40.3 488.8,40.2 490.2,39.9 491.5,39.7 492.9,39.6 494.2,39.3 495.6,39.1 496.9,38.9 498.3,38.7 499.6,38.5 501.0,38.2 502.3,38.0 503.7,37.7 505.0,37.6 506.4,37.5 507.7,37.4 509.1,37.3 510.5,37.1 511.8,36.9 513.2,36.8 514.5,36.6 515.9,36.4 517.2,36.1 518.6,35.9 519.9,35.7 521.3,35.4 522.6,35.3 524.0,35.1 525.3,35.0 526.7,34.9 528.0,34.7 529.4,34.6 530.8,34.3 532.1,34.2 533.5,33.9 534.8,33.8 536.2,33.6 537.5,33.5 538.9,33.3 540.2,33.3 541.6,33.2 542.9,33.1 544.3,32.9 545.6,32.8 547.0,32.6 548.3,32.4 549.7,32.3 551.1,32.1 552.4,32.0 553.8,31.8 555.1,31.7 556.5,31.6 557.8,31.4 559.2,31.3 560.5,31.1 561.9,31.0 563.2,30.7 564.6,30.6 565.9,30.3 567.3,30.2 568.6,30.1 570.0,30.0" />
  
  <!-- Punto finale luminoso -->
  <circle cx="570.0" cy="30.0" r="4" fill="#ffffff" stroke="#0366d6" stroke-width="2.5" />
</svg>