<svg width="600" height="150" viewBox="0 0 600 150" xmlns="http://www.w3.org/2000/svg">
  <defs>
    <filter id="shadow2" x="-2%" y="-2%" width="104%" height="108%">
      <feDropShadow dx="0" dy="2" stdDeviation="3" flood-opacity="0.1" />
    </filter>
    <linearGradient id="fillGrad" x1="0" y1="0" x2="0" y2="1">
      <stop offset="0%" stop-color="#0366d6" stop-opacity="0.3"/>
      <stop offset="100%" stop-color="#0366d6" stop-opacity="0.02"/>
    </linearGradient>
  </defs>
  <rect width="600" height="150" rx="12" fill="#ffffff" filter="url(#shadow2)" stroke="#e1e4e8" stroke-width="1"/>
  <text x="20" y="24" fill="#2b3137" font-family="-apple-system,BlinkMacSystemFont,'Segoe UI',Helvetica,Arial,sans-serif" font-size="14" font-weight="600">📈 Download Growth (Actual: 85.4k)</text>
  
  <!-- Area sotto la linea -->
  <polygon fill="url(#fillGrad)" points="30.0,120.0,120 30.0,120.0 31.5,119.5 33.0,118.9 34.5,118.4 35.9,118.2 37.4,117.9 38.9,117.3 40.4,116.9 41.9,116.6 43.4,116.0 44.8,115.6 46.3,115.3 47.8,115.1 49.3,114.8 50.8,114.4 52.3,113.9 53.7,113.6 55.2,113.3 56.7,113.2 58.2,112.9 59.7,112.5 61.2,112.2 62.6,112.1 64.1,111.8 65.6,110.8 67.1,110.4 68.6,110.0 70.1,109.6 71.5,109.3 73.0,108.9 74.5,108.7 76.0,108.6 77.5,108.3 79.0,107.8 80.4,107.3 81.9,107.1 83.4,106.7 84.9,106.6 86.4,106.5 87.9,106.3 89.3,106.0 90.8,105.8 92.3,105.7 93.8,105.3 95.3,104.8 96.8,104.6 98.2,104.5 99.7,104.3 101.2,103.9 102.7,103.6 104.2,103.1 105.7,102.8 107.1,102.4 108.6,102.3 110.1,102.1 111.6,101.7 113.1,101.3 114.6,100.9 116.0,100.8 117.5,100.6 119.0,100.4 120.5,99.9 122.0,99.5 123.5,99.1 124.9,98.8 126.4,98.6 127.9,98.4 129.4,98.3 130.9,98.0 132.4,97.8 133.8,97.6 135.3,97.4 136.8,97.3 138.3,97.1 139.8,96.9 141.3,96.8 142.7,96.7 144.2,96.3 145.7,96.1 147.2,96.0 148.7,95.8 150.2,95.8 151.6,95.8 153.1,102.7 154.6,102.0 156.1,101.4 157.6,100.8 159.1,98.9 160.5,97.5 162.0,96.1 163.5,95.6 165.0,95.0 166.5,94.0 168.0,93.0 169.5,92.2 170.9,91.9 172.4,91.6 173.9,90.9 175.4,90.3 176.9,90.0 178.4,89.5 179.8,89.3 181.3,89.3 182.8,88.9 184.3,88.2 185.8,87.8 187.3,87.3 188.7,86.8 190.2,86.5 191.7,86.3 193.2,85.9 194.7,85.5 196.2,85.1 197.6,84.8 199.1,84.7 200.6,84.6 202.1,84.3 203.6,84.0 205.1,83.7 206.5,83.5 208.0,83.3 209.5,83.1 211.0,82.9 212.5,82.7 214.0,82.5 215.4,82.4 216.9,82.0 218.4,81.7 219.9,81.4 221.4,81.3 222.9,81.0 224.3,80.9 225.8,80.8 227.3,80.6 228.8,80.1 230.3,79.7 231.8,79.3 233.2,79.2 234.7,79.1 236.2,78.9 237.7,78.7 239.2,78.4 240.7,78.2 242.1,77.9 243.6,77.7 245.1,77.6 246.6,77.4 248.1,77.3 249.6,77.2 251.0,77.0 252.5,76.8 254.0,76.5 255.5,76.3 257.0,76.2 258.5,76.1 259.9,76.0 261.4,75.7 262.9,75.5 264.4,75.3 265.9,75.1 267.4,74.9 268.8,74.7 270.3,74.6 271.8,74.5 273.3,74.1 274.8,73.9 276.3,73.7 277.7,73.4 279.2,73.1 280.7,73.0 282.2,72.8 283.7,72.7 285.2,72.5 286.6,72.4 288.1,72.2 289.6,72.0 291.1,71.8 292.6,71.7 294.1,71.5 295.5,71.4 297.0,71.3 298.5,71.1 300.0,70.8 301.5,70.7 303.0,70.5 304.5,70.4 305.9,70.3 307.4,70.1 308.9,70.0 310.4,69.9 311.9,69.7 313.4,69.4 314.8,69.1 316.3,68.9 317.8,68.7 319.3,68.6 320.8,68.6 322.3,68.4 323.7,68.1 325.2,67.9 326.7,67.8 328.2,67.6 329.7,67.5 331.2,67.3 332.6,67.2 334.1,67.0 335.6,66.8 337.1,66.6 338.6,66.4 340.1,66.2 341.5,66.1 343.0,66.0 344.5,65.9 346.0,65.8 347.5,65.6 349.0,65.5 350.4,65.3 351.9,65.1 353.4,65.0 354.9,64.9 356.4,64.7 357.9,64.6 359.3,64.4 360.8,64.1 362.3,64.0 363.8,63.8 365.3,63.7 366.8,63.6 368.2,63.5 369.7,63.4 371.2,63.3 372.7,63.1 374.2,62.9 375.7,62.7 377.1,62.6 378.6,62.5 380.1,62.3 381.6,62.2 383.1,62.0 384.6,61.9 386.0,61.7 387.5,61.6 389.0,61.4 390.5,61.2 392.0,61.1 393.5,61.0 394.9,60.9 396.4,60.8 397.9,60.7 399.4,60.5 400.9,60.4 402.4,60.3 403.8,60.2 405.3,59.9 406.8,59.7 408.3,64.2 409.8,63.3 411.3,61.6 412.7,60.9 414.2,60.1 415.7,59.2 417.2,58.6 418.7,58.3 420.2,57.6 421.6,56.6 423.1,55.9 424.6,55.7 426.1,55.3 427.6,55.0 429.1,54.5 430.5,54.0 432.0,53.5 433.5,53.2 435.0,52.7 436.5,52.5 438.0,52.1 439.5,51.9 440.9,51.6 442.4,51.4 443.9,50.9 445.4,50.6 446.9,50.1 448.4,49.5 449.8,49.1 451.3,48.9 452.8,48.7 454.3,48.5 455.8,48.1 457.3,47.7 458.7,47.4 460.2,46.5 461.7,45.8 463.2,45.4 464.7,45.3 466.2,45.0 467.6,44.5 469.1,44.1 470.6,43.5 472.1,43.2 473.6,42.8 475.1,42.5 476.5,42.1 478.0,41.9 479.5,41.7 481.0,41.5 482.5,41.3 484.0,41.0 485.4,40.9 486.9,40.6 488.4,40.4 489.9,40.3 491.4,40.0 492.9,39.8 494.3,39.6 495.8,39.4 497.3,39.2 498.8,39.0 500.3,38.9 501.8,38.7 503.2,38.6 504.7,38.5 506.2,38.3 507.7,38.1 509.2,37.9 510.7,37.7 512.1,37.5 513.6,37.4 515.1,37.2 516.6,37.0 518.1,36.9 519.6,36.8 521.0,36.6 522.5,36.5 524.0,36.4 525.5,36.2 527.0,36.0 528.5,35.8 529.9,35.6 531.4,35.4 532.9,35.2 534.4,35.0 535.9,34.7 537.4,34.6 538.8,34.3 540.3,34.1 541.8,33.9 543.3,33.6 544.8,33.4 546.3,33.1 547.7,32.9 549.2,32.6 550.7,32.5 552.2,32.4 553.7,32.3 555.2,32.1 556.6,32.0 558.1,31.8 559.6,31.6 561.1,31.4 562.6,31.2 564.1,30.9 565.5,30.7 567.0,30.5 568.5,30.1 570.0,30.0 570.0,30.0,120" />
  
  <!-- Linea principale -->
  <polyline fill="none" stroke="#0366d6" stroke-width="2.5" stroke-linecap="round" stroke-linejoin="round" points="30.0,120.0 31.5,119.5 33.0,118.9 34.5,118.4 35.9,118.2 37.4,117.9 38.9,117.3 40.4,116.9 41.9,116.6 43.4,116.0 44.8,115.6 46.3,115.3 47.8,115.1 49.3,114.8 50.8,114.4 52.3,113.9 53.7,113.6 55.2,113.3 56.7,113.2 58.2,112.9 59.7,112.5 61.2,112.2 62.6,112.1 64.1,111.8 65.6,110.8 67.1,110.4 68.6,110.0 70.1,109.6 71.5,109.3 73.0,108.9 74.5,108.7 76.0,108.6 77.5,108.3 79.0,107.8 80.4,107.3 81.9,107.1 83.4,106.7 84.9,106.6 86.4,106.5 87.9,106.3 89.3,106.0 90.8,105.8 92.3,105.7 93.8,105.3 95.3,104.8 96.8,104.6 98.2,104.5 99.7,104.3 101.2,103.9 102.7,103.6 104.2,103.1 105.7,102.8 107.1,102.4 108.6,102.3 110.1,102.1 111.6,101.7 113.1,101.3 114.6,100.9 116.0,100.8 117.5,100.6 119.0,100.4 120.5,99.9 122.0,99.5 123.5,99.1 124.9,98.8 126.4,98.6 127.9,98.4 129.4,98.3 130.9,98.0 132.4,97.8 133.8,97.6 135.3,97.4 136.8,97.3 138.3,97.1 139.8,96.9 141.3,96.8 142.7,96.7 144.2,96.3 145.7,96.1 147.2,96.0 148.7,95.8 150.2,95.8 151.6,95.8 153.1,102.7 154.6,102.0 156.1,101.4 157.6,100.8 159.1,98.9 160.5,97.5 162.0,96.1 163.5,95.6 165.0,95.0 166.5,94.0 168.0,93.0 169.5,92.2 170.9,91.9 172.4,91.6 173.9,90.9 175.4,90.3 176.9,90.0 178.4,89.5 179.8,89.3 181.3,89.3 182.8,88.9 184.3,88.2 185.8,87.8 187.3,87.3 188.7,86.8 190.2,86.5 191.7,86.3 193.2,85.9 194.7,85.5 196.2,85.1 197.6,84.8 199.1,84.7 200.6,84.6 202.1,84.3 203.6,84.0 205.1,83.7 206.5,83.5 208.0,83.3 209.5,83.1 211.0,82.9 212.5,82.7 214.0,82.5 215.4,82.4 216.9,82.0 218.4,81.7 219.9,81.4 221.4,81.3 222.9,81.0 224.3,80.9 225.8,80.8 227.3,80.6 228.8,80.1 230.3,79.7 231.8,79.3 233.2,79.2 234.7,79.1 236.2,78.9 237.7,78.7 239.2,78.4 240.7,78.2 242.1,77.9 243.6,77.7 245.1,77.6 246.6,77.4 248.1,77.3 249.6,77.2 251.0,77.0 252.5,76.8 254.0,76.5 255.5,76.3 257.0,76.2 258.5,76.1 259.9,76.0 261.4,75.7 262.9,75.5 264.4,75.3 265.9,75.1 267.4,74.9 268.8,74.7 270.3,74.6 271.8,74.5 273.3,74.1 274.8,73.9 276.3,73.7 277.7,73.4 279.2,73.1 280.7,73.0 282.2,72.8 283.7,72.7 285.2,72.5 286.6,72.4 288.1,72.2 289.6,72.0 291.1,71.8 292.6,71.7 294.1,71.5 295.5,71.4 297.0,71.3 298.5,71.1 300.0,70.8 301.5,70.7 303.0,70.5 304.5,70.4 305.9,70.3 307.4,70.1 308.9,70.0 310.4,69.9 311.9,69.7 313.4,69.4 314.8,69.1 316.3,68.9 317.8,68.7 319.3,68.6 320.8,68.6 322.3,68.4 323.7,68.1 325.2,67.9 326.7,67.8 328.2,67.6 329.7,67.5 331.2,67.3 332.6,67.2 334.1,67.0 335.6,66.8 337.1,66.6 338.6,66.4 340.1,66.2 341.5,66.1 343.0,66.0 344.5,65.9 346.0,65.8 347.5,65.6 349.0,65.5 350.4,65.3 351.9,65.1 353.4,65.0 354.9,64.9 356.4,64.7 357.9,64.6 359.3,64.4 360.8,64.1 362.3,64.0 363.8,63.8 365.3,63.7 366.8,63.6 368.2,63.5 369.7,63.4 371.2,63.3 372.7,63.1 374.2,62.9 375.7,62.7 377.1,62.6 378.6,62.5 380.1,62.3 381.6,62.2 383.1,62.0 384.6,61.9 386.0,61.7 387.5,61.6 389.0,61.4 390.5,61.2 392.0,61.1 393.5,61.0 394.9,60.9 396.4,60.8 397.9,60.7 399.4,60.5 400.9,60.4 402.4,60.3 403.8,60.2 405.3,59.9 406.8,59.7 408.3,64.2 409.8,63.3 411.3,61.6 412.7,60.9 414.2,60.1 415.7,59.2 417.2,58.6 418.7,58.3 420.2,57.6 421.6,56.6 423.1,55.9 424.6,55.7 426.1,55.3 427.6,55.0 429.1,54.5 430.5,54.0 432.0,53.5 433.5,53.2 435.0,52.7 436.5,52.5 438.0,52.1 439.5,51.9 440.9,51.6 442.4,51.4 443.9,50.9 445.4,50.6 446.9,50.1 448.4,49.5 449.8,49.1 451.3,48.9 452.8,48.7 454.3,48.5 455.8,48.1 457.3,47.7 458.7,47.4 460.2,46.5 461.7,45.8 463.2,45.4 464.7,45.3 466.2,45.0 467.6,44.5 469.1,44.1 470.6,43.5 472.1,43.2 473.6,42.8 475.1,42.5 476.5,42.1 478.0,41.9 479.5,41.7 481.0,41.5 482.5,41.3 484.0,41.0 485.4,40.9 486.9,40.6 488.4,40.4 489.9,40.3 491.4,40.0 492.9,39.8 494.3,39.6 495.8,39.4 497.3,39.2 498.8,39.0 500.3,38.9 501.8,38.7 503.2,38.6 504.7,38.5 506.2,38.3 507.7,38.1 509.2,37.9 510.7,37.7 512.1,37.5 513.6,37.4 515.1,37.2 516.6,37.0 518.1,36.9 519.6,36.8 521.0,36.6 522.5,36.5 524.0,36.4 525.5,36.2 527.0,36.0 528.5,35.8 529.9,35.6 531.4,35.4 532.9,35.2 534.4,35.0 535.9,34.7 537.4,34.6 538.8,34.3 540.3,34.1 541.8,33.9 543.3,33.6 544.8,33.4 546.3,33.1 547.7,32.9 549.2,32.6 550.7,32.5 552.2,32.4 553.7,32.3 555.2,32.1 556.6,32.0 558.1,31.8 559.6,31.6 561.1,31.4 562.6,31.2 564.1,30.9 565.5,30.7 567.0,30.5 568.5,30.1 570.0,30.0" />
  
  <!-- Punto finale luminoso -->
  <circle cx="570.0" cy="30.0" r="4" fill="#ffffff" stroke="#0366d6" stroke-width="2.5" />
</svg>