<svg width="600" height="150" viewBox="0 0 600 150" xmlns="http://www.w3.org/2000/svg">
  <defs>
    <filter id="shadow2" x="-2%" y="-2%" width="104%" height="108%">
      <feDropShadow dx="0" dy="2" stdDeviation="3" flood-opacity="0.1" />
    </filter>
    <linearGradient id="fillGrad" x1="0" y1="0" x2="0" y2="1">
      <stop offset="0%" stop-color="#0366d6" stop-opacity="0.3"/>
      <stop offset="100%" stop-color="#0366d6" stop-opacity="0.02"/>
    </linearGradient>
  </defs>
  <rect width="600" height="150" rx="12" fill="#ffffff" filter="url(#shadow2)" stroke="#e1e4e8" stroke-width="1"/>
  <text x="20" y="24" fill="#2b3137" font-family="-apple-system,BlinkMacSystemFont,'Segoe UI',Helvetica,Arial,sans-serif" font-size="14" font-weight="600">📈 Download Growth (Actual: 86.9k)</text>
  
  <!-- Area sotto la linea -->
  <polygon fill="url(#fillGrad)" points="30.0,120.0,120 30.0,120.0 31.3,119.5 32.6,118.9 34.0,118.5 35.3,118.3 36.6,118.1 37.9,117.5 39.2,117.1 40.6,116.9 41.9,116.2 43.2,115.9 44.5,115.6 45.8,115.5 47.2,115.2 48.5,114.8 49.8,114.4 51.1,114.0 52.4,113.8 53.8,113.6 55.1,113.4 56.4,113.1 57.7,112.8 59.0,112.6 60.4,112.4 61.7,111.4 63.0,111.1 64.3,110.8 65.6,110.4 67.0,110.1 68.3,109.7 69.6,109.5 70.9,109.4 72.2,109.1 73.6,108.7 74.9,108.3 76.2,108.0 77.5,107.7 78.9,107.6 80.2,107.5 81.5,107.3 82.8,107.0 84.1,106.8 85.5,106.7 86.8,106.4 88.1,105.9 89.4,105.7 90.7,105.6 92.1,105.4 93.4,105.0 94.7,104.8 96.0,104.3 97.3,104.0 98.7,103.7 100.0,103.6 101.3,103.4 102.6,103.0 103.9,102.6 105.3,102.3 106.6,102.2 107.9,102.0 109.2,101.8 110.5,101.4 111.9,101.0 113.2,100.6 114.5,100.3 115.8,100.1 117.1,100.0 118.5,99.8 119.8,99.6 121.1,99.4 122.4,99.2 123.7,99.1 125.1,98.9 126.4,98.7 127.7,98.6 129.0,98.5 130.3,98.4 131.7,98.0 133.0,97.8 134.3,97.7 135.6,97.6 136.9,97.5 138.3,97.5 139.6,103.9 140.9,103.3 142.2,102.7 143.5,102.1 144.9,100.4 146.2,99.2 147.5,97.9 148.8,97.4 150.1,96.8 151.5,95.9 152.8,94.9 154.1,94.2 155.4,93.9 156.7,93.7 158.1,93.0 159.4,92.5 160.7,92.1 162.0,91.7 163.3,91.5 164.7,91.5 166.0,91.1 167.3,90.5 168.6,90.1 170.0,89.6 171.3,89.2 172.6,88.9 173.9,88.8 175.2,88.3 176.6,88.0 177.9,87.6 179.2,87.3 180.5,87.2 181.8,87.1 183.2,86.9 184.5,86.6 185.8,86.3 187.1,86.1 188.4,85.9 189.8,85.7 191.1,85.6 192.4,85.4 193.7,85.2 195.0,85.1 196.4,84.7 197.7,84.5 199.0,84.2 200.3,84.0 201.6,83.8 203.0,83.7 204.3,83.6 205.6,83.4 206.9,83.0 208.2,82.6 209.6,82.3 210.9,82.1 212.2,82.1 213.5,81.9 214.8,81.7 216.2,81.4 217.5,81.2 218.8,80.9 220.1,80.7 221.4,80.6 222.8,80.5 224.1,80.4 225.4,80.2 226.7,80.1 228.0,79.9 229.4,79.6 230.7,79.5 232.0,79.4 233.3,79.3 234.6,79.2 236.0,78.9 237.3,78.7 238.6,78.5 239.9,78.3 241.2,78.1 242.6,78.0 243.9,77.9 245.2,77.7 246.5,77.4 247.8,77.2 249.2,77.0 250.5,76.8 251.8,76.4 253.1,76.4 254.4,76.2 255.8,76.1 257.1,76.0 258.4,75.8 259.7,75.6 261.1,75.5 262.4,75.3 263.7,75.2 265.0,75.0 266.3,74.9 267.7,74.8 269.0,74.6 270.3,74.4 271.6,74.3 272.9,74.1 274.3,74.0 275.6,73.8 276.9,73.7 278.2,73.6 279.5,73.5 280.9,73.3 282.2,73.0 283.5,72.7 284.8,72.5 286.1,72.4 287.5,72.3 288.8,72.3 290.1,72.1 291.4,71.8 292.7,71.7 294.1,71.6 295.4,71.4 296.7,71.3 298.0,71.1 299.3,71.0 300.7,70.9 302.0,70.6 303.3,70.5 304.6,70.2 305.9,70.0 307.3,70.0 308.6,69.9 309.9,69.8 311.2,69.7 312.5,69.5 313.9,69.4 315.2,69.2 316.5,69.0 317.8,68.9 319.1,68.8 320.5,68.7 321.8,68.6 323.1,68.4 324.4,68.1 325.7,68.0 327.1,67.8 328.4,67.7 329.7,67.6 331.0,67.5 332.3,67.4 333.7,67.3 335.0,67.2 336.3,67.0 337.6,66.8 338.9,66.7 340.3,66.6 341.6,66.5 342.9,66.3 344.2,66.1 345.6,66.0 346.9,65.9 348.2,65.8 349.5,65.6 350.8,65.5 352.2,65.3 353.5,65.2 354.8,65.2 356.1,65.0 357.4,64.9 358.8,64.8 360.1,64.7 361.4,64.6 362.7,64.5 364.0,64.2 365.4,64.0 366.7,68.2 368.0,67.4 369.3,65.8 370.6,65.2 372.0,64.5 373.3,63.5 374.6,63.1 375.9,62.7 377.2,62.1 378.6,61.2 379.9,60.5 381.2,60.3 382.5,60.0 383.8,59.7 385.2,59.2 386.5,58.8 387.8,58.3 389.1,58.0 390.4,57.6 391.8,57.3 393.1,57.0 394.4,56.8 395.7,56.6 397.0,56.3 398.4,55.9 399.7,55.6 401.0,55.1 402.3,54.6 403.6,54.2 405.0,54.0 406.3,53.9 407.6,53.6 408.9,53.3 410.2,52.9 411.6,52.6 412.9,51.8 414.2,51.1 415.5,50.8 416.8,50.6 418.2,50.4 419.5,49.9 420.8,49.5 422.1,49.0 423.4,48.7 424.8,48.4 426.1,48.1 427.4,47.7 428.7,47.5 430.0,47.3 431.4,47.2 432.7,47.0 434.0,46.7 435.3,46.6 436.7,46.3 438.0,46.1 439.3,46.0 440.6,45.7 441.9,45.6 443.3,45.4 444.6,45.2 445.9,45.0 447.2,44.9 448.5,44.7 449.9,44.6 451.2,44.4 452.5,44.4 453.8,44.2 455.1,44.0 456.5,43.8 457.8,43.6 459.1,43.4 460.4,43.3 461.7,43.1 463.1,43.0 464.4,42.9 465.7,42.8 467.0,42.6 468.3,42.5 469.7,42.4 471.0,42.2 472.3,42.0 473.6,41.9 474.9,41.7 476.3,41.5 477.6,41.3 478.9,41.1 480.2,40.9 481.5,40.7 482.9,40.5 484.2,40.3 485.5,40.1 486.8,39.8 488.1,39.6 489.5,39.4 490.8,39.2 492.1,38.9 493.4,38.8 494.7,38.7 496.1,38.6 497.4,38.4 498.7,38.3 500.0,38.1 501.3,38.0 502.7,37.8 504.0,37.6 505.3,37.3 506.6,37.1 507.9,36.9 509.3,36.6 510.6,36.5 511.9,36.3 513.2,36.2 514.5,36.1 515.9,35.9 517.2,35.8 518.5,35.6 519.8,35.4 521.1,35.2 522.5,35.0 523.8,34.9 525.1,34.7 526.4,34.6 527.8,34.5 529.1,34.4 530.4,34.3 531.7,34.1 533.0,34.0 534.4,33.9 535.7,33.7 537.0,33.5 538.3,33.4 539.6,33.2 541.0,33.1 542.3,33.0 543.6,32.8 544.9,32.7 546.2,32.6 547.6,32.4 548.9,32.3 550.2,32.0 551.5,31.9 552.8,31.5 554.2,31.5 555.5,31.4 556.8,31.3 558.1,31.1 559.4,31.1 560.8,31.0 562.1,30.9 563.4,30.8 564.7,30.7 566.0,30.5 567.4,30.4 568.7,30.1 570.0,30.0 570.0,30.0,120" />
  
  <!-- Linea principale -->
  <polyline fill="none" stroke="#0366d6" stroke-width="2.5" stroke-linecap="round" stroke-linejoin="round" points="30.0,120.0 31.3,119.5 32.6,118.9 34.0,118.5 35.3,118.3 36.6,118.1 37.9,117.5 39.2,117.1 40.6,116.9 41.9,116.2 43.2,115.9 44.5,115.6 45.8,115.5 47.2,115.2 48.5,114.8 49.8,114.4 51.1,114.0 52.4,113.8 53.8,113.6 55.1,113.4 56.4,113.1 57.7,112.8 59.0,112.6 60.4,112.4 61.7,111.4 63.0,111.1 64.3,110.8 65.6,110.4 67.0,110.1 68.3,109.7 69.6,109.5 70.9,109.4 72.2,109.1 73.6,108.7 74.9,108.3 76.2,108.0 77.5,107.7 78.9,107.6 80.2,107.5 81.5,107.3 82.8,107.0 84.1,106.8 85.5,106.7 86.8,106.4 88.1,105.9 89.4,105.7 90.7,105.6 92.1,105.4 93.4,105.0 94.7,104.8 96.0,104.3 97.3,104.0 98.7,103.7 100.0,103.6 101.3,103.4 102.6,103.0 103.9,102.6 105.3,102.3 106.6,102.2 107.9,102.0 109.2,101.8 110.5,101.4 111.9,101.0 113.2,100.6 114.5,100.3 115.8,100.1 117.1,100.0 118.5,99.8 119.8,99.6 121.1,99.4 122.4,99.2 123.7,99.1 125.1,98.9 126.4,98.7 127.7,98.6 129.0,98.5 130.3,98.4 131.7,98.0 133.0,97.8 134.3,97.7 135.6,97.6 136.9,97.5 138.3,97.5 139.6,103.9 140.9,103.3 142.2,102.7 143.5,102.1 144.9,100.4 146.2,99.2 147.5,97.9 148.8,97.4 150.1,96.8 151.5,95.9 152.8,94.9 154.1,94.2 155.4,93.9 156.7,93.7 158.1,93.0 159.4,92.5 160.7,92.1 162.0,91.7 163.3,91.5 164.7,91.5 166.0,91.1 167.3,90.5 168.6,90.1 170.0,89.6 171.3,89.2 172.6,88.9 173.9,88.8 175.2,88.3 176.6,88.0 177.9,87.6 179.2,87.3 180.5,87.2 181.8,87.1 183.2,86.9 184.5,86.6 185.8,86.3 187.1,86.1 188.4,85.9 189.8,85.7 191.1,85.6 192.4,85.4 193.7,85.2 195.0,85.1 196.4,84.7 197.7,84.5 199.0,84.2 200.3,84.0 201.6,83.8 203.0,83.7 204.3,83.6 205.6,83.4 206.9,83.0 208.2,82.6 209.6,82.3 210.9,82.1 212.2,82.1 213.5,81.9 214.8,81.7 216.2,81.4 217.5,81.2 218.8,80.9 220.1,80.7 221.4,80.6 222.8,80.5 224.1,80.4 225.4,80.2 226.7,80.1 228.0,79.9 229.4,79.6 230.7,79.5 232.0,79.4 233.3,79.3 234.6,79.2 236.0,78.9 237.3,78.7 238.6,78.5 239.9,78.3 241.2,78.1 242.6,78.0 243.9,77.9 245.2,77.7 246.5,77.4 247.8,77.2 249.2,77.0 250.5,76.8 251.8,76.4 253.1,76.4 254.4,76.2 255.8,76.1 257.1,76.0 258.4,75.8 259.7,75.6 261.1,75.5 262.4,75.3 263.7,75.2 265.0,75.0 266.3,74.9 267.7,74.8 269.0,74.6 270.3,74.4 271.6,74.3 272.9,74.1 274.3,74.0 275.6,73.8 276.9,73.7 278.2,73.6 279.5,73.5 280.9,73.3 282.2,73.0 283.5,72.7 284.8,72.5 286.1,72.4 287.5,72.3 288.8,72.3 290.1,72.1 291.4,71.8 292.7,71.7 294.1,71.6 295.4,71.4 296.7,71.3 298.0,71.1 299.3,71.0 300.7,70.9 302.0,70.6 303.3,70.5 304.6,70.2 305.9,70.0 307.3,70.0 308.6,69.9 309.9,69.8 311.2,69.7 312.5,69.5 313.9,69.4 315.2,69.2 316.5,69.0 317.8,68.9 319.1,68.8 320.5,68.7 321.8,68.6 323.1,68.4 324.4,68.1 325.7,68.0 327.1,67.8 328.4,67.7 329.7,67.6 331.0,67.5 332.3,67.4 333.7,67.3 335.0,67.2 336.3,67.0 337.6,66.8 338.9,66.7 340.3,66.6 341.6,66.5 342.9,66.3 344.2,66.1 345.6,66.0 346.9,65.9 348.2,65.8 349.5,65.6 350.8,65.5 352.2,65.3 353.5,65.2 354.8,65.2 356.1,65.0 357.4,64.9 358.8,64.8 360.1,64.7 361.4,64.6 362.7,64.5 364.0,64.2 365.4,64.0 366.7,68.2 368.0,67.4 369.3,65.8 370.6,65.2 372.0,64.5 373.3,63.5 374.6,63.1 375.9,62.7 377.2,62.1 378.6,61.2 379.9,60.5 381.2,60.3 382.5,60.0 383.8,59.7 385.2,59.2 386.5,58.8 387.8,58.3 389.1,58.0 390.4,57.6 391.8,57.3 393.1,57.0 394.4,56.8 395.7,56.6 397.0,56.3 398.4,55.9 399.7,55.6 401.0,55.1 402.3,54.6 403.6,54.2 405.0,54.0 406.3,53.9 407.6,53.6 408.9,53.3 410.2,52.9 411.6,52.6 412.9,51.8 414.2,51.1 415.5,50.8 416.8,50.6 418.2,50.4 419.5,49.9 420.8,49.5 422.1,49.0 423.4,48.7 424.8,48.4 426.1,48.1 427.4,47.7 428.7,47.5 430.0,47.3 431.4,47.2 432.7,47.0 434.0,46.7 435.3,46.6 436.7,46.3 438.0,46.1 439.3,46.0 440.6,45.7 441.9,45.6 443.3,45.4 444.6,45.2 445.9,45.0 447.2,44.9 448.5,44.7 449.9,44.6 451.2,44.4 452.5,44.4 453.8,44.2 455.1,44.0 456.5,43.8 457.8,43.6 459.1,43.4 460.4,43.3 461.7,43.1 463.1,43.0 464.4,42.9 465.7,42.8 467.0,42.6 468.3,42.5 469.7,42.4 471.0,42.2 472.3,42.0 473.6,41.9 474.9,41.7 476.3,41.5 477.6,41.3 478.9,41.1 480.2,40.9 481.5,40.7 482.9,40.5 484.2,40.3 485.5,40.1 486.8,39.8 488.1,39.6 489.5,39.4 490.8,39.2 492.1,38.9 493.4,38.8 494.7,38.7 496.1,38.6 497.4,38.4 498.7,38.3 500.0,38.1 501.3,38.0 502.7,37.8 504.0,37.6 505.3,37.3 506.6,37.1 507.9,36.9 509.3,36.6 510.6,36.5 511.9,36.3 513.2,36.2 514.5,36.1 515.9,35.9 517.2,35.8 518.5,35.6 519.8,35.4 521.1,35.2 522.5,35.0 523.8,34.9 525.1,34.7 526.4,34.6 527.8,34.5 529.1,34.4 530.4,34.3 531.7,34.1 533.0,34.0 534.4,33.9 535.7,33.7 537.0,33.5 538.3,33.4 539.6,33.2 541.0,33.1 542.3,33.0 543.6,32.8 544.9,32.7 546.2,32.6 547.6,32.4 548.9,32.3 550.2,32.0 551.5,31.9 552.8,31.5 554.2,31.5 555.5,31.4 556.8,31.3 558.1,31.1 559.4,31.1 560.8,31.0 562.1,30.9 563.4,30.8 564.7,30.7 566.0,30.5 567.4,30.4 568.7,30.1 570.0,30.0" />
  
  <!-- Punto finale luminoso -->
  <circle cx="570.0" cy="30.0" r="4" fill="#ffffff" stroke="#0366d6" stroke-width="2.5" />
</svg>