<svg width="600" height="150" viewBox="0 0 600 150" xmlns="http://www.w3.org/2000/svg">
  <defs>
    <filter id="shadow2" x="-2%" y="-2%" width="104%" height="108%">
      <feDropShadow dx="0" dy="2" stdDeviation="3" flood-opacity="0.1" />
    </filter>
    <linearGradient id="fillGrad" x1="0" y1="0" x2="0" y2="1">
      <stop offset="0%" stop-color="#0366d6" stop-opacity="0.3"/>
      <stop offset="100%" stop-color="#0366d6" stop-opacity="0.02"/>
    </linearGradient>
  </defs>
  <rect width="600" height="150" rx="12" fill="#ffffff" filter="url(#shadow2)" stroke="#e1e4e8" stroke-width="1"/>
  <text x="20" y="24" fill="#2b3137" font-family="-apple-system,BlinkMacSystemFont,'Segoe UI',Helvetica,Arial,sans-serif" font-size="14" font-weight="600">📈 Download Growth (Actual: 85.0k)</text>
  
  <!-- Area sotto la linea -->
  <polygon fill="url(#fillGrad)" points="30.0,120.0,120 30.0,120.0 31.5,119.4 33.1,118.8 34.6,118.3 36.1,118.2 37.6,117.9 39.2,117.2 40.7,116.8 42.2,116.5 43.7,115.9 45.3,115.5 46.8,115.2 48.3,115.0 49.8,114.7 51.4,114.3 52.9,113.8 54.4,113.4 55.9,113.2 57.5,113.0 59.0,112.7 60.5,112.3 62.0,112.0 63.6,111.9 65.1,111.6 66.6,110.5 68.1,110.2 69.7,109.8 71.2,109.4 72.7,109.0 74.2,108.7 75.8,108.5 77.3,108.3 78.8,108.0 80.3,107.5 81.9,107.0 83.4,106.7 84.9,106.4 86.4,106.3 88.0,106.2 89.5,106.0 91.0,105.7 92.5,105.5 94.1,105.3 95.6,105.0 97.1,104.4 98.6,104.3 100.2,104.2 101.7,103.9 103.2,103.5 104.7,103.2 106.3,102.7 107.8,102.4 109.3,102.0 110.8,101.9 112.4,101.6 113.9,101.2 115.4,100.8 116.9,100.5 118.5,100.3 120.0,100.1 121.5,99.9 123.1,99.5 124.6,99.0 126.1,98.6 127.6,98.2 129.2,98.0 130.7,97.9 132.2,97.8 133.7,97.4 135.3,97.2 136.8,97.0 138.3,96.9 139.8,96.7 141.4,96.5 142.9,96.4 144.4,96.3 145.9,96.2 147.5,95.7 149.0,95.5 150.5,95.4 152.0,95.3 153.6,95.2 155.1,95.2 156.6,102.3 158.1,101.6 159.7,101.0 161.2,100.3 162.7,98.4 164.2,97.0 165.8,95.6 167.3,95.0 168.8,94.4 170.3,93.4 171.9,92.3 173.4,91.5 174.9,91.2 176.4,91.0 178.0,90.2 179.5,89.6 181.0,89.2 182.5,88.8 184.1,88.6 185.6,88.5 187.1,88.1 188.6,87.4 190.2,87.0 191.7,86.5 193.2,86.0 194.7,85.7 196.3,85.5 197.8,85.1 199.3,84.7 200.8,84.3 202.4,83.9 203.9,83.8 205.4,83.7 206.9,83.5 208.5,83.1 210.0,82.9 211.5,82.6 213.1,82.4 214.6,82.2 216.1,82.0 217.6,81.8 219.2,81.6 220.7,81.5 222.2,81.1 223.7,80.8 225.3,80.5 226.8,80.3 228.3,80.1 229.8,80.0 231.4,79.8 232.9,79.6 234.4,79.1 235.9,78.8 237.5,78.3 239.0,78.2 240.5,78.1 242.0,77.9 243.6,77.7 245.1,77.4 246.6,77.2 248.1,76.9 249.7,76.7 251.2,76.6 252.7,76.4 254.2,76.3 255.8,76.1 257.3,75.9 258.8,75.7 260.3,75.4 261.9,75.3 263.4,75.2 264.9,75.0 266.4,75.0 268.0,74.7 269.5,74.5 271.0,74.2 272.5,74.0 274.1,73.8 275.6,73.6 277.1,73.5 278.6,73.4 280.2,73.0 281.7,72.7 283.2,72.5 284.7,72.3 286.3,71.9 287.8,71.8 289.3,71.7 290.8,71.6 292.4,71.4 293.9,71.2 295.4,71.0 296.9,70.9 298.5,70.7 300.0,70.5 301.5,70.4 303.1,70.2 304.6,70.1 306.1,70.0 307.6,69.7 309.2,69.5 310.7,69.3 312.2,69.2 313.7,69.1 315.3,68.9 316.8,68.8 318.3,68.6 319.8,68.5 321.4,68.2 322.9,67.8 324.4,67.6 325.9,67.5 327.5,67.4 329.0,67.3 330.5,67.1 332.0,66.8 333.6,66.7 335.1,66.6 336.6,66.4 338.1,66.2 339.7,66.0 341.2,65.9 342.7,65.8 344.2,65.5 345.8,65.3 347.3,65.1 348.8,64.9 350.3,64.8 351.9,64.7 353.4,64.6 354.9,64.5 356.4,64.3 358.0,64.1 359.5,64.0 361.0,63.8 362.5,63.6 364.1,63.5 365.6,63.4 367.1,63.2 368.6,63.0 370.2,62.8 371.7,62.6 373.2,62.4 374.7,62.3 376.3,62.2 377.8,62.1 379.3,62.0 380.8,61.9 382.4,61.7 383.9,61.5 385.4,61.3 386.9,61.2 388.5,61.1 390.0,60.9 391.5,60.8 393.1,60.6 394.6,60.4 396.1,60.3 397.6,60.2 399.2,60.0 400.7,59.8 402.2,59.7 403.7,59.6 405.3,59.5 406.8,59.4 408.3,59.2 409.8,59.1 411.4,59.0 412.9,58.9 414.4,58.8 415.9,58.4 417.5,58.2 419.0,62.8 420.5,61.9 422.0,60.2 423.6,59.5 425.1,58.7 426.6,57.7 428.1,57.2 429.7,56.8 431.2,56.1 432.7,55.1 434.2,54.4 435.8,54.1 437.3,53.8 438.8,53.4 440.3,52.9 441.9,52.4 443.4,51.9 444.9,51.6 446.4,51.1 448.0,50.8 449.5,50.5 451.0,50.2 452.5,50.0 454.1,49.7 455.6,49.2 457.1,48.9 458.6,48.4 460.2,47.8 461.7,47.4 463.2,47.2 464.7,47.0 466.3,46.8 467.8,46.4 469.3,46.0 470.8,45.7 472.4,44.7 473.9,44.0 475.4,43.6 476.9,43.5 478.5,43.1 480.0,42.7 481.5,42.2 483.1,41.7 484.6,41.3 486.1,41.0 487.6,40.7 489.2,40.2 490.7,40.0 492.2,39.8 493.7,39.6 495.3,39.4 496.8,39.1 498.3,39.0 499.8,38.7 501.4,38.5 502.9,38.3 504.4,38.0 505.9,37.9 507.5,37.6 509.0,37.4 510.5,37.2 512.0,37.1 513.6,36.9 515.1,36.8 516.6,36.6 518.1,36.5 519.7,36.3 521.2,36.1 522.7,35.9 524.2,35.7 525.8,35.5 527.3,35.4 528.8,35.2 530.3,35.0 531.9,34.9 533.4,34.8 534.9,34.6 536.4,34.4 538.0,34.3 539.5,34.2 541.0,34.0 542.5,33.8 544.1,33.5 545.6,33.3 547.1,33.2 548.6,32.9 550.2,32.7 551.7,32.5 553.2,32.2 554.7,32.0 556.3,31.8 557.8,31.5 559.3,31.3 560.8,31.0 562.4,30.8 563.9,30.5 565.4,30.4 566.9,30.3 568.5,30.2 570.0,30.0 570.0,30.0,120" />
  
  <!-- Linea principale -->
  <polyline fill="none" stroke="#0366d6" stroke-width="2.5" stroke-linecap="round" stroke-linejoin="round" points="30.0,120.0 31.5,119.4 33.1,118.8 34.6,118.3 36.1,118.2 37.6,117.9 39.2,117.2 40.7,116.8 42.2,116.5 43.7,115.9 45.3,115.5 46.8,115.2 48.3,115.0 49.8,114.7 51.4,114.3 52.9,113.8 54.4,113.4 55.9,113.2 57.5,113.0 59.0,112.7 60.5,112.3 62.0,112.0 63.6,111.9 65.1,111.6 66.6,110.5 68.1,110.2 69.7,109.8 71.2,109.4 72.7,109.0 74.2,108.7 75.8,108.5 77.3,108.3 78.8,108.0 80.3,107.5 81.9,107.0 83.4,106.7 84.9,106.4 86.4,106.3 88.0,106.2 89.5,106.0 91.0,105.7 92.5,105.5 94.1,105.3 95.6,105.0 97.1,104.4 98.6,104.3 100.2,104.2 101.7,103.9 103.2,103.5 104.7,103.2 106.3,102.7 107.8,102.4 109.3,102.0 110.8,101.9 112.4,101.6 113.9,101.2 115.4,100.8 116.9,100.5 118.5,100.3 120.0,100.1 121.5,99.9 123.1,99.5 124.6,99.0 126.1,98.6 127.6,98.2 129.2,98.0 130.7,97.9 132.2,97.8 133.7,97.4 135.3,97.2 136.8,97.0 138.3,96.9 139.8,96.7 141.4,96.5 142.9,96.4 144.4,96.3 145.9,96.2 147.5,95.7 149.0,95.5 150.5,95.4 152.0,95.3 153.6,95.2 155.1,95.2 156.6,102.3 158.1,101.6 159.7,101.0 161.2,100.3 162.7,98.4 164.2,97.0 165.8,95.6 167.3,95.0 168.8,94.4 170.3,93.4 171.9,92.3 173.4,91.5 174.9,91.2 176.4,91.0 178.0,90.2 179.5,89.6 181.0,89.2 182.5,88.8 184.1,88.6 185.6,88.5 187.1,88.1 188.6,87.4 190.2,87.0 191.7,86.5 193.2,86.0 194.7,85.7 196.3,85.5 197.8,85.1 199.3,84.7 200.8,84.3 202.4,83.9 203.9,83.8 205.4,83.7 206.9,83.5 208.5,83.1 210.0,82.9 211.5,82.6 213.1,82.4 214.6,82.2 216.1,82.0 217.6,81.8 219.2,81.6 220.7,81.5 222.2,81.1 223.7,80.8 225.3,80.5 226.8,80.3 228.3,80.1 229.8,80.0 231.4,79.8 232.9,79.6 234.4,79.1 235.9,78.8 237.5,78.3 239.0,78.2 240.5,78.1 242.0,77.9 243.6,77.7 245.1,77.4 246.6,77.2 248.1,76.9 249.7,76.7 251.2,76.6 252.7,76.4 254.2,76.3 255.8,76.1 257.3,75.9 258.8,75.7 260.3,75.4 261.9,75.3 263.4,75.2 264.9,75.0 266.4,75.0 268.0,74.7 269.5,74.5 271.0,74.2 272.5,74.0 274.1,73.8 275.6,73.6 277.1,73.5 278.6,73.4 280.2,73.0 281.7,72.7 283.2,72.5 284.7,72.3 286.3,71.9 287.8,71.8 289.3,71.7 290.8,71.6 292.4,71.4 293.9,71.2 295.4,71.0 296.9,70.9 298.5,70.7 300.0,70.5 301.5,70.4 303.1,70.2 304.6,70.1 306.1,70.0 307.6,69.7 309.2,69.5 310.7,69.3 312.2,69.2 313.7,69.1 315.3,68.9 316.8,68.8 318.3,68.6 319.8,68.5 321.4,68.2 322.9,67.8 324.4,67.6 325.9,67.5 327.5,67.4 329.0,67.3 330.5,67.1 332.0,66.8 333.6,66.7 335.1,66.6 336.6,66.4 338.1,66.2 339.7,66.0 341.2,65.9 342.7,65.8 344.2,65.5 345.8,65.3 347.3,65.1 348.8,64.9 350.3,64.8 351.9,64.7 353.4,64.6 354.9,64.5 356.4,64.3 358.0,64.1 359.5,64.0 361.0,63.8 362.5,63.6 364.1,63.5 365.6,63.4 367.1,63.2 368.6,63.0 370.2,62.8 371.7,62.6 373.2,62.4 374.7,62.3 376.3,62.2 377.8,62.1 379.3,62.0 380.8,61.9 382.4,61.7 383.9,61.5 385.4,61.3 386.9,61.2 388.5,61.1 390.0,60.9 391.5,60.8 393.1,60.6 394.6,60.4 396.1,60.3 397.6,60.2 399.2,60.0 400.7,59.8 402.2,59.7 403.7,59.6 405.3,59.5 406.8,59.4 408.3,59.2 409.8,59.1 411.4,59.0 412.9,58.9 414.4,58.8 415.9,58.4 417.5,58.2 419.0,62.8 420.5,61.9 422.0,60.2 423.6,59.5 425.1,58.7 426.6,57.7 428.1,57.2 429.7,56.8 431.2,56.1 432.7,55.1 434.2,54.4 435.8,54.1 437.3,53.8 438.8,53.4 440.3,52.9 441.9,52.4 443.4,51.9 444.9,51.6 446.4,51.1 448.0,50.8 449.5,50.5 451.0,50.2 452.5,50.0 454.1,49.7 455.6,49.2 457.1,48.9 458.6,48.4 460.2,47.8 461.7,47.4 463.2,47.2 464.7,47.0 466.3,46.8 467.8,46.4 469.3,46.0 470.8,45.7 472.4,44.7 473.9,44.0 475.4,43.6 476.9,43.5 478.5,43.1 480.0,42.7 481.5,42.2 483.1,41.7 484.6,41.3 486.1,41.0 487.6,40.7 489.2,40.2 490.7,40.0 492.2,39.8 493.7,39.6 495.3,39.4 496.8,39.1 498.3,39.0 499.8,38.7 501.4,38.5 502.9,38.3 504.4,38.0 505.9,37.9 507.5,37.6 509.0,37.4 510.5,37.2 512.0,37.1 513.6,36.9 515.1,36.8 516.6,36.6 518.1,36.5 519.7,36.3 521.2,36.1 522.7,35.9 524.2,35.7 525.8,35.5 527.3,35.4 528.8,35.2 530.3,35.0 531.9,34.9 533.4,34.8 534.9,34.6 536.4,34.4 538.0,34.3 539.5,34.2 541.0,34.0 542.5,33.8 544.1,33.5 545.6,33.3 547.1,33.2 548.6,32.9 550.2,32.7 551.7,32.5 553.2,32.2 554.7,32.0 556.3,31.8 557.8,31.5 559.3,31.3 560.8,31.0 562.4,30.8 563.9,30.5 565.4,30.4 566.9,30.3 568.5,30.2 570.0,30.0" />
  
  <!-- Punto finale luminoso -->
  <circle cx="570.0" cy="30.0" r="4" fill="#ffffff" stroke="#0366d6" stroke-width="2.5" />
</svg>