<svg width="600" height="150" viewBox="0 0 600 150" xmlns="http://www.w3.org/2000/svg">
  <defs>
    <filter id="shadow2" x="-2%" y="-2%" width="104%" height="108%">
      <feDropShadow dx="0" dy="2" stdDeviation="3" flood-opacity="0.1" />
    </filter>
    <linearGradient id="fillGrad" x1="0" y1="0" x2="0" y2="1">
      <stop offset="0%" stop-color="#0366d6" stop-opacity="0.3"/>
      <stop offset="100%" stop-color="#0366d6" stop-opacity="0.02"/>
    </linearGradient>
  </defs>
  <rect width="600" height="150" rx="12" fill="#ffffff" filter="url(#shadow2)" stroke="#e1e4e8" stroke-width="1"/>
  <text x="20" y="24" fill="#2b3137" font-family="-apple-system,BlinkMacSystemFont,'Segoe UI',Helvetica,Arial,sans-serif" font-size="14" font-weight="600">📈 Download Growth (Actual: 86.2k)</text>
  
  <!-- Area sotto la linea -->
  <polygon fill="url(#fillGrad)" points="30.0,120.0,120 30.0,120.0 31.4,119.5 32.8,118.9 34.2,118.4 35.6,118.3 36.9,118.0 38.3,117.4 39.7,117.0 41.1,116.8 42.5,116.1 43.9,115.8 45.3,115.5 46.7,115.3 48.0,115.0 49.4,114.6 50.8,114.2 52.2,113.8 53.6,113.6 55.0,113.4 56.4,113.2 57.8,112.8 59.2,112.5 60.5,112.4 61.9,112.1 63.3,111.1 64.7,110.8 66.1,110.5 67.5,110.1 68.9,109.7 70.3,109.4 71.6,109.2 73.0,109.0 74.4,108.8 75.8,108.3 77.2,107.9 78.6,107.6 80.0,107.3 81.4,107.2 82.8,107.1 84.1,106.9 85.5,106.6 86.9,106.4 88.3,106.3 89.7,105.9 91.1,105.4 92.5,105.3 93.9,105.2 95.2,105.0 96.6,104.5 98.0,104.3 99.4,103.8 100.8,103.5 102.2,103.1 103.6,103.1 105.0,102.8 106.3,102.4 107.7,102.0 109.1,101.7 110.5,101.6 111.9,101.4 113.3,101.2 114.7,100.8 116.1,100.4 117.5,100.0 118.8,99.6 120.2,99.5 121.6,99.3 123.0,99.2 124.4,98.9 125.8,98.7 127.2,98.5 128.6,98.4 129.9,98.2 131.3,98.0 132.7,97.9 134.1,97.8 135.5,97.7 136.9,97.3 138.3,97.1 139.7,97.0 141.1,96.9 142.4,96.8 143.8,96.8 145.2,103.4 146.6,102.8 148.0,102.2 149.4,101.6 150.8,99.8 152.2,98.5 153.5,97.1 154.9,96.6 156.3,96.1 157.7,95.1 159.1,94.1 160.5,93.4 161.9,93.1 163.3,92.8 164.7,92.1 166.0,91.6 167.4,91.2 168.8,90.8 170.2,90.6 171.6,90.5 173.0,90.2 174.4,89.5 175.8,89.1 177.1,88.7 178.5,88.2 179.9,87.9 181.3,87.7 182.7,87.3 184.1,86.9 185.5,86.6 186.9,86.3 188.3,86.1 189.6,86.0 191.0,85.8 192.4,85.5 193.8,85.2 195.2,85.0 196.6,84.8 198.0,84.6 199.4,84.4 200.7,84.3 202.1,84.1 203.5,83.9 204.9,83.6 206.3,83.3 207.7,83.0 209.1,82.9 210.5,82.7 211.9,82.5 213.2,82.4 214.6,82.2 216.0,81.7 217.4,81.4 218.8,81.0 220.2,80.9 221.6,80.8 223.0,80.6 224.3,80.4 225.7,80.2 227.1,80.0 228.5,79.7 229.9,79.5 231.3,79.4 232.7,79.2 234.1,79.1 235.4,78.9 236.8,78.8 238.2,78.6 239.6,78.3 241.0,78.2 242.4,78.1 243.8,77.9 245.2,77.8 246.6,77.6 247.9,77.4 249.3,77.2 250.7,77.0 252.1,76.8 253.5,76.6 254.9,76.5 256.3,76.4 257.7,76.1 259.0,75.8 260.4,75.6 261.8,75.4 263.2,75.0 264.6,74.9 266.0,74.8 267.4,74.7 268.8,74.5 270.2,74.4 271.5,74.2 272.9,74.0 274.3,73.9 275.7,73.7 277.1,73.6 278.5,73.4 279.9,73.4 281.3,73.2 282.6,72.9 284.0,72.8 285.4,72.6 286.8,72.5 288.2,72.3 289.6,72.2 291.0,72.1 292.4,71.9 293.8,71.8 295.1,71.5 296.5,71.2 297.9,71.0 299.3,70.8 300.7,70.8 302.1,70.7 303.5,70.5 304.9,70.2 306.2,70.1 307.6,70.0 309.0,69.8 310.4,69.7 311.8,69.5 313.2,69.4 314.6,69.3 316.0,69.0 317.4,68.8 318.7,68.6 320.1,68.4 321.5,68.3 322.9,68.3 324.3,68.2 325.7,68.0 327.1,67.9 328.5,67.7 329.8,67.6 331.2,67.4 332.6,67.3 334.0,67.2 335.4,67.0 336.8,66.9 338.2,66.7 339.6,66.5 341.0,66.3 342.3,66.1 343.7,66.0 345.1,65.9 346.5,65.8 347.9,65.7 349.3,65.6 350.7,65.5 352.1,65.2 353.4,65.1 354.8,65.0 356.2,64.9 357.6,64.7 359.0,64.6 360.4,64.4 361.8,64.3 363.2,64.2 364.6,64.0 365.9,63.8 367.3,63.7 368.7,63.5 370.1,63.5 371.5,63.4 372.9,63.3 374.3,63.1 375.7,63.0 377.0,62.9 378.4,62.8 379.8,62.7 381.2,62.4 382.6,62.2 384.0,66.5 385.4,65.7 386.8,64.0 388.1,63.4 389.5,62.6 390.9,61.7 392.3,61.2 393.7,60.8 395.1,60.2 396.5,59.3 397.9,58.6 399.3,58.4 400.6,58.0 402.0,57.7 403.4,57.2 404.8,56.8 406.2,56.2 407.6,56.0 409.0,55.5 410.4,55.3 411.7,54.9 413.1,54.7 414.5,54.5 415.9,54.3 417.3,53.8 418.7,53.5 420.1,53.0 421.5,52.4 422.9,52.1 424.2,51.9 425.6,51.7 427.0,51.5 428.4,51.1 429.8,50.7 431.2,50.5 432.6,49.6 434.0,48.9 435.3,48.6 436.7,48.4 438.1,48.1 439.5,47.6 440.9,47.2 442.3,46.7 443.7,46.4 445.1,46.1 446.5,45.8 447.8,45.3 449.2,45.1 450.6,45.0 452.0,44.8 453.4,44.6 454.8,44.3 456.2,44.2 457.6,43.9 458.9,43.7 460.3,43.6 461.7,43.3 463.1,43.1 464.5,42.9 465.9,42.8 467.3,42.6 468.7,42.4 470.1,42.3 471.4,42.1 472.8,42.0 474.2,41.9 475.6,41.7 477.0,41.5 478.4,41.3 479.8,41.1 481.2,41.0 482.5,40.8 483.9,40.6 485.3,40.5 486.7,40.4 488.1,40.2 489.5,40.1 490.9,39.9 492.3,39.9 493.7,39.7 495.0,39.5 496.4,39.4 497.8,39.1 499.2,38.9 500.6,38.7 502.0,38.5 503.4,38.3 504.8,38.1 506.1,37.9 507.5,37.7 508.9,37.5 510.3,37.2 511.7,37.0 513.1,36.7 514.5,36.5 515.9,36.3 517.2,36.2 518.6,36.0 520.0,35.9 521.4,35.8 522.8,35.6 524.2,35.4 525.6,35.3 527.0,35.1 528.4,34.9 529.7,34.6 531.1,34.4 532.5,34.2 533.9,33.9 535.3,33.8 536.7,33.6 538.1,33.5 539.5,33.4 540.8,33.2 542.2,33.0 543.6,32.8 545.0,32.7 546.4,32.4 547.8,32.2 549.2,32.1 550.6,32.0 552.0,31.8 553.3,31.7 554.7,31.6 556.1,31.5 557.5,31.3 558.9,31.2 560.3,31.1 561.7,30.9 563.1,30.7 564.4,30.5 565.8,30.4 567.2,30.2 568.6,30.1 570.0,30.0 570.0,30.0,120" />
  
  <!-- Linea principale -->
  <polyline fill="none" stroke="#0366d6" stroke-width="2.5" stroke-linecap="round" stroke-linejoin="round" points="30.0,120.0 31.4,119.5 32.8,118.9 34.2,118.4 35.6,118.3 36.9,118.0 38.3,117.4 39.7,117.0 41.1,116.8 42.5,116.1 43.9,115.8 45.3,115.5 46.7,115.3 48.0,115.0 49.4,114.6 50.8,114.2 52.2,113.8 53.6,113.6 55.0,113.4 56.4,113.2 57.8,112.8 59.2,112.5 60.5,112.4 61.9,112.1 63.3,111.1 64.7,110.8 66.1,110.5 67.5,110.1 68.9,109.7 70.3,109.4 71.6,109.2 73.0,109.0 74.4,108.8 75.8,108.3 77.2,107.9 78.6,107.6 80.0,107.3 81.4,107.2 82.8,107.1 84.1,106.9 85.5,106.6 86.9,106.4 88.3,106.3 89.7,105.9 91.1,105.4 92.5,105.3 93.9,105.2 95.2,105.0 96.6,104.5 98.0,104.3 99.4,103.8 100.8,103.5 102.2,103.1 103.6,103.1 105.0,102.8 106.3,102.4 107.7,102.0 109.1,101.7 110.5,101.6 111.9,101.4 113.3,101.2 114.7,100.8 116.1,100.4 117.5,100.0 118.8,99.6 120.2,99.5 121.6,99.3 123.0,99.2 124.4,98.9 125.8,98.7 127.2,98.5 128.6,98.4 129.9,98.2 131.3,98.0 132.7,97.9 134.1,97.8 135.5,97.7 136.9,97.3 138.3,97.1 139.7,97.0 141.1,96.9 142.4,96.8 143.8,96.8 145.2,103.4 146.6,102.8 148.0,102.2 149.4,101.6 150.8,99.8 152.2,98.5 153.5,97.1 154.9,96.6 156.3,96.1 157.7,95.1 159.1,94.1 160.5,93.4 161.9,93.1 163.3,92.8 164.7,92.1 166.0,91.6 167.4,91.2 168.8,90.8 170.2,90.6 171.6,90.5 173.0,90.2 174.4,89.5 175.8,89.1 177.1,88.7 178.5,88.2 179.9,87.9 181.3,87.7 182.7,87.3 184.1,86.9 185.5,86.6 186.9,86.3 188.3,86.1 189.6,86.0 191.0,85.8 192.4,85.5 193.8,85.2 195.2,85.0 196.6,84.8 198.0,84.6 199.4,84.4 200.7,84.3 202.1,84.1 203.5,83.9 204.9,83.6 206.3,83.3 207.7,83.0 209.1,82.9 210.5,82.7 211.9,82.5 213.2,82.4 214.6,82.2 216.0,81.7 217.4,81.4 218.8,81.0 220.2,80.9 221.6,80.8 223.0,80.6 224.3,80.4 225.7,80.2 227.1,80.0 228.5,79.7 229.9,79.5 231.3,79.4 232.7,79.2 234.1,79.1 235.4,78.9 236.8,78.8 238.2,78.6 239.6,78.3 241.0,78.2 242.4,78.1 243.8,77.9 245.2,77.8 246.6,77.6 247.9,77.4 249.3,77.2 250.7,77.0 252.1,76.8 253.5,76.6 254.9,76.5 256.3,76.4 257.7,76.1 259.0,75.8 260.4,75.6 261.8,75.4 263.2,75.0 264.6,74.9 266.0,74.8 267.4,74.7 268.8,74.5 270.2,74.4 271.5,74.2 272.9,74.0 274.3,73.9 275.7,73.7 277.1,73.6 278.5,73.4 279.9,73.4 281.3,73.2 282.6,72.9 284.0,72.8 285.4,72.6 286.8,72.5 288.2,72.3 289.6,72.2 291.0,72.1 292.4,71.9 293.8,71.8 295.1,71.5 296.5,71.2 297.9,71.0 299.3,70.8 300.7,70.8 302.1,70.7 303.5,70.5 304.9,70.2 306.2,70.1 307.6,70.0 309.0,69.8 310.4,69.7 311.8,69.5 313.2,69.4 314.6,69.3 316.0,69.0 317.4,68.8 318.7,68.6 320.1,68.4 321.5,68.3 322.9,68.3 324.3,68.2 325.7,68.0 327.1,67.9 328.5,67.7 329.8,67.6 331.2,67.4 332.6,67.3 334.0,67.2 335.4,67.0 336.8,66.9 338.2,66.7 339.6,66.5 341.0,66.3 342.3,66.1 343.7,66.0 345.1,65.9 346.5,65.8 347.9,65.7 349.3,65.6 350.7,65.5 352.1,65.2 353.4,65.1 354.8,65.0 356.2,64.9 357.6,64.7 359.0,64.6 360.4,64.4 361.8,64.3 363.2,64.2 364.6,64.0 365.9,63.8 367.3,63.7 368.7,63.5 370.1,63.5 371.5,63.4 372.9,63.3 374.3,63.1 375.7,63.0 377.0,62.9 378.4,62.8 379.8,62.7 381.2,62.4 382.6,62.2 384.0,66.5 385.4,65.7 386.8,64.0 388.1,63.4 389.5,62.6 390.9,61.7 392.3,61.2 393.7,60.8 395.1,60.2 396.5,59.3 397.9,58.6 399.3,58.4 400.6,58.0 402.0,57.7 403.4,57.2 404.8,56.8 406.2,56.2 407.6,56.0 409.0,55.5 410.4,55.3 411.7,54.9 413.1,54.7 414.5,54.5 415.9,54.3 417.3,53.8 418.7,53.5 420.1,53.0 421.5,52.4 422.9,52.1 424.2,51.9 425.6,51.7 427.0,51.5 428.4,51.1 429.8,50.7 431.2,50.5 432.6,49.6 434.0,48.9 435.3,48.6 436.7,48.4 438.1,48.1 439.5,47.6 440.9,47.2 442.3,46.7 443.7,46.4 445.1,46.1 446.5,45.8 447.8,45.3 449.2,45.1 450.6,45.0 452.0,44.8 453.4,44.6 454.8,44.3 456.2,44.2 457.6,43.9 458.9,43.7 460.3,43.6 461.7,43.3 463.1,43.1 464.5,42.9 465.9,42.8 467.3,42.6 468.7,42.4 470.1,42.3 471.4,42.1 472.8,42.0 474.2,41.9 475.6,41.7 477.0,41.5 478.4,41.3 479.8,41.1 481.2,41.0 482.5,40.8 483.9,40.6 485.3,40.5 486.7,40.4 488.1,40.2 489.5,40.1 490.9,39.9 492.3,39.9 493.7,39.7 495.0,39.5 496.4,39.4 497.8,39.1 499.2,38.9 500.6,38.7 502.0,38.5 503.4,38.3 504.8,38.1 506.1,37.9 507.5,37.7 508.9,37.5 510.3,37.2 511.7,37.0 513.1,36.7 514.5,36.5 515.9,36.3 517.2,36.2 518.6,36.0 520.0,35.9 521.4,35.8 522.8,35.6 524.2,35.4 525.6,35.3 527.0,35.1 528.4,34.9 529.7,34.6 531.1,34.4 532.5,34.2 533.9,33.9 535.3,33.8 536.7,33.6 538.1,33.5 539.5,33.4 540.8,33.2 542.2,33.0 543.6,32.8 545.0,32.7 546.4,32.4 547.8,32.2 549.2,32.1 550.6,32.0 552.0,31.8 553.3,31.7 554.7,31.6 556.1,31.5 557.5,31.3 558.9,31.2 560.3,31.1 561.7,30.9 563.1,30.7 564.4,30.5 565.8,30.4 567.2,30.2 568.6,30.1 570.0,30.0" />
  
  <!-- Punto finale luminoso -->
  <circle cx="570.0" cy="30.0" r="4" fill="#ffffff" stroke="#0366d6" stroke-width="2.5" />
</svg>