<svg width="600" height="150" viewBox="0 0 600 150" xmlns="http://www.w3.org/2000/svg">
  <defs>
    <filter id="shadow2" x="-2%" y="-2%" width="104%" height="108%">
      <feDropShadow dx="0" dy="2" stdDeviation="3" flood-opacity="0.1" />
    </filter>
    <linearGradient id="fillGrad" x1="0" y1="0" x2="0" y2="1">
      <stop offset="0%" stop-color="#0366d6" stop-opacity="0.3"/>
      <stop offset="100%" stop-color="#0366d6" stop-opacity="0.02"/>
    </linearGradient>
  </defs>
  <rect width="600" height="150" rx="12" fill="#ffffff" filter="url(#shadow2)" stroke="#e1e4e8" stroke-width="1"/>
  <text x="20" y="24" fill="#2b3137" font-family="-apple-system,BlinkMacSystemFont,'Segoe UI',Helvetica,Arial,sans-serif" font-size="14" font-weight="600">📈 Download Growth (Actual: 87.5k)</text>
  
  <!-- Area sotto la linea -->
  <polygon fill="url(#fillGrad)" points="30.0,120.0,120 30.0,120.0 31.3,119.5 32.5,119.0 33.8,118.5 35.0,118.4 36.3,118.2 37.6,117.6 38.8,117.2 40.1,117.0 41.3,116.4 42.6,116.1 43.8,115.8 45.1,115.6 46.4,115.4 47.6,115.0 48.9,114.5 50.1,114.2 51.4,114.0 52.7,113.8 53.9,113.6 55.2,113.3 56.4,113.0 57.7,112.9 59.0,112.6 60.2,111.7 61.5,111.4 62.7,111.1 64.0,110.7 65.2,110.4 66.5,110.1 67.8,109.9 69.0,109.7 70.3,109.5 71.5,109.0 72.8,108.6 74.1,108.4 75.3,108.1 76.6,108.0 77.8,107.9 79.1,107.7 80.3,107.4 81.6,107.3 82.9,107.1 84.1,106.8 85.4,106.3 86.6,106.2 87.9,106.1 89.2,105.9 90.4,105.5 91.7,105.3 92.9,104.8 94.2,104.6 95.5,104.2 96.7,104.1 98.0,103.9 99.2,103.5 100.5,103.2 101.7,102.9 103.0,102.8 104.3,102.6 105.5,102.4 106.8,102.0 108.0,101.6 109.3,101.3 110.6,100.9 111.8,100.7 113.1,100.6 114.3,100.5 115.6,100.2 116.9,100.0 118.1,99.9 119.4,99.7 120.6,99.6 121.9,99.4 123.1,99.3 124.4,99.2 125.7,99.1 126.9,98.7 128.2,98.5 129.4,98.4 130.7,98.3 132.0,98.2 133.2,98.2 134.5,104.5 135.7,103.8 137.0,103.3 138.3,102.7 139.5,101.0 140.8,99.8 142.0,98.6 143.3,98.1 144.5,97.6 145.8,96.7 147.1,95.7 148.3,95.0 149.6,94.8 150.8,94.5 152.1,93.8 153.4,93.3 154.6,93.0 155.9,92.6 157.1,92.5 158.4,92.4 159.7,92.0 160.9,91.5 162.2,91.0 163.4,90.6 164.7,90.2 165.9,89.9 167.2,89.8 168.5,89.4 169.7,89.0 171.0,88.7 172.2,88.4 173.5,88.3 174.8,88.2 176.0,88.0 177.3,87.7 178.5,87.4 179.8,87.2 181.0,87.0 182.3,86.8 183.6,86.7 184.8,86.5 186.1,86.4 187.3,86.2 188.6,85.9 189.9,85.6 191.1,85.4 192.4,85.2 193.6,85.0 194.9,84.9 196.2,84.7 197.4,84.6 198.7,84.1 199.9,83.8 201.2,83.5 202.4,83.3 203.7,83.3 205.0,83.1 206.2,82.9 207.5,82.7 208.7,82.5 210.0,82.2 211.3,82.0 212.5,81.9 213.8,81.8 215.0,81.7 216.3,81.5 217.6,81.3 218.8,81.2 220.1,80.9 221.3,80.8 222.6,80.7 223.8,80.6 225.1,80.5 226.4,80.3 227.6,80.1 228.9,79.9 230.1,79.7 231.4,79.5 232.7,79.3 233.9,79.2 235.2,79.1 236.4,78.8 237.7,78.6 239.0,78.4 240.2,78.2 241.5,77.8 242.7,77.8 244.0,77.6 245.2,77.6 246.5,77.4 247.8,77.2 249.0,77.0 250.3,76.9 251.5,76.7 252.8,76.6 254.1,76.5 255.3,76.4 256.6,76.3 257.8,76.1 259.1,75.9 260.3,75.7 261.6,75.5 262.9,75.5 264.1,75.3 265.4,75.2 266.6,75.1 267.9,75.0 269.2,74.8 270.4,74.5 271.7,74.2 272.9,74.1 274.2,73.9 275.5,73.9 276.7,73.8 278.0,73.6 279.2,73.4 280.5,73.2 281.7,73.1 283.0,73.0 284.3,72.8 285.5,72.6 286.8,72.5 288.0,72.4 289.3,72.2 290.6,72.1 291.8,71.8 293.1,71.7 294.3,71.6 295.6,71.5 296.9,71.5 298.1,71.3 299.4,71.2 300.6,71.0 301.9,70.9 303.1,70.7 304.4,70.6 305.7,70.5 306.9,70.3 308.2,70.2 309.4,70.0 310.7,69.8 312.0,69.7 313.2,69.5 314.5,69.4 315.7,69.3 317.0,69.2 318.3,69.1 319.5,69.0 320.8,68.9 322.0,68.7 323.3,68.5 324.5,68.4 325.8,68.3 327.1,68.2 328.3,68.0 329.6,67.9 330.8,67.8 332.1,67.7 333.4,67.5 334.6,67.4 335.9,67.2 337.1,67.1 338.4,67.0 339.7,66.9 340.9,66.8 342.2,66.7 343.4,66.6 344.7,66.5 345.9,66.4 347.2,66.3 348.5,66.0 349.7,65.8 351.0,69.9 352.2,69.1 353.5,67.5 354.8,67.0 356.0,66.2 357.3,65.4 358.5,64.9 359.8,64.6 361.0,64.0 362.3,63.1 363.6,62.4 364.8,62.2 366.1,61.9 367.3,61.6 368.6,61.2 369.9,60.7 371.1,60.2 372.4,60.0 373.6,59.6 374.9,59.3 376.2,59.0 377.4,58.8 378.7,58.6 379.9,58.4 381.2,57.9 382.4,57.6 383.7,57.2 385.0,56.7 386.2,56.3 387.5,56.2 388.7,56.0 390.0,55.8 391.3,55.4 392.5,55.1 393.8,54.8 395.0,54.0 396.3,53.3 397.6,53.0 398.8,52.9 400.1,52.6 401.3,52.2 402.6,51.8 403.8,51.3 405.1,51.0 406.4,50.7 407.6,50.4 408.9,50.0 410.1,49.8 411.4,49.7 412.7,49.5 413.9,49.3 415.2,49.1 416.4,48.9 417.7,48.7 419.0,48.5 420.2,48.4 421.5,48.1 422.7,48.0 424.0,47.8 425.2,47.6 426.5,47.4 427.8,47.3 429.0,47.2 430.3,47.0 431.5,46.9 432.8,46.8 434.1,46.6 435.3,46.5 436.6,46.3 437.8,46.1 439.1,45.9 440.3,45.8 441.6,45.6 442.9,45.5 444.1,45.4 445.4,45.2 446.6,45.1 447.9,45.0 449.2,44.9 450.4,44.7 451.7,44.5 452.9,44.4 454.2,44.2 455.5,44.0 456.7,43.8 458.0,43.6 459.2,43.4 460.5,43.3 461.7,43.0 463.0,42.8 464.3,42.7 465.5,42.4 466.8,42.2 468.0,42.0 469.3,41.8 470.6,41.5 471.8,41.4 473.1,41.3 474.3,41.2 475.6,41.1 476.9,40.9 478.1,40.7 479.4,40.6 480.6,40.4 481.9,40.2 483.1,40.0 484.4,39.8 485.7,39.6 486.9,39.3 488.2,39.2 489.4,39.0 490.7,38.9 492.0,38.8 493.2,38.6 494.5,38.5 495.7,38.3 497.0,38.2 498.3,37.9 499.5,37.8 500.8,37.6 502.0,37.5 503.3,37.3 504.5,37.2 505.8,37.2 507.1,37.1 508.3,36.9 509.6,36.8 510.8,36.6 512.1,36.5 513.4,36.3 514.6,36.1 515.9,36.0 517.1,35.9 518.4,35.8 519.7,35.6 520.9,35.5 522.2,35.4 523.4,35.2 524.7,35.1 525.9,34.8 527.2,34.7 528.5,34.4 529.7,34.3 531.0,34.2 532.2,34.1 533.5,34.0 534.8,33.9 536.0,33.9 537.3,33.7 538.5,33.6 539.8,33.6 541.0,33.4 542.3,33.3 543.6,33.0 544.8,32.9 546.1,32.8 547.3,32.7 548.6,32.5 549.9,32.4 551.1,32.2 552.4,32.2 553.6,32.0 554.9,31.9 556.2,31.8 557.4,31.5 558.7,31.3 559.9,31.0 561.2,30.9 562.4,30.7 563.7,30.6 565.0,30.4 566.2,30.3 567.5,30.2 568.7,30.1 570.0,30.0 570.0,30.0,120" />
  
  <!-- Linea principale -->
  <polyline fill="none" stroke="#0366d6" stroke-width="2.5" stroke-linecap="round" stroke-linejoin="round" points="30.0,120.0 31.3,119.5 32.5,119.0 33.8,118.5 35.0,118.4 36.3,118.2 37.6,117.6 38.8,117.2 40.1,117.0 41.3,116.4 42.6,116.1 43.8,115.8 45.1,115.6 46.4,115.4 47.6,115.0 48.9,114.5 50.1,114.2 51.4,114.0 52.7,113.8 53.9,113.6 55.2,113.3 56.4,113.0 57.7,112.9 59.0,112.6 60.2,111.7 61.5,111.4 62.7,111.1 64.0,110.7 65.2,110.4 66.5,110.1 67.8,109.9 69.0,109.7 70.3,109.5 71.5,109.0 72.8,108.6 74.1,108.4 75.3,108.1 76.6,108.0 77.8,107.9 79.1,107.7 80.3,107.4 81.6,107.3 82.9,107.1 84.1,106.8 85.4,106.3 86.6,106.2 87.9,106.1 89.2,105.9 90.4,105.5 91.7,105.3 92.9,104.8 94.2,104.6 95.5,104.2 96.7,104.1 98.0,103.9 99.2,103.5 100.5,103.2 101.7,102.9 103.0,102.8 104.3,102.6 105.5,102.4 106.8,102.0 108.0,101.6 109.3,101.3 110.6,100.9 111.8,100.7 113.1,100.6 114.3,100.5 115.6,100.2 116.9,100.0 118.1,99.9 119.4,99.7 120.6,99.6 121.9,99.4 123.1,99.3 124.4,99.2 125.7,99.1 126.9,98.7 128.2,98.5 129.4,98.4 130.7,98.3 132.0,98.2 133.2,98.2 134.5,104.5 135.7,103.8 137.0,103.3 138.3,102.7 139.5,101.0 140.8,99.8 142.0,98.6 143.3,98.1 144.5,97.6 145.8,96.7 147.1,95.7 148.3,95.0 149.6,94.8 150.8,94.5 152.1,93.8 153.4,93.3 154.6,93.0 155.9,92.6 157.1,92.5 158.4,92.4 159.7,92.0 160.9,91.5 162.2,91.0 163.4,90.6 164.7,90.2 165.9,89.9 167.2,89.8 168.5,89.4 169.7,89.0 171.0,88.7 172.2,88.4 173.5,88.3 174.8,88.2 176.0,88.0 177.3,87.7 178.5,87.4 179.8,87.2 181.0,87.0 182.3,86.8 183.6,86.7 184.8,86.5 186.1,86.4 187.3,86.2 188.6,85.9 189.9,85.6 191.1,85.4 192.4,85.2 193.6,85.0 194.9,84.9 196.2,84.7 197.4,84.6 198.7,84.1 199.9,83.8 201.2,83.5 202.4,83.3 203.7,83.3 205.0,83.1 206.2,82.9 207.5,82.7 208.7,82.5 210.0,82.2 211.3,82.0 212.5,81.9 213.8,81.8 215.0,81.7 216.3,81.5 217.6,81.3 218.8,81.2 220.1,80.9 221.3,80.8 222.6,80.7 223.8,80.6 225.1,80.5 226.4,80.3 227.6,80.1 228.9,79.9 230.1,79.7 231.4,79.5 232.7,79.3 233.9,79.2 235.2,79.1 236.4,78.8 237.7,78.6 239.0,78.4 240.2,78.2 241.5,77.8 242.7,77.8 244.0,77.6 245.2,77.6 246.5,77.4 247.8,77.2 249.0,77.0 250.3,76.9 251.5,76.7 252.8,76.6 254.1,76.5 255.3,76.4 256.6,76.3 257.8,76.1 259.1,75.9 260.3,75.7 261.6,75.5 262.9,75.5 264.1,75.3 265.4,75.2 266.6,75.1 267.9,75.0 269.2,74.8 270.4,74.5 271.7,74.2 272.9,74.1 274.2,73.9 275.5,73.9 276.7,73.8 278.0,73.6 279.2,73.4 280.5,73.2 281.7,73.1 283.0,73.0 284.3,72.8 285.5,72.6 286.8,72.5 288.0,72.4 289.3,72.2 290.6,72.1 291.8,71.8 293.1,71.7 294.3,71.6 295.6,71.5 296.9,71.5 298.1,71.3 299.4,71.2 300.6,71.0 301.9,70.9 303.1,70.7 304.4,70.6 305.7,70.5 306.9,70.3 308.2,70.2 309.4,70.0 310.7,69.8 312.0,69.7 313.2,69.5 314.5,69.4 315.7,69.3 317.0,69.2 318.3,69.1 319.5,69.0 320.8,68.9 322.0,68.7 323.3,68.5 324.5,68.4 325.8,68.3 327.1,68.2 328.3,68.0 329.6,67.9 330.8,67.8 332.1,67.7 333.4,67.5 334.6,67.4 335.9,67.2 337.1,67.1 338.4,67.0 339.7,66.9 340.9,66.8 342.2,66.7 343.4,66.6 344.7,66.5 345.9,66.4 347.2,66.3 348.5,66.0 349.7,65.8 351.0,69.9 352.2,69.1 353.5,67.5 354.8,67.0 356.0,66.2 357.3,65.4 358.5,64.9 359.8,64.6 361.0,64.0 362.3,63.1 363.6,62.4 364.8,62.2 366.1,61.9 367.3,61.6 368.6,61.2 369.9,60.7 371.1,60.2 372.4,60.0 373.6,59.6 374.9,59.3 376.2,59.0 377.4,58.8 378.7,58.6 379.9,58.4 381.2,57.9 382.4,57.6 383.7,57.2 385.0,56.7 386.2,56.3 387.5,56.2 388.7,56.0 390.0,55.8 391.3,55.4 392.5,55.1 393.8,54.8 395.0,54.0 396.3,53.3 397.6,53.0 398.8,52.9 400.1,52.6 401.3,52.2 402.6,51.8 403.8,51.3 405.1,51.0 406.4,50.7 407.6,50.4 408.9,50.0 410.1,49.8 411.4,49.7 412.7,49.5 413.9,49.3 415.2,49.1 416.4,48.9 417.7,48.7 419.0,48.5 420.2,48.4 421.5,48.1 422.7,48.0 424.0,47.8 425.2,47.6 426.5,47.4 427.8,47.3 429.0,47.2 430.3,47.0 431.5,46.9 432.8,46.8 434.1,46.6 435.3,46.5 436.6,46.3 437.8,46.1 439.1,45.9 440.3,45.8 441.6,45.6 442.9,45.5 444.1,45.4 445.4,45.2 446.6,45.1 447.9,45.0 449.2,44.9 450.4,44.7 451.7,44.5 452.9,44.4 454.2,44.2 455.5,44.0 456.7,43.8 458.0,43.6 459.2,43.4 460.5,43.3 461.7,43.0 463.0,42.8 464.3,42.7 465.5,42.4 466.8,42.2 468.0,42.0 469.3,41.8 470.6,41.5 471.8,41.4 473.1,41.3 474.3,41.2 475.6,41.1 476.9,40.9 478.1,40.7 479.4,40.6 480.6,40.4 481.9,40.2 483.1,40.0 484.4,39.8 485.7,39.6 486.9,39.3 488.2,39.2 489.4,39.0 490.7,38.9 492.0,38.8 493.2,38.6 494.5,38.5 495.7,38.3 497.0,38.2 498.3,37.9 499.5,37.8 500.8,37.6 502.0,37.5 503.3,37.3 504.5,37.2 505.8,37.2 507.1,37.1 508.3,36.9 509.6,36.8 510.8,36.6 512.1,36.5 513.4,36.3 514.6,36.1 515.9,36.0 517.1,35.9 518.4,35.8 519.7,35.6 520.9,35.5 522.2,35.4 523.4,35.2 524.7,35.1 525.9,34.8 527.2,34.7 528.5,34.4 529.7,34.3 531.0,34.2 532.2,34.1 533.5,34.0 534.8,33.9 536.0,33.9 537.3,33.7 538.5,33.6 539.8,33.6 541.0,33.4 542.3,33.3 543.6,33.0 544.8,32.9 546.1,32.8 547.3,32.7 548.6,32.5 549.9,32.4 551.1,32.2 552.4,32.2 553.6,32.0 554.9,31.9 556.2,31.8 557.4,31.5 558.7,31.3 559.9,31.0 561.2,30.9 562.4,30.7 563.7,30.6 565.0,30.4 566.2,30.3 567.5,30.2 568.7,30.1 570.0,30.0" />
  
  <!-- Punto finale luminoso -->
  <circle cx="570.0" cy="30.0" r="4" fill="#ffffff" stroke="#0366d6" stroke-width="2.5" />
</svg>