<svg width="600" height="150" viewBox="0 0 600 150" xmlns="http://www.w3.org/2000/svg">
  <defs>
    <filter id="shadow2" x="-2%" y="-2%" width="104%" height="108%">
      <feDropShadow dx="0" dy="2" stdDeviation="3" flood-opacity="0.1" />
    </filter>
    <linearGradient id="fillGrad" x1="0" y1="0" x2="0" y2="1">
      <stop offset="0%" stop-color="#0366d6" stop-opacity="0.3"/>
      <stop offset="100%" stop-color="#0366d6" stop-opacity="0.02"/>
    </linearGradient>
  </defs>
  <rect width="600" height="150" rx="12" fill="#ffffff" filter="url(#shadow2)" stroke="#e1e4e8" stroke-width="1"/>
  <text x="20" y="24" fill="#2b3137" font-family="-apple-system,BlinkMacSystemFont,'Segoe UI',Helvetica,Arial,sans-serif" font-size="14" font-weight="600">📈 Download Growth (Actual: 83.1k)</text>
  
  <!-- Area sotto la linea -->
  <polygon fill="url(#fillGrad)" points="30.0,120.0,120 30.0,120.0 31.8,119.4 33.5,118.7 35.3,118.1 37.1,118.0 38.8,117.7 40.6,116.9 42.4,116.5 44.1,116.1 45.9,115.4 47.6,115.0 49.4,114.7 51.2,114.4 52.9,114.1 54.7,113.6 56.5,113.1 58.2,112.7 60.0,112.4 61.8,112.2 63.5,111.9 65.3,111.5 67.1,111.1 68.8,111.0 70.6,110.6 72.4,109.5 74.1,109.1 75.9,108.7 77.6,108.2 79.4,107.8 81.2,107.4 82.9,107.1 84.7,107.0 86.5,106.6 88.2,106.1 90.0,105.6 91.8,105.2 93.5,104.8 95.3,104.7 97.1,104.6 98.8,104.4 100.6,104.1 102.4,103.8 104.1,103.7 105.9,103.3 107.6,102.6 109.4,102.5 111.2,102.4 112.9,102.1 114.7,101.6 116.5,101.3 118.2,100.8 120.0,100.4 121.8,99.9 123.5,99.8 125.3,99.6 127.1,99.1 128.8,98.6 130.6,98.3 132.4,98.1 134.1,97.9 135.9,97.7 137.6,97.1 139.4,96.7 141.2,96.2 142.9,95.8 144.7,95.6 146.5,95.4 148.2,95.2 150.0,94.9 151.8,94.7 153.5,94.4 155.3,94.3 157.1,94.1 158.8,93.9 160.6,93.7 162.4,93.6 164.1,93.5 165.9,93.0 167.6,92.7 169.4,92.6 171.2,92.5 172.9,92.4 174.7,92.4 176.5,100.3 178.2,99.5 180.0,98.8 181.8,98.1 183.5,95.9 185.3,94.4 187.1,92.8 188.8,92.2 190.6,91.5 192.4,90.4 194.1,89.2 195.9,88.3 197.6,88.0 199.4,87.7 201.2,86.8 202.9,86.2 204.7,85.8 206.5,85.3 208.2,85.1 210.0,85.0 211.8,84.5 213.5,83.8 215.3,83.2 217.1,82.7 218.8,82.1 220.6,81.8 222.4,81.6 224.1,81.1 225.9,80.7 227.6,80.2 229.4,79.9 231.2,79.7 232.9,79.6 234.7,79.3 236.5,78.9 238.2,78.7 240.0,78.4 241.8,78.1 243.5,77.9 245.3,77.7 247.1,77.5 248.8,77.3 250.6,77.1 252.4,76.7 254.1,76.4 255.9,76.0 257.6,75.8 259.4,75.6 261.2,75.4 262.9,75.3 264.7,75.1 266.5,74.5 268.2,74.1 270.0,73.6 271.8,73.5 273.5,73.4 275.3,73.2 277.1,72.9 278.8,72.6 280.6,72.4 282.4,72.0 284.1,71.8 285.9,71.7 287.6,71.5 289.4,71.3 291.2,71.2 292.9,70.9 294.7,70.7 296.5,70.4 298.2,70.2 300.0,70.1 301.8,70.0 303.5,69.9 305.3,69.6 307.1,69.3 308.8,69.0 310.6,68.8 312.4,68.6 314.1,68.4 315.9,68.3 317.6,68.1 319.4,67.7 321.2,67.4 322.9,67.2 324.7,66.9 326.5,66.5 328.2,66.4 330.0,66.2 331.8,66.1 333.5,65.9 335.3,65.7 337.1,65.5 338.8,65.3 340.6,65.1 342.4,64.9 344.1,64.8 345.9,64.6 347.6,64.5 349.4,64.3 351.2,64.0 352.9,63.8 354.7,63.6 356.5,63.5 358.2,63.3 360.0,63.1 361.8,63.0 363.5,62.8 365.3,62.7 367.1,62.3 368.8,61.9 370.6,61.7 372.4,61.5 374.1,61.4 375.9,61.4 377.6,61.1 379.4,60.8 381.2,60.7 382.9,60.5 384.7,60.3 386.5,60.1 388.2,59.9 390.0,59.8 391.8,59.6 393.5,59.4 395.3,59.2 397.1,58.9 398.8,58.6 400.6,58.5 402.4,58.5 404.1,58.4 405.9,58.2 407.6,58.0 409.4,57.8 411.2,57.6 412.9,57.4 414.7,57.3 416.5,57.1 418.2,57.0 420.0,56.8 421.8,56.6 423.5,56.3 425.3,56.1 427.1,55.9 428.8,55.8 430.6,55.7 432.4,55.6 434.1,55.4 435.9,55.3 437.6,55.2 439.4,54.9 441.2,54.7 442.9,54.5 444.7,54.4 446.5,54.2 448.2,54.1 450.0,53.9 451.8,53.7 453.5,53.6 455.3,53.4 457.1,53.2 458.8,53.0 460.6,52.8 462.4,52.7 464.1,52.6 465.9,52.5 467.6,52.4 469.4,52.2 471.2,52.1 472.9,52.0 474.7,51.8 476.5,51.5 478.2,51.2 480.0,56.4 481.8,55.4 483.5,53.4 485.3,52.7 487.1,51.8 488.8,50.7 490.6,50.1 492.4,49.6 494.1,48.9 495.9,47.8 497.6,46.9 499.4,46.7 501.2,46.3 502.9,45.9 504.7,45.3 506.5,44.8 508.2,44.2 510.0,43.9 511.8,43.3 513.5,43.0 515.3,42.6 517.1,42.4 518.8,42.1 520.6,41.8 522.4,41.2 524.1,40.8 525.9,40.3 527.6,39.6 529.4,39.2 531.2,39.0 532.9,38.8 534.7,38.5 536.5,38.0 538.2,37.6 540.0,37.3 541.8,36.2 543.5,35.4 545.3,35.0 547.1,34.8 548.8,34.5 550.6,33.9 552.4,33.5 554.1,32.8 555.9,32.4 557.6,32.0 559.4,31.7 561.2,31.2 562.9,30.9 564.7,30.7 566.5,30.5 568.2,30.3 570.0,30.0 570.0,30.0,120" />
  
  <!-- Linea principale -->
  <polyline fill="none" stroke="#0366d6" stroke-width="2.5" stroke-linecap="round" stroke-linejoin="round" points="30.0,120.0 31.8,119.4 33.5,118.7 35.3,118.1 37.1,118.0 38.8,117.7 40.6,116.9 42.4,116.5 44.1,116.1 45.9,115.4 47.6,115.0 49.4,114.7 51.2,114.4 52.9,114.1 54.7,113.6 56.5,113.1 58.2,112.7 60.0,112.4 61.8,112.2 63.5,111.9 65.3,111.5 67.1,111.1 68.8,111.0 70.6,110.6 72.4,109.5 74.1,109.1 75.9,108.7 77.6,108.2 79.4,107.8 81.2,107.4 82.9,107.1 84.7,107.0 86.5,106.6 88.2,106.1 90.0,105.6 91.8,105.2 93.5,104.8 95.3,104.7 97.1,104.6 98.8,104.4 100.6,104.1 102.4,103.8 104.1,103.7 105.9,103.3 107.6,102.6 109.4,102.5 111.2,102.4 112.9,102.1 114.7,101.6 116.5,101.3 118.2,100.8 120.0,100.4 121.8,99.9 123.5,99.8 125.3,99.6 127.1,99.1 128.8,98.6 130.6,98.3 132.4,98.1 134.1,97.9 135.9,97.7 137.6,97.1 139.4,96.7 141.2,96.2 142.9,95.8 144.7,95.6 146.5,95.4 148.2,95.2 150.0,94.9 151.8,94.7 153.5,94.4 155.3,94.3 157.1,94.1 158.8,93.9 160.6,93.7 162.4,93.6 164.1,93.5 165.9,93.0 167.6,92.7 169.4,92.6 171.2,92.5 172.9,92.4 174.7,92.4 176.5,100.3 178.2,99.5 180.0,98.8 181.8,98.1 183.5,95.9 185.3,94.4 187.1,92.8 188.8,92.2 190.6,91.5 192.4,90.4 194.1,89.2 195.9,88.3 197.6,88.0 199.4,87.7 201.2,86.8 202.9,86.2 204.7,85.8 206.5,85.3 208.2,85.1 210.0,85.0 211.8,84.5 213.5,83.8 215.3,83.2 217.1,82.7 218.8,82.1 220.6,81.8 222.4,81.6 224.1,81.1 225.9,80.7 227.6,80.2 229.4,79.9 231.2,79.7 232.9,79.6 234.7,79.3 236.5,78.9 238.2,78.7 240.0,78.4 241.8,78.1 243.5,77.9 245.3,77.7 247.1,77.5 248.8,77.3 250.6,77.1 252.4,76.7 254.1,76.4 255.9,76.0 257.6,75.8 259.4,75.6 261.2,75.4 262.9,75.3 264.7,75.1 266.5,74.5 268.2,74.1 270.0,73.6 271.8,73.5 273.5,73.4 275.3,73.2 277.1,72.9 278.8,72.6 280.6,72.4 282.4,72.0 284.1,71.8 285.9,71.7 287.6,71.5 289.4,71.3 291.2,71.2 292.9,70.9 294.7,70.7 296.5,70.4 298.2,70.2 300.0,70.1 301.8,70.0 303.5,69.9 305.3,69.6 307.1,69.3 308.8,69.0 310.6,68.8 312.4,68.6 314.1,68.4 315.9,68.3 317.6,68.1 319.4,67.7 321.2,67.4 322.9,67.2 324.7,66.9 326.5,66.5 328.2,66.4 330.0,66.2 331.8,66.1 333.5,65.9 335.3,65.7 337.1,65.5 338.8,65.3 340.6,65.1 342.4,64.9 344.1,64.8 345.9,64.6 347.6,64.5 349.4,64.3 351.2,64.0 352.9,63.8 354.7,63.6 356.5,63.5 358.2,63.3 360.0,63.1 361.8,63.0 363.5,62.8 365.3,62.7 367.1,62.3 368.8,61.9 370.6,61.7 372.4,61.5 374.1,61.4 375.9,61.4 377.6,61.1 379.4,60.8 381.2,60.7 382.9,60.5 384.7,60.3 386.5,60.1 388.2,59.9 390.0,59.8 391.8,59.6 393.5,59.4 395.3,59.2 397.1,58.9 398.8,58.6 400.6,58.5 402.4,58.5 404.1,58.4 405.9,58.2 407.6,58.0 409.4,57.8 411.2,57.6 412.9,57.4 414.7,57.3 416.5,57.1 418.2,57.0 420.0,56.8 421.8,56.6 423.5,56.3 425.3,56.1 427.1,55.9 428.8,55.8 430.6,55.7 432.4,55.6 434.1,55.4 435.9,55.3 437.6,55.2 439.4,54.9 441.2,54.7 442.9,54.5 444.7,54.4 446.5,54.2 448.2,54.1 450.0,53.9 451.8,53.7 453.5,53.6 455.3,53.4 457.1,53.2 458.8,53.0 460.6,52.8 462.4,52.7 464.1,52.6 465.9,52.5 467.6,52.4 469.4,52.2 471.2,52.1 472.9,52.0 474.7,51.8 476.5,51.5 478.2,51.2 480.0,56.4 481.8,55.4 483.5,53.4 485.3,52.7 487.1,51.8 488.8,50.7 490.6,50.1 492.4,49.6 494.1,48.9 495.9,47.8 497.6,46.9 499.4,46.7 501.2,46.3 502.9,45.9 504.7,45.3 506.5,44.8 508.2,44.2 510.0,43.9 511.8,43.3 513.5,43.0 515.3,42.6 517.1,42.4 518.8,42.1 520.6,41.8 522.4,41.2 524.1,40.8 525.9,40.3 527.6,39.6 529.4,39.2 531.2,39.0 532.9,38.8 534.7,38.5 536.5,38.0 538.2,37.6 540.0,37.3 541.8,36.2 543.5,35.4 545.3,35.0 547.1,34.8 548.8,34.5 550.6,33.9 552.4,33.5 554.1,32.8 555.9,32.4 557.6,32.0 559.4,31.7 561.2,31.2 562.9,30.9 564.7,30.7 566.5,30.5 568.2,30.3 570.0,30.0" />
  
  <!-- Punto finale luminoso -->
  <circle cx="570.0" cy="30.0" r="4" fill="#ffffff" stroke="#0366d6" stroke-width="2.5" />
</svg>