<svg width="600" height="150" viewBox="0 0 600 150" xmlns="http://www.w3.org/2000/svg">
  <defs>
    <filter id="shadow2" x="-2%" y="-2%" width="104%" height="108%">
      <feDropShadow dx="0" dy="2" stdDeviation="3" flood-opacity="0.1" />
    </filter>
    <linearGradient id="fillGrad" x1="0" y1="0" x2="0" y2="1">
      <stop offset="0%" stop-color="#0366d6" stop-opacity="0.3"/>
      <stop offset="100%" stop-color="#0366d6" stop-opacity="0.02"/>
    </linearGradient>
  </defs>
  <rect width="600" height="150" rx="12" fill="#ffffff" filter="url(#shadow2)" stroke="#e1e4e8" stroke-width="1"/>
  <text x="20" y="24" fill="#2b3137" font-family="-apple-system,BlinkMacSystemFont,'Segoe UI',Helvetica,Arial,sans-serif" font-size="14" font-weight="600">📈 Download Growth (Actual: 86.3k)</text>
  
  <!-- Area sotto la linea -->
  <polygon fill="url(#fillGrad)" points="30.0,120.0,120 30.0,120.0 31.4,119.5 32.8,118.9 34.2,118.4 35.5,118.3 36.9,118.0 38.3,117.4 39.7,117.0 41.1,116.8 42.5,116.1 43.8,115.8 45.2,115.5 46.6,115.3 48.0,115.0 49.4,114.6 50.8,114.2 52.2,113.8 53.5,113.6 54.9,113.4 56.3,113.2 57.7,112.8 59.1,112.5 60.5,112.4 61.8,112.1 63.2,111.2 64.6,110.9 66.0,110.5 67.4,110.1 68.8,109.8 70.2,109.4 71.5,109.2 72.9,109.0 74.3,108.8 75.7,108.3 77.1,107.9 78.5,107.6 79.8,107.3 81.2,107.2 82.6,107.1 84.0,106.9 85.4,106.6 86.8,106.4 88.2,106.3 89.5,105.9 90.9,105.4 92.3,105.3 93.7,105.2 95.1,105.0 96.5,104.6 97.8,104.3 99.2,103.9 100.6,103.5 102.0,103.2 103.4,103.1 104.8,102.8 106.2,102.5 107.5,102.1 108.9,101.8 110.3,101.6 111.7,101.4 113.1,101.3 114.5,100.8 115.8,100.4 117.2,100.0 118.6,99.7 120.0,99.5 121.4,99.4 122.8,99.2 124.2,98.9 125.5,98.7 126.9,98.6 128.3,98.4 129.7,98.3 131.1,98.1 132.5,97.9 133.8,97.8 135.2,97.7 136.6,97.3 138.0,97.1 139.4,97.0 140.8,96.9 142.2,96.8 143.5,96.8 144.9,103.4 146.3,102.8 147.7,102.2 149.1,101.6 150.5,99.8 151.8,98.5 153.2,97.2 154.6,96.7 156.0,96.1 157.4,95.2 158.8,94.1 160.2,93.4 161.5,93.1 162.9,92.9 164.3,92.1 165.7,91.6 167.1,91.3 168.5,90.8 169.8,90.7 171.2,90.6 172.6,90.2 174.0,89.6 175.4,89.1 176.8,88.7 178.2,88.2 179.5,88.0 180.9,87.8 182.3,87.4 183.7,87.0 185.1,86.6 186.5,86.3 187.8,86.2 189.2,86.1 190.6,85.9 192.0,85.5 193.4,85.3 194.8,85.1 196.2,84.9 197.5,84.7 198.9,84.5 200.3,84.3 201.7,84.2 203.1,84.0 204.5,83.6 205.8,83.4 207.2,83.1 208.6,82.9 210.0,82.7 211.4,82.6 212.8,82.4 214.2,82.3 215.5,81.8 216.9,81.5 218.3,81.1 219.7,80.9 221.1,80.9 222.5,80.7 223.8,80.5 225.2,80.2 226.6,80.0 228.0,79.7 229.4,79.5 230.8,79.4 232.2,79.3 233.5,79.1 234.9,79.0 236.3,78.8 237.7,78.7 239.1,78.4 240.5,78.2 241.8,78.1 243.2,78.0 244.6,77.9 246.0,77.7 247.4,77.5 248.8,77.2 250.2,77.0 251.5,76.8 252.9,76.7 254.3,76.6 255.7,76.4 257.1,76.1 258.5,75.9 259.8,75.7 261.2,75.4 262.6,75.1 264.0,75.0 265.4,74.9 266.8,74.8 268.2,74.6 269.5,74.4 270.9,74.2 272.3,74.1 273.7,73.9 275.1,73.8 276.5,73.6 277.8,73.5 279.2,73.4 280.6,73.2 282.0,73.0 283.4,72.9 284.8,72.6 286.2,72.5 287.5,72.4 288.9,72.2 290.3,72.1 291.7,72.0 293.1,71.9 294.5,71.6 295.8,71.3 297.2,71.1 298.6,70.9 300.0,70.8 301.4,70.8 302.8,70.6 304.2,70.3 305.5,70.2 306.9,70.1 308.3,69.9 309.7,69.7 311.1,69.5 312.5,69.4 313.8,69.3 315.2,69.1 316.6,68.9 318.0,68.7 319.4,68.5 320.8,68.4 322.2,68.3 323.5,68.3 324.9,68.1 326.3,68.0 327.7,67.8 329.1,67.6 330.5,67.5 331.8,67.3 333.2,67.2 334.6,67.1 336.0,67.0 337.4,66.8 338.8,66.5 340.2,66.4 341.5,66.2 342.9,66.1 344.3,66.0 345.7,65.9 347.1,65.8 348.5,65.7 349.8,65.6 351.2,65.3 352.6,65.2 354.0,65.0 355.4,64.9 356.8,64.8 358.2,64.7 359.5,64.5 360.9,64.4 362.3,64.2 363.7,64.1 365.1,63.9 366.5,63.8 367.8,63.6 369.2,63.5 370.6,63.5 372.0,63.3 373.4,63.2 374.8,63.1 376.2,63.0 377.5,62.9 378.9,62.8 380.3,62.5 381.7,62.3 383.1,66.6 384.5,65.7 385.8,64.1 387.2,63.5 388.6,62.7 390.0,61.8 391.4,61.3 392.8,60.9 394.2,60.3 395.5,59.4 396.9,58.7 398.3,58.5 399.7,58.1 401.1,57.8 402.5,57.3 403.8,56.9 405.2,56.3 406.6,56.1 408.0,55.6 409.4,55.4 410.8,55.0 412.2,54.8 413.5,54.6 414.9,54.4 416.3,53.9 417.7,53.6 419.1,53.1 420.5,52.5 421.8,52.2 423.2,52.0 424.6,51.8 426.0,51.6 427.4,51.2 428.8,50.8 430.2,50.6 431.5,49.7 432.9,49.0 434.3,48.7 435.7,48.5 437.1,48.2 438.5,47.7 439.8,47.3 441.2,46.8 442.6,46.5 444.0,46.2 445.4,45.9 446.8,45.4 448.2,45.2 449.5,45.1 450.9,44.9 452.3,44.7 453.7,44.4 455.1,44.3 456.5,44.0 457.8,43.8 459.2,43.7 460.6,43.4 462.0,43.2 463.4,43.0 464.8,42.9 466.2,42.7 467.5,42.5 468.9,42.4 470.3,42.2 471.7,42.1 473.1,42.0 474.5,41.8 475.8,41.7 477.2,41.5 478.6,41.3 480.0,41.1 481.4,40.9 482.8,40.7 484.2,40.6 485.5,40.5 486.9,40.4 488.3,40.2 489.7,40.1 491.1,40.0 492.5,39.8 493.8,39.6 495.2,39.5 496.6,39.2 498.0,39.0 499.4,38.9 500.8,38.6 502.2,38.4 503.5,38.3 504.9,38.0 506.3,37.8 507.7,37.6 509.1,37.3 510.5,37.1 511.8,36.9 513.2,36.6 514.6,36.4 516.0,36.3 517.4,36.2 518.8,36.1 520.2,35.9 521.5,35.8 522.9,35.6 524.3,35.4 525.7,35.2 527.1,35.0 528.5,34.8 529.8,34.5 531.2,34.3 532.6,34.0 534.0,33.9 535.4,33.7 536.8,33.6 538.2,33.5 539.5,33.3 540.9,33.2 542.3,32.9 543.7,32.8 545.1,32.5 546.5,32.4 547.8,32.2 549.2,32.1 550.6,31.9 552.0,31.8 553.4,31.8 554.8,31.6 556.2,31.4 557.5,31.4 558.9,31.2 560.3,31.0 561.7,30.8 563.1,30.7 564.5,30.5 565.8,30.4 567.2,30.3 568.6,30.1 570.0,30.0 570.0,30.0,120" />
  
  <!-- Linea principale -->
  <polyline fill="none" stroke="#0366d6" stroke-width="2.5" stroke-linecap="round" stroke-linejoin="round" points="30.0,120.0 31.4,119.5 32.8,118.9 34.2,118.4 35.5,118.3 36.9,118.0 38.3,117.4 39.7,117.0 41.1,116.8 42.5,116.1 43.8,115.8 45.2,115.5 46.6,115.3 48.0,115.0 49.4,114.6 50.8,114.2 52.2,113.8 53.5,113.6 54.9,113.4 56.3,113.2 57.7,112.8 59.1,112.5 60.5,112.4 61.8,112.1 63.2,111.2 64.6,110.9 66.0,110.5 67.4,110.1 68.8,109.8 70.2,109.4 71.5,109.2 72.9,109.0 74.3,108.8 75.7,108.3 77.1,107.9 78.5,107.6 79.8,107.3 81.2,107.2 82.6,107.1 84.0,106.9 85.4,106.6 86.8,106.4 88.2,106.3 89.5,105.9 90.9,105.4 92.3,105.3 93.7,105.2 95.1,105.0 96.5,104.6 97.8,104.3 99.2,103.9 100.6,103.5 102.0,103.2 103.4,103.1 104.8,102.8 106.2,102.5 107.5,102.1 108.9,101.8 110.3,101.6 111.7,101.4 113.1,101.3 114.5,100.8 115.8,100.4 117.2,100.0 118.6,99.7 120.0,99.5 121.4,99.4 122.8,99.2 124.2,98.9 125.5,98.7 126.9,98.6 128.3,98.4 129.7,98.3 131.1,98.1 132.5,97.9 133.8,97.8 135.2,97.7 136.6,97.3 138.0,97.1 139.4,97.0 140.8,96.9 142.2,96.8 143.5,96.8 144.9,103.4 146.3,102.8 147.7,102.2 149.1,101.6 150.5,99.8 151.8,98.5 153.2,97.2 154.6,96.7 156.0,96.1 157.4,95.2 158.8,94.1 160.2,93.4 161.5,93.1 162.9,92.9 164.3,92.1 165.7,91.6 167.1,91.3 168.5,90.8 169.8,90.7 171.2,90.6 172.6,90.2 174.0,89.6 175.4,89.1 176.8,88.7 178.2,88.2 179.5,88.0 180.9,87.8 182.3,87.4 183.7,87.0 185.1,86.6 186.5,86.3 187.8,86.2 189.2,86.1 190.6,85.9 192.0,85.5 193.4,85.3 194.8,85.1 196.2,84.9 197.5,84.7 198.9,84.5 200.3,84.3 201.7,84.2 203.1,84.0 204.5,83.6 205.8,83.4 207.2,83.1 208.6,82.9 210.0,82.7 211.4,82.6 212.8,82.4 214.2,82.3 215.5,81.8 216.9,81.5 218.3,81.1 219.7,80.9 221.1,80.9 222.5,80.7 223.8,80.5 225.2,80.2 226.6,80.0 228.0,79.7 229.4,79.5 230.8,79.4 232.2,79.3 233.5,79.1 234.9,79.0 236.3,78.8 237.7,78.7 239.1,78.4 240.5,78.2 241.8,78.1 243.2,78.0 244.6,77.9 246.0,77.7 247.4,77.5 248.8,77.2 250.2,77.0 251.5,76.8 252.9,76.7 254.3,76.6 255.7,76.4 257.1,76.1 258.5,75.9 259.8,75.7 261.2,75.4 262.6,75.1 264.0,75.0 265.4,74.9 266.8,74.8 268.2,74.6 269.5,74.4 270.9,74.2 272.3,74.1 273.7,73.9 275.1,73.8 276.5,73.6 277.8,73.5 279.2,73.4 280.6,73.2 282.0,73.0 283.4,72.9 284.8,72.6 286.2,72.5 287.5,72.4 288.9,72.2 290.3,72.1 291.7,72.0 293.1,71.9 294.5,71.6 295.8,71.3 297.2,71.1 298.6,70.9 300.0,70.8 301.4,70.8 302.8,70.6 304.2,70.3 305.5,70.2 306.9,70.1 308.3,69.9 309.7,69.7 311.1,69.5 312.5,69.4 313.8,69.3 315.2,69.1 316.6,68.9 318.0,68.7 319.4,68.5 320.8,68.4 322.2,68.3 323.5,68.3 324.9,68.1 326.3,68.0 327.7,67.8 329.1,67.6 330.5,67.5 331.8,67.3 333.2,67.2 334.6,67.1 336.0,67.0 337.4,66.8 338.8,66.5 340.2,66.4 341.5,66.2 342.9,66.1 344.3,66.0 345.7,65.9 347.1,65.8 348.5,65.7 349.8,65.6 351.2,65.3 352.6,65.2 354.0,65.0 355.4,64.9 356.8,64.8 358.2,64.7 359.5,64.5 360.9,64.4 362.3,64.2 363.7,64.1 365.1,63.9 366.5,63.8 367.8,63.6 369.2,63.5 370.6,63.5 372.0,63.3 373.4,63.2 374.8,63.1 376.2,63.0 377.5,62.9 378.9,62.8 380.3,62.5 381.7,62.3 383.1,66.6 384.5,65.7 385.8,64.1 387.2,63.5 388.6,62.7 390.0,61.8 391.4,61.3 392.8,60.9 394.2,60.3 395.5,59.4 396.9,58.7 398.3,58.5 399.7,58.1 401.1,57.8 402.5,57.3 403.8,56.9 405.2,56.3 406.6,56.1 408.0,55.6 409.4,55.4 410.8,55.0 412.2,54.8 413.5,54.6 414.9,54.4 416.3,53.9 417.7,53.6 419.1,53.1 420.5,52.5 421.8,52.2 423.2,52.0 424.6,51.8 426.0,51.6 427.4,51.2 428.8,50.8 430.2,50.6 431.5,49.7 432.9,49.0 434.3,48.7 435.7,48.5 437.1,48.2 438.5,47.7 439.8,47.3 441.2,46.8 442.6,46.5 444.0,46.2 445.4,45.9 446.8,45.4 448.2,45.2 449.5,45.1 450.9,44.9 452.3,44.7 453.7,44.4 455.1,44.3 456.5,44.0 457.8,43.8 459.2,43.7 460.6,43.4 462.0,43.2 463.4,43.0 464.8,42.9 466.2,42.7 467.5,42.5 468.9,42.4 470.3,42.2 471.7,42.1 473.1,42.0 474.5,41.8 475.8,41.7 477.2,41.5 478.6,41.3 480.0,41.1 481.4,40.9 482.8,40.7 484.2,40.6 485.5,40.5 486.9,40.4 488.3,40.2 489.7,40.1 491.1,40.0 492.5,39.8 493.8,39.6 495.2,39.5 496.6,39.2 498.0,39.0 499.4,38.9 500.8,38.6 502.2,38.4 503.5,38.3 504.9,38.0 506.3,37.8 507.7,37.6 509.1,37.3 510.5,37.1 511.8,36.9 513.2,36.6 514.6,36.4 516.0,36.3 517.4,36.2 518.8,36.1 520.2,35.9 521.5,35.8 522.9,35.6 524.3,35.4 525.7,35.2 527.1,35.0 528.5,34.8 529.8,34.5 531.2,34.3 532.6,34.0 534.0,33.9 535.4,33.7 536.8,33.6 538.2,33.5 539.5,33.3 540.9,33.2 542.3,32.9 543.7,32.8 545.1,32.5 546.5,32.4 547.8,32.2 549.2,32.1 550.6,31.9 552.0,31.8 553.4,31.8 554.8,31.6 556.2,31.4 557.5,31.4 558.9,31.2 560.3,31.0 561.7,30.8 563.1,30.7 564.5,30.5 565.8,30.4 567.2,30.3 568.6,30.1 570.0,30.0" />
  
  <!-- Punto finale luminoso -->
  <circle cx="570.0" cy="30.0" r="4" fill="#ffffff" stroke="#0366d6" stroke-width="2.5" />
</svg>