<svg width="600" height="150" viewBox="0 0 600 150" xmlns="http://www.w3.org/2000/svg">
  <defs>
    <filter id="shadow2" x="-2%" y="-2%" width="104%" height="108%">
      <feDropShadow dx="0" dy="2" stdDeviation="3" flood-opacity="0.1" />
    </filter>
    <linearGradient id="fillGrad" x1="0" y1="0" x2="0" y2="1">
      <stop offset="0%" stop-color="#0366d6" stop-opacity="0.3"/>
      <stop offset="100%" stop-color="#0366d6" stop-opacity="0.02"/>
    </linearGradient>
  </defs>
  <rect width="600" height="150" rx="12" fill="#ffffff" filter="url(#shadow2)" stroke="#e1e4e8" stroke-width="1"/>
  <text x="20" y="24" fill="#2b3137" font-family="-apple-system,BlinkMacSystemFont,'Segoe UI',Helvetica,Arial,sans-serif" font-size="14" font-weight="600">📈 Download Growth (Actual: 86.1k)</text>
  
  <!-- Area sotto la linea -->
  <polygon fill="url(#fillGrad)" points="30.0,120.0,120 30.0,120.0 31.4,119.5 32.8,118.9 34.2,118.4 35.6,118.3 37.0,118.0 38.4,117.4 39.8,117.0 41.2,116.7 42.7,116.1 44.1,115.8 45.5,115.5 46.9,115.3 48.3,115.0 49.7,114.6 51.1,114.1 52.5,113.8 53.9,113.5 55.3,113.4 56.7,113.1 58.1,112.8 59.5,112.5 60.9,112.3 62.3,112.1 63.8,111.1 65.2,110.8 66.6,110.4 68.0,110.0 69.4,109.7 70.8,109.3 72.2,109.1 73.6,108.9 75.0,108.7 76.4,108.2 77.8,107.8 79.2,107.5 80.6,107.2 82.0,107.1 83.4,107.0 84.8,106.8 86.2,106.5 87.7,106.3 89.1,106.2 90.5,105.8 91.9,105.3 93.3,105.2 94.7,105.1 96.1,104.8 97.5,104.4 98.9,104.1 100.3,103.7 101.7,103.4 103.1,103.0 104.5,102.9 105.9,102.7 107.3,102.3 108.8,101.9 110.2,101.6 111.6,101.5 113.0,101.3 114.4,101.1 115.8,100.6 117.2,100.2 118.6,99.9 120.0,99.5 121.4,99.3 122.8,99.2 124.2,99.0 125.6,98.7 127.0,98.5 128.4,98.4 129.8,98.2 131.2,98.1 132.7,97.9 134.1,97.7 135.5,97.6 136.9,97.5 138.3,97.1 139.7,96.9 141.1,96.8 142.5,96.7 143.9,96.6 145.3,96.6 146.7,103.3 148.1,102.6 149.5,102.0 150.9,101.4 152.3,99.6 153.8,98.3 155.2,97.0 156.6,96.4 158.0,95.9 159.4,94.9 160.8,93.9 162.2,93.2 163.6,92.9 165.0,92.6 166.4,91.9 167.8,91.3 169.2,91.0 170.6,90.6 172.0,90.4 173.4,90.3 174.8,89.9 176.2,89.3 177.7,88.9 179.1,88.4 180.5,87.9 181.9,87.7 183.3,87.5 184.7,87.1 186.1,86.7 187.5,86.3 188.9,86.0 190.3,85.9 191.7,85.8 193.1,85.5 194.5,85.2 195.9,85.0 197.3,84.7 198.8,84.5 200.2,84.3 201.6,84.2 203.0,84.0 204.4,83.8 205.8,83.7 207.2,83.3 208.6,83.1 210.0,82.8 211.4,82.6 212.8,82.4 214.2,82.2 215.6,82.1 217.0,81.9 218.4,81.4 219.8,81.1 221.2,80.7 222.7,80.6 224.1,80.5 225.5,80.3 226.9,80.1 228.3,79.9 229.7,79.6 231.1,79.3 232.5,79.1 233.9,79.1 235.3,78.9 236.7,78.8 238.1,78.6 239.5,78.4 240.9,78.3 242.3,78.0 243.8,77.8 245.2,77.7 246.6,77.6 248.0,77.5 249.4,77.3 250.8,77.1 252.2,76.8 253.6,76.6 255.0,76.4 256.4,76.3 257.8,76.2 259.2,76.0 260.6,75.7 262.0,75.4 263.4,75.2 264.8,75.0 266.2,74.7 267.7,74.6 269.1,74.5 270.5,74.4 271.9,74.2 273.3,74.0 274.7,73.8 276.1,73.7 277.5,73.5 278.9,73.4 280.3,73.2 281.7,73.1 283.1,73.0 284.5,72.8 285.9,72.5 287.3,72.4 288.8,72.2 290.2,72.1 291.6,72.0 293.0,71.8 294.4,71.7 295.8,71.6 297.2,71.4 298.6,71.1 300.0,70.8 301.4,70.6 302.8,70.4 304.2,70.4 305.6,70.3 307.0,70.1 308.4,69.8 309.8,69.7 311.2,69.6 312.7,69.4 314.1,69.3 315.5,69.1 316.9,69.0 318.3,68.9 319.7,68.6 321.1,68.4 322.5,68.2 323.9,68.0 325.3,67.9 326.7,67.9 328.1,67.8 329.5,67.6 330.9,67.5 332.3,67.3 333.8,67.2 335.2,67.0 336.6,66.9 338.0,66.7 339.4,66.6 340.8,66.5 342.2,66.3 343.6,66.0 345.0,65.9 346.4,65.7 347.8,65.6 349.2,65.5 350.6,65.4 352.0,65.3 353.4,65.2 354.8,65.1 356.2,64.8 357.7,64.7 359.1,64.5 360.5,64.4 361.9,64.3 363.3,64.1 364.7,64.0 366.1,63.8 367.5,63.7 368.9,63.6 370.3,63.4 371.7,63.3 373.1,63.1 374.5,63.0 375.9,62.9 377.3,62.8 378.8,62.7 380.2,62.6 381.6,62.4 383.0,62.4 384.4,62.3 385.8,61.9 387.2,61.7 388.6,66.1 390.0,65.2 391.4,63.6 392.8,63.0 394.2,62.2 395.6,61.2 397.0,60.7 398.4,60.4 399.8,59.8 401.2,58.8 402.7,58.1 404.1,57.9 405.5,57.5 406.9,57.2 408.3,56.7 409.7,56.3 411.1,55.7 412.5,55.5 413.9,55.0 415.3,54.8 416.7,54.4 418.1,54.2 419.5,54.0 420.9,53.7 422.3,53.3 423.8,52.9 425.2,52.5 426.6,51.9 428.0,51.5 429.4,51.3 430.8,51.2 432.2,50.9 433.6,50.6 435.0,50.2 436.4,49.9 437.8,49.0 439.2,48.3 440.6,48.0 442.0,47.8 443.4,47.5 444.8,47.1 446.2,46.7 447.7,46.1 449.1,45.8 450.5,45.5 451.9,45.2 453.3,44.8 454.7,44.5 456.1,44.4 457.5,44.2 458.9,44.0 460.3,43.7 461.7,43.6 463.1,43.3 464.5,43.1 465.9,43.0 467.3,42.7 468.8,42.5 470.2,42.3 471.6,42.1 473.0,42.0 474.4,41.8 475.8,41.7 477.2,41.5 478.6,41.4 480.0,41.3 481.4,41.1 482.8,40.9 484.2,40.7 485.6,40.5 487.0,40.3 488.4,40.2 489.8,40.0 491.2,39.9 492.7,39.8 494.1,39.6 495.5,39.5 496.9,39.3 498.3,39.2 499.7,39.1 501.1,38.9 502.5,38.7 503.9,38.5 505.3,38.3 506.7,38.1 508.1,37.9 509.5,37.7 510.9,37.5 512.3,37.2 513.8,37.0 515.2,36.8 516.6,36.6 518.0,36.4 519.4,36.1 520.8,35.9 522.2,35.6 523.6,35.5 525.0,35.4 526.4,35.3 527.8,35.1 529.2,35.0 530.6,34.8 532.0,34.6 533.4,34.4 534.8,34.2 536.2,34.0 537.7,33.7 539.1,33.5 540.5,33.2 541.9,33.1 543.3,32.9 544.7,32.8 546.1,32.7 547.5,32.5 548.9,32.4 550.3,32.1 551.7,32.0 553.1,31.7 554.5,31.6 555.9,31.4 557.3,31.3 558.8,31.1 560.2,31.0 561.6,30.9 563.0,30.8 564.4,30.6 565.8,30.5 567.2,30.4 568.6,30.2 570.0,30.0 570.0,30.0,120" />
  
  <!-- Linea principale -->
  <polyline fill="none" stroke="#0366d6" stroke-width="2.5" stroke-linecap="round" stroke-linejoin="round" points="30.0,120.0 31.4,119.5 32.8,118.9 34.2,118.4 35.6,118.3 37.0,118.0 38.4,117.4 39.8,117.0 41.2,116.7 42.7,116.1 44.1,115.8 45.5,115.5 46.9,115.3 48.3,115.0 49.7,114.6 51.1,114.1 52.5,113.8 53.9,113.5 55.3,113.4 56.7,113.1 58.1,112.8 59.5,112.5 60.9,112.3 62.3,112.1 63.8,111.1 65.2,110.8 66.6,110.4 68.0,110.0 69.4,109.7 70.8,109.3 72.2,109.1 73.6,108.9 75.0,108.7 76.4,108.2 77.8,107.8 79.2,107.5 80.6,107.2 82.0,107.1 83.4,107.0 84.8,106.8 86.2,106.5 87.7,106.3 89.1,106.2 90.5,105.8 91.9,105.3 93.3,105.2 94.7,105.1 96.1,104.8 97.5,104.4 98.9,104.1 100.3,103.7 101.7,103.4 103.1,103.0 104.5,102.9 105.9,102.7 107.3,102.3 108.8,101.9 110.2,101.6 111.6,101.5 113.0,101.3 114.4,101.1 115.8,100.6 117.2,100.2 118.6,99.9 120.0,99.5 121.4,99.3 122.8,99.2 124.2,99.0 125.6,98.7 127.0,98.5 128.4,98.4 129.8,98.2 131.2,98.1 132.7,97.9 134.1,97.7 135.5,97.6 136.9,97.5 138.3,97.1 139.7,96.9 141.1,96.8 142.5,96.7 143.9,96.6 145.3,96.6 146.7,103.3 148.1,102.6 149.5,102.0 150.9,101.4 152.3,99.6 153.8,98.3 155.2,97.0 156.6,96.4 158.0,95.9 159.4,94.9 160.8,93.9 162.2,93.2 163.6,92.9 165.0,92.6 166.4,91.9 167.8,91.3 169.2,91.0 170.6,90.6 172.0,90.4 173.4,90.3 174.8,89.9 176.2,89.3 177.7,88.9 179.1,88.4 180.5,87.9 181.9,87.7 183.3,87.5 184.7,87.1 186.1,86.7 187.5,86.3 188.9,86.0 190.3,85.9 191.7,85.8 193.1,85.5 194.5,85.2 195.9,85.0 197.3,84.7 198.8,84.5 200.2,84.3 201.6,84.2 203.0,84.0 204.4,83.8 205.8,83.7 207.2,83.3 208.6,83.1 210.0,82.8 211.4,82.6 212.8,82.4 214.2,82.2 215.6,82.1 217.0,81.9 218.4,81.4 219.8,81.1 221.2,80.7 222.7,80.6 224.1,80.5 225.5,80.3 226.9,80.1 228.3,79.9 229.7,79.6 231.1,79.3 232.5,79.1 233.9,79.1 235.3,78.9 236.7,78.8 238.1,78.6 239.5,78.4 240.9,78.3 242.3,78.0 243.8,77.8 245.2,77.7 246.6,77.6 248.0,77.5 249.4,77.3 250.8,77.1 252.2,76.8 253.6,76.6 255.0,76.4 256.4,76.3 257.8,76.2 259.2,76.0 260.6,75.7 262.0,75.4 263.4,75.2 264.8,75.0 266.2,74.7 267.7,74.6 269.1,74.5 270.5,74.4 271.9,74.2 273.3,74.0 274.7,73.8 276.1,73.7 277.5,73.5 278.9,73.4 280.3,73.2 281.7,73.1 283.1,73.0 284.5,72.8 285.9,72.5 287.3,72.4 288.8,72.2 290.2,72.1 291.6,72.0 293.0,71.8 294.4,71.7 295.8,71.6 297.2,71.4 298.6,71.1 300.0,70.8 301.4,70.6 302.8,70.4 304.2,70.4 305.6,70.3 307.0,70.1 308.4,69.8 309.8,69.7 311.2,69.6 312.7,69.4 314.1,69.3 315.5,69.1 316.9,69.0 318.3,68.9 319.7,68.6 321.1,68.4 322.5,68.2 323.9,68.0 325.3,67.9 326.7,67.9 328.1,67.8 329.5,67.6 330.9,67.5 332.3,67.3 333.8,67.2 335.2,67.0 336.6,66.9 338.0,66.7 339.4,66.6 340.8,66.5 342.2,66.3 343.6,66.0 345.0,65.9 346.4,65.7 347.8,65.6 349.2,65.5 350.6,65.4 352.0,65.3 353.4,65.2 354.8,65.1 356.2,64.8 357.7,64.7 359.1,64.5 360.5,64.4 361.9,64.3 363.3,64.1 364.7,64.0 366.1,63.8 367.5,63.7 368.9,63.6 370.3,63.4 371.7,63.3 373.1,63.1 374.5,63.0 375.9,62.9 377.3,62.8 378.8,62.7 380.2,62.6 381.6,62.4 383.0,62.4 384.4,62.3 385.8,61.9 387.2,61.7 388.6,66.1 390.0,65.2 391.4,63.6 392.8,63.0 394.2,62.2 395.6,61.2 397.0,60.7 398.4,60.4 399.8,59.8 401.2,58.8 402.7,58.1 404.1,57.9 405.5,57.5 406.9,57.2 408.3,56.7 409.7,56.3 411.1,55.7 412.5,55.5 413.9,55.0 415.3,54.8 416.7,54.4 418.1,54.2 419.5,54.0 420.9,53.7 422.3,53.3 423.8,52.9 425.2,52.5 426.6,51.9 428.0,51.5 429.4,51.3 430.8,51.2 432.2,50.9 433.6,50.6 435.0,50.2 436.4,49.9 437.8,49.0 439.2,48.3 440.6,48.0 442.0,47.8 443.4,47.5 444.8,47.1 446.2,46.7 447.7,46.1 449.1,45.8 450.5,45.5 451.9,45.2 453.3,44.8 454.7,44.5 456.1,44.4 457.5,44.2 458.9,44.0 460.3,43.7 461.7,43.6 463.1,43.3 464.5,43.1 465.9,43.0 467.3,42.7 468.8,42.5 470.2,42.3 471.6,42.1 473.0,42.0 474.4,41.8 475.8,41.7 477.2,41.5 478.6,41.4 480.0,41.3 481.4,41.1 482.8,40.9 484.2,40.7 485.6,40.5 487.0,40.3 488.4,40.2 489.8,40.0 491.2,39.9 492.7,39.8 494.1,39.6 495.5,39.5 496.9,39.3 498.3,39.2 499.7,39.1 501.1,38.9 502.5,38.7 503.9,38.5 505.3,38.3 506.7,38.1 508.1,37.9 509.5,37.7 510.9,37.5 512.3,37.2 513.8,37.0 515.2,36.8 516.6,36.6 518.0,36.4 519.4,36.1 520.8,35.9 522.2,35.6 523.6,35.5 525.0,35.4 526.4,35.3 527.8,35.1 529.2,35.0 530.6,34.8 532.0,34.6 533.4,34.4 534.8,34.2 536.2,34.0 537.7,33.7 539.1,33.5 540.5,33.2 541.9,33.1 543.3,32.9 544.7,32.8 546.1,32.7 547.5,32.5 548.9,32.4 550.3,32.1 551.7,32.0 553.1,31.7 554.5,31.6 555.9,31.4 557.3,31.3 558.8,31.1 560.2,31.0 561.6,30.9 563.0,30.8 564.4,30.6 565.8,30.5 567.2,30.4 568.6,30.2 570.0,30.0" />
  
  <!-- Punto finale luminoso -->
  <circle cx="570.0" cy="30.0" r="4" fill="#ffffff" stroke="#0366d6" stroke-width="2.5" />
</svg>