<svg width="600" height="150" viewBox="0 0 600 150" xmlns="http://www.w3.org/2000/svg">
  <defs>
    <filter id="shadow2" x="-2%" y="-2%" width="104%" height="108%">
      <feDropShadow dx="0" dy="2" stdDeviation="3" flood-opacity="0.1" />
    </filter>
    <linearGradient id="fillGrad" x1="0" y1="0" x2="0" y2="1">
      <stop offset="0%" stop-color="#0366d6" stop-opacity="0.3"/>
      <stop offset="100%" stop-color="#0366d6" stop-opacity="0.02"/>
    </linearGradient>
  </defs>
  <rect width="600" height="150" rx="12" fill="#ffffff" filter="url(#shadow2)" stroke="#e1e4e8" stroke-width="1"/>
  <text x="20" y="24" fill="#2b3137" font-family="-apple-system,BlinkMacSystemFont,'Segoe UI',Helvetica,Arial,sans-serif" font-size="14" font-weight="600">📈 Download Growth (Actual: 84.8k)</text>
  
  <!-- Area sotto la linea -->
  <polygon fill="url(#fillGrad)" points="30.0,120.0,120 30.0,120.0 31.5,119.4 33.1,118.8 34.6,118.3 36.2,118.2 37.7,117.9 39.3,117.2 40.8,116.8 42.4,116.5 43.9,115.8 45.5,115.5 47.0,115.2 48.6,115.0 50.1,114.7 51.7,114.2 53.2,113.7 54.8,113.3 56.3,113.1 57.9,112.9 59.4,112.6 60.9,112.3 62.5,112.0 64.0,111.8 65.6,111.5 67.1,110.4 68.7,110.1 70.2,109.7 71.8,109.3 73.3,108.9 74.9,108.6 76.4,108.4 78.0,108.2 79.5,107.9 81.1,107.4 82.6,106.9 84.2,106.6 85.7,106.3 87.2,106.2 88.8,106.1 90.3,105.9 91.9,105.6 93.4,105.4 95.0,105.2 96.5,104.8 98.1,104.3 99.6,104.1 101.2,104.0 102.7,103.8 104.3,103.3 105.8,103.0 107.4,102.6 108.9,102.2 110.5,101.8 112.0,101.7 113.6,101.5 115.1,101.1 116.6,100.6 118.2,100.3 119.7,100.2 121.3,99.9 122.8,99.8 124.4,99.3 125.9,98.8 127.5,98.4 129.0,98.1 130.6,97.9 132.1,97.7 133.7,97.6 135.2,97.2 136.8,97.0 138.3,96.8 139.9,96.7 141.4,96.5 143.0,96.3 144.5,96.2 146.0,96.1 147.6,95.9 149.1,95.5 150.7,95.3 152.2,95.2 153.8,95.0 155.3,95.0 156.9,95.0 158.4,102.1 160.0,101.4 161.5,100.8 163.1,100.1 164.6,98.2 166.2,96.8 167.7,95.3 169.3,94.8 170.8,94.2 172.3,93.2 173.9,92.1 175.4,91.3 177.0,91.0 178.5,90.7 180.1,89.9 181.6,89.3 183.2,89.0 184.7,88.5 186.3,88.3 187.8,88.2 189.4,87.8 190.9,87.2 192.5,86.7 194.0,86.2 195.6,85.7 197.1,85.4 198.7,85.2 200.2,84.8 201.7,84.3 203.3,83.9 204.8,83.6 206.4,83.5 207.9,83.4 209.5,83.1 211.0,82.8 212.6,82.5 214.1,82.3 215.7,82.1 217.2,81.9 218.8,81.7 220.3,81.5 221.9,81.3 223.4,81.1 225.0,80.7 226.5,80.5 228.1,80.1 229.6,80.0 231.1,79.7 232.7,79.6 234.2,79.4 235.8,79.3 237.3,78.8 238.9,78.4 240.4,78.0 242.0,77.8 243.5,77.8 245.1,77.6 246.6,77.3 248.2,77.1 249.7,76.8 251.3,76.5 252.8,76.3 254.4,76.2 255.9,76.0 257.4,75.9 259.0,75.7 260.5,75.5 262.1,75.4 263.6,75.0 265.2,74.9 266.7,74.8 268.3,74.6 269.8,74.6 271.4,74.3 272.9,74.1 274.5,73.8 276.0,73.6 277.6,73.4 279.1,73.2 280.7,73.1 282.2,72.9 283.8,72.6 285.3,72.3 286.8,72.1 288.4,71.9 289.9,71.5 291.5,71.4 293.0,71.3 294.6,71.2 296.1,71.0 297.7,70.8 299.2,70.6 300.8,70.4 302.3,70.2 303.9,70.1 305.4,69.9 307.0,69.8 308.5,69.7 310.1,69.5 311.6,69.2 313.2,69.1 314.7,68.9 316.2,68.8 317.8,68.6 319.3,68.4 320.9,68.3 322.4,68.2 324.0,68.0 325.5,67.7 327.1,67.4 328.6,67.2 330.2,67.0 331.7,66.9 333.3,66.8 334.8,66.6 336.4,66.3 337.9,66.2 339.5,66.1 341.0,65.9 342.6,65.7 344.1,65.5 345.6,65.4 347.2,65.3 348.7,65.0 350.3,64.8 351.8,64.6 353.4,64.4 354.9,64.3 356.5,64.2 358.0,64.2 359.6,64.0 361.1,63.8 362.7,63.6 364.2,63.5 365.8,63.3 367.3,63.1 368.9,63.0 370.4,62.9 371.9,62.7 373.5,62.5 375.0,62.3 376.6,62.1 378.1,61.9 379.7,61.8 381.2,61.7 382.8,61.6 384.3,61.5 385.9,61.4 387.4,61.2 389.0,61.0 390.5,60.8 392.1,60.6 393.6,60.5 395.2,60.4 396.7,60.2 398.3,60.0 399.8,59.9 401.3,59.8 402.9,59.6 404.4,59.5 406.0,59.3 407.5,59.1 409.1,59.0 410.6,58.9 412.2,58.8 413.7,58.7 415.3,58.5 416.8,58.4 418.4,58.4 419.9,58.2 421.5,57.9 423.0,57.7 424.6,62.3 426.1,61.4 427.7,59.7 429.2,59.0 430.7,58.2 432.3,57.1 433.8,56.6 435.4,56.2 436.9,55.6 438.5,54.5 440.0,53.8 441.6,53.5 443.1,53.2 444.7,52.9 446.2,52.3 447.8,51.8 449.3,51.3 450.9,51.0 452.4,50.5 454.0,50.2 455.5,49.9 457.0,49.6 458.6,49.4 460.1,49.1 461.7,48.6 463.2,48.3 464.8,47.8 466.3,47.1 467.9,46.8 469.4,46.6 471.0,46.4 472.5,46.1 474.1,45.7 475.6,45.3 477.2,45.0 478.7,44.1 480.3,43.3 481.8,43.0 483.4,42.8 484.9,42.5 486.4,42.0 488.0,41.5 489.5,41.0 491.1,40.6 492.6,40.3 494.2,39.9 495.7,39.5 497.3,39.3 498.8,39.1 500.4,38.9 501.9,38.7 503.5,38.4 505.0,38.3 506.6,38.0 508.1,37.8 509.7,37.6 511.2,37.3 512.8,37.1 514.3,36.9 515.8,36.7 517.4,36.5 518.9,36.4 520.5,36.2 522.0,36.0 523.6,35.9 525.1,35.8 526.7,35.6 528.2,35.4 529.8,35.2 531.3,35.0 532.9,34.8 534.4,34.6 536.0,34.4 537.5,34.3 539.1,34.2 540.6,34.0 542.1,33.8 543.7,33.7 545.2,33.6 546.8,33.4 548.3,33.2 549.9,33.0 551.4,32.8 553.0,32.6 554.5,32.4 556.1,32.2 557.6,31.9 559.2,31.7 560.7,31.5 562.3,31.2 563.8,31.0 565.4,30.8 566.9,30.5 568.5,30.2 570.0,30.0 570.0,30.0,120" />
  
  <!-- Linea principale -->
  <polyline fill="none" stroke="#0366d6" stroke-width="2.5" stroke-linecap="round" stroke-linejoin="round" points="30.0,120.0 31.5,119.4 33.1,118.8 34.6,118.3 36.2,118.2 37.7,117.9 39.3,117.2 40.8,116.8 42.4,116.5 43.9,115.8 45.5,115.5 47.0,115.2 48.6,115.0 50.1,114.7 51.7,114.2 53.2,113.7 54.8,113.3 56.3,113.1 57.9,112.9 59.4,112.6 60.9,112.3 62.5,112.0 64.0,111.8 65.6,111.5 67.1,110.4 68.7,110.1 70.2,109.7 71.8,109.3 73.3,108.9 74.9,108.6 76.4,108.4 78.0,108.2 79.5,107.9 81.1,107.4 82.6,106.9 84.2,106.6 85.7,106.3 87.2,106.2 88.8,106.1 90.3,105.9 91.9,105.6 93.4,105.4 95.0,105.2 96.5,104.8 98.1,104.3 99.6,104.1 101.2,104.0 102.7,103.8 104.3,103.3 105.8,103.0 107.4,102.6 108.9,102.2 110.5,101.8 112.0,101.7 113.6,101.5 115.1,101.1 116.6,100.6 118.2,100.3 119.7,100.2 121.3,99.9 122.8,99.8 124.4,99.3 125.9,98.8 127.5,98.4 129.0,98.1 130.6,97.9 132.1,97.7 133.7,97.6 135.2,97.2 136.8,97.0 138.3,96.8 139.9,96.7 141.4,96.5 143.0,96.3 144.5,96.2 146.0,96.1 147.6,95.9 149.1,95.5 150.7,95.3 152.2,95.2 153.8,95.0 155.3,95.0 156.9,95.0 158.4,102.1 160.0,101.4 161.5,100.8 163.1,100.1 164.6,98.2 166.2,96.8 167.7,95.3 169.3,94.8 170.8,94.2 172.3,93.2 173.9,92.1 175.4,91.3 177.0,91.0 178.5,90.7 180.1,89.9 181.6,89.3 183.2,89.0 184.7,88.5 186.3,88.3 187.8,88.2 189.4,87.8 190.9,87.2 192.5,86.7 194.0,86.2 195.6,85.7 197.1,85.4 198.7,85.2 200.2,84.8 201.7,84.3 203.3,83.9 204.8,83.6 206.4,83.5 207.9,83.4 209.5,83.1 211.0,82.8 212.6,82.5 214.1,82.3 215.7,82.1 217.2,81.9 218.8,81.7 220.3,81.5 221.9,81.3 223.4,81.1 225.0,80.7 226.5,80.5 228.1,80.1 229.6,80.0 231.1,79.7 232.7,79.6 234.2,79.4 235.8,79.3 237.3,78.8 238.9,78.4 240.4,78.0 242.0,77.8 243.5,77.8 245.1,77.6 246.6,77.3 248.2,77.1 249.7,76.8 251.3,76.5 252.8,76.3 254.4,76.2 255.9,76.0 257.4,75.9 259.0,75.7 260.5,75.5 262.1,75.4 263.6,75.0 265.2,74.9 266.7,74.8 268.3,74.6 269.8,74.6 271.4,74.3 272.9,74.1 274.5,73.8 276.0,73.6 277.6,73.4 279.1,73.2 280.7,73.1 282.2,72.9 283.8,72.6 285.3,72.3 286.8,72.1 288.4,71.9 289.9,71.5 291.5,71.4 293.0,71.3 294.6,71.2 296.1,71.0 297.7,70.8 299.2,70.6 300.8,70.4 302.3,70.2 303.9,70.1 305.4,69.9 307.0,69.8 308.5,69.7 310.1,69.5 311.6,69.2 313.2,69.1 314.7,68.9 316.2,68.8 317.8,68.6 319.3,68.4 320.9,68.3 322.4,68.2 324.0,68.0 325.5,67.7 327.1,67.4 328.6,67.2 330.2,67.0 331.7,66.9 333.3,66.8 334.8,66.6 336.4,66.3 337.9,66.2 339.5,66.1 341.0,65.9 342.6,65.7 344.1,65.5 345.6,65.4 347.2,65.3 348.7,65.0 350.3,64.8 351.8,64.6 353.4,64.4 354.9,64.3 356.5,64.2 358.0,64.2 359.6,64.0 361.1,63.8 362.7,63.6 364.2,63.5 365.8,63.3 367.3,63.1 368.9,63.0 370.4,62.9 371.9,62.7 373.5,62.5 375.0,62.3 376.6,62.1 378.1,61.9 379.7,61.8 381.2,61.7 382.8,61.6 384.3,61.5 385.9,61.4 387.4,61.2 389.0,61.0 390.5,60.8 392.1,60.6 393.6,60.5 395.2,60.4 396.7,60.2 398.3,60.0 399.8,59.9 401.3,59.8 402.9,59.6 404.4,59.5 406.0,59.3 407.5,59.1 409.1,59.0 410.6,58.9 412.2,58.8 413.7,58.7 415.3,58.5 416.8,58.4 418.4,58.4 419.9,58.2 421.5,57.9 423.0,57.7 424.6,62.3 426.1,61.4 427.7,59.7 429.2,59.0 430.7,58.2 432.3,57.1 433.8,56.6 435.4,56.2 436.9,55.6 438.5,54.5 440.0,53.8 441.6,53.5 443.1,53.2 444.7,52.9 446.2,52.3 447.8,51.8 449.3,51.3 450.9,51.0 452.4,50.5 454.0,50.2 455.5,49.9 457.0,49.6 458.6,49.4 460.1,49.1 461.7,48.6 463.2,48.3 464.8,47.8 466.3,47.1 467.9,46.8 469.4,46.6 471.0,46.4 472.5,46.1 474.1,45.7 475.6,45.3 477.2,45.0 478.7,44.1 480.3,43.3 481.8,43.0 483.4,42.8 484.9,42.5 486.4,42.0 488.0,41.5 489.5,41.0 491.1,40.6 492.6,40.3 494.2,39.9 495.7,39.5 497.3,39.3 498.8,39.1 500.4,38.9 501.9,38.7 503.5,38.4 505.0,38.3 506.6,38.0 508.1,37.8 509.7,37.6 511.2,37.3 512.8,37.1 514.3,36.9 515.8,36.7 517.4,36.5 518.9,36.4 520.5,36.2 522.0,36.0 523.6,35.9 525.1,35.8 526.7,35.6 528.2,35.4 529.8,35.2 531.3,35.0 532.9,34.8 534.4,34.6 536.0,34.4 537.5,34.3 539.1,34.2 540.6,34.0 542.1,33.8 543.7,33.7 545.2,33.6 546.8,33.4 548.3,33.2 549.9,33.0 551.4,32.8 553.0,32.6 554.5,32.4 556.1,32.2 557.6,31.9 559.2,31.7 560.7,31.5 562.3,31.2 563.8,31.0 565.4,30.8 566.9,30.5 568.5,30.2 570.0,30.0" />
  
  <!-- Punto finale luminoso -->
  <circle cx="570.0" cy="30.0" r="4" fill="#ffffff" stroke="#0366d6" stroke-width="2.5" />
</svg>