<svg width="600" height="150" viewBox="0 0 600 150" xmlns="http://www.w3.org/2000/svg">
  <defs>
    <filter id="shadow2" x="-2%" y="-2%" width="104%" height="108%">
      <feDropShadow dx="0" dy="2" stdDeviation="3" flood-opacity="0.1" />
    </filter>
    <linearGradient id="fillGrad" x1="0" y1="0" x2="0" y2="1">
      <stop offset="0%" stop-color="#0366d6" stop-opacity="0.3"/>
      <stop offset="100%" stop-color="#0366d6" stop-opacity="0.02"/>
    </linearGradient>
  </defs>
  <rect width="600" height="150" rx="12" fill="#ffffff" filter="url(#shadow2)" stroke="#e1e4e8" stroke-width="1"/>
  <text x="20" y="24" fill="#2b3137" font-family="-apple-system,BlinkMacSystemFont,'Segoe UI',Helvetica,Arial,sans-serif" font-size="14" font-weight="600">📈 Download Growth (Actual: 86.7k)</text>
  
  <!-- Area sotto la linea -->
  <polygon fill="url(#fillGrad)" points="30.0,120.0,120 30.0,120.0 31.3,119.5 32.7,118.9 34.0,118.5 35.3,118.3 36.7,118.1 38.0,117.5 39.4,117.1 40.7,116.8 42.0,116.2 43.4,115.9 44.7,115.6 46.0,115.4 47.4,115.2 48.7,114.7 50.0,114.3 51.4,114.0 52.7,113.7 54.1,113.6 55.4,113.3 56.7,113.0 58.1,112.7 59.4,112.6 60.7,112.3 62.1,111.3 63.4,111.1 64.8,110.7 66.1,110.3 67.4,110.0 68.8,109.7 70.1,109.4 71.4,109.3 72.8,109.0 74.1,108.6 75.4,108.2 76.8,107.9 78.1,107.6 79.5,107.5 80.8,107.4 82.1,107.2 83.5,106.9 84.8,106.7 86.1,106.6 87.5,106.3 88.8,105.7 90.1,105.6 91.5,105.5 92.8,105.3 94.2,104.9 95.5,104.6 96.8,104.2 98.2,103.9 99.5,103.5 100.8,103.4 102.2,103.2 103.5,102.8 104.9,102.4 106.2,102.2 107.5,102.0 108.9,101.8 110.2,101.7 111.5,101.2 112.9,100.8 114.2,100.5 115.5,100.1 116.9,99.9 118.2,99.8 119.6,99.7 120.9,99.4 122.2,99.2 123.6,99.0 124.9,98.9 126.2,98.7 127.6,98.5 128.9,98.4 130.2,98.3 131.6,98.2 132.9,97.8 134.3,97.6 135.6,97.5 136.9,97.4 138.3,97.3 139.6,97.3 140.9,103.8 142.3,103.2 143.6,102.6 145.0,102.0 146.3,100.2 147.6,99.0 149.0,97.7 150.3,97.2 151.6,96.6 153.0,95.7 154.3,94.7 155.6,94.0 157.0,93.7 158.3,93.4 159.7,92.7 161.0,92.2 162.3,91.9 163.7,91.5 165.0,91.3 166.3,91.2 167.7,90.9 169.0,90.2 170.3,89.8 171.7,89.4 173.0,88.9 174.4,88.7 175.7,88.5 177.0,88.1 178.4,87.7 179.7,87.3 181.0,87.0 182.4,86.9 183.7,86.8 185.0,86.6 186.4,86.3 187.7,86.0 189.1,85.8 190.4,85.6 191.7,85.4 193.1,85.3 194.4,85.1 195.7,84.9 197.1,84.8 198.4,84.4 199.8,84.2 201.1,83.9 202.4,83.7 203.8,83.5 205.1,83.4 206.4,83.3 207.8,83.1 209.1,82.6 210.4,82.3 211.8,81.9 213.1,81.8 214.5,81.7 215.8,81.6 217.1,81.3 218.5,81.1 219.8,80.9 221.1,80.6 222.5,80.4 223.8,80.3 225.1,80.2 226.5,80.0 227.8,79.9 229.2,79.7 230.5,79.5 231.8,79.3 233.2,79.1 234.5,79.0 235.8,78.9 237.2,78.8 238.5,78.6 239.9,78.4 241.2,78.2 242.5,78.0 243.9,77.8 245.2,77.6 246.5,77.5 247.9,77.4 249.2,77.1 250.5,76.8 251.9,76.6 253.2,76.4 254.6,76.1 255.9,76.0 257.2,75.9 258.6,75.8 259.9,75.6 261.2,75.4 262.6,75.2 263.9,75.1 265.2,74.9 266.6,74.8 267.9,74.6 269.3,74.5 270.6,74.4 271.9,74.3 273.3,74.0 274.6,73.9 275.9,73.7 277.3,73.6 278.6,73.4 280.0,73.3 281.3,73.2 282.6,73.1 284.0,72.9 285.3,72.6 286.6,72.3 288.0,72.1 289.3,72.0 290.6,71.9 292.0,71.8 293.3,71.7 294.7,71.4 296.0,71.3 297.3,71.2 298.7,71.0 300.0,70.8 301.3,70.6 302.7,70.5 304.0,70.4 305.3,70.2 306.7,70.0 308.0,69.8 309.4,69.6 310.7,69.5 312.0,69.5 313.4,69.4 314.7,69.2 316.0,69.1 317.4,68.9 318.7,68.8 320.0,68.6 321.4,68.5 322.7,68.4 324.1,68.2 325.4,68.1 326.7,67.9 328.1,67.7 329.4,67.5 330.7,67.4 332.1,67.3 333.4,67.2 334.8,67.1 336.1,67.0 337.4,66.9 338.8,66.7 340.1,66.5 341.4,66.4 342.8,66.2 344.1,66.1 345.4,66.0 346.8,65.9 348.1,65.7 349.5,65.6 350.8,65.5 352.1,65.3 353.5,65.1 354.8,65.0 356.1,64.8 357.5,64.8 358.8,64.7 360.1,64.6 361.5,64.5 362.8,64.3 364.2,64.2 365.5,64.2 366.8,64.0 368.2,63.7 369.5,63.5 370.8,67.8 372.2,66.9 373.5,65.3 374.9,64.7 376.2,64.0 377.5,63.1 378.9,62.6 380.2,62.2 381.5,61.6 382.9,60.7 384.2,60.0 385.5,59.8 386.9,59.4 388.2,59.2 389.6,58.7 390.9,58.2 392.2,57.7 393.6,57.5 394.9,57.0 396.2,56.8 397.6,56.5 398.9,56.2 400.2,56.0 401.6,55.8 402.9,55.3 404.3,55.0 405.6,54.6 406.9,54.0 408.3,53.6 409.6,53.5 410.9,53.3 412.3,53.1 413.6,52.7 415.0,52.3 416.3,52.1 417.6,51.2 419.0,50.5 420.3,50.2 421.6,50.0 423.0,49.8 424.3,49.3 425.6,48.9 427.0,48.4 428.3,48.1 429.7,47.8 431.0,47.5 432.3,47.1 433.7,46.9 435.0,46.7 436.3,46.5 437.7,46.4 439.0,46.1 440.3,45.9 441.7,45.7 443.0,45.5 444.4,45.4 445.7,45.1 447.0,44.9 448.4,44.7 449.7,44.5 451.0,44.4 452.4,44.2 453.7,44.1 455.0,43.9 456.4,43.8 457.7,43.7 459.1,43.5 460.4,43.4 461.7,43.2 463.1,43.0 464.4,42.8 465.7,42.7 467.1,42.5 468.4,42.3 469.8,42.2 471.1,42.1 472.4,41.9 473.8,41.8 475.1,41.7 476.4,41.6 477.8,41.4 479.1,41.2 480.4,41.0 481.8,40.8 483.1,40.6 484.5,40.4 485.8,40.2 487.1,40.0 488.5,39.8 489.8,39.6 491.1,39.4 492.5,39.1 493.8,38.9 495.1,38.7 496.5,38.5 497.8,38.2 499.2,38.1 500.5,38.0 501.8,37.9 503.2,37.7 504.5,37.6 505.8,37.4 507.2,37.3 508.5,37.1 509.9,36.9 511.2,36.6 512.5,36.4 513.9,36.2 515.2,35.9 516.5,35.8 517.9,35.6 519.2,35.5 520.5,35.4 521.9,35.2 523.2,35.0 524.6,34.8 525.9,34.7 527.2,34.4 528.6,34.3 529.9,34.1 531.2,34.0 532.6,33.8 533.9,33.8 535.2,33.7 536.6,33.6 537.9,33.4 539.3,33.3 540.6,33.1 541.9,32.9 543.3,32.8 544.6,32.6 545.9,32.5 547.3,32.3 548.6,32.2 550.0,32.1 551.3,32.0 552.6,31.8 554.0,31.7 555.3,31.5 556.6,31.2 558.0,31.1 559.3,30.8 560.6,30.7 562.0,30.6 563.3,30.5 564.7,30.4 566.0,30.3 567.3,30.2 568.7,30.1 570.0,30.0 570.0,30.0,120" />
  
  <!-- Linea principale -->
  <polyline fill="none" stroke="#0366d6" stroke-width="2.5" stroke-linecap="round" stroke-linejoin="round" points="30.0,120.0 31.3,119.5 32.7,118.9 34.0,118.5 35.3,118.3 36.7,118.1 38.0,117.5 39.4,117.1 40.7,116.8 42.0,116.2 43.4,115.9 44.7,115.6 46.0,115.4 47.4,115.2 48.7,114.7 50.0,114.3 51.4,114.0 52.7,113.7 54.1,113.6 55.4,113.3 56.7,113.0 58.1,112.7 59.4,112.6 60.7,112.3 62.1,111.3 63.4,111.1 64.8,110.7 66.1,110.3 67.4,110.0 68.8,109.7 70.1,109.4 71.4,109.3 72.8,109.0 74.1,108.6 75.4,108.2 76.8,107.9 78.1,107.6 79.5,107.5 80.8,107.4 82.1,107.2 83.5,106.9 84.8,106.7 86.1,106.6 87.5,106.3 88.8,105.7 90.1,105.6 91.5,105.5 92.8,105.3 94.2,104.9 95.5,104.6 96.8,104.2 98.2,103.9 99.5,103.5 100.8,103.4 102.2,103.2 103.5,102.8 104.9,102.4 106.2,102.2 107.5,102.0 108.9,101.8 110.2,101.7 111.5,101.2 112.9,100.8 114.2,100.5 115.5,100.1 116.9,99.9 118.2,99.8 119.6,99.7 120.9,99.4 122.2,99.2 123.6,99.0 124.9,98.9 126.2,98.7 127.6,98.5 128.9,98.4 130.2,98.3 131.6,98.2 132.9,97.8 134.3,97.6 135.6,97.5 136.9,97.4 138.3,97.3 139.6,97.3 140.9,103.8 142.3,103.2 143.6,102.6 145.0,102.0 146.3,100.2 147.6,99.0 149.0,97.7 150.3,97.2 151.6,96.6 153.0,95.7 154.3,94.7 155.6,94.0 157.0,93.7 158.3,93.4 159.7,92.7 161.0,92.2 162.3,91.9 163.7,91.5 165.0,91.3 166.3,91.2 167.7,90.9 169.0,90.2 170.3,89.8 171.7,89.4 173.0,88.9 174.4,88.7 175.7,88.5 177.0,88.1 178.4,87.7 179.7,87.3 181.0,87.0 182.4,86.9 183.7,86.8 185.0,86.6 186.4,86.3 187.7,86.0 189.1,85.8 190.4,85.6 191.7,85.4 193.1,85.3 194.4,85.1 195.7,84.9 197.1,84.8 198.4,84.4 199.8,84.2 201.1,83.9 202.4,83.7 203.8,83.5 205.1,83.4 206.4,83.3 207.8,83.1 209.1,82.6 210.4,82.3 211.8,81.9 213.1,81.8 214.5,81.7 215.8,81.6 217.1,81.3 218.5,81.1 219.8,80.9 221.1,80.6 222.5,80.4 223.8,80.3 225.1,80.2 226.5,80.0 227.8,79.9 229.2,79.7 230.5,79.5 231.8,79.3 233.2,79.1 234.5,79.0 235.8,78.9 237.2,78.8 238.5,78.6 239.9,78.4 241.2,78.2 242.5,78.0 243.9,77.8 245.2,77.6 246.5,77.5 247.9,77.4 249.2,77.1 250.5,76.8 251.9,76.6 253.2,76.4 254.6,76.1 255.9,76.0 257.2,75.9 258.6,75.8 259.9,75.6 261.2,75.4 262.6,75.2 263.9,75.1 265.2,74.9 266.6,74.8 267.9,74.6 269.3,74.5 270.6,74.4 271.9,74.3 273.3,74.0 274.6,73.9 275.9,73.7 277.3,73.6 278.6,73.4 280.0,73.3 281.3,73.2 282.6,73.1 284.0,72.9 285.3,72.6 286.6,72.3 288.0,72.1 289.3,72.0 290.6,71.9 292.0,71.8 293.3,71.7 294.7,71.4 296.0,71.3 297.3,71.2 298.7,71.0 300.0,70.8 301.3,70.6 302.7,70.5 304.0,70.4 305.3,70.2 306.7,70.0 308.0,69.8 309.4,69.6 310.7,69.5 312.0,69.5 313.4,69.4 314.7,69.2 316.0,69.1 317.4,68.9 318.7,68.8 320.0,68.6 321.4,68.5 322.7,68.4 324.1,68.2 325.4,68.1 326.7,67.9 328.1,67.7 329.4,67.5 330.7,67.4 332.1,67.3 333.4,67.2 334.8,67.1 336.1,67.0 337.4,66.9 338.8,66.7 340.1,66.5 341.4,66.4 342.8,66.2 344.1,66.1 345.4,66.0 346.8,65.9 348.1,65.7 349.5,65.6 350.8,65.5 352.1,65.3 353.5,65.1 354.8,65.0 356.1,64.8 357.5,64.8 358.8,64.7 360.1,64.6 361.5,64.5 362.8,64.3 364.2,64.2 365.5,64.2 366.8,64.0 368.2,63.7 369.5,63.5 370.8,67.8 372.2,66.9 373.5,65.3 374.9,64.7 376.2,64.0 377.5,63.1 378.9,62.6 380.2,62.2 381.5,61.6 382.9,60.7 384.2,60.0 385.5,59.8 386.9,59.4 388.2,59.2 389.6,58.7 390.9,58.2 392.2,57.7 393.6,57.5 394.9,57.0 396.2,56.8 397.6,56.5 398.9,56.2 400.2,56.0 401.6,55.8 402.9,55.3 404.3,55.0 405.6,54.6 406.9,54.0 408.3,53.6 409.6,53.5 410.9,53.3 412.3,53.1 413.6,52.7 415.0,52.3 416.3,52.1 417.6,51.2 419.0,50.5 420.3,50.2 421.6,50.0 423.0,49.8 424.3,49.3 425.6,48.9 427.0,48.4 428.3,48.1 429.7,47.8 431.0,47.5 432.3,47.1 433.7,46.9 435.0,46.7 436.3,46.5 437.7,46.4 439.0,46.1 440.3,45.9 441.7,45.7 443.0,45.5 444.4,45.4 445.7,45.1 447.0,44.9 448.4,44.7 449.7,44.5 451.0,44.4 452.4,44.2 453.7,44.1 455.0,43.9 456.4,43.8 457.7,43.7 459.1,43.5 460.4,43.4 461.7,43.2 463.1,43.0 464.4,42.8 465.7,42.7 467.1,42.5 468.4,42.3 469.8,42.2 471.1,42.1 472.4,41.9 473.8,41.8 475.1,41.7 476.4,41.6 477.8,41.4 479.1,41.2 480.4,41.0 481.8,40.8 483.1,40.6 484.5,40.4 485.8,40.2 487.1,40.0 488.5,39.8 489.8,39.6 491.1,39.4 492.5,39.1 493.8,38.9 495.1,38.7 496.5,38.5 497.8,38.2 499.2,38.1 500.5,38.0 501.8,37.9 503.2,37.7 504.5,37.6 505.8,37.4 507.2,37.3 508.5,37.1 509.9,36.9 511.2,36.6 512.5,36.4 513.9,36.2 515.2,35.9 516.5,35.8 517.9,35.6 519.2,35.5 520.5,35.4 521.9,35.2 523.2,35.0 524.6,34.8 525.9,34.7 527.2,34.4 528.6,34.3 529.9,34.1 531.2,34.0 532.6,33.8 533.9,33.8 535.2,33.7 536.6,33.6 537.9,33.4 539.3,33.3 540.6,33.1 541.9,32.9 543.3,32.8 544.6,32.6 545.9,32.5 547.3,32.3 548.6,32.2 550.0,32.1 551.3,32.0 552.6,31.8 554.0,31.7 555.3,31.5 556.6,31.2 558.0,31.1 559.3,30.8 560.6,30.7 562.0,30.6 563.3,30.5 564.7,30.4 566.0,30.3 567.3,30.2 568.7,30.1 570.0,30.0" />
  
  <!-- Punto finale luminoso -->
  <circle cx="570.0" cy="30.0" r="4" fill="#ffffff" stroke="#0366d6" stroke-width="2.5" />
</svg>