<svg width="600" height="150" viewBox="0 0 600 150" xmlns="http://www.w3.org/2000/svg">
  <defs>
    <filter id="shadow2" x="-2%" y="-2%" width="104%" height="108%">
      <feDropShadow dx="0" dy="2" stdDeviation="3" flood-opacity="0.1" />
    </filter>
    <linearGradient id="fillGrad" x1="0" y1="0" x2="0" y2="1">
      <stop offset="0%" stop-color="#0366d6" stop-opacity="0.3"/>
      <stop offset="100%" stop-color="#0366d6" stop-opacity="0.02"/>
    </linearGradient>
  </defs>
  <rect width="600" height="150" rx="12" fill="#ffffff" filter="url(#shadow2)" stroke="#e1e4e8" stroke-width="1"/>
  <text x="20" y="24" fill="#2b3137" font-family="-apple-system,BlinkMacSystemFont,'Segoe UI',Helvetica,Arial,sans-serif" font-size="14" font-weight="600">📈 Download Growth (Actual: 85.5k)</text>
  
  <!-- Area sotto la linea -->
  <polygon fill="url(#fillGrad)" points="30.0,120.0,120 30.0,120.0 31.5,119.5 33.0,118.9 34.4,118.4 35.9,118.2 37.4,117.9 38.9,117.3 40.4,116.9 41.8,116.6 43.3,116.0 44.8,115.6 46.3,115.3 47.8,115.1 49.2,114.8 50.7,114.4 52.2,113.9 53.7,113.6 55.2,113.3 56.6,113.2 58.1,112.9 59.6,112.5 61.1,112.2 62.5,112.1 64.0,111.8 65.5,110.8 67.0,110.5 68.5,110.1 69.9,109.7 71.4,109.3 72.9,109.0 74.4,108.7 75.9,108.6 77.3,108.3 78.8,107.8 80.3,107.4 81.8,107.1 83.3,106.7 84.7,106.6 86.2,106.6 87.7,106.4 89.2,106.0 90.7,105.9 92.1,105.7 93.6,105.3 95.1,104.8 96.6,104.7 98.1,104.6 99.5,104.3 101.0,103.9 102.5,103.6 104.0,103.2 105.5,102.8 106.9,102.4 108.4,102.4 109.9,102.1 111.4,101.7 112.8,101.3 114.3,101.0 115.8,100.8 117.3,100.6 118.8,100.4 120.2,100.0 121.7,99.6 123.2,99.2 124.7,98.8 126.2,98.6 127.6,98.5 129.1,98.3 130.6,98.0 132.1,97.8 133.6,97.6 135.0,97.5 136.5,97.3 138.0,97.1 139.5,97.0 141.0,96.9 142.4,96.8 143.9,96.4 145.4,96.1 146.9,96.0 148.4,95.9 149.8,95.8 151.3,95.8 152.8,102.7 154.3,102.0 155.8,101.4 157.2,100.8 158.7,98.9 160.2,97.6 161.7,96.2 163.2,95.7 164.6,95.1 166.1,94.1 167.6,93.0 169.1,92.3 170.5,92.0 172.0,91.7 173.5,90.9 175.0,90.4 176.5,90.0 177.9,89.6 179.4,89.4 180.9,89.3 182.4,88.9 183.9,88.3 185.3,87.8 186.8,87.4 188.3,86.8 189.8,86.6 191.3,86.4 192.7,86.0 194.2,85.6 195.7,85.2 197.2,84.9 198.7,84.7 200.1,84.6 201.6,84.4 203.1,84.1 204.6,83.8 206.1,83.6 207.5,83.4 209.0,83.2 210.5,83.0 212.0,82.8 213.5,82.6 214.9,82.4 216.4,82.1 217.9,81.8 219.4,81.5 220.8,81.3 222.3,81.1 223.8,81.0 225.3,80.8 226.8,80.7 228.2,80.2 229.7,79.8 231.2,79.4 232.7,79.2 234.2,79.2 235.6,79.0 237.1,78.8 238.6,78.5 240.1,78.3 241.6,78.0 243.0,77.8 244.5,77.7 246.0,77.5 247.5,77.4 249.0,77.2 250.4,77.0 251.9,76.9 253.4,76.6 254.9,76.4 256.4,76.3 257.8,76.2 259.3,76.1 260.8,75.8 262.3,75.6 263.8,75.4 265.2,75.2 266.7,75.0 268.2,74.8 269.7,74.7 271.2,74.5 272.6,74.2 274.1,74.0 275.6,73.7 277.1,73.5 278.5,73.1 280.0,73.1 281.5,72.9 283.0,72.8 284.5,72.6 285.9,72.5 287.4,72.3 288.9,72.1 290.4,71.9 291.9,71.8 293.3,71.6 294.8,71.5 296.3,71.4 297.8,71.2 299.3,70.9 300.7,70.8 302.2,70.6 303.7,70.5 305.2,70.4 306.7,70.2 308.1,70.1 309.6,70.0 311.1,69.8 312.6,69.5 314.1,69.2 315.5,69.0 317.0,68.8 318.5,68.7 320.0,68.7 321.5,68.5 322.9,68.2 324.4,68.0 325.9,67.9 327.4,67.7 328.8,67.6 330.3,67.4 331.8,67.3 333.3,67.2 334.8,66.9 336.2,66.7 337.7,66.5 339.2,66.3 340.7,66.2 342.2,66.1 343.6,66.1 345.1,65.9 346.6,65.7 348.1,65.6 349.6,65.4 351.0,65.2 352.5,65.1 354.0,65.0 355.5,64.8 357.0,64.7 358.4,64.5 359.9,64.2 361.4,64.1 362.9,63.9 364.4,63.8 365.8,63.7 367.3,63.6 368.8,63.5 370.3,63.4 371.8,63.2 373.2,63.0 374.7,62.8 376.2,62.7 377.7,62.6 379.2,62.4 380.6,62.3 382.1,62.1 383.6,62.0 385.1,61.8 386.5,61.7 388.0,61.5 389.5,61.4 391.0,61.2 392.5,61.1 393.9,61.0 395.4,60.9 396.9,60.8 398.4,60.6 399.9,60.5 401.3,60.5 402.8,60.3 404.3,60.0 405.8,59.8 407.3,64.3 408.7,63.4 410.2,61.7 411.7,61.1 413.2,60.3 414.7,59.3 416.1,58.8 417.6,58.4 419.1,57.8 420.6,56.8 422.1,56.0 423.5,55.8 425.0,55.4 426.5,55.1 428.0,54.6 429.5,54.2 430.9,53.6 432.4,53.3 433.9,52.8 435.4,52.6 436.8,52.2 438.3,52.0 439.8,51.8 441.3,51.5 442.8,51.0 444.2,50.7 445.7,50.2 447.2,49.6 448.7,49.3 450.2,49.1 451.6,48.9 453.1,48.6 454.6,48.2 456.1,47.9 457.6,47.6 459.0,46.6 460.5,45.9 462.0,45.6 463.5,45.4 465.0,45.1 466.4,44.6 467.9,44.2 469.4,43.7 470.9,43.3 472.4,43.0 473.8,42.7 475.3,42.2 476.8,42.0 478.3,41.8 479.8,41.7 481.2,41.5 482.7,41.2 484.2,41.0 485.7,40.8 487.2,40.6 488.6,40.4 490.1,40.1 491.6,39.9 493.1,39.7 494.5,39.5 496.0,39.3 497.5,39.2 499.0,39.1 500.5,38.9 501.9,38.7 503.4,38.7 504.9,38.4 506.4,38.3 507.9,38.1 509.3,37.9 510.8,37.7 512.3,37.5 513.8,37.3 515.3,37.2 516.7,37.1 518.2,36.9 519.7,36.8 521.2,36.6 522.7,36.5 524.1,36.4 525.6,36.2 527.1,36.0 528.6,35.7 530.1,35.5 531.5,35.4 533.0,35.1 534.5,34.9 536.0,34.7 537.5,34.5 538.9,34.3 540.4,34.1 541.9,33.8 543.4,33.6 544.8,33.3 546.3,33.1 547.8,32.8 549.3,32.7 550.8,32.6 552.2,32.4 553.7,32.3 555.2,32.1 556.7,31.9 558.2,31.8 559.6,31.6 561.1,31.4 562.6,31.1 564.1,30.8 565.6,30.6 567.0,30.3 568.5,30.2 570.0,30.0 570.0,30.0,120" />
  
  <!-- Linea principale -->
  <polyline fill="none" stroke="#0366d6" stroke-width="2.5" stroke-linecap="round" stroke-linejoin="round" points="30.0,120.0 31.5,119.5 33.0,118.9 34.4,118.4 35.9,118.2 37.4,117.9 38.9,117.3 40.4,116.9 41.8,116.6 43.3,116.0 44.8,115.6 46.3,115.3 47.8,115.1 49.2,114.8 50.7,114.4 52.2,113.9 53.7,113.6 55.2,113.3 56.6,113.2 58.1,112.9 59.6,112.5 61.1,112.2 62.5,112.1 64.0,111.8 65.5,110.8 67.0,110.5 68.5,110.1 69.9,109.7 71.4,109.3 72.9,109.0 74.4,108.7 75.9,108.6 77.3,108.3 78.8,107.8 80.3,107.4 81.8,107.1 83.3,106.7 84.7,106.6 86.2,106.6 87.7,106.4 89.2,106.0 90.7,105.9 92.1,105.7 93.6,105.3 95.1,104.8 96.6,104.7 98.1,104.6 99.5,104.3 101.0,103.9 102.5,103.6 104.0,103.2 105.5,102.8 106.9,102.4 108.4,102.4 109.9,102.1 111.4,101.7 112.8,101.3 114.3,101.0 115.8,100.8 117.3,100.6 118.8,100.4 120.2,100.0 121.7,99.6 123.2,99.2 124.7,98.8 126.2,98.6 127.6,98.5 129.1,98.3 130.6,98.0 132.1,97.8 133.6,97.6 135.0,97.5 136.5,97.3 138.0,97.1 139.5,97.0 141.0,96.9 142.4,96.8 143.9,96.4 145.4,96.1 146.9,96.0 148.4,95.9 149.8,95.8 151.3,95.8 152.8,102.7 154.3,102.0 155.8,101.4 157.2,100.8 158.7,98.9 160.2,97.6 161.7,96.2 163.2,95.7 164.6,95.1 166.1,94.1 167.6,93.0 169.1,92.3 170.5,92.0 172.0,91.7 173.5,90.9 175.0,90.4 176.5,90.0 177.9,89.6 179.4,89.4 180.9,89.3 182.4,88.9 183.9,88.3 185.3,87.8 186.8,87.4 188.3,86.8 189.8,86.6 191.3,86.4 192.7,86.0 194.2,85.6 195.7,85.2 197.2,84.9 198.7,84.7 200.1,84.6 201.6,84.4 203.1,84.1 204.6,83.8 206.1,83.6 207.5,83.4 209.0,83.2 210.5,83.0 212.0,82.8 213.5,82.6 214.9,82.4 216.4,82.1 217.9,81.8 219.4,81.5 220.8,81.3 222.3,81.1 223.8,81.0 225.3,80.8 226.8,80.7 228.2,80.2 229.7,79.8 231.2,79.4 232.7,79.2 234.2,79.2 235.6,79.0 237.1,78.8 238.6,78.5 240.1,78.3 241.6,78.0 243.0,77.8 244.5,77.7 246.0,77.5 247.5,77.4 249.0,77.2 250.4,77.0 251.9,76.9 253.4,76.6 254.9,76.4 256.4,76.3 257.8,76.2 259.3,76.1 260.8,75.8 262.3,75.6 263.8,75.4 265.2,75.2 266.7,75.0 268.2,74.8 269.7,74.7 271.2,74.5 272.6,74.2 274.1,74.0 275.6,73.7 277.1,73.5 278.5,73.1 280.0,73.1 281.5,72.9 283.0,72.8 284.5,72.6 285.9,72.5 287.4,72.3 288.9,72.1 290.4,71.9 291.9,71.8 293.3,71.6 294.8,71.5 296.3,71.4 297.8,71.2 299.3,70.9 300.7,70.8 302.2,70.6 303.7,70.5 305.2,70.4 306.7,70.2 308.1,70.1 309.6,70.0 311.1,69.8 312.6,69.5 314.1,69.2 315.5,69.0 317.0,68.8 318.5,68.7 320.0,68.7 321.5,68.5 322.9,68.2 324.4,68.0 325.9,67.9 327.4,67.7 328.8,67.6 330.3,67.4 331.8,67.3 333.3,67.2 334.8,66.9 336.2,66.7 337.7,66.5 339.2,66.3 340.7,66.2 342.2,66.1 343.6,66.1 345.1,65.9 346.6,65.7 348.1,65.6 349.6,65.4 351.0,65.2 352.5,65.1 354.0,65.0 355.5,64.8 357.0,64.7 358.4,64.5 359.9,64.2 361.4,64.1 362.9,63.9 364.4,63.8 365.8,63.7 367.3,63.6 368.8,63.5 370.3,63.4 371.8,63.2 373.2,63.0 374.7,62.8 376.2,62.7 377.7,62.6 379.2,62.4 380.6,62.3 382.1,62.1 383.6,62.0 385.1,61.8 386.5,61.7 388.0,61.5 389.5,61.4 391.0,61.2 392.5,61.1 393.9,61.0 395.4,60.9 396.9,60.8 398.4,60.6 399.9,60.5 401.3,60.5 402.8,60.3 404.3,60.0 405.8,59.8 407.3,64.3 408.7,63.4 410.2,61.7 411.7,61.1 413.2,60.3 414.7,59.3 416.1,58.8 417.6,58.4 419.1,57.8 420.6,56.8 422.1,56.0 423.5,55.8 425.0,55.4 426.5,55.1 428.0,54.6 429.5,54.2 430.9,53.6 432.4,53.3 433.9,52.8 435.4,52.6 436.8,52.2 438.3,52.0 439.8,51.8 441.3,51.5 442.8,51.0 444.2,50.7 445.7,50.2 447.2,49.6 448.7,49.3 450.2,49.1 451.6,48.9 453.1,48.6 454.6,48.2 456.1,47.9 457.6,47.6 459.0,46.6 460.5,45.9 462.0,45.6 463.5,45.4 465.0,45.1 466.4,44.6 467.9,44.2 469.4,43.7 470.9,43.3 472.4,43.0 473.8,42.7 475.3,42.2 476.8,42.0 478.3,41.8 479.8,41.7 481.2,41.5 482.7,41.2 484.2,41.0 485.7,40.8 487.2,40.6 488.6,40.4 490.1,40.1 491.6,39.9 493.1,39.7 494.5,39.5 496.0,39.3 497.5,39.2 499.0,39.1 500.5,38.9 501.9,38.7 503.4,38.7 504.9,38.4 506.4,38.3 507.9,38.1 509.3,37.9 510.8,37.7 512.3,37.5 513.8,37.3 515.3,37.2 516.7,37.1 518.2,36.9 519.7,36.8 521.2,36.6 522.7,36.5 524.1,36.4 525.6,36.2 527.1,36.0 528.6,35.7 530.1,35.5 531.5,35.4 533.0,35.1 534.5,34.9 536.0,34.7 537.5,34.5 538.9,34.3 540.4,34.1 541.9,33.8 543.4,33.6 544.8,33.3 546.3,33.1 547.8,32.8 549.3,32.7 550.8,32.6 552.2,32.4 553.7,32.3 555.2,32.1 556.7,31.9 558.2,31.8 559.6,31.6 561.1,31.4 562.6,31.1 564.1,30.8 565.6,30.6 567.0,30.3 568.5,30.2 570.0,30.0" />
  
  <!-- Punto finale luminoso -->
  <circle cx="570.0" cy="30.0" r="4" fill="#ffffff" stroke="#0366d6" stroke-width="2.5" />
</svg>