<svg width="600" height="150" viewBox="0 0 600 150" xmlns="http://www.w3.org/2000/svg">
  <defs>
    <filter id="shadow2" x="-2%" y="-2%" width="104%" height="108%">
      <feDropShadow dx="0" dy="2" stdDeviation="3" flood-opacity="0.1" />
    </filter>
    <linearGradient id="fillGrad" x1="0" y1="0" x2="0" y2="1">
      <stop offset="0%" stop-color="#0366d6" stop-opacity="0.3"/>
      <stop offset="100%" stop-color="#0366d6" stop-opacity="0.02"/>
    </linearGradient>
  </defs>
  <rect width="600" height="150" rx="12" fill="#ffffff" filter="url(#shadow2)" stroke="#e1e4e8" stroke-width="1"/>
  <text x="20" y="24" fill="#2b3137" font-family="-apple-system,BlinkMacSystemFont,'Segoe UI',Helvetica,Arial,sans-serif" font-size="14" font-weight="600">📈 Download Growth (Actual: 86.7k)</text>
  
  <!-- Area sotto la linea -->
  <polygon fill="url(#fillGrad)" points="30.0,120.0,120 30.0,120.0 31.3,119.5 32.7,118.9 34.0,118.5 35.4,118.3 36.7,118.1 38.0,117.5 39.4,117.1 40.7,116.8 42.1,116.2 43.4,115.9 44.7,115.6 46.1,115.4 47.4,115.1 48.8,114.7 50.1,114.3 51.4,114.0 52.8,113.7 54.1,113.6 55.5,113.3 56.8,113.0 58.1,112.7 59.5,112.6 60.8,112.3 62.2,111.3 63.5,111.0 64.8,110.7 66.2,110.3 67.5,110.0 68.9,109.6 70.2,109.4 71.5,109.3 72.9,109.0 74.2,108.5 75.6,108.1 76.9,107.9 78.2,107.5 79.6,107.5 80.9,107.4 82.3,107.2 83.6,106.9 84.9,106.7 86.3,106.6 87.6,106.2 89.0,105.7 90.3,105.6 91.6,105.5 93.0,105.3 94.3,104.9 95.7,104.6 97.0,104.2 98.3,103.9 99.7,103.5 101.0,103.4 102.4,103.2 103.7,102.8 105.0,102.4 106.4,102.1 107.7,102.0 109.1,101.8 110.4,101.6 111.7,101.2 113.1,100.8 114.4,100.4 115.8,100.1 117.1,99.9 118.4,99.8 119.8,99.6 121.1,99.4 122.5,99.2 123.8,99.0 125.1,98.9 126.5,98.7 127.8,98.5 129.2,98.4 130.5,98.3 131.8,98.2 133.2,97.8 134.5,97.6 135.9,97.5 137.2,97.4 138.5,97.3 139.9,97.3 141.2,103.8 142.6,103.1 143.9,102.6 145.2,102.0 146.6,100.2 147.9,99.0 149.3,97.6 150.6,97.1 151.9,96.6 153.3,95.7 154.6,94.7 156.0,94.0 157.3,93.7 158.6,93.4 160.0,92.7 161.3,92.2 162.7,91.9 164.0,91.4 165.3,91.3 166.7,91.2 168.0,90.8 169.4,90.2 170.7,89.8 172.0,89.3 173.4,88.9 174.7,88.6 176.1,88.5 177.4,88.0 178.7,87.7 180.1,87.3 181.4,87.0 182.8,86.9 184.1,86.8 185.4,86.6 186.8,86.2 188.1,86.0 189.5,85.8 190.8,85.6 192.1,85.4 193.5,85.2 194.8,85.0 196.2,84.9 197.5,84.7 198.8,84.4 200.2,84.1 201.5,83.9 202.9,83.7 204.2,83.5 205.5,83.4 206.9,83.2 208.2,83.1 209.6,82.6 210.9,82.3 212.2,81.9 213.6,81.7 214.9,81.7 216.3,81.5 217.6,81.3 218.9,81.1 220.3,80.8 221.6,80.5 223.0,80.4 224.3,80.3 225.6,80.1 227.0,80.0 228.3,79.9 229.7,79.7 231.0,79.5 232.3,79.2 233.7,79.1 235.0,79.0 236.4,78.9 237.7,78.8 239.0,78.5 240.4,78.3 241.7,78.1 243.1,77.9 244.4,77.7 245.7,77.6 247.1,77.5 248.4,77.3 249.8,77.0 251.1,76.8 252.4,76.6 253.8,76.4 255.1,76.0 256.5,75.9 257.8,75.8 259.1,75.7 260.5,75.5 261.8,75.4 263.2,75.2 264.5,75.0 265.8,74.9 267.2,74.7 268.5,74.6 269.9,74.5 271.2,74.4 272.5,74.2 273.9,73.9 275.2,73.8 276.6,73.6 277.9,73.5 279.2,73.4 280.6,73.2 281.9,73.1 283.3,73.0 284.6,72.8 285.9,72.6 287.3,72.3 288.6,72.1 290.0,71.9 291.3,71.9 292.6,71.8 294.0,71.6 295.3,71.3 296.7,71.2 298.0,71.1 299.3,70.9 300.7,70.8 302.0,70.6 303.3,70.5 304.7,70.4 306.0,70.1 307.4,70.0 308.7,69.8 310.0,69.6 311.4,69.5 312.7,69.4 314.1,69.3 315.4,69.2 316.7,69.0 318.1,68.9 319.4,68.7 320.8,68.5 322.1,68.4 323.4,68.3 324.8,68.2 326.1,68.1 327.5,67.9 328.8,67.6 330.1,67.5 331.5,67.3 332.8,67.2 334.2,67.1 335.5,67.0 336.8,66.9 338.2,66.8 339.5,66.7 340.9,66.5 342.2,66.3 343.5,66.2 344.9,66.1 346.2,65.9 347.6,65.8 348.9,65.6 350.2,65.5 351.6,65.4 352.9,65.3 354.3,65.1 355.6,64.9 356.9,64.8 358.3,64.7 359.6,64.6 361.0,64.5 362.3,64.4 363.6,64.3 365.0,64.1 366.3,64.1 367.7,64.0 369.0,63.7 370.3,63.5 371.7,67.7 373.0,66.9 374.4,65.3 375.7,64.6 377.0,63.9 378.4,63.0 379.7,62.5 381.1,62.2 382.4,61.5 383.7,60.6 385.1,59.9 386.4,59.7 387.8,59.4 389.1,59.1 390.4,58.6 391.8,58.2 393.1,57.7 394.5,57.4 395.8,56.9 397.1,56.7 398.5,56.4 399.8,56.2 401.2,55.9 402.5,55.7 403.8,55.2 405.2,54.9 406.5,54.5 407.9,53.9 409.2,53.6 410.5,53.4 411.9,53.2 413.2,53.0 414.6,52.6 415.9,52.3 417.2,52.0 418.6,51.1 419.9,50.4 421.3,50.1 422.6,50.0 423.9,49.7 425.3,49.2 426.6,48.8 428.0,48.3 429.3,48.0 430.6,47.7 432.0,47.4 433.3,47.0 434.7,46.8 436.0,46.6 437.3,46.4 438.7,46.3 440.0,46.0 441.4,45.9 442.7,45.6 444.0,45.4 445.4,45.3 446.7,45.0 448.1,44.8 449.4,44.6 450.7,44.5 452.1,44.3 453.4,44.1 454.8,44.0 456.1,43.9 457.4,43.7 458.8,43.6 460.1,43.4 461.5,43.3 462.8,43.1 464.1,42.9 465.5,42.7 466.8,42.6 468.2,42.4 469.5,42.3 470.8,42.1 472.2,42.0 473.5,41.9 474.9,41.7 476.2,41.6 477.5,41.5 478.9,41.3 480.2,41.1 481.6,40.9 482.9,40.7 484.2,40.5 485.6,40.3 486.9,40.1 488.3,39.9 489.6,39.7 490.9,39.5 492.3,39.3 493.6,39.1 495.0,38.8 496.3,38.6 497.6,38.4 499.0,38.1 500.3,38.0 501.7,37.9 503.0,37.8 504.3,37.6 505.7,37.5 507.0,37.3 508.4,37.2 509.7,37.0 511.0,36.8 512.4,36.5 513.7,36.3 515.1,36.1 516.4,35.8 517.7,35.7 519.1,35.5 520.4,35.4 521.8,35.3 523.1,35.1 524.4,35.0 525.8,34.7 527.1,34.6 528.5,34.3 529.8,34.2 531.1,34.0 532.5,33.9 533.8,33.7 535.2,33.7 536.5,33.6 537.8,33.5 539.2,33.3 540.5,33.2 541.9,33.0 543.2,32.9 544.5,32.7 545.9,32.5 547.2,32.4 548.6,32.2 549.9,32.1 551.2,32.0 552.6,31.9 553.9,31.7 555.3,31.6 556.6,31.4 557.9,31.1 559.3,31.0 560.6,30.7 562.0,30.6 563.3,30.5 564.6,30.4 566.0,30.3 567.3,30.2 568.7,30.1 570.0,30.0 570.0,30.0,120" />
  
  <!-- Linea principale -->
  <polyline fill="none" stroke="#0366d6" stroke-width="2.5" stroke-linecap="round" stroke-linejoin="round" points="30.0,120.0 31.3,119.5 32.7,118.9 34.0,118.5 35.4,118.3 36.7,118.1 38.0,117.5 39.4,117.1 40.7,116.8 42.1,116.2 43.4,115.9 44.7,115.6 46.1,115.4 47.4,115.1 48.8,114.7 50.1,114.3 51.4,114.0 52.8,113.7 54.1,113.6 55.5,113.3 56.8,113.0 58.1,112.7 59.5,112.6 60.8,112.3 62.2,111.3 63.5,111.0 64.8,110.7 66.2,110.3 67.5,110.0 68.9,109.6 70.2,109.4 71.5,109.3 72.9,109.0 74.2,108.5 75.6,108.1 76.9,107.9 78.2,107.5 79.6,107.5 80.9,107.4 82.3,107.2 83.6,106.9 84.9,106.7 86.3,106.6 87.6,106.2 89.0,105.7 90.3,105.6 91.6,105.5 93.0,105.3 94.3,104.9 95.7,104.6 97.0,104.2 98.3,103.9 99.7,103.5 101.0,103.4 102.4,103.2 103.7,102.8 105.0,102.4 106.4,102.1 107.7,102.0 109.1,101.8 110.4,101.6 111.7,101.2 113.1,100.8 114.4,100.4 115.8,100.1 117.1,99.9 118.4,99.8 119.8,99.6 121.1,99.4 122.5,99.2 123.8,99.0 125.1,98.9 126.5,98.7 127.8,98.5 129.2,98.4 130.5,98.3 131.8,98.2 133.2,97.8 134.5,97.6 135.9,97.5 137.2,97.4 138.5,97.3 139.9,97.3 141.2,103.8 142.6,103.1 143.9,102.6 145.2,102.0 146.6,100.2 147.9,99.0 149.3,97.6 150.6,97.1 151.9,96.6 153.3,95.7 154.6,94.7 156.0,94.0 157.3,93.7 158.6,93.4 160.0,92.7 161.3,92.2 162.7,91.9 164.0,91.4 165.3,91.3 166.7,91.2 168.0,90.8 169.4,90.2 170.7,89.8 172.0,89.3 173.4,88.9 174.7,88.6 176.1,88.5 177.4,88.0 178.7,87.7 180.1,87.3 181.4,87.0 182.8,86.9 184.1,86.8 185.4,86.6 186.8,86.2 188.1,86.0 189.5,85.8 190.8,85.6 192.1,85.4 193.5,85.2 194.8,85.0 196.2,84.9 197.5,84.7 198.8,84.4 200.2,84.1 201.5,83.9 202.9,83.7 204.2,83.5 205.5,83.4 206.9,83.2 208.2,83.1 209.6,82.6 210.9,82.3 212.2,81.9 213.6,81.7 214.9,81.7 216.3,81.5 217.6,81.3 218.9,81.1 220.3,80.8 221.6,80.5 223.0,80.4 224.3,80.3 225.6,80.1 227.0,80.0 228.3,79.9 229.7,79.7 231.0,79.5 232.3,79.2 233.7,79.1 235.0,79.0 236.4,78.9 237.7,78.8 239.0,78.5 240.4,78.3 241.7,78.1 243.1,77.9 244.4,77.7 245.7,77.6 247.1,77.5 248.4,77.3 249.8,77.0 251.1,76.8 252.4,76.6 253.8,76.4 255.1,76.0 256.5,75.9 257.8,75.8 259.1,75.7 260.5,75.5 261.8,75.4 263.2,75.2 264.5,75.0 265.8,74.9 267.2,74.7 268.5,74.6 269.9,74.5 271.2,74.4 272.5,74.2 273.9,73.9 275.2,73.8 276.6,73.6 277.9,73.5 279.2,73.4 280.6,73.2 281.9,73.1 283.3,73.0 284.6,72.8 285.9,72.6 287.3,72.3 288.6,72.1 290.0,71.9 291.3,71.9 292.6,71.8 294.0,71.6 295.3,71.3 296.7,71.2 298.0,71.1 299.3,70.9 300.7,70.8 302.0,70.6 303.3,70.5 304.7,70.4 306.0,70.1 307.4,70.0 308.7,69.8 310.0,69.6 311.4,69.5 312.7,69.4 314.1,69.3 315.4,69.2 316.7,69.0 318.1,68.9 319.4,68.7 320.8,68.5 322.1,68.4 323.4,68.3 324.8,68.2 326.1,68.1 327.5,67.9 328.8,67.6 330.1,67.5 331.5,67.3 332.8,67.2 334.2,67.1 335.5,67.0 336.8,66.9 338.2,66.8 339.5,66.7 340.9,66.5 342.2,66.3 343.5,66.2 344.9,66.1 346.2,65.9 347.6,65.8 348.9,65.6 350.2,65.5 351.6,65.4 352.9,65.3 354.3,65.1 355.6,64.9 356.9,64.8 358.3,64.7 359.6,64.6 361.0,64.5 362.3,64.4 363.6,64.3 365.0,64.1 366.3,64.1 367.7,64.0 369.0,63.7 370.3,63.5 371.7,67.7 373.0,66.9 374.4,65.3 375.7,64.6 377.0,63.9 378.4,63.0 379.7,62.5 381.1,62.2 382.4,61.5 383.7,60.6 385.1,59.9 386.4,59.7 387.8,59.4 389.1,59.1 390.4,58.6 391.8,58.2 393.1,57.7 394.5,57.4 395.8,56.9 397.1,56.7 398.5,56.4 399.8,56.2 401.2,55.9 402.5,55.7 403.8,55.2 405.2,54.9 406.5,54.5 407.9,53.9 409.2,53.6 410.5,53.4 411.9,53.2 413.2,53.0 414.6,52.6 415.9,52.3 417.2,52.0 418.6,51.1 419.9,50.4 421.3,50.1 422.6,50.0 423.9,49.7 425.3,49.2 426.6,48.8 428.0,48.3 429.3,48.0 430.6,47.7 432.0,47.4 433.3,47.0 434.7,46.8 436.0,46.6 437.3,46.4 438.7,46.3 440.0,46.0 441.4,45.9 442.7,45.6 444.0,45.4 445.4,45.3 446.7,45.0 448.1,44.8 449.4,44.6 450.7,44.5 452.1,44.3 453.4,44.1 454.8,44.0 456.1,43.9 457.4,43.7 458.8,43.6 460.1,43.4 461.5,43.3 462.8,43.1 464.1,42.9 465.5,42.7 466.8,42.6 468.2,42.4 469.5,42.3 470.8,42.1 472.2,42.0 473.5,41.9 474.9,41.7 476.2,41.6 477.5,41.5 478.9,41.3 480.2,41.1 481.6,40.9 482.9,40.7 484.2,40.5 485.6,40.3 486.9,40.1 488.3,39.9 489.6,39.7 490.9,39.5 492.3,39.3 493.6,39.1 495.0,38.8 496.3,38.6 497.6,38.4 499.0,38.1 500.3,38.0 501.7,37.9 503.0,37.8 504.3,37.6 505.7,37.5 507.0,37.3 508.4,37.2 509.7,37.0 511.0,36.8 512.4,36.5 513.7,36.3 515.1,36.1 516.4,35.8 517.7,35.7 519.1,35.5 520.4,35.4 521.8,35.3 523.1,35.1 524.4,35.0 525.8,34.7 527.1,34.6 528.5,34.3 529.8,34.2 531.1,34.0 532.5,33.9 533.8,33.7 535.2,33.7 536.5,33.6 537.8,33.5 539.2,33.3 540.5,33.2 541.9,33.0 543.2,32.9 544.5,32.7 545.9,32.5 547.2,32.4 548.6,32.2 549.9,32.1 551.2,32.0 552.6,31.9 553.9,31.7 555.3,31.6 556.6,31.4 557.9,31.1 559.3,31.0 560.6,30.7 562.0,30.6 563.3,30.5 564.6,30.4 566.0,30.3 567.3,30.2 568.7,30.1 570.0,30.0" />
  
  <!-- Punto finale luminoso -->
  <circle cx="570.0" cy="30.0" r="4" fill="#ffffff" stroke="#0366d6" stroke-width="2.5" />
</svg>