<svg width="600" height="150" viewBox="0 0 600 150" xmlns="http://www.w3.org/2000/svg">
  <defs>
    <filter id="shadow2" x="-2%" y="-2%" width="104%" height="108%">
      <feDropShadow dx="0" dy="2" stdDeviation="3" flood-opacity="0.1" />
    </filter>
    <linearGradient id="fillGrad" x1="0" y1="0" x2="0" y2="1">
      <stop offset="0%" stop-color="#0366d6" stop-opacity="0.3"/>
      <stop offset="100%" stop-color="#0366d6" stop-opacity="0.02"/>
    </linearGradient>
  </defs>
  <rect width="600" height="150" rx="12" fill="#ffffff" filter="url(#shadow2)" stroke="#e1e4e8" stroke-width="1"/>
  <text x="20" y="24" fill="#2b3137" font-family="-apple-system,BlinkMacSystemFont,'Segoe UI',Helvetica,Arial,sans-serif" font-size="14" font-weight="600">📈 Download Growth (Actual: 86.9k)</text>
  
  <!-- Area sotto la linea -->
  <polygon fill="url(#fillGrad)" points="30.0,120.0,120 30.0,120.0 31.3,119.5 32.6,119.0 33.9,118.5 35.2,118.4 36.6,118.1 37.9,117.5 39.2,117.1 40.5,116.9 41.8,116.3 43.1,116.0 44.4,115.7 45.7,115.5 47.0,115.2 48.3,114.8 49.7,114.4 51.0,114.1 52.3,113.8 53.6,113.7 54.9,113.4 56.2,113.1 57.5,112.8 58.8,112.7 60.1,112.4 61.5,111.5 62.8,111.2 64.1,110.8 65.4,110.4 66.7,110.1 68.0,109.8 69.3,109.6 70.6,109.4 71.9,109.2 73.3,108.7 74.6,108.3 75.9,108.0 77.2,107.7 78.5,107.6 79.8,107.5 81.1,107.4 82.4,107.1 83.7,106.9 85.0,106.8 86.4,106.4 87.7,105.9 89.0,105.8 90.3,105.7 91.6,105.5 92.9,105.1 94.2,104.8 95.5,104.4 96.8,104.1 98.2,103.7 99.5,103.7 100.8,103.4 102.1,103.1 103.4,102.7 104.7,102.4 106.0,102.3 107.3,102.1 108.6,101.9 110.0,101.5 111.3,101.1 112.6,100.7 113.9,100.4 115.2,100.2 116.5,100.1 117.8,99.9 119.1,99.6 120.4,99.5 121.7,99.3 123.1,99.2 124.4,99.0 125.7,98.8 127.0,98.7 128.3,98.6 129.6,98.5 130.9,98.1 132.2,97.9 133.5,97.8 134.9,97.7 136.2,97.6 137.5,97.6 138.8,104.0 140.1,103.4 141.4,102.8 142.7,102.2 144.0,100.5 145.3,99.3 146.7,97.9 148.0,97.5 149.3,96.9 150.6,96.0 151.9,95.0 153.2,94.3 154.5,94.1 155.8,93.8 157.1,93.1 158.4,92.6 159.8,92.3 161.1,91.8 162.4,91.7 163.7,91.6 165.0,91.2 166.3,90.6 167.6,90.2 168.9,89.8 170.2,89.3 171.6,89.1 172.9,88.9 174.2,88.5 175.5,88.1 176.8,87.8 178.1,87.5 179.4,87.3 180.7,87.3 182.0,87.0 183.3,86.7 184.7,86.5 186.0,86.3 187.3,86.1 188.6,85.9 189.9,85.7 191.2,85.5 192.5,85.4 193.8,85.2 195.1,84.9 196.5,84.7 197.8,84.4 199.1,84.2 200.4,84.0 201.7,83.9 203.0,83.7 204.3,83.6 205.6,83.1 206.9,82.8 208.3,82.4 209.6,82.3 210.9,82.2 212.2,82.1 213.5,81.9 214.8,81.6 216.1,81.4 217.4,81.1 218.7,80.9 220.0,80.8 221.4,80.7 222.7,80.6 224.0,80.4 225.3,80.2 226.6,80.1 227.9,79.8 229.2,79.7 230.5,79.6 231.8,79.4 233.2,79.4 234.5,79.1 235.8,78.9 237.1,78.7 238.4,78.5 239.7,78.3 241.0,78.2 242.3,78.1 243.6,77.9 245.0,77.6 246.3,77.4 247.6,77.2 248.9,77.0 250.2,76.6 251.5,76.5 252.8,76.4 254.1,76.3 255.4,76.2 256.7,76.0 258.1,75.8 259.4,75.7 260.7,75.5 262.0,75.4 263.3,75.2 264.6,75.1 265.9,75.0 267.2,74.8 268.5,74.6 269.9,74.5 271.2,74.3 272.5,74.2 273.8,74.0 275.1,73.9 276.4,73.8 277.7,73.7 279.0,73.5 280.3,73.2 281.7,72.9 283.0,72.8 284.3,72.6 285.6,72.5 286.9,72.5 288.2,72.3 289.5,72.0 290.8,71.9 292.1,71.8 293.4,71.6 294.8,71.5 296.1,71.3 297.4,71.2 298.7,71.1 300.0,70.8 301.3,70.7 302.6,70.5 303.9,70.3 305.2,70.2 306.6,70.1 307.9,70.1 309.2,69.9 310.5,69.8 311.8,69.6 313.1,69.4 314.4,69.3 315.7,69.2 317.0,69.1 318.3,68.9 319.7,68.8 321.0,68.6 322.3,68.4 323.6,68.2 324.9,68.1 326.2,67.9 327.5,67.9 328.8,67.8 330.1,67.7 331.5,67.6 332.8,67.4 334.1,67.2 335.4,67.1 336.7,66.9 338.0,66.8 339.3,66.7 340.6,66.6 341.9,66.4 343.3,66.3 344.6,66.2 345.9,66.0 347.2,65.9 348.5,65.7 349.8,65.6 351.1,65.5 352.4,65.4 353.7,65.3 355.0,65.2 356.4,65.0 357.7,64.9 359.0,64.9 360.3,64.8 361.6,64.5 362.9,64.3 364.2,68.4 365.5,67.6 366.8,66.0 368.2,65.4 369.5,64.7 370.8,63.8 372.1,63.3 373.4,63.0 374.7,62.4 376.0,61.5 377.3,60.8 378.6,60.6 380.0,60.2 381.3,60.0 382.6,59.5 383.9,59.0 385.2,58.5 386.5,58.3 387.8,57.8 389.1,57.6 390.4,57.3 391.7,57.1 393.1,56.8 394.4,56.6 395.7,56.1 397.0,55.8 398.3,55.4 399.6,54.9 400.9,54.5 402.2,54.3 403.5,54.2 404.9,53.9 406.2,53.6 407.5,53.2 408.8,52.9 410.1,52.1 411.4,51.4 412.7,51.1 414.0,51.0 415.3,50.7 416.7,50.2 418.0,49.8 419.3,49.3 420.6,49.0 421.9,48.7 423.2,48.4 424.5,48.0 425.8,47.8 427.1,47.6 428.4,47.5 429.8,47.3 431.1,47.0 432.4,46.9 433.7,46.7 435.0,46.5 436.3,46.3 437.6,46.0 438.9,45.9 440.2,45.7 441.6,45.5 442.9,45.3 444.2,45.2 445.5,45.1 446.8,44.9 448.1,44.8 449.4,44.7 450.7,44.5 452.0,44.4 453.3,44.2 454.7,44.0 456.0,43.8 457.3,43.7 458.6,43.5 459.9,43.4 461.2,43.2 462.5,43.1 463.8,43.0 465.1,42.8 466.5,42.7 467.8,42.6 469.1,42.4 470.4,42.2 471.7,42.0 473.0,41.8 474.3,41.7 475.6,41.4 476.9,41.2 478.3,41.1 479.6,40.8 480.9,40.6 482.2,40.4 483.5,40.2 484.8,40.0 486.1,39.7 487.4,39.5 488.7,39.3 490.0,39.2 491.4,39.0 492.7,38.9 494.0,38.8 495.3,38.7 496.6,38.5 497.9,38.3 499.2,38.1 500.5,37.9 501.8,37.7 503.2,37.4 504.5,37.3 505.8,37.0 507.1,36.8 508.4,36.7 509.7,36.6 511.0,36.5 512.3,36.3 513.6,36.2 515.0,35.9 516.3,35.8 517.6,35.5 518.9,35.4 520.2,35.2 521.5,35.1 522.8,35.0 524.1,34.9 525.4,34.8 526.7,34.7 528.1,34.5 529.4,34.4 530.7,34.2 532.0,34.1 533.3,33.9 534.6,33.7 535.9,33.6 537.2,33.5 538.5,33.4 539.9,33.2 541.2,33.1 542.5,33.0 543.8,32.8 545.1,32.7 546.4,32.4 547.7,32.2 549.0,31.9 550.3,31.8 551.7,31.8 553.0,31.7 554.3,31.5 555.6,31.5 556.9,31.4 558.2,31.3 559.5,31.2 560.8,31.1 562.1,30.9 563.4,30.8 564.8,30.5 566.1,30.4 567.4,30.3 568.7,30.2 570.0,30.0 570.0,30.0,120" />
  
  <!-- Linea principale -->
  <polyline fill="none" stroke="#0366d6" stroke-width="2.5" stroke-linecap="round" stroke-linejoin="round" points="30.0,120.0 31.3,119.5 32.6,119.0 33.9,118.5 35.2,118.4 36.6,118.1 37.9,117.5 39.2,117.1 40.5,116.9 41.8,116.3 43.1,116.0 44.4,115.7 45.7,115.5 47.0,115.2 48.3,114.8 49.7,114.4 51.0,114.1 52.3,113.8 53.6,113.7 54.9,113.4 56.2,113.1 57.5,112.8 58.8,112.7 60.1,112.4 61.5,111.5 62.8,111.2 64.1,110.8 65.4,110.4 66.7,110.1 68.0,109.8 69.3,109.6 70.6,109.4 71.9,109.2 73.3,108.7 74.6,108.3 75.9,108.0 77.2,107.7 78.5,107.6 79.8,107.5 81.1,107.4 82.4,107.1 83.7,106.9 85.0,106.8 86.4,106.4 87.7,105.9 89.0,105.8 90.3,105.7 91.6,105.5 92.9,105.1 94.2,104.8 95.5,104.4 96.8,104.1 98.2,103.7 99.5,103.7 100.8,103.4 102.1,103.1 103.4,102.7 104.7,102.4 106.0,102.3 107.3,102.1 108.6,101.9 110.0,101.5 111.3,101.1 112.6,100.7 113.9,100.4 115.2,100.2 116.5,100.1 117.8,99.9 119.1,99.6 120.4,99.5 121.7,99.3 123.1,99.2 124.4,99.0 125.7,98.8 127.0,98.7 128.3,98.6 129.6,98.5 130.9,98.1 132.2,97.9 133.5,97.8 134.9,97.7 136.2,97.6 137.5,97.6 138.8,104.0 140.1,103.4 141.4,102.8 142.7,102.2 144.0,100.5 145.3,99.3 146.7,97.9 148.0,97.5 149.3,96.9 150.6,96.0 151.9,95.0 153.2,94.3 154.5,94.1 155.8,93.8 157.1,93.1 158.4,92.6 159.8,92.3 161.1,91.8 162.4,91.7 163.7,91.6 165.0,91.2 166.3,90.6 167.6,90.2 168.9,89.8 170.2,89.3 171.6,89.1 172.9,88.9 174.2,88.5 175.5,88.1 176.8,87.8 178.1,87.5 179.4,87.3 180.7,87.3 182.0,87.0 183.3,86.7 184.7,86.5 186.0,86.3 187.3,86.1 188.6,85.9 189.9,85.7 191.2,85.5 192.5,85.4 193.8,85.2 195.1,84.9 196.5,84.7 197.8,84.4 199.1,84.2 200.4,84.0 201.7,83.9 203.0,83.7 204.3,83.6 205.6,83.1 206.9,82.8 208.3,82.4 209.6,82.3 210.9,82.2 212.2,82.1 213.5,81.9 214.8,81.6 216.1,81.4 217.4,81.1 218.7,80.9 220.0,80.8 221.4,80.7 222.7,80.6 224.0,80.4 225.3,80.2 226.6,80.1 227.9,79.8 229.2,79.7 230.5,79.6 231.8,79.4 233.2,79.4 234.5,79.1 235.8,78.9 237.1,78.7 238.4,78.5 239.7,78.3 241.0,78.2 242.3,78.1 243.6,77.9 245.0,77.6 246.3,77.4 247.6,77.2 248.9,77.0 250.2,76.6 251.5,76.5 252.8,76.4 254.1,76.3 255.4,76.2 256.7,76.0 258.1,75.8 259.4,75.7 260.7,75.5 262.0,75.4 263.3,75.2 264.6,75.1 265.9,75.0 267.2,74.8 268.5,74.6 269.9,74.5 271.2,74.3 272.5,74.2 273.8,74.0 275.1,73.9 276.4,73.8 277.7,73.7 279.0,73.5 280.3,73.2 281.7,72.9 283.0,72.8 284.3,72.6 285.6,72.5 286.9,72.5 288.2,72.3 289.5,72.0 290.8,71.9 292.1,71.8 293.4,71.6 294.8,71.5 296.1,71.3 297.4,71.2 298.7,71.1 300.0,70.8 301.3,70.7 302.6,70.5 303.9,70.3 305.2,70.2 306.6,70.1 307.9,70.1 309.2,69.9 310.5,69.8 311.8,69.6 313.1,69.4 314.4,69.3 315.7,69.2 317.0,69.1 318.3,68.9 319.7,68.8 321.0,68.6 322.3,68.4 323.6,68.2 324.9,68.1 326.2,67.9 327.5,67.9 328.8,67.8 330.1,67.7 331.5,67.6 332.8,67.4 334.1,67.2 335.4,67.1 336.7,66.9 338.0,66.8 339.3,66.7 340.6,66.6 341.9,66.4 343.3,66.3 344.6,66.2 345.9,66.0 347.2,65.9 348.5,65.7 349.8,65.6 351.1,65.5 352.4,65.4 353.7,65.3 355.0,65.2 356.4,65.0 357.7,64.9 359.0,64.9 360.3,64.8 361.6,64.5 362.9,64.3 364.2,68.4 365.5,67.6 366.8,66.0 368.2,65.4 369.5,64.7 370.8,63.8 372.1,63.3 373.4,63.0 374.7,62.4 376.0,61.5 377.3,60.8 378.6,60.6 380.0,60.2 381.3,60.0 382.6,59.5 383.9,59.0 385.2,58.5 386.5,58.3 387.8,57.8 389.1,57.6 390.4,57.3 391.7,57.1 393.1,56.8 394.4,56.6 395.7,56.1 397.0,55.8 398.3,55.4 399.6,54.9 400.9,54.5 402.2,54.3 403.5,54.2 404.9,53.9 406.2,53.6 407.5,53.2 408.8,52.9 410.1,52.1 411.4,51.4 412.7,51.1 414.0,51.0 415.3,50.7 416.7,50.2 418.0,49.8 419.3,49.3 420.6,49.0 421.9,48.7 423.2,48.4 424.5,48.0 425.8,47.8 427.1,47.6 428.4,47.5 429.8,47.3 431.1,47.0 432.4,46.9 433.7,46.7 435.0,46.5 436.3,46.3 437.6,46.0 438.9,45.9 440.2,45.7 441.6,45.5 442.9,45.3 444.2,45.2 445.5,45.1 446.8,44.9 448.1,44.8 449.4,44.7 450.7,44.5 452.0,44.4 453.3,44.2 454.7,44.0 456.0,43.8 457.3,43.7 458.6,43.5 459.9,43.4 461.2,43.2 462.5,43.1 463.8,43.0 465.1,42.8 466.5,42.7 467.8,42.6 469.1,42.4 470.4,42.2 471.7,42.0 473.0,41.8 474.3,41.7 475.6,41.4 476.9,41.2 478.3,41.1 479.6,40.8 480.9,40.6 482.2,40.4 483.5,40.2 484.8,40.0 486.1,39.7 487.4,39.5 488.7,39.3 490.0,39.2 491.4,39.0 492.7,38.9 494.0,38.8 495.3,38.7 496.6,38.5 497.9,38.3 499.2,38.1 500.5,37.9 501.8,37.7 503.2,37.4 504.5,37.3 505.8,37.0 507.1,36.8 508.4,36.7 509.7,36.6 511.0,36.5 512.3,36.3 513.6,36.2 515.0,35.9 516.3,35.8 517.6,35.5 518.9,35.4 520.2,35.2 521.5,35.1 522.8,35.0 524.1,34.9 525.4,34.8 526.7,34.7 528.1,34.5 529.4,34.4 530.7,34.2 532.0,34.1 533.3,33.9 534.6,33.7 535.9,33.6 537.2,33.5 538.5,33.4 539.9,33.2 541.2,33.1 542.5,33.0 543.8,32.8 545.1,32.7 546.4,32.4 547.7,32.2 549.0,31.9 550.3,31.8 551.7,31.8 553.0,31.7 554.3,31.5 555.6,31.5 556.9,31.4 558.2,31.3 559.5,31.2 560.8,31.1 562.1,30.9 563.4,30.8 564.8,30.5 566.1,30.4 567.4,30.3 568.7,30.2 570.0,30.0" />
  
  <!-- Punto finale luminoso -->
  <circle cx="570.0" cy="30.0" r="4" fill="#ffffff" stroke="#0366d6" stroke-width="2.5" />
</svg>