<svg width="600" height="150" viewBox="0 0 600 150" xmlns="http://www.w3.org/2000/svg">
  <defs>
    <filter id="shadow2" x="-2%" y="-2%" width="104%" height="108%">
      <feDropShadow dx="0" dy="2" stdDeviation="3" flood-opacity="0.1" />
    </filter>
    <linearGradient id="fillGrad" x1="0" y1="0" x2="0" y2="1">
      <stop offset="0%" stop-color="#0366d6" stop-opacity="0.3"/>
      <stop offset="100%" stop-color="#0366d6" stop-opacity="0.02"/>
    </linearGradient>
  </defs>
  <rect width="600" height="150" rx="12" fill="#ffffff" filter="url(#shadow2)" stroke="#e1e4e8" stroke-width="1"/>
  <text x="20" y="24" fill="#2b3137" font-family="-apple-system,BlinkMacSystemFont,'Segoe UI',Helvetica,Arial,sans-serif" font-size="14" font-weight="600">📈 Download Growth (Actual: 84.4k)</text>
  
  <!-- Area sotto la linea -->
  <polygon fill="url(#fillGrad)" points="30.0,120.0,120 30.0,120.0 31.6,119.4 33.2,118.8 34.8,118.3 36.4,118.1 37.9,117.8 39.5,117.2 41.1,116.7 42.7,116.4 44.3,115.7 45.9,115.4 47.5,115.0 49.1,114.8 50.6,114.5 52.2,114.1 53.8,113.6 55.4,113.2 57.0,112.9 58.6,112.7 60.2,112.4 61.8,112.1 63.4,111.8 64.9,111.6 66.5,111.3 68.1,110.2 69.7,109.9 71.3,109.5 72.9,109.0 74.5,108.7 76.1,108.3 77.6,108.1 79.2,107.9 80.8,107.6 82.4,107.1 84.0,106.6 85.6,106.3 87.2,105.9 88.8,105.8 90.4,105.7 91.9,105.6 93.5,105.2 95.1,105.0 96.7,104.8 98.3,104.5 99.9,103.9 101.5,103.7 103.1,103.6 104.6,103.4 106.2,102.9 107.8,102.6 109.4,102.1 111.0,101.8 112.6,101.4 114.2,101.3 115.8,101.0 117.4,100.6 118.9,100.2 120.5,99.8 122.1,99.7 123.7,99.5 125.3,99.3 126.9,98.8 128.5,98.3 130.1,97.9 131.6,97.5 133.2,97.3 134.8,97.2 136.4,97.0 138.0,96.7 139.6,96.5 141.2,96.3 142.8,96.1 144.4,96.0 145.9,95.7 147.5,95.6 149.1,95.5 150.7,95.4 152.3,94.9 153.9,94.7 155.5,94.6 157.1,94.4 158.6,94.3 160.2,94.3 161.8,101.7 163.4,101.0 165.0,100.3 166.6,99.6 168.2,97.6 169.8,96.2 171.4,94.7 172.9,94.2 174.5,93.5 176.1,92.5 177.7,91.4 179.3,90.6 180.9,90.3 182.5,90.0 184.1,89.2 185.6,88.6 187.2,88.2 188.8,87.7 190.4,87.5 192.0,87.5 193.6,87.0 195.2,86.4 196.8,85.9 198.4,85.4 199.9,84.8 201.5,84.6 203.1,84.4 204.7,83.9 206.3,83.5 207.9,83.1 209.5,82.7 211.1,82.6 212.6,82.5 214.2,82.2 215.8,81.9 217.4,81.6 219.0,81.3 220.6,81.1 222.2,80.9 223.8,80.7 225.4,80.5 226.9,80.4 228.5,80.2 230.1,79.8 231.7,79.5 233.3,79.2 234.9,79.0 236.5,78.8 238.1,78.6 239.6,78.5 241.2,78.3 242.8,77.7 244.4,77.4 246.0,76.9 247.6,76.8 249.2,76.7 250.8,76.5 252.4,76.3 253.9,76.0 255.5,75.8 257.1,75.4 258.7,75.2 260.3,75.1 261.9,74.9 263.5,74.8 265.1,74.7 266.6,74.4 268.2,74.3 269.8,73.9 271.4,73.8 273.0,73.7 274.6,73.5 276.2,73.4 277.8,73.2 279.4,72.9 280.9,72.7 282.5,72.5 284.1,72.2 285.7,72.1 287.3,72.0 288.9,71.8 290.5,71.5 292.1,71.2 293.6,70.9 295.2,70.7 296.8,70.3 298.4,70.2 300.0,70.1 301.6,70.0 303.2,69.8 304.8,69.6 306.4,69.4 307.9,69.2 309.5,69.0 311.1,68.9 312.7,68.7 314.3,68.6 315.9,68.5 317.5,68.3 319.1,68.0 320.6,67.8 322.2,67.6 323.8,67.5 325.4,67.4 327.0,67.2 328.6,67.1 330.2,66.9 331.8,66.7 333.4,66.4 334.9,66.1 336.5,65.9 338.1,65.7 339.7,65.6 341.3,65.5 342.9,65.3 344.5,65.0 346.1,64.9 347.6,64.8 349.2,64.6 350.8,64.4 352.4,64.2 354.0,64.1 355.6,63.9 357.2,63.7 358.8,63.5 360.4,63.2 361.9,63.0 363.5,62.9 365.1,62.9 366.7,62.8 368.3,62.6 369.9,62.4 371.5,62.3 373.1,62.1 374.6,61.9 376.2,61.8 377.8,61.6 379.4,61.5 381.0,61.3 382.6,61.1 384.2,60.9 385.8,60.7 387.4,60.5 388.9,60.4 390.5,60.3 392.1,60.2 393.7,60.0 395.3,59.9 396.9,59.8 398.5,59.5 400.1,59.4 401.6,59.2 403.2,59.1 404.8,58.9 406.4,58.8 408.0,58.6 409.6,58.4 411.2,58.3 412.8,58.2 414.4,58.0 415.9,57.8 417.5,57.6 419.1,57.5 420.7,57.4 422.3,57.3 423.9,57.2 425.5,57.0 427.1,56.9 428.6,56.9 430.2,56.7 431.8,56.4 433.4,56.1 435.0,60.9 436.6,60.0 438.2,58.2 439.8,57.5 441.4,56.6 442.9,55.6 444.5,55.0 446.1,54.7 447.7,54.0 449.3,52.9 450.9,52.2 452.5,51.9 454.1,51.5 455.6,51.2 457.2,50.7 458.8,50.2 460.4,49.6 462.0,49.3 463.6,48.8 465.2,48.5 466.8,48.1 468.4,47.9 469.9,47.6 471.5,47.4 473.1,46.8 474.7,46.5 476.3,46.0 477.9,45.4 479.5,45.0 481.1,44.8 482.6,44.6 484.2,44.3 485.8,43.9 487.4,43.5 489.0,43.2 490.6,42.2 492.2,41.4 493.8,41.1 495.4,40.9 496.9,40.6 498.5,40.1 500.1,39.6 501.7,39.0 503.3,38.7 504.9,38.3 506.5,38.0 508.1,37.5 509.6,37.3 511.2,37.1 512.8,36.9 514.4,36.7 516.0,36.4 517.6,36.2 519.2,36.0 520.8,35.8 522.4,35.6 523.9,35.3 525.5,35.1 527.1,34.9 528.7,34.7 530.3,34.5 531.9,34.3 533.5,34.2 535.1,34.0 536.6,33.8 538.2,33.7 539.8,33.5 541.4,33.3 543.0,33.1 544.6,32.9 546.2,32.7 547.8,32.5 549.4,32.3 550.9,32.2 552.5,32.1 554.1,31.9 555.7,31.7 557.3,31.6 558.9,31.5 560.5,31.3 562.1,31.1 563.6,30.9 565.2,30.6 566.8,30.4 568.4,30.2 570.0,30.0 570.0,30.0,120" />
  
  <!-- Linea principale -->
  <polyline fill="none" stroke="#0366d6" stroke-width="2.5" stroke-linecap="round" stroke-linejoin="round" points="30.0,120.0 31.6,119.4 33.2,118.8 34.8,118.3 36.4,118.1 37.9,117.8 39.5,117.2 41.1,116.7 42.7,116.4 44.3,115.7 45.9,115.4 47.5,115.0 49.1,114.8 50.6,114.5 52.2,114.1 53.8,113.6 55.4,113.2 57.0,112.9 58.6,112.7 60.2,112.4 61.8,112.1 63.4,111.8 64.9,111.6 66.5,111.3 68.1,110.2 69.7,109.9 71.3,109.5 72.9,109.0 74.5,108.7 76.1,108.3 77.6,108.1 79.2,107.9 80.8,107.6 82.4,107.1 84.0,106.6 85.6,106.3 87.2,105.9 88.8,105.8 90.4,105.7 91.9,105.6 93.5,105.2 95.1,105.0 96.7,104.8 98.3,104.5 99.9,103.9 101.5,103.7 103.1,103.6 104.6,103.4 106.2,102.9 107.8,102.6 109.4,102.1 111.0,101.8 112.6,101.4 114.2,101.3 115.8,101.0 117.4,100.6 118.9,100.2 120.5,99.8 122.1,99.7 123.7,99.5 125.3,99.3 126.9,98.8 128.5,98.3 130.1,97.9 131.6,97.5 133.2,97.3 134.8,97.2 136.4,97.0 138.0,96.7 139.6,96.5 141.2,96.3 142.8,96.1 144.4,96.0 145.9,95.7 147.5,95.6 149.1,95.5 150.7,95.4 152.3,94.9 153.9,94.7 155.5,94.6 157.1,94.4 158.6,94.3 160.2,94.3 161.8,101.7 163.4,101.0 165.0,100.3 166.6,99.6 168.2,97.6 169.8,96.2 171.4,94.7 172.9,94.2 174.5,93.5 176.1,92.5 177.7,91.4 179.3,90.6 180.9,90.3 182.5,90.0 184.1,89.2 185.6,88.6 187.2,88.2 188.8,87.7 190.4,87.5 192.0,87.5 193.6,87.0 195.2,86.4 196.8,85.9 198.4,85.4 199.9,84.8 201.5,84.6 203.1,84.4 204.7,83.9 206.3,83.5 207.9,83.1 209.5,82.7 211.1,82.6 212.6,82.5 214.2,82.2 215.8,81.9 217.4,81.6 219.0,81.3 220.6,81.1 222.2,80.9 223.8,80.7 225.4,80.5 226.9,80.4 228.5,80.2 230.1,79.8 231.7,79.5 233.3,79.2 234.9,79.0 236.5,78.8 238.1,78.6 239.6,78.5 241.2,78.3 242.8,77.7 244.4,77.4 246.0,76.9 247.6,76.8 249.2,76.7 250.8,76.5 252.4,76.3 253.9,76.0 255.5,75.8 257.1,75.4 258.7,75.2 260.3,75.1 261.9,74.9 263.5,74.8 265.1,74.7 266.6,74.4 268.2,74.3 269.8,73.9 271.4,73.8 273.0,73.7 274.6,73.5 276.2,73.4 277.8,73.2 279.4,72.9 280.9,72.7 282.5,72.5 284.1,72.2 285.7,72.1 287.3,72.0 288.9,71.8 290.5,71.5 292.1,71.2 293.6,70.9 295.2,70.7 296.8,70.3 298.4,70.2 300.0,70.1 301.6,70.0 303.2,69.8 304.8,69.6 306.4,69.4 307.9,69.2 309.5,69.0 311.1,68.9 312.7,68.7 314.3,68.6 315.9,68.5 317.5,68.3 319.1,68.0 320.6,67.8 322.2,67.6 323.8,67.5 325.4,67.4 327.0,67.2 328.6,67.1 330.2,66.9 331.8,66.7 333.4,66.4 334.9,66.1 336.5,65.9 338.1,65.7 339.7,65.6 341.3,65.5 342.9,65.3 344.5,65.0 346.1,64.9 347.6,64.8 349.2,64.6 350.8,64.4 352.4,64.2 354.0,64.1 355.6,63.9 357.2,63.7 358.8,63.5 360.4,63.2 361.9,63.0 363.5,62.9 365.1,62.9 366.7,62.8 368.3,62.6 369.9,62.4 371.5,62.3 373.1,62.1 374.6,61.9 376.2,61.8 377.8,61.6 379.4,61.5 381.0,61.3 382.6,61.1 384.2,60.9 385.8,60.7 387.4,60.5 388.9,60.4 390.5,60.3 392.1,60.2 393.7,60.0 395.3,59.9 396.9,59.8 398.5,59.5 400.1,59.4 401.6,59.2 403.2,59.1 404.8,58.9 406.4,58.8 408.0,58.6 409.6,58.4 411.2,58.3 412.8,58.2 414.4,58.0 415.9,57.8 417.5,57.6 419.1,57.5 420.7,57.4 422.3,57.3 423.9,57.2 425.5,57.0 427.1,56.9 428.6,56.9 430.2,56.7 431.8,56.4 433.4,56.1 435.0,60.9 436.6,60.0 438.2,58.2 439.8,57.5 441.4,56.6 442.9,55.6 444.5,55.0 446.1,54.7 447.7,54.0 449.3,52.9 450.9,52.2 452.5,51.9 454.1,51.5 455.6,51.2 457.2,50.7 458.8,50.2 460.4,49.6 462.0,49.3 463.6,48.8 465.2,48.5 466.8,48.1 468.4,47.9 469.9,47.6 471.5,47.4 473.1,46.8 474.7,46.5 476.3,46.0 477.9,45.4 479.5,45.0 481.1,44.8 482.6,44.6 484.2,44.3 485.8,43.9 487.4,43.5 489.0,43.2 490.6,42.2 492.2,41.4 493.8,41.1 495.4,40.9 496.9,40.6 498.5,40.1 500.1,39.6 501.7,39.0 503.3,38.7 504.9,38.3 506.5,38.0 508.1,37.5 509.6,37.3 511.2,37.1 512.8,36.9 514.4,36.7 516.0,36.4 517.6,36.2 519.2,36.0 520.8,35.8 522.4,35.6 523.9,35.3 525.5,35.1 527.1,34.9 528.7,34.7 530.3,34.5 531.9,34.3 533.5,34.2 535.1,34.0 536.6,33.8 538.2,33.7 539.8,33.5 541.4,33.3 543.0,33.1 544.6,32.9 546.2,32.7 547.8,32.5 549.4,32.3 550.9,32.2 552.5,32.1 554.1,31.9 555.7,31.7 557.3,31.6 558.9,31.5 560.5,31.3 562.1,31.1 563.6,30.9 565.2,30.6 566.8,30.4 568.4,30.2 570.0,30.0" />
  
  <!-- Punto finale luminoso -->
  <circle cx="570.0" cy="30.0" r="4" fill="#ffffff" stroke="#0366d6" stroke-width="2.5" />
</svg>