<svg width="600" height="150" viewBox="0 0 600 150" xmlns="http://www.w3.org/2000/svg">
  <defs>
    <filter id="shadow2" x="-2%" y="-2%" width="104%" height="108%">
      <feDropShadow dx="0" dy="2" stdDeviation="3" flood-opacity="0.1" />
    </filter>
    <linearGradient id="fillGrad" x1="0" y1="0" x2="0" y2="1">
      <stop offset="0%" stop-color="#0366d6" stop-opacity="0.3"/>
      <stop offset="100%" stop-color="#0366d6" stop-opacity="0.02"/>
    </linearGradient>
  </defs>
  <rect width="600" height="150" rx="12" fill="#ffffff" filter="url(#shadow2)" stroke="#e1e4e8" stroke-width="1"/>
  <text x="20" y="24" fill="#2b3137" font-family="-apple-system,BlinkMacSystemFont,'Segoe UI',Helvetica,Arial,sans-serif" font-size="14" font-weight="600">📈 Download Growth (Actual: 85.3k)</text>
  
  <!-- Area sotto la linea -->
  <polygon fill="url(#fillGrad)" points="30.0,120.0,120 30.0,120.0 31.5,119.5 33.0,118.9 34.5,118.3 36.0,118.2 37.5,117.9 39.0,117.3 40.4,116.9 41.9,116.6 43.4,115.9 44.9,115.6 46.4,115.3 47.9,115.1 49.4,114.8 50.9,114.4 52.4,113.9 53.9,113.5 55.4,113.3 56.9,113.1 58.3,112.8 59.8,112.5 61.3,112.2 62.8,112.0 64.3,111.7 65.8,110.7 67.3,110.4 68.8,110.0 70.3,109.6 71.8,109.2 73.3,108.9 74.8,108.7 76.2,108.5 77.7,108.2 79.2,107.7 80.7,107.3 82.2,107.0 83.7,106.6 85.2,106.5 86.7,106.5 88.2,106.3 89.7,105.9 91.2,105.8 92.7,105.6 94.1,105.2 95.6,104.7 97.1,104.5 98.6,104.4 100.1,104.2 101.6,103.8 103.1,103.5 104.6,103.0 106.1,102.7 107.6,102.3 109.1,102.2 110.6,102.0 112.0,101.6 113.5,101.2 115.0,100.8 116.5,100.7 118.0,100.5 119.5,100.3 121.0,99.8 122.5,99.4 124.0,99.0 125.5,98.7 127.0,98.5 128.5,98.3 129.9,98.2 131.4,97.9 132.9,97.7 134.4,97.5 135.9,97.3 137.4,97.2 138.9,97.0 140.4,96.8 141.9,96.7 143.4,96.6 144.9,96.2 146.4,95.9 147.8,95.9 149.3,95.7 150.8,95.6 152.3,95.6 153.8,102.6 155.3,101.9 156.8,101.3 158.3,100.7 159.8,98.8 161.3,97.4 162.8,96.0 164.3,95.5 165.7,94.9 167.2,93.9 168.7,92.8 170.2,92.1 171.7,91.8 173.2,91.5 174.7,90.7 176.2,90.2 177.7,89.8 179.2,89.4 180.7,89.2 182.2,89.1 183.6,88.7 185.1,88.1 186.6,87.6 188.1,87.1 189.6,86.6 191.1,86.3 192.6,86.2 194.1,85.7 195.6,85.3 197.1,84.9 198.6,84.6 200.1,84.5 201.5,84.4 203.0,84.1 204.5,83.8 206.0,83.5 207.5,83.3 209.0,83.1 210.5,82.9 212.0,82.7 213.5,82.5 215.0,82.4 216.5,82.2 218.0,81.8 219.4,81.5 220.9,81.2 222.4,81.1 223.9,80.8 225.4,80.7 226.9,80.6 228.4,80.4 229.9,79.9 231.4,79.5 232.9,79.1 234.4,79.0 235.9,78.9 237.3,78.7 238.8,78.5 240.3,78.2 241.8,78.0 243.3,77.7 244.8,77.5 246.3,77.4 247.8,77.2 249.3,77.1 250.8,76.9 252.3,76.7 253.8,76.6 255.2,76.3 256.7,76.1 258.2,76.0 259.7,75.9 261.2,75.8 262.7,75.5 264.2,75.3 265.7,75.1 267.2,74.9 268.7,74.6 270.2,74.5 271.7,74.4 273.1,74.2 274.6,73.9 276.1,73.6 277.6,73.4 279.1,73.2 280.6,72.8 282.1,72.7 283.6,72.6 285.1,72.5 286.6,72.3 288.1,72.1 289.6,71.9 291.0,71.8 292.5,71.6 294.0,71.5 295.5,71.3 297.0,71.2 298.5,71.1 300.0,70.9 301.5,70.6 303.0,70.5 304.5,70.3 306.0,70.1 307.5,70.0 309.0,69.8 310.4,69.7 311.9,69.6 313.4,69.4 314.9,69.1 316.4,68.8 317.9,68.6 319.4,68.4 320.9,68.4 322.4,68.3 323.9,68.1 325.4,67.8 326.9,67.7 328.3,67.6 329.8,67.4 331.3,67.2 332.8,67.0 334.3,66.9 335.8,66.8 337.3,66.5 338.8,66.4 340.3,66.1 341.8,65.9 343.3,65.8 344.8,65.7 346.2,65.7 347.7,65.5 349.2,65.4 350.7,65.2 352.2,65.0 353.7,64.8 355.2,64.7 356.7,64.6 358.2,64.4 359.7,64.3 361.2,64.1 362.7,63.8 364.1,63.7 365.6,63.5 367.1,63.4 368.6,63.3 370.1,63.2 371.6,63.1 373.1,63.0 374.6,62.8 376.1,62.6 377.6,62.4 379.1,62.3 380.6,62.2 382.0,62.0 383.5,61.9 385.0,61.7 386.5,61.6 388.0,61.4 389.5,61.3 391.0,61.1 392.5,60.9 394.0,60.8 395.5,60.7 397.0,60.6 398.5,60.5 399.9,60.4 401.4,60.2 402.9,60.1 404.4,60.0 405.9,59.9 407.4,59.6 408.9,59.4 410.4,63.9 411.9,63.0 413.4,61.3 414.9,60.6 416.4,59.8 417.8,58.9 419.3,58.3 420.8,58.0 422.3,57.3 423.8,56.3 425.3,55.6 426.8,55.4 428.3,55.0 429.8,54.7 431.3,54.2 432.8,53.7 434.3,53.1 435.7,52.9 437.2,52.4 438.7,52.1 440.2,51.8 441.7,51.5 443.2,51.3 444.7,51.0 446.2,50.5 447.7,50.2 449.2,49.8 450.7,49.1 452.2,48.8 453.6,48.6 455.1,48.4 456.6,48.1 458.1,47.7 459.6,47.4 461.1,47.1 462.6,46.1 464.1,45.4 465.6,45.1 467.1,44.9 468.6,44.6 470.1,44.1 471.5,43.7 473.0,43.1 474.5,42.8 476.0,42.4 477.5,42.1 479.0,41.7 480.5,41.5 482.0,41.3 483.5,41.1 485.0,40.9 486.5,40.6 488.0,40.5 489.4,40.2 490.9,40.0 492.4,39.9 493.9,39.6 495.4,39.4 496.9,39.2 498.4,39.0 499.9,38.8 501.4,38.6 502.9,38.5 504.4,38.3 505.9,38.2 507.3,38.1 508.8,37.9 510.3,37.7 511.8,37.5 513.3,37.3 514.8,37.1 516.3,37.0 517.8,36.7 519.3,36.6 520.8,36.5 522.3,36.3 523.8,36.2 525.2,36.0 526.7,35.9 528.2,35.8 529.7,35.6 531.2,35.4 532.7,35.2 534.2,34.9 535.7,34.8 537.2,34.5 538.7,34.3 540.2,34.1 541.7,33.9 543.1,33.7 544.6,33.4 546.1,33.2 547.6,33.0 549.1,32.7 550.6,32.5 552.1,32.2 553.6,32.1 555.1,31.9 556.6,31.8 558.1,31.7 559.6,31.5 561.0,31.3 562.5,31.2 564.0,30.9 565.5,30.7 567.0,30.5 568.5,30.2 570.0,30.0 570.0,30.0,120" />
  
  <!-- Linea principale -->
  <polyline fill="none" stroke="#0366d6" stroke-width="2.5" stroke-linecap="round" stroke-linejoin="round" points="30.0,120.0 31.5,119.5 33.0,118.9 34.5,118.3 36.0,118.2 37.5,117.9 39.0,117.3 40.4,116.9 41.9,116.6 43.4,115.9 44.9,115.6 46.4,115.3 47.9,115.1 49.4,114.8 50.9,114.4 52.4,113.9 53.9,113.5 55.4,113.3 56.9,113.1 58.3,112.8 59.8,112.5 61.3,112.2 62.8,112.0 64.3,111.7 65.8,110.7 67.3,110.4 68.8,110.0 70.3,109.6 71.8,109.2 73.3,108.9 74.8,108.7 76.2,108.5 77.7,108.2 79.2,107.7 80.7,107.3 82.2,107.0 83.7,106.6 85.2,106.5 86.7,106.5 88.2,106.3 89.7,105.9 91.2,105.8 92.7,105.6 94.1,105.2 95.6,104.7 97.1,104.5 98.6,104.4 100.1,104.2 101.6,103.8 103.1,103.5 104.6,103.0 106.1,102.7 107.6,102.3 109.1,102.2 110.6,102.0 112.0,101.6 113.5,101.2 115.0,100.8 116.5,100.7 118.0,100.5 119.5,100.3 121.0,99.8 122.5,99.4 124.0,99.0 125.5,98.7 127.0,98.5 128.5,98.3 129.9,98.2 131.4,97.9 132.9,97.7 134.4,97.5 135.9,97.3 137.4,97.2 138.9,97.0 140.4,96.8 141.9,96.7 143.4,96.6 144.9,96.2 146.4,95.9 147.8,95.9 149.3,95.7 150.8,95.6 152.3,95.6 153.8,102.6 155.3,101.9 156.8,101.3 158.3,100.7 159.8,98.8 161.3,97.4 162.8,96.0 164.3,95.5 165.7,94.9 167.2,93.9 168.7,92.8 170.2,92.1 171.7,91.8 173.2,91.5 174.7,90.7 176.2,90.2 177.7,89.8 179.2,89.4 180.7,89.2 182.2,89.1 183.6,88.7 185.1,88.1 186.6,87.6 188.1,87.1 189.6,86.6 191.1,86.3 192.6,86.2 194.1,85.7 195.6,85.3 197.1,84.9 198.6,84.6 200.1,84.5 201.5,84.4 203.0,84.1 204.5,83.8 206.0,83.5 207.5,83.3 209.0,83.1 210.5,82.9 212.0,82.7 213.5,82.5 215.0,82.4 216.5,82.2 218.0,81.8 219.4,81.5 220.9,81.2 222.4,81.1 223.9,80.8 225.4,80.7 226.9,80.6 228.4,80.4 229.9,79.9 231.4,79.5 232.9,79.1 234.4,79.0 235.9,78.9 237.3,78.7 238.8,78.5 240.3,78.2 241.8,78.0 243.3,77.7 244.8,77.5 246.3,77.4 247.8,77.2 249.3,77.1 250.8,76.9 252.3,76.7 253.8,76.6 255.2,76.3 256.7,76.1 258.2,76.0 259.7,75.9 261.2,75.8 262.7,75.5 264.2,75.3 265.7,75.1 267.2,74.9 268.7,74.6 270.2,74.5 271.7,74.4 273.1,74.2 274.6,73.9 276.1,73.6 277.6,73.4 279.1,73.2 280.6,72.8 282.1,72.7 283.6,72.6 285.1,72.5 286.6,72.3 288.1,72.1 289.6,71.9 291.0,71.8 292.5,71.6 294.0,71.5 295.5,71.3 297.0,71.2 298.5,71.1 300.0,70.9 301.5,70.6 303.0,70.5 304.5,70.3 306.0,70.1 307.5,70.0 309.0,69.8 310.4,69.7 311.9,69.6 313.4,69.4 314.9,69.1 316.4,68.8 317.9,68.6 319.4,68.4 320.9,68.4 322.4,68.3 323.9,68.1 325.4,67.8 326.9,67.7 328.3,67.6 329.8,67.4 331.3,67.2 332.8,67.0 334.3,66.9 335.8,66.8 337.3,66.5 338.8,66.4 340.3,66.1 341.8,65.9 343.3,65.8 344.8,65.7 346.2,65.7 347.7,65.5 349.2,65.4 350.7,65.2 352.2,65.0 353.7,64.8 355.2,64.7 356.7,64.6 358.2,64.4 359.7,64.3 361.2,64.1 362.7,63.8 364.1,63.7 365.6,63.5 367.1,63.4 368.6,63.3 370.1,63.2 371.6,63.1 373.1,63.0 374.6,62.8 376.1,62.6 377.6,62.4 379.1,62.3 380.6,62.2 382.0,62.0 383.5,61.9 385.0,61.7 386.5,61.6 388.0,61.4 389.5,61.3 391.0,61.1 392.5,60.9 394.0,60.8 395.5,60.7 397.0,60.6 398.5,60.5 399.9,60.4 401.4,60.2 402.9,60.1 404.4,60.0 405.9,59.9 407.4,59.6 408.9,59.4 410.4,63.9 411.9,63.0 413.4,61.3 414.9,60.6 416.4,59.8 417.8,58.9 419.3,58.3 420.8,58.0 422.3,57.3 423.8,56.3 425.3,55.6 426.8,55.4 428.3,55.0 429.8,54.7 431.3,54.2 432.8,53.7 434.3,53.1 435.7,52.9 437.2,52.4 438.7,52.1 440.2,51.8 441.7,51.5 443.2,51.3 444.7,51.0 446.2,50.5 447.7,50.2 449.2,49.8 450.7,49.1 452.2,48.8 453.6,48.6 455.1,48.4 456.6,48.1 458.1,47.7 459.6,47.4 461.1,47.1 462.6,46.1 464.1,45.4 465.6,45.1 467.1,44.9 468.6,44.6 470.1,44.1 471.5,43.7 473.0,43.1 474.5,42.8 476.0,42.4 477.5,42.1 479.0,41.7 480.5,41.5 482.0,41.3 483.5,41.1 485.0,40.9 486.5,40.6 488.0,40.5 489.4,40.2 490.9,40.0 492.4,39.9 493.9,39.6 495.4,39.4 496.9,39.2 498.4,39.0 499.9,38.8 501.4,38.6 502.9,38.5 504.4,38.3 505.9,38.2 507.3,38.1 508.8,37.9 510.3,37.7 511.8,37.5 513.3,37.3 514.8,37.1 516.3,37.0 517.8,36.7 519.3,36.6 520.8,36.5 522.3,36.3 523.8,36.2 525.2,36.0 526.7,35.9 528.2,35.8 529.7,35.6 531.2,35.4 532.7,35.2 534.2,34.9 535.7,34.8 537.2,34.5 538.7,34.3 540.2,34.1 541.7,33.9 543.1,33.7 544.6,33.4 546.1,33.2 547.6,33.0 549.1,32.7 550.6,32.5 552.1,32.2 553.6,32.1 555.1,31.9 556.6,31.8 558.1,31.7 559.6,31.5 561.0,31.3 562.5,31.2 564.0,30.9 565.5,30.7 567.0,30.5 568.5,30.2 570.0,30.0" />
  
  <!-- Punto finale luminoso -->
  <circle cx="570.0" cy="30.0" r="4" fill="#ffffff" stroke="#0366d6" stroke-width="2.5" />
</svg>