<svg width="600" height="150" viewBox="0 0 600 150" xmlns="http://www.w3.org/2000/svg">
  <defs>
    <filter id="shadow2" x="-2%" y="-2%" width="104%" height="108%">
      <feDropShadow dx="0" dy="2" stdDeviation="3" flood-opacity="0.1" />
    </filter>
    <linearGradient id="fillGrad" x1="0" y1="0" x2="0" y2="1">
      <stop offset="0%" stop-color="#0366d6" stop-opacity="0.3"/>
      <stop offset="100%" stop-color="#0366d6" stop-opacity="0.02"/>
    </linearGradient>
  </defs>
  <rect width="600" height="150" rx="12" fill="#ffffff" filter="url(#shadow2)" stroke="#e1e4e8" stroke-width="1"/>
  <text x="20" y="24" fill="#2b3137" font-family="-apple-system,BlinkMacSystemFont,'Segoe UI',Helvetica,Arial,sans-serif" font-size="14" font-weight="600">📈 Download Growth (Actual: 87.6k)</text>
  
  <!-- Area sotto la linea -->
  <polygon fill="url(#fillGrad)" points="30.0,120.0,120 30.0,120.0 31.2,119.5 32.5,119.0 33.8,118.5 35.0,118.4 36.2,118.2 37.5,117.6 38.8,117.2 40.0,117.0 41.2,116.4 42.5,116.1 43.8,115.8 45.0,115.6 46.2,115.4 47.5,115.0 48.8,114.6 50.0,114.3 51.2,114.0 52.5,113.9 53.8,113.6 55.0,113.3 56.2,113.0 57.5,112.9 58.8,112.7 60.0,111.7 61.2,111.5 62.5,111.1 63.8,110.8 65.0,110.4 66.2,110.1 67.5,109.9 68.8,109.8 70.0,109.5 71.2,109.1 72.5,108.7 73.8,108.4 75.0,108.1 76.2,108.0 77.5,108.0 78.8,107.8 80.0,107.5 81.2,107.3 82.5,107.2 83.8,106.9 85.0,106.4 86.2,106.3 87.5,106.2 88.8,106.0 90.0,105.6 91.2,105.3 92.5,104.9 93.8,104.6 95.0,104.3 96.2,104.2 97.5,104.0 98.8,103.6 100.0,103.3 101.2,103.0 102.5,102.9 103.8,102.7 105.0,102.5 106.2,102.1 107.5,101.7 108.8,101.4 110.0,101.0 111.2,100.9 112.5,100.8 113.8,100.6 115.0,100.3 116.2,100.1 117.5,100.0 118.8,99.8 120.0,99.7 121.2,99.5 122.5,99.4 123.8,99.3 125.0,99.2 126.2,98.8 127.5,98.6 128.8,98.6 130.0,98.4 131.2,98.4 132.5,98.4 133.8,104.5 135.0,103.9 136.2,103.4 137.5,102.8 138.8,101.1 140.0,100.0 141.2,98.7 142.5,98.2 143.8,97.7 145.0,96.8 146.2,95.9 147.5,95.2 148.8,94.9 150.0,94.7 151.2,94.0 152.5,93.5 153.8,93.2 155.0,92.8 156.2,92.6 157.5,92.6 158.8,92.2 160.0,91.6 161.2,91.2 162.5,90.8 163.8,90.3 165.0,90.1 166.2,89.9 167.5,89.5 168.8,89.2 170.0,88.8 171.2,88.6 172.5,88.4 173.8,88.4 175.0,88.1 176.2,87.8 177.5,87.6 178.8,87.4 180.0,87.2 181.2,87.0 182.5,86.9 183.8,86.7 185.0,86.6 186.2,86.4 187.5,86.1 188.7,85.8 190.0,85.6 191.2,85.4 192.5,85.2 193.8,85.1 195.0,85.0 196.2,84.8 197.5,84.4 198.8,84.1 200.0,83.7 201.2,83.5 202.5,83.5 203.8,83.3 205.0,83.1 206.2,82.9 207.5,82.7 208.8,82.4 210.0,82.2 211.2,82.1 212.5,82.0 213.8,81.9 215.0,81.7 216.2,81.6 217.5,81.4 218.8,81.1 220.0,81.0 221.2,80.9 222.5,80.8 223.8,80.7 225.0,80.5 226.2,80.3 227.5,80.1 228.8,79.9 230.0,79.7 231.2,79.6 232.5,79.5 233.8,79.3 235.0,79.1 236.2,78.8 237.5,78.6 238.8,78.4 240.0,78.1 241.2,78.0 242.5,77.9 243.8,77.8 245.0,77.6 246.2,77.5 247.5,77.3 248.8,77.2 250.0,77.0 251.2,76.9 252.5,76.7 253.8,76.6 255.0,76.5 256.2,76.4 257.5,76.1 258.8,76.0 260.0,75.8 261.2,75.7 262.5,75.6 263.8,75.4 265.0,75.3 266.2,75.2 267.5,75.1 268.8,74.8 270.0,74.5 271.2,74.3 272.5,74.2 273.8,74.1 275.0,74.1 276.2,73.9 277.5,73.6 278.8,73.5 280.0,73.4 281.2,73.2 282.5,73.1 283.8,72.9 285.0,72.8 286.2,72.7 287.5,72.5 288.8,72.3 290.0,72.1 291.2,71.9 292.5,71.8 293.8,71.8 295.0,71.7 296.2,71.6 297.5,71.4 298.8,71.3 300.0,71.1 301.2,71.0 302.5,70.9 303.8,70.8 305.0,70.6 306.2,70.5 307.5,70.3 308.8,70.1 310.0,69.9 311.2,69.8 312.5,69.7 313.7,69.6 315.0,69.5 316.2,69.4 317.5,69.3 318.8,69.2 320.0,69.0 321.2,68.8 322.5,68.7 323.8,68.6 325.0,68.5 326.2,68.3 327.5,68.2 328.8,68.1 330.0,68.0 331.2,67.8 332.5,67.7 333.8,67.5 335.0,67.4 336.2,67.3 337.5,67.2 338.8,67.1 340.0,67.0 341.2,66.9 342.5,66.8 343.8,66.7 345.0,66.6 346.2,66.3 347.5,66.1 348.8,70.2 350.0,69.4 351.2,67.8 352.5,67.3 353.8,66.6 355.0,65.7 356.2,65.2 357.5,64.9 358.8,64.3 360.0,63.4 361.2,62.8 362.5,62.6 363.8,62.2 365.0,62.0 366.2,61.5 367.5,61.1 368.8,60.6 370.0,60.4 371.2,59.9 372.5,59.7 373.8,59.4 375.0,59.2 376.2,58.9 377.5,58.7 378.8,58.3 380.0,58.0 381.2,57.6 382.5,57.0 383.8,56.7 385.0,56.5 386.2,56.4 387.5,56.1 388.8,55.8 390.0,55.5 391.2,55.2 392.5,54.4 393.8,53.7 395.0,53.4 396.2,53.3 397.5,53.0 398.8,52.6 400.0,52.2 401.2,51.7 402.5,51.4 403.8,51.1 405.0,50.8 406.2,50.4 407.5,50.2 408.8,50.1 410.0,49.9 411.2,49.7 412.5,49.5 413.8,49.3 415.0,49.1 416.2,48.9 417.5,48.8 418.8,48.5 420.0,48.4 421.3,48.2 422.5,48.0 423.8,47.8 425.0,47.7 426.2,47.6 427.5,47.4 428.8,47.3 430.0,47.2 431.2,47.0 432.5,46.9 433.8,46.7 435.0,46.5 436.2,46.3 437.5,46.2 438.8,46.0 440.0,45.9 441.2,45.8 442.5,45.7 443.8,45.5 445.0,45.4 446.2,45.3 447.5,45.2 448.7,45.0 450.0,44.8 451.2,44.6 452.5,44.4 453.8,44.3 455.0,44.1 456.2,43.9 457.5,43.7 458.8,43.5 460.0,43.3 461.2,43.1 462.5,42.9 463.8,42.7 465.0,42.4 466.2,42.2 467.5,42.0 468.8,41.9 470.0,41.8 471.2,41.7 472.5,41.5 473.8,41.4 475.0,41.2 476.2,41.1 477.5,40.9 478.8,40.7 480.0,40.5 481.2,40.2 482.5,40.0 483.8,39.7 485.0,39.6 486.2,39.5 487.5,39.3 488.8,39.3 490.0,39.1 491.2,39.0 492.5,38.7 493.8,38.6 495.0,38.4 496.2,38.2 497.5,38.1 498.8,38.0 500.0,37.8 501.2,37.7 502.5,37.7 503.8,37.5 505.0,37.4 506.2,37.3 507.5,37.1 508.8,37.0 510.0,36.8 511.2,36.6 512.5,36.5 513.8,36.4 515.0,36.3 516.2,36.1 517.5,36.0 518.8,35.9 520.0,35.7 521.2,35.6 522.5,35.3 523.8,35.2 525.0,34.9 526.2,34.8 527.5,34.7 528.8,34.6 530.0,34.5 531.2,34.4 532.5,34.4 533.8,34.2 535.0,34.1 536.2,34.1 537.5,33.9 538.8,33.8 540.0,33.5 541.2,33.4 542.5,33.3 543.8,33.2 545.0,33.0 546.2,32.9 547.5,32.7 548.8,32.7 550.0,32.5 551.2,32.4 552.5,32.3 553.8,32.0 555.0,31.8 556.2,31.5 557.5,31.4 558.8,31.2 560.0,31.1 561.2,30.9 562.5,30.8 563.8,30.7 565.0,30.6 566.2,30.5 567.5,30.4 568.8,30.2 570.0,30.0 570.0,30.0,120" />
  
  <!-- Linea principale -->
  <polyline fill="none" stroke="#0366d6" stroke-width="2.5" stroke-linecap="round" stroke-linejoin="round" points="30.0,120.0 31.2,119.5 32.5,119.0 33.8,118.5 35.0,118.4 36.2,118.2 37.5,117.6 38.8,117.2 40.0,117.0 41.2,116.4 42.5,116.1 43.8,115.8 45.0,115.6 46.2,115.4 47.5,115.0 48.8,114.6 50.0,114.3 51.2,114.0 52.5,113.9 53.8,113.6 55.0,113.3 56.2,113.0 57.5,112.9 58.8,112.7 60.0,111.7 61.2,111.5 62.5,111.1 63.8,110.8 65.0,110.4 66.2,110.1 67.5,109.9 68.8,109.8 70.0,109.5 71.2,109.1 72.5,108.7 73.8,108.4 75.0,108.1 76.2,108.0 77.5,108.0 78.8,107.8 80.0,107.5 81.2,107.3 82.5,107.2 83.8,106.9 85.0,106.4 86.2,106.3 87.5,106.2 88.8,106.0 90.0,105.6 91.2,105.3 92.5,104.9 93.8,104.6 95.0,104.3 96.2,104.2 97.5,104.0 98.8,103.6 100.0,103.3 101.2,103.0 102.5,102.9 103.8,102.7 105.0,102.5 106.2,102.1 107.5,101.7 108.8,101.4 110.0,101.0 111.2,100.9 112.5,100.8 113.8,100.6 115.0,100.3 116.2,100.1 117.5,100.0 118.8,99.8 120.0,99.7 121.2,99.5 122.5,99.4 123.8,99.3 125.0,99.2 126.2,98.8 127.5,98.6 128.8,98.6 130.0,98.4 131.2,98.4 132.5,98.4 133.8,104.5 135.0,103.9 136.2,103.4 137.5,102.8 138.8,101.1 140.0,100.0 141.2,98.7 142.5,98.2 143.8,97.7 145.0,96.8 146.2,95.9 147.5,95.2 148.8,94.9 150.0,94.7 151.2,94.0 152.5,93.5 153.8,93.2 155.0,92.8 156.2,92.6 157.5,92.6 158.8,92.2 160.0,91.6 161.2,91.2 162.5,90.8 163.8,90.3 165.0,90.1 166.2,89.9 167.5,89.5 168.8,89.2 170.0,88.8 171.2,88.6 172.5,88.4 173.8,88.4 175.0,88.1 176.2,87.8 177.5,87.6 178.8,87.4 180.0,87.2 181.2,87.0 182.5,86.9 183.8,86.7 185.0,86.6 186.2,86.4 187.5,86.1 188.7,85.8 190.0,85.6 191.2,85.4 192.5,85.2 193.8,85.1 195.0,85.0 196.2,84.8 197.5,84.4 198.8,84.1 200.0,83.7 201.2,83.5 202.5,83.5 203.8,83.3 205.0,83.1 206.2,82.9 207.5,82.7 208.8,82.4 210.0,82.2 211.2,82.1 212.5,82.0 213.8,81.9 215.0,81.7 216.2,81.6 217.5,81.4 218.8,81.1 220.0,81.0 221.2,80.9 222.5,80.8 223.8,80.7 225.0,80.5 226.2,80.3 227.5,80.1 228.8,79.9 230.0,79.7 231.2,79.6 232.5,79.5 233.8,79.3 235.0,79.1 236.2,78.8 237.5,78.6 238.8,78.4 240.0,78.1 241.2,78.0 242.5,77.9 243.8,77.8 245.0,77.6 246.2,77.5 247.5,77.3 248.8,77.2 250.0,77.0 251.2,76.9 252.5,76.7 253.8,76.6 255.0,76.5 256.2,76.4 257.5,76.1 258.8,76.0 260.0,75.8 261.2,75.7 262.5,75.6 263.8,75.4 265.0,75.3 266.2,75.2 267.5,75.1 268.8,74.8 270.0,74.5 271.2,74.3 272.5,74.2 273.8,74.1 275.0,74.1 276.2,73.9 277.5,73.6 278.8,73.5 280.0,73.4 281.2,73.2 282.5,73.1 283.8,72.9 285.0,72.8 286.2,72.7 287.5,72.5 288.8,72.3 290.0,72.1 291.2,71.9 292.5,71.8 293.8,71.8 295.0,71.7 296.2,71.6 297.5,71.4 298.8,71.3 300.0,71.1 301.2,71.0 302.5,70.9 303.8,70.8 305.0,70.6 306.2,70.5 307.5,70.3 308.8,70.1 310.0,69.9 311.2,69.8 312.5,69.7 313.7,69.6 315.0,69.5 316.2,69.4 317.5,69.3 318.8,69.2 320.0,69.0 321.2,68.8 322.5,68.7 323.8,68.6 325.0,68.5 326.2,68.3 327.5,68.2 328.8,68.1 330.0,68.0 331.2,67.8 332.5,67.7 333.8,67.5 335.0,67.4 336.2,67.3 337.5,67.2 338.8,67.1 340.0,67.0 341.2,66.9 342.5,66.8 343.8,66.7 345.0,66.6 346.2,66.3 347.5,66.1 348.8,70.2 350.0,69.4 351.2,67.8 352.5,67.3 353.8,66.6 355.0,65.7 356.2,65.2 357.5,64.9 358.8,64.3 360.0,63.4 361.2,62.8 362.5,62.6 363.8,62.2 365.0,62.0 366.2,61.5 367.5,61.1 368.8,60.6 370.0,60.4 371.2,59.9 372.5,59.7 373.8,59.4 375.0,59.2 376.2,58.9 377.5,58.7 378.8,58.3 380.0,58.0 381.2,57.6 382.5,57.0 383.8,56.7 385.0,56.5 386.2,56.4 387.5,56.1 388.8,55.8 390.0,55.5 391.2,55.2 392.5,54.4 393.8,53.7 395.0,53.4 396.2,53.3 397.5,53.0 398.8,52.6 400.0,52.2 401.2,51.7 402.5,51.4 403.8,51.1 405.0,50.8 406.2,50.4 407.5,50.2 408.8,50.1 410.0,49.9 411.2,49.7 412.5,49.5 413.8,49.3 415.0,49.1 416.2,48.9 417.5,48.8 418.8,48.5 420.0,48.4 421.3,48.2 422.5,48.0 423.8,47.8 425.0,47.7 426.2,47.6 427.5,47.4 428.8,47.3 430.0,47.2 431.2,47.0 432.5,46.9 433.8,46.7 435.0,46.5 436.2,46.3 437.5,46.2 438.8,46.0 440.0,45.9 441.2,45.8 442.5,45.7 443.8,45.5 445.0,45.4 446.2,45.3 447.5,45.2 448.7,45.0 450.0,44.8 451.2,44.6 452.5,44.4 453.8,44.3 455.0,44.1 456.2,43.9 457.5,43.7 458.8,43.5 460.0,43.3 461.2,43.1 462.5,42.9 463.8,42.7 465.0,42.4 466.2,42.2 467.5,42.0 468.8,41.9 470.0,41.8 471.2,41.7 472.5,41.5 473.8,41.4 475.0,41.2 476.2,41.1 477.5,40.9 478.8,40.7 480.0,40.5 481.2,40.2 482.5,40.0 483.8,39.7 485.0,39.6 486.2,39.5 487.5,39.3 488.8,39.3 490.0,39.1 491.2,39.0 492.5,38.7 493.8,38.6 495.0,38.4 496.2,38.2 497.5,38.1 498.8,38.0 500.0,37.8 501.2,37.7 502.5,37.7 503.8,37.5 505.0,37.4 506.2,37.3 507.5,37.1 508.8,37.0 510.0,36.8 511.2,36.6 512.5,36.5 513.8,36.4 515.0,36.3 516.2,36.1 517.5,36.0 518.8,35.9 520.0,35.7 521.2,35.6 522.5,35.3 523.8,35.2 525.0,34.9 526.2,34.8 527.5,34.7 528.8,34.6 530.0,34.5 531.2,34.4 532.5,34.4 533.8,34.2 535.0,34.1 536.2,34.1 537.5,33.9 538.8,33.8 540.0,33.5 541.2,33.4 542.5,33.3 543.8,33.2 545.0,33.0 546.2,32.9 547.5,32.7 548.8,32.7 550.0,32.5 551.2,32.4 552.5,32.3 553.8,32.0 555.0,31.8 556.2,31.5 557.5,31.4 558.8,31.2 560.0,31.1 561.2,30.9 562.5,30.8 563.8,30.7 565.0,30.6 566.2,30.5 567.5,30.4 568.8,30.2 570.0,30.0" />
  
  <!-- Punto finale luminoso -->
  <circle cx="570.0" cy="30.0" r="4" fill="#ffffff" stroke="#0366d6" stroke-width="2.5" />
</svg>