<svg width="600" height="150" viewBox="0 0 600 150" xmlns="http://www.w3.org/2000/svg">
  <defs>
    <filter id="shadow2" x="-2%" y="-2%" width="104%" height="108%">
      <feDropShadow dx="0" dy="2" stdDeviation="3" flood-opacity="0.1" />
    </filter>
    <linearGradient id="fillGrad" x1="0" y1="0" x2="0" y2="1">
      <stop offset="0%" stop-color="#0366d6" stop-opacity="0.3"/>
      <stop offset="100%" stop-color="#0366d6" stop-opacity="0.02"/>
    </linearGradient>
  </defs>
  <rect width="600" height="150" rx="12" fill="#ffffff" filter="url(#shadow2)" stroke="#e1e4e8" stroke-width="1"/>
  <text x="20" y="24" fill="#2b3137" font-family="-apple-system,BlinkMacSystemFont,'Segoe UI',Helvetica,Arial,sans-serif" font-size="14" font-weight="600">📈 Download Growth (Actual: 86.5k)</text>
  
  <!-- Area sotto la linea -->
  <polygon fill="url(#fillGrad)" points="30.0,120.0,120 30.0,120.0 31.4,119.5 32.7,118.9 34.1,118.4 35.4,118.3 36.8,118.1 38.2,117.5 39.5,117.1 40.9,116.8 42.2,116.2 43.6,115.9 45.0,115.6 46.3,115.4 47.7,115.1 49.0,114.7 50.4,114.3 51.8,113.9 53.1,113.7 54.5,113.5 55.8,113.3 57.2,112.9 58.6,112.7 59.9,112.5 61.3,112.2 62.6,111.3 64.0,111.0 65.4,110.6 66.7,110.2 68.1,109.9 69.4,109.6 70.8,109.4 72.2,109.2 73.5,108.9 74.9,108.5 76.2,108.1 77.6,107.8 79.0,107.5 80.3,107.4 81.7,107.3 83.0,107.1 84.4,106.8 85.8,106.6 87.1,106.5 88.5,106.1 89.8,105.6 91.2,105.5 92.6,105.4 93.9,105.2 95.3,104.8 96.6,104.5 98.0,104.1 99.4,103.8 100.7,103.4 102.1,103.3 103.5,103.1 104.8,102.7 106.2,102.3 107.5,102.0 108.9,101.9 110.3,101.7 111.6,101.5 113.0,101.1 114.3,100.7 115.7,100.3 117.1,100.0 118.4,99.8 119.8,99.7 121.1,99.5 122.5,99.2 123.9,99.0 125.2,98.9 126.6,98.7 127.9,98.6 129.3,98.4 130.7,98.2 132.0,98.1 133.4,98.0 134.7,97.6 136.1,97.4 137.5,97.4 138.8,97.2 140.2,97.1 141.5,97.1 142.9,103.7 144.3,103.0 145.6,102.5 147.0,101.8 148.3,100.1 149.7,98.8 151.1,97.5 152.4,97.0 153.8,96.4 155.1,95.5 156.5,94.5 157.9,93.8 159.2,93.5 160.6,93.2 161.9,92.5 163.3,92.0 164.7,91.7 166.0,91.3 167.4,91.1 168.7,91.0 170.1,90.6 171.5,90.0 172.8,89.6 174.2,89.1 175.5,88.7 176.9,88.4 178.3,88.2 179.6,87.8 181.0,87.4 182.3,87.1 183.7,86.8 185.1,86.7 186.4,86.6 187.8,86.3 189.1,86.0 190.5,85.8 191.9,85.6 193.2,85.4 194.6,85.2 195.9,85.0 197.3,84.8 198.7,84.7 200.0,84.5 201.4,84.2 202.7,83.9 204.1,83.6 205.5,83.4 206.8,83.3 208.2,83.1 209.5,83.0 210.9,82.8 212.3,82.3 213.6,82.0 215.0,81.6 216.3,81.5 217.7,81.4 219.1,81.3 220.4,81.1 221.8,80.8 223.1,80.6 224.5,80.3 225.9,80.1 227.2,80.0 228.6,79.9 229.9,79.7 231.3,79.6 232.7,79.4 234.0,79.2 235.4,79.0 236.8,78.8 238.1,78.7 239.5,78.6 240.8,78.5 242.2,78.3 243.6,78.1 244.9,77.8 246.3,77.6 247.6,77.4 249.0,77.3 250.4,77.2 251.7,77.0 253.1,76.8 254.4,76.5 255.8,76.3 257.2,76.1 258.5,75.7 259.9,75.6 261.2,75.5 262.6,75.4 264.0,75.2 265.3,75.1 266.7,74.9 268.0,74.7 269.4,74.6 270.8,74.4 272.1,74.3 273.5,74.2 274.8,74.1 276.2,73.9 277.6,73.6 278.9,73.5 280.3,73.3 281.6,73.2 283.0,73.1 284.4,72.9 285.7,72.8 287.1,72.7 288.4,72.5 289.8,72.3 291.2,72.0 292.5,71.8 293.9,71.6 295.2,71.5 296.6,71.5 298.0,71.3 299.3,71.0 300.7,70.9 302.0,70.8 303.4,70.6 304.8,70.5 306.1,70.3 307.5,70.2 308.8,70.1 310.2,69.8 311.6,69.6 312.9,69.4 314.3,69.2 315.6,69.1 317.0,69.1 318.4,69.0 319.7,68.9 321.1,68.7 322.4,68.5 323.8,68.4 325.2,68.2 326.5,68.1 327.9,68.0 329.2,67.9 330.6,67.7 332.0,67.5 333.3,67.3 334.7,67.1 336.0,67.0 337.4,66.9 338.8,66.8 340.1,66.7 341.5,66.6 342.8,66.5 344.2,66.3 345.6,66.1 346.9,66.0 348.3,65.8 349.6,65.7 351.0,65.6 352.4,65.4 353.7,65.3 355.1,65.2 356.4,65.0 357.8,64.9 359.2,64.7 360.5,64.6 361.9,64.4 363.2,64.3 364.6,64.3 366.0,64.1 367.3,64.0 368.7,63.9 370.1,63.8 371.4,63.7 372.8,63.6 374.1,63.3 375.5,63.1 376.9,67.4 378.2,66.5 379.6,64.9 380.9,64.3 382.3,63.5 383.7,62.6 385.0,62.1 386.4,61.8 387.7,61.2 389.1,60.2 390.5,59.5 391.8,59.3 393.2,59.0 394.5,58.7 395.9,58.2 397.3,57.8 398.6,57.2 400.0,57.0 401.3,56.5 402.7,56.3 404.1,56.0 405.4,55.8 406.8,55.5 408.1,55.3 409.5,54.8 410.9,54.5 412.2,54.1 413.6,53.5 414.9,53.1 416.3,52.9 417.7,52.8 419.0,52.5 420.4,52.2 421.7,51.8 423.1,51.5 424.5,50.7 425.8,50.0 427.2,49.7 428.5,49.5 429.9,49.2 431.3,48.8 432.6,48.4 434.0,47.8 435.3,47.5 436.7,47.2 438.1,46.9 439.4,46.5 440.8,46.3 442.1,46.1 443.5,46.0 444.9,45.8 446.2,45.5 447.6,45.4 448.9,45.1 450.3,44.9 451.7,44.8 453.0,44.5 454.4,44.3 455.7,44.1 457.1,44.0 458.5,43.8 459.8,43.6 461.2,43.5 462.5,43.4 463.9,43.2 465.3,43.1 466.6,42.9 468.0,42.8 469.3,42.6 470.7,42.4 472.1,42.2 473.4,42.1 474.8,41.9 476.1,41.8 477.5,41.6 478.9,41.5 480.2,41.3 481.6,41.2 482.9,41.1 484.3,41.0 485.7,40.8 487.0,40.6 488.4,40.4 489.7,40.2 491.1,40.0 492.5,39.8 493.8,39.6 495.2,39.4 496.5,39.2 497.9,39.0 499.3,38.8 500.6,38.5 502.0,38.3 503.4,38.0 504.7,37.8 506.1,37.6 507.4,37.5 508.8,37.4 510.2,37.2 511.5,37.1 512.9,37.0 514.2,36.8 515.6,36.6 517.0,36.4 518.3,36.2 519.7,36.0 521.0,35.7 522.4,35.5 523.8,35.2 525.1,35.1 526.5,34.9 527.8,34.8 529.2,34.7 530.6,34.6 531.9,34.4 533.3,34.2 534.6,34.0 536.0,33.8 537.4,33.6 538.7,33.5 540.1,33.3 541.4,33.2 542.8,33.1 544.2,33.0 545.5,32.9 546.9,32.7 548.2,32.6 549.6,32.5 551.0,32.3 552.3,32.1 553.7,31.9 555.0,31.8 556.4,31.6 557.8,31.6 559.1,31.4 560.5,31.3 561.8,31.2 563.2,31.0 564.6,30.8 565.9,30.6 567.3,30.4 568.6,30.1 570.0,30.0 570.0,30.0,120" />
  
  <!-- Linea principale -->
  <polyline fill="none" stroke="#0366d6" stroke-width="2.5" stroke-linecap="round" stroke-linejoin="round" points="30.0,120.0 31.4,119.5 32.7,118.9 34.1,118.4 35.4,118.3 36.8,118.1 38.2,117.5 39.5,117.1 40.9,116.8 42.2,116.2 43.6,115.9 45.0,115.6 46.3,115.4 47.7,115.1 49.0,114.7 50.4,114.3 51.8,113.9 53.1,113.7 54.5,113.5 55.8,113.3 57.2,112.9 58.6,112.7 59.9,112.5 61.3,112.2 62.6,111.3 64.0,111.0 65.4,110.6 66.7,110.2 68.1,109.9 69.4,109.6 70.8,109.4 72.2,109.2 73.5,108.9 74.9,108.5 76.2,108.1 77.6,107.8 79.0,107.5 80.3,107.4 81.7,107.3 83.0,107.1 84.4,106.8 85.8,106.6 87.1,106.5 88.5,106.1 89.8,105.6 91.2,105.5 92.6,105.4 93.9,105.2 95.3,104.8 96.6,104.5 98.0,104.1 99.4,103.8 100.7,103.4 102.1,103.3 103.5,103.1 104.8,102.7 106.2,102.3 107.5,102.0 108.9,101.9 110.3,101.7 111.6,101.5 113.0,101.1 114.3,100.7 115.7,100.3 117.1,100.0 118.4,99.8 119.8,99.7 121.1,99.5 122.5,99.2 123.9,99.0 125.2,98.9 126.6,98.7 127.9,98.6 129.3,98.4 130.7,98.2 132.0,98.1 133.4,98.0 134.7,97.6 136.1,97.4 137.5,97.4 138.8,97.2 140.2,97.1 141.5,97.1 142.9,103.7 144.3,103.0 145.6,102.5 147.0,101.8 148.3,100.1 149.7,98.8 151.1,97.5 152.4,97.0 153.8,96.4 155.1,95.5 156.5,94.5 157.9,93.8 159.2,93.5 160.6,93.2 161.9,92.5 163.3,92.0 164.7,91.7 166.0,91.3 167.4,91.1 168.7,91.0 170.1,90.6 171.5,90.0 172.8,89.6 174.2,89.1 175.5,88.7 176.9,88.4 178.3,88.2 179.6,87.8 181.0,87.4 182.3,87.1 183.7,86.8 185.1,86.7 186.4,86.6 187.8,86.3 189.1,86.0 190.5,85.8 191.9,85.6 193.2,85.4 194.6,85.2 195.9,85.0 197.3,84.8 198.7,84.7 200.0,84.5 201.4,84.2 202.7,83.9 204.1,83.6 205.5,83.4 206.8,83.3 208.2,83.1 209.5,83.0 210.9,82.8 212.3,82.3 213.6,82.0 215.0,81.6 216.3,81.5 217.7,81.4 219.1,81.3 220.4,81.1 221.8,80.8 223.1,80.6 224.5,80.3 225.9,80.1 227.2,80.0 228.6,79.9 229.9,79.7 231.3,79.6 232.7,79.4 234.0,79.2 235.4,79.0 236.8,78.8 238.1,78.7 239.5,78.6 240.8,78.5 242.2,78.3 243.6,78.1 244.9,77.8 246.3,77.6 247.6,77.4 249.0,77.3 250.4,77.2 251.7,77.0 253.1,76.8 254.4,76.5 255.8,76.3 257.2,76.1 258.5,75.7 259.9,75.6 261.2,75.5 262.6,75.4 264.0,75.2 265.3,75.1 266.7,74.9 268.0,74.7 269.4,74.6 270.8,74.4 272.1,74.3 273.5,74.2 274.8,74.1 276.2,73.9 277.6,73.6 278.9,73.5 280.3,73.3 281.6,73.2 283.0,73.1 284.4,72.9 285.7,72.8 287.1,72.7 288.4,72.5 289.8,72.3 291.2,72.0 292.5,71.8 293.9,71.6 295.2,71.5 296.6,71.5 298.0,71.3 299.3,71.0 300.7,70.9 302.0,70.8 303.4,70.6 304.8,70.5 306.1,70.3 307.5,70.2 308.8,70.1 310.2,69.8 311.6,69.6 312.9,69.4 314.3,69.2 315.6,69.1 317.0,69.1 318.4,69.0 319.7,68.9 321.1,68.7 322.4,68.5 323.8,68.4 325.2,68.2 326.5,68.1 327.9,68.0 329.2,67.9 330.6,67.7 332.0,67.5 333.3,67.3 334.7,67.1 336.0,67.0 337.4,66.9 338.8,66.8 340.1,66.7 341.5,66.6 342.8,66.5 344.2,66.3 345.6,66.1 346.9,66.0 348.3,65.8 349.6,65.7 351.0,65.6 352.4,65.4 353.7,65.3 355.1,65.2 356.4,65.0 357.8,64.9 359.2,64.7 360.5,64.6 361.9,64.4 363.2,64.3 364.6,64.3 366.0,64.1 367.3,64.0 368.7,63.9 370.1,63.8 371.4,63.7 372.8,63.6 374.1,63.3 375.5,63.1 376.9,67.4 378.2,66.5 379.6,64.9 380.9,64.3 382.3,63.5 383.7,62.6 385.0,62.1 386.4,61.8 387.7,61.2 389.1,60.2 390.5,59.5 391.8,59.3 393.2,59.0 394.5,58.7 395.9,58.2 397.3,57.8 398.6,57.2 400.0,57.0 401.3,56.5 402.7,56.3 404.1,56.0 405.4,55.8 406.8,55.5 408.1,55.3 409.5,54.8 410.9,54.5 412.2,54.1 413.6,53.5 414.9,53.1 416.3,52.9 417.7,52.8 419.0,52.5 420.4,52.2 421.7,51.8 423.1,51.5 424.5,50.7 425.8,50.0 427.2,49.7 428.5,49.5 429.9,49.2 431.3,48.8 432.6,48.4 434.0,47.8 435.3,47.5 436.7,47.2 438.1,46.9 439.4,46.5 440.8,46.3 442.1,46.1 443.5,46.0 444.9,45.8 446.2,45.5 447.6,45.4 448.9,45.1 450.3,44.9 451.7,44.8 453.0,44.5 454.4,44.3 455.7,44.1 457.1,44.0 458.5,43.8 459.8,43.6 461.2,43.5 462.5,43.4 463.9,43.2 465.3,43.1 466.6,42.9 468.0,42.8 469.3,42.6 470.7,42.4 472.1,42.2 473.4,42.1 474.8,41.9 476.1,41.8 477.5,41.6 478.9,41.5 480.2,41.3 481.6,41.2 482.9,41.1 484.3,41.0 485.7,40.8 487.0,40.6 488.4,40.4 489.7,40.2 491.1,40.0 492.5,39.8 493.8,39.6 495.2,39.4 496.5,39.2 497.9,39.0 499.3,38.8 500.6,38.5 502.0,38.3 503.4,38.0 504.7,37.8 506.1,37.6 507.4,37.5 508.8,37.4 510.2,37.2 511.5,37.1 512.9,37.0 514.2,36.8 515.6,36.6 517.0,36.4 518.3,36.2 519.7,36.0 521.0,35.7 522.4,35.5 523.8,35.2 525.1,35.1 526.5,34.9 527.8,34.8 529.2,34.7 530.6,34.6 531.9,34.4 533.3,34.2 534.6,34.0 536.0,33.8 537.4,33.6 538.7,33.5 540.1,33.3 541.4,33.2 542.8,33.1 544.2,33.0 545.5,32.9 546.9,32.7 548.2,32.6 549.6,32.5 551.0,32.3 552.3,32.1 553.7,31.9 555.0,31.8 556.4,31.6 557.8,31.6 559.1,31.4 560.5,31.3 561.8,31.2 563.2,31.0 564.6,30.8 565.9,30.6 567.3,30.4 568.6,30.1 570.0,30.0" />
  
  <!-- Punto finale luminoso -->
  <circle cx="570.0" cy="30.0" r="4" fill="#ffffff" stroke="#0366d6" stroke-width="2.5" />
</svg>