<svg width="600" height="150" viewBox="0 0 600 150" xmlns="http://www.w3.org/2000/svg">
  <defs>
    <filter id="shadow2" x="-2%" y="-2%" width="104%" height="108%">
      <feDropShadow dx="0" dy="2" stdDeviation="3" flood-opacity="0.1" />
    </filter>
    <linearGradient id="fillGrad" x1="0" y1="0" x2="0" y2="1">
      <stop offset="0%" stop-color="#0366d6" stop-opacity="0.3"/>
      <stop offset="100%" stop-color="#0366d6" stop-opacity="0.02"/>
    </linearGradient>
  </defs>
  <rect width="600" height="150" rx="12" fill="#ffffff" filter="url(#shadow2)" stroke="#e1e4e8" stroke-width="1"/>
  <text x="20" y="24" fill="#2b3137" font-family="-apple-system,BlinkMacSystemFont,'Segoe UI',Helvetica,Arial,sans-serif" font-size="14" font-weight="600">📈 Download Growth (Actual: 82.7k)</text>
  
  <!-- Area sotto la linea -->
  <polygon fill="url(#fillGrad)" points="30.0,120.0,120 30.0,120.0 31.8,119.4 33.6,118.7 35.4,118.1 37.2,117.9 39.1,117.6 40.9,116.9 42.7,116.4 44.5,116.0 46.3,115.3 48.1,114.9 49.9,114.5 51.7,114.3 53.6,113.9 55.4,113.4 57.2,112.9 59.0,112.5 60.8,112.2 62.6,112.0 64.4,111.6 66.2,111.2 68.1,110.9 69.9,110.7 71.7,110.4 73.5,109.2 75.3,108.8 77.1,108.3 78.9,107.9 80.7,107.5 82.6,107.1 84.4,106.8 86.2,106.6 88.0,106.3 89.8,105.7 91.6,105.2 93.4,104.8 95.2,104.4 97.0,104.3 98.9,104.2 100.7,104.0 102.5,103.6 104.3,103.4 106.1,103.2 107.9,102.8 109.7,102.1 111.5,102.0 113.4,101.9 115.2,101.6 117.0,101.1 118.8,100.8 120.6,100.2 122.4,99.9 124.2,99.4 126.0,99.3 127.9,99.0 129.7,98.5 131.5,98.0 133.3,97.7 135.1,97.5 136.9,97.3 138.7,97.0 140.5,96.5 142.3,96.0 144.2,95.6 146.0,95.1 147.8,94.9 149.6,94.8 151.4,94.6 153.2,94.2 155.0,93.9 156.8,93.7 158.7,93.6 160.5,93.4 162.3,93.1 164.1,93.0 165.9,92.9 167.7,92.7 169.5,92.2 171.3,92.0 173.2,91.9 175.0,91.7 176.8,91.6 178.6,91.6 180.4,99.7 182.2,98.9 184.0,98.2 185.8,97.5 187.7,95.2 189.5,93.7 191.3,92.0 193.1,91.4 194.9,90.7 196.7,89.6 198.5,88.4 200.3,87.4 202.1,87.1 204.0,86.8 205.8,85.9 207.6,85.2 209.4,84.8 211.2,84.3 213.0,84.1 214.8,84.0 216.6,83.5 218.5,82.8 220.3,82.2 222.1,81.7 223.9,81.1 225.7,80.8 227.5,80.6 229.3,80.0 231.1,79.6 233.0,79.1 234.8,78.8 236.6,78.6 238.4,78.5 240.2,78.2 242.0,77.8 243.8,77.5 245.6,77.2 247.4,77.0 249.3,76.7 251.1,76.5 252.9,76.3 254.7,76.1 256.5,75.9 258.3,75.5 260.1,75.2 261.9,74.8 263.8,74.6 265.6,74.4 267.4,74.2 269.2,74.0 271.0,73.8 272.8,73.2 274.6,72.8 276.4,72.4 278.3,72.2 280.1,72.1 281.9,71.9 283.7,71.6 285.5,71.3 287.3,71.0 289.1,70.7 290.9,70.4 292.8,70.3 294.6,70.1 296.4,70.0 298.2,69.8 300.0,69.6 301.8,69.4 303.6,69.0 305.4,68.9 307.2,68.7 309.1,68.6 310.9,68.5 312.7,68.2 314.5,67.9 316.3,67.6 318.1,67.4 319.9,67.1 321.7,66.9 323.6,66.8 325.4,66.6 327.2,66.3 329.0,65.9 330.8,65.7 332.6,65.4 334.4,65.0 336.2,64.9 338.1,64.8 339.9,64.6 341.7,64.4 343.5,64.2 345.3,64.0 347.1,63.8 348.9,63.6 350.7,63.4 352.6,63.2 354.4,63.1 356.2,63.0 358.0,62.8 359.8,62.4 361.6,62.3 363.4,62.0 365.2,61.9 367.0,61.7 368.9,61.5 370.7,61.4 372.5,61.3 374.3,61.1 376.1,60.7 377.9,60.3 379.7,60.1 381.5,59.9 383.4,59.8 385.2,59.7 387.0,59.5 388.8,59.2 390.6,59.0 392.4,58.9 394.2,58.6 396.0,58.5 397.9,58.2 399.7,58.1 401.5,58.0 403.3,57.7 405.1,57.5 406.9,57.2 408.7,56.9 410.5,56.8 412.3,56.8 414.2,56.7 416.0,56.5 417.8,56.3 419.6,56.1 421.4,55.9 423.2,55.7 425.0,55.5 426.8,55.4 428.7,55.2 430.5,55.1 432.3,54.8 434.1,54.5 435.9,54.3 437.7,54.1 439.5,54.0 441.3,53.9 443.2,53.8 445.0,53.7 446.8,53.5 448.6,53.4 450.4,53.1 452.2,52.9 454.0,52.7 455.8,52.6 457.7,52.4 459.5,52.2 461.3,52.0 463.1,51.9 464.9,51.7 466.7,51.6 468.5,51.4 470.3,51.2 472.1,51.0 474.0,50.9 475.8,50.8 477.6,50.6 479.4,50.5 481.2,50.3 483.0,50.2 484.8,50.1 486.6,50.0 488.5,49.6 490.3,49.3 492.1,54.6 493.9,53.6 495.7,51.6 497.5,50.8 499.3,49.9 501.1,48.7 503.0,48.1 504.8,47.7 506.6,46.9 508.4,45.8 510.2,44.9 512.0,44.7 513.8,44.2 515.6,43.9 517.4,43.3 519.3,42.7 521.1,42.1 522.9,41.8 524.7,41.2 526.5,40.9 528.3,40.5 530.1,40.2 531.9,39.9 533.8,39.6 535.6,39.0 537.4,38.6 539.2,38.1 541.0,37.4 542.8,37.0 544.6,36.7 546.4,36.5 548.3,36.2 550.1,35.8 551.9,35.3 553.7,35.0 555.5,33.9 557.3,33.1 559.1,32.7 560.9,32.4 562.8,32.1 564.6,31.5 566.4,31.0 568.2,30.4 570.0,30.0 570.0,30.0,120" />
  
  <!-- Linea principale -->
  <polyline fill="none" stroke="#0366d6" stroke-width="2.5" stroke-linecap="round" stroke-linejoin="round" points="30.0,120.0 31.8,119.4 33.6,118.7 35.4,118.1 37.2,117.9 39.1,117.6 40.9,116.9 42.7,116.4 44.5,116.0 46.3,115.3 48.1,114.9 49.9,114.5 51.7,114.3 53.6,113.9 55.4,113.4 57.2,112.9 59.0,112.5 60.8,112.2 62.6,112.0 64.4,111.6 66.2,111.2 68.1,110.9 69.9,110.7 71.7,110.4 73.5,109.2 75.3,108.8 77.1,108.3 78.9,107.9 80.7,107.5 82.6,107.1 84.4,106.8 86.2,106.6 88.0,106.3 89.8,105.7 91.6,105.2 93.4,104.8 95.2,104.4 97.0,104.3 98.9,104.2 100.7,104.0 102.5,103.6 104.3,103.4 106.1,103.2 107.9,102.8 109.7,102.1 111.5,102.0 113.4,101.9 115.2,101.6 117.0,101.1 118.8,100.8 120.6,100.2 122.4,99.9 124.2,99.4 126.0,99.3 127.9,99.0 129.7,98.5 131.5,98.0 133.3,97.7 135.1,97.5 136.9,97.3 138.7,97.0 140.5,96.5 142.3,96.0 144.2,95.6 146.0,95.1 147.8,94.9 149.6,94.8 151.4,94.6 153.2,94.2 155.0,93.9 156.8,93.7 158.7,93.6 160.5,93.4 162.3,93.1 164.1,93.0 165.9,92.9 167.7,92.7 169.5,92.2 171.3,92.0 173.2,91.9 175.0,91.7 176.8,91.6 178.6,91.6 180.4,99.7 182.2,98.9 184.0,98.2 185.8,97.5 187.7,95.2 189.5,93.7 191.3,92.0 193.1,91.4 194.9,90.7 196.7,89.6 198.5,88.4 200.3,87.4 202.1,87.1 204.0,86.8 205.8,85.9 207.6,85.2 209.4,84.8 211.2,84.3 213.0,84.1 214.8,84.0 216.6,83.5 218.5,82.8 220.3,82.2 222.1,81.7 223.9,81.1 225.7,80.8 227.5,80.6 229.3,80.0 231.1,79.6 233.0,79.1 234.8,78.8 236.6,78.6 238.4,78.5 240.2,78.2 242.0,77.8 243.8,77.5 245.6,77.2 247.4,77.0 249.3,76.7 251.1,76.5 252.9,76.3 254.7,76.1 256.5,75.9 258.3,75.5 260.1,75.2 261.9,74.8 263.8,74.6 265.6,74.4 267.4,74.2 269.2,74.0 271.0,73.8 272.8,73.2 274.6,72.8 276.4,72.4 278.3,72.2 280.1,72.1 281.9,71.9 283.7,71.6 285.5,71.3 287.3,71.0 289.1,70.7 290.9,70.4 292.8,70.3 294.6,70.1 296.4,70.0 298.2,69.8 300.0,69.6 301.8,69.4 303.6,69.0 305.4,68.9 307.2,68.7 309.1,68.6 310.9,68.5 312.7,68.2 314.5,67.9 316.3,67.6 318.1,67.4 319.9,67.1 321.7,66.9 323.6,66.8 325.4,66.6 327.2,66.3 329.0,65.9 330.8,65.7 332.6,65.4 334.4,65.0 336.2,64.9 338.1,64.8 339.9,64.6 341.7,64.4 343.5,64.2 345.3,64.0 347.1,63.8 348.9,63.6 350.7,63.4 352.6,63.2 354.4,63.1 356.2,63.0 358.0,62.8 359.8,62.4 361.6,62.3 363.4,62.0 365.2,61.9 367.0,61.7 368.9,61.5 370.7,61.4 372.5,61.3 374.3,61.1 376.1,60.7 377.9,60.3 379.7,60.1 381.5,59.9 383.4,59.8 385.2,59.7 387.0,59.5 388.8,59.2 390.6,59.0 392.4,58.9 394.2,58.6 396.0,58.5 397.9,58.2 399.7,58.1 401.5,58.0 403.3,57.7 405.1,57.5 406.9,57.2 408.7,56.9 410.5,56.8 412.3,56.8 414.2,56.7 416.0,56.5 417.8,56.3 419.6,56.1 421.4,55.9 423.2,55.7 425.0,55.5 426.8,55.4 428.7,55.2 430.5,55.1 432.3,54.8 434.1,54.5 435.9,54.3 437.7,54.1 439.5,54.0 441.3,53.9 443.2,53.8 445.0,53.7 446.8,53.5 448.6,53.4 450.4,53.1 452.2,52.9 454.0,52.7 455.8,52.6 457.7,52.4 459.5,52.2 461.3,52.0 463.1,51.9 464.9,51.7 466.7,51.6 468.5,51.4 470.3,51.2 472.1,51.0 474.0,50.9 475.8,50.8 477.6,50.6 479.4,50.5 481.2,50.3 483.0,50.2 484.8,50.1 486.6,50.0 488.5,49.6 490.3,49.3 492.1,54.6 493.9,53.6 495.7,51.6 497.5,50.8 499.3,49.9 501.1,48.7 503.0,48.1 504.8,47.7 506.6,46.9 508.4,45.8 510.2,44.9 512.0,44.7 513.8,44.2 515.6,43.9 517.4,43.3 519.3,42.7 521.1,42.1 522.9,41.8 524.7,41.2 526.5,40.9 528.3,40.5 530.1,40.2 531.9,39.9 533.8,39.6 535.6,39.0 537.4,38.6 539.2,38.1 541.0,37.4 542.8,37.0 544.6,36.7 546.4,36.5 548.3,36.2 550.1,35.8 551.9,35.3 553.7,35.0 555.5,33.9 557.3,33.1 559.1,32.7 560.9,32.4 562.8,32.1 564.6,31.5 566.4,31.0 568.2,30.4 570.0,30.0" />
  
  <!-- Punto finale luminoso -->
  <circle cx="570.0" cy="30.0" r="4" fill="#ffffff" stroke="#0366d6" stroke-width="2.5" />
</svg>