<svg width="600" height="150" viewBox="0 0 600 150" xmlns="http://www.w3.org/2000/svg">
  <defs>
    <filter id="shadow2" x="-2%" y="-2%" width="104%" height="108%">
      <feDropShadow dx="0" dy="2" stdDeviation="3" flood-opacity="0.1" />
    </filter>
    <linearGradient id="fillGrad" x1="0" y1="0" x2="0" y2="1">
      <stop offset="0%" stop-color="#0366d6" stop-opacity="0.3"/>
      <stop offset="100%" stop-color="#0366d6" stop-opacity="0.02"/>
    </linearGradient>
  </defs>
  <rect width="600" height="150" rx="12" fill="#ffffff" filter="url(#shadow2)" stroke="#e1e4e8" stroke-width="1"/>
  <text x="20" y="24" fill="#2b3137" font-family="-apple-system,BlinkMacSystemFont,'Segoe UI',Helvetica,Arial,sans-serif" font-size="14" font-weight="600">📈 Download Growth (Actual: 88.0k)</text>
  
  <!-- Area sotto la linea -->
  <polygon fill="url(#fillGrad)" points="30.0,120.0,120 30.0,120.0 31.2,119.5 32.4,119.0 33.7,118.6 34.9,118.4 36.1,118.2 37.3,117.6 38.5,117.3 39.8,117.0 41.0,116.4 42.2,116.2 43.4,115.9 44.6,115.7 45.8,115.5 47.1,115.1 48.3,114.7 49.5,114.3 50.7,114.1 51.9,114.0 53.2,113.7 54.4,113.4 55.6,113.2 56.8,113.0 58.0,112.8 59.3,111.9 60.5,111.6 61.7,111.3 62.9,110.9 64.1,110.6 65.3,110.3 66.6,110.1 67.8,109.9 69.0,109.7 70.2,109.3 71.4,108.9 72.7,108.6 73.9,108.3 75.1,108.2 76.3,108.2 77.5,108.0 78.8,107.7 80.0,107.5 81.2,107.4 82.4,107.1 83.6,106.6 84.9,106.5 86.1,106.4 87.3,106.2 88.5,105.8 89.7,105.6 90.9,105.2 92.2,104.9 93.4,104.5 94.6,104.5 95.8,104.3 97.0,103.9 98.3,103.5 99.5,103.3 100.7,103.1 101.9,102.9 103.1,102.8 104.4,102.4 105.6,102.0 106.8,101.7 108.0,101.3 109.2,101.2 110.5,101.1 111.7,100.9 112.9,100.6 114.1,100.5 115.3,100.3 116.5,100.2 117.8,100.0 119.0,99.9 120.2,99.7 121.4,99.6 122.6,99.5 123.9,99.2 125.1,99.0 126.3,98.9 127.5,98.8 128.7,98.7 130.0,98.7 131.2,104.8 132.4,104.2 133.6,103.7 134.8,103.1 136.0,101.4 137.3,100.3 138.5,99.0 139.7,98.6 140.9,98.0 142.1,97.2 143.4,96.3 144.6,95.6 145.8,95.3 147.0,95.1 148.2,94.4 149.5,93.9 150.7,93.6 151.9,93.2 153.1,93.1 154.3,93.0 155.6,92.6 156.8,92.1 158.0,91.7 159.2,91.3 160.4,90.8 161.6,90.6 162.9,90.4 164.1,90.0 165.3,89.7 166.5,89.3 167.7,89.1 169.0,88.9 170.2,88.9 171.4,88.7 172.6,88.4 173.8,88.1 175.1,87.9 176.3,87.7 177.5,87.6 178.7,87.4 179.9,87.2 181.2,87.1 182.4,86.9 183.6,86.6 184.8,86.4 186.0,86.1 187.2,86.0 188.5,85.8 189.7,85.7 190.9,85.5 192.1,85.4 193.3,84.9 194.6,84.6 195.8,84.3 197.0,84.1 198.2,84.1 199.4,83.9 200.7,83.7 201.9,83.5 203.1,83.3 204.3,83.0 205.5,82.8 206.7,82.7 208.0,82.6 209.2,82.5 210.4,82.4 211.6,82.2 212.8,82.0 214.1,81.8 215.3,81.6 216.5,81.6 217.7,81.4 218.9,81.4 220.2,81.1 221.4,80.9 222.6,80.7 223.8,80.5 225.0,80.3 226.3,80.2 227.5,80.1 228.7,80.0 229.9,79.7 231.1,79.5 232.3,79.3 233.6,79.1 234.8,78.8 236.0,78.7 237.2,78.6 238.4,78.5 239.7,78.3 240.9,78.2 242.1,78.0 243.3,77.8 244.5,77.7 245.8,77.6 247.0,77.4 248.2,77.3 249.4,77.2 250.6,77.1 251.9,76.8 253.1,76.7 254.3,76.5 255.5,76.4 256.7,76.3 257.9,76.2 259.2,76.1 260.4,75.9 261.6,75.8 262.8,75.5 264.0,75.2 265.3,75.1 266.5,74.9 267.7,74.9 268.9,74.8 270.1,74.6 271.4,74.4 272.6,74.3 273.8,74.2 275.0,74.0 276.2,73.9 277.4,73.7 278.7,73.6 279.9,73.5 281.1,73.3 282.3,73.1 283.5,72.9 284.8,72.7 286.0,72.6 287.2,72.6 288.4,72.5 289.6,72.4 290.9,72.2 292.1,72.1 293.3,71.9 294.5,71.8 295.7,71.7 297.0,71.6 298.2,71.4 299.4,71.3 300.6,71.1 301.8,70.9 303.0,70.8 304.3,70.6 305.5,70.5 306.7,70.4 307.9,70.3 309.1,70.2 310.4,70.1 311.6,70.0 312.8,69.8 314.0,69.7 315.2,69.5 316.5,69.4 317.7,69.3 318.9,69.2 320.1,69.0 321.3,68.9 322.6,68.8 323.8,68.7 325.0,68.5 326.2,68.4 327.4,68.2 328.6,68.2 329.9,68.1 331.1,68.0 332.3,67.9 333.5,67.7 334.7,67.6 336.0,67.6 337.2,67.5 338.4,67.2 339.6,67.0 340.8,71.0 342.1,70.2 343.3,68.7 344.5,68.1 345.7,67.4 346.9,66.6 348.1,66.1 349.4,65.8 350.6,65.2 351.8,64.3 353.0,63.7 354.2,63.5 355.5,63.2 356.7,62.9 357.9,62.5 359.1,62.0 360.3,61.5 361.6,61.3 362.8,60.9 364.0,60.7 365.2,60.4 366.4,60.2 367.7,59.9 368.9,59.7 370.1,59.3 371.3,59.0 372.5,58.6 373.7,58.0 375.0,57.7 376.2,57.5 377.4,57.4 378.6,57.2 379.8,56.8 381.1,56.5 382.3,56.2 383.5,55.4 384.7,54.8 385.9,54.5 387.2,54.3 388.4,54.1 389.6,53.6 390.8,53.3 392.0,52.8 393.3,52.5 394.5,52.2 395.7,51.9 396.9,51.5 398.1,51.3 399.3,51.2 400.6,51.0 401.8,50.9 403.0,50.6 404.2,50.5 405.4,50.3 406.7,50.1 407.9,49.9 409.1,49.7 410.3,49.5 411.5,49.3 412.8,49.2 414.0,49.0 415.2,48.9 416.4,48.7 417.6,48.6 418.8,48.5 420.1,48.4 421.3,48.2 422.5,48.1 423.7,47.9 424.9,47.7 426.2,47.5 427.4,47.4 428.6,47.2 429.8,47.1 431.0,47.0 432.3,46.9 433.5,46.7 434.7,46.6 435.9,46.5 437.1,46.4 438.4,46.2 439.6,46.1 440.8,45.8 442.0,45.6 443.2,45.5 444.4,45.3 445.7,45.1 446.9,44.9 448.1,44.7 449.3,44.5 450.5,44.3 451.8,44.1 453.0,43.9 454.2,43.7 455.4,43.5 456.6,43.2 457.9,43.1 459.1,43.0 460.3,42.9 461.5,42.8 462.7,42.6 464.0,42.5 465.2,42.3 466.4,42.2 467.6,42.0 468.8,41.7 470.0,41.5 471.3,41.3 472.5,41.0 473.7,40.9 474.9,40.8 476.1,40.7 477.4,40.6 478.6,40.4 479.8,40.3 481.0,40.1 482.2,39.9 483.5,39.7 484.7,39.5 485.9,39.4 487.1,39.3 488.3,39.1 489.5,39.1 490.8,39.0 492.0,38.9 493.2,38.7 494.4,38.6 495.6,38.5 496.9,38.3 498.1,38.1 499.3,38.0 500.5,37.9 501.7,37.7 503.0,37.6 504.2,37.5 505.4,37.4 506.6,37.3 507.8,37.1 509.1,36.9 510.3,36.7 511.5,36.5 512.7,36.3 513.9,36.2 515.1,36.1 516.4,36.0 517.6,35.9 518.8,35.8 520.0,35.7 521.2,35.6 522.5,35.5 523.7,35.4 524.9,35.3 526.1,35.1 527.3,34.9 528.6,34.8 529.8,34.7 531.0,34.6 532.2,34.4 533.4,34.3 534.7,34.2 535.9,34.1 537.1,34.0 538.3,33.8 539.5,33.7 540.7,33.4 542.0,33.2 543.2,33.0 544.4,32.8 545.6,32.7 546.8,32.5 548.1,32.4 549.3,32.3 550.5,32.2 551.7,32.1 552.9,32.0 554.2,31.8 555.4,31.6 556.6,31.5 557.8,31.3 559.0,31.2 560.2,31.0 561.5,30.8 562.7,30.7 563.9,30.6 565.1,30.5 566.3,30.4 567.6,30.3 568.8,30.2 570.0,30.0 570.0,30.0,120" />
  
  <!-- Linea principale -->
  <polyline fill="none" stroke="#0366d6" stroke-width="2.5" stroke-linecap="round" stroke-linejoin="round" points="30.0,120.0 31.2,119.5 32.4,119.0 33.7,118.6 34.9,118.4 36.1,118.2 37.3,117.6 38.5,117.3 39.8,117.0 41.0,116.4 42.2,116.2 43.4,115.9 44.6,115.7 45.8,115.5 47.1,115.1 48.3,114.7 49.5,114.3 50.7,114.1 51.9,114.0 53.2,113.7 54.4,113.4 55.6,113.2 56.8,113.0 58.0,112.8 59.3,111.9 60.5,111.6 61.7,111.3 62.9,110.9 64.1,110.6 65.3,110.3 66.6,110.1 67.8,109.9 69.0,109.7 70.2,109.3 71.4,108.9 72.7,108.6 73.9,108.3 75.1,108.2 76.3,108.2 77.5,108.0 78.8,107.7 80.0,107.5 81.2,107.4 82.4,107.1 83.6,106.6 84.9,106.5 86.1,106.4 87.3,106.2 88.5,105.8 89.7,105.6 90.9,105.2 92.2,104.9 93.4,104.5 94.6,104.5 95.8,104.3 97.0,103.9 98.3,103.5 99.5,103.3 100.7,103.1 101.9,102.9 103.1,102.8 104.4,102.4 105.6,102.0 106.8,101.7 108.0,101.3 109.2,101.2 110.5,101.1 111.7,100.9 112.9,100.6 114.1,100.5 115.3,100.3 116.5,100.2 117.8,100.0 119.0,99.9 120.2,99.7 121.4,99.6 122.6,99.5 123.9,99.2 125.1,99.0 126.3,98.9 127.5,98.8 128.7,98.7 130.0,98.7 131.2,104.8 132.4,104.2 133.6,103.7 134.8,103.1 136.0,101.4 137.3,100.3 138.5,99.0 139.7,98.6 140.9,98.0 142.1,97.2 143.4,96.3 144.6,95.6 145.8,95.3 147.0,95.1 148.2,94.4 149.5,93.9 150.7,93.6 151.9,93.2 153.1,93.1 154.3,93.0 155.6,92.6 156.8,92.1 158.0,91.7 159.2,91.3 160.4,90.8 161.6,90.6 162.9,90.4 164.1,90.0 165.3,89.7 166.5,89.3 167.7,89.1 169.0,88.9 170.2,88.9 171.4,88.7 172.6,88.4 173.8,88.1 175.1,87.9 176.3,87.7 177.5,87.6 178.7,87.4 179.9,87.2 181.2,87.1 182.4,86.9 183.6,86.6 184.8,86.4 186.0,86.1 187.2,86.0 188.5,85.8 189.7,85.7 190.9,85.5 192.1,85.4 193.3,84.9 194.6,84.6 195.8,84.3 197.0,84.1 198.2,84.1 199.4,83.9 200.7,83.7 201.9,83.5 203.1,83.3 204.3,83.0 205.5,82.8 206.7,82.7 208.0,82.6 209.2,82.5 210.4,82.4 211.6,82.2 212.8,82.0 214.1,81.8 215.3,81.6 216.5,81.6 217.7,81.4 218.9,81.4 220.2,81.1 221.4,80.9 222.6,80.7 223.8,80.5 225.0,80.3 226.3,80.2 227.5,80.1 228.7,80.0 229.9,79.7 231.1,79.5 232.3,79.3 233.6,79.1 234.8,78.8 236.0,78.7 237.2,78.6 238.4,78.5 239.7,78.3 240.9,78.2 242.1,78.0 243.3,77.8 244.5,77.7 245.8,77.6 247.0,77.4 248.2,77.3 249.4,77.2 250.6,77.1 251.9,76.8 253.1,76.7 254.3,76.5 255.5,76.4 256.7,76.3 257.9,76.2 259.2,76.1 260.4,75.9 261.6,75.8 262.8,75.5 264.0,75.2 265.3,75.1 266.5,74.9 267.7,74.9 268.9,74.8 270.1,74.6 271.4,74.4 272.6,74.3 273.8,74.2 275.0,74.0 276.2,73.9 277.4,73.7 278.7,73.6 279.9,73.5 281.1,73.3 282.3,73.1 283.5,72.9 284.8,72.7 286.0,72.6 287.2,72.6 288.4,72.5 289.6,72.4 290.9,72.2 292.1,72.1 293.3,71.9 294.5,71.8 295.7,71.7 297.0,71.6 298.2,71.4 299.4,71.3 300.6,71.1 301.8,70.9 303.0,70.8 304.3,70.6 305.5,70.5 306.7,70.4 307.9,70.3 309.1,70.2 310.4,70.1 311.6,70.0 312.8,69.8 314.0,69.7 315.2,69.5 316.5,69.4 317.7,69.3 318.9,69.2 320.1,69.0 321.3,68.9 322.6,68.8 323.8,68.7 325.0,68.5 326.2,68.4 327.4,68.2 328.6,68.2 329.9,68.1 331.1,68.0 332.3,67.9 333.5,67.7 334.7,67.6 336.0,67.6 337.2,67.5 338.4,67.2 339.6,67.0 340.8,71.0 342.1,70.2 343.3,68.7 344.5,68.1 345.7,67.4 346.9,66.6 348.1,66.1 349.4,65.8 350.6,65.2 351.8,64.3 353.0,63.7 354.2,63.5 355.5,63.2 356.7,62.9 357.9,62.5 359.1,62.0 360.3,61.5 361.6,61.3 362.8,60.9 364.0,60.7 365.2,60.4 366.4,60.2 367.7,59.9 368.9,59.7 370.1,59.3 371.3,59.0 372.5,58.6 373.7,58.0 375.0,57.7 376.2,57.5 377.4,57.4 378.6,57.2 379.8,56.8 381.1,56.5 382.3,56.2 383.5,55.4 384.7,54.8 385.9,54.5 387.2,54.3 388.4,54.1 389.6,53.6 390.8,53.3 392.0,52.8 393.3,52.5 394.5,52.2 395.7,51.9 396.9,51.5 398.1,51.3 399.3,51.2 400.6,51.0 401.8,50.9 403.0,50.6 404.2,50.5 405.4,50.3 406.7,50.1 407.9,49.9 409.1,49.7 410.3,49.5 411.5,49.3 412.8,49.2 414.0,49.0 415.2,48.9 416.4,48.7 417.6,48.6 418.8,48.5 420.1,48.4 421.3,48.2 422.5,48.1 423.7,47.9 424.9,47.7 426.2,47.5 427.4,47.4 428.6,47.2 429.8,47.1 431.0,47.0 432.3,46.9 433.5,46.7 434.7,46.6 435.9,46.5 437.1,46.4 438.4,46.2 439.6,46.1 440.8,45.8 442.0,45.6 443.2,45.5 444.4,45.3 445.7,45.1 446.9,44.9 448.1,44.7 449.3,44.5 450.5,44.3 451.8,44.1 453.0,43.9 454.2,43.7 455.4,43.5 456.6,43.2 457.9,43.1 459.1,43.0 460.3,42.9 461.5,42.8 462.7,42.6 464.0,42.5 465.2,42.3 466.4,42.2 467.6,42.0 468.8,41.7 470.0,41.5 471.3,41.3 472.5,41.0 473.7,40.9 474.9,40.8 476.1,40.7 477.4,40.6 478.6,40.4 479.8,40.3 481.0,40.1 482.2,39.9 483.5,39.7 484.7,39.5 485.9,39.4 487.1,39.3 488.3,39.1 489.5,39.1 490.8,39.0 492.0,38.9 493.2,38.7 494.4,38.6 495.6,38.5 496.9,38.3 498.1,38.1 499.3,38.0 500.5,37.9 501.7,37.7 503.0,37.6 504.2,37.5 505.4,37.4 506.6,37.3 507.8,37.1 509.1,36.9 510.3,36.7 511.5,36.5 512.7,36.3 513.9,36.2 515.1,36.1 516.4,36.0 517.6,35.9 518.8,35.8 520.0,35.7 521.2,35.6 522.5,35.5 523.7,35.4 524.9,35.3 526.1,35.1 527.3,34.9 528.6,34.8 529.8,34.7 531.0,34.6 532.2,34.4 533.4,34.3 534.7,34.2 535.9,34.1 537.1,34.0 538.3,33.8 539.5,33.7 540.7,33.4 542.0,33.2 543.2,33.0 544.4,32.8 545.6,32.7 546.8,32.5 548.1,32.4 549.3,32.3 550.5,32.2 551.7,32.1 552.9,32.0 554.2,31.8 555.4,31.6 556.6,31.5 557.8,31.3 559.0,31.2 560.2,31.0 561.5,30.8 562.7,30.7 563.9,30.6 565.1,30.5 566.3,30.4 567.6,30.3 568.8,30.2 570.0,30.0" />
  
  <!-- Punto finale luminoso -->
  <circle cx="570.0" cy="30.0" r="4" fill="#ffffff" stroke="#0366d6" stroke-width="2.5" />
</svg>