<svg width="600" height="150" viewBox="0 0 600 150" xmlns="http://www.w3.org/2000/svg">
  <defs>
    <filter id="shadow2" x="-2%" y="-2%" width="104%" height="108%">
      <feDropShadow dx="0" dy="2" stdDeviation="3" flood-opacity="0.1" />
    </filter>
    <linearGradient id="fillGrad" x1="0" y1="0" x2="0" y2="1">
      <stop offset="0%" stop-color="#0366d6" stop-opacity="0.3"/>
      <stop offset="100%" stop-color="#0366d6" stop-opacity="0.02"/>
    </linearGradient>
  </defs>
  <rect width="600" height="150" rx="12" fill="#ffffff" filter="url(#shadow2)" stroke="#e1e4e8" stroke-width="1"/>
  <text x="20" y="24" fill="#2b3137" font-family="-apple-system,BlinkMacSystemFont,'Segoe UI',Helvetica,Arial,sans-serif" font-size="14" font-weight="600">📈 Download Growth (Actual: 87.0k)</text>
  
  <!-- Area sotto la linea -->
  <polygon fill="url(#fillGrad)" points="30.0,120.0,120 30.0,120.0 31.3,119.5 32.6,119.0 33.9,118.5 35.2,118.4 36.5,118.1 37.8,117.5 39.1,117.1 40.4,116.9 41.7,116.3 43.0,116.0 44.3,115.7 45.6,115.5 46.9,115.2 48.2,114.8 49.5,114.4 50.8,114.1 52.1,113.9 53.4,113.7 54.7,113.4 56.0,113.1 57.3,112.8 58.6,112.7 59.9,112.4 61.2,111.5 62.5,111.2 63.8,110.8 65.1,110.5 66.4,110.1 67.7,109.8 69.0,109.6 70.3,109.5 71.6,109.2 72.9,108.7 74.2,108.4 75.5,108.1 76.8,107.8 78.1,107.7 79.4,107.6 80.7,107.4 82.0,107.1 83.3,107.0 84.7,106.8 86.0,106.5 87.3,106.0 88.6,105.9 89.9,105.8 91.2,105.6 92.5,105.2 93.8,104.9 95.1,104.5 96.4,104.2 97.7,103.8 99.0,103.7 100.3,103.5 101.6,103.1 102.9,102.7 104.2,102.5 105.5,102.3 106.8,102.1 108.1,102.0 109.4,101.5 110.7,101.2 112.0,100.8 113.3,100.5 114.6,100.3 115.9,100.2 117.2,100.0 118.5,99.7 119.8,99.5 121.1,99.4 122.4,99.2 123.7,99.1 125.0,98.9 126.3,98.8 127.6,98.7 128.9,98.6 130.2,98.2 131.5,98.0 132.8,97.9 134.1,97.8 135.4,97.7 136.7,97.7 138.0,104.1 139.3,103.4 140.6,102.9 141.9,102.3 143.2,100.6 144.5,99.3 145.8,98.0 147.1,97.6 148.4,97.0 149.7,96.1 151.0,95.1 152.3,94.4 153.6,94.2 154.9,93.9 156.2,93.2 157.5,92.7 158.8,92.4 160.1,92.0 161.4,91.8 162.7,91.7 164.0,91.3 165.3,90.8 166.6,90.3 167.9,89.9 169.2,89.4 170.5,89.2 171.8,89.0 173.1,88.6 174.4,88.2 175.7,87.9 177.0,87.6 178.3,87.5 179.6,87.4 180.9,87.2 182.2,86.9 183.5,86.6 184.8,86.4 186.1,86.2 187.4,86.0 188.7,85.8 190.0,85.7 191.3,85.5 192.7,85.4 194.0,85.0 195.3,84.8 196.6,84.5 197.9,84.3 199.2,84.2 200.5,84.0 201.8,83.9 203.1,83.7 204.4,83.3 205.7,83.0 207.0,82.6 208.3,82.4 209.6,82.4 210.9,82.2 212.2,82.0 213.5,81.8 214.8,81.5 216.1,81.3 217.4,81.1 218.7,81.0 220.0,80.8 221.3,80.7 222.6,80.6 223.9,80.4 225.2,80.2 226.5,80.0 227.8,79.8 229.1,79.7 230.4,79.6 231.7,79.5 233.0,79.3 234.3,79.1 235.6,78.9 236.9,78.7 238.2,78.5 239.5,78.3 240.8,78.2 242.1,78.1 243.4,77.8 244.7,77.5 246.0,77.4 247.3,77.1 248.6,76.8 249.9,76.7 251.2,76.6 252.5,76.5 253.8,76.3 255.1,76.2 256.4,76.0 257.7,75.9 259.0,75.7 260.3,75.6 261.6,75.4 262.9,75.3 264.2,75.2 265.5,75.0 266.8,74.8 268.1,74.7 269.4,74.5 270.7,74.4 272.0,74.2 273.3,74.1 274.6,74.0 275.9,73.9 277.2,73.7 278.5,73.4 279.8,73.1 281.1,72.9 282.4,72.8 283.7,72.7 285.0,72.7 286.3,72.5 287.6,72.2 288.9,72.1 290.2,72.0 291.5,71.8 292.8,71.7 294.1,71.5 295.4,71.4 296.7,71.3 298.0,71.0 299.3,70.9 300.7,70.7 302.0,70.5 303.3,70.4 304.6,70.3 305.9,70.3 307.2,70.1 308.5,70.0 309.8,69.8 311.1,69.7 312.4,69.5 313.7,69.4 315.0,69.3 316.3,69.1 317.6,69.0 318.9,68.8 320.2,68.6 321.5,68.4 322.8,68.3 324.1,68.2 325.4,68.1 326.7,68.0 328.0,67.9 329.3,67.8 330.6,67.7 331.9,67.4 333.2,67.3 334.5,67.1 335.8,67.0 337.1,66.9 338.4,66.8 339.7,66.6 341.0,66.5 342.3,66.4 343.6,66.2 344.9,66.1 346.2,65.9 347.5,65.8 348.8,65.7 350.1,65.6 351.4,65.5 352.7,65.4 354.0,65.3 355.3,65.2 356.6,65.1 357.9,65.0 359.2,64.7 360.5,64.5 361.8,68.6 363.1,67.8 364.4,66.3 365.7,65.7 367.0,64.9 368.3,64.0 369.6,63.5 370.9,63.2 372.2,62.6 373.5,61.7 374.8,61.0 376.1,60.8 377.4,60.5 378.7,60.2 380.0,59.7 381.3,59.3 382.6,58.8 383.9,58.5 385.2,58.1 386.5,57.8 387.8,57.5 389.1,57.3 390.4,57.1 391.7,56.9 393.0,56.4 394.3,56.1 395.6,55.7 396.9,55.1 398.2,54.8 399.5,54.6 400.8,54.4 402.1,54.2 403.4,53.8 404.7,53.5 406.0,53.2 407.3,52.4 408.7,51.7 410.0,51.4 411.3,51.2 412.6,50.9 413.9,50.5 415.2,50.1 416.5,49.6 417.8,49.3 419.1,49.0 420.4,48.7 421.7,48.3 423.0,48.1 424.3,47.9 425.6,47.8 426.9,47.6 428.2,47.3 429.5,47.2 430.8,47.0 432.1,46.8 433.4,46.6 434.7,46.3 436.0,46.2 437.3,46.0 438.6,45.8 439.9,45.6 441.2,45.5 442.5,45.4 443.8,45.2 445.1,45.1 446.4,45.0 447.7,44.8 449.0,44.7 450.3,44.5 451.6,44.3 452.9,44.1 454.2,44.0 455.5,43.8 456.8,43.7 458.1,43.6 459.4,43.4 460.7,43.3 462.0,43.1 463.3,43.0 464.6,42.9 465.9,42.7 467.2,42.6 468.5,42.3 469.8,42.1 471.1,42.0 472.4,41.8 473.7,41.6 475.0,41.4 476.3,41.2 477.6,41.0 478.9,40.8 480.2,40.5 481.5,40.3 482.8,40.1 484.1,39.8 485.4,39.6 486.7,39.5 488.0,39.4 489.3,39.3 490.6,39.1 491.9,39.0 493.2,38.8 494.5,38.7 495.8,38.5 497.1,38.3 498.4,38.0 499.7,37.8 501.0,37.6 502.3,37.3 503.6,37.2 504.9,37.0 506.2,36.9 507.5,36.8 508.8,36.7 510.1,36.5 511.4,36.3 512.7,36.2 514.0,35.9 515.3,35.7 516.7,35.6 518.0,35.5 519.3,35.3 520.6,35.2 521.9,35.2 523.2,35.0 524.5,34.8 525.8,34.8 527.1,34.6 528.4,34.4 529.7,34.2 531.0,34.1 532.3,34.0 533.6,33.8 534.9,33.7 536.2,33.6 537.5,33.5 538.8,33.3 540.1,33.2 541.4,33.0 542.7,32.7 544.0,32.6 545.3,32.3 546.6,32.2 547.9,32.1 549.2,32.0 550.5,31.9 551.8,31.8 553.1,31.8 554.4,31.6 555.7,31.5 557.0,31.4 558.3,31.3 559.6,31.1 560.9,30.9 562.2,30.8 563.5,30.7 564.8,30.5 566.1,30.4 567.4,30.3 568.7,30.1 570.0,30.0 570.0,30.0,120" />
  
  <!-- Linea principale -->
  <polyline fill="none" stroke="#0366d6" stroke-width="2.5" stroke-linecap="round" stroke-linejoin="round" points="30.0,120.0 31.3,119.5 32.6,119.0 33.9,118.5 35.2,118.4 36.5,118.1 37.8,117.5 39.1,117.1 40.4,116.9 41.7,116.3 43.0,116.0 44.3,115.7 45.6,115.5 46.9,115.2 48.2,114.8 49.5,114.4 50.8,114.1 52.1,113.9 53.4,113.7 54.7,113.4 56.0,113.1 57.3,112.8 58.6,112.7 59.9,112.4 61.2,111.5 62.5,111.2 63.8,110.8 65.1,110.5 66.4,110.1 67.7,109.8 69.0,109.6 70.3,109.5 71.6,109.2 72.9,108.7 74.2,108.4 75.5,108.1 76.8,107.8 78.1,107.7 79.4,107.6 80.7,107.4 82.0,107.1 83.3,107.0 84.7,106.8 86.0,106.5 87.3,106.0 88.6,105.9 89.9,105.8 91.2,105.6 92.5,105.2 93.8,104.9 95.1,104.5 96.4,104.2 97.7,103.8 99.0,103.7 100.3,103.5 101.6,103.1 102.9,102.7 104.2,102.5 105.5,102.3 106.8,102.1 108.1,102.0 109.4,101.5 110.7,101.2 112.0,100.8 113.3,100.5 114.6,100.3 115.9,100.2 117.2,100.0 118.5,99.7 119.8,99.5 121.1,99.4 122.4,99.2 123.7,99.1 125.0,98.9 126.3,98.8 127.6,98.7 128.9,98.6 130.2,98.2 131.5,98.0 132.8,97.9 134.1,97.8 135.4,97.7 136.7,97.7 138.0,104.1 139.3,103.4 140.6,102.9 141.9,102.3 143.2,100.6 144.5,99.3 145.8,98.0 147.1,97.6 148.4,97.0 149.7,96.1 151.0,95.1 152.3,94.4 153.6,94.2 154.9,93.9 156.2,93.2 157.5,92.7 158.8,92.4 160.1,92.0 161.4,91.8 162.7,91.7 164.0,91.3 165.3,90.8 166.6,90.3 167.9,89.9 169.2,89.4 170.5,89.2 171.8,89.0 173.1,88.6 174.4,88.2 175.7,87.9 177.0,87.6 178.3,87.5 179.6,87.4 180.9,87.2 182.2,86.9 183.5,86.6 184.8,86.4 186.1,86.2 187.4,86.0 188.7,85.8 190.0,85.7 191.3,85.5 192.7,85.4 194.0,85.0 195.3,84.8 196.6,84.5 197.9,84.3 199.2,84.2 200.5,84.0 201.8,83.9 203.1,83.7 204.4,83.3 205.7,83.0 207.0,82.6 208.3,82.4 209.6,82.4 210.9,82.2 212.2,82.0 213.5,81.8 214.8,81.5 216.1,81.3 217.4,81.1 218.7,81.0 220.0,80.8 221.3,80.7 222.6,80.6 223.9,80.4 225.2,80.2 226.5,80.0 227.8,79.8 229.1,79.7 230.4,79.6 231.7,79.5 233.0,79.3 234.3,79.1 235.6,78.9 236.9,78.7 238.2,78.5 239.5,78.3 240.8,78.2 242.1,78.1 243.4,77.8 244.7,77.5 246.0,77.4 247.3,77.1 248.6,76.8 249.9,76.7 251.2,76.6 252.5,76.5 253.8,76.3 255.1,76.2 256.4,76.0 257.7,75.9 259.0,75.7 260.3,75.6 261.6,75.4 262.9,75.3 264.2,75.2 265.5,75.0 266.8,74.8 268.1,74.7 269.4,74.5 270.7,74.4 272.0,74.2 273.3,74.1 274.6,74.0 275.9,73.9 277.2,73.7 278.5,73.4 279.8,73.1 281.1,72.9 282.4,72.8 283.7,72.7 285.0,72.7 286.3,72.5 287.6,72.2 288.9,72.1 290.2,72.0 291.5,71.8 292.8,71.7 294.1,71.5 295.4,71.4 296.7,71.3 298.0,71.0 299.3,70.9 300.7,70.7 302.0,70.5 303.3,70.4 304.6,70.3 305.9,70.3 307.2,70.1 308.5,70.0 309.8,69.8 311.1,69.7 312.4,69.5 313.7,69.4 315.0,69.3 316.3,69.1 317.6,69.0 318.9,68.8 320.2,68.6 321.5,68.4 322.8,68.3 324.1,68.2 325.4,68.1 326.7,68.0 328.0,67.9 329.3,67.8 330.6,67.7 331.9,67.4 333.2,67.3 334.5,67.1 335.8,67.0 337.1,66.9 338.4,66.8 339.7,66.6 341.0,66.5 342.3,66.4 343.6,66.2 344.9,66.1 346.2,65.9 347.5,65.8 348.8,65.7 350.1,65.6 351.4,65.5 352.7,65.4 354.0,65.3 355.3,65.2 356.6,65.1 357.9,65.0 359.2,64.7 360.5,64.5 361.8,68.6 363.1,67.8 364.4,66.3 365.7,65.7 367.0,64.9 368.3,64.0 369.6,63.5 370.9,63.2 372.2,62.6 373.5,61.7 374.8,61.0 376.1,60.8 377.4,60.5 378.7,60.2 380.0,59.7 381.3,59.3 382.6,58.8 383.9,58.5 385.2,58.1 386.5,57.8 387.8,57.5 389.1,57.3 390.4,57.1 391.7,56.9 393.0,56.4 394.3,56.1 395.6,55.7 396.9,55.1 398.2,54.8 399.5,54.6 400.8,54.4 402.1,54.2 403.4,53.8 404.7,53.5 406.0,53.2 407.3,52.4 408.7,51.7 410.0,51.4 411.3,51.2 412.6,50.9 413.9,50.5 415.2,50.1 416.5,49.6 417.8,49.3 419.1,49.0 420.4,48.7 421.7,48.3 423.0,48.1 424.3,47.9 425.6,47.8 426.9,47.6 428.2,47.3 429.5,47.2 430.8,47.0 432.1,46.8 433.4,46.6 434.7,46.3 436.0,46.2 437.3,46.0 438.6,45.8 439.9,45.6 441.2,45.5 442.5,45.4 443.8,45.2 445.1,45.1 446.4,45.0 447.7,44.8 449.0,44.7 450.3,44.5 451.6,44.3 452.9,44.1 454.2,44.0 455.5,43.8 456.8,43.7 458.1,43.6 459.4,43.4 460.7,43.3 462.0,43.1 463.3,43.0 464.6,42.9 465.9,42.7 467.2,42.6 468.5,42.3 469.8,42.1 471.1,42.0 472.4,41.8 473.7,41.6 475.0,41.4 476.3,41.2 477.6,41.0 478.9,40.8 480.2,40.5 481.5,40.3 482.8,40.1 484.1,39.8 485.4,39.6 486.7,39.5 488.0,39.4 489.3,39.3 490.6,39.1 491.9,39.0 493.2,38.8 494.5,38.7 495.8,38.5 497.1,38.3 498.4,38.0 499.7,37.8 501.0,37.6 502.3,37.3 503.6,37.2 504.9,37.0 506.2,36.9 507.5,36.8 508.8,36.7 510.1,36.5 511.4,36.3 512.7,36.2 514.0,35.9 515.3,35.7 516.7,35.6 518.0,35.5 519.3,35.3 520.6,35.2 521.9,35.2 523.2,35.0 524.5,34.8 525.8,34.8 527.1,34.6 528.4,34.4 529.7,34.2 531.0,34.1 532.3,34.0 533.6,33.8 534.9,33.7 536.2,33.6 537.5,33.5 538.8,33.3 540.1,33.2 541.4,33.0 542.7,32.7 544.0,32.6 545.3,32.3 546.6,32.2 547.9,32.1 549.2,32.0 550.5,31.9 551.8,31.8 553.1,31.8 554.4,31.6 555.7,31.5 557.0,31.4 558.3,31.3 559.6,31.1 560.9,30.9 562.2,30.8 563.5,30.7 564.8,30.5 566.1,30.4 567.4,30.3 568.7,30.1 570.0,30.0" />
  
  <!-- Punto finale luminoso -->
  <circle cx="570.0" cy="30.0" r="4" fill="#ffffff" stroke="#0366d6" stroke-width="2.5" />
</svg>