<svg width="600" height="150" viewBox="0 0 600 150" xmlns="http://www.w3.org/2000/svg">
  <defs>
    <filter id="shadow2" x="-2%" y="-2%" width="104%" height="108%">
      <feDropShadow dx="0" dy="2" stdDeviation="3" flood-opacity="0.1" />
    </filter>
    <linearGradient id="fillGrad" x1="0" y1="0" x2="0" y2="1">
      <stop offset="0%" stop-color="#0366d6" stop-opacity="0.3"/>
      <stop offset="100%" stop-color="#0366d6" stop-opacity="0.02"/>
    </linearGradient>
  </defs>
  <rect width="600" height="150" rx="12" fill="#ffffff" filter="url(#shadow2)" stroke="#e1e4e8" stroke-width="1"/>
  <text x="20" y="24" fill="#2b3137" font-family="-apple-system,BlinkMacSystemFont,'Segoe UI',Helvetica,Arial,sans-serif" font-size="14" font-weight="600">📈 Download Growth (Actual: 84.9k)</text>
  
  <!-- Area sotto la linea -->
  <polygon fill="url(#fillGrad)" points="30.0,120.0,120 30.0,120.0 31.5,119.4 33.1,118.8 34.6,118.3 36.2,118.2 37.7,117.9 39.3,117.2 40.8,116.8 42.3,116.5 43.9,115.8 45.4,115.5 47.0,115.2 48.5,115.0 50.1,114.7 51.6,114.2 53.1,113.7 54.7,113.4 56.2,113.1 57.8,112.9 59.3,112.6 60.9,112.3 62.4,112.0 63.9,111.8 65.5,111.5 67.0,110.5 68.6,110.2 70.1,109.7 71.7,109.3 73.2,109.0 74.7,108.6 76.3,108.4 77.8,108.2 79.4,107.9 80.9,107.4 82.5,107.0 84.0,106.7 85.5,106.3 87.1,106.2 88.6,106.1 90.2,105.9 91.7,105.6 93.3,105.4 94.8,105.3 96.3,104.9 97.9,104.3 99.4,104.2 101.0,104.1 102.5,103.8 104.1,103.4 105.6,103.1 107.1,102.6 108.7,102.3 110.2,101.9 111.8,101.8 113.3,101.5 114.9,101.1 116.4,100.7 117.9,100.4 119.5,100.2 121.0,100.0 122.6,99.8 124.1,99.3 125.7,98.9 127.2,98.5 128.7,98.1 130.3,97.9 131.8,97.8 133.4,97.6 134.9,97.3 136.5,97.1 138.0,96.9 139.5,96.8 141.1,96.6 142.6,96.4 144.2,96.2 145.7,96.1 147.3,96.0 148.8,95.6 150.3,95.4 151.9,95.3 153.4,95.1 155.0,95.0 156.5,95.0 158.1,102.2 159.6,101.5 161.1,100.8 162.7,100.2 164.2,98.2 165.8,96.9 167.3,95.4 168.9,94.9 170.4,94.3 171.9,93.3 173.5,92.2 175.0,91.4 176.6,91.1 178.1,90.8 179.7,90.0 181.2,89.4 182.7,89.1 184.3,88.6 185.8,88.4 187.4,88.3 188.9,87.9 190.5,87.3 192.0,86.8 193.5,86.3 195.1,85.8 196.6,85.5 198.2,85.3 199.7,84.9 201.3,84.4 202.8,84.1 204.3,83.7 205.9,83.6 207.4,83.5 209.0,83.2 210.5,82.9 212.1,82.6 213.6,82.4 215.1,82.2 216.7,82.0 218.2,81.8 219.8,81.6 221.3,81.4 222.9,81.2 224.4,80.9 225.9,80.6 227.5,80.3 229.0,80.1 230.6,79.9 232.1,79.7 233.7,79.6 235.2,79.4 236.7,78.9 238.3,78.5 239.8,78.1 241.4,77.9 242.9,77.9 244.5,77.7 246.0,77.5 247.5,77.2 249.1,77.0 250.6,76.6 252.2,76.4 253.7,76.3 255.3,76.2 256.8,76.0 258.3,75.9 259.9,75.7 261.4,75.5 263.0,75.2 264.5,75.0 266.1,74.9 267.6,74.8 269.1,74.7 270.7,74.4 272.2,74.2 273.8,74.0 275.3,73.7 276.9,73.5 278.4,73.3 279.9,73.2 281.5,73.1 283.0,72.8 284.6,72.5 286.1,72.3 287.7,72.0 289.2,71.6 290.7,71.5 292.3,71.4 293.8,71.3 295.4,71.1 296.9,70.9 298.5,70.7 300.0,70.6 301.5,70.4 303.1,70.2 304.6,70.1 306.2,69.9 307.7,69.9 309.3,69.7 310.8,69.4 312.3,69.2 313.9,69.0 315.4,68.9 317.0,68.8 318.5,68.6 320.1,68.5 321.6,68.3 323.1,68.2 324.7,67.9 326.2,67.5 327.8,67.3 329.3,67.1 330.9,67.1 332.4,67.0 333.9,66.8 335.5,66.5 337.0,66.4 338.6,66.3 340.1,66.1 341.7,65.9 343.2,65.7 344.7,65.6 346.3,65.5 347.8,65.2 349.4,65.0 350.9,64.8 352.5,64.5 354.0,64.5 355.5,64.4 357.1,64.3 358.6,64.1 360.2,64.0 361.7,63.8 363.3,63.6 364.8,63.4 366.3,63.3 367.9,63.2 369.4,63.0 371.0,62.9 372.5,62.7 374.1,62.4 375.6,62.3 377.1,62.1 378.7,62.0 380.2,61.9 381.8,61.8 383.3,61.7 384.9,61.6 386.4,61.4 387.9,61.1 389.5,61.0 391.0,60.8 392.6,60.7 394.1,60.6 395.7,60.4 397.2,60.2 398.7,60.1 400.3,60.0 401.8,59.8 403.4,59.6 404.9,59.5 406.5,59.3 408.0,59.2 409.5,59.1 411.1,59.0 412.6,58.9 414.2,58.7 415.7,58.6 417.3,58.6 418.8,58.4 420.3,58.1 421.9,57.8 423.4,62.5 425.0,61.6 426.5,59.8 428.1,59.2 429.6,58.3 431.1,57.3 432.7,56.8 434.2,56.4 435.8,55.7 437.3,54.7 438.9,54.0 440.4,53.7 441.9,53.4 443.5,53.1 445.0,52.5 446.6,52.0 448.1,51.5 449.7,51.2 451.2,50.7 452.7,50.4 454.3,50.1 455.8,49.8 457.4,49.6 458.9,49.3 460.5,48.8 462.0,48.5 463.5,48.0 465.1,47.4 466.6,47.0 468.2,46.8 469.7,46.6 471.3,46.3 472.8,45.9 474.3,45.6 475.9,45.2 477.4,44.3 479.0,43.5 480.5,43.2 482.1,43.0 483.6,42.7 485.1,42.2 486.7,41.8 488.2,41.2 489.8,40.9 491.3,40.5 492.9,40.2 494.4,39.7 495.9,39.5 497.5,39.3 499.0,39.1 500.6,39.0 502.1,38.7 503.7,38.5 505.2,38.2 506.7,38.0 508.3,37.9 509.8,37.5 511.4,37.4 512.9,37.2 514.5,37.0 516.0,36.8 517.5,36.6 519.1,36.5 520.6,36.3 522.2,36.1 523.7,36.0 525.3,35.8 526.8,35.7 528.3,35.5 529.9,35.2 531.4,35.0 533.0,34.9 534.5,34.7 536.1,34.5 537.6,34.4 539.1,34.3 540.7,34.1 542.2,33.9 543.8,33.8 545.3,33.7 546.9,33.5 548.4,33.3 549.9,33.0 551.5,32.8 553.0,32.7 554.6,32.4 556.1,32.2 557.7,32.0 559.2,31.7 560.7,31.5 562.3,31.3 563.8,31.0 565.4,30.8 566.9,30.5 568.5,30.3 570.0,30.0 570.0,30.0,120" />
  
  <!-- Linea principale -->
  <polyline fill="none" stroke="#0366d6" stroke-width="2.5" stroke-linecap="round" stroke-linejoin="round" points="30.0,120.0 31.5,119.4 33.1,118.8 34.6,118.3 36.2,118.2 37.7,117.9 39.3,117.2 40.8,116.8 42.3,116.5 43.9,115.8 45.4,115.5 47.0,115.2 48.5,115.0 50.1,114.7 51.6,114.2 53.1,113.7 54.7,113.4 56.2,113.1 57.8,112.9 59.3,112.6 60.9,112.3 62.4,112.0 63.9,111.8 65.5,111.5 67.0,110.5 68.6,110.2 70.1,109.7 71.7,109.3 73.2,109.0 74.7,108.6 76.3,108.4 77.8,108.2 79.4,107.9 80.9,107.4 82.5,107.0 84.0,106.7 85.5,106.3 87.1,106.2 88.6,106.1 90.2,105.9 91.7,105.6 93.3,105.4 94.8,105.3 96.3,104.9 97.9,104.3 99.4,104.2 101.0,104.1 102.5,103.8 104.1,103.4 105.6,103.1 107.1,102.6 108.7,102.3 110.2,101.9 111.8,101.8 113.3,101.5 114.9,101.1 116.4,100.7 117.9,100.4 119.5,100.2 121.0,100.0 122.6,99.8 124.1,99.3 125.7,98.9 127.2,98.5 128.7,98.1 130.3,97.9 131.8,97.8 133.4,97.6 134.9,97.3 136.5,97.1 138.0,96.9 139.5,96.8 141.1,96.6 142.6,96.4 144.2,96.2 145.7,96.1 147.3,96.0 148.8,95.6 150.3,95.4 151.9,95.3 153.4,95.1 155.0,95.0 156.5,95.0 158.1,102.2 159.6,101.5 161.1,100.8 162.7,100.2 164.2,98.2 165.8,96.9 167.3,95.4 168.9,94.9 170.4,94.3 171.9,93.3 173.5,92.2 175.0,91.4 176.6,91.1 178.1,90.8 179.7,90.0 181.2,89.4 182.7,89.1 184.3,88.6 185.8,88.4 187.4,88.3 188.9,87.9 190.5,87.3 192.0,86.8 193.5,86.3 195.1,85.8 196.6,85.5 198.2,85.3 199.7,84.9 201.3,84.4 202.8,84.1 204.3,83.7 205.9,83.6 207.4,83.5 209.0,83.2 210.5,82.9 212.1,82.6 213.6,82.4 215.1,82.2 216.7,82.0 218.2,81.8 219.8,81.6 221.3,81.4 222.9,81.2 224.4,80.9 225.9,80.6 227.5,80.3 229.0,80.1 230.6,79.9 232.1,79.7 233.7,79.6 235.2,79.4 236.7,78.9 238.3,78.5 239.8,78.1 241.4,77.9 242.9,77.9 244.5,77.7 246.0,77.5 247.5,77.2 249.1,77.0 250.6,76.6 252.2,76.4 253.7,76.3 255.3,76.2 256.8,76.0 258.3,75.9 259.9,75.7 261.4,75.5 263.0,75.2 264.5,75.0 266.1,74.9 267.6,74.8 269.1,74.7 270.7,74.4 272.2,74.2 273.8,74.0 275.3,73.7 276.9,73.5 278.4,73.3 279.9,73.2 281.5,73.1 283.0,72.8 284.6,72.5 286.1,72.3 287.7,72.0 289.2,71.6 290.7,71.5 292.3,71.4 293.8,71.3 295.4,71.1 296.9,70.9 298.5,70.7 300.0,70.6 301.5,70.4 303.1,70.2 304.6,70.1 306.2,69.9 307.7,69.9 309.3,69.7 310.8,69.4 312.3,69.2 313.9,69.0 315.4,68.9 317.0,68.8 318.5,68.6 320.1,68.5 321.6,68.3 323.1,68.2 324.7,67.9 326.2,67.5 327.8,67.3 329.3,67.1 330.9,67.1 332.4,67.0 333.9,66.8 335.5,66.5 337.0,66.4 338.6,66.3 340.1,66.1 341.7,65.9 343.2,65.7 344.7,65.6 346.3,65.5 347.8,65.2 349.4,65.0 350.9,64.8 352.5,64.5 354.0,64.5 355.5,64.4 357.1,64.3 358.6,64.1 360.2,64.0 361.7,63.8 363.3,63.6 364.8,63.4 366.3,63.3 367.9,63.2 369.4,63.0 371.0,62.9 372.5,62.7 374.1,62.4 375.6,62.3 377.1,62.1 378.7,62.0 380.2,61.9 381.8,61.8 383.3,61.7 384.9,61.6 386.4,61.4 387.9,61.1 389.5,61.0 391.0,60.8 392.6,60.7 394.1,60.6 395.7,60.4 397.2,60.2 398.7,60.1 400.3,60.0 401.8,59.8 403.4,59.6 404.9,59.5 406.5,59.3 408.0,59.2 409.5,59.1 411.1,59.0 412.6,58.9 414.2,58.7 415.7,58.6 417.3,58.6 418.8,58.4 420.3,58.1 421.9,57.8 423.4,62.5 425.0,61.6 426.5,59.8 428.1,59.2 429.6,58.3 431.1,57.3 432.7,56.8 434.2,56.4 435.8,55.7 437.3,54.7 438.9,54.0 440.4,53.7 441.9,53.4 443.5,53.1 445.0,52.5 446.6,52.0 448.1,51.5 449.7,51.2 451.2,50.7 452.7,50.4 454.3,50.1 455.8,49.8 457.4,49.6 458.9,49.3 460.5,48.8 462.0,48.5 463.5,48.0 465.1,47.4 466.6,47.0 468.2,46.8 469.7,46.6 471.3,46.3 472.8,45.9 474.3,45.6 475.9,45.2 477.4,44.3 479.0,43.5 480.5,43.2 482.1,43.0 483.6,42.7 485.1,42.2 486.7,41.8 488.2,41.2 489.8,40.9 491.3,40.5 492.9,40.2 494.4,39.7 495.9,39.5 497.5,39.3 499.0,39.1 500.6,39.0 502.1,38.7 503.7,38.5 505.2,38.2 506.7,38.0 508.3,37.9 509.8,37.5 511.4,37.4 512.9,37.2 514.5,37.0 516.0,36.8 517.5,36.6 519.1,36.5 520.6,36.3 522.2,36.1 523.7,36.0 525.3,35.8 526.8,35.7 528.3,35.5 529.9,35.2 531.4,35.0 533.0,34.9 534.5,34.7 536.1,34.5 537.6,34.4 539.1,34.3 540.7,34.1 542.2,33.9 543.8,33.8 545.3,33.7 546.9,33.5 548.4,33.3 549.9,33.0 551.5,32.8 553.0,32.7 554.6,32.4 556.1,32.2 557.7,32.0 559.2,31.7 560.7,31.5 562.3,31.3 563.8,31.0 565.4,30.8 566.9,30.5 568.5,30.3 570.0,30.0" />
  
  <!-- Punto finale luminoso -->
  <circle cx="570.0" cy="30.0" r="4" fill="#ffffff" stroke="#0366d6" stroke-width="2.5" />
</svg>