<svg width="600" height="150" viewBox="0 0 600 150" xmlns="http://www.w3.org/2000/svg">
  <defs>
    <filter id="shadow2" x="-2%" y="-2%" width="104%" height="108%">
      <feDropShadow dx="0" dy="2" stdDeviation="3" flood-opacity="0.1" />
    </filter>
    <linearGradient id="fillGrad" x1="0" y1="0" x2="0" y2="1">
      <stop offset="0%" stop-color="#0366d6" stop-opacity="0.3"/>
      <stop offset="100%" stop-color="#0366d6" stop-opacity="0.02"/>
    </linearGradient>
  </defs>
  <rect width="600" height="150" rx="12" fill="#ffffff" filter="url(#shadow2)" stroke="#e1e4e8" stroke-width="1"/>
  <text x="20" y="24" fill="#2b3137" font-family="-apple-system,BlinkMacSystemFont,'Segoe UI',Helvetica,Arial,sans-serif" font-size="14" font-weight="600">📈 Download Growth (Actual: 88.1k)</text>
  
  <!-- Area sotto la linea -->
  <polygon fill="url(#fillGrad)" points="30.0,120.0,120 30.0,120.0 31.2,119.5 32.4,119.0 33.6,118.6 34.9,118.4 36.1,118.2 37.3,117.6 38.5,117.3 39.7,117.0 40.9,116.5 42.1,116.2 43.3,115.9 44.6,115.7 45.8,115.5 47.0,115.1 48.2,114.7 49.4,114.4 50.6,114.2 51.8,114.0 53.1,113.8 54.3,113.4 55.5,113.2 56.7,113.1 57.9,112.8 59.1,111.9 60.3,111.6 61.6,111.3 62.8,110.9 64.0,110.6 65.2,110.3 66.4,110.1 67.6,110.0 68.8,109.7 70.0,109.3 71.3,108.9 72.5,108.7 73.7,108.4 74.9,108.3 76.1,108.2 77.3,108.1 78.5,107.8 79.8,107.6 81.0,107.5 82.2,107.1 83.4,106.7 84.6,106.5 85.8,106.5 87.0,106.3 88.2,105.9 89.5,105.6 90.7,105.2 91.9,104.9 93.1,104.6 94.3,104.5 95.5,104.3 96.7,104.0 98.0,103.6 99.2,103.3 100.4,103.2 101.6,103.0 102.8,102.9 104.0,102.4 105.2,102.1 106.4,101.7 107.7,101.4 108.9,101.2 110.1,101.1 111.3,101.0 112.5,100.7 113.7,100.5 114.9,100.4 116.2,100.2 117.4,100.1 118.6,99.9 119.8,99.8 121.0,99.7 122.2,99.6 123.4,99.3 124.7,99.1 125.9,99.0 127.1,98.9 128.3,98.8 129.5,98.8 130.7,104.9 131.9,104.3 133.1,103.7 134.4,103.2 135.6,101.5 136.8,100.4 138.0,99.1 139.2,98.7 140.4,98.1 141.6,97.3 142.9,96.4 144.1,95.7 145.3,95.4 146.5,95.2 147.7,94.5 148.9,94.0 150.1,93.7 151.3,93.3 152.6,93.2 153.8,93.1 155.0,92.7 156.2,92.2 157.4,91.8 158.6,91.4 159.8,90.9 161.1,90.7 162.3,90.5 163.5,90.1 164.7,89.8 165.9,89.5 167.1,89.2 168.3,89.1 169.6,89.0 170.8,88.8 172.0,88.5 173.2,88.3 174.4,88.0 175.6,87.9 176.8,87.7 178.0,87.5 179.3,87.4 180.5,87.2 181.7,87.1 182.9,86.7 184.1,86.5 185.3,86.2 186.5,86.1 187.8,85.9 189.0,85.8 190.2,85.6 191.4,85.5 192.6,85.1 193.8,84.8 195.0,84.4 196.2,84.3 197.5,84.2 198.7,84.1 199.9,83.9 201.1,83.6 202.3,83.4 203.5,83.2 204.7,83.0 206.0,82.9 207.2,82.7 208.4,82.6 209.6,82.5 210.8,82.3 212.0,82.2 213.2,81.9 214.4,81.8 215.7,81.7 216.9,81.6 218.1,81.5 219.3,81.3 220.5,81.1 221.7,80.9 222.9,80.7 224.2,80.5 225.4,80.4 226.6,80.3 227.8,80.1 229.0,79.9 230.2,79.6 231.4,79.4 232.7,79.2 233.9,78.9 235.1,78.8 236.3,78.7 237.5,78.6 238.7,78.5 239.9,78.3 241.1,78.1 242.4,78.0 243.6,77.9 244.8,77.7 246.0,77.6 247.2,77.5 248.4,77.4 249.6,77.2 250.9,77.0 252.1,76.9 253.3,76.7 254.5,76.6 255.7,76.5 256.9,76.3 258.1,76.2 259.3,76.1 260.6,76.0 261.8,75.7 263.0,75.4 264.2,75.2 265.4,75.1 266.6,75.0 267.8,75.0 269.1,74.8 270.3,74.5 271.5,74.4 272.7,74.3 273.9,74.2 275.1,74.0 276.3,73.9 277.6,73.8 278.8,73.7 280.0,73.4 281.2,73.3 282.4,73.1 283.6,72.9 284.8,72.8 286.0,72.7 287.3,72.7 288.5,72.5 289.7,72.4 290.9,72.3 292.1,72.1 293.3,71.9 294.5,71.8 295.8,71.7 297.0,71.6 298.2,71.5 299.4,71.3 300.6,71.1 301.8,70.9 303.0,70.8 304.2,70.7 305.5,70.6 306.7,70.5 307.9,70.4 309.1,70.3 310.3,70.2 311.5,70.0 312.7,69.9 314.0,69.7 315.2,69.6 316.4,69.5 317.6,69.4 318.8,69.2 320.0,69.1 321.2,69.0 322.4,68.9 323.7,68.7 324.9,68.6 326.1,68.4 327.3,68.4 328.5,68.3 329.7,68.2 330.9,68.1 332.2,67.9 333.4,67.8 334.6,67.8 335.8,67.7 337.0,67.4 338.2,67.2 339.4,71.2 340.7,70.4 341.9,68.9 343.1,68.3 344.3,67.6 345.5,66.8 346.7,66.3 347.9,66.0 349.1,65.4 350.4,64.6 351.6,63.9 352.8,63.7 354.0,63.4 355.2,63.1 356.4,62.7 357.6,62.3 358.9,61.8 360.1,61.5 361.3,61.1 362.5,60.9 363.7,60.6 364.9,60.4 366.1,60.2 367.3,60.0 368.6,59.5 369.8,59.2 371.0,58.8 372.2,58.3 373.4,58.0 374.6,57.8 375.8,57.6 377.1,57.4 378.3,57.1 379.5,56.7 380.7,56.5 381.9,55.7 383.1,55.0 384.3,54.7 385.6,54.6 386.8,54.3 388.0,53.9 389.2,53.5 390.4,53.1 391.6,52.8 392.8,52.5 394.0,52.2 395.3,51.8 396.5,51.6 397.7,51.5 398.9,51.3 400.1,51.1 401.3,50.9 402.5,50.8 403.8,50.5 405.0,50.3 406.2,50.2 407.4,49.9 408.6,49.8 409.8,49.6 411.0,49.4 412.2,49.3 413.5,49.1 414.7,49.0 415.9,48.9 417.1,48.7 418.3,48.7 419.5,48.5 420.7,48.3 422.0,48.2 423.2,48.0 424.4,47.8 425.6,47.7 426.8,47.5 428.0,47.4 429.2,47.3 430.4,47.1 431.7,47.0 432.9,46.9 434.1,46.8 435.3,46.7 436.5,46.5 437.7,46.3 438.9,46.1 440.2,45.9 441.4,45.8 442.6,45.6 443.8,45.4 445.0,45.2 446.2,45.0 447.4,44.8 448.7,44.6 449.9,44.4 451.1,44.2 452.3,44.0 453.5,43.8 454.7,43.5 455.9,43.4 457.1,43.3 458.4,43.2 459.6,43.1 460.8,42.9 462.0,42.8 463.2,42.6 464.4,42.4 465.6,42.3 466.9,42.0 468.1,41.8 469.3,41.6 470.5,41.3 471.7,41.2 472.9,41.1 474.1,41.0 475.3,40.9 476.6,40.7 477.8,40.6 479.0,40.4 480.2,40.2 481.4,40.0 482.6,39.9 483.8,39.7 485.1,39.6 486.3,39.4 487.5,39.4 488.7,39.3 489.9,39.2 491.1,39.0 492.3,38.9 493.6,38.8 494.8,38.6 496.0,38.4 497.2,38.3 498.4,38.2 499.6,38.0 500.8,37.9 502.0,37.8 503.3,37.7 504.5,37.6 505.7,37.4 506.9,37.3 508.1,37.0 509.3,36.9 510.5,36.6 511.8,36.5 513.0,36.4 514.2,36.3 515.4,36.2 516.6,36.1 517.8,36.1 519.0,35.9 520.2,35.9 521.5,35.8 522.7,35.6 523.9,35.5 525.1,35.3 526.3,35.1 527.5,35.0 528.7,34.9 530.0,34.7 531.2,34.6 532.4,34.5 533.6,34.4 534.8,34.3 536.0,34.2 537.2,34.0 538.4,33.8 539.7,33.6 540.9,33.3 542.1,33.2 543.3,33.0 544.5,32.9 545.7,32.7 546.9,32.6 548.2,32.5 549.4,32.4 550.6,32.3 551.8,32.1 553.0,32.0 554.2,31.8 555.4,31.7 556.7,31.5 557.9,31.4 559.1,31.1 560.3,31.0 561.5,31.0 562.7,30.8 563.9,30.8 565.1,30.6 566.4,30.5 567.6,30.3 568.8,30.2 570.0,30.0 570.0,30.0,120" />
  
  <!-- Linea principale -->
  <polyline fill="none" stroke="#0366d6" stroke-width="2.5" stroke-linecap="round" stroke-linejoin="round" points="30.0,120.0 31.2,119.5 32.4,119.0 33.6,118.6 34.9,118.4 36.1,118.2 37.3,117.6 38.5,117.3 39.7,117.0 40.9,116.5 42.1,116.2 43.3,115.9 44.6,115.7 45.8,115.5 47.0,115.1 48.2,114.7 49.4,114.4 50.6,114.2 51.8,114.0 53.1,113.8 54.3,113.4 55.5,113.2 56.7,113.1 57.9,112.8 59.1,111.9 60.3,111.6 61.6,111.3 62.8,110.9 64.0,110.6 65.2,110.3 66.4,110.1 67.6,110.0 68.8,109.7 70.0,109.3 71.3,108.9 72.5,108.7 73.7,108.4 74.9,108.3 76.1,108.2 77.3,108.1 78.5,107.8 79.8,107.6 81.0,107.5 82.2,107.1 83.4,106.7 84.6,106.5 85.8,106.5 87.0,106.3 88.2,105.9 89.5,105.6 90.7,105.2 91.9,104.9 93.1,104.6 94.3,104.5 95.5,104.3 96.7,104.0 98.0,103.6 99.2,103.3 100.4,103.2 101.6,103.0 102.8,102.9 104.0,102.4 105.2,102.1 106.4,101.7 107.7,101.4 108.9,101.2 110.1,101.1 111.3,101.0 112.5,100.7 113.7,100.5 114.9,100.4 116.2,100.2 117.4,100.1 118.6,99.9 119.8,99.8 121.0,99.7 122.2,99.6 123.4,99.3 124.7,99.1 125.9,99.0 127.1,98.9 128.3,98.8 129.5,98.8 130.7,104.9 131.9,104.3 133.1,103.7 134.4,103.2 135.6,101.5 136.8,100.4 138.0,99.1 139.2,98.7 140.4,98.1 141.6,97.3 142.9,96.4 144.1,95.7 145.3,95.4 146.5,95.2 147.7,94.5 148.9,94.0 150.1,93.7 151.3,93.3 152.6,93.2 153.8,93.1 155.0,92.7 156.2,92.2 157.4,91.8 158.6,91.4 159.8,90.9 161.1,90.7 162.3,90.5 163.5,90.1 164.7,89.8 165.9,89.5 167.1,89.2 168.3,89.1 169.6,89.0 170.8,88.8 172.0,88.5 173.2,88.3 174.4,88.0 175.6,87.9 176.8,87.7 178.0,87.5 179.3,87.4 180.5,87.2 181.7,87.1 182.9,86.7 184.1,86.5 185.3,86.2 186.5,86.1 187.8,85.9 189.0,85.8 190.2,85.6 191.4,85.5 192.6,85.1 193.8,84.8 195.0,84.4 196.2,84.3 197.5,84.2 198.7,84.1 199.9,83.9 201.1,83.6 202.3,83.4 203.5,83.2 204.7,83.0 206.0,82.9 207.2,82.7 208.4,82.6 209.6,82.5 210.8,82.3 212.0,82.2 213.2,81.9 214.4,81.8 215.7,81.7 216.9,81.6 218.1,81.5 219.3,81.3 220.5,81.1 221.7,80.9 222.9,80.7 224.2,80.5 225.4,80.4 226.6,80.3 227.8,80.1 229.0,79.9 230.2,79.6 231.4,79.4 232.7,79.2 233.9,78.9 235.1,78.8 236.3,78.7 237.5,78.6 238.7,78.5 239.9,78.3 241.1,78.1 242.4,78.0 243.6,77.9 244.8,77.7 246.0,77.6 247.2,77.5 248.4,77.4 249.6,77.2 250.9,77.0 252.1,76.9 253.3,76.7 254.5,76.6 255.7,76.5 256.9,76.3 258.1,76.2 259.3,76.1 260.6,76.0 261.8,75.7 263.0,75.4 264.2,75.2 265.4,75.1 266.6,75.0 267.8,75.0 269.1,74.8 270.3,74.5 271.5,74.4 272.7,74.3 273.9,74.2 275.1,74.0 276.3,73.9 277.6,73.8 278.8,73.7 280.0,73.4 281.2,73.3 282.4,73.1 283.6,72.9 284.8,72.8 286.0,72.7 287.3,72.7 288.5,72.5 289.7,72.4 290.9,72.3 292.1,72.1 293.3,71.9 294.5,71.8 295.8,71.7 297.0,71.6 298.2,71.5 299.4,71.3 300.6,71.1 301.8,70.9 303.0,70.8 304.2,70.7 305.5,70.6 306.7,70.5 307.9,70.4 309.1,70.3 310.3,70.2 311.5,70.0 312.7,69.9 314.0,69.7 315.2,69.6 316.4,69.5 317.6,69.4 318.8,69.2 320.0,69.1 321.2,69.0 322.4,68.9 323.7,68.7 324.9,68.6 326.1,68.4 327.3,68.4 328.5,68.3 329.7,68.2 330.9,68.1 332.2,67.9 333.4,67.8 334.6,67.8 335.8,67.7 337.0,67.4 338.2,67.2 339.4,71.2 340.7,70.4 341.9,68.9 343.1,68.3 344.3,67.6 345.5,66.8 346.7,66.3 347.9,66.0 349.1,65.4 350.4,64.6 351.6,63.9 352.8,63.7 354.0,63.4 355.2,63.1 356.4,62.7 357.6,62.3 358.9,61.8 360.1,61.5 361.3,61.1 362.5,60.9 363.7,60.6 364.9,60.4 366.1,60.2 367.3,60.0 368.6,59.5 369.8,59.2 371.0,58.8 372.2,58.3 373.4,58.0 374.6,57.8 375.8,57.6 377.1,57.4 378.3,57.1 379.5,56.7 380.7,56.5 381.9,55.7 383.1,55.0 384.3,54.7 385.6,54.6 386.8,54.3 388.0,53.9 389.2,53.5 390.4,53.1 391.6,52.8 392.8,52.5 394.0,52.2 395.3,51.8 396.5,51.6 397.7,51.5 398.9,51.3 400.1,51.1 401.3,50.9 402.5,50.8 403.8,50.5 405.0,50.3 406.2,50.2 407.4,49.9 408.6,49.8 409.8,49.6 411.0,49.4 412.2,49.3 413.5,49.1 414.7,49.0 415.9,48.9 417.1,48.7 418.3,48.7 419.5,48.5 420.7,48.3 422.0,48.2 423.2,48.0 424.4,47.8 425.6,47.7 426.8,47.5 428.0,47.4 429.2,47.3 430.4,47.1 431.7,47.0 432.9,46.9 434.1,46.8 435.3,46.7 436.5,46.5 437.7,46.3 438.9,46.1 440.2,45.9 441.4,45.8 442.6,45.6 443.8,45.4 445.0,45.2 446.2,45.0 447.4,44.8 448.7,44.6 449.9,44.4 451.1,44.2 452.3,44.0 453.5,43.8 454.7,43.5 455.9,43.4 457.1,43.3 458.4,43.2 459.6,43.1 460.8,42.9 462.0,42.8 463.2,42.6 464.4,42.4 465.6,42.3 466.9,42.0 468.1,41.8 469.3,41.6 470.5,41.3 471.7,41.2 472.9,41.1 474.1,41.0 475.3,40.9 476.6,40.7 477.8,40.6 479.0,40.4 480.2,40.2 481.4,40.0 482.6,39.9 483.8,39.7 485.1,39.6 486.3,39.4 487.5,39.4 488.7,39.3 489.9,39.2 491.1,39.0 492.3,38.9 493.6,38.8 494.8,38.6 496.0,38.4 497.2,38.3 498.4,38.2 499.6,38.0 500.8,37.9 502.0,37.8 503.3,37.7 504.5,37.6 505.7,37.4 506.9,37.3 508.1,37.0 509.3,36.9 510.5,36.6 511.8,36.5 513.0,36.4 514.2,36.3 515.4,36.2 516.6,36.1 517.8,36.1 519.0,35.9 520.2,35.9 521.5,35.8 522.7,35.6 523.9,35.5 525.1,35.3 526.3,35.1 527.5,35.0 528.7,34.9 530.0,34.7 531.2,34.6 532.4,34.5 533.6,34.4 534.8,34.3 536.0,34.2 537.2,34.0 538.4,33.8 539.7,33.6 540.9,33.3 542.1,33.2 543.3,33.0 544.5,32.9 545.7,32.7 546.9,32.6 548.2,32.5 549.4,32.4 550.6,32.3 551.8,32.1 553.0,32.0 554.2,31.8 555.4,31.7 556.7,31.5 557.9,31.4 559.1,31.1 560.3,31.0 561.5,31.0 562.7,30.8 563.9,30.8 565.1,30.6 566.4,30.5 567.6,30.3 568.8,30.2 570.0,30.0" />
  
  <!-- Punto finale luminoso -->
  <circle cx="570.0" cy="30.0" r="4" fill="#ffffff" stroke="#0366d6" stroke-width="2.5" />
</svg>