<svg width="600" height="150" viewBox="0 0 600 150" xmlns="http://www.w3.org/2000/svg">
  <defs>
    <filter id="shadow2" x="-2%" y="-2%" width="104%" height="108%">
      <feDropShadow dx="0" dy="2" stdDeviation="3" flood-opacity="0.1" />
    </filter>
    <linearGradient id="fillGrad" x1="0" y1="0" x2="0" y2="1">
      <stop offset="0%" stop-color="#0366d6" stop-opacity="0.3"/>
      <stop offset="100%" stop-color="#0366d6" stop-opacity="0.02"/>
    </linearGradient>
  </defs>
  <rect width="600" height="150" rx="12" fill="#ffffff" filter="url(#shadow2)" stroke="#e1e4e8" stroke-width="1"/>
  <text x="20" y="24" fill="#2b3137" font-family="-apple-system,BlinkMacSystemFont,'Segoe UI',Helvetica,Arial,sans-serif" font-size="14" font-weight="600">📈 Download Growth (Actual: 86.4k)</text>
  
  <!-- Area sotto la linea -->
  <polygon fill="url(#fillGrad)" points="30.0,120.0,120 30.0,120.0 31.4,119.5 32.7,118.9 34.1,118.4 35.5,118.3 36.8,118.1 38.2,117.5 39.6,117.1 40.9,116.8 42.3,116.2 43.7,115.9 45.0,115.6 46.4,115.4 47.8,115.1 49.1,114.7 50.5,114.2 51.9,113.9 53.2,113.7 54.6,113.5 56.0,113.2 57.3,112.9 58.7,112.6 60.1,112.5 61.4,112.2 62.8,111.2 64.2,110.9 65.5,110.6 66.9,110.2 68.3,109.9 69.6,109.5 71.0,109.3 72.4,109.2 73.7,108.9 75.1,108.4 76.5,108.0 77.8,107.7 79.2,107.4 80.6,107.3 81.9,107.2 83.3,107.1 84.7,106.8 86.1,106.6 87.4,106.4 88.8,106.1 90.2,105.6 91.5,105.4 92.9,105.3 94.3,105.1 95.6,104.7 97.0,104.4 98.4,104.0 99.7,103.7 101.1,103.3 102.5,103.2 103.8,103.0 105.2,102.6 106.6,102.2 107.9,101.9 109.3,101.8 110.7,101.6 112.0,101.4 113.4,101.0 114.8,100.6 116.1,100.2 117.5,99.9 118.9,99.7 120.2,99.6 121.6,99.4 123.0,99.1 124.3,98.9 125.7,98.8 127.1,98.6 128.4,98.5 129.8,98.3 131.2,98.1 132.5,98.0 133.9,97.9 135.3,97.5 136.6,97.3 138.0,97.3 139.4,97.1 140.7,97.0 142.1,97.0 143.5,103.6 144.8,103.0 146.2,102.4 147.6,101.8 148.9,100.0 150.3,98.7 151.7,97.4 153.0,96.9 154.4,96.3 155.8,95.4 157.1,94.4 158.5,93.7 159.9,93.4 161.2,93.1 162.6,92.4 164.0,91.9 165.3,91.5 166.7,91.1 168.1,91.0 169.4,90.9 170.8,90.5 172.2,89.9 173.5,89.4 174.9,89.0 176.3,88.5 177.6,88.3 179.0,88.1 180.4,87.7 181.7,87.3 183.1,86.9 184.5,86.6 185.8,86.5 187.2,86.4 188.6,86.2 189.9,85.9 191.3,85.6 192.7,85.4 194.1,85.2 195.4,85.0 196.8,84.8 198.2,84.7 199.5,84.5 200.9,84.3 202.3,84.0 203.6,83.7 205.0,83.5 206.4,83.3 207.7,83.1 209.1,83.0 210.5,82.8 211.8,82.7 213.2,82.2 214.6,81.9 215.9,81.5 217.3,81.3 218.7,81.3 220.0,81.1 221.4,80.9 222.8,80.6 224.1,80.4 225.5,80.1 226.9,79.9 228.2,79.8 229.6,79.7 231.0,79.5 232.3,79.4 233.7,79.2 235.1,79.1 236.4,78.8 237.8,78.6 239.2,78.5 240.5,78.4 241.9,78.3 243.3,78.1 244.6,77.9 246.0,77.6 247.4,77.4 248.7,77.2 250.1,77.1 251.5,77.0 252.8,76.9 254.2,76.6 255.6,76.3 256.9,76.1 258.3,75.9 259.7,75.5 261.0,75.4 262.4,75.3 263.8,75.2 265.1,75.0 266.5,74.9 267.9,74.7 269.2,74.5 270.6,74.4 272.0,74.2 273.3,74.1 274.7,74.0 276.1,73.9 277.4,73.7 278.8,73.4 280.2,73.3 281.5,73.1 282.9,73.0 284.3,72.9 285.6,72.7 287.0,72.6 288.4,72.5 289.7,72.3 291.1,72.0 292.5,71.7 293.8,71.5 295.2,71.4 296.6,71.3 297.9,71.3 299.3,71.1 300.7,70.8 302.1,70.7 303.4,70.6 304.8,70.4 306.2,70.2 307.5,70.0 308.9,69.9 310.3,69.8 311.6,69.6 313.0,69.4 314.4,69.2 315.7,69.0 317.1,68.9 318.5,68.8 319.8,68.8 321.2,68.6 322.6,68.5 323.9,68.3 325.3,68.2 326.7,68.0 328.0,67.9 329.4,67.8 330.8,67.6 332.1,67.5 333.5,67.3 334.9,67.1 336.2,66.9 337.6,66.7 339.0,66.6 340.3,66.5 341.7,66.4 343.1,66.3 344.4,66.2 345.8,66.1 347.2,65.9 348.5,65.7 349.9,65.6 351.3,65.5 352.6,65.3 354.0,65.2 355.4,65.0 356.7,64.9 358.1,64.8 359.5,64.7 360.8,64.5 362.2,64.3 363.6,64.2 364.9,64.1 366.3,64.0 367.7,63.9 369.0,63.8 370.4,63.6 371.8,63.5 373.1,63.5 374.5,63.3 375.9,63.0 377.2,62.8 378.6,67.1 380.0,66.3 381.3,64.7 382.7,64.0 384.1,63.3 385.4,62.4 386.8,61.9 388.2,61.5 389.5,60.9 390.9,60.0 392.3,59.3 393.6,59.1 395.0,58.7 396.4,58.4 397.7,57.9 399.1,57.5 400.5,57.0 401.8,56.7 403.2,56.2 404.6,56.0 405.9,55.7 407.3,55.5 408.7,55.2 410.1,55.0 411.4,54.5 412.8,54.2 414.2,53.8 415.5,53.2 416.9,52.8 418.3,52.6 419.6,52.5 421.0,52.2 422.4,51.9 423.7,51.5 425.1,51.2 426.5,50.4 427.8,49.7 429.2,49.4 430.6,49.2 431.9,48.9 433.3,48.4 434.7,48.1 436.0,47.5 437.4,47.2 438.8,46.9 440.1,46.6 441.5,46.2 442.9,46.0 444.2,45.8 445.6,45.6 447.0,45.5 448.3,45.2 449.7,45.0 451.1,44.8 452.4,44.6 453.8,44.4 455.2,44.2 456.5,44.0 457.9,43.8 459.3,43.6 460.6,43.4 462.0,43.3 463.4,43.2 464.7,43.0 466.1,42.9 467.5,42.8 468.8,42.6 470.2,42.4 471.6,42.2 472.9,42.0 474.3,41.8 475.7,41.7 477.0,41.5 478.4,41.4 479.8,41.3 481.1,41.1 482.5,41.0 483.9,40.8 485.2,40.8 486.6,40.6 488.0,40.4 489.3,40.3 490.7,40.0 492.1,39.8 493.4,39.7 494.8,39.4 496.2,39.2 497.5,39.1 498.9,38.8 500.3,38.6 501.6,38.4 503.0,38.2 504.4,37.9 505.7,37.7 507.1,37.5 508.5,37.2 509.8,37.1 511.2,37.0 512.6,36.9 513.9,36.7 515.3,36.6 516.7,36.4 518.1,36.2 519.4,36.0 520.8,35.8 522.2,35.6 523.5,35.3 524.9,35.2 526.3,34.8 527.6,34.7 529.0,34.6 530.4,34.4 531.7,34.3 533.1,34.2 534.5,34.0 535.8,33.8 537.2,33.7 538.6,33.4 539.9,33.2 541.3,33.1 542.7,32.9 544.0,32.8 545.4,32.7 546.8,32.6 548.1,32.5 549.5,32.3 550.9,32.2 552.2,32.1 553.6,31.9 555.0,31.7 556.3,31.5 557.7,31.4 559.1,31.3 560.4,31.2 561.8,31.0 563.2,30.9 564.5,30.8 565.9,30.6 567.3,30.4 568.6,30.2 570.0,30.0 570.0,30.0,120" />
  
  <!-- Linea principale -->
  <polyline fill="none" stroke="#0366d6" stroke-width="2.5" stroke-linecap="round" stroke-linejoin="round" points="30.0,120.0 31.4,119.5 32.7,118.9 34.1,118.4 35.5,118.3 36.8,118.1 38.2,117.5 39.6,117.1 40.9,116.8 42.3,116.2 43.7,115.9 45.0,115.6 46.4,115.4 47.8,115.1 49.1,114.7 50.5,114.2 51.9,113.9 53.2,113.7 54.6,113.5 56.0,113.2 57.3,112.9 58.7,112.6 60.1,112.5 61.4,112.2 62.8,111.2 64.2,110.9 65.5,110.6 66.9,110.2 68.3,109.9 69.6,109.5 71.0,109.3 72.4,109.2 73.7,108.9 75.1,108.4 76.5,108.0 77.8,107.7 79.2,107.4 80.6,107.3 81.9,107.2 83.3,107.1 84.7,106.8 86.1,106.6 87.4,106.4 88.8,106.1 90.2,105.6 91.5,105.4 92.9,105.3 94.3,105.1 95.6,104.7 97.0,104.4 98.4,104.0 99.7,103.7 101.1,103.3 102.5,103.2 103.8,103.0 105.2,102.6 106.6,102.2 107.9,101.9 109.3,101.8 110.7,101.6 112.0,101.4 113.4,101.0 114.8,100.6 116.1,100.2 117.5,99.9 118.9,99.7 120.2,99.6 121.6,99.4 123.0,99.1 124.3,98.9 125.7,98.8 127.1,98.6 128.4,98.5 129.8,98.3 131.2,98.1 132.5,98.0 133.9,97.9 135.3,97.5 136.6,97.3 138.0,97.3 139.4,97.1 140.7,97.0 142.1,97.0 143.5,103.6 144.8,103.0 146.2,102.4 147.6,101.8 148.9,100.0 150.3,98.7 151.7,97.4 153.0,96.9 154.4,96.3 155.8,95.4 157.1,94.4 158.5,93.7 159.9,93.4 161.2,93.1 162.6,92.4 164.0,91.9 165.3,91.5 166.7,91.1 168.1,91.0 169.4,90.9 170.8,90.5 172.2,89.9 173.5,89.4 174.9,89.0 176.3,88.5 177.6,88.3 179.0,88.1 180.4,87.7 181.7,87.3 183.1,86.9 184.5,86.6 185.8,86.5 187.2,86.4 188.6,86.2 189.9,85.9 191.3,85.6 192.7,85.4 194.1,85.2 195.4,85.0 196.8,84.8 198.2,84.7 199.5,84.5 200.9,84.3 202.3,84.0 203.6,83.7 205.0,83.5 206.4,83.3 207.7,83.1 209.1,83.0 210.5,82.8 211.8,82.7 213.2,82.2 214.6,81.9 215.9,81.5 217.3,81.3 218.7,81.3 220.0,81.1 221.4,80.9 222.8,80.6 224.1,80.4 225.5,80.1 226.9,79.9 228.2,79.8 229.6,79.7 231.0,79.5 232.3,79.4 233.7,79.2 235.1,79.1 236.4,78.8 237.8,78.6 239.2,78.5 240.5,78.4 241.9,78.3 243.3,78.1 244.6,77.9 246.0,77.6 247.4,77.4 248.7,77.2 250.1,77.1 251.5,77.0 252.8,76.9 254.2,76.6 255.6,76.3 256.9,76.1 258.3,75.9 259.7,75.5 261.0,75.4 262.4,75.3 263.8,75.2 265.1,75.0 266.5,74.9 267.9,74.7 269.2,74.5 270.6,74.4 272.0,74.2 273.3,74.1 274.7,74.0 276.1,73.9 277.4,73.7 278.8,73.4 280.2,73.3 281.5,73.1 282.9,73.0 284.3,72.9 285.6,72.7 287.0,72.6 288.4,72.5 289.7,72.3 291.1,72.0 292.5,71.7 293.8,71.5 295.2,71.4 296.6,71.3 297.9,71.3 299.3,71.1 300.7,70.8 302.1,70.7 303.4,70.6 304.8,70.4 306.2,70.2 307.5,70.0 308.9,69.9 310.3,69.8 311.6,69.6 313.0,69.4 314.4,69.2 315.7,69.0 317.1,68.9 318.5,68.8 319.8,68.8 321.2,68.6 322.6,68.5 323.9,68.3 325.3,68.2 326.7,68.0 328.0,67.9 329.4,67.8 330.8,67.6 332.1,67.5 333.5,67.3 334.9,67.1 336.2,66.9 337.6,66.7 339.0,66.6 340.3,66.5 341.7,66.4 343.1,66.3 344.4,66.2 345.8,66.1 347.2,65.9 348.5,65.7 349.9,65.6 351.3,65.5 352.6,65.3 354.0,65.2 355.4,65.0 356.7,64.9 358.1,64.8 359.5,64.7 360.8,64.5 362.2,64.3 363.6,64.2 364.9,64.1 366.3,64.0 367.7,63.9 369.0,63.8 370.4,63.6 371.8,63.5 373.1,63.5 374.5,63.3 375.9,63.0 377.2,62.8 378.6,67.1 380.0,66.3 381.3,64.7 382.7,64.0 384.1,63.3 385.4,62.4 386.8,61.9 388.2,61.5 389.5,60.9 390.9,60.0 392.3,59.3 393.6,59.1 395.0,58.7 396.4,58.4 397.7,57.9 399.1,57.5 400.5,57.0 401.8,56.7 403.2,56.2 404.6,56.0 405.9,55.7 407.3,55.5 408.7,55.2 410.1,55.0 411.4,54.5 412.8,54.2 414.2,53.8 415.5,53.2 416.9,52.8 418.3,52.6 419.6,52.5 421.0,52.2 422.4,51.9 423.7,51.5 425.1,51.2 426.5,50.4 427.8,49.7 429.2,49.4 430.6,49.2 431.9,48.9 433.3,48.4 434.7,48.1 436.0,47.5 437.4,47.2 438.8,46.9 440.1,46.6 441.5,46.2 442.9,46.0 444.2,45.8 445.6,45.6 447.0,45.5 448.3,45.2 449.7,45.0 451.1,44.8 452.4,44.6 453.8,44.4 455.2,44.2 456.5,44.0 457.9,43.8 459.3,43.6 460.6,43.4 462.0,43.3 463.4,43.2 464.7,43.0 466.1,42.9 467.5,42.8 468.8,42.6 470.2,42.4 471.6,42.2 472.9,42.0 474.3,41.8 475.7,41.7 477.0,41.5 478.4,41.4 479.8,41.3 481.1,41.1 482.5,41.0 483.9,40.8 485.2,40.8 486.6,40.6 488.0,40.4 489.3,40.3 490.7,40.0 492.1,39.8 493.4,39.7 494.8,39.4 496.2,39.2 497.5,39.1 498.9,38.8 500.3,38.6 501.6,38.4 503.0,38.2 504.4,37.9 505.7,37.7 507.1,37.5 508.5,37.2 509.8,37.1 511.2,37.0 512.6,36.9 513.9,36.7 515.3,36.6 516.7,36.4 518.1,36.2 519.4,36.0 520.8,35.8 522.2,35.6 523.5,35.3 524.9,35.2 526.3,34.8 527.6,34.7 529.0,34.6 530.4,34.4 531.7,34.3 533.1,34.2 534.5,34.0 535.8,33.8 537.2,33.7 538.6,33.4 539.9,33.2 541.3,33.1 542.7,32.9 544.0,32.8 545.4,32.7 546.8,32.6 548.1,32.5 549.5,32.3 550.9,32.2 552.2,32.1 553.6,31.9 555.0,31.7 556.3,31.5 557.7,31.4 559.1,31.3 560.4,31.2 561.8,31.0 563.2,30.9 564.5,30.8 565.9,30.6 567.3,30.4 568.6,30.2 570.0,30.0" />
  
  <!-- Punto finale luminoso -->
  <circle cx="570.0" cy="30.0" r="4" fill="#ffffff" stroke="#0366d6" stroke-width="2.5" />
</svg>