<svg width="600" height="150" viewBox="0 0 600 150" xmlns="http://www.w3.org/2000/svg">
  <defs>
    <filter id="shadow2" x="-2%" y="-2%" width="104%" height="108%">
      <feDropShadow dx="0" dy="2" stdDeviation="3" flood-opacity="0.1" />
    </filter>
    <linearGradient id="fillGrad" x1="0" y1="0" x2="0" y2="1">
      <stop offset="0%" stop-color="#0366d6" stop-opacity="0.3"/>
      <stop offset="100%" stop-color="#0366d6" stop-opacity="0.02"/>
    </linearGradient>
  </defs>
  <rect width="600" height="150" rx="12" fill="#ffffff" filter="url(#shadow2)" stroke="#e1e4e8" stroke-width="1"/>
  <text x="20" y="24" fill="#2b3137" font-family="-apple-system,BlinkMacSystemFont,'Segoe UI',Helvetica,Arial,sans-serif" font-size="14" font-weight="600">📈 Download Growth (Actual: 85.8k)</text>
  
  <!-- Area sotto la linea -->
  <polygon fill="url(#fillGrad)" points="30.0,120.0,120 30.0,120.0 31.4,119.5 32.9,118.9 34.3,118.4 35.8,118.3 37.2,118.0 38.6,117.4 40.1,117.0 41.5,116.7 43.0,116.0 44.4,115.7 45.8,115.4 47.3,115.2 48.7,114.9 50.2,114.5 51.6,114.0 53.0,113.7 54.5,113.5 55.9,113.3 57.4,113.0 58.8,112.7 60.2,112.4 61.7,112.2 63.1,111.9 64.6,110.9 66.0,110.6 67.4,110.2 68.9,109.9 70.3,109.5 71.8,109.2 73.2,109.0 74.6,108.8 76.1,108.5 77.5,108.0 79.0,107.6 80.4,107.3 81.8,107.0 83.3,106.9 84.7,106.8 86.2,106.6 87.6,106.3 89.0,106.1 90.5,106.0 91.9,105.6 93.4,105.1 94.8,104.9 96.2,104.8 97.7,104.6 99.1,104.2 100.6,103.9 102.0,103.5 103.4,103.2 104.9,102.8 106.3,102.7 107.8,102.4 109.2,102.0 110.6,101.6 112.1,101.3 113.5,101.2 115.0,101.0 116.4,100.8 117.8,100.4 119.3,99.9 120.7,99.6 122.2,99.2 123.6,99.0 125.0,98.9 126.5,98.7 127.9,98.4 129.4,98.2 130.8,98.0 132.2,97.9 133.7,97.8 135.1,97.5 136.6,97.4 138.0,97.3 139.4,97.2 140.9,96.8 142.3,96.6 143.8,96.5 145.2,96.3 146.6,96.3 148.1,96.3 149.5,103.0 151.0,102.4 152.4,101.8 153.8,101.1 155.3,99.3 156.7,98.0 158.2,96.6 159.6,96.1 161.0,95.5 162.5,94.6 163.9,93.5 165.4,92.8 166.8,92.5 168.2,92.2 169.7,91.5 171.1,90.9 172.6,90.6 174.0,90.1 175.4,90.0 176.9,89.9 178.3,89.5 179.8,88.9 181.2,88.4 182.6,88.0 184.1,87.4 185.5,87.2 187.0,87.0 188.4,86.6 189.8,86.2 191.3,85.8 192.7,85.5 194.2,85.4 195.6,85.3 197.0,85.1 198.5,84.7 199.9,84.5 201.4,84.2 202.8,84.0 204.2,83.8 205.7,83.6 207.1,83.5 208.6,83.3 210.0,83.1 211.4,82.8 212.9,82.5 214.3,82.2 215.8,82.0 217.2,81.8 218.6,81.7 220.1,81.6 221.5,81.4 223.0,80.9 224.4,80.6 225.8,80.2 227.3,80.0 228.7,80.0 230.2,79.8 231.6,79.6 233.0,79.3 234.5,79.1 235.9,78.8 237.4,78.6 238.8,78.5 240.2,78.3 241.7,78.2 243.1,78.0 244.6,77.8 246.0,77.7 247.4,77.4 248.9,77.2 250.3,77.1 251.8,77.0 253.2,76.9 254.6,76.7 256.1,76.4 257.5,76.2 259.0,76.0 260.4,75.8 261.8,75.6 263.3,75.5 264.7,75.4 266.2,75.1 267.6,74.8 269.0,74.6 270.5,74.4 271.9,74.0 273.4,73.9 274.8,73.8 276.2,73.7 277.7,73.5 279.1,73.4 280.6,73.2 282.0,73.0 283.4,72.8 284.9,72.7 286.3,72.5 287.8,72.4 289.2,72.3 290.6,72.1 292.1,71.9 293.5,71.7 295.0,71.5 296.4,71.4 297.8,71.3 299.3,71.1 300.7,71.0 302.2,70.9 303.6,70.7 305.0,70.4 306.5,70.1 307.9,69.9 309.4,69.7 310.8,69.7 312.2,69.6 313.7,69.4 315.1,69.1 316.6,69.0 318.0,68.9 319.4,68.7 320.9,68.5 322.3,68.4 323.8,68.2 325.2,68.1 326.6,67.9 328.1,67.7 329.5,67.5 331.0,67.3 332.4,67.2 333.8,67.1 335.3,67.1 336.7,66.9 338.2,66.7 339.6,66.6 341.0,66.4 342.5,66.2 343.9,66.1 345.4,66.0 346.8,65.8 348.2,65.7 349.7,65.5 351.1,65.3 352.6,65.1 354.0,64.9 355.4,64.8 356.9,64.7 358.3,64.6 359.8,64.5 361.2,64.4 362.6,64.3 364.1,64.0 365.5,63.9 367.0,63.7 368.4,63.6 369.8,63.5 371.3,63.3 372.7,63.2 374.2,63.0 375.6,62.9 377.0,62.8 378.5,62.6 379.9,62.4 381.4,62.3 382.8,62.2 384.2,62.1 385.7,62.0 387.1,61.9 388.6,61.7 390.0,61.6 391.4,61.6 392.9,61.4 394.3,61.1 395.8,60.9 397.2,65.3 398.6,64.5 400.1,62.8 401.5,62.1 403.0,61.4 404.4,60.4 405.8,59.9 407.3,59.5 408.7,58.9 410.2,57.9 411.6,57.2 413.0,57.0 414.5,56.6 415.9,56.3 417.4,55.8 418.8,55.4 420.2,54.8 421.7,54.6 423.1,54.1 424.6,53.8 426.0,53.5 427.4,53.3 428.9,53.0 430.3,52.8 431.8,52.3 433.2,52.0 434.6,51.5 436.1,50.9 437.5,50.6 439.0,50.4 440.4,50.2 441.8,49.9 443.3,49.6 444.7,49.2 446.2,48.9 447.6,48.0 449.0,47.3 450.5,47.0 451.9,46.8 453.4,46.5 454.8,46.0 456.2,45.6 457.7,45.1 459.1,44.7 460.6,44.4 462.0,44.1 463.4,43.7 464.9,43.5 466.3,43.3 467.8,43.1 469.2,42.9 470.6,42.7 472.1,42.5 473.5,42.2 475.0,42.0 476.4,41.9 477.8,41.6 479.3,41.4 480.7,41.2 482.2,41.0 483.6,40.8 485.0,40.7 486.5,40.6 487.9,40.4 489.4,40.2 490.8,40.2 492.2,39.9 493.7,39.8 495.1,39.6 496.6,39.4 498.0,39.2 499.4,39.1 500.9,38.8 502.3,38.7 503.8,38.6 505.2,38.5 506.6,38.3 508.1,38.2 509.5,38.1 511.0,37.9 512.4,37.7 513.8,37.6 515.3,37.3 516.7,37.1 518.2,36.9 519.6,36.7 521.0,36.5 522.5,36.3 523.9,36.1 525.4,35.9 526.8,35.6 528.2,35.4 529.7,35.2 531.1,34.9 532.6,34.7 534.0,34.4 535.4,34.3 536.9,34.2 538.3,34.1 539.8,33.9 541.2,33.8 542.6,33.6 544.1,33.4 545.5,33.2 547.0,33.0 548.4,32.8 549.8,32.5 551.3,32.3 552.7,32.0 554.2,31.8 555.6,31.7 557.0,31.5 558.5,31.4 559.9,31.3 561.4,31.1 562.8,30.9 564.2,30.7 565.7,30.4 567.1,30.3 568.6,30.1 570.0,30.0 570.0,30.0,120" />
  
  <!-- Linea principale -->
  <polyline fill="none" stroke="#0366d6" stroke-width="2.5" stroke-linecap="round" stroke-linejoin="round" points="30.0,120.0 31.4,119.5 32.9,118.9 34.3,118.4 35.8,118.3 37.2,118.0 38.6,117.4 40.1,117.0 41.5,116.7 43.0,116.0 44.4,115.7 45.8,115.4 47.3,115.2 48.7,114.9 50.2,114.5 51.6,114.0 53.0,113.7 54.5,113.5 55.9,113.3 57.4,113.0 58.8,112.7 60.2,112.4 61.7,112.2 63.1,111.9 64.6,110.9 66.0,110.6 67.4,110.2 68.9,109.9 70.3,109.5 71.8,109.2 73.2,109.0 74.6,108.8 76.1,108.5 77.5,108.0 79.0,107.6 80.4,107.3 81.8,107.0 83.3,106.9 84.7,106.8 86.2,106.6 87.6,106.3 89.0,106.1 90.5,106.0 91.9,105.6 93.4,105.1 94.8,104.9 96.2,104.8 97.7,104.6 99.1,104.2 100.6,103.9 102.0,103.5 103.4,103.2 104.9,102.8 106.3,102.7 107.8,102.4 109.2,102.0 110.6,101.6 112.1,101.3 113.5,101.2 115.0,101.0 116.4,100.8 117.8,100.4 119.3,99.9 120.7,99.6 122.2,99.2 123.6,99.0 125.0,98.9 126.5,98.7 127.9,98.4 129.4,98.2 130.8,98.0 132.2,97.9 133.7,97.8 135.1,97.5 136.6,97.4 138.0,97.3 139.4,97.2 140.9,96.8 142.3,96.6 143.8,96.5 145.2,96.3 146.6,96.3 148.1,96.3 149.5,103.0 151.0,102.4 152.4,101.8 153.8,101.1 155.3,99.3 156.7,98.0 158.2,96.6 159.6,96.1 161.0,95.5 162.5,94.6 163.9,93.5 165.4,92.8 166.8,92.5 168.2,92.2 169.7,91.5 171.1,90.9 172.6,90.6 174.0,90.1 175.4,90.0 176.9,89.9 178.3,89.5 179.8,88.9 181.2,88.4 182.6,88.0 184.1,87.4 185.5,87.2 187.0,87.0 188.4,86.6 189.8,86.2 191.3,85.8 192.7,85.5 194.2,85.4 195.6,85.3 197.0,85.1 198.5,84.7 199.9,84.5 201.4,84.2 202.8,84.0 204.2,83.8 205.7,83.6 207.1,83.5 208.6,83.3 210.0,83.1 211.4,82.8 212.9,82.5 214.3,82.2 215.8,82.0 217.2,81.8 218.6,81.7 220.1,81.6 221.5,81.4 223.0,80.9 224.4,80.6 225.8,80.2 227.3,80.0 228.7,80.0 230.2,79.8 231.6,79.6 233.0,79.3 234.5,79.1 235.9,78.8 237.4,78.6 238.8,78.5 240.2,78.3 241.7,78.2 243.1,78.0 244.6,77.8 246.0,77.7 247.4,77.4 248.9,77.2 250.3,77.1 251.8,77.0 253.2,76.9 254.6,76.7 256.1,76.4 257.5,76.2 259.0,76.0 260.4,75.8 261.8,75.6 263.3,75.5 264.7,75.4 266.2,75.1 267.6,74.8 269.0,74.6 270.5,74.4 271.9,74.0 273.4,73.9 274.8,73.8 276.2,73.7 277.7,73.5 279.1,73.4 280.6,73.2 282.0,73.0 283.4,72.8 284.9,72.7 286.3,72.5 287.8,72.4 289.2,72.3 290.6,72.1 292.1,71.9 293.5,71.7 295.0,71.5 296.4,71.4 297.8,71.3 299.3,71.1 300.7,71.0 302.2,70.9 303.6,70.7 305.0,70.4 306.5,70.1 307.9,69.9 309.4,69.7 310.8,69.7 312.2,69.6 313.7,69.4 315.1,69.1 316.6,69.0 318.0,68.9 319.4,68.7 320.9,68.5 322.3,68.4 323.8,68.2 325.2,68.1 326.6,67.9 328.1,67.7 329.5,67.5 331.0,67.3 332.4,67.2 333.8,67.1 335.3,67.1 336.7,66.9 338.2,66.7 339.6,66.6 341.0,66.4 342.5,66.2 343.9,66.1 345.4,66.0 346.8,65.8 348.2,65.7 349.7,65.5 351.1,65.3 352.6,65.1 354.0,64.9 355.4,64.8 356.9,64.7 358.3,64.6 359.8,64.5 361.2,64.4 362.6,64.3 364.1,64.0 365.5,63.9 367.0,63.7 368.4,63.6 369.8,63.5 371.3,63.3 372.7,63.2 374.2,63.0 375.6,62.9 377.0,62.8 378.5,62.6 379.9,62.4 381.4,62.3 382.8,62.2 384.2,62.1 385.7,62.0 387.1,61.9 388.6,61.7 390.0,61.6 391.4,61.6 392.9,61.4 394.3,61.1 395.8,60.9 397.2,65.3 398.6,64.5 400.1,62.8 401.5,62.1 403.0,61.4 404.4,60.4 405.8,59.9 407.3,59.5 408.7,58.9 410.2,57.9 411.6,57.2 413.0,57.0 414.5,56.6 415.9,56.3 417.4,55.8 418.8,55.4 420.2,54.8 421.7,54.6 423.1,54.1 424.6,53.8 426.0,53.5 427.4,53.3 428.9,53.0 430.3,52.8 431.8,52.3 433.2,52.0 434.6,51.5 436.1,50.9 437.5,50.6 439.0,50.4 440.4,50.2 441.8,49.9 443.3,49.6 444.7,49.2 446.2,48.9 447.6,48.0 449.0,47.3 450.5,47.0 451.9,46.8 453.4,46.5 454.8,46.0 456.2,45.6 457.7,45.1 459.1,44.7 460.6,44.4 462.0,44.1 463.4,43.7 464.9,43.5 466.3,43.3 467.8,43.1 469.2,42.9 470.6,42.7 472.1,42.5 473.5,42.2 475.0,42.0 476.4,41.9 477.8,41.6 479.3,41.4 480.7,41.2 482.2,41.0 483.6,40.8 485.0,40.7 486.5,40.6 487.9,40.4 489.4,40.2 490.8,40.2 492.2,39.9 493.7,39.8 495.1,39.6 496.6,39.4 498.0,39.2 499.4,39.1 500.9,38.8 502.3,38.7 503.8,38.6 505.2,38.5 506.6,38.3 508.1,38.2 509.5,38.1 511.0,37.9 512.4,37.7 513.8,37.6 515.3,37.3 516.7,37.1 518.2,36.9 519.6,36.7 521.0,36.5 522.5,36.3 523.9,36.1 525.4,35.9 526.8,35.6 528.2,35.4 529.7,35.2 531.1,34.9 532.6,34.7 534.0,34.4 535.4,34.3 536.9,34.2 538.3,34.1 539.8,33.9 541.2,33.8 542.6,33.6 544.1,33.4 545.5,33.2 547.0,33.0 548.4,32.8 549.8,32.5 551.3,32.3 552.7,32.0 554.2,31.8 555.6,31.7 557.0,31.5 558.5,31.4 559.9,31.3 561.4,31.1 562.8,30.9 564.2,30.7 565.7,30.4 567.1,30.3 568.6,30.1 570.0,30.0" />
  
  <!-- Punto finale luminoso -->
  <circle cx="570.0" cy="30.0" r="4" fill="#ffffff" stroke="#0366d6" stroke-width="2.5" />
</svg>