<svg width="600" height="150" viewBox="0 0 600 150" xmlns="http://www.w3.org/2000/svg">
  <defs>
    <filter id="shadow2" x="-2%" y="-2%" width="104%" height="108%">
      <feDropShadow dx="0" dy="2" stdDeviation="3" flood-opacity="0.1" />
    </filter>
    <linearGradient id="fillGrad" x1="0" y1="0" x2="0" y2="1">
      <stop offset="0%" stop-color="#0366d6" stop-opacity="0.3"/>
      <stop offset="100%" stop-color="#0366d6" stop-opacity="0.02"/>
    </linearGradient>
  </defs>
  <rect width="600" height="150" rx="12" fill="#ffffff" filter="url(#shadow2)" stroke="#e1e4e8" stroke-width="1"/>
  <text x="20" y="24" fill="#2b3137" font-family="-apple-system,BlinkMacSystemFont,'Segoe UI',Helvetica,Arial,sans-serif" font-size="14" font-weight="600">📈 Download Growth (Actual: 85.7k)</text>
  
  <!-- Area sotto la linea -->
  <polygon fill="url(#fillGrad)" points="30.0,120.0,120 30.0,120.0 31.5,119.5 32.9,118.9 34.4,118.4 35.8,118.2 37.3,118.0 38.7,117.4 40.2,116.9 41.6,116.7 43.1,116.0 44.5,115.7 46.0,115.4 47.4,115.2 48.9,114.9 50.3,114.5 51.8,114.0 53.2,113.7 54.7,113.4 56.1,113.3 57.6,113.0 59.0,112.6 60.5,112.3 61.9,112.2 63.4,111.9 64.8,110.9 66.3,110.6 67.7,110.2 69.2,109.8 70.6,109.5 72.1,109.1 73.5,108.9 75.0,108.7 76.5,108.5 77.9,108.0 79.4,107.5 80.8,107.3 82.3,106.9 83.7,106.8 85.2,106.7 86.6,106.6 88.1,106.2 89.5,106.0 91.0,105.9 92.4,105.5 93.9,105.0 95.3,104.9 96.8,104.8 98.2,104.6 99.7,104.1 101.1,103.8 102.6,103.4 104.0,103.1 105.5,102.7 106.9,102.6 108.4,102.4 109.8,102.0 111.3,101.5 112.7,101.2 114.2,101.1 115.6,100.9 117.1,100.7 118.5,100.3 120.0,99.8 121.5,99.5 122.9,99.1 124.4,98.9 125.8,98.8 127.3,98.6 128.7,98.3 130.2,98.1 131.6,97.9 133.1,97.8 134.5,97.6 136.0,97.4 137.4,97.3 138.9,97.2 140.3,97.1 141.8,96.7 143.2,96.4 144.7,96.4 146.1,96.2 147.6,96.1 149.0,96.1 150.5,103.0 151.9,102.3 153.4,101.7 154.8,101.1 156.3,99.2 157.7,97.9 159.2,96.5 160.6,96.0 162.1,95.4 163.5,94.4 165.0,93.4 166.5,92.6 167.9,92.4 169.4,92.1 170.8,91.3 172.3,90.8 173.7,90.4 175.2,90.0 176.6,89.8 178.1,89.7 179.5,89.3 181.0,88.7 182.4,88.3 183.9,87.8 185.3,87.3 186.8,87.0 188.2,86.9 189.7,86.4 191.1,86.0 192.6,85.6 194.0,85.3 195.5,85.2 196.9,85.1 198.4,84.9 199.8,84.5 201.3,84.3 202.7,84.1 204.2,83.9 205.6,83.7 207.1,83.5 208.5,83.3 210.0,83.1 211.5,83.0 212.9,82.6 214.4,82.3 215.8,82.0 217.3,81.9 218.7,81.6 220.2,81.5 221.6,81.4 223.1,81.2 224.5,80.7 226.0,80.4 227.4,80.0 228.9,79.8 230.3,79.8 231.8,79.6 233.2,79.4 234.7,79.1 236.1,78.9 237.6,78.6 239.0,78.4 240.5,78.3 241.9,78.1 243.4,78.0 244.8,77.8 246.3,77.6 247.7,77.5 249.2,77.2 250.6,77.0 252.1,76.9 253.5,76.8 255.0,76.7 256.5,76.4 257.9,76.2 259.4,76.0 260.8,75.8 262.3,75.6 263.7,75.4 265.2,75.3 266.6,75.2 268.1,74.9 269.5,74.6 271.0,74.4 272.4,74.2 273.9,73.8 275.3,73.7 276.8,73.6 278.2,73.5 279.7,73.3 281.1,73.1 282.6,72.9 284.0,72.8 285.5,72.6 286.9,72.5 288.4,72.3 289.8,72.2 291.3,72.1 292.7,71.9 294.2,71.6 295.6,71.5 297.1,71.3 298.5,71.2 300.0,71.0 301.5,70.9 302.9,70.8 304.4,70.6 305.8,70.5 307.3,70.2 308.7,69.9 310.2,69.7 311.6,69.5 313.1,69.4 314.5,69.4 316.0,69.2 317.4,68.9 318.9,68.8 320.3,68.6 321.8,68.4 323.2,68.3 324.7,68.1 326.1,68.0 327.6,67.9 329.0,67.6 330.5,67.5 331.9,67.2 333.4,67.0 334.8,66.9 336.3,66.9 337.7,66.8 339.2,66.6 340.6,66.5 342.1,66.3 343.5,66.1 345.0,65.9 346.5,65.8 347.9,65.7 349.4,65.6 350.8,65.4 352.3,65.2 353.7,65.0 355.2,64.8 356.6,64.7 358.1,64.5 359.5,64.4 361.0,64.3 362.4,64.2 363.9,64.1 365.3,64.0 366.8,63.8 368.2,63.6 369.7,63.5 371.1,63.4 372.6,63.2 374.0,63.1 375.5,62.9 376.9,62.8 378.4,62.6 379.8,62.5 381.3,62.3 382.7,62.2 384.2,62.0 385.6,61.9 387.1,61.8 388.5,61.7 390.0,61.6 391.5,61.4 392.9,61.3 394.4,61.3 395.8,61.1 397.3,60.8 398.7,60.6 400.2,65.1 401.6,64.2 403.1,62.5 404.5,61.9 406.0,61.1 407.4,60.1 408.9,59.6 410.3,59.2 411.8,58.6 413.2,57.6 414.7,56.9 416.1,56.7 417.6,56.3 419.0,56.0 420.5,55.5 421.9,55.1 423.4,54.5 424.8,54.3 426.3,53.8 427.7,53.5 429.2,53.2 430.6,53.0 432.1,52.7 433.5,52.5 435.0,52.0 436.5,51.6 437.9,51.2 439.4,50.6 440.8,50.2 442.3,50.0 443.7,49.8 445.2,49.6 446.6,49.2 448.1,48.9 449.5,48.6 451.0,47.6 452.4,46.9 453.9,46.6 455.3,46.4 456.8,46.1 458.2,45.7 459.7,45.3 461.1,44.7 462.6,44.4 464.0,44.0 465.5,43.7 466.9,43.3 468.4,43.1 469.8,42.9 471.3,42.7 472.7,42.5 474.2,42.3 475.6,42.1 477.1,41.9 478.5,41.7 480.0,41.5 481.5,41.2 482.9,41.0 484.4,40.8 485.8,40.6 487.3,40.4 488.7,40.3 490.2,40.2 491.6,40.0 493.1,39.9 494.5,39.8 496.0,39.5 497.4,39.4 498.9,39.2 500.3,39.0 501.8,38.8 503.2,38.7 504.7,38.4 506.1,38.3 507.6,38.2 509.0,38.1 510.5,37.9 511.9,37.8 513.4,37.7 514.8,37.5 516.3,37.3 517.7,37.2 519.2,36.9 520.6,36.7 522.1,36.5 523.5,36.3 525.0,36.1 526.5,35.9 527.9,35.6 529.4,35.4 530.8,35.2 532.3,35.0 533.7,34.7 535.2,34.5 536.6,34.3 538.1,34.0 539.5,33.9 541.0,33.7 542.4,33.6 543.9,33.5 545.3,33.3 546.8,33.1 548.2,33.0 549.7,32.8 551.1,32.6 552.6,32.3 554.0,32.0 555.5,31.8 556.9,31.5 558.4,31.4 559.8,31.2 561.3,31.1 562.7,31.0 564.2,30.8 565.6,30.7 567.1,30.4 568.5,30.3 570.0,30.0 570.0,30.0,120" />
  
  <!-- Linea principale -->
  <polyline fill="none" stroke="#0366d6" stroke-width="2.5" stroke-linecap="round" stroke-linejoin="round" points="30.0,120.0 31.5,119.5 32.9,118.9 34.4,118.4 35.8,118.2 37.3,118.0 38.7,117.4 40.2,116.9 41.6,116.7 43.1,116.0 44.5,115.7 46.0,115.4 47.4,115.2 48.9,114.9 50.3,114.5 51.8,114.0 53.2,113.7 54.7,113.4 56.1,113.3 57.6,113.0 59.0,112.6 60.5,112.3 61.9,112.2 63.4,111.9 64.8,110.9 66.3,110.6 67.7,110.2 69.2,109.8 70.6,109.5 72.1,109.1 73.5,108.9 75.0,108.7 76.5,108.5 77.9,108.0 79.4,107.5 80.8,107.3 82.3,106.9 83.7,106.8 85.2,106.7 86.6,106.6 88.1,106.2 89.5,106.0 91.0,105.9 92.4,105.5 93.9,105.0 95.3,104.9 96.8,104.8 98.2,104.6 99.7,104.1 101.1,103.8 102.6,103.4 104.0,103.1 105.5,102.7 106.9,102.6 108.4,102.4 109.8,102.0 111.3,101.5 112.7,101.2 114.2,101.1 115.6,100.9 117.1,100.7 118.5,100.3 120.0,99.8 121.5,99.5 122.9,99.1 124.4,98.9 125.8,98.8 127.3,98.6 128.7,98.3 130.2,98.1 131.6,97.9 133.1,97.8 134.5,97.6 136.0,97.4 137.4,97.3 138.9,97.2 140.3,97.1 141.8,96.7 143.2,96.4 144.7,96.4 146.1,96.2 147.6,96.1 149.0,96.1 150.5,103.0 151.9,102.3 153.4,101.7 154.8,101.1 156.3,99.2 157.7,97.9 159.2,96.5 160.6,96.0 162.1,95.4 163.5,94.4 165.0,93.4 166.5,92.6 167.9,92.4 169.4,92.1 170.8,91.3 172.3,90.8 173.7,90.4 175.2,90.0 176.6,89.8 178.1,89.7 179.5,89.3 181.0,88.7 182.4,88.3 183.9,87.8 185.3,87.3 186.8,87.0 188.2,86.9 189.7,86.4 191.1,86.0 192.6,85.6 194.0,85.3 195.5,85.2 196.9,85.1 198.4,84.9 199.8,84.5 201.3,84.3 202.7,84.1 204.2,83.9 205.6,83.7 207.1,83.5 208.5,83.3 210.0,83.1 211.5,83.0 212.9,82.6 214.4,82.3 215.8,82.0 217.3,81.9 218.7,81.6 220.2,81.5 221.6,81.4 223.1,81.2 224.5,80.7 226.0,80.4 227.4,80.0 228.9,79.8 230.3,79.8 231.8,79.6 233.2,79.4 234.7,79.1 236.1,78.9 237.6,78.6 239.0,78.4 240.5,78.3 241.9,78.1 243.4,78.0 244.8,77.8 246.3,77.6 247.7,77.5 249.2,77.2 250.6,77.0 252.1,76.9 253.5,76.8 255.0,76.7 256.5,76.4 257.9,76.2 259.4,76.0 260.8,75.8 262.3,75.6 263.7,75.4 265.2,75.3 266.6,75.2 268.1,74.9 269.5,74.6 271.0,74.4 272.4,74.2 273.9,73.8 275.3,73.7 276.8,73.6 278.2,73.5 279.7,73.3 281.1,73.1 282.6,72.9 284.0,72.8 285.5,72.6 286.9,72.5 288.4,72.3 289.8,72.2 291.3,72.1 292.7,71.9 294.2,71.6 295.6,71.5 297.1,71.3 298.5,71.2 300.0,71.0 301.5,70.9 302.9,70.8 304.4,70.6 305.8,70.5 307.3,70.2 308.7,69.9 310.2,69.7 311.6,69.5 313.1,69.4 314.5,69.4 316.0,69.2 317.4,68.9 318.9,68.8 320.3,68.6 321.8,68.4 323.2,68.3 324.7,68.1 326.1,68.0 327.6,67.9 329.0,67.6 330.5,67.5 331.9,67.2 333.4,67.0 334.8,66.9 336.3,66.9 337.7,66.8 339.2,66.6 340.6,66.5 342.1,66.3 343.5,66.1 345.0,65.9 346.5,65.8 347.9,65.7 349.4,65.6 350.8,65.4 352.3,65.2 353.7,65.0 355.2,64.8 356.6,64.7 358.1,64.5 359.5,64.4 361.0,64.3 362.4,64.2 363.9,64.1 365.3,64.0 366.8,63.8 368.2,63.6 369.7,63.5 371.1,63.4 372.6,63.2 374.0,63.1 375.5,62.9 376.9,62.8 378.4,62.6 379.8,62.5 381.3,62.3 382.7,62.2 384.2,62.0 385.6,61.9 387.1,61.8 388.5,61.7 390.0,61.6 391.5,61.4 392.9,61.3 394.4,61.3 395.8,61.1 397.3,60.8 398.7,60.6 400.2,65.1 401.6,64.2 403.1,62.5 404.5,61.9 406.0,61.1 407.4,60.1 408.9,59.6 410.3,59.2 411.8,58.6 413.2,57.6 414.7,56.9 416.1,56.7 417.6,56.3 419.0,56.0 420.5,55.5 421.9,55.1 423.4,54.5 424.8,54.3 426.3,53.8 427.7,53.5 429.2,53.2 430.6,53.0 432.1,52.7 433.5,52.5 435.0,52.0 436.5,51.6 437.9,51.2 439.4,50.6 440.8,50.2 442.3,50.0 443.7,49.8 445.2,49.6 446.6,49.2 448.1,48.9 449.5,48.6 451.0,47.6 452.4,46.9 453.9,46.6 455.3,46.4 456.8,46.1 458.2,45.7 459.7,45.3 461.1,44.7 462.6,44.4 464.0,44.0 465.5,43.7 466.9,43.3 468.4,43.1 469.8,42.9 471.3,42.7 472.7,42.5 474.2,42.3 475.6,42.1 477.1,41.9 478.5,41.7 480.0,41.5 481.5,41.2 482.9,41.0 484.4,40.8 485.8,40.6 487.3,40.4 488.7,40.3 490.2,40.2 491.6,40.0 493.1,39.9 494.5,39.8 496.0,39.5 497.4,39.4 498.9,39.2 500.3,39.0 501.8,38.8 503.2,38.7 504.7,38.4 506.1,38.3 507.6,38.2 509.0,38.1 510.5,37.9 511.9,37.8 513.4,37.7 514.8,37.5 516.3,37.3 517.7,37.2 519.2,36.9 520.6,36.7 522.1,36.5 523.5,36.3 525.0,36.1 526.5,35.9 527.9,35.6 529.4,35.4 530.8,35.2 532.3,35.0 533.7,34.7 535.2,34.5 536.6,34.3 538.1,34.0 539.5,33.9 541.0,33.7 542.4,33.6 543.9,33.5 545.3,33.3 546.8,33.1 548.2,33.0 549.7,32.8 551.1,32.6 552.6,32.3 554.0,32.0 555.5,31.8 556.9,31.5 558.4,31.4 559.8,31.2 561.3,31.1 562.7,31.0 564.2,30.8 565.6,30.7 567.1,30.4 568.5,30.3 570.0,30.0" />
  
  <!-- Punto finale luminoso -->
  <circle cx="570.0" cy="30.0" r="4" fill="#ffffff" stroke="#0366d6" stroke-width="2.5" />
</svg>