<svg width="600" height="150" viewBox="0 0 600 150" xmlns="http://www.w3.org/2000/svg">
  <defs>
    <filter id="shadow2" x="-2%" y="-2%" width="104%" height="108%">
      <feDropShadow dx="0" dy="2" stdDeviation="3" flood-opacity="0.1" />
    </filter>
    <linearGradient id="fillGrad" x1="0" y1="0" x2="0" y2="1">
      <stop offset="0%" stop-color="#0366d6" stop-opacity="0.3"/>
      <stop offset="100%" stop-color="#0366d6" stop-opacity="0.02"/>
    </linearGradient>
  </defs>
  <rect width="600" height="150" rx="12" fill="#ffffff" filter="url(#shadow2)" stroke="#e1e4e8" stroke-width="1"/>
  <text x="20" y="24" fill="#2b3137" font-family="-apple-system,BlinkMacSystemFont,'Segoe UI',Helvetica,Arial,sans-serif" font-size="14" font-weight="600">📈 Download Growth (Actual: 84.9k)</text>
  
  <!-- Area sotto la linea -->
  <polygon fill="url(#fillGrad)" points="30.0,120.0,120 30.0,120.0 31.5,119.4 33.1,118.8 34.6,118.3 36.2,118.2 37.7,117.9 39.2,117.2 40.8,116.8 42.3,116.5 43.8,115.8 45.4,115.5 46.9,115.2 48.5,115.0 50.0,114.7 51.5,114.2 53.1,113.7 54.6,113.4 56.2,113.1 57.7,113.0 59.2,112.7 60.8,112.3 62.3,112.0 63.8,111.8 65.4,111.5 66.9,110.5 68.5,110.2 70.0,109.8 71.5,109.3 73.1,109.0 74.6,108.6 76.2,108.4 77.7,108.2 79.2,107.9 80.8,107.4 82.3,107.0 83.8,106.7 85.4,106.3 86.9,106.2 88.5,106.1 90.0,106.0 91.5,105.6 93.1,105.4 94.6,105.3 96.2,104.9 97.7,104.3 99.2,104.2 100.8,104.1 102.3,103.9 103.8,103.4 105.4,103.1 106.9,102.6 108.5,102.3 110.0,101.9 111.5,101.8 113.1,101.6 114.6,101.1 116.2,100.7 117.7,100.4 119.2,100.2 120.8,100.0 122.3,99.8 123.8,99.4 125.4,98.9 126.9,98.5 128.5,98.1 130.0,97.9 131.5,97.8 133.1,97.7 134.6,97.3 136.2,97.1 137.7,96.9 139.2,96.8 140.8,96.6 142.3,96.4 143.8,96.3 145.4,96.2 146.9,96.0 148.5,95.6 150.0,95.4 151.5,95.3 153.1,95.2 154.6,95.1 156.2,95.1 157.7,102.2 159.2,101.5 160.8,100.9 162.3,100.2 163.8,98.3 165.4,96.9 166.9,95.4 168.5,94.9 170.0,94.3 171.5,93.3 173.1,92.2 174.6,91.4 176.2,91.1 177.7,90.8 179.2,90.0 180.8,89.5 182.3,89.1 183.8,88.6 185.4,88.5 186.9,88.4 188.5,88.0 190.0,87.3 191.5,86.8 193.1,86.3 194.6,85.8 196.2,85.6 197.7,85.4 199.2,84.9 200.8,84.5 202.3,84.1 203.8,83.8 205.4,83.6 206.9,83.5 208.5,83.3 210.0,82.9 211.5,82.7 213.1,82.4 214.6,82.2 216.2,82.0 217.7,81.8 219.2,81.6 220.8,81.5 222.3,81.3 223.8,80.9 225.4,80.6 226.9,80.3 228.5,80.1 230.0,79.9 231.5,79.8 233.1,79.6 234.6,79.4 236.2,78.9 237.7,78.6 239.2,78.2 240.8,78.0 242.3,77.9 243.8,77.7 245.4,77.5 246.9,77.2 248.5,77.0 250.0,76.7 251.5,76.5 253.1,76.4 254.6,76.2 256.2,76.1 257.7,75.9 259.2,75.7 260.8,75.5 262.3,75.2 263.8,75.1 265.4,75.0 266.9,74.8 268.5,74.7 270.0,74.5 271.5,74.3 273.1,74.0 274.6,73.8 276.2,73.6 277.7,73.4 279.2,73.3 280.8,73.1 282.3,72.8 283.8,72.5 285.4,72.3 286.9,72.1 288.5,71.7 290.0,71.6 291.5,71.5 293.1,71.4 294.6,71.2 296.2,71.0 297.7,70.8 299.2,70.6 300.8,70.5 302.3,70.3 303.8,70.1 305.4,70.0 306.9,69.9 308.5,69.7 310.0,69.4 311.5,69.3 313.1,69.1 314.6,69.0 316.2,68.8 317.7,68.7 319.2,68.5 320.8,68.4 322.3,68.2 323.8,67.9 325.4,67.6 326.9,67.4 328.5,67.2 330.0,67.1 331.5,67.1 333.1,66.9 334.6,66.6 336.2,66.4 337.7,66.3 339.2,66.1 340.8,66.0 342.3,65.8 343.8,65.6 345.4,65.5 346.9,65.3 348.5,65.1 350.0,64.8 351.5,64.6 353.1,64.5 354.6,64.5 356.2,64.4 357.7,64.2 359.2,64.1 360.8,63.9 362.3,63.7 363.8,63.5 365.4,63.4 366.9,63.3 368.5,63.1 370.0,63.0 371.5,62.7 373.1,62.5 374.6,62.3 376.2,62.2 377.7,62.0 379.2,61.9 380.8,61.8 382.3,61.7 383.8,61.6 385.4,61.5 386.9,61.2 388.5,61.1 390.0,60.9 391.5,60.8 393.1,60.6 394.6,60.5 396.2,60.3 397.7,60.2 399.2,60.0 400.8,59.9 402.3,59.7 403.8,59.6 405.4,59.4 406.9,59.3 408.5,59.2 410.0,59.1 411.5,59.0 413.1,58.8 414.6,58.7 416.2,58.6 417.7,58.5 419.2,58.1 420.8,57.9 422.3,62.6 423.8,61.7 425.4,59.9 426.9,59.2 428.5,58.4 430.0,57.4 431.5,56.9 433.1,56.5 434.6,55.8 436.2,54.8 437.7,54.1 439.2,53.8 440.8,53.4 442.3,53.1 443.8,52.6 445.4,52.1 446.9,51.6 448.5,51.3 450.0,50.8 451.5,50.5 453.1,50.2 454.6,49.9 456.2,49.7 457.7,49.4 459.2,48.9 460.8,48.6 462.3,48.1 463.8,47.5 465.4,47.1 466.9,46.9 468.5,46.7 470.0,46.4 471.5,46.0 473.1,45.6 474.6,45.3 476.2,44.4 477.7,43.6 479.2,43.3 480.8,43.1 482.3,42.8 483.8,42.3 485.4,41.9 486.9,41.3 488.5,41.0 490.0,40.6 491.5,40.3 493.1,39.8 494.6,39.6 496.2,39.4 497.7,39.2 499.2,39.1 500.8,38.8 502.3,38.6 503.8,38.3 505.4,38.1 506.9,38.0 508.5,37.6 510.0,37.5 511.5,37.3 513.1,37.1 514.6,36.9 516.2,36.7 517.7,36.6 519.2,36.4 520.8,36.2 522.3,36.1 523.8,35.9 525.4,35.8 526.9,35.6 528.5,35.3 530.0,35.1 531.5,35.0 533.1,34.8 534.6,34.7 536.2,34.5 537.7,34.4 539.2,34.2 540.8,34.0 542.3,34.0 543.8,33.8 545.4,33.6 546.9,33.4 548.5,33.1 550.0,32.9 551.5,32.8 553.1,32.5 554.6,32.3 556.2,32.1 557.7,31.8 559.2,31.6 560.8,31.4 562.3,31.1 563.8,30.9 565.4,30.6 566.9,30.4 568.5,30.1 570.0,30.0 570.0,30.0,120" />
  
  <!-- Linea principale -->
  <polyline fill="none" stroke="#0366d6" stroke-width="2.5" stroke-linecap="round" stroke-linejoin="round" points="30.0,120.0 31.5,119.4 33.1,118.8 34.6,118.3 36.2,118.2 37.7,117.9 39.2,117.2 40.8,116.8 42.3,116.5 43.8,115.8 45.4,115.5 46.9,115.2 48.5,115.0 50.0,114.7 51.5,114.2 53.1,113.7 54.6,113.4 56.2,113.1 57.7,113.0 59.2,112.7 60.8,112.3 62.3,112.0 63.8,111.8 65.4,111.5 66.9,110.5 68.5,110.2 70.0,109.8 71.5,109.3 73.1,109.0 74.6,108.6 76.2,108.4 77.7,108.2 79.2,107.9 80.8,107.4 82.3,107.0 83.8,106.7 85.4,106.3 86.9,106.2 88.5,106.1 90.0,106.0 91.5,105.6 93.1,105.4 94.6,105.3 96.2,104.9 97.7,104.3 99.2,104.2 100.8,104.1 102.3,103.9 103.8,103.4 105.4,103.1 106.9,102.6 108.5,102.3 110.0,101.9 111.5,101.8 113.1,101.6 114.6,101.1 116.2,100.7 117.7,100.4 119.2,100.2 120.8,100.0 122.3,99.8 123.8,99.4 125.4,98.9 126.9,98.5 128.5,98.1 130.0,97.9 131.5,97.8 133.1,97.7 134.6,97.3 136.2,97.1 137.7,96.9 139.2,96.8 140.8,96.6 142.3,96.4 143.8,96.3 145.4,96.2 146.9,96.0 148.5,95.6 150.0,95.4 151.5,95.3 153.1,95.2 154.6,95.1 156.2,95.1 157.7,102.2 159.2,101.5 160.8,100.9 162.3,100.2 163.8,98.3 165.4,96.9 166.9,95.4 168.5,94.9 170.0,94.3 171.5,93.3 173.1,92.2 174.6,91.4 176.2,91.1 177.7,90.8 179.2,90.0 180.8,89.5 182.3,89.1 183.8,88.6 185.4,88.5 186.9,88.4 188.5,88.0 190.0,87.3 191.5,86.8 193.1,86.3 194.6,85.8 196.2,85.6 197.7,85.4 199.2,84.9 200.8,84.5 202.3,84.1 203.8,83.8 205.4,83.6 206.9,83.5 208.5,83.3 210.0,82.9 211.5,82.7 213.1,82.4 214.6,82.2 216.2,82.0 217.7,81.8 219.2,81.6 220.8,81.5 222.3,81.3 223.8,80.9 225.4,80.6 226.9,80.3 228.5,80.1 230.0,79.9 231.5,79.8 233.1,79.6 234.6,79.4 236.2,78.9 237.7,78.6 239.2,78.2 240.8,78.0 242.3,77.9 243.8,77.7 245.4,77.5 246.9,77.2 248.5,77.0 250.0,76.7 251.5,76.5 253.1,76.4 254.6,76.2 256.2,76.1 257.7,75.9 259.2,75.7 260.8,75.5 262.3,75.2 263.8,75.1 265.4,75.0 266.9,74.8 268.5,74.7 270.0,74.5 271.5,74.3 273.1,74.0 274.6,73.8 276.2,73.6 277.7,73.4 279.2,73.3 280.8,73.1 282.3,72.8 283.8,72.5 285.4,72.3 286.9,72.1 288.5,71.7 290.0,71.6 291.5,71.5 293.1,71.4 294.6,71.2 296.2,71.0 297.7,70.8 299.2,70.6 300.8,70.5 302.3,70.3 303.8,70.1 305.4,70.0 306.9,69.9 308.5,69.7 310.0,69.4 311.5,69.3 313.1,69.1 314.6,69.0 316.2,68.8 317.7,68.7 319.2,68.5 320.8,68.4 322.3,68.2 323.8,67.9 325.4,67.6 326.9,67.4 328.5,67.2 330.0,67.1 331.5,67.1 333.1,66.9 334.6,66.6 336.2,66.4 337.7,66.3 339.2,66.1 340.8,66.0 342.3,65.8 343.8,65.6 345.4,65.5 346.9,65.3 348.5,65.1 350.0,64.8 351.5,64.6 353.1,64.5 354.6,64.5 356.2,64.4 357.7,64.2 359.2,64.1 360.8,63.9 362.3,63.7 363.8,63.5 365.4,63.4 366.9,63.3 368.5,63.1 370.0,63.0 371.5,62.7 373.1,62.5 374.6,62.3 376.2,62.2 377.7,62.0 379.2,61.9 380.8,61.8 382.3,61.7 383.8,61.6 385.4,61.5 386.9,61.2 388.5,61.1 390.0,60.9 391.5,60.8 393.1,60.6 394.6,60.5 396.2,60.3 397.7,60.2 399.2,60.0 400.8,59.9 402.3,59.7 403.8,59.6 405.4,59.4 406.9,59.3 408.5,59.2 410.0,59.1 411.5,59.0 413.1,58.8 414.6,58.7 416.2,58.6 417.7,58.5 419.2,58.1 420.8,57.9 422.3,62.6 423.8,61.7 425.4,59.9 426.9,59.2 428.5,58.4 430.0,57.4 431.5,56.9 433.1,56.5 434.6,55.8 436.2,54.8 437.7,54.1 439.2,53.8 440.8,53.4 442.3,53.1 443.8,52.6 445.4,52.1 446.9,51.6 448.5,51.3 450.0,50.8 451.5,50.5 453.1,50.2 454.6,49.9 456.2,49.7 457.7,49.4 459.2,48.9 460.8,48.6 462.3,48.1 463.8,47.5 465.4,47.1 466.9,46.9 468.5,46.7 470.0,46.4 471.5,46.0 473.1,45.6 474.6,45.3 476.2,44.4 477.7,43.6 479.2,43.3 480.8,43.1 482.3,42.8 483.8,42.3 485.4,41.9 486.9,41.3 488.5,41.0 490.0,40.6 491.5,40.3 493.1,39.8 494.6,39.6 496.2,39.4 497.7,39.2 499.2,39.1 500.8,38.8 502.3,38.6 503.8,38.3 505.4,38.1 506.9,38.0 508.5,37.6 510.0,37.5 511.5,37.3 513.1,37.1 514.6,36.9 516.2,36.7 517.7,36.6 519.2,36.4 520.8,36.2 522.3,36.1 523.8,35.9 525.4,35.8 526.9,35.6 528.5,35.3 530.0,35.1 531.5,35.0 533.1,34.8 534.6,34.7 536.2,34.5 537.7,34.4 539.2,34.2 540.8,34.0 542.3,34.0 543.8,33.8 545.4,33.6 546.9,33.4 548.5,33.1 550.0,32.9 551.5,32.8 553.1,32.5 554.6,32.3 556.2,32.1 557.7,31.8 559.2,31.6 560.8,31.4 562.3,31.1 563.8,30.9 565.4,30.6 566.9,30.4 568.5,30.1 570.0,30.0" />
  
  <!-- Punto finale luminoso -->
  <circle cx="570.0" cy="30.0" r="4" fill="#ffffff" stroke="#0366d6" stroke-width="2.5" />
</svg>