<svg width="600" height="150" viewBox="0 0 600 150" xmlns="http://www.w3.org/2000/svg">
  <defs>
    <filter id="shadow2" x="-2%" y="-2%" width="104%" height="108%">
      <feDropShadow dx="0" dy="2" stdDeviation="3" flood-opacity="0.1" />
    </filter>
    <linearGradient id="fillGrad" x1="0" y1="0" x2="0" y2="1">
      <stop offset="0%" stop-color="#0366d6" stop-opacity="0.3"/>
      <stop offset="100%" stop-color="#0366d6" stop-opacity="0.02"/>
    </linearGradient>
  </defs>
  <rect width="600" height="150" rx="12" fill="#ffffff" filter="url(#shadow2)" stroke="#e1e4e8" stroke-width="1"/>
  <text x="20" y="24" fill="#2b3137" font-family="-apple-system,BlinkMacSystemFont,'Segoe UI',Helvetica,Arial,sans-serif" font-size="14" font-weight="600">📈 Download Growth (Actual: 86.9k)</text>
  
  <!-- Area sotto la linea -->
  <polygon fill="url(#fillGrad)" points="30.0,120.0,120 30.0,120.0 31.3,119.5 32.6,118.9 34.0,118.5 35.3,118.3 36.6,118.1 37.9,117.5 39.2,117.1 40.5,116.9 41.9,116.3 43.2,116.0 44.5,115.7 45.8,115.5 47.1,115.2 48.4,114.8 49.8,114.4 51.1,114.0 52.4,113.8 53.7,113.7 55.0,113.4 56.3,113.1 57.7,112.8 59.0,112.6 60.3,112.4 61.6,111.4 62.9,111.1 64.2,110.8 65.6,110.4 66.9,110.1 68.2,109.8 69.5,109.5 70.8,109.4 72.1,109.1 73.5,108.7 74.8,108.3 76.1,108.0 77.4,107.7 78.7,107.6 80.0,107.5 81.4,107.3 82.7,107.0 84.0,106.9 85.3,106.7 86.6,106.4 88.0,105.9 89.3,105.8 90.6,105.7 91.9,105.5 93.2,105.0 94.5,104.8 95.9,104.4 97.2,104.1 98.5,103.7 99.8,103.6 101.1,103.4 102.4,103.0 103.8,102.6 105.1,102.3 106.4,102.2 107.7,102.0 109.0,101.8 110.3,101.4 111.7,101.0 113.0,100.7 114.3,100.3 115.6,100.1 116.9,100.0 118.2,99.9 119.6,99.6 120.9,99.4 122.2,99.2 123.5,99.1 124.8,99.0 126.1,98.7 127.5,98.6 128.8,98.5 130.1,98.4 131.4,98.0 132.7,97.8 134.0,97.7 135.4,97.6 136.7,97.5 138.0,97.5 139.3,104.0 140.6,103.3 142.0,102.8 143.3,102.2 144.6,100.4 145.9,99.2 147.2,97.9 148.5,97.4 149.9,96.8 151.2,95.9 152.5,95.0 153.8,94.2 155.1,94.0 156.4,93.7 157.8,93.0 159.1,92.5 160.4,92.2 161.7,91.8 163.0,91.6 164.3,91.5 165.7,91.1 167.0,90.5 168.3,90.1 169.6,89.7 170.9,89.2 172.2,89.0 173.6,88.8 174.9,88.4 176.2,88.0 177.5,87.7 178.8,87.4 180.1,87.2 181.5,87.1 182.8,86.9 184.1,86.6 185.4,86.4 186.7,86.1 188.0,86.0 189.4,85.8 190.7,85.6 192.0,85.4 193.3,85.3 194.6,85.1 196.0,84.8 197.3,84.5 198.6,84.2 199.9,84.1 201.2,83.9 202.5,83.8 203.9,83.6 205.2,83.5 206.5,83.0 207.8,82.7 209.1,82.3 210.4,82.1 211.8,82.1 213.1,81.9 214.4,81.7 215.7,81.5 217.0,81.3 218.3,81.0 219.7,80.8 221.0,80.7 222.3,80.5 223.6,80.4 224.9,80.3 226.2,80.1 227.6,79.9 228.9,79.7 230.2,79.5 231.5,79.4 232.8,79.3 234.1,79.2 235.5,79.0 236.8,78.8 238.1,78.6 239.4,78.4 240.7,78.2 242.0,78.0 243.4,77.9 244.7,77.8 246.0,77.5 247.3,77.2 248.6,77.0 250.0,76.8 251.3,76.5 252.6,76.4 253.9,76.3 255.2,76.2 256.5,76.0 257.9,75.9 259.2,75.7 260.5,75.5 261.8,75.4 263.1,75.2 264.4,75.1 265.8,75.0 267.1,74.9 268.4,74.7 269.7,74.4 271.0,74.3 272.3,74.1 273.7,74.0 275.0,73.9 276.3,73.7 277.6,73.6 278.9,73.5 280.2,73.4 281.6,73.1 282.9,72.8 284.2,72.6 285.5,72.4 286.8,72.4 288.1,72.3 289.5,72.1 290.8,71.9 292.1,71.7 293.4,71.6 294.7,71.5 296.0,71.3 297.4,71.1 298.7,71.0 300.0,70.9 301.3,70.7 302.6,70.5 304.0,70.3 305.3,70.1 306.6,70.0 307.9,70.0 309.2,69.9 310.5,69.7 311.9,69.6 313.2,69.4 314.5,69.3 315.8,69.1 317.1,69.0 318.4,68.9 319.8,68.8 321.1,68.6 322.4,68.4 323.7,68.2 325.0,68.0 326.3,67.9 327.7,67.8 329.0,67.7 330.3,67.6 331.6,67.5 332.9,67.4 334.2,67.3 335.6,67.0 336.9,66.9 338.2,66.8 339.5,66.7 340.8,66.5 342.1,66.4 343.5,66.2 344.8,66.1 346.1,66.0 347.4,65.9 348.7,65.7 350.0,65.5 351.4,65.4 352.7,65.3 354.0,65.2 355.3,65.1 356.6,65.0 358.0,64.9 359.3,64.7 360.6,64.7 361.9,64.6 363.2,64.3 364.5,64.1 365.9,68.3 367.2,67.4 368.5,65.9 369.8,65.2 371.1,64.5 372.4,63.6 373.8,63.1 375.1,62.8 376.4,62.2 377.7,61.3 379.0,60.6 380.3,60.4 381.7,60.0 383.0,59.8 384.3,59.3 385.6,58.8 386.9,58.3 388.2,58.1 389.6,57.6 390.9,57.4 392.2,57.1 393.5,56.9 394.8,56.6 396.1,56.4 397.5,55.9 398.8,55.6 400.1,55.2 401.4,54.6 402.7,54.3 404.0,54.1 405.4,53.9 406.7,53.7 408.0,53.3 409.3,53.0 410.6,52.7 412.0,51.9 413.3,51.2 414.6,50.9 415.9,50.7 417.2,50.4 418.5,50.0 419.9,49.6 421.2,49.1 422.5,48.8 423.8,48.5 425.1,48.2 426.4,47.8 427.8,47.6 429.1,47.4 430.4,47.2 431.7,47.1 433.0,46.8 434.3,46.7 435.7,46.4 437.0,46.2 438.3,46.1 439.6,45.8 440.9,45.6 442.2,45.5 443.6,45.3 444.9,45.1 446.2,45.0 447.5,44.8 448.8,44.7 450.1,44.5 451.5,44.4 452.8,44.2 454.1,44.1 455.4,43.9 456.7,43.7 458.0,43.5 459.4,43.4 460.7,43.2 462.0,43.1 463.3,43.0 464.6,42.8 466.0,42.7 467.3,42.6 468.6,42.5 469.9,42.3 471.2,42.1 472.5,42.0 473.9,41.7 475.2,41.5 476.5,41.4 477.8,41.2 479.1,41.0 480.4,40.8 481.8,40.6 483.1,40.4 484.4,40.2 485.7,39.9 487.0,39.7 488.3,39.5 489.7,39.3 491.0,39.0 492.3,38.9 493.6,38.8 494.9,38.7 496.2,38.5 497.6,38.4 498.9,38.2 500.2,38.1 501.5,37.9 502.8,37.7 504.1,37.4 505.5,37.2 506.8,37.0 508.1,36.7 509.4,36.6 510.7,36.4 512.0,36.3 513.4,36.2 514.7,36.0 516.0,35.9 517.3,35.7 518.6,35.5 520.0,35.3 521.3,35.1 522.6,35.0 523.9,34.8 525.2,34.7 526.5,34.6 527.9,34.5 529.2,34.4 530.5,34.2 531.8,34.1 533.1,34.0 534.4,33.8 535.8,33.6 537.1,33.5 538.4,33.3 539.7,33.2 541.0,33.1 542.3,32.9 543.7,32.8 545.0,32.7 546.3,32.5 547.6,32.4 548.9,32.1 550.2,32.0 551.6,31.6 552.9,31.6 554.2,31.5 555.5,31.4 556.8,31.2 558.1,31.2 559.5,31.1 560.8,31.0 562.1,30.9 563.4,30.8 564.7,30.6 566.0,30.5 567.4,30.3 568.7,30.1 570.0,30.0 570.0,30.0,120" />
  
  <!-- Linea principale -->
  <polyline fill="none" stroke="#0366d6" stroke-width="2.5" stroke-linecap="round" stroke-linejoin="round" points="30.0,120.0 31.3,119.5 32.6,118.9 34.0,118.5 35.3,118.3 36.6,118.1 37.9,117.5 39.2,117.1 40.5,116.9 41.9,116.3 43.2,116.0 44.5,115.7 45.8,115.5 47.1,115.2 48.4,114.8 49.8,114.4 51.1,114.0 52.4,113.8 53.7,113.7 55.0,113.4 56.3,113.1 57.7,112.8 59.0,112.6 60.3,112.4 61.6,111.4 62.9,111.1 64.2,110.8 65.6,110.4 66.9,110.1 68.2,109.8 69.5,109.5 70.8,109.4 72.1,109.1 73.5,108.7 74.8,108.3 76.1,108.0 77.4,107.7 78.7,107.6 80.0,107.5 81.4,107.3 82.7,107.0 84.0,106.9 85.3,106.7 86.6,106.4 88.0,105.9 89.3,105.8 90.6,105.7 91.9,105.5 93.2,105.0 94.5,104.8 95.9,104.4 97.2,104.1 98.5,103.7 99.8,103.6 101.1,103.4 102.4,103.0 103.8,102.6 105.1,102.3 106.4,102.2 107.7,102.0 109.0,101.8 110.3,101.4 111.7,101.0 113.0,100.7 114.3,100.3 115.6,100.1 116.9,100.0 118.2,99.9 119.6,99.6 120.9,99.4 122.2,99.2 123.5,99.1 124.8,99.0 126.1,98.7 127.5,98.6 128.8,98.5 130.1,98.4 131.4,98.0 132.7,97.8 134.0,97.7 135.4,97.6 136.7,97.5 138.0,97.5 139.3,104.0 140.6,103.3 142.0,102.8 143.3,102.2 144.6,100.4 145.9,99.2 147.2,97.9 148.5,97.4 149.9,96.8 151.2,95.9 152.5,95.0 153.8,94.2 155.1,94.0 156.4,93.7 157.8,93.0 159.1,92.5 160.4,92.2 161.7,91.8 163.0,91.6 164.3,91.5 165.7,91.1 167.0,90.5 168.3,90.1 169.6,89.7 170.9,89.2 172.2,89.0 173.6,88.8 174.9,88.4 176.2,88.0 177.5,87.7 178.8,87.4 180.1,87.2 181.5,87.1 182.8,86.9 184.1,86.6 185.4,86.4 186.7,86.1 188.0,86.0 189.4,85.8 190.7,85.6 192.0,85.4 193.3,85.3 194.6,85.1 196.0,84.8 197.3,84.5 198.6,84.2 199.9,84.1 201.2,83.9 202.5,83.8 203.9,83.6 205.2,83.5 206.5,83.0 207.8,82.7 209.1,82.3 210.4,82.1 211.8,82.1 213.1,81.9 214.4,81.7 215.7,81.5 217.0,81.3 218.3,81.0 219.7,80.8 221.0,80.7 222.3,80.5 223.6,80.4 224.9,80.3 226.2,80.1 227.6,79.9 228.9,79.7 230.2,79.5 231.5,79.4 232.8,79.3 234.1,79.2 235.5,79.0 236.8,78.8 238.1,78.6 239.4,78.4 240.7,78.2 242.0,78.0 243.4,77.9 244.7,77.8 246.0,77.5 247.3,77.2 248.6,77.0 250.0,76.8 251.3,76.5 252.6,76.4 253.9,76.3 255.2,76.2 256.5,76.0 257.9,75.9 259.2,75.7 260.5,75.5 261.8,75.4 263.1,75.2 264.4,75.1 265.8,75.0 267.1,74.9 268.4,74.7 269.7,74.4 271.0,74.3 272.3,74.1 273.7,74.0 275.0,73.9 276.3,73.7 277.6,73.6 278.9,73.5 280.2,73.4 281.6,73.1 282.9,72.8 284.2,72.6 285.5,72.4 286.8,72.4 288.1,72.3 289.5,72.1 290.8,71.9 292.1,71.7 293.4,71.6 294.7,71.5 296.0,71.3 297.4,71.1 298.7,71.0 300.0,70.9 301.3,70.7 302.6,70.5 304.0,70.3 305.3,70.1 306.6,70.0 307.9,70.0 309.2,69.9 310.5,69.7 311.9,69.6 313.2,69.4 314.5,69.3 315.8,69.1 317.1,69.0 318.4,68.9 319.8,68.8 321.1,68.6 322.4,68.4 323.7,68.2 325.0,68.0 326.3,67.9 327.7,67.8 329.0,67.7 330.3,67.6 331.6,67.5 332.9,67.4 334.2,67.3 335.6,67.0 336.9,66.9 338.2,66.8 339.5,66.7 340.8,66.5 342.1,66.4 343.5,66.2 344.8,66.1 346.1,66.0 347.4,65.9 348.7,65.7 350.0,65.5 351.4,65.4 352.7,65.3 354.0,65.2 355.3,65.1 356.6,65.0 358.0,64.9 359.3,64.7 360.6,64.7 361.9,64.6 363.2,64.3 364.5,64.1 365.9,68.3 367.2,67.4 368.5,65.9 369.8,65.2 371.1,64.5 372.4,63.6 373.8,63.1 375.1,62.8 376.4,62.2 377.7,61.3 379.0,60.6 380.3,60.4 381.7,60.0 383.0,59.8 384.3,59.3 385.6,58.8 386.9,58.3 388.2,58.1 389.6,57.6 390.9,57.4 392.2,57.1 393.5,56.9 394.8,56.6 396.1,56.4 397.5,55.9 398.8,55.6 400.1,55.2 401.4,54.6 402.7,54.3 404.0,54.1 405.4,53.9 406.7,53.7 408.0,53.3 409.3,53.0 410.6,52.7 412.0,51.9 413.3,51.2 414.6,50.9 415.9,50.7 417.2,50.4 418.5,50.0 419.9,49.6 421.2,49.1 422.5,48.8 423.8,48.5 425.1,48.2 426.4,47.8 427.8,47.6 429.1,47.4 430.4,47.2 431.7,47.1 433.0,46.8 434.3,46.7 435.7,46.4 437.0,46.2 438.3,46.1 439.6,45.8 440.9,45.6 442.2,45.5 443.6,45.3 444.9,45.1 446.2,45.0 447.5,44.8 448.8,44.7 450.1,44.5 451.5,44.4 452.8,44.2 454.1,44.1 455.4,43.9 456.7,43.7 458.0,43.5 459.4,43.4 460.7,43.2 462.0,43.1 463.3,43.0 464.6,42.8 466.0,42.7 467.3,42.6 468.6,42.5 469.9,42.3 471.2,42.1 472.5,42.0 473.9,41.7 475.2,41.5 476.5,41.4 477.8,41.2 479.1,41.0 480.4,40.8 481.8,40.6 483.1,40.4 484.4,40.2 485.7,39.9 487.0,39.7 488.3,39.5 489.7,39.3 491.0,39.0 492.3,38.9 493.6,38.8 494.9,38.7 496.2,38.5 497.6,38.4 498.9,38.2 500.2,38.1 501.5,37.9 502.8,37.7 504.1,37.4 505.5,37.2 506.8,37.0 508.1,36.7 509.4,36.6 510.7,36.4 512.0,36.3 513.4,36.2 514.7,36.0 516.0,35.9 517.3,35.7 518.6,35.5 520.0,35.3 521.3,35.1 522.6,35.0 523.9,34.8 525.2,34.7 526.5,34.6 527.9,34.5 529.2,34.4 530.5,34.2 531.8,34.1 533.1,34.0 534.4,33.8 535.8,33.6 537.1,33.5 538.4,33.3 539.7,33.2 541.0,33.1 542.3,32.9 543.7,32.8 545.0,32.7 546.3,32.5 547.6,32.4 548.9,32.1 550.2,32.0 551.6,31.6 552.9,31.6 554.2,31.5 555.5,31.4 556.8,31.2 558.1,31.2 559.5,31.1 560.8,31.0 562.1,30.9 563.4,30.8 564.7,30.6 566.0,30.5 567.4,30.3 568.7,30.1 570.0,30.0" />
  
  <!-- Punto finale luminoso -->
  <circle cx="570.0" cy="30.0" r="4" fill="#ffffff" stroke="#0366d6" stroke-width="2.5" />
</svg>