<svg width="600" height="150" viewBox="0 0 600 150" xmlns="http://www.w3.org/2000/svg">
  <defs>
    <filter id="shadow2" x="-2%" y="-2%" width="104%" height="108%">
      <feDropShadow dx="0" dy="2" stdDeviation="3" flood-opacity="0.1" />
    </filter>
    <linearGradient id="fillGrad" x1="0" y1="0" x2="0" y2="1">
      <stop offset="0%" stop-color="#0366d6" stop-opacity="0.3"/>
      <stop offset="100%" stop-color="#0366d6" stop-opacity="0.02"/>
    </linearGradient>
  </defs>
  <rect width="600" height="150" rx="12" fill="#ffffff" filter="url(#shadow2)" stroke="#e1e4e8" stroke-width="1"/>
  <text x="20" y="24" fill="#2b3137" font-family="-apple-system,BlinkMacSystemFont,'Segoe UI',Helvetica,Arial,sans-serif" font-size="14" font-weight="600">📈 Download Growth (Actual: 84.5k)</text>
  
  <!-- Area sotto la linea -->
  <polygon fill="url(#fillGrad)" points="30.0,120.0,120 30.0,120.0 31.6,119.4 33.2,118.8 34.7,118.3 36.3,118.1 37.9,117.8 39.5,117.2 41.1,116.7 42.6,116.4 44.2,115.7 45.8,115.4 47.4,115.1 48.9,114.9 50.5,114.5 52.1,114.1 53.7,113.6 55.3,113.2 56.8,113.0 58.4,112.8 60.0,112.5 61.6,112.1 63.2,111.8 64.7,111.6 66.3,111.3 67.9,110.3 69.5,109.9 71.1,109.5 72.6,109.1 74.2,108.7 75.8,108.4 77.4,108.1 78.9,107.9 80.5,107.6 82.1,107.1 83.7,106.7 85.3,106.4 86.8,106.0 88.4,105.9 90.0,105.8 91.6,105.6 93.2,105.3 94.7,105.1 96.3,104.9 97.9,104.5 99.5,103.9 101.1,103.8 102.6,103.7 104.2,103.5 105.8,103.0 107.4,102.7 108.9,102.2 110.5,101.9 112.1,101.5 113.7,101.4 115.3,101.1 116.8,100.7 118.4,100.2 120.0,99.9 121.6,99.8 123.2,99.6 124.7,99.4 126.3,98.9 127.9,98.4 129.5,98.0 131.1,97.6 132.6,97.4 134.2,97.3 135.8,97.1 137.4,96.8 138.9,96.6 140.5,96.4 142.1,96.2 143.7,96.1 145.3,95.8 146.8,95.7 148.4,95.6 150.0,95.5 151.6,95.0 153.2,94.8 154.7,94.7 156.3,94.6 157.9,94.5 159.5,94.5 161.1,101.8 162.6,101.1 164.2,100.4 165.8,99.7 167.4,97.7 168.9,96.3 170.5,94.9 172.1,94.3 173.7,93.7 175.3,92.7 176.8,91.5 178.4,90.7 180.0,90.4 181.6,90.1 183.2,89.3 184.7,88.7 186.3,88.4 187.9,87.9 189.5,87.7 191.1,87.6 192.6,87.2 194.2,86.5 195.8,86.0 197.4,85.5 198.9,85.0 200.5,84.7 202.1,84.5 203.7,84.1 205.3,83.6 206.8,83.2 208.4,82.9 210.0,82.8 211.6,82.7 213.2,82.4 214.7,82.1 216.3,81.8 217.9,81.5 219.5,81.3 221.1,81.1 222.6,80.9 224.2,80.7 225.8,80.5 227.4,80.4 228.9,80.0 230.5,79.7 232.1,79.4 233.7,79.2 235.3,79.0 236.8,78.8 238.4,78.7 240.0,78.5 241.6,77.9 243.2,77.6 244.7,77.2 246.3,77.0 247.9,76.9 249.5,76.7 251.1,76.5 252.6,76.2 254.2,76.0 255.8,75.6 257.4,75.4 258.9,75.3 260.5,75.2 262.1,75.0 263.7,74.9 265.3,74.7 266.8,74.5 268.4,74.2 270.0,74.0 271.6,73.9 273.2,73.8 274.7,73.7 276.3,73.4 277.9,73.2 279.5,72.9 281.1,72.7 282.6,72.5 284.2,72.3 285.8,72.2 287.4,72.0 288.9,71.7 290.5,71.4 292.1,71.2 293.7,70.9 295.3,70.5 296.8,70.4 298.4,70.3 300.0,70.2 301.6,70.0 303.2,69.8 304.7,69.6 306.3,69.5 307.9,69.3 309.5,69.1 311.1,68.9 312.6,68.8 314.2,68.7 315.8,68.5 317.4,68.2 318.9,68.1 320.5,67.9 322.1,67.7 323.7,67.6 325.3,67.4 326.8,67.3 328.4,67.2 330.0,67.0 331.6,66.7 333.2,66.3 334.7,66.1 336.3,65.9 337.9,65.9 339.5,65.8 341.1,65.6 342.6,65.3 344.2,65.2 345.8,65.0 347.4,64.8 348.9,64.7 350.5,64.5 352.1,64.3 353.7,64.2 355.3,64.0 356.8,63.8 358.4,63.5 360.0,63.3 361.6,63.2 363.2,63.1 364.7,63.1 366.3,62.9 367.9,62.7 369.5,62.5 371.1,62.4 372.6,62.2 374.2,62.0 375.8,61.9 377.4,61.8 378.9,61.6 380.5,61.4 382.1,61.1 383.7,61.0 385.3,60.8 386.8,60.6 388.4,60.5 390.0,60.4 391.6,60.3 393.2,60.2 394.7,60.1 396.3,59.8 397.9,59.7 399.5,59.5 401.1,59.4 402.6,59.2 404.2,59.1 405.8,58.9 407.4,58.7 408.9,58.6 410.5,58.5 412.1,58.3 413.7,58.1 415.3,57.9 416.8,57.8 418.4,57.7 420.0,57.6 421.6,57.5 423.2,57.3 424.7,57.2 426.3,57.2 427.9,57.0 429.5,56.7 431.1,56.4 432.6,61.2 434.2,60.3 435.8,58.5 437.4,57.8 438.9,56.9 440.5,55.9 442.1,55.4 443.7,55.0 445.3,54.3 446.8,53.3 448.4,52.5 450.0,52.2 451.6,51.9 453.2,51.5 454.7,51.0 456.3,50.5 457.9,49.9 459.5,49.6 461.1,49.1 462.6,48.8 464.2,48.5 465.8,48.2 467.4,48.0 468.9,47.7 470.5,47.2 472.1,46.8 473.7,46.4 475.3,45.7 476.8,45.3 478.4,45.1 480.0,44.9 481.6,44.7 483.2,44.2 484.7,43.9 486.3,43.5 487.9,42.6 489.5,41.8 491.1,41.5 492.6,41.3 494.2,40.9 495.8,40.4 497.4,40.0 498.9,39.4 500.5,39.1 502.1,38.7 503.7,38.4 505.3,37.9 506.8,37.7 508.4,37.5 510.0,37.3 511.6,37.1 513.2,36.8 514.7,36.6 516.3,36.4 517.9,36.2 519.5,36.0 521.1,35.7 522.6,35.5 524.2,35.3 525.8,35.1 527.4,34.9 528.9,34.7 530.5,34.6 532.1,34.4 533.7,34.2 535.3,34.1 536.8,33.9 538.4,33.7 540.0,33.5 541.6,33.3 543.2,33.1 544.7,32.9 546.3,32.7 547.9,32.6 549.5,32.5 551.1,32.3 552.6,32.1 554.2,32.0 555.8,31.9 557.4,31.7 558.9,31.5 560.5,31.3 562.1,31.1 563.7,30.8 565.3,30.7 566.8,30.4 568.4,30.2 570.0,30.0 570.0,30.0,120" />
  
  <!-- Linea principale -->
  <polyline fill="none" stroke="#0366d6" stroke-width="2.5" stroke-linecap="round" stroke-linejoin="round" points="30.0,120.0 31.6,119.4 33.2,118.8 34.7,118.3 36.3,118.1 37.9,117.8 39.5,117.2 41.1,116.7 42.6,116.4 44.2,115.7 45.8,115.4 47.4,115.1 48.9,114.9 50.5,114.5 52.1,114.1 53.7,113.6 55.3,113.2 56.8,113.0 58.4,112.8 60.0,112.5 61.6,112.1 63.2,111.8 64.7,111.6 66.3,111.3 67.9,110.3 69.5,109.9 71.1,109.5 72.6,109.1 74.2,108.7 75.8,108.4 77.4,108.1 78.9,107.9 80.5,107.6 82.1,107.1 83.7,106.7 85.3,106.4 86.8,106.0 88.4,105.9 90.0,105.8 91.6,105.6 93.2,105.3 94.7,105.1 96.3,104.9 97.9,104.5 99.5,103.9 101.1,103.8 102.6,103.7 104.2,103.5 105.8,103.0 107.4,102.7 108.9,102.2 110.5,101.9 112.1,101.5 113.7,101.4 115.3,101.1 116.8,100.7 118.4,100.2 120.0,99.9 121.6,99.8 123.2,99.6 124.7,99.4 126.3,98.9 127.9,98.4 129.5,98.0 131.1,97.6 132.6,97.4 134.2,97.3 135.8,97.1 137.4,96.8 138.9,96.6 140.5,96.4 142.1,96.2 143.7,96.1 145.3,95.8 146.8,95.7 148.4,95.6 150.0,95.5 151.6,95.0 153.2,94.8 154.7,94.7 156.3,94.6 157.9,94.5 159.5,94.5 161.1,101.8 162.6,101.1 164.2,100.4 165.8,99.7 167.4,97.7 168.9,96.3 170.5,94.9 172.1,94.3 173.7,93.7 175.3,92.7 176.8,91.5 178.4,90.7 180.0,90.4 181.6,90.1 183.2,89.3 184.7,88.7 186.3,88.4 187.9,87.9 189.5,87.7 191.1,87.6 192.6,87.2 194.2,86.5 195.8,86.0 197.4,85.5 198.9,85.0 200.5,84.7 202.1,84.5 203.7,84.1 205.3,83.6 206.8,83.2 208.4,82.9 210.0,82.8 211.6,82.7 213.2,82.4 214.7,82.1 216.3,81.8 217.9,81.5 219.5,81.3 221.1,81.1 222.6,80.9 224.2,80.7 225.8,80.5 227.4,80.4 228.9,80.0 230.5,79.7 232.1,79.4 233.7,79.2 235.3,79.0 236.8,78.8 238.4,78.7 240.0,78.5 241.6,77.9 243.2,77.6 244.7,77.2 246.3,77.0 247.9,76.9 249.5,76.7 251.1,76.5 252.6,76.2 254.2,76.0 255.8,75.6 257.4,75.4 258.9,75.3 260.5,75.2 262.1,75.0 263.7,74.9 265.3,74.7 266.8,74.5 268.4,74.2 270.0,74.0 271.6,73.9 273.2,73.8 274.7,73.7 276.3,73.4 277.9,73.2 279.5,72.9 281.1,72.7 282.6,72.5 284.2,72.3 285.8,72.2 287.4,72.0 288.9,71.7 290.5,71.4 292.1,71.2 293.7,70.9 295.3,70.5 296.8,70.4 298.4,70.3 300.0,70.2 301.6,70.0 303.2,69.8 304.7,69.6 306.3,69.5 307.9,69.3 309.5,69.1 311.1,68.9 312.6,68.8 314.2,68.7 315.8,68.5 317.4,68.2 318.9,68.1 320.5,67.9 322.1,67.7 323.7,67.6 325.3,67.4 326.8,67.3 328.4,67.2 330.0,67.0 331.6,66.7 333.2,66.3 334.7,66.1 336.3,65.9 337.9,65.9 339.5,65.8 341.1,65.6 342.6,65.3 344.2,65.2 345.8,65.0 347.4,64.8 348.9,64.7 350.5,64.5 352.1,64.3 353.7,64.2 355.3,64.0 356.8,63.8 358.4,63.5 360.0,63.3 361.6,63.2 363.2,63.1 364.7,63.1 366.3,62.9 367.9,62.7 369.5,62.5 371.1,62.4 372.6,62.2 374.2,62.0 375.8,61.9 377.4,61.8 378.9,61.6 380.5,61.4 382.1,61.1 383.7,61.0 385.3,60.8 386.8,60.6 388.4,60.5 390.0,60.4 391.6,60.3 393.2,60.2 394.7,60.1 396.3,59.8 397.9,59.7 399.5,59.5 401.1,59.4 402.6,59.2 404.2,59.1 405.8,58.9 407.4,58.7 408.9,58.6 410.5,58.5 412.1,58.3 413.7,58.1 415.3,57.9 416.8,57.8 418.4,57.7 420.0,57.6 421.6,57.5 423.2,57.3 424.7,57.2 426.3,57.2 427.9,57.0 429.5,56.7 431.1,56.4 432.6,61.2 434.2,60.3 435.8,58.5 437.4,57.8 438.9,56.9 440.5,55.9 442.1,55.4 443.7,55.0 445.3,54.3 446.8,53.3 448.4,52.5 450.0,52.2 451.6,51.9 453.2,51.5 454.7,51.0 456.3,50.5 457.9,49.9 459.5,49.6 461.1,49.1 462.6,48.8 464.2,48.5 465.8,48.2 467.4,48.0 468.9,47.7 470.5,47.2 472.1,46.8 473.7,46.4 475.3,45.7 476.8,45.3 478.4,45.1 480.0,44.9 481.6,44.7 483.2,44.2 484.7,43.9 486.3,43.5 487.9,42.6 489.5,41.8 491.1,41.5 492.6,41.3 494.2,40.9 495.8,40.4 497.4,40.0 498.9,39.4 500.5,39.1 502.1,38.7 503.7,38.4 505.3,37.9 506.8,37.7 508.4,37.5 510.0,37.3 511.6,37.1 513.2,36.8 514.7,36.6 516.3,36.4 517.9,36.2 519.5,36.0 521.1,35.7 522.6,35.5 524.2,35.3 525.8,35.1 527.4,34.9 528.9,34.7 530.5,34.6 532.1,34.4 533.7,34.2 535.3,34.1 536.8,33.9 538.4,33.7 540.0,33.5 541.6,33.3 543.2,33.1 544.7,32.9 546.3,32.7 547.9,32.6 549.5,32.5 551.1,32.3 552.6,32.1 554.2,32.0 555.8,31.9 557.4,31.7 558.9,31.5 560.5,31.3 562.1,31.1 563.7,30.8 565.3,30.7 566.8,30.4 568.4,30.2 570.0,30.0" />
  
  <!-- Punto finale luminoso -->
  <circle cx="570.0" cy="30.0" r="4" fill="#ffffff" stroke="#0366d6" stroke-width="2.5" />
</svg>