<svg width="600" height="150" viewBox="0 0 600 150" xmlns="http://www.w3.org/2000/svg">
  <defs>
    <filter id="shadow2" x="-2%" y="-2%" width="104%" height="108%">
      <feDropShadow dx="0" dy="2" stdDeviation="3" flood-opacity="0.1" />
    </filter>
    <linearGradient id="fillGrad" x1="0" y1="0" x2="0" y2="1">
      <stop offset="0%" stop-color="#0366d6" stop-opacity="0.3"/>
      <stop offset="100%" stop-color="#0366d6" stop-opacity="0.02"/>
    </linearGradient>
  </defs>
  <rect width="600" height="150" rx="12" fill="#ffffff" filter="url(#shadow2)" stroke="#e1e4e8" stroke-width="1"/>
  <text x="20" y="24" fill="#2b3137" font-family="-apple-system,BlinkMacSystemFont,'Segoe UI',Helvetica,Arial,sans-serif" font-size="14" font-weight="600">📈 Download Growth (Actual: 85.1k)</text>
  
  <!-- Area sotto la linea -->
  <polygon fill="url(#fillGrad)" points="30.0,120.0,120 30.0,120.0 31.5,119.4 33.0,118.8 34.5,118.3 36.1,118.2 37.6,117.9 39.1,117.3 40.6,116.8 42.1,116.5 43.6,115.9 45.1,115.6 46.6,115.2 48.2,115.0 49.7,114.7 51.2,114.3 52.7,113.8 54.2,113.4 55.7,113.2 57.2,113.0 58.7,112.7 60.3,112.4 61.8,112.1 63.3,111.9 64.8,111.6 66.3,110.6 67.8,110.3 69.3,109.9 70.8,109.5 72.4,109.1 73.9,108.7 75.4,108.5 76.9,108.3 78.4,108.1 79.9,107.5 81.4,107.1 82.9,106.8 84.5,106.5 86.0,106.4 87.5,106.3 89.0,106.1 90.5,105.8 92.0,105.6 93.5,105.4 95.0,105.0 96.6,104.5 98.1,104.3 99.6,104.2 101.1,104.0 102.6,103.6 104.1,103.3 105.6,102.8 107.1,102.5 108.7,102.1 110.2,102.0 111.7,101.8 113.2,101.3 114.7,100.9 116.2,100.6 117.7,100.5 119.2,100.2 120.8,100.1 122.3,99.6 123.8,99.1 125.3,98.8 126.8,98.4 128.3,98.2 129.8,98.1 131.3,97.9 132.9,97.6 134.4,97.4 135.9,97.2 137.4,97.0 138.9,96.9 140.4,96.7 141.9,96.5 143.4,96.4 145.0,96.3 146.5,95.9 148.0,95.6 149.5,95.6 151.0,95.4 152.5,95.3 154.0,95.3 155.5,102.4 157.1,101.7 158.6,101.1 160.1,100.4 161.6,98.5 163.1,97.1 164.6,95.7 166.1,95.2 167.6,94.6 169.2,93.6 170.7,92.5 172.2,91.7 173.7,91.4 175.2,91.1 176.7,90.4 178.2,89.8 179.7,89.4 181.3,89.0 182.8,88.8 184.3,88.7 185.8,88.3 187.3,87.6 188.8,87.2 190.3,86.7 191.8,86.2 193.4,85.9 194.9,85.7 196.4,85.3 197.9,84.9 199.4,84.5 200.9,84.2 202.4,84.0 203.9,83.9 205.5,83.7 207.0,83.3 208.5,83.1 210.0,82.8 211.5,82.6 213.0,82.4 214.5,82.2 216.1,82.0 217.6,81.9 219.1,81.7 220.6,81.3 222.1,81.0 223.6,80.7 225.1,80.5 226.6,80.3 228.2,80.2 229.7,80.0 231.2,79.9 232.7,79.4 234.2,79.0 235.7,78.6 237.2,78.4 238.7,78.4 240.3,78.2 241.8,78.0 243.3,77.7 244.8,77.4 246.3,77.1 247.8,76.9 249.3,76.8 250.8,76.7 252.4,76.5 253.9,76.4 255.4,76.2 256.9,76.0 258.4,75.7 259.9,75.6 261.4,75.5 262.9,75.3 264.5,75.2 266.0,74.9 267.5,74.7 269.0,74.5 270.5,74.3 272.0,74.0 273.5,73.9 275.0,73.8 276.6,73.6 278.1,73.3 279.6,73.0 281.1,72.8 282.6,72.6 284.1,72.2 285.6,72.1 287.1,72.0 288.7,71.9 290.2,71.7 291.7,71.5 293.2,71.3 294.7,71.2 296.2,71.0 297.7,70.8 299.2,70.6 300.8,70.5 302.3,70.4 303.8,70.2 305.3,70.0 306.8,69.8 308.3,69.6 309.8,69.5 311.3,69.4 312.9,69.2 314.4,69.1 315.9,68.9 317.4,68.8 318.9,68.5 320.4,68.1 321.9,67.9 323.4,67.8 325.0,67.7 326.5,67.6 328.0,67.4 329.5,67.1 331.0,67.0 332.5,66.9 334.0,66.7 335.5,66.5 337.1,66.3 338.6,66.2 340.1,66.1 341.6,65.8 343.1,65.7 344.6,65.4 346.1,65.2 347.6,65.1 349.2,65.0 350.7,65.0 352.2,64.8 353.7,64.6 355.2,64.5 356.7,64.3 358.2,64.1 359.7,64.0 361.3,63.9 362.8,63.7 364.3,63.6 365.8,63.3 367.3,63.1 368.8,62.9 370.3,62.8 371.8,62.6 373.4,62.5 374.9,62.4 376.4,62.3 377.9,62.2 379.4,62.1 380.9,61.8 382.4,61.7 383.9,61.5 385.5,61.4 387.0,61.3 388.5,61.1 390.0,60.9 391.5,60.8 393.0,60.7 394.5,60.5 396.1,60.3 397.6,60.2 399.1,60.0 400.6,59.9 402.1,59.8 403.6,59.7 405.1,59.6 406.6,59.4 408.2,59.3 409.7,59.3 411.2,59.1 412.7,58.8 414.2,58.6 415.7,63.2 417.2,62.3 418.7,60.5 420.3,59.9 421.8,59.1 423.3,58.1 424.8,57.5 426.3,57.2 427.8,56.5 429.3,55.5 430.8,54.7 432.4,54.5 433.9,54.1 435.4,53.8 436.9,53.3 438.4,52.8 439.9,52.3 441.4,52.0 442.9,51.5 444.5,51.2 446.0,50.9 447.5,50.7 449.0,50.4 450.5,50.1 452.0,49.6 453.5,49.3 455.0,48.8 456.6,48.2 458.1,47.8 459.6,47.6 461.1,47.4 462.6,47.2 464.1,46.8 465.6,46.4 467.1,46.1 468.7,45.2 470.2,44.4 471.7,44.1 473.2,43.9 474.7,43.6 476.2,43.1 477.7,42.7 479.2,42.1 480.8,41.8 482.3,41.4 483.8,41.1 485.3,40.7 486.8,40.4 488.3,40.3 489.8,40.1 491.3,39.9 492.9,39.6 494.4,39.4 495.9,39.2 497.4,39.0 498.9,38.8 500.4,38.5 501.9,38.3 503.4,38.1 505.0,37.9 506.5,37.7 508.0,37.6 509.5,37.4 511.0,37.3 512.5,37.1 514.0,37.0 515.5,36.8 517.1,36.6 518.6,36.4 520.1,36.2 521.6,36.0 523.1,35.9 524.6,35.7 526.1,35.5 527.6,35.4 529.2,35.3 530.7,35.1 532.2,34.9 533.7,34.8 535.2,34.7 536.7,34.5 538.2,34.3 539.7,34.0 541.3,33.8 542.8,33.7 544.3,33.4 545.8,33.2 547.3,33.0 548.8,32.8 550.3,32.5 551.8,32.3 553.4,32.1 554.9,31.8 556.4,31.5 557.9,31.3 559.4,31.0 560.9,30.9 562.4,30.8 563.9,30.7 565.5,30.5 567.0,30.4 568.5,30.2 570.0,30.0 570.0,30.0,120" />
  
  <!-- Linea principale -->
  <polyline fill="none" stroke="#0366d6" stroke-width="2.5" stroke-linecap="round" stroke-linejoin="round" points="30.0,120.0 31.5,119.4 33.0,118.8 34.5,118.3 36.1,118.2 37.6,117.9 39.1,117.3 40.6,116.8 42.1,116.5 43.6,115.9 45.1,115.6 46.6,115.2 48.2,115.0 49.7,114.7 51.2,114.3 52.7,113.8 54.2,113.4 55.7,113.2 57.2,113.0 58.7,112.7 60.3,112.4 61.8,112.1 63.3,111.9 64.8,111.6 66.3,110.6 67.8,110.3 69.3,109.9 70.8,109.5 72.4,109.1 73.9,108.7 75.4,108.5 76.9,108.3 78.4,108.1 79.9,107.5 81.4,107.1 82.9,106.8 84.5,106.5 86.0,106.4 87.5,106.3 89.0,106.1 90.5,105.8 92.0,105.6 93.5,105.4 95.0,105.0 96.6,104.5 98.1,104.3 99.6,104.2 101.1,104.0 102.6,103.6 104.1,103.3 105.6,102.8 107.1,102.5 108.7,102.1 110.2,102.0 111.7,101.8 113.2,101.3 114.7,100.9 116.2,100.6 117.7,100.5 119.2,100.2 120.8,100.1 122.3,99.6 123.8,99.1 125.3,98.8 126.8,98.4 128.3,98.2 129.8,98.1 131.3,97.9 132.9,97.6 134.4,97.4 135.9,97.2 137.4,97.0 138.9,96.9 140.4,96.7 141.9,96.5 143.4,96.4 145.0,96.3 146.5,95.9 148.0,95.6 149.5,95.6 151.0,95.4 152.5,95.3 154.0,95.3 155.5,102.4 157.1,101.7 158.6,101.1 160.1,100.4 161.6,98.5 163.1,97.1 164.6,95.7 166.1,95.2 167.6,94.6 169.2,93.6 170.7,92.5 172.2,91.7 173.7,91.4 175.2,91.1 176.7,90.4 178.2,89.8 179.7,89.4 181.3,89.0 182.8,88.8 184.3,88.7 185.8,88.3 187.3,87.6 188.8,87.2 190.3,86.7 191.8,86.2 193.4,85.9 194.9,85.7 196.4,85.3 197.9,84.9 199.4,84.5 200.9,84.2 202.4,84.0 203.9,83.9 205.5,83.7 207.0,83.3 208.5,83.1 210.0,82.8 211.5,82.6 213.0,82.4 214.5,82.2 216.1,82.0 217.6,81.9 219.1,81.7 220.6,81.3 222.1,81.0 223.6,80.7 225.1,80.5 226.6,80.3 228.2,80.2 229.7,80.0 231.2,79.9 232.7,79.4 234.2,79.0 235.7,78.6 237.2,78.4 238.7,78.4 240.3,78.2 241.8,78.0 243.3,77.7 244.8,77.4 246.3,77.1 247.8,76.9 249.3,76.8 250.8,76.7 252.4,76.5 253.9,76.4 255.4,76.2 256.9,76.0 258.4,75.7 259.9,75.6 261.4,75.5 262.9,75.3 264.5,75.2 266.0,74.9 267.5,74.7 269.0,74.5 270.5,74.3 272.0,74.0 273.5,73.9 275.0,73.8 276.6,73.6 278.1,73.3 279.6,73.0 281.1,72.8 282.6,72.6 284.1,72.2 285.6,72.1 287.1,72.0 288.7,71.9 290.2,71.7 291.7,71.5 293.2,71.3 294.7,71.2 296.2,71.0 297.7,70.8 299.2,70.6 300.8,70.5 302.3,70.4 303.8,70.2 305.3,70.0 306.8,69.8 308.3,69.6 309.8,69.5 311.3,69.4 312.9,69.2 314.4,69.1 315.9,68.9 317.4,68.8 318.9,68.5 320.4,68.1 321.9,67.9 323.4,67.8 325.0,67.7 326.5,67.6 328.0,67.4 329.5,67.1 331.0,67.0 332.5,66.9 334.0,66.7 335.5,66.5 337.1,66.3 338.6,66.2 340.1,66.1 341.6,65.8 343.1,65.7 344.6,65.4 346.1,65.2 347.6,65.1 349.2,65.0 350.7,65.0 352.2,64.8 353.7,64.6 355.2,64.5 356.7,64.3 358.2,64.1 359.7,64.0 361.3,63.9 362.8,63.7 364.3,63.6 365.8,63.3 367.3,63.1 368.8,62.9 370.3,62.8 371.8,62.6 373.4,62.5 374.9,62.4 376.4,62.3 377.9,62.2 379.4,62.1 380.9,61.8 382.4,61.7 383.9,61.5 385.5,61.4 387.0,61.3 388.5,61.1 390.0,60.9 391.5,60.8 393.0,60.7 394.5,60.5 396.1,60.3 397.6,60.2 399.1,60.0 400.6,59.9 402.1,59.8 403.6,59.7 405.1,59.6 406.6,59.4 408.2,59.3 409.7,59.3 411.2,59.1 412.7,58.8 414.2,58.6 415.7,63.2 417.2,62.3 418.7,60.5 420.3,59.9 421.8,59.1 423.3,58.1 424.8,57.5 426.3,57.2 427.8,56.5 429.3,55.5 430.8,54.7 432.4,54.5 433.9,54.1 435.4,53.8 436.9,53.3 438.4,52.8 439.9,52.3 441.4,52.0 442.9,51.5 444.5,51.2 446.0,50.9 447.5,50.7 449.0,50.4 450.5,50.1 452.0,49.6 453.5,49.3 455.0,48.8 456.6,48.2 458.1,47.8 459.6,47.6 461.1,47.4 462.6,47.2 464.1,46.8 465.6,46.4 467.1,46.1 468.7,45.2 470.2,44.4 471.7,44.1 473.2,43.9 474.7,43.6 476.2,43.1 477.7,42.7 479.2,42.1 480.8,41.8 482.3,41.4 483.8,41.1 485.3,40.7 486.8,40.4 488.3,40.3 489.8,40.1 491.3,39.9 492.9,39.6 494.4,39.4 495.9,39.2 497.4,39.0 498.9,38.8 500.4,38.5 501.9,38.3 503.4,38.1 505.0,37.9 506.5,37.7 508.0,37.6 509.5,37.4 511.0,37.3 512.5,37.1 514.0,37.0 515.5,36.8 517.1,36.6 518.6,36.4 520.1,36.2 521.6,36.0 523.1,35.9 524.6,35.7 526.1,35.5 527.6,35.4 529.2,35.3 530.7,35.1 532.2,34.9 533.7,34.8 535.2,34.7 536.7,34.5 538.2,34.3 539.7,34.0 541.3,33.8 542.8,33.7 544.3,33.4 545.8,33.2 547.3,33.0 548.8,32.8 550.3,32.5 551.8,32.3 553.4,32.1 554.9,31.8 556.4,31.5 557.9,31.3 559.4,31.0 560.9,30.9 562.4,30.8 563.9,30.7 565.5,30.5 567.0,30.4 568.5,30.2 570.0,30.0" />
  
  <!-- Punto finale luminoso -->
  <circle cx="570.0" cy="30.0" r="4" fill="#ffffff" stroke="#0366d6" stroke-width="2.5" />
</svg>