<svg width="600" height="150" viewBox="0 0 600 150" xmlns="http://www.w3.org/2000/svg">
  <defs>
    <filter id="shadow2" x="-2%" y="-2%" width="104%" height="108%">
      <feDropShadow dx="0" dy="2" stdDeviation="3" flood-opacity="0.1" />
    </filter>
    <linearGradient id="fillGrad" x1="0" y1="0" x2="0" y2="1">
      <stop offset="0%" stop-color="#0366d6" stop-opacity="0.3"/>
      <stop offset="100%" stop-color="#0366d6" stop-opacity="0.02"/>
    </linearGradient>
  </defs>
  <rect width="600" height="150" rx="12" fill="#ffffff" filter="url(#shadow2)" stroke="#e1e4e8" stroke-width="1"/>
  <text x="20" y="24" fill="#2b3137" font-family="-apple-system,BlinkMacSystemFont,'Segoe UI',Helvetica,Arial,sans-serif" font-size="14" font-weight="600">📈 Download Growth (Actual: 83.4k)</text>
  
  <!-- Area sotto la linea -->
  <polygon fill="url(#fillGrad)" points="30.0,120.0,120 30.0,120.0 31.7,119.4 33.5,118.7 35.2,118.1 36.9,118.0 38.7,117.7 40.4,117.0 42.1,116.5 43.8,116.2 45.6,115.5 47.3,115.1 49.0,114.7 50.8,114.5 52.5,114.2 54.2,113.7 56.0,113.2 57.7,112.8 59.4,112.5 61.2,112.3 62.9,112.0 64.6,111.6 66.3,111.3 68.1,111.1 69.8,110.8 71.5,109.6 73.3,109.3 75.0,108.8 76.7,108.4 78.5,108.0 80.2,107.6 81.9,107.4 83.7,107.2 85.4,106.8 87.1,106.3 88.8,105.8 90.6,105.5 92.3,105.1 94.0,105.0 95.8,104.9 97.5,104.7 99.2,104.3 101.0,104.1 102.7,103.9 104.4,103.5 106.2,102.9 107.9,102.8 109.6,102.6 111.3,102.4 113.1,101.9 114.8,101.6 116.5,101.1 118.3,100.7 120.0,100.3 121.7,100.2 123.5,99.9 125.2,99.4 126.9,99.0 128.7,98.6 130.4,98.5 132.1,98.2 133.8,98.0 135.6,97.5 137.3,97.0 139.0,96.6 140.8,96.2 142.5,95.9 144.2,95.8 146.0,95.6 147.7,95.3 149.4,95.0 151.2,94.8 152.9,94.7 154.6,94.5 156.3,94.3 158.1,94.1 159.8,94.0 161.5,93.9 163.3,93.4 165.0,93.1 166.7,93.1 168.5,92.9 170.2,92.8 171.9,92.8 173.7,100.6 175.4,99.8 177.1,99.1 178.8,98.4 180.6,96.3 182.3,94.8 184.0,93.2 185.8,92.6 187.5,92.0 189.2,90.9 191.0,89.7 192.7,88.8 194.4,88.5 196.2,88.2 197.9,87.3 199.6,86.7 201.3,86.3 203.1,85.8 204.8,85.6 206.5,85.5 208.3,85.1 210.0,84.3 211.7,83.8 213.5,83.3 215.2,82.7 216.9,82.4 218.7,82.2 220.4,81.7 222.1,81.3 223.8,80.8 225.6,80.5 227.3,80.3 229.0,80.2 230.8,80.0 232.5,79.6 234.2,79.3 236.0,79.0 237.7,78.8 239.4,78.6 241.2,78.4 242.9,78.1 244.6,78.0 246.3,77.8 248.1,77.4 249.8,77.1 251.5,76.7 253.3,76.5 255.0,76.3 256.7,76.1 258.5,76.0 260.2,75.8 261.9,75.2 263.7,74.8 265.4,74.4 267.1,74.2 268.8,74.1 270.6,73.9 272.3,73.7 274.0,73.4 275.8,73.1 277.5,72.8 279.2,72.5 281.0,72.4 282.7,72.2 284.4,72.1 286.2,71.9 287.9,71.7 289.6,71.5 291.3,71.2 293.1,71.0 294.8,70.9 296.5,70.7 298.3,70.6 300.0,70.3 301.7,70.1 303.5,69.8 305.2,69.6 306.9,69.4 308.7,69.2 310.4,69.1 312.1,68.9 313.8,68.6 315.6,68.2 317.3,68.0 319.0,67.7 320.8,67.3 322.5,67.2 324.2,67.1 326.0,67.0 327.7,66.8 329.4,66.6 331.2,66.3 332.9,66.2 334.6,66.0 336.3,65.8 338.1,65.6 339.8,65.5 341.5,65.4 343.3,65.2 345.0,64.9 346.7,64.7 348.5,64.5 350.2,64.3 351.9,64.2 353.7,64.0 355.4,63.9 357.1,63.7 358.8,63.5 360.6,63.2 362.3,62.8 364.0,62.6 365.8,62.4 367.5,62.4 369.2,62.3 371.0,62.0 372.7,61.7 374.4,61.6 376.2,61.5 377.9,61.2 379.6,61.1 381.3,60.8 383.1,60.7 384.8,60.6 386.5,60.3 388.3,60.1 390.0,59.8 391.7,59.6 393.5,59.5 395.2,59.4 396.9,59.3 398.7,59.2 400.4,59.0 402.1,58.8 403.8,58.6 405.6,58.4 407.3,58.3 409.0,58.1 410.8,58.0 412.5,57.8 414.2,57.6 416.0,57.3 417.7,57.1 419.4,56.9 421.2,56.8 422.9,56.7 424.6,56.6 426.3,56.5 428.1,56.3 429.8,56.2 431.5,55.9 433.3,55.7 435.0,55.5 436.7,55.4 438.5,55.3 440.2,55.1 441.9,54.9 443.7,54.8 445.4,54.6 447.1,54.5 448.8,54.2 450.6,54.1 452.3,53.9 454.0,53.8 455.8,53.7 457.5,53.6 459.2,53.4 461.0,53.3 462.7,53.1 464.4,53.1 466.2,52.9 467.9,52.5 469.6,52.3 471.3,57.4 473.1,56.4 474.8,54.5 476.5,53.7 478.3,52.8 480.0,51.7 481.7,51.2 483.5,50.7 485.2,50.0 486.9,48.9 488.7,48.1 490.4,47.8 492.1,47.4 493.8,47.1 495.6,46.5 497.3,46.0 499.0,45.3 500.8,45.1 502.5,44.5 504.2,44.2 506.0,43.8 507.7,43.6 509.4,43.3 511.2,43.0 512.9,42.5 514.6,42.1 516.3,41.6 518.1,40.9 519.8,40.5 521.5,40.2 523.3,40.0 525.0,39.8 526.7,39.3 528.5,38.9 530.2,38.6 531.9,37.5 533.7,36.7 535.4,36.3 537.1,36.1 538.8,35.8 540.6,35.3 542.3,34.8 544.0,34.2 545.8,33.8 547.5,33.4 549.2,33.1 551.0,32.6 552.7,32.3 554.4,32.1 556.2,31.9 557.9,31.7 559.6,31.4 561.3,31.2 563.1,30.9 564.8,30.7 566.5,30.5 568.3,30.2 570.0,30.0 570.0,30.0,120" />
  
  <!-- Linea principale -->
  <polyline fill="none" stroke="#0366d6" stroke-width="2.5" stroke-linecap="round" stroke-linejoin="round" points="30.0,120.0 31.7,119.4 33.5,118.7 35.2,118.1 36.9,118.0 38.7,117.7 40.4,117.0 42.1,116.5 43.8,116.2 45.6,115.5 47.3,115.1 49.0,114.7 50.8,114.5 52.5,114.2 54.2,113.7 56.0,113.2 57.7,112.8 59.4,112.5 61.2,112.3 62.9,112.0 64.6,111.6 66.3,111.3 68.1,111.1 69.8,110.8 71.5,109.6 73.3,109.3 75.0,108.8 76.7,108.4 78.5,108.0 80.2,107.6 81.9,107.4 83.7,107.2 85.4,106.8 87.1,106.3 88.8,105.8 90.6,105.5 92.3,105.1 94.0,105.0 95.8,104.9 97.5,104.7 99.2,104.3 101.0,104.1 102.7,103.9 104.4,103.5 106.2,102.9 107.9,102.8 109.6,102.6 111.3,102.4 113.1,101.9 114.8,101.6 116.5,101.1 118.3,100.7 120.0,100.3 121.7,100.2 123.5,99.9 125.2,99.4 126.9,99.0 128.7,98.6 130.4,98.5 132.1,98.2 133.8,98.0 135.6,97.5 137.3,97.0 139.0,96.6 140.8,96.2 142.5,95.9 144.2,95.8 146.0,95.6 147.7,95.3 149.4,95.0 151.2,94.8 152.9,94.7 154.6,94.5 156.3,94.3 158.1,94.1 159.8,94.0 161.5,93.9 163.3,93.4 165.0,93.1 166.7,93.1 168.5,92.9 170.2,92.8 171.9,92.8 173.7,100.6 175.4,99.8 177.1,99.1 178.8,98.4 180.6,96.3 182.3,94.8 184.0,93.2 185.8,92.6 187.5,92.0 189.2,90.9 191.0,89.7 192.7,88.8 194.4,88.5 196.2,88.2 197.9,87.3 199.6,86.7 201.3,86.3 203.1,85.8 204.8,85.6 206.5,85.5 208.3,85.1 210.0,84.3 211.7,83.8 213.5,83.3 215.2,82.7 216.9,82.4 218.7,82.2 220.4,81.7 222.1,81.3 223.8,80.8 225.6,80.5 227.3,80.3 229.0,80.2 230.8,80.0 232.5,79.6 234.2,79.3 236.0,79.0 237.7,78.8 239.4,78.6 241.2,78.4 242.9,78.1 244.6,78.0 246.3,77.8 248.1,77.4 249.8,77.1 251.5,76.7 253.3,76.5 255.0,76.3 256.7,76.1 258.5,76.0 260.2,75.8 261.9,75.2 263.7,74.8 265.4,74.4 267.1,74.2 268.8,74.1 270.6,73.9 272.3,73.7 274.0,73.4 275.8,73.1 277.5,72.8 279.2,72.5 281.0,72.4 282.7,72.2 284.4,72.1 286.2,71.9 287.9,71.7 289.6,71.5 291.3,71.2 293.1,71.0 294.8,70.9 296.5,70.7 298.3,70.6 300.0,70.3 301.7,70.1 303.5,69.8 305.2,69.6 306.9,69.4 308.7,69.2 310.4,69.1 312.1,68.9 313.8,68.6 315.6,68.2 317.3,68.0 319.0,67.7 320.8,67.3 322.5,67.2 324.2,67.1 326.0,67.0 327.7,66.8 329.4,66.6 331.2,66.3 332.9,66.2 334.6,66.0 336.3,65.8 338.1,65.6 339.8,65.5 341.5,65.4 343.3,65.2 345.0,64.9 346.7,64.7 348.5,64.5 350.2,64.3 351.9,64.2 353.7,64.0 355.4,63.9 357.1,63.7 358.8,63.5 360.6,63.2 362.3,62.8 364.0,62.6 365.8,62.4 367.5,62.4 369.2,62.3 371.0,62.0 372.7,61.7 374.4,61.6 376.2,61.5 377.9,61.2 379.6,61.1 381.3,60.8 383.1,60.7 384.8,60.6 386.5,60.3 388.3,60.1 390.0,59.8 391.7,59.6 393.5,59.5 395.2,59.4 396.9,59.3 398.7,59.2 400.4,59.0 402.1,58.8 403.8,58.6 405.6,58.4 407.3,58.3 409.0,58.1 410.8,58.0 412.5,57.8 414.2,57.6 416.0,57.3 417.7,57.1 419.4,56.9 421.2,56.8 422.9,56.7 424.6,56.6 426.3,56.5 428.1,56.3 429.8,56.2 431.5,55.9 433.3,55.7 435.0,55.5 436.7,55.4 438.5,55.3 440.2,55.1 441.9,54.9 443.7,54.8 445.4,54.6 447.1,54.5 448.8,54.2 450.6,54.1 452.3,53.9 454.0,53.8 455.8,53.7 457.5,53.6 459.2,53.4 461.0,53.3 462.7,53.1 464.4,53.1 466.2,52.9 467.9,52.5 469.6,52.3 471.3,57.4 473.1,56.4 474.8,54.5 476.5,53.7 478.3,52.8 480.0,51.7 481.7,51.2 483.5,50.7 485.2,50.0 486.9,48.9 488.7,48.1 490.4,47.8 492.1,47.4 493.8,47.1 495.6,46.5 497.3,46.0 499.0,45.3 500.8,45.1 502.5,44.5 504.2,44.2 506.0,43.8 507.7,43.6 509.4,43.3 511.2,43.0 512.9,42.5 514.6,42.1 516.3,41.6 518.1,40.9 519.8,40.5 521.5,40.2 523.3,40.0 525.0,39.8 526.7,39.3 528.5,38.9 530.2,38.6 531.9,37.5 533.7,36.7 535.4,36.3 537.1,36.1 538.8,35.8 540.6,35.3 542.3,34.8 544.0,34.2 545.8,33.8 547.5,33.4 549.2,33.1 551.0,32.6 552.7,32.3 554.4,32.1 556.2,31.9 557.9,31.7 559.6,31.4 561.3,31.2 563.1,30.9 564.8,30.7 566.5,30.5 568.3,30.2 570.0,30.0" />
  
  <!-- Punto finale luminoso -->
  <circle cx="570.0" cy="30.0" r="4" fill="#ffffff" stroke="#0366d6" stroke-width="2.5" />
</svg>