<svg width="600" height="150" viewBox="0 0 600 150" xmlns="http://www.w3.org/2000/svg">
  <defs>
    <filter id="shadow2" x="-2%" y="-2%" width="104%" height="108%">
      <feDropShadow dx="0" dy="2" stdDeviation="3" flood-opacity="0.1" />
    </filter>
    <linearGradient id="fillGrad" x1="0" y1="0" x2="0" y2="1">
      <stop offset="0%" stop-color="#0366d6" stop-opacity="0.3"/>
      <stop offset="100%" stop-color="#0366d6" stop-opacity="0.02"/>
    </linearGradient>
  </defs>
  <rect width="600" height="150" rx="12" fill="#ffffff" filter="url(#shadow2)" stroke="#e1e4e8" stroke-width="1"/>
  <text x="20" y="24" fill="#2b3137" font-family="-apple-system,BlinkMacSystemFont,'Segoe UI',Helvetica,Arial,sans-serif" font-size="14" font-weight="600">📈 Download Growth (Actual: 88.1k)</text>
  
  <!-- Area sotto la linea -->
  <polygon fill="url(#fillGrad)" points="30.0,120.0,120 30.0,120.0 31.2,119.5 32.4,119.0 33.6,118.6 34.8,118.4 36.0,118.2 37.2,117.7 38.4,117.3 39.6,117.0 40.8,116.5 42.0,116.2 43.2,115.9 44.4,115.7 45.6,115.5 46.8,115.1 48.0,114.7 49.2,114.4 50.4,114.2 51.6,114.0 52.9,113.8 54.1,113.5 55.3,113.2 56.5,113.1 57.7,112.8 58.9,111.9 60.1,111.7 61.3,111.3 62.5,111.0 63.7,110.7 64.9,110.4 66.1,110.2 67.3,110.0 68.5,109.8 69.7,109.3 70.9,109.0 72.1,108.7 73.3,108.4 74.5,108.3 75.7,108.3 76.9,108.1 78.1,107.8 79.3,107.6 80.5,107.5 81.7,107.2 82.9,106.7 84.1,106.6 85.3,106.5 86.5,106.3 87.7,105.9 88.9,105.7 90.1,105.3 91.3,105.0 92.5,104.7 93.7,104.6 94.9,104.4 96.1,104.0 97.3,103.7 98.6,103.4 99.8,103.3 101.0,103.1 102.2,102.9 103.4,102.5 104.6,102.1 105.8,101.8 107.0,101.5 108.2,101.3 109.4,101.2 110.6,101.1 111.8,100.8 113.0,100.6 114.2,100.5 115.4,100.3 116.6,100.2 117.8,100.0 119.0,99.9 120.2,99.8 121.4,99.7 122.6,99.3 123.8,99.1 125.0,99.1 126.2,98.9 127.4,98.9 128.6,98.9 129.8,104.9 131.0,104.3 132.2,103.8 133.4,103.2 134.6,101.6 135.8,100.4 137.0,99.2 138.2,98.7 139.4,98.2 140.6,97.4 141.8,96.4 143.1,95.8 144.3,95.5 145.5,95.3 146.7,94.6 147.9,94.1 149.1,93.8 150.3,93.4 151.5,93.3 152.7,93.2 153.9,92.9 155.1,92.3 156.3,91.9 157.5,91.5 158.7,91.0 159.9,90.8 161.1,90.6 162.3,90.3 163.5,89.9 164.7,89.6 165.9,89.3 167.1,89.2 168.3,89.1 169.5,88.9 170.7,88.6 171.9,88.4 173.1,88.2 174.3,88.0 175.5,87.8 176.7,87.6 177.9,87.5 179.1,87.3 180.3,87.2 181.5,86.9 182.7,86.6 183.9,86.4 185.1,86.2 186.3,86.0 187.6,85.9 188.8,85.8 190.0,85.6 191.2,85.2 192.4,84.9 193.6,84.5 194.8,84.4 196.0,84.4 197.2,84.2 198.4,84.0 199.6,83.8 200.8,83.6 202.0,83.3 203.2,83.1 204.4,83.0 205.6,82.9 206.8,82.8 208.0,82.7 209.2,82.5 210.4,82.3 211.6,82.1 212.8,81.9 214.0,81.9 215.2,81.7 216.4,81.6 217.6,81.4 218.8,81.2 220.0,81.0 221.2,80.8 222.4,80.7 223.6,80.5 224.8,80.4 226.0,80.3 227.2,80.0 228.4,79.8 229.6,79.6 230.8,79.4 232.0,79.1 233.3,79.0 234.5,78.9 235.7,78.8 236.9,78.6 238.1,78.5 239.3,78.3 240.5,78.2 241.7,78.0 242.9,77.9 244.1,77.7 245.3,77.6 246.5,77.6 247.7,77.4 248.9,77.1 250.1,77.0 251.3,76.8 252.5,76.8 253.7,76.6 254.9,76.5 256.1,76.4 257.3,76.3 258.5,76.1 259.7,75.9 260.9,75.6 262.1,75.4 263.3,75.3 264.5,75.2 265.7,75.1 266.9,75.0 268.1,74.7 269.3,74.6 270.5,74.5 271.7,74.3 272.9,74.2 274.1,74.0 275.3,73.9 276.5,73.8 277.8,73.6 279.0,73.5 280.2,73.3 281.4,73.1 282.6,73.0 283.8,72.9 285.0,72.9 286.2,72.7 287.4,72.6 288.6,72.4 289.8,72.3 291.0,72.1 292.2,72.0 293.4,71.9 294.6,71.8 295.8,71.7 297.0,71.5 298.2,71.3 299.4,71.1 300.6,71.0 301.8,70.9 303.0,70.8 304.2,70.7 305.4,70.6 306.6,70.5 307.8,70.4 309.0,70.2 310.2,70.1 311.4,69.9 312.6,69.8 313.8,69.7 315.0,69.6 316.2,69.4 317.4,69.3 318.6,69.2 319.8,69.1 321.0,68.9 322.2,68.8 323.5,68.6 324.7,68.6 325.9,68.5 327.1,68.4 328.3,68.3 329.5,68.1 330.7,68.0 331.9,68.0 333.1,67.9 334.3,67.6 335.5,67.4 336.7,71.3 337.9,70.6 339.1,69.1 340.3,68.5 341.5,67.8 342.7,67.0 343.9,66.5 345.1,66.2 346.3,65.6 347.5,64.8 348.7,64.1 349.9,63.9 351.1,63.6 352.3,63.3 353.5,62.9 354.7,62.5 355.9,62.0 357.1,61.8 358.3,61.3 359.5,61.1 360.7,60.8 361.9,60.6 363.1,60.4 364.3,60.2 365.5,59.7 366.7,59.5 368.0,59.1 369.2,58.5 370.4,58.2 371.6,58.0 372.8,57.9 374.0,57.7 375.2,57.3 376.4,57.0 377.6,56.7 378.8,55.9 380.0,55.3 381.2,55.0 382.4,54.8 383.6,54.6 384.8,54.2 386.0,53.8 387.2,53.3 388.4,53.0 389.6,52.7 390.8,52.4 392.0,52.1 393.2,51.9 394.4,51.7 395.6,51.6 396.8,51.4 398.0,51.2 399.2,51.0 400.4,50.8 401.6,50.6 402.8,50.5 404.0,50.2 405.2,50.1 406.4,49.9 407.6,49.7 408.8,49.5 410.0,49.4 411.2,49.3 412.4,49.2 413.7,49.0 414.9,48.9 416.1,48.7 417.3,48.6 418.5,48.4 419.7,48.2 420.9,48.1 422.1,48.0 423.3,47.8 424.5,47.7 425.7,47.6 426.9,47.4 428.1,47.3 429.3,47.2 430.5,47.1 431.7,46.9 432.9,46.8 434.1,46.6 435.3,46.4 436.5,46.2 437.7,46.1 438.9,45.9 440.1,45.7 441.3,45.5 442.5,45.3 443.7,45.1 444.9,44.9 446.1,44.7 447.3,44.5 448.5,44.3 449.7,44.1 450.9,43.8 452.1,43.7 453.3,43.6 454.5,43.5 455.7,43.4 456.9,43.2 458.2,43.1 459.4,42.9 460.6,42.7 461.8,42.6 463.0,42.3 464.2,42.1 465.4,41.9 466.6,41.6 467.8,41.5 469.0,41.4 470.2,41.3 471.4,41.2 472.6,41.0 473.8,40.9 475.0,40.7 476.2,40.6 477.4,40.3 478.6,40.2 479.8,40.0 481.0,39.9 482.2,39.8 483.4,39.7 484.6,39.6 485.8,39.5 487.0,39.3 488.2,39.2 489.4,39.1 490.6,38.9 491.8,38.8 493.0,38.6 494.2,38.5 495.4,38.3 496.6,38.3 497.8,38.1 499.0,38.0 500.2,37.9 501.4,37.7 502.7,37.6 503.9,37.3 505.1,37.2 506.3,36.9 507.5,36.8 508.7,36.7 509.9,36.7 511.1,36.5 512.3,36.5 513.5,36.4 514.7,36.3 515.9,36.2 517.1,36.1 518.3,35.9 519.5,35.8 520.7,35.6 521.9,35.4 523.1,35.4 524.3,35.2 525.5,35.1 526.7,35.0 527.9,34.8 529.1,34.7 530.3,34.6 531.5,34.5 532.7,34.4 533.9,34.1 535.1,33.9 536.3,33.6 537.5,33.5 538.7,33.3 539.9,33.2 541.1,33.1 542.3,33.0 543.5,32.9 544.7,32.8 545.9,32.6 547.1,32.5 548.4,32.3 549.6,32.1 550.8,32.0 552.0,31.8 553.2,31.7 554.4,31.5 555.6,31.4 556.8,31.3 558.0,31.2 559.2,31.1 560.4,31.0 561.6,30.9 562.8,30.7 564.0,30.5 565.2,30.3 566.4,30.2 567.6,30.1 568.8,30.1 570.0,30.0 570.0,30.0,120" />
  
  <!-- Linea principale -->
  <polyline fill="none" stroke="#0366d6" stroke-width="2.5" stroke-linecap="round" stroke-linejoin="round" points="30.0,120.0 31.2,119.5 32.4,119.0 33.6,118.6 34.8,118.4 36.0,118.2 37.2,117.7 38.4,117.3 39.6,117.0 40.8,116.5 42.0,116.2 43.2,115.9 44.4,115.7 45.6,115.5 46.8,115.1 48.0,114.7 49.2,114.4 50.4,114.2 51.6,114.0 52.9,113.8 54.1,113.5 55.3,113.2 56.5,113.1 57.7,112.8 58.9,111.9 60.1,111.7 61.3,111.3 62.5,111.0 63.7,110.7 64.9,110.4 66.1,110.2 67.3,110.0 68.5,109.8 69.7,109.3 70.9,109.0 72.1,108.7 73.3,108.4 74.5,108.3 75.7,108.3 76.9,108.1 78.1,107.8 79.3,107.6 80.5,107.5 81.7,107.2 82.9,106.7 84.1,106.6 85.3,106.5 86.5,106.3 87.7,105.9 88.9,105.7 90.1,105.3 91.3,105.0 92.5,104.7 93.7,104.6 94.9,104.4 96.1,104.0 97.3,103.7 98.6,103.4 99.8,103.3 101.0,103.1 102.2,102.9 103.4,102.5 104.6,102.1 105.8,101.8 107.0,101.5 108.2,101.3 109.4,101.2 110.6,101.1 111.8,100.8 113.0,100.6 114.2,100.5 115.4,100.3 116.6,100.2 117.8,100.0 119.0,99.9 120.2,99.8 121.4,99.7 122.6,99.3 123.8,99.1 125.0,99.1 126.2,98.9 127.4,98.9 128.6,98.9 129.8,104.9 131.0,104.3 132.2,103.8 133.4,103.2 134.6,101.6 135.8,100.4 137.0,99.2 138.2,98.7 139.4,98.2 140.6,97.4 141.8,96.4 143.1,95.8 144.3,95.5 145.5,95.3 146.7,94.6 147.9,94.1 149.1,93.8 150.3,93.4 151.5,93.3 152.7,93.2 153.9,92.9 155.1,92.3 156.3,91.9 157.5,91.5 158.7,91.0 159.9,90.8 161.1,90.6 162.3,90.3 163.5,89.9 164.7,89.6 165.9,89.3 167.1,89.2 168.3,89.1 169.5,88.9 170.7,88.6 171.9,88.4 173.1,88.2 174.3,88.0 175.5,87.8 176.7,87.6 177.9,87.5 179.1,87.3 180.3,87.2 181.5,86.9 182.7,86.6 183.9,86.4 185.1,86.2 186.3,86.0 187.6,85.9 188.8,85.8 190.0,85.6 191.2,85.2 192.4,84.9 193.6,84.5 194.8,84.4 196.0,84.4 197.2,84.2 198.4,84.0 199.6,83.8 200.8,83.6 202.0,83.3 203.2,83.1 204.4,83.0 205.6,82.9 206.8,82.8 208.0,82.7 209.2,82.5 210.4,82.3 211.6,82.1 212.8,81.9 214.0,81.9 215.2,81.7 216.4,81.6 217.6,81.4 218.8,81.2 220.0,81.0 221.2,80.8 222.4,80.7 223.6,80.5 224.8,80.4 226.0,80.3 227.2,80.0 228.4,79.8 229.6,79.6 230.8,79.4 232.0,79.1 233.3,79.0 234.5,78.9 235.7,78.8 236.9,78.6 238.1,78.5 239.3,78.3 240.5,78.2 241.7,78.0 242.9,77.9 244.1,77.7 245.3,77.6 246.5,77.6 247.7,77.4 248.9,77.1 250.1,77.0 251.3,76.8 252.5,76.8 253.7,76.6 254.9,76.5 256.1,76.4 257.3,76.3 258.5,76.1 259.7,75.9 260.9,75.6 262.1,75.4 263.3,75.3 264.5,75.2 265.7,75.1 266.9,75.0 268.1,74.7 269.3,74.6 270.5,74.5 271.7,74.3 272.9,74.2 274.1,74.0 275.3,73.9 276.5,73.8 277.8,73.6 279.0,73.5 280.2,73.3 281.4,73.1 282.6,73.0 283.8,72.9 285.0,72.9 286.2,72.7 287.4,72.6 288.6,72.4 289.8,72.3 291.0,72.1 292.2,72.0 293.4,71.9 294.6,71.8 295.8,71.7 297.0,71.5 298.2,71.3 299.4,71.1 300.6,71.0 301.8,70.9 303.0,70.8 304.2,70.7 305.4,70.6 306.6,70.5 307.8,70.4 309.0,70.2 310.2,70.1 311.4,69.9 312.6,69.8 313.8,69.7 315.0,69.6 316.2,69.4 317.4,69.3 318.6,69.2 319.8,69.1 321.0,68.9 322.2,68.8 323.5,68.6 324.7,68.6 325.9,68.5 327.1,68.4 328.3,68.3 329.5,68.1 330.7,68.0 331.9,68.0 333.1,67.9 334.3,67.6 335.5,67.4 336.7,71.3 337.9,70.6 339.1,69.1 340.3,68.5 341.5,67.8 342.7,67.0 343.9,66.5 345.1,66.2 346.3,65.6 347.5,64.8 348.7,64.1 349.9,63.9 351.1,63.6 352.3,63.3 353.5,62.9 354.7,62.5 355.9,62.0 357.1,61.8 358.3,61.3 359.5,61.1 360.7,60.8 361.9,60.6 363.1,60.4 364.3,60.2 365.5,59.7 366.7,59.5 368.0,59.1 369.2,58.5 370.4,58.2 371.6,58.0 372.8,57.9 374.0,57.7 375.2,57.3 376.4,57.0 377.6,56.7 378.8,55.9 380.0,55.3 381.2,55.0 382.4,54.8 383.6,54.6 384.8,54.2 386.0,53.8 387.2,53.3 388.4,53.0 389.6,52.7 390.8,52.4 392.0,52.1 393.2,51.9 394.4,51.7 395.6,51.6 396.8,51.4 398.0,51.2 399.2,51.0 400.4,50.8 401.6,50.6 402.8,50.5 404.0,50.2 405.2,50.1 406.4,49.9 407.6,49.7 408.8,49.5 410.0,49.4 411.2,49.3 412.4,49.2 413.7,49.0 414.9,48.9 416.1,48.7 417.3,48.6 418.5,48.4 419.7,48.2 420.9,48.1 422.1,48.0 423.3,47.8 424.5,47.7 425.7,47.6 426.9,47.4 428.1,47.3 429.3,47.2 430.5,47.1 431.7,46.9 432.9,46.8 434.1,46.6 435.3,46.4 436.5,46.2 437.7,46.1 438.9,45.9 440.1,45.7 441.3,45.5 442.5,45.3 443.7,45.1 444.9,44.9 446.1,44.7 447.3,44.5 448.5,44.3 449.7,44.1 450.9,43.8 452.1,43.7 453.3,43.6 454.5,43.5 455.7,43.4 456.9,43.2 458.2,43.1 459.4,42.9 460.6,42.7 461.8,42.6 463.0,42.3 464.2,42.1 465.4,41.9 466.6,41.6 467.8,41.5 469.0,41.4 470.2,41.3 471.4,41.2 472.6,41.0 473.8,40.9 475.0,40.7 476.2,40.6 477.4,40.3 478.6,40.2 479.8,40.0 481.0,39.9 482.2,39.8 483.4,39.7 484.6,39.6 485.8,39.5 487.0,39.3 488.2,39.2 489.4,39.1 490.6,38.9 491.8,38.8 493.0,38.6 494.2,38.5 495.4,38.3 496.6,38.3 497.8,38.1 499.0,38.0 500.2,37.9 501.4,37.7 502.7,37.6 503.9,37.3 505.1,37.2 506.3,36.9 507.5,36.8 508.7,36.7 509.9,36.7 511.1,36.5 512.3,36.5 513.5,36.4 514.7,36.3 515.9,36.2 517.1,36.1 518.3,35.9 519.5,35.8 520.7,35.6 521.9,35.4 523.1,35.4 524.3,35.2 525.5,35.1 526.7,35.0 527.9,34.8 529.1,34.7 530.3,34.6 531.5,34.5 532.7,34.4 533.9,34.1 535.1,33.9 536.3,33.6 537.5,33.5 538.7,33.3 539.9,33.2 541.1,33.1 542.3,33.0 543.5,32.9 544.7,32.8 545.9,32.6 547.1,32.5 548.4,32.3 549.6,32.1 550.8,32.0 552.0,31.8 553.2,31.7 554.4,31.5 555.6,31.4 556.8,31.3 558.0,31.2 559.2,31.1 560.4,31.0 561.6,30.9 562.8,30.7 564.0,30.5 565.2,30.3 566.4,30.2 567.6,30.1 568.8,30.1 570.0,30.0" />
  
  <!-- Punto finale luminoso -->
  <circle cx="570.0" cy="30.0" r="4" fill="#ffffff" stroke="#0366d6" stroke-width="2.5" />
</svg>