<svg width="600" height="150" viewBox="0 0 600 150" xmlns="http://www.w3.org/2000/svg">
  <defs>
    <filter id="shadow2" x="-2%" y="-2%" width="104%" height="108%">
      <feDropShadow dx="0" dy="2" stdDeviation="3" flood-opacity="0.1" />
    </filter>
    <linearGradient id="fillGrad" x1="0" y1="0" x2="0" y2="1">
      <stop offset="0%" stop-color="#0366d6" stop-opacity="0.3"/>
      <stop offset="100%" stop-color="#0366d6" stop-opacity="0.02"/>
    </linearGradient>
  </defs>
  <rect width="600" height="150" rx="12" fill="#ffffff" filter="url(#shadow2)" stroke="#e1e4e8" stroke-width="1"/>
  <text x="20" y="24" fill="#2b3137" font-family="-apple-system,BlinkMacSystemFont,'Segoe UI',Helvetica,Arial,sans-serif" font-size="14" font-weight="600">📈 Download Growth (Actual: 83.0k)</text>
  
  <!-- Area sotto la linea -->
  <polygon fill="url(#fillGrad)" points="30.0,120.0,120 30.0,120.0 31.8,119.4 33.6,118.7 35.3,118.1 37.1,117.9 38.9,117.6 40.7,116.9 42.5,116.4 44.3,116.1 46.0,115.4 47.8,115.0 49.6,114.6 51.4,114.4 53.2,114.1 55.0,113.5 56.7,113.0 58.5,112.6 60.3,112.3 62.1,112.1 63.9,111.8 65.6,111.4 67.4,111.1 69.2,110.9 71.0,110.6 72.8,109.4 74.6,109.0 76.3,108.6 78.1,108.1 79.9,107.7 81.7,107.3 83.5,107.0 85.2,106.8 87.0,106.5 88.8,105.9 90.6,105.5 92.4,105.1 94.2,104.7 95.9,104.6 97.7,104.5 99.5,104.3 101.3,103.9 103.1,103.7 104.9,103.5 106.6,103.1 108.4,102.5 110.2,102.3 112.0,102.2 113.8,102.0 115.5,101.5 117.3,101.1 119.1,100.6 120.9,100.2 122.7,99.8 124.5,99.7 126.2,99.4 128.0,98.9 129.8,98.5 131.6,98.1 133.4,97.9 135.1,97.7 136.9,97.5 138.7,97.0 140.5,96.5 142.3,96.0 144.1,95.6 145.8,95.4 147.6,95.2 149.4,95.0 151.2,94.7 153.0,94.4 154.8,94.2 156.5,94.1 158.3,93.9 160.1,93.6 161.9,93.5 163.7,93.4 165.4,93.2 167.2,92.8 169.0,92.5 170.8,92.4 172.6,92.2 174.4,92.1 176.1,92.1 177.9,100.1 179.7,99.3 181.5,98.6 183.3,97.9 185.0,95.7 186.8,94.2 188.6,92.6 190.4,92.0 192.2,91.3 194.0,90.2 195.7,89.0 197.5,88.1 199.3,87.7 201.1,87.4 202.9,86.5 204.7,85.9 206.4,85.5 208.2,85.0 210.0,84.8 211.8,84.7 213.6,84.2 215.3,83.5 217.1,82.9 218.9,82.4 220.7,81.8 222.5,81.5 224.3,81.3 226.0,80.8 227.8,80.3 229.6,79.9 231.4,79.5 233.2,79.4 235.0,79.3 236.7,79.0 238.5,78.6 240.3,78.3 242.1,78.0 243.9,77.8 245.6,77.6 247.4,77.3 249.2,77.1 251.0,77.0 252.8,76.7 254.6,76.3 256.3,76.0 258.1,75.7 259.9,75.5 261.7,75.2 263.5,75.1 265.2,74.9 267.0,74.7 268.8,74.1 270.6,73.7 272.4,73.3 274.2,73.1 275.9,73.0 277.7,72.8 279.5,72.5 281.3,72.2 283.1,72.0 284.9,71.6 286.6,71.4 288.4,71.3 290.2,71.1 292.0,70.9 293.8,70.8 295.5,70.5 297.3,70.3 299.1,70.0 300.9,69.8 302.7,69.7 304.5,69.6 306.2,69.4 308.0,69.1 309.8,68.9 311.6,68.6 313.4,68.4 315.1,68.1 316.9,68.0 318.7,67.8 320.5,67.7 322.3,67.3 324.1,67.0 325.8,66.7 327.6,66.5 329.4,66.0 331.2,65.9 333.0,65.8 334.8,65.7 336.5,65.5 338.3,65.3 340.1,65.0 341.9,64.9 343.7,64.7 345.4,64.5 347.2,64.3 349.0,64.1 350.8,64.1 352.6,63.8 354.4,63.5 356.1,63.4 357.9,63.1 359.7,63.0 361.5,62.8 363.3,62.6 365.0,62.5 366.8,62.4 368.6,62.2 370.4,61.8 372.2,61.5 374.0,61.2 375.7,61.0 377.5,61.0 379.3,60.9 381.1,60.6 382.9,60.3 384.7,60.2 386.4,60.0 388.2,59.8 390.0,59.6 391.8,59.4 393.6,59.3 395.3,59.1 397.1,58.9 398.9,58.7 400.7,58.4 402.5,58.1 404.3,58.0 406.0,58.0 407.8,57.9 409.6,57.7 411.4,57.5 413.2,57.3 415.0,57.1 416.7,56.9 418.5,56.8 420.3,56.6 422.1,56.5 423.9,56.3 425.6,56.0 427.4,55.8 429.2,55.6 431.0,55.4 432.8,55.2 434.6,55.1 436.3,55.0 438.1,54.9 439.9,54.8 441.7,54.6 443.5,54.3 445.2,54.2 447.0,54.0 448.8,53.9 450.6,53.7 452.4,53.5 454.2,53.3 455.9,53.2 457.7,53.0 459.5,52.9 461.3,52.7 463.1,52.5 464.9,52.3 466.6,52.2 468.4,52.1 470.2,51.9 472.0,51.8 473.8,51.6 475.5,51.5 477.3,51.4 479.1,51.3 480.9,50.9 482.7,50.7 484.5,55.9 486.2,54.8 488.0,52.9 489.8,52.1 491.6,51.2 493.4,50.1 495.1,49.5 496.9,49.1 498.7,48.3 500.5,47.2 502.3,46.3 504.1,46.1 505.8,45.7 507.6,45.3 509.4,44.7 511.2,44.2 513.0,43.5 514.8,43.2 516.5,42.7 518.3,42.4 520.1,42.0 521.9,41.7 523.7,41.4 525.4,41.2 527.2,40.6 529.0,40.2 530.8,39.7 532.6,39.0 534.4,38.5 536.1,38.3 537.9,38.1 539.7,37.8 541.5,37.4 543.3,36.9 545.0,36.6 546.8,35.5 548.6,34.7 550.4,34.3 552.2,34.1 554.0,33.8 555.7,33.2 557.5,32.7 559.3,32.1 561.1,31.7 562.9,31.3 564.7,31.0 566.4,30.5 568.2,30.2 570.0,30.0 570.0,30.0,120" />
  
  <!-- Linea principale -->
  <polyline fill="none" stroke="#0366d6" stroke-width="2.5" stroke-linecap="round" stroke-linejoin="round" points="30.0,120.0 31.8,119.4 33.6,118.7 35.3,118.1 37.1,117.9 38.9,117.6 40.7,116.9 42.5,116.4 44.3,116.1 46.0,115.4 47.8,115.0 49.6,114.6 51.4,114.4 53.2,114.1 55.0,113.5 56.7,113.0 58.5,112.6 60.3,112.3 62.1,112.1 63.9,111.8 65.6,111.4 67.4,111.1 69.2,110.9 71.0,110.6 72.8,109.4 74.6,109.0 76.3,108.6 78.1,108.1 79.9,107.7 81.7,107.3 83.5,107.0 85.2,106.8 87.0,106.5 88.8,105.9 90.6,105.5 92.4,105.1 94.2,104.7 95.9,104.6 97.7,104.5 99.5,104.3 101.3,103.9 103.1,103.7 104.9,103.5 106.6,103.1 108.4,102.5 110.2,102.3 112.0,102.2 113.8,102.0 115.5,101.5 117.3,101.1 119.1,100.6 120.9,100.2 122.7,99.8 124.5,99.7 126.2,99.4 128.0,98.9 129.8,98.5 131.6,98.1 133.4,97.9 135.1,97.7 136.9,97.5 138.7,97.0 140.5,96.5 142.3,96.0 144.1,95.6 145.8,95.4 147.6,95.2 149.4,95.0 151.2,94.7 153.0,94.4 154.8,94.2 156.5,94.1 158.3,93.9 160.1,93.6 161.9,93.5 163.7,93.4 165.4,93.2 167.2,92.8 169.0,92.5 170.8,92.4 172.6,92.2 174.4,92.1 176.1,92.1 177.9,100.1 179.7,99.3 181.5,98.6 183.3,97.9 185.0,95.7 186.8,94.2 188.6,92.6 190.4,92.0 192.2,91.3 194.0,90.2 195.7,89.0 197.5,88.1 199.3,87.7 201.1,87.4 202.9,86.5 204.7,85.9 206.4,85.5 208.2,85.0 210.0,84.8 211.8,84.7 213.6,84.2 215.3,83.5 217.1,82.9 218.9,82.4 220.7,81.8 222.5,81.5 224.3,81.3 226.0,80.8 227.8,80.3 229.6,79.9 231.4,79.5 233.2,79.4 235.0,79.3 236.7,79.0 238.5,78.6 240.3,78.3 242.1,78.0 243.9,77.8 245.6,77.6 247.4,77.3 249.2,77.1 251.0,77.0 252.8,76.7 254.6,76.3 256.3,76.0 258.1,75.7 259.9,75.5 261.7,75.2 263.5,75.1 265.2,74.9 267.0,74.7 268.8,74.1 270.6,73.7 272.4,73.3 274.2,73.1 275.9,73.0 277.7,72.8 279.5,72.5 281.3,72.2 283.1,72.0 284.9,71.6 286.6,71.4 288.4,71.3 290.2,71.1 292.0,70.9 293.8,70.8 295.5,70.5 297.3,70.3 299.1,70.0 300.9,69.8 302.7,69.7 304.5,69.6 306.2,69.4 308.0,69.1 309.8,68.9 311.6,68.6 313.4,68.4 315.1,68.1 316.9,68.0 318.7,67.8 320.5,67.7 322.3,67.3 324.1,67.0 325.8,66.7 327.6,66.5 329.4,66.0 331.2,65.9 333.0,65.8 334.8,65.7 336.5,65.5 338.3,65.3 340.1,65.0 341.9,64.9 343.7,64.7 345.4,64.5 347.2,64.3 349.0,64.1 350.8,64.1 352.6,63.8 354.4,63.5 356.1,63.4 357.9,63.1 359.7,63.0 361.5,62.8 363.3,62.6 365.0,62.5 366.8,62.4 368.6,62.2 370.4,61.8 372.2,61.5 374.0,61.2 375.7,61.0 377.5,61.0 379.3,60.9 381.1,60.6 382.9,60.3 384.7,60.2 386.4,60.0 388.2,59.8 390.0,59.6 391.8,59.4 393.6,59.3 395.3,59.1 397.1,58.9 398.9,58.7 400.7,58.4 402.5,58.1 404.3,58.0 406.0,58.0 407.8,57.9 409.6,57.7 411.4,57.5 413.2,57.3 415.0,57.1 416.7,56.9 418.5,56.8 420.3,56.6 422.1,56.5 423.9,56.3 425.6,56.0 427.4,55.8 429.2,55.6 431.0,55.4 432.8,55.2 434.6,55.1 436.3,55.0 438.1,54.9 439.9,54.8 441.7,54.6 443.5,54.3 445.2,54.2 447.0,54.0 448.8,53.9 450.6,53.7 452.4,53.5 454.2,53.3 455.9,53.2 457.7,53.0 459.5,52.9 461.3,52.7 463.1,52.5 464.9,52.3 466.6,52.2 468.4,52.1 470.2,51.9 472.0,51.8 473.8,51.6 475.5,51.5 477.3,51.4 479.1,51.3 480.9,50.9 482.7,50.7 484.5,55.9 486.2,54.8 488.0,52.9 489.8,52.1 491.6,51.2 493.4,50.1 495.1,49.5 496.9,49.1 498.7,48.3 500.5,47.2 502.3,46.3 504.1,46.1 505.8,45.7 507.6,45.3 509.4,44.7 511.2,44.2 513.0,43.5 514.8,43.2 516.5,42.7 518.3,42.4 520.1,42.0 521.9,41.7 523.7,41.4 525.4,41.2 527.2,40.6 529.0,40.2 530.8,39.7 532.6,39.0 534.4,38.5 536.1,38.3 537.9,38.1 539.7,37.8 541.5,37.4 543.3,36.9 545.0,36.6 546.8,35.5 548.6,34.7 550.4,34.3 552.2,34.1 554.0,33.8 555.7,33.2 557.5,32.7 559.3,32.1 561.1,31.7 562.9,31.3 564.7,31.0 566.4,30.5 568.2,30.2 570.0,30.0" />
  
  <!-- Punto finale luminoso -->
  <circle cx="570.0" cy="30.0" r="4" fill="#ffffff" stroke="#0366d6" stroke-width="2.5" />
</svg>