<svg width="600" height="150" viewBox="0 0 600 150" xmlns="http://www.w3.org/2000/svg">
  <defs>
    <filter id="shadow2" x="-2%" y="-2%" width="104%" height="108%">
      <feDropShadow dx="0" dy="2" stdDeviation="3" flood-opacity="0.1" />
    </filter>
    <linearGradient id="fillGrad" x1="0" y1="0" x2="0" y2="1">
      <stop offset="0%" stop-color="#0366d6" stop-opacity="0.3"/>
      <stop offset="100%" stop-color="#0366d6" stop-opacity="0.02"/>
    </linearGradient>
  </defs>
  <rect width="600" height="150" rx="12" fill="#ffffff" filter="url(#shadow2)" stroke="#e1e4e8" stroke-width="1"/>
  <text x="20" y="24" fill="#2b3137" font-family="-apple-system,BlinkMacSystemFont,'Segoe UI',Helvetica,Arial,sans-serif" font-size="14" font-weight="600">📈 Download Growth (Actual: 88.1k)</text>
  
  <!-- Area sotto la linea -->
  <polygon fill="url(#fillGrad)" points="30.0,120.0,120 30.0,120.0 31.2,119.5 32.4,119.0 33.6,118.6 34.8,118.4 36.0,118.2 37.2,117.7 38.5,117.3 39.7,117.0 40.9,116.5 42.1,116.2 43.3,115.9 44.5,115.7 45.7,115.5 46.9,115.1 48.1,114.7 49.3,114.4 50.5,114.2 51.7,114.0 53.0,113.8 54.2,113.5 55.4,113.2 56.6,113.1 57.8,112.8 59.0,111.9 60.2,111.7 61.4,111.3 62.6,111.0 63.8,110.6 65.0,110.4 66.2,110.2 67.4,110.0 68.7,109.8 69.9,109.3 71.1,108.9 72.3,108.7 73.5,108.4 74.7,108.3 75.9,108.2 77.1,108.1 78.3,107.8 79.5,107.6 80.7,107.5 81.9,107.2 83.2,106.7 84.4,106.6 85.6,106.5 86.8,106.3 88.0,105.9 89.2,105.7 90.4,105.3 91.6,105.0 92.8,104.6 94.0,104.6 95.2,104.3 96.4,104.0 97.7,103.6 98.9,103.4 100.1,103.2 101.3,103.1 102.5,102.9 103.7,102.5 104.9,102.1 106.1,101.8 107.3,101.5 108.5,101.3 109.7,101.2 110.9,101.0 112.1,100.8 113.4,100.6 114.6,100.4 115.8,100.3 117.0,100.2 118.2,100.0 119.4,99.9 120.6,99.8 121.8,99.7 123.0,99.3 124.2,99.1 125.4,99.0 126.6,98.9 127.9,98.8 129.1,98.8 130.3,104.9 131.5,104.3 132.7,103.8 133.9,103.2 135.1,101.5 136.3,100.4 137.5,99.2 138.7,98.7 139.9,98.2 141.1,97.3 142.3,96.4 143.6,95.7 144.8,95.5 146.0,95.2 147.2,94.6 148.4,94.1 149.6,93.8 150.8,93.4 152.0,93.2 153.2,93.2 154.4,92.8 155.6,92.2 156.8,91.8 158.1,91.4 159.3,91.0 160.5,90.8 161.7,90.6 162.9,90.2 164.1,89.9 165.3,89.5 166.5,89.3 167.7,89.1 168.9,89.1 170.1,88.8 171.3,88.5 172.6,88.3 173.8,88.1 175.0,87.9 176.2,87.8 177.4,87.6 178.6,87.4 179.8,87.3 181.0,87.1 182.2,86.8 183.4,86.6 184.6,86.3 185.8,86.2 187.0,86.0 188.3,85.9 189.5,85.7 190.7,85.6 191.9,85.1 193.1,84.9 194.3,84.5 195.5,84.3 196.7,84.3 197.9,84.1 199.1,83.9 200.3,83.7 201.5,83.5 202.8,83.2 204.0,83.1 205.2,83.0 206.4,82.8 207.6,82.7 208.8,82.6 210.0,82.4 211.2,82.3 212.4,82.0 213.6,81.9 214.8,81.8 216.0,81.7 217.2,81.6 218.5,81.4 219.7,81.2 220.9,81.0 222.1,80.8 223.3,80.6 224.5,80.5 225.7,80.4 226.9,80.2 228.1,80.0 229.3,79.7 230.5,79.5 231.7,79.3 233.0,79.0 234.2,78.9 235.4,78.8 236.6,78.7 237.8,78.6 239.0,78.4 240.2,78.2 241.4,78.1 242.6,78.0 243.8,77.8 245.0,77.7 246.2,77.6 247.4,77.5 248.7,77.3 249.9,77.1 251.1,77.0 252.3,76.8 253.5,76.7 254.7,76.6 255.9,76.4 257.1,76.3 258.3,76.2 259.5,76.1 260.7,75.8 261.9,75.5 263.2,75.3 264.4,75.2 265.6,75.1 266.8,75.1 268.0,74.9 269.2,74.7 270.4,74.5 271.6,74.4 272.8,74.3 274.0,74.1 275.2,74.0 276.4,73.9 277.7,73.8 278.9,73.5 280.1,73.4 281.3,73.2 282.5,73.0 283.7,72.9 284.9,72.9 286.1,72.8 287.3,72.7 288.5,72.5 289.7,72.4 290.9,72.2 292.1,72.1 293.4,72.0 294.6,71.9 295.8,71.7 297.0,71.6 298.2,71.4 299.4,71.2 300.6,71.1 301.8,70.9 303.0,70.8 304.2,70.7 305.4,70.6 306.6,70.5 307.9,70.5 309.1,70.3 310.3,70.1 311.5,70.0 312.7,69.8 313.9,69.8 315.1,69.6 316.3,69.5 317.5,69.3 318.7,69.2 319.9,69.1 321.1,69.0 322.3,68.8 323.6,68.7 324.8,68.6 326.0,68.5 327.2,68.4 328.4,68.3 329.6,68.2 330.8,68.1 332.0,68.0 333.2,67.9 334.4,67.8 335.6,67.5 336.8,67.3 338.1,71.3 339.3,70.5 340.5,69.0 341.7,68.4 342.9,67.7 344.1,66.9 345.3,66.4 346.5,66.1 347.7,65.5 348.9,64.7 350.1,64.0 351.3,63.8 352.6,63.5 353.8,63.3 355.0,62.8 356.2,62.4 357.4,61.9 358.6,61.7 359.8,61.2 361.0,61.0 362.2,60.7 363.4,60.5 364.6,60.3 365.8,60.1 367.0,59.7 368.3,59.4 369.5,59.0 370.7,58.4 371.9,58.1 373.1,57.9 374.3,57.8 375.5,57.6 376.7,57.2 377.9,56.9 379.1,56.6 380.3,55.8 381.5,55.2 382.8,54.9 384.0,54.7 385.2,54.5 386.4,54.1 387.6,53.7 388.8,53.2 390.0,52.9 391.2,52.6 392.4,52.3 393.6,52.0 394.8,51.8 396.0,51.6 397.2,51.5 398.5,51.3 399.7,51.1 400.9,50.9 402.1,50.7 403.3,50.5 404.5,50.4 405.7,50.1 406.9,50.0 408.1,49.8 409.3,49.6 410.5,49.4 411.7,49.3 413.0,49.2 414.2,49.0 415.4,48.9 416.6,48.8 417.8,48.6 419.0,48.5 420.2,48.3 421.4,48.1 422.6,48.0 423.8,47.8 425.0,47.7 426.2,47.6 427.4,47.5 428.7,47.3 429.9,47.2 431.1,47.0 432.3,47.0 433.5,46.8 434.7,46.6 435.9,46.5 437.1,46.3 438.3,46.1 439.5,46.0 440.7,45.8 441.9,45.6 443.2,45.4 444.4,45.2 445.6,45.0 446.8,44.8 448.0,44.6 449.2,44.4 450.4,44.1 451.6,43.9 452.8,43.7 454.0,43.6 455.2,43.5 456.4,43.4 457.7,43.3 458.9,43.1 460.1,42.9 461.3,42.8 462.5,42.6 463.7,42.4 464.9,42.2 466.1,42.0 467.3,41.8 468.5,41.5 469.7,41.4 470.9,41.3 472.1,41.1 473.4,41.1 474.6,40.9 475.8,40.8 477.0,40.6 478.2,40.4 479.4,40.2 480.6,40.0 481.8,39.9 483.0,39.8 484.2,39.6 485.4,39.6 486.6,39.5 487.9,39.4 489.1,39.2 490.3,39.1 491.5,39.0 492.7,38.8 493.9,38.6 495.1,38.5 496.3,38.4 497.5,38.2 498.7,38.1 499.9,38.0 501.1,37.9 502.3,37.8 503.6,37.6 504.8,37.5 506.0,37.2 507.2,37.1 508.4,36.8 509.6,36.7 510.8,36.6 512.0,36.5 513.2,36.4 514.4,36.3 515.6,36.3 516.8,36.1 518.1,36.0 519.3,36.0 520.5,35.8 521.7,35.7 522.9,35.5 524.1,35.3 525.3,35.2 526.5,35.1 527.7,34.9 528.9,34.8 530.1,34.7 531.3,34.6 532.6,34.5 533.8,34.4 535.0,34.2 536.2,34.0 537.4,33.8 538.6,33.5 539.8,33.4 541.0,33.2 542.2,33.1 543.4,32.9 544.6,32.8 545.8,32.7 547.0,32.6 548.3,32.5 549.5,32.4 550.7,32.2 551.9,32.0 553.1,31.9 554.3,31.7 555.5,31.6 556.7,31.4 557.9,31.3 559.1,31.2 560.3,31.1 561.5,31.0 562.8,30.9 564.0,30.7 565.2,30.6 566.4,30.4 567.6,30.2 568.8,30.1 570.0,30.0 570.0,30.0,120" />
  
  <!-- Linea principale -->
  <polyline fill="none" stroke="#0366d6" stroke-width="2.5" stroke-linecap="round" stroke-linejoin="round" points="30.0,120.0 31.2,119.5 32.4,119.0 33.6,118.6 34.8,118.4 36.0,118.2 37.2,117.7 38.5,117.3 39.7,117.0 40.9,116.5 42.1,116.2 43.3,115.9 44.5,115.7 45.7,115.5 46.9,115.1 48.1,114.7 49.3,114.4 50.5,114.2 51.7,114.0 53.0,113.8 54.2,113.5 55.4,113.2 56.6,113.1 57.8,112.8 59.0,111.9 60.2,111.7 61.4,111.3 62.6,111.0 63.8,110.6 65.0,110.4 66.2,110.2 67.4,110.0 68.7,109.8 69.9,109.3 71.1,108.9 72.3,108.7 73.5,108.4 74.7,108.3 75.9,108.2 77.1,108.1 78.3,107.8 79.5,107.6 80.7,107.5 81.9,107.2 83.2,106.7 84.4,106.6 85.6,106.5 86.8,106.3 88.0,105.9 89.2,105.7 90.4,105.3 91.6,105.0 92.8,104.6 94.0,104.6 95.2,104.3 96.4,104.0 97.7,103.6 98.9,103.4 100.1,103.2 101.3,103.1 102.5,102.9 103.7,102.5 104.9,102.1 106.1,101.8 107.3,101.5 108.5,101.3 109.7,101.2 110.9,101.0 112.1,100.8 113.4,100.6 114.6,100.4 115.8,100.3 117.0,100.2 118.2,100.0 119.4,99.9 120.6,99.8 121.8,99.7 123.0,99.3 124.2,99.1 125.4,99.0 126.6,98.9 127.9,98.8 129.1,98.8 130.3,104.9 131.5,104.3 132.7,103.8 133.9,103.2 135.1,101.5 136.3,100.4 137.5,99.2 138.7,98.7 139.9,98.2 141.1,97.3 142.3,96.4 143.6,95.7 144.8,95.5 146.0,95.2 147.2,94.6 148.4,94.1 149.6,93.8 150.8,93.4 152.0,93.2 153.2,93.2 154.4,92.8 155.6,92.2 156.8,91.8 158.1,91.4 159.3,91.0 160.5,90.8 161.7,90.6 162.9,90.2 164.1,89.9 165.3,89.5 166.5,89.3 167.7,89.1 168.9,89.1 170.1,88.8 171.3,88.5 172.6,88.3 173.8,88.1 175.0,87.9 176.2,87.8 177.4,87.6 178.6,87.4 179.8,87.3 181.0,87.1 182.2,86.8 183.4,86.6 184.6,86.3 185.8,86.2 187.0,86.0 188.3,85.9 189.5,85.7 190.7,85.6 191.9,85.1 193.1,84.9 194.3,84.5 195.5,84.3 196.7,84.3 197.9,84.1 199.1,83.9 200.3,83.7 201.5,83.5 202.8,83.2 204.0,83.1 205.2,83.0 206.4,82.8 207.6,82.7 208.8,82.6 210.0,82.4 211.2,82.3 212.4,82.0 213.6,81.9 214.8,81.8 216.0,81.7 217.2,81.6 218.5,81.4 219.7,81.2 220.9,81.0 222.1,80.8 223.3,80.6 224.5,80.5 225.7,80.4 226.9,80.2 228.1,80.0 229.3,79.7 230.5,79.5 231.7,79.3 233.0,79.0 234.2,78.9 235.4,78.8 236.6,78.7 237.8,78.6 239.0,78.4 240.2,78.2 241.4,78.1 242.6,78.0 243.8,77.8 245.0,77.7 246.2,77.6 247.4,77.5 248.7,77.3 249.9,77.1 251.1,77.0 252.3,76.8 253.5,76.7 254.7,76.6 255.9,76.4 257.1,76.3 258.3,76.2 259.5,76.1 260.7,75.8 261.9,75.5 263.2,75.3 264.4,75.2 265.6,75.1 266.8,75.1 268.0,74.9 269.2,74.7 270.4,74.5 271.6,74.4 272.8,74.3 274.0,74.1 275.2,74.0 276.4,73.9 277.7,73.8 278.9,73.5 280.1,73.4 281.3,73.2 282.5,73.0 283.7,72.9 284.9,72.9 286.1,72.8 287.3,72.7 288.5,72.5 289.7,72.4 290.9,72.2 292.1,72.1 293.4,72.0 294.6,71.9 295.8,71.7 297.0,71.6 298.2,71.4 299.4,71.2 300.6,71.1 301.8,70.9 303.0,70.8 304.2,70.7 305.4,70.6 306.6,70.5 307.9,70.5 309.1,70.3 310.3,70.1 311.5,70.0 312.7,69.8 313.9,69.8 315.1,69.6 316.3,69.5 317.5,69.3 318.7,69.2 319.9,69.1 321.1,69.0 322.3,68.8 323.6,68.7 324.8,68.6 326.0,68.5 327.2,68.4 328.4,68.3 329.6,68.2 330.8,68.1 332.0,68.0 333.2,67.9 334.4,67.8 335.6,67.5 336.8,67.3 338.1,71.3 339.3,70.5 340.5,69.0 341.7,68.4 342.9,67.7 344.1,66.9 345.3,66.4 346.5,66.1 347.7,65.5 348.9,64.7 350.1,64.0 351.3,63.8 352.6,63.5 353.8,63.3 355.0,62.8 356.2,62.4 357.4,61.9 358.6,61.7 359.8,61.2 361.0,61.0 362.2,60.7 363.4,60.5 364.6,60.3 365.8,60.1 367.0,59.7 368.3,59.4 369.5,59.0 370.7,58.4 371.9,58.1 373.1,57.9 374.3,57.8 375.5,57.6 376.7,57.2 377.9,56.9 379.1,56.6 380.3,55.8 381.5,55.2 382.8,54.9 384.0,54.7 385.2,54.5 386.4,54.1 387.6,53.7 388.8,53.2 390.0,52.9 391.2,52.6 392.4,52.3 393.6,52.0 394.8,51.8 396.0,51.6 397.2,51.5 398.5,51.3 399.7,51.1 400.9,50.9 402.1,50.7 403.3,50.5 404.5,50.4 405.7,50.1 406.9,50.0 408.1,49.8 409.3,49.6 410.5,49.4 411.7,49.3 413.0,49.2 414.2,49.0 415.4,48.9 416.6,48.8 417.8,48.6 419.0,48.5 420.2,48.3 421.4,48.1 422.6,48.0 423.8,47.8 425.0,47.7 426.2,47.6 427.4,47.5 428.7,47.3 429.9,47.2 431.1,47.0 432.3,47.0 433.5,46.8 434.7,46.6 435.9,46.5 437.1,46.3 438.3,46.1 439.5,46.0 440.7,45.8 441.9,45.6 443.2,45.4 444.4,45.2 445.6,45.0 446.8,44.8 448.0,44.6 449.2,44.4 450.4,44.1 451.6,43.9 452.8,43.7 454.0,43.6 455.2,43.5 456.4,43.4 457.7,43.3 458.9,43.1 460.1,42.9 461.3,42.8 462.5,42.6 463.7,42.4 464.9,42.2 466.1,42.0 467.3,41.8 468.5,41.5 469.7,41.4 470.9,41.3 472.1,41.1 473.4,41.1 474.6,40.9 475.8,40.8 477.0,40.6 478.2,40.4 479.4,40.2 480.6,40.0 481.8,39.9 483.0,39.8 484.2,39.6 485.4,39.6 486.6,39.5 487.9,39.4 489.1,39.2 490.3,39.1 491.5,39.0 492.7,38.8 493.9,38.6 495.1,38.5 496.3,38.4 497.5,38.2 498.7,38.1 499.9,38.0 501.1,37.9 502.3,37.8 503.6,37.6 504.8,37.5 506.0,37.2 507.2,37.1 508.4,36.8 509.6,36.7 510.8,36.6 512.0,36.5 513.2,36.4 514.4,36.3 515.6,36.3 516.8,36.1 518.1,36.0 519.3,36.0 520.5,35.8 521.7,35.7 522.9,35.5 524.1,35.3 525.3,35.2 526.5,35.1 527.7,34.9 528.9,34.8 530.1,34.7 531.3,34.6 532.6,34.5 533.8,34.4 535.0,34.2 536.2,34.0 537.4,33.8 538.6,33.5 539.8,33.4 541.0,33.2 542.2,33.1 543.4,32.9 544.6,32.8 545.8,32.7 547.0,32.6 548.3,32.5 549.5,32.4 550.7,32.2 551.9,32.0 553.1,31.9 554.3,31.7 555.5,31.6 556.7,31.4 557.9,31.3 559.1,31.2 560.3,31.1 561.5,31.0 562.8,30.9 564.0,30.7 565.2,30.6 566.4,30.4 567.6,30.2 568.8,30.1 570.0,30.0" />
  
  <!-- Punto finale luminoso -->
  <circle cx="570.0" cy="30.0" r="4" fill="#ffffff" stroke="#0366d6" stroke-width="2.5" />
</svg>