<svg width="600" height="150" viewBox="0 0 600 150" xmlns="http://www.w3.org/2000/svg">
  <defs>
    <filter id="shadow2" x="-2%" y="-2%" width="104%" height="108%">
      <feDropShadow dx="0" dy="2" stdDeviation="3" flood-opacity="0.1" />
    </filter>
    <linearGradient id="fillGrad" x1="0" y1="0" x2="0" y2="1">
      <stop offset="0%" stop-color="#0366d6" stop-opacity="0.3"/>
      <stop offset="100%" stop-color="#0366d6" stop-opacity="0.02"/>
    </linearGradient>
  </defs>
  <rect width="600" height="150" rx="12" fill="#ffffff" filter="url(#shadow2)" stroke="#e1e4e8" stroke-width="1"/>
  <text x="20" y="24" fill="#2b3137" font-family="-apple-system,BlinkMacSystemFont,'Segoe UI',Helvetica,Arial,sans-serif" font-size="14" font-weight="600">📈 Download Growth (Actual: 86.7k)</text>
  
  <!-- Area sotto la linea -->
  <polygon fill="url(#fillGrad)" points="30.0,120.0,120 30.0,120.0 31.3,119.5 32.7,118.9 34.0,118.5 35.3,118.3 36.7,118.1 38.0,117.5 39.3,117.1 40.6,116.8 42.0,116.2 43.3,115.9 44.6,115.6 46.0,115.4 47.3,115.2 48.6,114.8 50.0,114.3 51.3,114.0 52.6,113.8 53.9,113.6 55.3,113.3 56.6,113.0 57.9,112.7 59.3,112.6 60.6,112.3 61.9,111.4 63.3,111.1 64.6,110.7 65.9,110.3 67.2,110.0 68.6,109.7 69.9,109.5 71.2,109.3 72.6,109.1 73.9,108.6 75.2,108.2 76.6,107.9 77.9,107.6 79.2,107.5 80.5,107.4 81.9,107.3 83.2,107.0 84.5,106.8 85.9,106.6 87.2,106.3 88.5,105.8 89.9,105.7 91.2,105.6 92.5,105.4 93.8,104.9 95.2,104.7 96.5,104.3 97.8,104.0 99.2,103.6 100.5,103.5 101.8,103.3 103.2,102.9 104.5,102.5 105.8,102.2 107.1,102.1 108.5,101.9 109.8,101.7 111.1,101.3 112.5,100.9 113.8,100.5 115.1,100.2 116.5,100.0 117.8,99.9 119.1,99.7 120.4,99.4 121.8,99.2 123.1,99.1 124.4,98.9 125.8,98.8 127.1,98.6 128.4,98.5 129.8,98.4 131.1,98.3 132.4,97.9 133.7,97.7 135.1,97.6 136.4,97.5 137.7,97.4 139.1,97.4 140.4,103.8 141.7,103.2 143.1,102.6 144.4,102.0 145.7,100.3 147.0,99.0 148.4,97.7 149.7,97.2 151.0,96.7 152.4,95.8 153.7,94.8 155.0,94.1 156.4,93.8 157.7,93.5 159.0,92.8 160.3,92.3 161.7,92.0 163.0,91.6 164.3,91.4 165.7,91.3 167.0,90.9 168.3,90.3 169.7,89.9 171.0,89.5 172.3,89.0 173.6,88.8 175.0,88.6 176.3,88.2 177.6,87.8 179.0,87.4 180.3,87.1 181.6,87.0 183.0,86.9 184.3,86.7 185.6,86.4 186.9,86.2 188.3,85.9 189.6,85.7 190.9,85.5 192.3,85.4 193.6,85.2 194.9,85.0 196.3,84.9 197.6,84.5 198.9,84.3 200.2,84.0 201.6,83.8 202.9,83.6 204.2,83.5 205.6,83.4 206.9,83.2 208.2,82.7 209.6,82.4 210.9,82.0 212.2,81.9 213.5,81.8 214.9,81.7 216.2,81.5 217.5,81.2 218.9,81.0 220.2,80.7 221.5,80.5 222.9,80.4 224.2,80.3 225.5,80.2 226.8,80.0 228.2,79.8 229.5,79.7 230.8,79.4 232.2,79.3 233.5,79.2 234.8,79.0 236.2,78.9 237.5,78.7 238.8,78.5 240.1,78.3 241.5,78.1 242.8,77.9 244.1,77.7 245.5,77.6 246.8,77.5 248.1,77.2 249.5,76.9 250.8,76.7 252.1,76.5 253.4,76.2 254.8,76.1 256.1,76.0 257.4,75.9 258.8,75.7 260.1,75.6 261.4,75.4 262.8,75.2 264.1,75.1 265.4,74.9 266.7,74.8 268.1,74.6 269.4,74.6 270.7,74.4 272.1,74.1 273.4,74.0 274.7,73.8 276.1,73.7 277.4,73.6 278.7,73.4 280.0,73.3 281.4,73.2 282.7,73.0 284.0,72.8 285.4,72.5 286.7,72.3 288.0,72.1 289.4,72.1 290.7,72.0 292.0,71.8 293.3,71.5 294.7,71.4 296.0,71.3 297.3,71.1 298.7,71.0 300.0,70.8 301.3,70.7 302.7,70.6 304.0,70.4 305.3,70.2 306.7,70.0 308.0,69.8 309.3,69.7 310.6,69.6 312.0,69.6 313.3,69.4 314.6,69.3 316.0,69.1 317.3,68.9 318.6,68.8 320.0,68.6 321.3,68.5 322.6,68.4 323.9,68.3 325.3,68.1 326.6,67.9 327.9,67.7 329.3,67.5 330.6,67.4 331.9,67.3 333.3,67.2 334.6,67.1 335.9,67.0 337.2,66.9 338.6,66.7 339.9,66.5 341.2,66.4 342.6,66.3 343.9,66.2 345.2,66.0 346.6,65.8 347.9,65.7 349.2,65.6 350.5,65.5 351.9,65.3 353.2,65.2 354.5,65.0 355.9,64.9 357.2,64.9 358.5,64.7 359.9,64.6 361.2,64.5 362.5,64.4 363.8,64.3 365.2,64.2 366.5,63.9 367.8,63.7 369.2,67.9 370.5,67.1 371.8,65.5 373.2,64.9 374.5,64.1 375.8,63.2 377.1,62.7 378.5,62.4 379.8,61.8 381.1,60.9 382.5,60.2 383.8,60.0 385.1,59.6 386.5,59.3 387.8,58.9 389.1,58.4 390.4,57.9 391.8,57.7 393.1,57.2 394.4,57.0 395.8,56.6 397.1,56.4 398.4,56.2 399.8,56.0 401.1,55.5 402.4,55.2 403.7,54.8 405.1,54.2 406.4,53.8 407.7,53.7 409.1,53.5 410.4,53.3 411.7,52.9 413.1,52.5 414.4,52.3 415.7,51.4 417.0,50.7 418.4,50.4 419.7,50.3 421.0,50.0 422.4,49.5 423.7,49.1 425.0,48.6 426.4,48.3 427.7,48.0 429.0,47.7 430.3,47.3 431.7,47.1 433.0,46.9 434.3,46.8 435.7,46.6 437.0,46.3 438.3,46.2 439.7,45.9 441.0,45.7 442.3,45.6 443.6,45.3 445.0,45.1 446.3,44.9 447.6,44.8 449.0,44.6 450.3,44.4 451.6,44.3 453.0,44.2 454.3,44.0 455.6,43.9 456.9,43.7 458.3,43.6 459.6,43.4 460.9,43.2 462.3,43.0 463.6,42.9 464.9,42.7 466.3,42.6 467.6,42.5 468.9,42.3 470.2,42.2 471.6,42.0 472.9,41.9 474.2,41.8 475.6,41.6 476.9,41.5 478.2,41.2 479.6,41.0 480.9,40.9 482.2,40.7 483.5,40.4 484.9,40.3 486.2,40.0 487.5,39.8 488.9,39.6 490.2,39.4 491.5,39.2 492.9,38.9 494.2,38.7 495.5,38.5 496.8,38.4 498.2,38.2 499.5,38.1 500.8,38.0 502.2,37.8 503.5,37.6 504.8,37.5 506.2,37.3 507.5,37.1 508.8,36.9 510.1,36.6 511.5,36.4 512.8,36.1 514.1,36.0 515.5,35.8 516.8,35.7 518.1,35.6 519.5,35.5 520.8,35.3 522.1,35.1 523.4,35.0 524.8,34.7 526.1,34.5 527.4,34.4 528.8,34.3 530.1,34.1 531.4,34.0 532.8,33.9 534.1,33.8 535.4,33.6 536.7,33.5 538.1,33.4 539.4,33.2 540.7,33.0 542.1,32.9 543.4,32.8 544.7,32.6 546.1,32.5 547.4,32.3 548.7,32.2 550.0,32.1 551.4,31.9 552.7,31.8 554.0,31.5 555.4,31.4 556.7,31.0 558.0,31.0 559.4,30.9 560.7,30.8 562.0,30.6 563.3,30.6 564.7,30.5 566.0,30.4 567.3,30.3 568.7,30.2 570.0,30.0 570.0,30.0,120" />
  
  <!-- Linea principale -->
  <polyline fill="none" stroke="#0366d6" stroke-width="2.5" stroke-linecap="round" stroke-linejoin="round" points="30.0,120.0 31.3,119.5 32.7,118.9 34.0,118.5 35.3,118.3 36.7,118.1 38.0,117.5 39.3,117.1 40.6,116.8 42.0,116.2 43.3,115.9 44.6,115.6 46.0,115.4 47.3,115.2 48.6,114.8 50.0,114.3 51.3,114.0 52.6,113.8 53.9,113.6 55.3,113.3 56.6,113.0 57.9,112.7 59.3,112.6 60.6,112.3 61.9,111.4 63.3,111.1 64.6,110.7 65.9,110.3 67.2,110.0 68.6,109.7 69.9,109.5 71.2,109.3 72.6,109.1 73.9,108.6 75.2,108.2 76.6,107.9 77.9,107.6 79.2,107.5 80.5,107.4 81.9,107.3 83.2,107.0 84.5,106.8 85.9,106.6 87.2,106.3 88.5,105.8 89.9,105.7 91.2,105.6 92.5,105.4 93.8,104.9 95.2,104.7 96.5,104.3 97.8,104.0 99.2,103.6 100.5,103.5 101.8,103.3 103.2,102.9 104.5,102.5 105.8,102.2 107.1,102.1 108.5,101.9 109.8,101.7 111.1,101.3 112.5,100.9 113.8,100.5 115.1,100.2 116.5,100.0 117.8,99.9 119.1,99.7 120.4,99.4 121.8,99.2 123.1,99.1 124.4,98.9 125.8,98.8 127.1,98.6 128.4,98.5 129.8,98.4 131.1,98.3 132.4,97.9 133.7,97.7 135.1,97.6 136.4,97.5 137.7,97.4 139.1,97.4 140.4,103.8 141.7,103.2 143.1,102.6 144.4,102.0 145.7,100.3 147.0,99.0 148.4,97.7 149.7,97.2 151.0,96.7 152.4,95.8 153.7,94.8 155.0,94.1 156.4,93.8 157.7,93.5 159.0,92.8 160.3,92.3 161.7,92.0 163.0,91.6 164.3,91.4 165.7,91.3 167.0,90.9 168.3,90.3 169.7,89.9 171.0,89.5 172.3,89.0 173.6,88.8 175.0,88.6 176.3,88.2 177.6,87.8 179.0,87.4 180.3,87.1 181.6,87.0 183.0,86.9 184.3,86.7 185.6,86.4 186.9,86.2 188.3,85.9 189.6,85.7 190.9,85.5 192.3,85.4 193.6,85.2 194.9,85.0 196.3,84.9 197.6,84.5 198.9,84.3 200.2,84.0 201.6,83.8 202.9,83.6 204.2,83.5 205.6,83.4 206.9,83.2 208.2,82.7 209.6,82.4 210.9,82.0 212.2,81.9 213.5,81.8 214.9,81.7 216.2,81.5 217.5,81.2 218.9,81.0 220.2,80.7 221.5,80.5 222.9,80.4 224.2,80.3 225.5,80.2 226.8,80.0 228.2,79.8 229.5,79.7 230.8,79.4 232.2,79.3 233.5,79.2 234.8,79.0 236.2,78.9 237.5,78.7 238.8,78.5 240.1,78.3 241.5,78.1 242.8,77.9 244.1,77.7 245.5,77.6 246.8,77.5 248.1,77.2 249.5,76.9 250.8,76.7 252.1,76.5 253.4,76.2 254.8,76.1 256.1,76.0 257.4,75.9 258.8,75.7 260.1,75.6 261.4,75.4 262.8,75.2 264.1,75.1 265.4,74.9 266.7,74.8 268.1,74.6 269.4,74.6 270.7,74.4 272.1,74.1 273.4,74.0 274.7,73.8 276.1,73.7 277.4,73.6 278.7,73.4 280.0,73.3 281.4,73.2 282.7,73.0 284.0,72.8 285.4,72.5 286.7,72.3 288.0,72.1 289.4,72.1 290.7,72.0 292.0,71.8 293.3,71.5 294.7,71.4 296.0,71.3 297.3,71.1 298.7,71.0 300.0,70.8 301.3,70.7 302.7,70.6 304.0,70.4 305.3,70.2 306.7,70.0 308.0,69.8 309.3,69.7 310.6,69.6 312.0,69.6 313.3,69.4 314.6,69.3 316.0,69.1 317.3,68.9 318.6,68.8 320.0,68.6 321.3,68.5 322.6,68.4 323.9,68.3 325.3,68.1 326.6,67.9 327.9,67.7 329.3,67.5 330.6,67.4 331.9,67.3 333.3,67.2 334.6,67.1 335.9,67.0 337.2,66.9 338.6,66.7 339.9,66.5 341.2,66.4 342.6,66.3 343.9,66.2 345.2,66.0 346.6,65.8 347.9,65.7 349.2,65.6 350.5,65.5 351.9,65.3 353.2,65.2 354.5,65.0 355.9,64.9 357.2,64.9 358.5,64.7 359.9,64.6 361.2,64.5 362.5,64.4 363.8,64.3 365.2,64.2 366.5,63.9 367.8,63.7 369.2,67.9 370.5,67.1 371.8,65.5 373.2,64.9 374.5,64.1 375.8,63.2 377.1,62.7 378.5,62.4 379.8,61.8 381.1,60.9 382.5,60.2 383.8,60.0 385.1,59.6 386.5,59.3 387.8,58.9 389.1,58.4 390.4,57.9 391.8,57.7 393.1,57.2 394.4,57.0 395.8,56.6 397.1,56.4 398.4,56.2 399.8,56.0 401.1,55.5 402.4,55.2 403.7,54.8 405.1,54.2 406.4,53.8 407.7,53.7 409.1,53.5 410.4,53.3 411.7,52.9 413.1,52.5 414.4,52.3 415.7,51.4 417.0,50.7 418.4,50.4 419.7,50.3 421.0,50.0 422.4,49.5 423.7,49.1 425.0,48.6 426.4,48.3 427.7,48.0 429.0,47.7 430.3,47.3 431.7,47.1 433.0,46.9 434.3,46.8 435.7,46.6 437.0,46.3 438.3,46.2 439.7,45.9 441.0,45.7 442.3,45.6 443.6,45.3 445.0,45.1 446.3,44.9 447.6,44.8 449.0,44.6 450.3,44.4 451.6,44.3 453.0,44.2 454.3,44.0 455.6,43.9 456.9,43.7 458.3,43.6 459.6,43.4 460.9,43.2 462.3,43.0 463.6,42.9 464.9,42.7 466.3,42.6 467.6,42.5 468.9,42.3 470.2,42.2 471.6,42.0 472.9,41.9 474.2,41.8 475.6,41.6 476.9,41.5 478.2,41.2 479.6,41.0 480.9,40.9 482.2,40.7 483.5,40.4 484.9,40.3 486.2,40.0 487.5,39.8 488.9,39.6 490.2,39.4 491.5,39.2 492.9,38.9 494.2,38.7 495.5,38.5 496.8,38.4 498.2,38.2 499.5,38.1 500.8,38.0 502.2,37.8 503.5,37.6 504.8,37.5 506.2,37.3 507.5,37.1 508.8,36.9 510.1,36.6 511.5,36.4 512.8,36.1 514.1,36.0 515.5,35.8 516.8,35.7 518.1,35.6 519.5,35.5 520.8,35.3 522.1,35.1 523.4,35.0 524.8,34.7 526.1,34.5 527.4,34.4 528.8,34.3 530.1,34.1 531.4,34.0 532.8,33.9 534.1,33.8 535.4,33.6 536.7,33.5 538.1,33.4 539.4,33.2 540.7,33.0 542.1,32.9 543.4,32.8 544.7,32.6 546.1,32.5 547.4,32.3 548.7,32.2 550.0,32.1 551.4,31.9 552.7,31.8 554.0,31.5 555.4,31.4 556.7,31.0 558.0,31.0 559.4,30.9 560.7,30.8 562.0,30.6 563.3,30.6 564.7,30.5 566.0,30.4 567.3,30.3 568.7,30.2 570.0,30.0" />
  
  <!-- Punto finale luminoso -->
  <circle cx="570.0" cy="30.0" r="4" fill="#ffffff" stroke="#0366d6" stroke-width="2.5" />
</svg>