<svg width="600" height="150" viewBox="0 0 600 150" xmlns="http://www.w3.org/2000/svg">
  <defs>
    <filter id="shadow2" x="-2%" y="-2%" width="104%" height="108%">
      <feDropShadow dx="0" dy="2" stdDeviation="3" flood-opacity="0.1" />
    </filter>
    <linearGradient id="fillGrad" x1="0" y1="0" x2="0" y2="1">
      <stop offset="0%" stop-color="#0366d6" stop-opacity="0.3"/>
      <stop offset="100%" stop-color="#0366d6" stop-opacity="0.02"/>
    </linearGradient>
  </defs>
  <rect width="600" height="150" rx="12" fill="#ffffff" filter="url(#shadow2)" stroke="#e1e4e8" stroke-width="1"/>
  <text x="20" y="24" fill="#2b3137" font-family="-apple-system,BlinkMacSystemFont,'Segoe UI',Helvetica,Arial,sans-serif" font-size="14" font-weight="600">📈 Download Growth (Actual: 82.8k)</text>
  
  <!-- Area sotto la linea -->
  <polygon fill="url(#fillGrad)" points="30.0,120.0,120 30.0,120.0 31.8,119.4 33.6,118.7 35.4,118.1 37.2,117.9 39.0,117.6 40.8,116.9 42.6,116.4 44.4,116.0 46.3,115.3 48.1,114.9 49.9,114.5 51.7,114.3 53.5,114.0 55.3,113.5 57.1,112.9 58.9,112.5 60.7,112.2 62.5,112.0 64.3,111.7 66.1,111.3 67.9,110.9 69.7,110.7 71.5,110.4 73.3,109.2 75.2,108.9 77.0,108.4 78.8,107.9 80.6,107.5 82.4,107.1 84.2,106.9 86.0,106.7 87.8,106.3 89.6,105.7 91.4,105.2 93.2,104.9 95.0,104.5 96.8,104.4 98.6,104.3 100.4,104.1 102.2,103.7 104.0,103.5 105.9,103.3 107.7,102.9 109.5,102.2 111.3,102.1 113.1,102.0 114.9,101.7 116.7,101.2 118.5,100.8 120.3,100.3 122.1,99.9 123.9,99.5 125.7,99.4 127.5,99.1 129.3,98.6 131.1,98.1 132.9,97.8 134.7,97.6 136.6,97.4 138.4,97.1 140.2,96.6 142.0,96.1 143.8,95.7 145.6,95.2 147.4,95.0 149.2,94.9 151.0,94.7 152.8,94.3 154.6,94.1 156.4,93.9 158.2,93.7 160.0,93.5 161.8,93.3 163.6,93.1 165.5,93.0 167.3,92.8 169.1,92.4 170.9,92.1 172.7,92.0 174.5,91.8 176.3,91.7 178.1,91.7 179.9,99.8 181.7,99.0 183.5,98.3 185.3,97.6 187.1,95.4 188.9,93.8 190.7,92.2 192.5,91.6 194.3,90.9 196.2,89.7 198.0,88.5 199.8,87.6 201.6,87.2 203.4,86.9 205.2,86.0 207.0,85.4 208.8,85.0 210.6,84.5 212.4,84.2 214.2,84.2 216.0,83.7 217.8,82.9 219.6,82.4 221.4,81.9 223.2,81.2 225.1,81.0 226.9,80.7 228.7,80.2 230.5,79.7 232.3,79.3 234.1,78.9 235.9,78.8 237.7,78.7 239.5,78.4 241.3,78.0 243.1,77.7 244.9,77.4 246.7,77.2 248.5,76.9 250.3,76.7 252.1,76.5 253.9,76.3 255.8,76.1 257.6,75.7 259.4,75.4 261.2,75.0 263.0,74.8 264.8,74.6 266.6,74.4 268.4,74.2 270.2,74.0 272.0,73.4 273.8,73.1 275.6,72.6 277.4,72.4 279.2,72.3 281.0,72.1 282.8,71.8 284.6,71.5 286.5,71.3 288.3,70.9 290.1,70.7 291.9,70.5 293.7,70.4 295.5,70.2 297.3,70.0 299.1,69.8 300.9,69.6 302.7,69.3 304.5,69.1 306.3,69.0 308.1,68.8 309.9,68.7 311.7,68.4 313.5,68.1 315.4,67.9 317.2,67.6 319.0,67.4 320.8,67.2 322.6,67.1 324.4,66.9 326.2,66.5 328.0,66.2 329.8,65.9 331.6,65.7 333.4,65.2 335.2,65.1 337.0,65.0 338.8,64.9 340.6,64.7 342.4,64.5 344.2,64.2 346.1,64.0 347.9,63.8 349.7,63.7 351.5,63.5 353.3,63.3 355.1,63.2 356.9,63.0 358.7,62.7 360.5,62.5 362.3,62.3 364.1,62.2 365.9,62.0 367.7,61.8 369.5,61.7 371.3,61.5 373.1,61.3 374.9,61.0 376.8,60.6 378.6,60.4 380.4,60.2 382.2,60.1 384.0,60.0 385.8,59.8 387.6,59.4 389.4,59.3 391.2,59.2 393.0,58.9 394.8,58.7 396.6,58.5 398.4,58.4 400.2,58.2 402.0,58.0 403.8,57.7 405.7,57.5 407.5,57.2 409.3,57.1 411.1,57.0 412.9,57.0 414.7,56.8 416.5,56.6 418.3,56.4 420.1,56.2 421.9,56.0 423.7,55.8 425.5,55.7 427.3,55.5 429.1,55.4 430.9,55.1 432.7,54.8 434.5,54.6 436.4,54.4 438.2,54.3 440.0,54.2 441.8,54.1 443.6,53.9 445.4,53.8 447.2,53.6 449.0,53.4 450.8,53.2 452.6,53.0 454.4,52.9 456.2,52.7 458.0,52.5 459.8,52.3 461.6,52.2 463.4,52.0 465.3,51.9 467.1,51.7 468.9,51.5 470.7,51.3 472.5,51.2 474.3,51.1 476.1,50.9 477.9,50.8 479.7,50.6 481.5,50.5 483.3,50.4 485.1,50.3 486.9,49.9 488.7,49.6 490.5,54.9 492.3,53.9 494.1,51.9 496.0,51.1 497.8,50.2 499.6,49.0 501.4,48.4 503.2,48.0 505.0,47.3 506.8,46.1 508.6,45.2 510.4,45.0 512.2,44.6 514.0,44.2 515.8,43.6 517.6,43.1 519.4,42.4 521.2,42.1 523.0,41.5 524.8,41.2 526.7,40.8 528.5,40.6 530.3,40.3 532.1,40.0 533.9,39.4 535.7,39.0 537.5,38.5 539.3,37.8 541.1,37.3 542.9,37.1 544.7,36.9 546.5,36.6 548.3,36.1 550.1,35.7 551.9,35.4 553.7,34.3 555.6,33.4 557.4,33.0 559.2,32.8 561.0,32.5 562.8,31.9 564.6,31.4 566.4,30.8 568.2,30.4 570.0,30.0 570.0,30.0,120" />
  
  <!-- Linea principale -->
  <polyline fill="none" stroke="#0366d6" stroke-width="2.5" stroke-linecap="round" stroke-linejoin="round" points="30.0,120.0 31.8,119.4 33.6,118.7 35.4,118.1 37.2,117.9 39.0,117.6 40.8,116.9 42.6,116.4 44.4,116.0 46.3,115.3 48.1,114.9 49.9,114.5 51.7,114.3 53.5,114.0 55.3,113.5 57.1,112.9 58.9,112.5 60.7,112.2 62.5,112.0 64.3,111.7 66.1,111.3 67.9,110.9 69.7,110.7 71.5,110.4 73.3,109.2 75.2,108.9 77.0,108.4 78.8,107.9 80.6,107.5 82.4,107.1 84.2,106.9 86.0,106.7 87.8,106.3 89.6,105.7 91.4,105.2 93.2,104.9 95.0,104.5 96.8,104.4 98.6,104.3 100.4,104.1 102.2,103.7 104.0,103.5 105.9,103.3 107.7,102.9 109.5,102.2 111.3,102.1 113.1,102.0 114.9,101.7 116.7,101.2 118.5,100.8 120.3,100.3 122.1,99.9 123.9,99.5 125.7,99.4 127.5,99.1 129.3,98.6 131.1,98.1 132.9,97.8 134.7,97.6 136.6,97.4 138.4,97.1 140.2,96.6 142.0,96.1 143.8,95.7 145.6,95.2 147.4,95.0 149.2,94.9 151.0,94.7 152.8,94.3 154.6,94.1 156.4,93.9 158.2,93.7 160.0,93.5 161.8,93.3 163.6,93.1 165.5,93.0 167.3,92.8 169.1,92.4 170.9,92.1 172.7,92.0 174.5,91.8 176.3,91.7 178.1,91.7 179.9,99.8 181.7,99.0 183.5,98.3 185.3,97.6 187.1,95.4 188.9,93.8 190.7,92.2 192.5,91.6 194.3,90.9 196.2,89.7 198.0,88.5 199.8,87.6 201.6,87.2 203.4,86.9 205.2,86.0 207.0,85.4 208.8,85.0 210.6,84.5 212.4,84.2 214.2,84.2 216.0,83.7 217.8,82.9 219.6,82.4 221.4,81.9 223.2,81.2 225.1,81.0 226.9,80.7 228.7,80.2 230.5,79.7 232.3,79.3 234.1,78.9 235.9,78.8 237.7,78.7 239.5,78.4 241.3,78.0 243.1,77.7 244.9,77.4 246.7,77.2 248.5,76.9 250.3,76.7 252.1,76.5 253.9,76.3 255.8,76.1 257.6,75.7 259.4,75.4 261.2,75.0 263.0,74.8 264.8,74.6 266.6,74.4 268.4,74.2 270.2,74.0 272.0,73.4 273.8,73.1 275.6,72.6 277.4,72.4 279.2,72.3 281.0,72.1 282.8,71.8 284.6,71.5 286.5,71.3 288.3,70.9 290.1,70.7 291.9,70.5 293.7,70.4 295.5,70.2 297.3,70.0 299.1,69.8 300.9,69.6 302.7,69.3 304.5,69.1 306.3,69.0 308.1,68.8 309.9,68.7 311.7,68.4 313.5,68.1 315.4,67.9 317.2,67.6 319.0,67.4 320.8,67.2 322.6,67.1 324.4,66.9 326.2,66.5 328.0,66.2 329.8,65.9 331.6,65.7 333.4,65.2 335.2,65.1 337.0,65.0 338.8,64.9 340.6,64.7 342.4,64.5 344.2,64.2 346.1,64.0 347.9,63.8 349.7,63.7 351.5,63.5 353.3,63.3 355.1,63.2 356.9,63.0 358.7,62.7 360.5,62.5 362.3,62.3 364.1,62.2 365.9,62.0 367.7,61.8 369.5,61.7 371.3,61.5 373.1,61.3 374.9,61.0 376.8,60.6 378.6,60.4 380.4,60.2 382.2,60.1 384.0,60.0 385.8,59.8 387.6,59.4 389.4,59.3 391.2,59.2 393.0,58.9 394.8,58.7 396.6,58.5 398.4,58.4 400.2,58.2 402.0,58.0 403.8,57.7 405.7,57.5 407.5,57.2 409.3,57.1 411.1,57.0 412.9,57.0 414.7,56.8 416.5,56.6 418.3,56.4 420.1,56.2 421.9,56.0 423.7,55.8 425.5,55.7 427.3,55.5 429.1,55.4 430.9,55.1 432.7,54.8 434.5,54.6 436.4,54.4 438.2,54.3 440.0,54.2 441.8,54.1 443.6,53.9 445.4,53.8 447.2,53.6 449.0,53.4 450.8,53.2 452.6,53.0 454.4,52.9 456.2,52.7 458.0,52.5 459.8,52.3 461.6,52.2 463.4,52.0 465.3,51.9 467.1,51.7 468.9,51.5 470.7,51.3 472.5,51.2 474.3,51.1 476.1,50.9 477.9,50.8 479.7,50.6 481.5,50.5 483.3,50.4 485.1,50.3 486.9,49.9 488.7,49.6 490.5,54.9 492.3,53.9 494.1,51.9 496.0,51.1 497.8,50.2 499.6,49.0 501.4,48.4 503.2,48.0 505.0,47.3 506.8,46.1 508.6,45.2 510.4,45.0 512.2,44.6 514.0,44.2 515.8,43.6 517.6,43.1 519.4,42.4 521.2,42.1 523.0,41.5 524.8,41.2 526.7,40.8 528.5,40.6 530.3,40.3 532.1,40.0 533.9,39.4 535.7,39.0 537.5,38.5 539.3,37.8 541.1,37.3 542.9,37.1 544.7,36.9 546.5,36.6 548.3,36.1 550.1,35.7 551.9,35.4 553.7,34.3 555.6,33.4 557.4,33.0 559.2,32.8 561.0,32.5 562.8,31.9 564.6,31.4 566.4,30.8 568.2,30.4 570.0,30.0" />
  
  <!-- Punto finale luminoso -->
  <circle cx="570.0" cy="30.0" r="4" fill="#ffffff" stroke="#0366d6" stroke-width="2.5" />
</svg>