<svg width="600" height="150" viewBox="0 0 600 150" xmlns="http://www.w3.org/2000/svg">
  <defs>
    <filter id="shadow2" x="-2%" y="-2%" width="104%" height="108%">
      <feDropShadow dx="0" dy="2" stdDeviation="3" flood-opacity="0.1" />
    </filter>
    <linearGradient id="fillGrad" x1="0" y1="0" x2="0" y2="1">
      <stop offset="0%" stop-color="#0366d6" stop-opacity="0.3"/>
      <stop offset="100%" stop-color="#0366d6" stop-opacity="0.02"/>
    </linearGradient>
  </defs>
  <rect width="600" height="150" rx="12" fill="#ffffff" filter="url(#shadow2)" stroke="#e1e4e8" stroke-width="1"/>
  <text x="20" y="24" fill="#2b3137" font-family="-apple-system,BlinkMacSystemFont,'Segoe UI',Helvetica,Arial,sans-serif" font-size="14" font-weight="600">📈 Download Growth (Actual: 113.2k)</text>
  
  <!-- Area sotto la linea -->
  <polygon fill="url(#fillGrad)" points="30.0,66.8,120 30.0,66.8 30.5,66.7 31.0,66.6 31.6,66.6 32.1,66.5 32.6,66.5 33.1,66.4 33.6,66.3 34.1,66.3 34.7,66.2 35.2,66.1 35.7,66.1 36.2,66.0 36.7,66.0 37.2,65.9 37.8,65.8 38.3,65.8 38.8,65.7 39.3,65.7 39.8,65.7 40.4,65.6 40.9,65.6 41.4,65.5 41.9,65.5 42.4,65.3 42.9,65.3 43.5,65.2 44.0,65.1 44.5,65.1 45.0,65.0 45.5,65.0 46.0,65.0 46.6,64.9 47.1,64.8 47.6,64.8 48.1,64.7 48.6,64.7 49.2,64.6 49.7,64.6 50.2,64.6 50.7,64.5 51.2,64.5 51.7,64.5 52.3,64.4 52.8,64.3 53.3,64.3 53.8,64.3 54.3,64.3 54.9,64.2 55.4,64.1 55.9,64.1 56.4,64.0 56.9,63.9 57.4,63.9 58.0,63.9 58.5,63.8 59.0,63.8 59.5,63.7 60.0,63.7 60.5,63.6 61.1,63.6 61.6,63.5 62.1,63.5 62.6,63.4 63.1,63.3 63.7,63.3 64.2,63.3 64.7,63.3 65.2,63.2 65.7,63.2 66.2,63.2 66.8,63.1 67.3,63.1 67.8,63.1 68.3,63.0 68.8,63.0 69.3,63.0 69.9,62.9 70.4,62.9 70.9,62.9 71.4,62.9 71.9,62.9 72.5,62.9 73.0,64.0 73.5,63.9 74.0,63.8 74.5,63.7 75.0,63.4 75.6,63.1 76.1,62.9 76.6,62.8 77.1,62.7 77.6,62.6 78.1,62.4 78.7,62.3 79.2,62.2 79.7,62.2 80.2,62.1 80.7,62.0 81.3,61.9 81.8,61.8 82.3,61.8 82.8,61.8 83.3,61.7 83.8,61.6 84.4,61.5 84.9,61.5 85.4,61.4 85.9,61.3 86.4,61.3 87.0,61.2 87.5,61.2 88.0,61.1 88.5,61.1 89.0,61.0 89.5,61.0 90.1,61.0 90.6,60.9 91.1,60.9 91.6,60.8 92.1,60.8 92.6,60.8 93.2,60.7 93.7,60.7 94.2,60.7 94.7,60.7 95.2,60.6 95.8,60.6 96.3,60.5 96.8,60.5 97.3,60.4 97.8,60.4 98.3,60.4 98.9,60.4 99.4,60.3 99.9,60.2 100.4,60.2 100.9,60.1 101.4,60.1 102.0,60.1 102.5,60.1 103.0,60.0 103.5,60.0 104.0,59.9 104.6,59.9 105.1,59.9 105.6,59.9 106.1,59.8 106.6,59.8 107.1,59.8 107.7,59.7 108.2,59.7 108.7,59.7 109.2,59.7 109.7,59.6 110.2,59.6 110.8,59.6 111.3,59.5 111.8,59.5 112.3,59.5 112.8,59.4 113.4,59.4 113.9,59.4 114.4,59.4 114.9,59.3 115.4,59.3 115.9,59.2 116.5,59.2 117.0,59.1 117.5,59.1 118.0,59.1 118.5,59.1 119.1,59.1 119.6,59.0 120.1,59.0 120.6,59.0 121.1,58.9 121.6,58.9 122.2,58.9 122.7,58.9 123.2,58.8 123.7,58.8 124.2,58.8 124.7,58.8 125.3,58.7 125.8,58.7 126.3,58.7 126.8,58.6 127.3,58.6 127.9,58.6 128.4,58.6 128.9,58.5 129.4,58.5 129.9,58.4 130.4,58.4 131.0,58.4 131.5,58.4 132.0,58.4 132.5,58.3 133.0,58.3 133.5,58.3 134.1,58.2 134.6,58.2 135.1,58.2 135.6,58.2 136.1,58.1 136.7,58.1 137.2,58.1 137.7,58.0 138.2,58.0 138.7,58.0 139.2,58.0 139.8,58.0 140.3,57.9 140.8,57.9 141.3,57.9 141.8,57.9 142.3,57.8 142.9,57.8 143.4,57.8 143.9,57.8 144.4,57.7 144.9,57.7 145.5,57.7 146.0,57.6 146.5,57.6 147.0,57.6 147.5,57.6 148.0,57.6 148.6,57.5 149.1,57.5 149.6,57.5 150.1,57.5 150.6,57.4 151.2,57.4 151.7,57.4 152.2,57.4 152.7,57.3 153.2,57.3 153.7,57.3 154.3,57.3 154.8,57.3 155.3,57.2 155.8,57.2 156.3,57.2 156.8,57.2 157.4,57.1 157.9,57.1 158.4,57.1 158.9,57.1 159.4,57.1 160.0,57.1 160.5,57.0 161.0,57.0 161.5,56.9 162.0,57.7 162.5,57.5 163.1,57.3 163.6,57.1 164.1,57.0 164.6,56.9 165.1,56.8 165.6,56.7 166.2,56.6 166.7,56.4 167.2,56.3 167.7,56.3 168.2,56.2 168.8,56.2 169.3,56.1 169.8,56.0 170.3,55.9 170.8,55.9 171.3,55.8 171.9,55.8 172.4,55.7 172.9,55.7 173.4,55.6 173.9,55.6 174.4,55.5 175.0,55.4 175.5,55.4 176.0,55.3 176.5,55.2 177.0,55.2 177.6,55.1 178.1,55.1 178.6,55.0 179.1,55.0 179.6,54.9 180.1,54.8 180.7,54.7 181.2,54.6 181.7,54.6 182.2,54.5 182.7,54.4 183.3,54.4 183.8,54.3 184.3,54.2 184.8,54.2 185.3,54.1 185.8,54.1 186.4,54.0 186.9,54.0 187.4,54.0 187.9,53.9 188.4,53.9 188.9,53.9 189.5,53.8 190.0,53.8 190.5,53.8 191.0,53.7 191.5,53.7 192.1,53.6 192.6,53.6 193.1,53.6 193.6,53.6 194.1,53.5 194.6,53.5 195.2,53.5 195.7,53.5 196.2,53.4 196.7,53.4 197.2,53.4 197.7,53.3 198.3,53.3 198.8,53.3 199.3,53.2 199.8,53.2 200.3,53.2 200.9,53.2 201.4,53.2 201.9,53.1 202.4,53.1 202.9,53.1 203.4,53.1 204.0,53.0 204.5,53.0 205.0,53.0 205.5,52.9 206.0,52.9 206.5,52.9 207.1,52.8 207.6,52.8 208.1,52.7 208.6,52.7 209.1,52.7 209.7,52.6 210.2,52.6 210.7,52.6 211.2,52.5 211.7,52.5 212.2,52.5 212.8,52.4 213.3,52.4 213.8,52.4 214.3,52.4 214.8,52.3 215.3,52.3 215.9,52.3 216.4,52.2 216.9,52.2 217.4,52.2 217.9,52.1 218.5,52.1 219.0,52.0 219.5,52.0 220.0,52.0 220.5,52.0 221.0,52.0 221.6,51.9 222.1,51.9 222.6,51.8 223.1,51.8 223.6,51.8 224.2,51.8 224.7,51.7 225.2,51.7 225.7,51.7 226.2,51.7 226.7,51.7 227.3,51.6 227.8,51.6 228.3,51.6 228.8,51.6 229.3,51.5 229.8,51.5 230.4,51.5 230.9,51.5 231.4,51.4 231.9,51.4 232.4,51.4 233.0,51.4 233.5,51.3 234.0,51.3 234.5,51.3 235.0,51.2 235.5,51.2 236.1,51.2 236.6,51.2 237.1,51.1 237.6,51.1 238.1,51.1 238.6,51.1 239.2,51.1 239.7,51.1 240.2,51.0 240.7,51.0 241.2,51.0 241.8,50.9 242.3,50.9 242.8,50.9 243.3,50.9 243.8,50.8 244.3,50.8 244.9,50.8 245.4,50.8 245.9,50.8 246.4,50.7 246.9,50.7 247.4,50.6 248.0,50.6 248.5,50.6 249.0,50.5 249.5,50.5 250.0,50.5 250.6,50.5 251.1,50.4 251.6,50.4 252.1,50.4 252.6,50.4 253.1,50.3 253.7,50.3 254.2,50.3 254.7,50.3 255.2,50.2 255.7,50.2 256.3,50.2 256.8,50.2 257.3,50.1 257.8,50.1 258.3,50.1 258.8,50.1 259.4,50.0 259.9,50.0 260.4,50.0 260.9,49.9 261.4,49.9 261.9,49.9 262.5,49.9 263.0,49.9 263.5,49.9 264.0,49.9 264.5,49.8 265.1,49.8 265.6,49.8 266.1,49.8 266.6,49.7 267.1,49.7 267.6,49.7 268.2,49.7 268.7,49.7 269.2,49.7 269.7,49.6 270.2,49.6 270.7,49.6 271.3,52.0 271.8,51.8 272.3,51.6 272.8,51.4 273.3,51.3 273.9,51.2 274.4,51.1 274.9,51.0 275.4,51.0 275.9,50.9 276.4,50.8 277.0,50.7 277.5,50.6 278.0,50.5 278.5,50.4 279.0,50.3 279.5,50.2 280.1,50.2 280.6,50.1 281.1,50.1 281.6,50.0 282.1,50.0 282.7,49.9 283.2,49.9 283.7,49.8 284.2,49.8 284.7,49.7 285.2,49.7 285.8,49.6 286.3,49.6 286.8,49.5 287.3,49.5 287.8,49.5 288.4,49.4 288.9,49.4 289.4,49.4 289.9,49.4 290.4,49.4 290.9,49.4 291.5,49.4 292.0,49.4 292.5,49.3 293.0,49.3 293.5,49.3 294.0,49.2 294.6,49.2 295.1,49.2 295.6,49.1 296.1,49.1 296.6,49.1 297.2,49.0 297.7,49.0 298.2,48.9 298.7,48.9 299.2,48.9 299.7,48.9 300.3,48.8 300.8,48.8 301.3,48.8 301.8,48.7 302.3,48.7 302.8,48.7 303.4,48.6 303.9,48.6 304.4,48.6 304.9,48.5 305.4,48.5 306.0,48.5 306.5,48.4 307.0,48.4 307.5,48.4 308.0,48.4 308.5,48.3 309.1,48.3 309.6,48.3 310.1,48.2 310.6,48.2 311.1,48.2 311.6,48.2 312.2,48.1 312.7,48.1 313.2,48.1 313.7,48.0 314.2,48.0 314.8,48.0 315.3,47.9 315.8,47.9 316.3,47.9 316.8,47.8 317.3,47.8 317.9,47.8 318.4,47.8 318.9,47.7 319.4,47.7 319.9,47.7 320.5,47.7 321.0,47.6 321.5,47.6 322.0,47.6 322.5,47.5 323.0,47.5 323.6,47.5 324.1,47.5 324.6,47.5 325.1,47.4 325.6,47.4 326.1,47.4 326.7,47.4 327.2,47.4 327.7,47.4 328.2,47.4 328.7,47.3 329.3,47.3 329.8,47.3 330.3,47.3 330.8,47.3 331.3,47.3 331.8,47.2 332.4,47.2 332.9,47.2 333.4,47.2 333.9,47.1 334.4,47.1 334.9,47.1 335.5,47.1 336.0,47.1 336.5,47.0 337.0,47.0 337.5,47.0 338.1,47.0 338.6,46.9 339.1,46.9 339.6,46.9 340.1,46.9 340.6,46.8 341.2,46.8 341.7,46.8 342.2,46.8 342.7,46.7 343.2,46.7 343.7,46.7 344.3,46.7 344.8,46.7 345.3,46.6 345.8,46.6 346.3,46.5 346.9,46.5 347.4,46.5 347.9,46.4 348.4,46.4 348.9,46.4 349.4,46.4 350.0,46.4 350.5,46.4 351.0,46.3 351.5,46.3 352.0,46.3 352.6,46.3 353.1,46.2 353.6,46.2 354.1,46.2 354.6,46.2 355.1,46.2 355.7,46.2 356.2,46.2 356.7,46.1 357.2,46.1 357.7,46.1 358.2,46.1 358.8,46.1 359.3,46.0 359.8,46.0 360.3,46.0 360.8,46.0 361.4,46.0 361.9,46.0 362.4,45.9 362.9,45.9 363.4,45.9 363.9,45.9 364.5,45.9 365.0,45.8 365.5,45.8 366.0,45.8 366.5,45.8 367.0,45.8 367.6,45.8 368.1,45.8 368.6,45.7 369.1,45.7 369.6,45.7 370.2,45.7 370.7,45.7 371.2,45.6 371.7,45.6 372.2,45.6 372.7,45.6 373.3,45.6 373.8,45.6 374.3,45.6 374.8,45.6 375.3,45.6 375.8,45.5 376.4,45.5 376.9,45.5 377.4,46.2 377.9,46.0 378.4,45.9 379.0,45.8 379.5,45.7 380.0,45.5 380.5,45.4 381.0,45.3 381.5,45.2 382.1,45.1 382.6,45.0 383.1,44.9 383.6,44.9 384.1,44.8 384.7,44.7 385.2,44.7 385.7,44.7 386.2,44.6 386.7,44.6 387.2,44.5 387.8,44.5 388.3,44.4 388.8,44.3 389.3,44.3 389.8,44.2 390.3,44.2 390.9,44.2 391.4,44.1 391.9,44.1 392.4,44.1 392.9,44.0 393.5,44.0 394.0,43.9 394.5,43.9 395.0,43.8 395.5,43.8 396.0,43.8 396.6,43.7 397.1,120.0 397.6,43.7 398.1,43.6 398.6,43.6 399.1,43.6 399.7,43.5 400.2,43.5 400.7,43.4 401.2,43.4 401.7,43.3 402.3,43.3 402.8,43.3 403.3,43.2 403.8,43.2 404.3,43.2 404.8,43.2 405.4,43.2 405.9,43.1 406.4,43.1 406.9,43.0 407.4,43.0 407.9,43.0 408.5,42.9 409.0,42.9 409.5,42.9 410.0,42.9 410.5,42.9 411.1,42.8 411.6,42.8 412.1,42.8 412.6,120.0 413.1,42.7 413.6,42.6 414.2,42.6 414.7,42.6 415.2,42.6 415.7,42.5 416.2,42.5 416.7,42.5 417.3,42.5 417.8,42.4 418.3,42.4 418.8,42.3 419.3,42.3 419.9,42.2 420.4,42.2 420.9,42.2 421.4,42.1 421.9,42.1 422.4,42.1 423.0,42.1 423.5,42.0 424.0,42.0 424.5,41.9 425.0,41.9 425.6,41.8 426.1,41.8 426.6,41.7 427.1,41.7 427.6,41.7 428.1,41.6 428.7,41.6 429.2,41.6 429.7,41.6 430.2,41.5 430.7,41.5 431.2,41.4 431.8,41.4 432.3,41.4 432.8,41.3 433.3,41.3 433.8,41.3 434.4,41.3 434.9,41.2 435.4,41.2 435.9,41.2 436.4,41.2 436.9,41.1 437.5,41.1 438.0,41.0 438.5,41.0 439.0,41.0 439.5,41.0 440.0,40.9 440.6,40.9 441.1,40.9 441.6,40.9 442.1,40.8 442.6,40.8 443.2,40.8 443.7,40.7 444.2,40.6 444.7,40.4 445.2,40.3 445.7,40.2 446.3,40.1 446.8,40.0 447.3,39.9 447.8,39.9 448.3,39.7 448.8,39.6 449.4,39.5 449.9,39.6 450.4,39.4 450.9,39.2 451.4,39.0 452.0,38.9 452.5,38.8 453.0,38.7 453.5,38.7 454.0,38.6 454.5,38.5 455.1,38.4 455.6,38.3 456.1,38.2 456.6,38.1 457.1,38.0 457.7,37.9 458.2,37.9 458.7,37.8 459.2,37.8 459.7,37.7 460.2,37.7 460.8,37.6 461.3,37.5 461.8,37.4 462.3,37.4 462.8,37.3 463.3,37.2 463.9,37.2 464.4,37.1 464.9,37.1 465.4,37.1 465.9,37.0 466.5,37.0 467.0,36.9 467.5,37.3 468.0,37.1 468.5,36.8 469.0,36.6 469.6,36.5 470.1,36.4 470.6,36.3 471.1,36.2 471.6,36.1 472.1,35.9 472.7,35.7 473.2,35.5 473.7,37.4 474.2,37.2 474.7,36.9 475.3,36.5 475.8,36.3 476.3,36.0 476.8,36.0 477.3,35.9 477.8,35.9 478.4,35.9 478.9,35.8 479.4,35.7 479.9,35.7 480.4,35.5 480.9,35.4 481.5,35.3 482.0,35.2 482.5,35.1 483.0,35.1 483.5,35.0 484.1,35.0 484.6,34.9 485.1,34.8 485.6,34.7 486.1,34.6 486.6,34.5 487.2,34.4 487.7,34.4 488.2,34.3 488.7,34.2 489.2,34.1 489.8,34.0 490.3,33.9 490.8,33.9 491.3,33.8 491.8,33.7 492.3,33.7 492.9,33.6 493.4,33.5 493.9,33.4 494.4,33.3 494.9,33.2 495.4,33.2 496.0,33.1 496.5,33.1 497.0,33.1 497.5,33.0 498.0,33.0 498.6,33.0 499.1,32.9 499.6,32.9 500.1,32.8 500.6,32.8 501.1,32.7 501.7,32.7 502.2,32.7 502.7,32.7 503.2,32.6 503.7,32.6 504.2,32.6 504.8,32.6 505.3,32.5 505.8,32.5 506.3,32.5 506.8,32.4 507.4,32.4 507.9,32.4 508.4,32.4 508.9,32.3 509.4,32.3 509.9,32.3 510.5,32.3 511.0,32.3 511.5,32.2 512.0,32.2 512.5,32.2 513.0,32.1 513.6,32.1 514.1,32.1 514.6,32.0 515.1,32.0 515.6,32.0 516.2,32.0 516.7,31.9 517.2,31.9 517.7,31.9 518.2,31.9 518.7,31.8 519.3,31.8 519.8,31.8 520.3,31.7 520.8,31.7 521.3,31.7 521.9,31.7 522.4,31.6 522.9,31.6 523.4,31.6 523.9,31.6 524.4,31.5 525.0,31.5 525.5,31.5 526.0,31.4 526.5,31.4 527.0,31.4 527.5,31.4 528.1,31.3 528.6,31.3 529.1,31.3 529.6,31.3 530.1,31.3 530.7,31.2 531.2,31.2 531.7,31.1 532.2,31.1 532.7,31.1 533.2,31.1 533.8,31.1 534.3,31.0 534.8,31.0 535.3,31.0 535.8,31.0 536.3,31.0 536.9,30.9 537.4,30.9 537.9,30.9 538.4,30.9 538.9,30.8 539.5,30.8 540.0,30.8 540.5,30.8 541.0,30.8 541.5,30.8 542.0,30.7 542.6,30.7 543.1,30.7 543.6,30.6 544.1,30.6 544.6,30.6 545.1,30.6 545.7,30.5 546.2,30.5 546.7,30.5 547.2,30.5 547.7,30.5 548.3,30.5 548.8,30.4 549.3,30.4 549.8,30.4 550.3,30.4 550.8,30.3 551.4,30.3 551.9,30.3 552.4,30.3 552.9,30.3 553.4,30.3 554.0,30.2 554.5,30.2 555.0,30.2 555.5,30.2 556.0,30.2 556.5,30.1 557.1,30.1 557.6,30.1 558.1,30.1 558.6,30.1 559.1,30.0 559.6,30.0 560.2,30.0 560.7,32.6 561.2,32.4 561.7,32.2 562.2,32.0 562.8,31.8 563.3,31.7 563.8,31.6 564.3,31.5 564.8,31.4 565.3,31.3 565.9,31.3 566.4,31.2 566.9,31.1 567.4,31.1 567.9,31.0 568.4,30.9 569.0,30.8 569.5,30.7 570.0,30.7 570.0,30.7,120" />
  
  <!-- Linea principale -->
  <polyline fill="none" stroke="#0366d6" stroke-width="2.5" stroke-linecap="round" stroke-linejoin="round" points="30.0,66.8 30.5,66.7 31.0,66.6 31.6,66.6 32.1,66.5 32.6,66.5 33.1,66.4 33.6,66.3 34.1,66.3 34.7,66.2 35.2,66.1 35.7,66.1 36.2,66.0 36.7,66.0 37.2,65.9 37.8,65.8 38.3,65.8 38.8,65.7 39.3,65.7 39.8,65.7 40.4,65.6 40.9,65.6 41.4,65.5 41.9,65.5 42.4,65.3 42.9,65.3 43.5,65.2 44.0,65.1 44.5,65.1 45.0,65.0 45.5,65.0 46.0,65.0 46.6,64.9 47.1,64.8 47.6,64.8 48.1,64.7 48.6,64.7 49.2,64.6 49.7,64.6 50.2,64.6 50.7,64.5 51.2,64.5 51.7,64.5 52.3,64.4 52.8,64.3 53.3,64.3 53.8,64.3 54.3,64.3 54.9,64.2 55.4,64.1 55.9,64.1 56.4,64.0 56.9,63.9 57.4,63.9 58.0,63.9 58.5,63.8 59.0,63.8 59.5,63.7 60.0,63.7 60.5,63.6 61.1,63.6 61.6,63.5 62.1,63.5 62.6,63.4 63.1,63.3 63.7,63.3 64.2,63.3 64.7,63.3 65.2,63.2 65.7,63.2 66.2,63.2 66.8,63.1 67.3,63.1 67.8,63.1 68.3,63.0 68.8,63.0 69.3,63.0 69.9,62.9 70.4,62.9 70.9,62.9 71.4,62.9 71.9,62.9 72.5,62.9 73.0,64.0 73.5,63.9 74.0,63.8 74.5,63.7 75.0,63.4 75.6,63.1 76.1,62.9 76.6,62.8 77.1,62.7 77.6,62.6 78.1,62.4 78.7,62.3 79.2,62.2 79.7,62.2 80.2,62.1 80.7,62.0 81.3,61.9 81.8,61.8 82.3,61.8 82.8,61.8 83.3,61.7 83.8,61.6 84.4,61.5 84.9,61.5 85.4,61.4 85.9,61.3 86.4,61.3 87.0,61.2 87.5,61.2 88.0,61.1 88.5,61.1 89.0,61.0 89.5,61.0 90.1,61.0 90.6,60.9 91.1,60.9 91.6,60.8 92.1,60.8 92.6,60.8 93.2,60.7 93.7,60.7 94.2,60.7 94.7,60.7 95.2,60.6 95.8,60.6 96.3,60.5 96.8,60.5 97.3,60.4 97.8,60.4 98.3,60.4 98.9,60.4 99.4,60.3 99.9,60.2 100.4,60.2 100.9,60.1 101.4,60.1 102.0,60.1 102.5,60.1 103.0,60.0 103.5,60.0 104.0,59.9 104.6,59.9 105.1,59.9 105.6,59.9 106.1,59.8 106.6,59.8 107.1,59.8 107.7,59.7 108.2,59.7 108.7,59.7 109.2,59.7 109.7,59.6 110.2,59.6 110.8,59.6 111.3,59.5 111.8,59.5 112.3,59.5 112.8,59.4 113.4,59.4 113.9,59.4 114.4,59.4 114.9,59.3 115.4,59.3 115.9,59.2 116.5,59.2 117.0,59.1 117.5,59.1 118.0,59.1 118.5,59.1 119.1,59.1 119.6,59.0 120.1,59.0 120.6,59.0 121.1,58.9 121.6,58.9 122.2,58.9 122.7,58.9 123.2,58.8 123.7,58.8 124.2,58.8 124.7,58.8 125.3,58.7 125.8,58.7 126.3,58.7 126.8,58.6 127.3,58.6 127.9,58.6 128.4,58.6 128.9,58.5 129.4,58.5 129.9,58.4 130.4,58.4 131.0,58.4 131.5,58.4 132.0,58.4 132.5,58.3 133.0,58.3 133.5,58.3 134.1,58.2 134.6,58.2 135.1,58.2 135.6,58.2 136.1,58.1 136.7,58.1 137.2,58.1 137.7,58.0 138.2,58.0 138.7,58.0 139.2,58.0 139.8,58.0 140.3,57.9 140.8,57.9 141.3,57.9 141.8,57.9 142.3,57.8 142.9,57.8 143.4,57.8 143.9,57.8 144.4,57.7 144.9,57.7 145.5,57.7 146.0,57.6 146.5,57.6 147.0,57.6 147.5,57.6 148.0,57.6 148.6,57.5 149.1,57.5 149.6,57.5 150.1,57.5 150.6,57.4 151.2,57.4 151.7,57.4 152.2,57.4 152.7,57.3 153.2,57.3 153.7,57.3 154.3,57.3 154.8,57.3 155.3,57.2 155.8,57.2 156.3,57.2 156.8,57.2 157.4,57.1 157.9,57.1 158.4,57.1 158.9,57.1 159.4,57.1 160.0,57.1 160.5,57.0 161.0,57.0 161.5,56.9 162.0,57.7 162.5,57.5 163.1,57.3 163.6,57.1 164.1,57.0 164.6,56.9 165.1,56.8 165.6,56.7 166.2,56.6 166.7,56.4 167.2,56.3 167.7,56.3 168.2,56.2 168.8,56.2 169.3,56.1 169.8,56.0 170.3,55.9 170.8,55.9 171.3,55.8 171.9,55.8 172.4,55.7 172.9,55.7 173.4,55.6 173.9,55.6 174.4,55.5 175.0,55.4 175.5,55.4 176.0,55.3 176.5,55.2 177.0,55.2 177.6,55.1 178.1,55.1 178.6,55.0 179.1,55.0 179.6,54.9 180.1,54.8 180.7,54.7 181.2,54.6 181.7,54.6 182.2,54.5 182.7,54.4 183.3,54.4 183.8,54.3 184.3,54.2 184.8,54.2 185.3,54.1 185.8,54.1 186.4,54.0 186.9,54.0 187.4,54.0 187.9,53.9 188.4,53.9 188.9,53.9 189.5,53.8 190.0,53.8 190.5,53.8 191.0,53.7 191.5,53.7 192.1,53.6 192.6,53.6 193.1,53.6 193.6,53.6 194.1,53.5 194.6,53.5 195.2,53.5 195.7,53.5 196.2,53.4 196.7,53.4 197.2,53.4 197.7,53.3 198.3,53.3 198.8,53.3 199.3,53.2 199.8,53.2 200.3,53.2 200.9,53.2 201.4,53.2 201.9,53.1 202.4,53.1 202.9,53.1 203.4,53.1 204.0,53.0 204.5,53.0 205.0,53.0 205.5,52.9 206.0,52.9 206.5,52.9 207.1,52.8 207.6,52.8 208.1,52.7 208.6,52.7 209.1,52.7 209.7,52.6 210.2,52.6 210.7,52.6 211.2,52.5 211.7,52.5 212.2,52.5 212.8,52.4 213.3,52.4 213.8,52.4 214.3,52.4 214.8,52.3 215.3,52.3 215.9,52.3 216.4,52.2 216.9,52.2 217.4,52.2 217.9,52.1 218.5,52.1 219.0,52.0 219.5,52.0 220.0,52.0 220.5,52.0 221.0,52.0 221.6,51.9 222.1,51.9 222.6,51.8 223.1,51.8 223.6,51.8 224.2,51.8 224.7,51.7 225.2,51.7 225.7,51.7 226.2,51.7 226.7,51.7 227.3,51.6 227.8,51.6 228.3,51.6 228.8,51.6 229.3,51.5 229.8,51.5 230.4,51.5 230.9,51.5 231.4,51.4 231.9,51.4 232.4,51.4 233.0,51.4 233.5,51.3 234.0,51.3 234.5,51.3 235.0,51.2 235.5,51.2 236.1,51.2 236.6,51.2 237.1,51.1 237.6,51.1 238.1,51.1 238.6,51.1 239.2,51.1 239.7,51.1 240.2,51.0 240.7,51.0 241.2,51.0 241.8,50.9 242.3,50.9 242.8,50.9 243.3,50.9 243.8,50.8 244.3,50.8 244.9,50.8 245.4,50.8 245.9,50.8 246.4,50.7 246.9,50.7 247.4,50.6 248.0,50.6 248.5,50.6 249.0,50.5 249.5,50.5 250.0,50.5 250.6,50.5 251.1,50.4 251.6,50.4 252.1,50.4 252.6,50.4 253.1,50.3 253.7,50.3 254.2,50.3 254.7,50.3 255.2,50.2 255.7,50.2 256.3,50.2 256.8,50.2 257.3,50.1 257.8,50.1 258.3,50.1 258.8,50.1 259.4,50.0 259.9,50.0 260.4,50.0 260.9,49.9 261.4,49.9 261.9,49.9 262.5,49.9 263.0,49.9 263.5,49.9 264.0,49.9 264.5,49.8 265.1,49.8 265.6,49.8 266.1,49.8 266.6,49.7 267.1,49.7 267.6,49.7 268.2,49.7 268.7,49.7 269.2,49.7 269.7,49.6 270.2,49.6 270.7,49.6 271.3,52.0 271.8,51.8 272.3,51.6 272.8,51.4 273.3,51.3 273.9,51.2 274.4,51.1 274.9,51.0 275.4,51.0 275.9,50.9 276.4,50.8 277.0,50.7 277.5,50.6 278.0,50.5 278.5,50.4 279.0,50.3 279.5,50.2 280.1,50.2 280.6,50.1 281.1,50.1 281.6,50.0 282.1,50.0 282.7,49.9 283.2,49.9 283.7,49.8 284.2,49.8 284.7,49.7 285.2,49.7 285.8,49.6 286.3,49.6 286.8,49.5 287.3,49.5 287.8,49.5 288.4,49.4 288.9,49.4 289.4,49.4 289.9,49.4 290.4,49.4 290.9,49.4 291.5,49.4 292.0,49.4 292.5,49.3 293.0,49.3 293.5,49.3 294.0,49.2 294.6,49.2 295.1,49.2 295.6,49.1 296.1,49.1 296.6,49.1 297.2,49.0 297.7,49.0 298.2,48.9 298.7,48.9 299.2,48.9 299.7,48.9 300.3,48.8 300.8,48.8 301.3,48.8 301.8,48.7 302.3,48.7 302.8,48.7 303.4,48.6 303.9,48.6 304.4,48.6 304.9,48.5 305.4,48.5 306.0,48.5 306.5,48.4 307.0,48.4 307.5,48.4 308.0,48.4 308.5,48.3 309.1,48.3 309.6,48.3 310.1,48.2 310.6,48.2 311.1,48.2 311.6,48.2 312.2,48.1 312.7,48.1 313.2,48.1 313.7,48.0 314.2,48.0 314.8,48.0 315.3,47.9 315.8,47.9 316.3,47.9 316.8,47.8 317.3,47.8 317.9,47.8 318.4,47.8 318.9,47.7 319.4,47.7 319.9,47.7 320.5,47.7 321.0,47.6 321.5,47.6 322.0,47.6 322.5,47.5 323.0,47.5 323.6,47.5 324.1,47.5 324.6,47.5 325.1,47.4 325.6,47.4 326.1,47.4 326.7,47.4 327.2,47.4 327.7,47.4 328.2,47.4 328.7,47.3 329.3,47.3 329.8,47.3 330.3,47.3 330.8,47.3 331.3,47.3 331.8,47.2 332.4,47.2 332.9,47.2 333.4,47.2 333.9,47.1 334.4,47.1 334.9,47.1 335.5,47.1 336.0,47.1 336.5,47.0 337.0,47.0 337.5,47.0 338.1,47.0 338.6,46.9 339.1,46.9 339.6,46.9 340.1,46.9 340.6,46.8 341.2,46.8 341.7,46.8 342.2,46.8 342.7,46.7 343.2,46.7 343.7,46.7 344.3,46.7 344.8,46.7 345.3,46.6 345.8,46.6 346.3,46.5 346.9,46.5 347.4,46.5 347.9,46.4 348.4,46.4 348.9,46.4 349.4,46.4 350.0,46.4 350.5,46.4 351.0,46.3 351.5,46.3 352.0,46.3 352.6,46.3 353.1,46.2 353.6,46.2 354.1,46.2 354.6,46.2 355.1,46.2 355.7,46.2 356.2,46.2 356.7,46.1 357.2,46.1 357.7,46.1 358.2,46.1 358.8,46.1 359.3,46.0 359.8,46.0 360.3,46.0 360.8,46.0 361.4,46.0 361.9,46.0 362.4,45.9 362.9,45.9 363.4,45.9 363.9,45.9 364.5,45.9 365.0,45.8 365.5,45.8 366.0,45.8 366.5,45.8 367.0,45.8 367.6,45.8 368.1,45.8 368.6,45.7 369.1,45.7 369.6,45.7 370.2,45.7 370.7,45.7 371.2,45.6 371.7,45.6 372.2,45.6 372.7,45.6 373.3,45.6 373.8,45.6 374.3,45.6 374.8,45.6 375.3,45.6 375.8,45.5 376.4,45.5 376.9,45.5 377.4,46.2 377.9,46.0 378.4,45.9 379.0,45.8 379.5,45.7 380.0,45.5 380.5,45.4 381.0,45.3 381.5,45.2 382.1,45.1 382.6,45.0 383.1,44.9 383.6,44.9 384.1,44.8 384.7,44.7 385.2,44.7 385.7,44.7 386.2,44.6 386.7,44.6 387.2,44.5 387.8,44.5 388.3,44.4 388.8,44.3 389.3,44.3 389.8,44.2 390.3,44.2 390.9,44.2 391.4,44.1 391.9,44.1 392.4,44.1 392.9,44.0 393.5,44.0 394.0,43.9 394.5,43.9 395.0,43.8 395.5,43.8 396.0,43.8 396.6,43.7 397.1,120.0 397.6,43.7 398.1,43.6 398.6,43.6 399.1,43.6 399.7,43.5 400.2,43.5 400.7,43.4 401.2,43.4 401.7,43.3 402.3,43.3 402.8,43.3 403.3,43.2 403.8,43.2 404.3,43.2 404.8,43.2 405.4,43.2 405.9,43.1 406.4,43.1 406.9,43.0 407.4,43.0 407.9,43.0 408.5,42.9 409.0,42.9 409.5,42.9 410.0,42.9 410.5,42.9 411.1,42.8 411.6,42.8 412.1,42.8 412.6,120.0 413.1,42.7 413.6,42.6 414.2,42.6 414.7,42.6 415.2,42.6 415.7,42.5 416.2,42.5 416.7,42.5 417.3,42.5 417.8,42.4 418.3,42.4 418.8,42.3 419.3,42.3 419.9,42.2 420.4,42.2 420.9,42.2 421.4,42.1 421.9,42.1 422.4,42.1 423.0,42.1 423.5,42.0 424.0,42.0 424.5,41.9 425.0,41.9 425.6,41.8 426.1,41.8 426.6,41.7 427.1,41.7 427.6,41.7 428.1,41.6 428.7,41.6 429.2,41.6 429.7,41.6 430.2,41.5 430.7,41.5 431.2,41.4 431.8,41.4 432.3,41.4 432.8,41.3 433.3,41.3 433.8,41.3 434.4,41.3 434.9,41.2 435.4,41.2 435.9,41.2 436.4,41.2 436.9,41.1 437.5,41.1 438.0,41.0 438.5,41.0 439.0,41.0 439.5,41.0 440.0,40.9 440.6,40.9 441.1,40.9 441.6,40.9 442.1,40.8 442.6,40.8 443.2,40.8 443.7,40.7 444.2,40.6 444.7,40.4 445.2,40.3 445.7,40.2 446.3,40.1 446.8,40.0 447.3,39.9 447.8,39.9 448.3,39.7 448.8,39.6 449.4,39.5 449.9,39.6 450.4,39.4 450.9,39.2 451.4,39.0 452.0,38.9 452.5,38.8 453.0,38.7 453.5,38.7 454.0,38.6 454.5,38.5 455.1,38.4 455.6,38.3 456.1,38.2 456.6,38.1 457.1,38.0 457.7,37.9 458.2,37.9 458.7,37.8 459.2,37.8 459.7,37.7 460.2,37.7 460.8,37.6 461.3,37.5 461.8,37.4 462.3,37.4 462.8,37.3 463.3,37.2 463.9,37.2 464.4,37.1 464.9,37.1 465.4,37.1 465.9,37.0 466.5,37.0 467.0,36.9 467.5,37.3 468.0,37.1 468.5,36.8 469.0,36.6 469.6,36.5 470.1,36.4 470.6,36.3 471.1,36.2 471.6,36.1 472.1,35.9 472.7,35.7 473.2,35.5 473.7,37.4 474.2,37.2 474.7,36.9 475.3,36.5 475.8,36.3 476.3,36.0 476.8,36.0 477.3,35.9 477.8,35.9 478.4,35.9 478.9,35.8 479.4,35.7 479.9,35.7 480.4,35.5 480.9,35.4 481.5,35.3 482.0,35.2 482.5,35.1 483.0,35.1 483.5,35.0 484.1,35.0 484.6,34.9 485.1,34.8 485.6,34.7 486.1,34.6 486.6,34.5 487.2,34.4 487.7,34.4 488.2,34.3 488.7,34.2 489.2,34.1 489.8,34.0 490.3,33.9 490.8,33.9 491.3,33.8 491.8,33.7 492.3,33.7 492.9,33.6 493.4,33.5 493.9,33.4 494.4,33.3 494.9,33.2 495.4,33.2 496.0,33.1 496.5,33.1 497.0,33.1 497.5,33.0 498.0,33.0 498.6,33.0 499.1,32.9 499.6,32.9 500.1,32.8 500.6,32.8 501.1,32.7 501.7,32.7 502.2,32.7 502.7,32.7 503.2,32.6 503.7,32.6 504.2,32.6 504.8,32.6 505.3,32.5 505.8,32.5 506.3,32.5 506.8,32.4 507.4,32.4 507.9,32.4 508.4,32.4 508.9,32.3 509.4,32.3 509.9,32.3 510.5,32.3 511.0,32.3 511.5,32.2 512.0,32.2 512.5,32.2 513.0,32.1 513.6,32.1 514.1,32.1 514.6,32.0 515.1,32.0 515.6,32.0 516.2,32.0 516.7,31.9 517.2,31.9 517.7,31.9 518.2,31.9 518.7,31.8 519.3,31.8 519.8,31.8 520.3,31.7 520.8,31.7 521.3,31.7 521.9,31.7 522.4,31.6 522.9,31.6 523.4,31.6 523.9,31.6 524.4,31.5 525.0,31.5 525.5,31.5 526.0,31.4 526.5,31.4 527.0,31.4 527.5,31.4 528.1,31.3 528.6,31.3 529.1,31.3 529.6,31.3 530.1,31.3 530.7,31.2 531.2,31.2 531.7,31.1 532.2,31.1 532.7,31.1 533.2,31.1 533.8,31.1 534.3,31.0 534.8,31.0 535.3,31.0 535.8,31.0 536.3,31.0 536.9,30.9 537.4,30.9 537.9,30.9 538.4,30.9 538.9,30.8 539.5,30.8 540.0,30.8 540.5,30.8 541.0,30.8 541.5,30.8 542.0,30.7 542.6,30.7 543.1,30.7 543.6,30.6 544.1,30.6 544.6,30.6 545.1,30.6 545.7,30.5 546.2,30.5 546.7,30.5 547.2,30.5 547.7,30.5 548.3,30.5 548.8,30.4 549.3,30.4 549.8,30.4 550.3,30.4 550.8,30.3 551.4,30.3 551.9,30.3 552.4,30.3 552.9,30.3 553.4,30.3 554.0,30.2 554.5,30.2 555.0,30.2 555.5,30.2 556.0,30.2 556.5,30.1 557.1,30.1 557.6,30.1 558.1,30.1 558.6,30.1 559.1,30.0 559.6,30.0 560.2,30.0 560.7,32.6 561.2,32.4 561.7,32.2 562.2,32.0 562.8,31.8 563.3,31.7 563.8,31.6 564.3,31.5 564.8,31.4 565.3,31.3 565.9,31.3 566.4,31.2 566.9,31.1 567.4,31.1 567.9,31.0 568.4,30.9 569.0,30.8 569.5,30.7 570.0,30.7" />
  
  <!-- Punto finale luminoso -->
  <circle cx="570.0" cy="30.7" r="4" fill="#ffffff" stroke="#0366d6" stroke-width="2.5" />
</svg>