<svg width="600" height="150" viewBox="0 0 600 150" xmlns="http://www.w3.org/2000/svg">
  <defs>
    <filter id="shadow2" x="-2%" y="-2%" width="104%" height="108%">
      <feDropShadow dx="0" dy="2" stdDeviation="3" flood-opacity="0.1" />
    </filter>
    <linearGradient id="fillGrad" x1="0" y1="0" x2="0" y2="1">
      <stop offset="0%" stop-color="#0366d6" stop-opacity="0.3"/>
      <stop offset="100%" stop-color="#0366d6" stop-opacity="0.02"/>
    </linearGradient>
  </defs>
  <rect width="600" height="150" rx="12" fill="#ffffff" filter="url(#shadow2)" stroke="#e1e4e8" stroke-width="1"/>
  <text x="20" y="24" fill="#2b3137" font-family="-apple-system,BlinkMacSystemFont,'Segoe UI',Helvetica,Arial,sans-serif" font-size="14" font-weight="600">📈 Download Growth (Actual: 88.2k)</text>
  
  <!-- Area sotto la linea -->
  <polygon fill="url(#fillGrad)" points="30.0,120.0,120 30.0,120.0 31.2,119.5 32.4,119.0 33.6,118.6 34.8,118.4 36.0,118.2 37.2,117.7 38.4,117.3 39.6,117.0 40.8,116.5 42.0,116.2 43.2,115.9 44.4,115.8 45.6,115.5 46.8,115.1 48.0,114.7 49.2,114.4 50.4,114.2 51.6,114.0 52.7,113.8 53.9,113.5 55.1,113.2 56.3,113.1 57.5,112.8 58.7,112.0 59.9,111.7 61.1,111.3 62.3,111.0 63.5,110.7 64.7,110.4 65.9,110.2 67.1,110.0 68.3,109.8 69.5,109.4 70.7,109.0 71.9,108.7 73.1,108.4 74.3,108.3 75.5,108.3 76.7,108.1 77.9,107.8 79.1,107.7 80.3,107.5 81.5,107.2 82.7,106.7 83.9,106.6 85.1,106.5 86.3,106.3 87.5,106.0 88.7,105.7 89.9,105.3 91.1,105.0 92.3,104.7 93.5,104.6 94.7,104.4 95.9,104.0 97.1,103.7 98.2,103.4 99.4,103.3 100.6,103.1 101.8,102.9 103.0,102.5 104.2,102.2 105.4,101.8 106.6,101.5 107.8,101.3 109.0,101.2 110.2,101.1 111.4,100.8 112.6,100.6 113.8,100.5 115.0,100.4 116.2,100.2 117.4,100.0 118.6,99.9 119.8,99.8 121.0,99.7 122.2,99.4 123.4,99.2 124.6,99.1 125.8,99.0 127.0,98.9 128.2,98.9 129.4,104.9 130.6,104.3 131.8,103.8 133.0,103.3 134.2,101.6 135.4,100.5 136.6,99.2 137.8,98.8 139.0,98.3 140.2,97.4 141.4,96.5 142.5,95.8 143.7,95.6 144.9,95.3 146.1,94.7 147.3,94.2 148.5,93.9 149.7,93.5 150.9,93.3 152.1,93.2 153.3,92.9 154.5,92.3 155.7,91.9 156.9,91.5 158.1,91.1 159.3,90.9 160.5,90.7 161.7,90.3 162.9,90.0 164.1,89.6 165.3,89.4 166.5,89.2 167.7,89.2 168.9,88.9 170.1,88.7 171.3,88.4 172.5,88.2 173.7,88.0 174.9,87.9 176.1,87.7 177.3,87.5 178.5,87.4 179.7,87.2 180.9,86.9 182.1,86.7 183.3,86.4 184.5,86.3 185.7,86.1 186.9,86.0 188.0,85.8 189.2,85.7 190.4,85.3 191.6,85.0 192.8,84.6 194.0,84.5 195.2,84.4 196.4,84.3 197.6,84.1 198.8,83.8 200.0,83.6 201.2,83.4 202.4,83.2 203.6,83.1 204.8,83.0 206.0,82.8 207.2,82.7 208.4,82.5 209.6,82.4 210.8,82.1 212.0,82.0 213.2,81.9 214.4,81.8 215.6,81.7 216.8,81.5 218.0,81.3 219.2,81.1 220.4,80.9 221.6,80.7 222.8,80.6 224.0,80.5 225.2,80.4 226.4,80.1 227.6,79.8 228.8,79.7 230.0,79.5 231.2,79.1 232.4,79.1 233.5,79.0 234.7,78.9 235.9,78.7 237.1,78.6 238.3,78.4 239.5,78.2 240.7,78.1 241.9,78.0 243.1,77.8 244.3,77.7 245.5,77.6 246.7,77.5 247.9,77.2 249.1,77.1 250.3,76.9 251.5,76.8 252.7,76.7 253.9,76.6 255.1,76.5 256.3,76.4 257.5,76.2 258.7,75.9 259.9,75.7 261.1,75.5 262.3,75.3 263.5,75.3 264.7,75.2 265.9,75.0 267.1,74.8 268.3,74.7 269.5,74.6 270.7,74.4 271.9,74.3 273.1,74.1 274.3,74.0 275.5,73.9 276.7,73.7 277.8,73.5 279.0,73.3 280.2,73.1 281.4,73.1 282.6,73.0 283.8,73.0 285.0,72.8 286.2,72.7 287.4,72.5 288.6,72.4 289.8,72.2 291.0,72.1 292.2,72.0 293.4,71.9 294.6,71.8 295.8,71.6 297.0,71.4 298.2,71.2 299.4,71.1 300.6,71.0 301.8,70.9 303.0,70.8 304.2,70.7 305.4,70.6 306.6,70.5 307.8,70.3 309.0,70.1 310.2,70.0 311.4,69.9 312.6,69.8 313.8,69.7 315.0,69.5 316.2,69.4 317.4,69.3 318.6,69.2 319.8,69.0 321.0,68.9 322.2,68.7 323.3,68.6 324.5,68.6 325.7,68.5 326.9,68.4 328.1,68.2 329.3,68.1 330.5,68.1 331.7,68.0 332.9,67.7 334.1,67.5 335.3,71.4 336.5,70.7 337.7,69.2 338.9,68.6 340.1,67.9 341.3,67.0 342.5,66.6 343.7,66.3 344.9,65.7 346.1,64.9 347.3,64.2 348.5,64.0 349.7,63.7 350.9,63.4 352.1,63.0 353.3,62.6 354.5,62.1 355.7,61.9 356.9,61.4 358.1,61.2 359.3,60.9 360.5,60.7 361.7,60.5 362.9,60.3 364.1,59.8 365.3,59.6 366.5,59.2 367.6,58.6 368.8,58.3 370.0,58.1 371.2,58.0 372.4,57.8 373.6,57.4 374.8,57.1 376.0,56.8 377.2,56.0 378.4,55.4 379.6,55.1 380.8,55.0 382.0,54.7 383.2,54.3 384.4,53.9 385.6,53.4 386.8,53.1 388.0,52.8 389.2,52.6 390.4,52.2 391.6,52.0 392.8,51.8 394.0,51.7 395.2,51.5 396.4,51.3 397.6,51.1 398.8,50.9 400.0,50.7 401.2,50.6 402.4,50.3 403.6,50.2 404.8,50.0 406.0,49.8 407.2,49.7 408.4,49.5 409.6,49.4 410.8,49.3 412.0,49.1 413.1,49.1 414.3,48.9 415.5,48.7 416.7,48.6 417.9,48.4 419.1,48.2 420.3,48.1 421.5,47.9 422.7,47.8 423.9,47.7 425.1,47.6 426.3,47.4 427.5,47.3 428.7,47.2 429.9,47.1 431.1,46.9 432.3,46.7 433.5,46.5 434.7,46.3 435.9,46.2 437.1,46.0 438.3,45.8 439.5,45.6 440.7,45.4 441.9,45.2 443.1,45.0 444.3,44.8 445.5,44.6 446.7,44.4 447.9,44.2 449.1,44.0 450.3,43.9 451.5,43.7 452.7,43.6 453.9,43.5 455.1,43.4 456.3,43.2 457.5,43.1 458.6,42.9 459.8,42.7 461.0,42.5 462.2,42.2 463.4,42.1 464.6,41.8 465.8,41.7 467.0,41.5 468.2,41.4 469.4,41.3 470.6,41.2 471.8,41.0 473.0,40.8 474.2,40.7 475.4,40.4 476.6,40.3 477.8,40.2 479.0,40.0 480.2,39.9 481.4,39.8 482.6,39.7 483.8,39.6 485.0,39.5 486.2,39.4 487.4,39.2 488.6,39.1 489.8,38.9 491.0,38.7 492.2,38.6 493.4,38.5 494.6,38.4 495.8,38.3 497.0,38.1 498.2,38.0 499.4,37.9 500.6,37.7 501.8,37.5 502.9,37.3 504.1,37.0 505.3,37.0 506.5,36.9 507.7,36.8 508.9,36.7 510.1,36.6 511.3,36.5 512.5,36.4 513.7,36.3 514.9,36.2 516.1,36.1 517.3,35.9 518.5,35.7 519.7,35.6 520.9,35.5 522.1,35.4 523.3,35.2 524.5,35.1 525.7,35.0 526.9,34.9 528.1,34.8 529.3,34.6 530.5,34.5 531.7,34.2 532.9,34.0 534.1,33.8 535.3,33.7 536.5,33.5 537.7,33.4 538.9,33.2 540.1,33.1 541.3,33.0 542.5,32.9 543.7,32.8 544.9,32.6 546.1,32.4 547.3,32.3 548.4,32.1 549.6,32.0 550.8,31.8 552.0,31.6 553.2,31.5 554.4,31.4 555.6,31.3 556.8,31.3 558.0,31.1 559.2,31.0 560.4,30.8 561.6,30.7 562.8,30.5 564.0,30.4 565.2,30.3 566.4,30.2 567.6,30.2 568.8,30.1 570.0,30.0 570.0,30.0,120" />
  
  <!-- Linea principale -->
  <polyline fill="none" stroke="#0366d6" stroke-width="2.5" stroke-linecap="round" stroke-linejoin="round" points="30.0,120.0 31.2,119.5 32.4,119.0 33.6,118.6 34.8,118.4 36.0,118.2 37.2,117.7 38.4,117.3 39.6,117.0 40.8,116.5 42.0,116.2 43.2,115.9 44.4,115.8 45.6,115.5 46.8,115.1 48.0,114.7 49.2,114.4 50.4,114.2 51.6,114.0 52.7,113.8 53.9,113.5 55.1,113.2 56.3,113.1 57.5,112.8 58.7,112.0 59.9,111.7 61.1,111.3 62.3,111.0 63.5,110.7 64.7,110.4 65.9,110.2 67.1,110.0 68.3,109.8 69.5,109.4 70.7,109.0 71.9,108.7 73.1,108.4 74.3,108.3 75.5,108.3 76.7,108.1 77.9,107.8 79.1,107.7 80.3,107.5 81.5,107.2 82.7,106.7 83.9,106.6 85.1,106.5 86.3,106.3 87.5,106.0 88.7,105.7 89.9,105.3 91.1,105.0 92.3,104.7 93.5,104.6 94.7,104.4 95.9,104.0 97.1,103.7 98.2,103.4 99.4,103.3 100.6,103.1 101.8,102.9 103.0,102.5 104.2,102.2 105.4,101.8 106.6,101.5 107.8,101.3 109.0,101.2 110.2,101.1 111.4,100.8 112.6,100.6 113.8,100.5 115.0,100.4 116.2,100.2 117.4,100.0 118.6,99.9 119.8,99.8 121.0,99.7 122.2,99.4 123.4,99.2 124.6,99.1 125.8,99.0 127.0,98.9 128.2,98.9 129.4,104.9 130.6,104.3 131.8,103.8 133.0,103.3 134.2,101.6 135.4,100.5 136.6,99.2 137.8,98.8 139.0,98.3 140.2,97.4 141.4,96.5 142.5,95.8 143.7,95.6 144.9,95.3 146.1,94.7 147.3,94.2 148.5,93.9 149.7,93.5 150.9,93.3 152.1,93.2 153.3,92.9 154.5,92.3 155.7,91.9 156.9,91.5 158.1,91.1 159.3,90.9 160.5,90.7 161.7,90.3 162.9,90.0 164.1,89.6 165.3,89.4 166.5,89.2 167.7,89.2 168.9,88.9 170.1,88.7 171.3,88.4 172.5,88.2 173.7,88.0 174.9,87.9 176.1,87.7 177.3,87.5 178.5,87.4 179.7,87.2 180.9,86.9 182.1,86.7 183.3,86.4 184.5,86.3 185.7,86.1 186.9,86.0 188.0,85.8 189.2,85.7 190.4,85.3 191.6,85.0 192.8,84.6 194.0,84.5 195.2,84.4 196.4,84.3 197.6,84.1 198.8,83.8 200.0,83.6 201.2,83.4 202.4,83.2 203.6,83.1 204.8,83.0 206.0,82.8 207.2,82.7 208.4,82.5 209.6,82.4 210.8,82.1 212.0,82.0 213.2,81.9 214.4,81.8 215.6,81.7 216.8,81.5 218.0,81.3 219.2,81.1 220.4,80.9 221.6,80.7 222.8,80.6 224.0,80.5 225.2,80.4 226.4,80.1 227.6,79.8 228.8,79.7 230.0,79.5 231.2,79.1 232.4,79.1 233.5,79.0 234.7,78.9 235.9,78.7 237.1,78.6 238.3,78.4 239.5,78.2 240.7,78.1 241.9,78.0 243.1,77.8 244.3,77.7 245.5,77.6 246.7,77.5 247.9,77.2 249.1,77.1 250.3,76.9 251.5,76.8 252.7,76.7 253.9,76.6 255.1,76.5 256.3,76.4 257.5,76.2 258.7,75.9 259.9,75.7 261.1,75.5 262.3,75.3 263.5,75.3 264.7,75.2 265.9,75.0 267.1,74.8 268.3,74.7 269.5,74.6 270.7,74.4 271.9,74.3 273.1,74.1 274.3,74.0 275.5,73.9 276.7,73.7 277.8,73.5 279.0,73.3 280.2,73.1 281.4,73.1 282.6,73.0 283.8,73.0 285.0,72.8 286.2,72.7 287.4,72.5 288.6,72.4 289.8,72.2 291.0,72.1 292.2,72.0 293.4,71.9 294.6,71.8 295.8,71.6 297.0,71.4 298.2,71.2 299.4,71.1 300.6,71.0 301.8,70.9 303.0,70.8 304.2,70.7 305.4,70.6 306.6,70.5 307.8,70.3 309.0,70.1 310.2,70.0 311.4,69.9 312.6,69.8 313.8,69.7 315.0,69.5 316.2,69.4 317.4,69.3 318.6,69.2 319.8,69.0 321.0,68.9 322.2,68.7 323.3,68.6 324.5,68.6 325.7,68.5 326.9,68.4 328.1,68.2 329.3,68.1 330.5,68.1 331.7,68.0 332.9,67.7 334.1,67.5 335.3,71.4 336.5,70.7 337.7,69.2 338.9,68.6 340.1,67.9 341.3,67.0 342.5,66.6 343.7,66.3 344.9,65.7 346.1,64.9 347.3,64.2 348.5,64.0 349.7,63.7 350.9,63.4 352.1,63.0 353.3,62.6 354.5,62.1 355.7,61.9 356.9,61.4 358.1,61.2 359.3,60.9 360.5,60.7 361.7,60.5 362.9,60.3 364.1,59.8 365.3,59.6 366.5,59.2 367.6,58.6 368.8,58.3 370.0,58.1 371.2,58.0 372.4,57.8 373.6,57.4 374.8,57.1 376.0,56.8 377.2,56.0 378.4,55.4 379.6,55.1 380.8,55.0 382.0,54.7 383.2,54.3 384.4,53.9 385.6,53.4 386.8,53.1 388.0,52.8 389.2,52.6 390.4,52.2 391.6,52.0 392.8,51.8 394.0,51.7 395.2,51.5 396.4,51.3 397.6,51.1 398.8,50.9 400.0,50.7 401.2,50.6 402.4,50.3 403.6,50.2 404.8,50.0 406.0,49.8 407.2,49.7 408.4,49.5 409.6,49.4 410.8,49.3 412.0,49.1 413.1,49.1 414.3,48.9 415.5,48.7 416.7,48.6 417.9,48.4 419.1,48.2 420.3,48.1 421.5,47.9 422.7,47.8 423.9,47.7 425.1,47.6 426.3,47.4 427.5,47.3 428.7,47.2 429.9,47.1 431.1,46.9 432.3,46.7 433.5,46.5 434.7,46.3 435.9,46.2 437.1,46.0 438.3,45.8 439.5,45.6 440.7,45.4 441.9,45.2 443.1,45.0 444.3,44.8 445.5,44.6 446.7,44.4 447.9,44.2 449.1,44.0 450.3,43.9 451.5,43.7 452.7,43.6 453.9,43.5 455.1,43.4 456.3,43.2 457.5,43.1 458.6,42.9 459.8,42.7 461.0,42.5 462.2,42.2 463.4,42.1 464.6,41.8 465.8,41.7 467.0,41.5 468.2,41.4 469.4,41.3 470.6,41.2 471.8,41.0 473.0,40.8 474.2,40.7 475.4,40.4 476.6,40.3 477.8,40.2 479.0,40.0 480.2,39.9 481.4,39.8 482.6,39.7 483.8,39.6 485.0,39.5 486.2,39.4 487.4,39.2 488.6,39.1 489.8,38.9 491.0,38.7 492.2,38.6 493.4,38.5 494.6,38.4 495.8,38.3 497.0,38.1 498.2,38.0 499.4,37.9 500.6,37.7 501.8,37.5 502.9,37.3 504.1,37.0 505.3,37.0 506.5,36.9 507.7,36.8 508.9,36.7 510.1,36.6 511.3,36.5 512.5,36.4 513.7,36.3 514.9,36.2 516.1,36.1 517.3,35.9 518.5,35.7 519.7,35.6 520.9,35.5 522.1,35.4 523.3,35.2 524.5,35.1 525.7,35.0 526.9,34.9 528.1,34.8 529.3,34.6 530.5,34.5 531.7,34.2 532.9,34.0 534.1,33.8 535.3,33.7 536.5,33.5 537.7,33.4 538.9,33.2 540.1,33.1 541.3,33.0 542.5,32.9 543.7,32.8 544.9,32.6 546.1,32.4 547.3,32.3 548.4,32.1 549.6,32.0 550.8,31.8 552.0,31.6 553.2,31.5 554.4,31.4 555.6,31.3 556.8,31.3 558.0,31.1 559.2,31.0 560.4,30.8 561.6,30.7 562.8,30.5 564.0,30.4 565.2,30.3 566.4,30.2 567.6,30.2 568.8,30.1 570.0,30.0" />
  
  <!-- Punto finale luminoso -->
  <circle cx="570.0" cy="30.0" r="4" fill="#ffffff" stroke="#0366d6" stroke-width="2.5" />
</svg>