<svg width="600" height="150" viewBox="0 0 600 150" xmlns="http://www.w3.org/2000/svg">
  <defs>
    <filter id="shadow2" x="-2%" y="-2%" width="104%" height="108%">
      <feDropShadow dx="0" dy="2" stdDeviation="3" flood-opacity="0.1" />
    </filter>
    <linearGradient id="fillGrad" x1="0" y1="0" x2="0" y2="1">
      <stop offset="0%" stop-color="#0366d6" stop-opacity="0.3"/>
      <stop offset="100%" stop-color="#0366d6" stop-opacity="0.02"/>
    </linearGradient>
  </defs>
  <rect width="600" height="150" rx="12" fill="#ffffff" filter="url(#shadow2)" stroke="#e1e4e8" stroke-width="1"/>
  <text x="20" y="24" fill="#2b3137" font-family="-apple-system,BlinkMacSystemFont,'Segoe UI',Helvetica,Arial,sans-serif" font-size="14" font-weight="600">📈 Download Growth (Actual: 84.0k)</text>
  
  <!-- Area sotto la linea -->
  <polygon fill="url(#fillGrad)" points="30.0,120.0,120 30.0,120.0 31.6,119.4 33.3,118.8 34.9,118.2 36.5,118.1 38.2,117.8 39.8,117.1 41.5,116.6 43.1,116.3 44.7,115.6 46.4,115.3 48.0,114.9 49.6,114.7 51.3,114.4 52.9,113.9 54.5,113.4 56.2,113.0 57.8,112.8 59.5,112.6 61.1,112.3 62.7,111.9 64.4,111.6 66.0,111.4 67.6,111.1 69.3,110.0 70.9,109.7 72.5,109.2 74.2,108.8 75.8,108.4 77.5,108.1 79.1,107.8 80.7,107.6 82.4,107.3 84.0,106.8 85.6,106.3 87.3,106.0 88.9,105.6 90.5,105.5 92.2,105.4 93.8,105.2 95.5,104.9 97.1,104.7 98.7,104.5 100.4,104.1 102.0,103.5 103.6,103.4 105.3,103.3 106.9,103.0 108.5,102.6 110.2,102.2 111.8,101.8 113.5,101.4 115.1,101.0 116.7,100.9 118.4,100.6 120.0,100.2 121.6,99.7 123.3,99.4 124.9,99.2 126.5,99.0 128.2,98.8 129.8,98.3 131.5,97.9 133.1,97.4 134.7,97.0 136.4,96.8 138.0,96.7 139.6,96.5 141.3,96.2 142.9,96.0 144.5,95.8 146.2,95.6 147.8,95.4 149.5,95.2 151.1,95.0 152.7,94.9 154.4,94.8 156.0,94.4 157.6,94.1 159.3,94.0 160.9,93.9 162.5,93.8 164.2,93.8 165.8,101.3 167.5,100.6 169.1,99.9 170.7,99.2 172.4,97.2 174.0,95.7 175.6,94.2 177.3,93.6 178.9,93.0 180.5,91.9 182.2,90.8 183.8,90.0 185.5,89.6 187.1,89.3 188.7,88.5 190.4,87.9 192.0,87.5 193.6,87.1 195.3,86.9 196.9,86.8 198.5,86.3 200.2,85.6 201.8,85.1 203.5,84.6 205.1,84.1 206.7,83.8 208.4,83.6 210.0,83.1 211.6,82.7 213.3,82.3 214.9,81.9 216.5,81.8 218.2,81.7 219.8,81.4 221.5,81.1 223.1,80.8 224.7,80.5 226.4,80.3 228.0,80.1 229.6,79.9 231.3,79.7 232.9,79.5 234.5,79.3 236.2,78.9 237.8,78.6 239.5,78.3 241.1,78.1 242.7,77.9 244.4,77.7 246.0,77.6 247.6,77.4 249.3,76.8 250.9,76.5 252.5,76.0 254.2,75.8 255.8,75.8 257.5,75.6 259.1,75.4 260.7,75.1 262.4,74.8 264.0,74.5 265.6,74.3 267.3,74.2 268.9,74.0 270.5,73.8 272.2,73.7 273.8,73.5 275.5,73.3 277.1,73.0 278.7,72.8 280.4,72.7 282.0,72.5 283.6,72.4 285.3,72.2 286.9,71.9 288.5,71.7 290.2,71.4 291.8,71.2 293.5,71.0 295.1,70.9 296.7,70.8 298.4,70.4 300.0,70.1 301.6,69.9 303.3,69.6 304.9,69.2 306.5,69.1 308.2,69.0 309.8,68.9 311.5,68.7 313.1,68.5 314.7,68.3 316.4,68.1 318.0,67.9 319.6,67.8 321.3,67.6 322.9,67.5 324.5,67.4 326.2,67.2 327.8,66.9 329.5,66.7 331.1,66.5 332.7,66.4 334.4,66.2 336.0,66.0 337.6,65.9 339.3,65.8 340.9,65.6 342.5,65.3 344.2,64.9 345.8,64.7 347.5,64.5 349.1,64.4 350.7,64.4 352.4,64.2 354.0,63.8 355.6,63.7 357.3,63.6 358.9,63.4 360.5,63.2 362.2,63.0 363.8,62.9 365.5,62.7 367.1,62.5 368.7,62.3 370.4,62.0 372.0,61.8 373.6,61.7 375.3,61.6 376.9,61.6 378.5,61.4 380.2,61.2 381.8,61.0 383.5,60.8 385.1,60.6 386.7,60.5 388.4,60.4 390.0,60.2 391.6,60.1 393.3,59.8 394.9,59.6 396.5,59.4 398.2,59.2 399.8,59.1 401.5,59.0 403.1,58.9 404.7,58.8 406.4,58.6 408.0,58.5 409.6,58.2 411.3,58.1 412.9,57.9 414.5,57.8 416.2,57.6 417.8,57.5 419.5,57.3 421.1,57.1 422.7,57.0 424.4,56.8 426.0,56.6 427.6,56.5 429.3,56.3 430.9,56.2 432.5,56.1 434.2,56.0 435.8,55.8 437.5,55.7 439.1,55.5 440.7,55.5 442.4,55.3 444.0,55.0 445.6,54.8 447.3,59.7 448.9,58.7 450.5,56.8 452.2,56.1 453.8,55.3 455.5,54.2 457.1,53.7 458.7,53.3 460.4,52.6 462.0,51.5 463.6,50.7 465.3,50.5 466.9,50.1 468.5,49.7 470.2,49.2 471.8,48.7 473.5,48.1 475.1,47.8 476.7,47.2 478.4,47.0 480.0,46.6 481.6,46.4 483.3,46.1 484.9,45.8 486.5,45.3 488.2,44.9 489.8,44.4 491.5,43.8 493.1,43.4 494.7,43.1 496.4,42.9 498.0,42.7 499.6,42.2 501.3,41.9 502.9,41.5 504.5,40.5 506.2,39.8 507.8,39.4 509.5,39.2 511.1,38.9 512.7,38.3 514.4,37.9 516.0,37.3 517.6,36.9 519.3,36.6 520.9,36.2 522.5,35.8 524.2,35.5 525.8,35.3 527.5,35.1 529.1,34.9 530.7,34.6 532.4,34.5 534.0,34.2 535.6,33.9 537.3,33.8 538.9,33.5 540.5,33.3 542.2,33.0 543.8,32.8 545.5,32.6 547.1,32.5 548.7,32.3 550.4,32.1 552.0,32.0 553.6,31.9 555.3,31.6 556.9,31.5 558.5,31.3 560.2,31.0 561.8,30.8 563.5,30.7 565.1,30.4 566.7,30.3 568.4,30.2 570.0,30.0 570.0,30.0,120" />
  
  <!-- Linea principale -->
  <polyline fill="none" stroke="#0366d6" stroke-width="2.5" stroke-linecap="round" stroke-linejoin="round" points="30.0,120.0 31.6,119.4 33.3,118.8 34.9,118.2 36.5,118.1 38.2,117.8 39.8,117.1 41.5,116.6 43.1,116.3 44.7,115.6 46.4,115.3 48.0,114.9 49.6,114.7 51.3,114.4 52.9,113.9 54.5,113.4 56.2,113.0 57.8,112.8 59.5,112.6 61.1,112.3 62.7,111.9 64.4,111.6 66.0,111.4 67.6,111.1 69.3,110.0 70.9,109.7 72.5,109.2 74.2,108.8 75.8,108.4 77.5,108.1 79.1,107.8 80.7,107.6 82.4,107.3 84.0,106.8 85.6,106.3 87.3,106.0 88.9,105.6 90.5,105.5 92.2,105.4 93.8,105.2 95.5,104.9 97.1,104.7 98.7,104.5 100.4,104.1 102.0,103.5 103.6,103.4 105.3,103.3 106.9,103.0 108.5,102.6 110.2,102.2 111.8,101.8 113.5,101.4 115.1,101.0 116.7,100.9 118.4,100.6 120.0,100.2 121.6,99.7 123.3,99.4 124.9,99.2 126.5,99.0 128.2,98.8 129.8,98.3 131.5,97.9 133.1,97.4 134.7,97.0 136.4,96.8 138.0,96.7 139.6,96.5 141.3,96.2 142.9,96.0 144.5,95.8 146.2,95.6 147.8,95.4 149.5,95.2 151.1,95.0 152.7,94.9 154.4,94.8 156.0,94.4 157.6,94.1 159.3,94.0 160.9,93.9 162.5,93.8 164.2,93.8 165.8,101.3 167.5,100.6 169.1,99.9 170.7,99.2 172.4,97.2 174.0,95.7 175.6,94.2 177.3,93.6 178.9,93.0 180.5,91.9 182.2,90.8 183.8,90.0 185.5,89.6 187.1,89.3 188.7,88.5 190.4,87.9 192.0,87.5 193.6,87.1 195.3,86.9 196.9,86.8 198.5,86.3 200.2,85.6 201.8,85.1 203.5,84.6 205.1,84.1 206.7,83.8 208.4,83.6 210.0,83.1 211.6,82.7 213.3,82.3 214.9,81.9 216.5,81.8 218.2,81.7 219.8,81.4 221.5,81.1 223.1,80.8 224.7,80.5 226.4,80.3 228.0,80.1 229.6,79.9 231.3,79.7 232.9,79.5 234.5,79.3 236.2,78.9 237.8,78.6 239.5,78.3 241.1,78.1 242.7,77.9 244.4,77.7 246.0,77.6 247.6,77.4 249.3,76.8 250.9,76.5 252.5,76.0 254.2,75.8 255.8,75.8 257.5,75.6 259.1,75.4 260.7,75.1 262.4,74.8 264.0,74.5 265.6,74.3 267.3,74.2 268.9,74.0 270.5,73.8 272.2,73.7 273.8,73.5 275.5,73.3 277.1,73.0 278.7,72.8 280.4,72.7 282.0,72.5 283.6,72.4 285.3,72.2 286.9,71.9 288.5,71.7 290.2,71.4 291.8,71.2 293.5,71.0 295.1,70.9 296.7,70.8 298.4,70.4 300.0,70.1 301.6,69.9 303.3,69.6 304.9,69.2 306.5,69.1 308.2,69.0 309.8,68.9 311.5,68.7 313.1,68.5 314.7,68.3 316.4,68.1 318.0,67.9 319.6,67.8 321.3,67.6 322.9,67.5 324.5,67.4 326.2,67.2 327.8,66.9 329.5,66.7 331.1,66.5 332.7,66.4 334.4,66.2 336.0,66.0 337.6,65.9 339.3,65.8 340.9,65.6 342.5,65.3 344.2,64.9 345.8,64.7 347.5,64.5 349.1,64.4 350.7,64.4 352.4,64.2 354.0,63.8 355.6,63.7 357.3,63.6 358.9,63.4 360.5,63.2 362.2,63.0 363.8,62.9 365.5,62.7 367.1,62.5 368.7,62.3 370.4,62.0 372.0,61.8 373.6,61.7 375.3,61.6 376.9,61.6 378.5,61.4 380.2,61.2 381.8,61.0 383.5,60.8 385.1,60.6 386.7,60.5 388.4,60.4 390.0,60.2 391.6,60.1 393.3,59.8 394.9,59.6 396.5,59.4 398.2,59.2 399.8,59.1 401.5,59.0 403.1,58.9 404.7,58.8 406.4,58.6 408.0,58.5 409.6,58.2 411.3,58.1 412.9,57.9 414.5,57.8 416.2,57.6 417.8,57.5 419.5,57.3 421.1,57.1 422.7,57.0 424.4,56.8 426.0,56.6 427.6,56.5 429.3,56.3 430.9,56.2 432.5,56.1 434.2,56.0 435.8,55.8 437.5,55.7 439.1,55.5 440.7,55.5 442.4,55.3 444.0,55.0 445.6,54.8 447.3,59.7 448.9,58.7 450.5,56.8 452.2,56.1 453.8,55.3 455.5,54.2 457.1,53.7 458.7,53.3 460.4,52.6 462.0,51.5 463.6,50.7 465.3,50.5 466.9,50.1 468.5,49.7 470.2,49.2 471.8,48.7 473.5,48.1 475.1,47.8 476.7,47.2 478.4,47.0 480.0,46.6 481.6,46.4 483.3,46.1 484.9,45.8 486.5,45.3 488.2,44.9 489.8,44.4 491.5,43.8 493.1,43.4 494.7,43.1 496.4,42.9 498.0,42.7 499.6,42.2 501.3,41.9 502.9,41.5 504.5,40.5 506.2,39.8 507.8,39.4 509.5,39.2 511.1,38.9 512.7,38.3 514.4,37.9 516.0,37.3 517.6,36.9 519.3,36.6 520.9,36.2 522.5,35.8 524.2,35.5 525.8,35.3 527.5,35.1 529.1,34.9 530.7,34.6 532.4,34.5 534.0,34.2 535.6,33.9 537.3,33.8 538.9,33.5 540.5,33.3 542.2,33.0 543.8,32.8 545.5,32.6 547.1,32.5 548.7,32.3 550.4,32.1 552.0,32.0 553.6,31.9 555.3,31.6 556.9,31.5 558.5,31.3 560.2,31.0 561.8,30.8 563.5,30.7 565.1,30.4 566.7,30.3 568.4,30.2 570.0,30.0" />
  
  <!-- Punto finale luminoso -->
  <circle cx="570.0" cy="30.0" r="4" fill="#ffffff" stroke="#0366d6" stroke-width="2.5" />
</svg>