<svg width="600" height="150" viewBox="0 0 600 150" xmlns="http://www.w3.org/2000/svg">
  <defs>
    <filter id="shadow2" x="-2%" y="-2%" width="104%" height="108%">
      <feDropShadow dx="0" dy="2" stdDeviation="3" flood-opacity="0.1" />
    </filter>
    <linearGradient id="fillGrad" x1="0" y1="0" x2="0" y2="1">
      <stop offset="0%" stop-color="#0366d6" stop-opacity="0.3"/>
      <stop offset="100%" stop-color="#0366d6" stop-opacity="0.02"/>
    </linearGradient>
  </defs>
  <rect width="600" height="150" rx="12" fill="#ffffff" filter="url(#shadow2)" stroke="#e1e4e8" stroke-width="1"/>
  <text x="20" y="24" fill="#2b3137" font-family="-apple-system,BlinkMacSystemFont,'Segoe UI',Helvetica,Arial,sans-serif" font-size="14" font-weight="600">📈 Download Growth (Actual: 84.1k)</text>
  
  <!-- Area sotto la linea -->
  <polygon fill="url(#fillGrad)" points="30.0,120.0,120 30.0,120.0 31.6,119.4 33.2,118.8 34.9,118.2 36.5,118.1 38.1,117.8 39.7,117.1 41.3,116.7 42.9,116.4 44.6,115.7 46.2,115.3 47.8,115.0 49.4,114.8 51.0,114.4 52.6,114.0 54.3,113.5 55.9,113.1 57.5,112.8 59.1,112.6 60.7,112.3 62.3,112.0 64.0,111.6 65.6,111.5 67.2,111.2 68.8,110.1 70.4,109.7 72.0,109.3 73.7,108.9 75.3,108.5 76.9,108.1 78.5,107.9 80.1,107.7 81.7,107.4 83.4,106.9 85.0,106.4 86.6,106.1 88.2,105.7 89.8,105.6 91.4,105.5 93.1,105.3 94.7,105.0 96.3,104.8 97.9,104.6 99.5,104.2 101.1,103.6 102.8,103.5 104.4,103.4 106.0,103.1 107.6,102.7 109.2,102.4 110.8,101.9 112.5,101.5 114.1,101.1 115.7,101.0 117.3,100.7 118.9,100.3 120.5,99.9 122.2,99.5 123.8,99.4 125.4,99.2 127.0,99.0 128.6,98.5 130.2,98.0 131.9,97.6 133.5,97.2 135.1,97.0 136.7,96.9 138.3,96.7 139.9,96.3 141.6,96.1 143.2,95.9 144.8,95.8 146.4,95.6 148.0,95.4 149.6,95.2 151.3,95.1 152.9,95.0 154.5,94.5 156.1,94.3 157.7,94.2 159.3,94.1 161.0,94.0 162.6,94.0 164.2,101.4 165.8,100.7 167.4,100.0 169.0,99.3 170.7,97.3 172.3,95.9 173.9,94.4 175.5,93.8 177.1,93.2 178.7,92.1 180.4,91.0 182.0,90.2 183.6,89.8 185.2,89.5 186.8,88.7 188.4,88.1 190.1,87.7 191.7,87.3 193.3,87.1 194.9,87.0 196.5,86.6 198.1,85.9 199.8,85.4 201.4,84.9 203.0,84.3 204.6,84.0 206.2,83.8 207.8,83.4 209.5,82.9 211.1,82.5 212.7,82.2 214.3,82.0 215.9,81.9 217.5,81.7 219.2,81.3 220.8,81.0 222.4,80.8 224.0,80.6 225.6,80.3 227.2,80.1 228.9,79.9 230.5,79.8 232.1,79.6 233.7,79.2 235.3,78.9 236.9,78.6 238.6,78.4 240.2,78.2 241.8,78.0 243.4,77.8 245.0,77.7 246.6,77.1 248.3,76.8 249.9,76.3 251.5,76.1 253.1,76.1 254.7,75.9 256.3,75.7 258.0,75.4 259.6,75.1 261.2,74.8 262.8,74.6 264.4,74.5 266.0,74.3 267.7,74.1 269.3,74.0 270.9,73.8 272.5,73.6 274.1,73.3 275.7,73.1 277.4,73.0 279.0,72.9 280.6,72.8 282.2,72.5 283.8,72.2 285.4,72.0 287.1,71.8 288.7,71.5 290.3,71.4 291.9,71.3 293.5,71.1 295.1,70.8 296.8,70.4 298.4,70.2 300.0,70.0 301.6,69.6 303.2,69.5 304.9,69.4 306.5,69.2 308.1,69.0 309.7,68.9 311.3,68.6 312.9,68.5 314.6,68.3 316.2,68.1 317.8,67.9 319.4,67.8 321.0,67.7 322.6,67.5 324.3,67.2 325.9,67.1 327.5,66.8 329.1,66.7 330.7,66.6 332.3,66.4 334.0,66.3 335.6,66.1 337.2,66.0 338.8,65.6 340.4,65.3 342.0,65.1 343.7,64.9 345.3,64.8 346.9,64.7 348.5,64.5 350.1,64.2 351.7,64.1 353.4,64.0 355.0,63.8 356.6,63.6 358.2,63.4 359.8,63.3 361.4,63.1 363.1,62.9 364.7,62.7 366.3,62.4 367.9,62.2 369.5,62.1 371.1,62.0 372.8,61.9 374.4,61.8 376.0,61.6 377.6,61.4 379.2,61.2 380.8,61.0 382.5,60.9 384.1,60.8 385.7,60.6 387.3,60.5 388.9,60.2 390.5,60.0 392.2,59.8 393.8,59.6 395.4,59.5 397.0,59.4 398.6,59.3 400.2,59.2 401.9,59.1 403.5,58.9 405.1,58.6 406.7,58.5 408.3,58.3 409.9,58.2 411.6,58.0 413.2,57.9 414.8,57.7 416.4,57.5 418.0,57.4 419.6,57.3 421.3,57.1 422.9,56.9 424.5,56.7 426.1,56.6 427.7,56.5 429.3,56.4 431.0,56.3 432.6,56.1 434.2,56.0 435.8,55.9 437.4,55.8 439.0,55.4 440.7,55.2 442.3,60.1 443.9,59.1 445.5,57.3 447.1,56.6 448.7,55.7 450.4,54.7 452.0,54.1 453.6,53.7 455.2,53.0 456.8,52.0 458.4,51.2 460.1,50.9 461.7,50.5 463.3,50.2 464.9,49.7 466.5,49.1 468.1,48.5 469.8,48.3 471.4,47.7 473.0,47.5 474.6,47.1 476.2,46.8 477.8,46.6 479.5,46.3 481.1,45.8 482.7,45.4 484.3,44.9 485.9,44.3 487.5,43.9 489.2,43.7 490.8,43.5 492.4,43.2 494.0,42.8 495.6,42.4 497.2,42.1 498.9,41.1 500.5,40.3 502.1,39.9 503.7,39.7 505.3,39.4 506.9,38.9 508.6,38.4 510.2,37.8 511.8,37.5 513.4,37.1 515.0,36.8 516.6,36.3 518.3,36.1 519.9,35.9 521.5,35.7 523.1,35.5 524.7,35.2 526.3,35.0 528.0,34.7 529.6,34.5 531.2,34.4 532.8,34.0 534.4,33.9 536.0,33.6 537.7,33.4 539.3,33.2 540.9,33.0 542.5,32.9 544.1,32.7 545.7,32.6 547.4,32.5 549.0,32.2 550.6,32.1 552.2,31.8 553.8,31.6 555.4,31.4 557.1,31.3 558.7,31.0 560.3,30.9 561.9,30.8 563.5,30.6 565.1,30.4 566.8,30.3 568.4,30.2 570.0,30.0 570.0,30.0,120" />
  
  <!-- Linea principale -->
  <polyline fill="none" stroke="#0366d6" stroke-width="2.5" stroke-linecap="round" stroke-linejoin="round" points="30.0,120.0 31.6,119.4 33.2,118.8 34.9,118.2 36.5,118.1 38.1,117.8 39.7,117.1 41.3,116.7 42.9,116.4 44.6,115.7 46.2,115.3 47.8,115.0 49.4,114.8 51.0,114.4 52.6,114.0 54.3,113.5 55.9,113.1 57.5,112.8 59.1,112.6 60.7,112.3 62.3,112.0 64.0,111.6 65.6,111.5 67.2,111.2 68.8,110.1 70.4,109.7 72.0,109.3 73.7,108.9 75.3,108.5 76.9,108.1 78.5,107.9 80.1,107.7 81.7,107.4 83.4,106.9 85.0,106.4 86.6,106.1 88.2,105.7 89.8,105.6 91.4,105.5 93.1,105.3 94.7,105.0 96.3,104.8 97.9,104.6 99.5,104.2 101.1,103.6 102.8,103.5 104.4,103.4 106.0,103.1 107.6,102.7 109.2,102.4 110.8,101.9 112.5,101.5 114.1,101.1 115.7,101.0 117.3,100.7 118.9,100.3 120.5,99.9 122.2,99.5 123.8,99.4 125.4,99.2 127.0,99.0 128.6,98.5 130.2,98.0 131.9,97.6 133.5,97.2 135.1,97.0 136.7,96.9 138.3,96.7 139.9,96.3 141.6,96.1 143.2,95.9 144.8,95.8 146.4,95.6 148.0,95.4 149.6,95.2 151.3,95.1 152.9,95.0 154.5,94.5 156.1,94.3 157.7,94.2 159.3,94.1 161.0,94.0 162.6,94.0 164.2,101.4 165.8,100.7 167.4,100.0 169.0,99.3 170.7,97.3 172.3,95.9 173.9,94.4 175.5,93.8 177.1,93.2 178.7,92.1 180.4,91.0 182.0,90.2 183.6,89.8 185.2,89.5 186.8,88.7 188.4,88.1 190.1,87.7 191.7,87.3 193.3,87.1 194.9,87.0 196.5,86.6 198.1,85.9 199.8,85.4 201.4,84.9 203.0,84.3 204.6,84.0 206.2,83.8 207.8,83.4 209.5,82.9 211.1,82.5 212.7,82.2 214.3,82.0 215.9,81.9 217.5,81.7 219.2,81.3 220.8,81.0 222.4,80.8 224.0,80.6 225.6,80.3 227.2,80.1 228.9,79.9 230.5,79.8 232.1,79.6 233.7,79.2 235.3,78.9 236.9,78.6 238.6,78.4 240.2,78.2 241.8,78.0 243.4,77.8 245.0,77.7 246.6,77.1 248.3,76.8 249.9,76.3 251.5,76.1 253.1,76.1 254.7,75.9 256.3,75.7 258.0,75.4 259.6,75.1 261.2,74.8 262.8,74.6 264.4,74.5 266.0,74.3 267.7,74.1 269.3,74.0 270.9,73.8 272.5,73.6 274.1,73.3 275.7,73.1 277.4,73.0 279.0,72.9 280.6,72.8 282.2,72.5 283.8,72.2 285.4,72.0 287.1,71.8 288.7,71.5 290.3,71.4 291.9,71.3 293.5,71.1 295.1,70.8 296.8,70.4 298.4,70.2 300.0,70.0 301.6,69.6 303.2,69.5 304.9,69.4 306.5,69.2 308.1,69.0 309.7,68.9 311.3,68.6 312.9,68.5 314.6,68.3 316.2,68.1 317.8,67.9 319.4,67.8 321.0,67.7 322.6,67.5 324.3,67.2 325.9,67.1 327.5,66.8 329.1,66.7 330.7,66.6 332.3,66.4 334.0,66.3 335.6,66.1 337.2,66.0 338.8,65.6 340.4,65.3 342.0,65.1 343.7,64.9 345.3,64.8 346.9,64.7 348.5,64.5 350.1,64.2 351.7,64.1 353.4,64.0 355.0,63.8 356.6,63.6 358.2,63.4 359.8,63.3 361.4,63.1 363.1,62.9 364.7,62.7 366.3,62.4 367.9,62.2 369.5,62.1 371.1,62.0 372.8,61.9 374.4,61.8 376.0,61.6 377.6,61.4 379.2,61.2 380.8,61.0 382.5,60.9 384.1,60.8 385.7,60.6 387.3,60.5 388.9,60.2 390.5,60.0 392.2,59.8 393.8,59.6 395.4,59.5 397.0,59.4 398.6,59.3 400.2,59.2 401.9,59.1 403.5,58.9 405.1,58.6 406.7,58.5 408.3,58.3 409.9,58.2 411.6,58.0 413.2,57.9 414.8,57.7 416.4,57.5 418.0,57.4 419.6,57.3 421.3,57.1 422.9,56.9 424.5,56.7 426.1,56.6 427.7,56.5 429.3,56.4 431.0,56.3 432.6,56.1 434.2,56.0 435.8,55.9 437.4,55.8 439.0,55.4 440.7,55.2 442.3,60.1 443.9,59.1 445.5,57.3 447.1,56.6 448.7,55.7 450.4,54.7 452.0,54.1 453.6,53.7 455.2,53.0 456.8,52.0 458.4,51.2 460.1,50.9 461.7,50.5 463.3,50.2 464.9,49.7 466.5,49.1 468.1,48.5 469.8,48.3 471.4,47.7 473.0,47.5 474.6,47.1 476.2,46.8 477.8,46.6 479.5,46.3 481.1,45.8 482.7,45.4 484.3,44.9 485.9,44.3 487.5,43.9 489.2,43.7 490.8,43.5 492.4,43.2 494.0,42.8 495.6,42.4 497.2,42.1 498.9,41.1 500.5,40.3 502.1,39.9 503.7,39.7 505.3,39.4 506.9,38.9 508.6,38.4 510.2,37.8 511.8,37.5 513.4,37.1 515.0,36.8 516.6,36.3 518.3,36.1 519.9,35.9 521.5,35.7 523.1,35.5 524.7,35.2 526.3,35.0 528.0,34.7 529.6,34.5 531.2,34.4 532.8,34.0 534.4,33.9 536.0,33.6 537.7,33.4 539.3,33.2 540.9,33.0 542.5,32.9 544.1,32.7 545.7,32.6 547.4,32.5 549.0,32.2 550.6,32.1 552.2,31.8 553.8,31.6 555.4,31.4 557.1,31.3 558.7,31.0 560.3,30.9 561.9,30.8 563.5,30.6 565.1,30.4 566.8,30.3 568.4,30.2 570.0,30.0" />
  
  <!-- Punto finale luminoso -->
  <circle cx="570.0" cy="30.0" r="4" fill="#ffffff" stroke="#0366d6" stroke-width="2.5" />
</svg>